0
SECTION
2
HEADER
9
$ACADVER
1
AC1006
9
$INSBASE
10
0.0
20
0.0
30
0.0
9
$EXTMIN
10
0.0
20
0.0
9
$EXTMAX
10
0.0
20
0.0
0
ENDSEC
0
SECTION
2
TABLES
0
TABLE
2
LTYPE
70
1
0
LTYPE
2
CONTINUOUS
70
64
3
Solid line
72
65
73
0
40
0.0
0
ENDTAB
0
TABLE
2
LAYER
70
17
0
LAYER
2
0
70
0
62
255
6
continuous
0
LAYER
2
Outline
70
0
62
1
6
continuous
0
LAYER
2
C1
70
0
62
151
6
continuous
0
LAYER
2
V4
70
0
62
106
6
continuous
0
LAYER
2
C2
70
0
62
120
6
continuous
0
LAYER
2
V5
70
0
62
246
6
continuous
0
LAYER
2
C3
70
0
62
131
6
continuous
0
LAYER
2
G
70
0
62
75
6
continuous
0
LAYER
2
H1
70
0
62
171
6
continuous
0
LAYER
2
L1
70
0
62
121
6
continuous
0
LAYER
2
V1
70
0
62
190
6
continuous
0
LAYER
2
L2
70
0
62
112
6
continuous
0
LAYER
2
V2
70
0
62
67
6
continuous
0
LAYER
2
L3
70
0
62
150
6
continuous
0
LAYER
2
V3
70
0
62
243
6
continuous
0
LAYER
2
L4
70
0
62
105
6
continuous
0
LAYER
2
Mark
70
0
62
5
6
continuous
0
ENDTAB
0
TABLE
2
STYLE
70
1
0
STYLE
2
STANDARD
70
0
40
0
41
1
50
0
71
0
42
1
3
ARIAL.TTF
4

0
ENDTAB
0
TABLE
2
VIEW
70
0
0
ENDTAB
0
ENDSEC
0
SECTION
2
BLOCKS
0
ENDSEC
0
SECTION
2
ENTITIES
0
POLYLINE
8
Outline
66
1
70
1
0
VERTEX
8
Outline
10
0.75
20
1.015
0
VERTEX
8
Outline
10
0.75
20
-1.015
0
VERTEX
8
Outline
10
-0.75
20
-1.015
0
VERTEX
8
Outline
10
-0.75
20
1.015
0
SEQEND
0
POLYLINE
8
Outline
66
1
70
1
0
VERTEX
8
Outline
10
3.0
20
2.5374999999999996
0
VERTEX
8
Outline
10
3.0
20
0.5075000000000001
0
VERTEX
8
Outline
10
1.5
20
0.5075000000000001
0
VERTEX
8
Outline
10
1.5
20
2.5374999999999996
0
SEQEND
0
POLYLINE
8
Outline
66
1
70
1
0
VERTEX
8
Outline
10
0.75
20
4.06
0
VERTEX
8
Outline
10
0.75
20
2.0300000000000002
0
VERTEX
8
Outline
10
-0.75
20
2.0300000000000002
0
VERTEX
8
Outline
10
-0.75
20
4.06
0
SEQEND
0
POLYLINE
8
Outline
66
1
70
1
0
VERTEX
8
Outline
10
3.0
20
5.5825
0
VERTEX
8
Outline
10
3.0
20
3.5525
0
VERTEX
8
Outline
10
1.5
20
3.5525
0
VERTEX
8
Outline
10
1.5
20
5.5825
0
SEQEND
0
POLYLINE
8
Outline
66
1
70
1
0
VERTEX
8
Outline
10
0.75
20
7.1049999999999995
0
VERTEX
8
Outline
10
0.75
20
5.075
0
VERTEX
8
Outline
10
-0.75
20
5.075
0
VERTEX
8
Outline
10
-0.75
20
7.1049999999999995
0
SEQEND
0
POLYLINE
8
Outline
66
1
70
1
0
VERTEX
8
Outline
10
3.0
20
8.6275
0
VERTEX
8
Outline
10
3.0
20
6.5975
0
VERTEX
8
Outline
10
1.5
20
6.5975
0
VERTEX
8
Outline
10
1.5
20
8.6275
0
SEQEND
0
POLYLINE
8
Outline
66
1
70
1
0
VERTEX
8
Outline
10
0.75
20
10.15
0
VERTEX
8
Outline
10
0.75
20
8.12
0
VERTEX
8
Outline
10
-0.75
20
8.12
0
VERTEX
8
Outline
10
-0.75
20
10.15
0
SEQEND
0
POLYLINE
8
Outline
66
1
70
1
0
VERTEX
8
Outline
10
3.0
20
11.6725
0
VERTEX
8
Outline
10
3.0
20
9.642499999999998
0
VERTEX
8
Outline
10
1.5
20
9.642499999999998
0
VERTEX
8
Outline
10
1.5
20
11.6725
0
SEQEND
0
POLYLINE
8
Outline
66
1
70
1
0
VERTEX
8
Outline
10
0.75
20
13.195
0
VERTEX
8
Outline
10
0.75
20
11.165
0
VERTEX
8
Outline
10
-0.75
20
11.165
0
VERTEX
8
Outline
10
-0.75
20
13.195
0
SEQEND
0
POLYLINE
8
Outline
66
1
70
1
0
VERTEX
8
Outline
10
3.0
20
14.717500000000001
0
VERTEX
8
Outline
10
3.0
20
12.6875
0
VERTEX
8
Outline
10
1.5
20
12.6875
0
VERTEX
8
Outline
10
1.5
20
14.717500000000001
0
SEQEND
0
POLYLINE
8
C1
66
1
70
1
0
VERTEX
8
C1
10
0.05
20
0.16
0
VERTEX
8
C1
10
0.0241181
20
0.163407
0
VERTEX
8
C1
10
4.16334e-17
20
0.173397
0
VERTEX
8
C1
10
-0.0207107
20
0.189289
0
VERTEX
8
C1
10
-0.0366025
20
0.21
0
VERTEX
8
C1
10
-0.0465926
20
0.234118
0
VERTEX
8
C1
10
-0.05
20
0.26
0
VERTEX
8
C1
10
-0.05
20
0.43
0
VERTEX
8
C1
10
-0.0465926
20
0.455882
0
VERTEX
8
C1
10
-0.0366025
20
0.48
0
VERTEX
8
C1
10
-0.0207107
20
0.500711
0
VERTEX
8
C1
10
-3.46945e-17
20
0.516603
0
VERTEX
8
C1
10
0.0241181
20
0.526593
0
VERTEX
8
C1
10
0.05
20
0.53
0
VERTEX
8
C1
10
0.15
20
0.53
0
VERTEX
8
C1
10
0.162941
20
0.531704
0
VERTEX
8
C1
10
0.175
20
0.536699
0
VERTEX
8
C1
10
0.185355
20
0.544645
0
VERTEX
8
C1
10
0.193301
20
0.555
0
VERTEX
8
C1
10
0.198296
20
0.567059
0
VERTEX
8
C1
10
0.2
20
0.58
0
VERTEX
8
C1
10
0.2
20
0.63
0
VERTEX
8
C1
10
0.201704
20
0.642941
0
VERTEX
8
C1
10
0.206699
20
0.655
0
VERTEX
8
C1
10
0.214645
20
0.665355
0
VERTEX
8
C1
10
0.225
20
0.673301
0
VERTEX
8
C1
10
0.237059
20
0.678296
0
VERTEX
8
C1
10
0.25
20
0.68
0
VERTEX
8
C1
10
0.5
20
0.68
0
VERTEX
8
C1
10
0.512941
20
0.681704
0
VERTEX
8
C1
10
0.525
20
0.686699
0
VERTEX
8
C1
10
0.535355
20
0.694645
0
VERTEX
8
C1
10
0.543301
20
0.705
0
VERTEX
8
C1
10
0.548296
20
0.717059
0
VERTEX
8
C1
10
0.55
20
0.73
0
VERTEX
8
C1
10
0.55
20
0.835
0
VERTEX
8
C1
10
0.551704
20
0.847941
0
VERTEX
8
C1
10
0.556699
20
0.86
0
VERTEX
8
C1
10
0.564645
20
0.870355
0
VERTEX
8
C1
10
0.575
20
0.878301
0
VERTEX
8
C1
10
0.587059
20
0.883296
0
VERTEX
8
C1
10
0.6
20
0.885
0
VERTEX
8
C1
10
0.75
20
0.885
0
VERTEX
8
C1
10
0.75
20
0.555
0
VERTEX
8
C1
10
0.56
20
0.555
0
VERTEX
8
C1
10
0.557412
20
0.554659
0
VERTEX
8
C1
10
0.555
20
0.55366
0
VERTEX
8
C1
10
0.552929
20
0.552071
0
VERTEX
8
C1
10
0.55134
20
0.55
0
VERTEX
8
C1
10
0.550341
20
0.547588
0
VERTEX
8
C1
10
0.55
20
0.545
0
VERTEX
8
C1
10
0.55
20
0.54
0
VERTEX
8
C1
10
0.549659
20
0.537412
0
VERTEX
8
C1
10
0.54866
20
0.535
0
VERTEX
8
C1
10
0.547071
20
0.532929
0
VERTEX
8
C1
10
0.545
20
0.53134
0
VERTEX
8
C1
10
0.542588
20
0.530341
0
VERTEX
8
C1
10
0.54
20
0.53
0
VERTEX
8
C1
10
0.4
20
0.53
0
VERTEX
8
C1
10
0.387059
20
0.528296
0
VERTEX
8
C1
10
0.375
20
0.523301
0
VERTEX
8
C1
10
0.364645
20
0.515355
0
VERTEX
8
C1
10
0.356699
20
0.505
0
VERTEX
8
C1
10
0.351704
20
0.492941
0
VERTEX
8
C1
10
0.35
20
0.48
0
VERTEX
8
C1
10
0.35
20
0.26
0
VERTEX
8
C1
10
0.346593
20
0.234118
0
VERTEX
8
C1
10
0.336603
20
0.21
0
VERTEX
8
C1
10
0.320711
20
0.189289
0
VERTEX
8
C1
10
0.3
20
0.173397
0
VERTEX
8
C1
10
0.275882
20
0.163407
0
VERTEX
8
C1
10
0.25
20
0.16
0
SEQEND
0
POLYLINE
8
C1
66
1
70
1
0
VERTEX
8
C1
10
-0.345
20
0.17
0
VERTEX
8
C1
10
-0.355718
20
0.13
0
VERTEX
8
C1
10
-0.385
20
0.100718
0
VERTEX
8
C1
10
-0.425
20
0.09
0
VERTEX
8
C1
10
-0.465
20
0.100718
0
VERTEX
8
C1
10
-0.494282
20
0.13
0
VERTEX
8
C1
10
-0.505
20
0.17
0
VERTEX
8
C1
10
-0.494282
20
0.21
0
VERTEX
8
C1
10
-0.465
20
0.239282
0
VERTEX
8
C1
10
-0.425
20
0.25
0
VERTEX
8
C1
10
-0.385
20
0.239282
0
VERTEX
8
C1
10
-0.355718
20
0.21
0
SEQEND
0
POLYLINE
8
C1
66
1
70
1
0
VERTEX
8
C1
10
-0.55
20
-0.232
0
VERTEX
8
C1
10
-0.546593
20
-0.206118
0
VERTEX
8
C1
10
-0.536603
20
-0.182
0
VERTEX
8
C1
10
-0.520711
20
-0.161289
0
VERTEX
8
C1
10
-0.5
20
-0.145397
0
VERTEX
8
C1
10
-0.475882
20
-0.135407
0
VERTEX
8
C1
10
-0.45
20
-0.132
0
VERTEX
8
C1
10
0.45
20
-0.132
0
VERTEX
8
C1
10
0.475882
20
-0.135407
0
VERTEX
8
C1
10
0.5
20
-0.145397
0
VERTEX
8
C1
10
0.520711
20
-0.161289
0
VERTEX
8
C1
10
0.536603
20
-0.182
0
VERTEX
8
C1
10
0.546593
20
-0.206118
0
VERTEX
8
C1
10
0.55
20
-0.232
0
VERTEX
8
C1
10
0.55
20
-0.505
0
VERTEX
8
C1
10
0.551704
20
-0.517941
0
VERTEX
8
C1
10
0.556699
20
-0.53
0
VERTEX
8
C1
10
0.564645
20
-0.540355
0
VERTEX
8
C1
10
0.575
20
-0.548301
0
VERTEX
8
C1
10
0.587059
20
-0.553296
0
VERTEX
8
C1
10
0.6
20
-0.555
0
VERTEX
8
C1
10
0.75
20
-0.555
0
VERTEX
8
C1
10
0.75
20
-0.885
0
VERTEX
8
C1
10
0.6
20
-0.885
0
VERTEX
8
C1
10
0.587059
20
-0.883296
0
VERTEX
8
C1
10
0.575
20
-0.878301
0
VERTEX
8
C1
10
0.564645
20
-0.870355
0
VERTEX
8
C1
10
0.556699
20
-0.86
0
VERTEX
8
C1
10
0.551704
20
-0.847941
0
VERTEX
8
C1
10
0.55
20
-0.835
0
VERTEX
8
C1
10
0.55
20
-0.76
0
VERTEX
8
C1
10
0.548296
20
-0.747059
0
VERTEX
8
C1
10
0.543301
20
-0.735
0
VERTEX
8
C1
10
0.535355
20
-0.724645
0
VERTEX
8
C1
10
0.525
20
-0.716699
0
VERTEX
8
C1
10
0.512941
20
-0.711704
0
VERTEX
8
C1
10
0.5
20
-0.71
0
VERTEX
8
C1
10
0.487059
20
-0.708296
0
VERTEX
8
C1
10
0.475
20
-0.703301
0
VERTEX
8
C1
10
0.464645
20
-0.695355
0
VERTEX
8
C1
10
0.456699
20
-0.685
0
VERTEX
8
C1
10
0.451704
20
-0.672941
0
VERTEX
8
C1
10
0.45
20
-0.66
0
VERTEX
8
C1
10
0.45
20
-0.61
0
VERTEX
8
C1
10
0.448296
20
-0.597059
0
VERTEX
8
C1
10
0.443301
20
-0.585
0
VERTEX
8
C1
10
0.435355
20
-0.574645
0
VERTEX
8
C1
10
0.425
20
-0.566699
0
VERTEX
8
C1
10
0.412941
20
-0.561704
0
VERTEX
8
C1
10
0.4
20
-0.56
0
VERTEX
8
C1
10
-0.45
20
-0.56
0
VERTEX
8
C1
10
-0.475882
20
-0.556593
0
VERTEX
8
C1
10
-0.5
20
-0.546603
0
VERTEX
8
C1
10
-0.520711
20
-0.530711
0
VERTEX
8
C1
10
-0.536603
20
-0.51
0
VERTEX
8
C1
10
-0.546593
20
-0.485882
0
VERTEX
8
C1
10
-0.55
20
-0.46
0
SEQEND
0
POLYLINE
8
V4
66
1
70
1
0
VERTEX
8
V4
10
-0.465
20
0.17
0
VERTEX
8
V4
10
-0.459641
20
0.19
0
VERTEX
8
V4
10
-0.445
20
0.204641
0
VERTEX
8
V4
10
-0.425
20
0.21
0
VERTEX
8
V4
10
-0.405
20
0.204641
0
VERTEX
8
V4
10
-0.390359
20
0.19
0
VERTEX
8
V4
10
-0.385
20
0.17
0
VERTEX
8
V4
10
-0.390359
20
0.15
0
VERTEX
8
V4
10
-0.405
20
0.135359
0
VERTEX
8
V4
10
-0.425
20
0.13
0
VERTEX
8
V4
10
-0.445
20
0.135359
0
VERTEX
8
V4
10
-0.459641
20
0.15
0
SEQEND
0
POLYLINE
8
V4
66
1
70
1
0
VERTEX
8
V4
10
-0.465
20
6.26
0
VERTEX
8
V4
10
-0.459641
20
6.28
0
VERTEX
8
V4
10
-0.445
20
6.2946409999999995
0
VERTEX
8
V4
10
-0.425
20
6.3
0
VERTEX
8
V4
10
-0.405
20
6.2946409999999995
0
VERTEX
8
V4
10
-0.390359
20
6.28
0
VERTEX
8
V4
10
-0.385
20
6.26
0
VERTEX
8
V4
10
-0.390359
20
6.24
0
VERTEX
8
V4
10
-0.405
20
6.225359
0
VERTEX
8
V4
10
-0.425
20
6.22
0
VERTEX
8
V4
10
-0.445
20
6.225359
0
VERTEX
8
V4
10
-0.459641
20
6.24
0
SEQEND
0
POLYLINE
8
V4
66
1
70
1
0
VERTEX
8
V4
10
-0.465
20
12.35
0
VERTEX
8
V4
10
-0.459641
20
12.37
0
VERTEX
8
V4
10
-0.445
20
12.384641
0
VERTEX
8
V4
10
-0.425
20
12.39
0
VERTEX
8
V4
10
-0.405
20
12.384641
0
VERTEX
8
V4
10
-0.390359
20
12.37
0
VERTEX
8
V4
10
-0.385
20
12.35
0
VERTEX
8
V4
10
-0.390359
20
12.33
0
VERTEX
8
V4
10
-0.405
20
12.315358999999999
0
VERTEX
8
V4
10
-0.425
20
12.31
0
VERTEX
8
V4
10
-0.445
20
12.315358999999999
0
VERTEX
8
V4
10
-0.459641
20
12.33
0
SEQEND
0
POLYLINE
8
C2
66
1
70
1
0
VERTEX
8
C2
10
2.6
20
2.1825
0
VERTEX
8
C2
10
2.625882
20
2.179093
0
VERTEX
8
C2
10
2.65
20
2.169103
0
VERTEX
8
C2
10
2.670711
20
2.1532109999999998
0
VERTEX
8
C2
10
2.686603
20
2.1325
0
VERTEX
8
C2
10
2.696593
20
2.1083819999999998
0
VERTEX
8
C2
10
2.7
20
2.0825
0
VERTEX
8
C2
10
2.7
20
0.9624999999999999
0
VERTEX
8
C2
10
2.696593
20
0.936618
0
VERTEX
8
C2
10
2.686603
20
0.9125
0
VERTEX
8
C2
10
2.670711
20
0.8917889999999999
0
VERTEX
8
C2
10
2.65
20
0.875897
0
VERTEX
8
C2
10
2.625882
20
0.865907
0
VERTEX
8
C2
10
2.6
20
0.8624999999999998
0
VERTEX
8
C2
10
1.9
20
0.8624999999999998
0
VERTEX
8
C2
10
1.874118
20
0.865907
0
VERTEX
8
C2
10
1.85
20
0.875897
0
VERTEX
8
C2
10
1.829289
20
0.8917889999999999
0
VERTEX
8
C2
10
1.813397
20
0.9125
0
VERTEX
8
C2
10
1.803407
20
0.936618
0
VERTEX
8
C2
10
1.8
20
0.9624999999999999
0
VERTEX
8
C2
10
1.8
20
1.6191986999999999
0
VERTEX
8
C2
10
1.785
20
1.623218
0
VERTEX
8
C2
10
1.755718
20
1.6524999999999999
0
VERTEX
8
C2
10
1.745
20
1.6925
0
VERTEX
8
C2
10
1.755718
20
1.7325
0
VERTEX
8
C2
10
1.785
20
1.761782
0
VERTEX
8
C2
10
1.8
20
1.765801
0
VERTEX
8
C2
10
1.8
20
2.0825
0
VERTEX
8
C2
10
1.803407
20
2.1083819999999998
0
VERTEX
8
C2
10
1.813397
20
2.1325
0
VERTEX
8
C2
10
1.829289
20
2.1532109999999998
0
VERTEX
8
C2
10
1.85
20
2.169103
0
VERTEX
8
C2
10
1.874118
20
2.179093
0
VERTEX
8
C2
10
1.9
20
2.1825
0
SEQEND
0
POLYLINE
8
V5
66
1
70
1
0
VERTEX
8
V5
10
2.21
20
1.7225
0
VERTEX
8
V5
10
2.215359
20
1.7425
0
VERTEX
8
V5
10
2.23
20
1.7571409999999998
0
VERTEX
8
V5
10
2.25
20
1.7625
0
VERTEX
8
V5
10
2.27
20
1.7571409999999998
0
VERTEX
8
V5
10
2.284641
20
1.7425
0
VERTEX
8
V5
10
2.29
20
1.7225
0
VERTEX
8
V5
10
2.284641
20
1.7025
0
VERTEX
8
V5
10
2.27
20
1.687859
0
VERTEX
8
V5
10
2.25
20
1.6824999999999999
0
VERTEX
8
V5
10
2.23
20
1.687859
0
VERTEX
8
V5
10
2.215359
20
1.7025
0
SEQEND
0
POLYLINE
8
V5
66
1
70
1
0
VERTEX
8
V5
10
2.21
20
4.7675
0
VERTEX
8
V5
10
2.215359
20
4.7875
0
VERTEX
8
V5
10
2.23
20
4.802141
0
VERTEX
8
V5
10
2.25
20
4.8075
0
VERTEX
8
V5
10
2.27
20
4.802141
0
VERTEX
8
V5
10
2.284641
20
4.7875
0
VERTEX
8
V5
10
2.29
20
4.7675
0
VERTEX
8
V5
10
2.284641
20
4.7475
0
VERTEX
8
V5
10
2.27
20
4.7328589999999995
0
VERTEX
8
V5
10
2.25
20
4.7275
0
VERTEX
8
V5
10
2.23
20
4.7328589999999995
0
VERTEX
8
V5
10
2.215359
20
4.7475
0
SEQEND
0
POLYLINE
8
C3
66
1
70
1
0
VERTEX
8
C3
10
0.6
20
2.16
0
VERTEX
8
C3
10
0.587059
20
2.161704
0
VERTEX
8
C3
10
0.575
20
2.166699
0
VERTEX
8
C3
10
0.564645
20
2.174645
0
VERTEX
8
C3
10
0.556699
20
2.185
0
VERTEX
8
C3
10
0.551704
20
2.197059
0
VERTEX
8
C3
10
0.55
20
2.21
0
VERTEX
8
C3
10
0.55
20
2.34
0
VERTEX
8
C3
10
0.548296
20
2.352941
0
VERTEX
8
C3
10
0.543301
20
2.3649999999999998
0
VERTEX
8
C3
10
0.535355
20
2.375355
0
VERTEX
8
C3
10
0.525
20
2.383301
0
VERTEX
8
C3
10
0.512941
20
2.388296
0
VERTEX
8
C3
10
0.5
20
2.3899999999999997
0
VERTEX
8
C3
10
0.35
20
2.3899999999999997
0
VERTEX
8
C3
10
0.324562
20
2.39329
0
VERTEX
8
C3
10
0.300797
20
2.402942
0
VERTEX
8
C3
10
0.28027
20
2.418322
0
VERTEX
8
C3
10
0.26433
20
2.438418
0
VERTEX
8
C3
10
0.254027
20
2.4619079999999998
0
VERTEX
8
C3
10
0.250038
20
2.487246
0
VERTEX
8
C3
10
0.252626
20
2.512765
0
VERTEX
8
C3
10
0.26162
20
2.536787
0
VERTEX
8
C3
10
0.276429
20
2.55773
0
VERTEX
8
C3
10
0.296079
20
2.574217
0
VERTEX
8
C3
10
0.319276
20
2.585163
0
VERTEX
8
C3
10
0.344494
20
2.589848
0
VERTEX
8
C3
10
0.370075
20
2.587964
0
VERTEX
8
C3
10
0.394335
20
2.579635
0
VERTEX
8
C3
10
0.415678
20
2.5654079999999997
0
VERTEX
8
C3
10
0.4327
20
2.54622
0
VERTEX
8
C3
10
0.444281
20
2.523333
0
VERTEX
8
C3
10
0.449764
20
2.512347
0
VERTEX
8
C3
10
0.45776
20
2.5030289999999997
0
VERTEX
8
C3
10
0.467785
20
2.49594
0
VERTEX
8
C3
10
0.479236
20
2.491508
0
VERTEX
8
C3
10
0.491421
20
2.4899999999999998
0
VERTEX
8
C3
10
0.75
20
2.4899999999999998
0
VERTEX
8
C3
10
0.75
20
2.16
0
SEQEND
0
POLYLINE
8
C3
66
1
70
1
0
VERTEX
8
C3
10
0.35
20
3.245
0
VERTEX
8
C3
10
0.338074
20
3.154413
0
VERTEX
8
C3
10
0.303109
20
3.07
0
VERTEX
8
C3
10
0.247487
20
2.9975126
0
VERTEX
8
C3
10
0.175
20
2.941891
0
VERTEX
8
C3
10
0.0905867
20
2.906926
0
VERTEX
8
C3
10
-6.4294e-17
20
2.895
0
VERTEX
8
C3
10
-0.0905867
20
2.906926
0
VERTEX
8
C3
10
-0.175
20
2.941891
0
VERTEX
8
C3
10
-0.247487
20
2.9975126
0
VERTEX
8
C3
10
-0.303109
20
3.07
0
VERTEX
8
C3
10
-0.338074
20
3.154413
0
VERTEX
8
C3
10
-0.35
20
3.245
0
VERTEX
8
C3
10
-0.338074
20
3.335587
0
VERTEX
8
C3
10
-0.303109
20
3.42
0
VERTEX
8
C3
10
-0.247487
20
3.492487
0
VERTEX
8
C3
10
-0.175
20
3.548109
0
VERTEX
8
C3
10
-0.0905867
20
3.583074
0
VERTEX
8
C3
10
9.91469e-17
20
3.5949999999999998
0
VERTEX
8
C3
10
0.0905867
20
3.583074
0
VERTEX
8
C3
10
0.175
20
3.548109
0
VERTEX
8
C3
10
0.247487
20
3.492487
0
VERTEX
8
C3
10
0.303109
20
3.42
0
VERTEX
8
C3
10
0.338074
20
3.335587
0
SEQEND
0
POLYLINE
8
G
66
1
70
1
0
VERTEX
8
G
10
2.33
20
4.7675
0
VERTEX
8
G
10
2.319282
20
4.7275
0
VERTEX
8
G
10
2.29
20
4.698218
0
VERTEX
8
G
10
2.25
20
4.6875
0
VERTEX
8
G
10
2.21
20
4.698218
0
VERTEX
8
G
10
2.180718
20
4.7275
0
VERTEX
8
G
10
2.17
20
4.7675
0
VERTEX
8
G
10
2.180718
20
4.8075
0
VERTEX
8
G
10
2.21
20
4.8367819999999995
0
VERTEX
8
G
10
2.25
20
4.8475
0
VERTEX
8
G
10
2.29
20
4.8367819999999995
0
VERTEX
8
G
10
2.319282
20
4.8075
0
SEQEND
0
POLYLINE
8
G
66
1
70
1
0
VERTEX
8
G
10
2.440526
20
4.6575
0
VERTEX
8
G
10
2.47
20
4.7675
0
VERTEX
8
G
10
2.440526
20
4.8774999999999995
0
VERTEX
8
G
10
2.36
20
4.958026
0
VERTEX
8
G
10
2.25
20
4.9875
0
VERTEX
8
G
10
2.14
20
4.958026
0
VERTEX
8
G
10
2.059474
20
4.8774999999999995
0
VERTEX
8
G
10
2.03
20
4.7675
0
VERTEX
8
G
10
2.059474
20
4.6575
0
VERTEX
8
G
10
2.14
20
4.57697441
0
VERTEX
8
G
10
2.25
20
4.5475
0
VERTEX
8
G
10
2.36
20
4.57697441
0
SEQEND
0
POLYLINE
8
G
66
1
70
1
0
VERTEX
8
G
10
1.65
20
4.0125
0
VERTEX
8
G
10
1.662941
20
4.014203999999999
0
VERTEX
8
G
10
1.675
20
4.0191989999999995
0
VERTEX
8
G
10
1.685355
20
4.027145
0
VERTEX
8
G
10
1.693301
20
4.0375
0
VERTEX
8
G
10
1.698296
20
4.049559
0
VERTEX
8
G
10
1.7
20
4.0625
0
VERTEX
8
G
10
1.7
20
5.0725
0
VERTEX
8
G
10
1.698296
20
5.085440999999999
0
VERTEX
8
G
10
1.693301
20
5.0975
0
VERTEX
8
G
10
1.685355
20
5.107855
0
VERTEX
8
G
10
1.675
20
5.115801
0
VERTEX
8
G
10
1.662941
20
5.120796
0
VERTEX
8
G
10
1.65
20
5.1225
0
VERTEX
8
G
10
1.5
20
5.1225
0
VERTEX
8
G
10
1.5
20
5.4525
0
VERTEX
8
G
10
1.67
20
5.4525
0
VERTEX
8
G
10
1.682941
20
5.4507959999999995
0
VERTEX
8
G
10
1.6949999999999998
20
5.4458009999999994
0
VERTEX
8
G
10
1.705355
20
5.437855
0
VERTEX
8
G
10
1.713301
20
5.4275
0
VERTEX
8
G
10
1.718296
20
5.4154409999999995
0
VERTEX
8
G
10
1.72
20
5.4025
0
VERTEX
8
G
10
1.72
20
5.3774999999999995
0
VERTEX
8
G
10
1.721704
20
5.364559
0
VERTEX
8
G
10
1.726699
20
5.3525
0
VERTEX
8
G
10
1.734645
20
5.342145
0
VERTEX
8
G
10
1.745
20
5.334199
0
VERTEX
8
G
10
1.757059
20
5.329204
0
VERTEX
8
G
10
1.77
20
5.3275
0
VERTEX
8
G
10
2.7
20
5.3275
0
VERTEX
8
G
10
2.725882
20
5.3240929999999995
0
VERTEX
8
G
10
2.75
20
5.314103
0
VERTEX
8
G
10
2.770711
20
5.298211
0
VERTEX
8
G
10
2.786603
20
5.2775
0
VERTEX
8
G
10
2.796593
20
5.253382
0
VERTEX
8
G
10
2.8
20
5.2275
0
VERTEX
8
G
10
2.8
20
3.9074999999999998
0
VERTEX
8
G
10
2.796593
20
3.881618
0
VERTEX
8
G
10
2.786603
20
3.8575
0
VERTEX
8
G
10
2.770711
20
3.836789
0
VERTEX
8
G
10
2.75
20
3.820897
0
VERTEX
8
G
10
2.725882
20
3.810907
0
VERTEX
8
G
10
2.7
20
3.8075
0
VERTEX
8
G
10
1.77
20
3.8075
0
VERTEX
8
G
10
1.757059
20
3.805796
0
VERTEX
8
G
10
1.745
20
3.800801
0
VERTEX
8
G
10
1.734645
20
3.792855
0
VERTEX
8
G
10
1.726699
20
3.7824999999999998
0
VERTEX
8
G
10
1.721704
20
3.770441
0
VERTEX
8
G
10
1.72
20
3.7575
0
VERTEX
8
G
10
1.72
20
3.7325
0
VERTEX
8
G
10
1.718296
20
3.719559
0
VERTEX
8
G
10
1.713301
20
3.7075
0
VERTEX
8
G
10
1.705355
20
3.697145
0
VERTEX
8
G
10
1.6949999999999998
20
3.689199
0
VERTEX
8
G
10
1.682941
20
3.684204
0
VERTEX
8
G
10
1.67
20
3.6825
0
VERTEX
8
G
10
1.5
20
3.6825
0
VERTEX
8
G
10
1.5
20
4.0125
0
SEQEND
0
POLYLINE
8
H1
66
1
70
1
0
VERTEX
8
H1
10
-0.345
20
6.26
0
VERTEX
8
H1
10
-0.355718
20
6.22
0
VERTEX
8
H1
10
-0.385
20
6.1907179999999995
0
VERTEX
8
H1
10
-0.425
20
6.18
0
VERTEX
8
H1
10
-0.4650000000000001
20
6.1907179999999995
0
VERTEX
8
H1
10
-0.494282
20
6.22
0
VERTEX
8
H1
10
-0.505
20
6.26
0
VERTEX
8
H1
10
-0.494282
20
6.3
0
VERTEX
8
H1
10
-0.4650000000000001
20
6.329282
0
VERTEX
8
H1
10
-0.425
20
6.34
0
VERTEX
8
H1
10
-0.385
20
6.329282
0
VERTEX
8
H1
10
-0.355718
20
6.3
0
SEQEND
0
POLYLINE
8
L1
66
1
70
1
0
VERTEX
8
L1
10
1.85
20
7.815339
0
VERTEX
8
L1
10
1.854611
20
7.795375
0
VERTEX
8
L1
10
1.854001
20
7.774894
0
VERTEX
8
L1
10
1.848207
20
7.75524
0
VERTEX
8
L1
10
1.8376109999999999
20
7.737702
0
VERTEX
8
L1
10
1.8229090000000001
20
7.723431
0
VERTEX
8
L1
10
1.805063
20
7.713363
0
VERTEX
8
L1
10
1.785245
20
7.7081587
0
VERTEX
8
L1
10
1.764755
20
7.7081587
0
VERTEX
8
L1
10
1.744937
20
7.713363
0
VERTEX
8
L1
10
1.7270910000000002
20
7.723431
0
VERTEX
8
L1
10
1.712389
20
7.737702
0
VERTEX
8
L1
10
1.701793
20
7.75524
0
VERTEX
8
L1
10
1.695999
20
7.774894
0
VERTEX
8
L1
10
1.695389
20
7.795375
0
VERTEX
8
L1
10
1.7
20
7.815339
0
VERTEX
8
L1
10
1.7
20
8.2475
0
VERTEX
8
L1
10
1.707667
20
8.305734
0
VERTEX
8
L1
10
1.7301440000000001
20
8.36
0
VERTEX
8
L1
10
1.765901
20
8.406599
0
VERTEX
8
L1
10
1.8125
20
8.442356
0
VERTEX
8
L1
10
1.866766
20
8.464833
0
VERTEX
8
L1
10
1.925
20
8.4725
0
VERTEX
8
L1
10
2.79
20
8.4725
0
VERTEX
8
L1
10
2.792588
20
8.472840999999999
0
VERTEX
8
L1
10
2.795
20
8.47384
0
VERTEX
8
L1
10
2.797071
20
8.475429
0
VERTEX
8
L1
10
2.79866
20
8.4775
0
VERTEX
8
L1
10
2.799659
20
8.479912
0
VERTEX
8
L1
10
2.8
20
8.4825
0
VERTEX
8
L1
10
2.8
20
8.4875
0
VERTEX
8
L1
10
2.800341
20
8.490088
0
VERTEX
8
L1
10
2.80134
20
8.4925
0
VERTEX
8
L1
10
2.802929
20
8.494571
0
VERTEX
8
L1
10
2.805
20
8.49616
0
VERTEX
8
L1
10
2.8074120000000002
20
8.497159
0
VERTEX
8
L1
10
2.81
20
8.4975
0
VERTEX
8
L1
10
3.0
20
8.4975
0
VERTEX
8
L1
10
3.0
20
8.1675
0
VERTEX
8
L1
10
2.85
20
8.1675
0
VERTEX
8
L1
10
2.837059
20
8.169204
0
VERTEX
8
L1
10
2.825
20
8.174199
0
VERTEX
8
L1
10
2.814645
20
8.182145
0
VERTEX
8
L1
10
2.806699
20
8.192499999999999
0
VERTEX
8
L1
10
2.801704
20
8.204559
0
VERTEX
8
L1
10
2.8
20
8.2175
0
VERTEX
8
L1
10
2.8
20
8.272499999999999
0
VERTEX
8
L1
10
2.798296
20
8.285441
0
VERTEX
8
L1
10
2.793301
20
8.2975
0
VERTEX
8
L1
10
2.785355
20
8.307855
0
VERTEX
8
L1
10
2.775
20
8.315801
0
VERTEX
8
L1
10
2.762941
20
8.320796
0
VERTEX
8
L1
10
2.75
20
8.3225
0
VERTEX
8
L1
10
1.925
20
8.3225
0
VERTEX
8
L1
10
1.905589
20
8.319944
0
VERTEX
8
L1
10
1.8875
20
8.312452
0
VERTEX
8
L1
10
1.871967
20
8.300533
0
VERTEX
8
L1
10
1.860048
20
8.285
0
VERTEX
8
L1
10
1.8525559999999999
20
8.266911
0
VERTEX
8
L1
10
1.85
20
8.2475
0
SEQEND
0
POLYLINE
8
L1
66
1
70
1
0
VERTEX
8
L1
10
1.7
20
7.409661
0
VERTEX
8
L1
10
1.695389
20
7.429625
0
VERTEX
8
L1
10
1.695999
20
7.450106
0
VERTEX
8
L1
10
1.701793
20
7.46976
0
VERTEX
8
L1
10
1.712389
20
7.487298
0
VERTEX
8
L1
10
1.7270910000000002
20
7.501569
0
VERTEX
8
L1
10
1.744937
20
7.5116369999999995
0
VERTEX
8
L1
10
1.764755
20
7.516841299999999
0
VERTEX
8
L1
10
1.785245
20
7.516841299999999
0
VERTEX
8
L1
10
1.805063
20
7.5116369999999995
0
VERTEX
8
L1
10
1.8229090000000001
20
7.501569
0
VERTEX
8
L1
10
1.8376109999999999
20
7.487298
0
VERTEX
8
L1
10
1.848207
20
7.46976
0
VERTEX
8
L1
10
1.854001
20
7.450106
0
VERTEX
8
L1
10
1.854611
20
7.429625
0
VERTEX
8
L1
10
1.85
20
7.409661
0
VERTEX
8
L1
10
1.85
20
6.9775
0
VERTEX
8
L1
10
1.8525559999999999
20
6.958089
0
VERTEX
8
L1
10
1.860048
20
6.9399999999999995
0
VERTEX
8
L1
10
1.871967
20
6.924467
0
VERTEX
8
L1
10
1.8875
20
6.912548
0
VERTEX
8
L1
10
1.905589
20
6.905056
0
VERTEX
8
L1
10
1.925
20
6.9025
0
VERTEX
8
L1
10
2.75
20
6.9025
0
VERTEX
8
L1
10
2.762941
20
6.904204
0
VERTEX
8
L1
10
2.775
20
6.909199
0
VERTEX
8
L1
10
2.785355
20
6.917145
0
VERTEX
8
L1
10
2.793301
20
6.9275
0
VERTEX
8
L1
10
2.798296
20
6.939559
0
VERTEX
8
L1
10
2.8
20
6.9525
0
VERTEX
8
L1
10
2.8
20
7.0075
0
VERTEX
8
L1
10
2.801704
20
7.020441
0
VERTEX
8
L1
10
2.806699
20
7.0325
0
VERTEX
8
L1
10
2.814645
20
7.042854999999999
0
VERTEX
8
L1
10
2.825
20
7.050801
0
VERTEX
8
L1
10
2.837059
20
7.055796
0
VERTEX
8
L1
10
2.85
20
7.0575
0
VERTEX
8
L1
10
3.0
20
7.0575
0
VERTEX
8
L1
10
3.0
20
6.7275
0
VERTEX
8
L1
10
2.81
20
6.7275
0
VERTEX
8
L1
10
2.8074120000000002
20
6.727841
0
VERTEX
8
L1
10
2.805
20
6.72884
0
VERTEX
8
L1
10
2.802929
20
6.730429
0
VERTEX
8
L1
10
2.80134
20
6.7325
0
VERTEX
8
L1
10
2.800341
20
6.734912
0
VERTEX
8
L1
10
2.8
20
6.7375
0
VERTEX
8
L1
10
2.8
20
6.7425
0
VERTEX
8
L1
10
2.799659
20
6.745088
0
VERTEX
8
L1
10
2.79866
20
6.7475
0
VERTEX
8
L1
10
2.797071
20
6.7495709999999995
0
VERTEX
8
L1
10
2.795
20
6.75116
0
VERTEX
8
L1
10
2.792588
20
6.752159
0
VERTEX
8
L1
10
2.79
20
6.7524999999999995
0
VERTEX
8
L1
10
1.925
20
6.7524999999999995
0
VERTEX
8
L1
10
1.866766
20
6.760167
0
VERTEX
8
L1
10
1.8125
20
6.7826439999999995
0
VERTEX
8
L1
10
1.765901
20
6.818401
0
VERTEX
8
L1
10
1.7301440000000001
20
6.865
0
VERTEX
8
L1
10
1.707667
20
6.9192659999999995
0
VERTEX
8
L1
10
1.7
20
6.9775
0
SEQEND
0
POLYLINE
8
V1
66
1
70
1
0
VERTEX
8
V1
10
1.7349999999999999
20
7.7875
0
VERTEX
8
V1
10
1.7363629999999999
20
7.797853
0
VERTEX
8
V1
10
1.740359
20
7.8075
0
VERTEX
8
V1
10
1.7467160000000002
20
7.815784
0
VERTEX
8
V1
10
1.755
20
7.822141
0
VERTEX
8
V1
10
1.764647
20
7.826137
0
VERTEX
8
V1
10
1.775
20
7.8275
0
VERTEX
8
V1
10
1.785353
20
7.826137
0
VERTEX
8
V1
10
1.795
20
7.822141
0
VERTEX
8
V1
10
1.803284
20
7.815784
0
VERTEX
8
V1
10
1.809641
20
7.8075
0
VERTEX
8
V1
10
1.813637
20
7.797853
0
VERTEX
8
V1
10
1.815
20
7.7875
0
VERTEX
8
V1
10
1.813637
20
7.777146999999999
0
VERTEX
8
V1
10
1.809641
20
7.7675
0
VERTEX
8
V1
10
1.803284
20
7.7592159999999994
0
VERTEX
8
V1
10
1.795
20
7.752859
0
VERTEX
8
V1
10
1.785353
20
7.748863
0
VERTEX
8
V1
10
1.775
20
7.7475
0
VERTEX
8
V1
10
1.764647
20
7.748863
0
VERTEX
8
V1
10
1.755
20
7.752859
0
VERTEX
8
V1
10
1.7467160000000002
20
7.7592159999999994
0
VERTEX
8
V1
10
1.740359
20
7.7675
0
VERTEX
8
V1
10
1.7363629999999999
20
7.777146999999999
0
SEQEND
0
POLYLINE
8
V1
66
1
70
1
0
VERTEX
8
V1
10
1.7349999999999999
20
7.4375
0
VERTEX
8
V1
10
1.7363629999999999
20
7.447853
0
VERTEX
8
V1
10
1.740359
20
7.4575
0
VERTEX
8
V1
10
1.7467160000000002
20
7.465784
0
VERTEX
8
V1
10
1.755
20
7.472141
0
VERTEX
8
V1
10
1.764647
20
7.476137
0
VERTEX
8
V1
10
1.775
20
7.4775
0
VERTEX
8
V1
10
1.785353
20
7.476137
0
VERTEX
8
V1
10
1.795
20
7.472141
0
VERTEX
8
V1
10
1.803284
20
7.465784
0
VERTEX
8
V1
10
1.809641
20
7.4575
0
VERTEX
8
V1
10
1.813637
20
7.447853
0
VERTEX
8
V1
10
1.815
20
7.4375
0
VERTEX
8
V1
10
1.813637
20
7.427147
0
VERTEX
8
V1
10
1.809641
20
7.4174999999999995
0
VERTEX
8
V1
10
1.803284
20
7.409216
0
VERTEX
8
V1
10
1.795
20
7.402858999999999
0
VERTEX
8
V1
10
1.785353
20
7.3988629999999995
0
VERTEX
8
V1
10
1.775
20
7.3975
0
VERTEX
8
V1
10
1.764647
20
7.3988629999999995
0
VERTEX
8
V1
10
1.755
20
7.402858999999999
0
VERTEX
8
V1
10
1.7467160000000002
20
7.409216
0
VERTEX
8
V1
10
1.740359
20
7.4174999999999995
0
VERTEX
8
V1
10
1.7363629999999999
20
7.427147
0
SEQEND
0
POLYLINE
8
L2
66
1
70
1
0
VERTEX
8
L2
10
-0.447161
20
9.235
0
VERTEX
8
L2
10
-0.467125
20
9.2303885
0
VERTEX
8
L2
10
-0.487606
20
9.2309995
0
VERTEX
8
L2
10
-0.50726
20
9.236793
0
VERTEX
8
L2
10
-0.524798
20
9.247389
0
VERTEX
8
L2
10
-0.539069
20
9.262091
0
VERTEX
8
L2
10
-0.549137
20
9.279937
0
VERTEX
8
L2
10
-0.554341
20
9.299755
0
VERTEX
8
L2
10
-0.554341
20
9.320245
0
VERTEX
8
L2
10
-0.549137
20
9.340063
0
VERTEX
8
L2
10
-0.539069
20
9.357909
0
VERTEX
8
L2
10
-0.524798
20
9.372611
0
VERTEX
8
L2
10
-0.50726
20
9.383207
0
VERTEX
8
L2
10
-0.487606
20
9.389001
0
VERTEX
8
L2
10
-0.467125
20
9.389611
0
VERTEX
8
L2
10
-0.447161
20
9.385
0
VERTEX
8
L2
10
0.325
20
9.385
0
VERTEX
8
L2
10
0.344411
20
9.387556
0
VERTEX
8
L2
10
0.3625
20
9.395048
0
VERTEX
8
L2
10
0.378033
20
9.406967
0
VERTEX
8
L2
10
0.389952
20
9.4225
0
VERTEX
8
L2
10
0.397444
20
9.440589
0
VERTEX
8
L2
10
0.4
20
9.459999999999999
0
VERTEX
8
L2
10
0.4
20
9.77
0
VERTEX
8
L2
10
0.397444
20
9.789411
0
VERTEX
8
L2
10
0.389952
20
9.8075
0
VERTEX
8
L2
10
0.378033
20
9.823033
0
VERTEX
8
L2
10
0.3625
20
9.834952
0
VERTEX
8
L2
10
0.344411
20
9.842444
0
VERTEX
8
L2
10
0.325
20
9.844999999999999
0
VERTEX
8
L2
10
-0.447161
20
9.844999999999999
0
VERTEX
8
L2
10
-0.467125
20
9.840389
0
VERTEX
8
L2
10
-0.487606
20
9.840999
0
VERTEX
8
L2
10
-0.50726
20
9.846793
0
VERTEX
8
L2
10
-0.524798
20
9.857389
0
VERTEX
8
L2
10
-0.539069
20
9.872091
0
VERTEX
8
L2
10
-0.549137
20
9.889937
0
VERTEX
8
L2
10
-0.554341
20
9.909755
0
VERTEX
8
L2
10
-0.554341
20
9.930245
0
VERTEX
8
L2
10
-0.549137
20
9.950063
0
VERTEX
8
L2
10
-0.539069
20
9.967909
0
VERTEX
8
L2
10
-0.524798
20
9.982611
0
VERTEX
8
L2
10
-0.50726
20
9.993207
0
VERTEX
8
L2
10
-0.487606
20
9.999001
0
VERTEX
8
L2
10
-0.467125
20
9.999611
0
VERTEX
8
L2
10
-0.447161
20
9.995
0
VERTEX
8
L2
10
0.325
20
9.995
0
VERTEX
8
L2
10
0.383234
20
9.987333
0
VERTEX
8
L2
10
0.4375
20
9.964856
0
VERTEX
8
L2
10
0.484099
20
9.929098999999999
0
VERTEX
8
L2
10
0.519856
20
9.8825
0
VERTEX
8
L2
10
0.542333
20
9.828234
0
VERTEX
8
L2
10
0.55
20
9.77
0
VERTEX
8
L2
10
0.55
20
9.459999999999999
0
VERTEX
8
L2
10
0.542333
20
9.401766
0
VERTEX
8
L2
10
0.519856
20
9.3475
0
VERTEX
8
L2
10
0.484099
20
9.300901
0
VERTEX
8
L2
10
0.4375
20
9.265144
0
VERTEX
8
L2
10
0.383234
20
9.242666999999999
0
VERTEX
8
L2
10
0.325
20
9.235
0
SEQEND
0
POLYLINE
8
L2
66
1
70
1
0
VERTEX
8
L2
10
-0.447161
20
8.885
0
VERTEX
8
L2
10
-0.467125
20
8.880389
0
VERTEX
8
L2
10
-0.487606
20
8.880999
0
VERTEX
8
L2
10
-0.50726
20
8.886792999999999
0
VERTEX
8
L2
10
-0.524798
20
8.897389
0
VERTEX
8
L2
10
-0.539069
20
8.912091
0
VERTEX
8
L2
10
-0.549137
20
8.929936999999999
0
VERTEX
8
L2
10
-0.554341
20
8.949755
0
VERTEX
8
L2
10
-0.554341
20
8.970245
0
VERTEX
8
L2
10
-0.549137
20
8.990063
0
VERTEX
8
L2
10
-0.539069
20
9.007909
0
VERTEX
8
L2
10
-0.524798
20
9.022611
0
VERTEX
8
L2
10
-0.50726
20
9.033206999999999
0
VERTEX
8
L2
10
-0.487606
20
9.0390005
0
VERTEX
8
L2
10
-0.467125
20
9.0396115
0
VERTEX
8
L2
10
-0.447161
20
9.035
0
VERTEX
8
L2
10
0.325
20
9.035
0
VERTEX
8
L2
10
0.383234
20
9.027333
0
VERTEX
8
L2
10
0.4375
20
9.004856
0
VERTEX
8
L2
10
0.484099
20
8.969099
0
VERTEX
8
L2
10
0.519856
20
8.9225
0
VERTEX
8
L2
10
0.542333
20
8.868234
0
VERTEX
8
L2
10
0.55
20
8.81
0
VERTEX
8
L2
10
0.55
20
8.5
0
VERTEX
8
L2
10
0.542333
20
8.441766
0
VERTEX
8
L2
10
0.519856
20
8.3875
0
VERTEX
8
L2
10
0.484099
20
8.340901
0
VERTEX
8
L2
10
0.4375
20
8.305144
0
VERTEX
8
L2
10
0.383234
20
8.282667
0
VERTEX
8
L2
10
0.325
20
8.275
0
VERTEX
8
L2
10
-0.447161
20
8.275
0
VERTEX
8
L2
10
-0.467125
20
8.270389
0
VERTEX
8
L2
10
-0.487606
20
8.270999
0
VERTEX
8
L2
10
-0.50726
20
8.276793
0
VERTEX
8
L2
10
-0.524798
20
8.287389
0
VERTEX
8
L2
10
-0.539069
20
8.302090999999999
0
VERTEX
8
L2
10
-0.549137
20
8.319937
0
VERTEX
8
L2
10
-0.554341
20
8.339755
0
VERTEX
8
L2
10
-0.554341
20
8.360244999999999
0
VERTEX
8
L2
10
-0.549137
20
8.380063
0
VERTEX
8
L2
10
-0.539069
20
8.397909
0
VERTEX
8
L2
10
-0.524798
20
8.412611
0
VERTEX
8
L2
10
-0.50726
20
8.423207
0
VERTEX
8
L2
10
-0.487606
20
8.429001
0
VERTEX
8
L2
10
-0.467125
20
8.429611
0
VERTEX
8
L2
10
-0.447161
20
8.425
0
VERTEX
8
L2
10
0.325
20
8.425
0
VERTEX
8
L2
10
0.344411
20
8.427556
0
VERTEX
8
L2
10
0.3625
20
8.435048
0
VERTEX
8
L2
10
0.378033
20
8.446966999999999
0
VERTEX
8
L2
10
0.389952
20
8.4625
0
VERTEX
8
L2
10
0.397444
20
8.480589
0
VERTEX
8
L2
10
0.4
20
8.5
0
VERTEX
8
L2
10
0.4
20
8.81
0
VERTEX
8
L2
10
0.397444
20
8.829411
0
VERTEX
8
L2
10
0.389952
20
8.8475
0
VERTEX
8
L2
10
0.378033
20
8.863033
0
VERTEX
8
L2
10
0.3625
20
8.874952
0
VERTEX
8
L2
10
0.344411
20
8.882444
0
VERTEX
8
L2
10
0.325
20
8.885
0
SEQEND
0
POLYLINE
8
V2
66
1
70
1
0
VERTEX
8
V2
10
-0.515
20
9.92
0
VERTEX
8
V2
10
-0.513637
20
9.930353
0
VERTEX
8
V2
10
-0.509641
20
9.94
0
VERTEX
8
V2
10
-0.503284
20
9.948284
0
VERTEX
8
V2
10
-0.495
20
9.954641
0
VERTEX
8
V2
10
-0.485353
20
9.958637
0
VERTEX
8
V2
10
-0.475
20
9.959999999999999
0
VERTEX
8
V2
10
-0.464647
20
9.958637
0
VERTEX
8
V2
10
-0.455
20
9.954641
0
VERTEX
8
V2
10
-0.446716
20
9.948284
0
VERTEX
8
V2
10
-0.440359
20
9.94
0
VERTEX
8
V2
10
-0.436363
20
9.930353
0
VERTEX
8
V2
10
-0.435
20
9.92
0
VERTEX
8
V2
10
-0.436363
20
9.909647
0
VERTEX
8
V2
10
-0.440359
20
9.9
0
VERTEX
8
V2
10
-0.446716
20
9.891716
0
VERTEX
8
V2
10
-0.455
20
9.885359
0
VERTEX
8
V2
10
-0.464647
20
9.881363
0
VERTEX
8
V2
10
-0.475
20
9.879999999999999
0
VERTEX
8
V2
10
-0.485353
20
9.881363
0
VERTEX
8
V2
10
-0.495
20
9.885359
0
VERTEX
8
V2
10
-0.503284
20
9.891716
0
VERTEX
8
V2
10
-0.509641
20
9.9
0
VERTEX
8
V2
10
-0.513637
20
9.909647
0
SEQEND
0
POLYLINE
8
V2
66
1
70
1
0
VERTEX
8
V2
10
-0.515
20
8.35
0
VERTEX
8
V2
10
-0.513637
20
8.360353
0
VERTEX
8
V2
10
-0.509641
20
8.37
0
VERTEX
8
V2
10
-0.503284
20
8.378283999999999
0
VERTEX
8
V2
10
-0.495
20
8.384641
0
VERTEX
8
V2
10
-0.485353
20
8.388637
0
VERTEX
8
V2
10
-0.475
20
8.39
0
VERTEX
8
V2
10
-0.464647
20
8.388637
0
VERTEX
8
V2
10
-0.455
20
8.384641
0
VERTEX
8
V2
10
-0.446716
20
8.378283999999999
0
VERTEX
8
V2
10
-0.440359
20
8.37
0
VERTEX
8
V2
10
-0.436363
20
8.360353
0
VERTEX
8
V2
10
-0.435
20
8.35
0
VERTEX
8
V2
10
-0.436363
20
8.339647
0
VERTEX
8
V2
10
-0.440359
20
8.33
0
VERTEX
8
V2
10
-0.446716
20
8.321716
0
VERTEX
8
V2
10
-0.455
20
8.315358999999999
0
VERTEX
8
V2
10
-0.464647
20
8.311363
0
VERTEX
8
V2
10
-0.475
20
8.31
0
VERTEX
8
V2
10
-0.485353
20
8.311363
0
VERTEX
8
V2
10
-0.495
20
8.315358999999999
0
VERTEX
8
V2
10
-0.503284
20
8.321716
0
VERTEX
8
V2
10
-0.509641
20
8.33
0
VERTEX
8
V2
10
-0.513637
20
8.339647
0
SEQEND
0
POLYLINE
8
L3
66
1
70
1
0
VERTEX
8
L3
10
1.7
20
11.414660999999999
0
VERTEX
8
L3
10
1.695389
20
11.434624999999999
0
VERTEX
8
L3
10
1.695999
20
11.455105999999999
0
VERTEX
8
L3
10
1.701793
20
11.474759999999998
0
VERTEX
8
L3
10
1.712389
20
11.492297999999998
0
VERTEX
8
L3
10
1.7270910000000002
20
11.506568999999999
0
VERTEX
8
L3
10
1.744937
20
11.516637
0
VERTEX
8
L3
10
1.764755
20
11.521840999999998
0
VERTEX
8
L3
10
1.785245
20
11.521840999999998
0
VERTEX
8
L3
10
1.805063
20
11.516637
0
VERTEX
8
L3
10
1.8229090000000001
20
11.506568999999999
0
VERTEX
8
L3
10
1.8376109999999999
20
11.492297999999998
0
VERTEX
8
L3
10
1.848207
20
11.474759999999998
0
VERTEX
8
L3
10
1.854001
20
11.455105999999999
0
VERTEX
8
L3
10
1.854611
20
11.434624999999999
0
VERTEX
8
L3
10
1.85
20
11.414660999999999
0
VERTEX
8
L3
10
1.85
20
10.982499999999998
0
VERTEX
8
L3
10
1.8525559999999999
20
10.963088999999998
0
VERTEX
8
L3
10
1.860048
20
10.944999999999999
0
VERTEX
8
L3
10
1.871967
20
10.929466999999999
0
VERTEX
8
L3
10
1.8875
20
10.917547999999998
0
VERTEX
8
L3
10
1.905589
20
10.910055999999999
0
VERTEX
8
L3
10
1.925
20
10.907499999999999
0
VERTEX
8
L3
10
2.575
20
10.907499999999999
0
VERTEX
8
L3
10
2.594411
20
10.910055999999999
0
VERTEX
8
L3
10
2.6125
20
10.917547999999998
0
VERTEX
8
L3
10
2.628033
20
10.929466999999999
0
VERTEX
8
L3
10
2.639952
20
10.944999999999999
0
VERTEX
8
L3
10
2.647444
20
10.963088999999998
0
VERTEX
8
L3
10
2.65
20
10.982499999999998
0
VERTEX
8
L3
10
2.65
20
11.414660999999999
0
VERTEX
8
L3
10
2.6453889999999998
20
11.434624999999999
0
VERTEX
8
L3
10
2.6459989999999998
20
11.455105999999999
0
VERTEX
8
L3
10
2.651793
20
11.474759999999998
0
VERTEX
8
L3
10
2.662389
20
11.492297999999998
0
VERTEX
8
L3
10
2.677091
20
11.506568999999999
0
VERTEX
8
L3
10
2.694937
20
11.516637
0
VERTEX
8
L3
10
2.714755
20
11.521840999999998
0
VERTEX
8
L3
10
2.735245
20
11.521840999999998
0
VERTEX
8
L3
10
2.755063
20
11.516637
0
VERTEX
8
L3
10
2.772909
20
11.506568999999999
0
VERTEX
8
L3
10
2.787611
20
11.492297999999998
0
VERTEX
8
L3
10
2.798207
20
11.474759999999998
0
VERTEX
8
L3
10
2.804001
20
11.455105999999999
0
VERTEX
8
L3
10
2.804611
20
11.434624999999999
0
VERTEX
8
L3
10
2.8
20
11.414660999999999
0
VERTEX
8
L3
10
2.8
20
10.982499999999998
0
VERTEX
8
L3
10
2.792333
20
10.924266
0
VERTEX
8
L3
10
2.769856
20
10.87
0
VERTEX
8
L3
10
2.734099
20
10.823400999999999
0
VERTEX
8
L3
10
2.6875
20
10.787643999999998
0
VERTEX
8
L3
10
2.633234
20
10.765166999999998
0
VERTEX
8
L3
10
2.575
20
10.757499999999999
0
VERTEX
8
L3
10
1.925
20
10.757499999999999
0
VERTEX
8
L3
10
1.866766
20
10.765166999999998
0
VERTEX
8
L3
10
1.8125
20
10.787643999999998
0
VERTEX
8
L3
10
1.765901
20
10.823400999999999
0
VERTEX
8
L3
10
1.7301440000000001
20
10.87
0
VERTEX
8
L3
10
1.707667
20
10.924266
0
VERTEX
8
L3
10
1.7
20
10.982499999999998
0
SEQEND
0
POLYLINE
8
L3
66
1
70
1
0
VERTEX
8
L3
10
1.85
20
9.900338999999999
0
VERTEX
8
L3
10
1.854611
20
9.880374999999999
0
VERTEX
8
L3
10
1.854001
20
9.859893999999999
0
VERTEX
8
L3
10
1.848207
20
9.84024
0
VERTEX
8
L3
10
1.8376109999999999
20
9.822702
0
VERTEX
8
L3
10
1.8229090000000001
20
9.808430999999999
0
VERTEX
8
L3
10
1.805063
20
9.798362999999998
0
VERTEX
8
L3
10
1.785245
20
9.793159
0
VERTEX
8
L3
10
1.764755
20
9.793159
0
VERTEX
8
L3
10
1.744937
20
9.798362999999998
0
VERTEX
8
L3
10
1.7270910000000002
20
9.808430999999999
0
VERTEX
8
L3
10
1.712389
20
9.822702
0
VERTEX
8
L3
10
1.701793
20
9.84024
0
VERTEX
8
L3
10
1.695999
20
9.859893999999999
0
VERTEX
8
L3
10
1.695389
20
9.880374999999999
0
VERTEX
8
L3
10
1.7
20
9.900338999999999
0
VERTEX
8
L3
10
1.7
20
10.3325
0
VERTEX
8
L3
10
1.707667
20
10.390733999999998
0
VERTEX
8
L3
10
1.7301440000000001
20
10.444999999999999
0
VERTEX
8
L3
10
1.765901
20
10.491598999999999
0
VERTEX
8
L3
10
1.8125
20
10.527356
0
VERTEX
8
L3
10
1.866766
20
10.549833
0
VERTEX
8
L3
10
1.925
20
10.5575
0
VERTEX
8
L3
10
2.575
20
10.5575
0
VERTEX
8
L3
10
2.633234
20
10.549833
0
VERTEX
8
L3
10
2.6875
20
10.527356
0
VERTEX
8
L3
10
2.734099
20
10.491598999999999
0
VERTEX
8
L3
10
2.769856
20
10.444999999999999
0
VERTEX
8
L3
10
2.792333
20
10.390733999999998
0
VERTEX
8
L3
10
2.8
20
10.3325
0
VERTEX
8
L3
10
2.8
20
9.900338999999999
0
VERTEX
8
L3
10
2.804611
20
9.880374999999999
0
VERTEX
8
L3
10
2.804001
20
9.859893999999999
0
VERTEX
8
L3
10
2.798207
20
9.84024
0
VERTEX
8
L3
10
2.787611
20
9.822702
0
VERTEX
8
L3
10
2.772909
20
9.808430999999999
0
VERTEX
8
L3
10
2.755063
20
9.798362999999998
0
VERTEX
8
L3
10
2.735245
20
9.793159
0
VERTEX
8
L3
10
2.714755
20
9.793159
0
VERTEX
8
L3
10
2.694937
20
9.798362999999998
0
VERTEX
8
L3
10
2.677091
20
9.808430999999999
0
VERTEX
8
L3
10
2.662389
20
9.822702
0
VERTEX
8
L3
10
2.651793
20
9.84024
0
VERTEX
8
L3
10
2.6459989999999998
20
9.859893999999999
0
VERTEX
8
L3
10
2.6453889999999998
20
9.880374999999999
0
VERTEX
8
L3
10
2.65
20
9.900338999999999
0
VERTEX
8
L3
10
2.65
20
10.3325
0
VERTEX
8
L3
10
2.647444
20
10.351911
0
VERTEX
8
L3
10
2.639952
20
10.37
0
VERTEX
8
L3
10
2.628033
20
10.385532999999999
0
VERTEX
8
L3
10
2.6125
20
10.397452
0
VERTEX
8
L3
10
2.594411
20
10.404943999999999
0
VERTEX
8
L3
10
2.575
20
10.407499999999999
0
VERTEX
8
L3
10
1.925
20
10.407499999999999
0
VERTEX
8
L3
10
1.905589
20
10.404943999999999
0
VERTEX
8
L3
10
1.8875
20
10.397452
0
VERTEX
8
L3
10
1.871967
20
10.385532999999999
0
VERTEX
8
L3
10
1.860048
20
10.37
0
VERTEX
8
L3
10
1.8525559999999999
20
10.351911
0
VERTEX
8
L3
10
1.85
20
10.3325
0
SEQEND
0
POLYLINE
8
V3
66
1
70
1
0
VERTEX
8
V3
10
2.685
20
11.442499999999999
0
VERTEX
8
V3
10
2.686363
20
11.452853
0
VERTEX
8
V3
10
2.690359
20
11.462499999999999
0
VERTEX
8
V3
10
2.696716
20
11.470783999999998
0
VERTEX
8
V3
10
2.705
20
11.477141
0
VERTEX
8
V3
10
2.714647
20
11.481136999999999
0
VERTEX
8
V3
10
2.725
20
11.482499999999998
0
VERTEX
8
V3
10
2.735353
20
11.481136999999999
0
VERTEX
8
V3
10
2.745
20
11.477141
0
VERTEX
8
V3
10
2.753284
20
11.470783999999998
0
VERTEX
8
V3
10
2.7596410000000002
20
11.462499999999999
0
VERTEX
8
V3
10
2.763637
20
11.452853
0
VERTEX
8
V3
10
2.765
20
11.442499999999999
0
VERTEX
8
V3
10
2.763637
20
11.432146999999999
0
VERTEX
8
V3
10
2.7596410000000002
20
11.4225
0
VERTEX
8
V3
10
2.753284
20
11.414216
0
VERTEX
8
V3
10
2.745
20
11.407858999999998
0
VERTEX
8
V3
10
2.735353
20
11.403863
0
VERTEX
8
V3
10
2.725
20
11.402499999999998
0
VERTEX
8
V3
10
2.714647
20
11.403863
0
VERTEX
8
V3
10
2.705
20
11.407858999999998
0
VERTEX
8
V3
10
2.696716
20
11.414216
0
VERTEX
8
V3
10
2.690359
20
11.4225
0
VERTEX
8
V3
10
2.686363
20
11.432146999999999
0
SEQEND
0
POLYLINE
8
V3
66
1
70
1
0
VERTEX
8
V3
10
2.685
20
9.872499999999999
0
VERTEX
8
V3
10
2.686363
20
9.882852999999999
0
VERTEX
8
V3
10
2.690359
20
9.892499999999998
0
VERTEX
8
V3
10
2.696716
20
9.900783999999998
0
VERTEX
8
V3
10
2.705
20
9.907141
0
VERTEX
8
V3
10
2.714647
20
9.911136999999998
0
VERTEX
8
V3
10
2.725
20
9.9125
0
VERTEX
8
V3
10
2.735353
20
9.911136999999998
0
VERTEX
8
V3
10
2.745
20
9.907141
0
VERTEX
8
V3
10
2.753284
20
9.900783999999998
0
VERTEX
8
V3
10
2.7596410000000002
20
9.892499999999998
0
VERTEX
8
V3
10
2.763637
20
9.882852999999999
0
VERTEX
8
V3
10
2.765
20
9.872499999999999
0
VERTEX
8
V3
10
2.763637
20
9.862146999999998
0
VERTEX
8
V3
10
2.7596410000000002
20
9.8525
0
VERTEX
8
V3
10
2.753284
20
9.844216
0
VERTEX
8
V3
10
2.745
20
9.837858999999998
0
VERTEX
8
V3
10
2.735353
20
9.833863
0
VERTEX
8
V3
10
2.725
20
9.8325
0
VERTEX
8
V3
10
2.714647
20
9.833863
0
VERTEX
8
V3
10
2.705
20
9.837858999999998
0
VERTEX
8
V3
10
2.696716
20
9.844216
0
VERTEX
8
V3
10
2.690359
20
9.8525
0
VERTEX
8
V3
10
2.686363
20
9.862146999999998
0
SEQEND
0
POLYLINE
8
L4
66
1
70
1
0
VERTEX
8
L4
10
0.447161
20
11.469999999999999
0
VERTEX
8
L4
10
0.467125
20
11.474611
0
VERTEX
8
L4
10
0.487606
20
11.474001
0
VERTEX
8
L4
10
0.50726
20
11.468207
0
VERTEX
8
L4
10
0.524798
20
11.457611
0
VERTEX
8
L4
10
0.539069
20
11.442909
0
VERTEX
8
L4
10
0.549137
20
11.425063
0
VERTEX
8
L4
10
0.554341
20
11.405244999999999
0
VERTEX
8
L4
10
0.554341
20
11.384755
0
VERTEX
8
L4
10
0.549137
20
11.364937
0
VERTEX
8
L4
10
0.539069
20
11.347090999999999
0
VERTEX
8
L4
10
0.524798
20
11.332389
0
VERTEX
8
L4
10
0.50726
20
11.321793
0
VERTEX
8
L4
10
0.487606
20
11.315999
0
VERTEX
8
L4
10
0.467125
20
11.315389
0
VERTEX
8
L4
10
0.447161
20
11.32
0
VERTEX
8
L4
10
-0.325
20
11.32
0
VERTEX
8
L4
10
-0.383234
20
11.327667
0
VERTEX
8
L4
10
-0.4375
20
11.350144
0
VERTEX
8
L4
10
-0.484099
20
11.385901
0
VERTEX
8
L4
10
-0.519856
20
11.4325
0
VERTEX
8
L4
10
-0.542333
20
11.486766
0
VERTEX
8
L4
10
-0.55
20
11.545
0
VERTEX
8
L4
10
-0.55
20
12.815
0
VERTEX
8
L4
10
-0.542333
20
12.873234
0
VERTEX
8
L4
10
-0.519856
20
12.9275
0
VERTEX
8
L4
10
-0.484099
20
12.974098999999999
0
VERTEX
8
L4
10
-0.4375
20
13.009856
0
VERTEX
8
L4
10
-0.383234
20
13.032333
0
VERTEX
8
L4
10
-0.325
20
13.04
0
VERTEX
8
L4
10
0.447161
20
13.04
0
VERTEX
8
L4
10
0.467125
20
13.044611
0
VERTEX
8
L4
10
0.487606
20
13.044001
0
VERTEX
8
L4
10
0.50726
20
13.038207
0
VERTEX
8
L4
10
0.524798
20
13.027611
0
VERTEX
8
L4
10
0.539069
20
13.012909
0
VERTEX
8
L4
10
0.549137
20
12.995063
0
VERTEX
8
L4
10
0.554341
20
12.975245
0
VERTEX
8
L4
10
0.554341
20
12.954755
0
VERTEX
8
L4
10
0.549137
20
12.934937
0
VERTEX
8
L4
10
0.539069
20
12.917091
0
VERTEX
8
L4
10
0.524798
20
12.902389
0
VERTEX
8
L4
10
0.50726
20
12.891793
0
VERTEX
8
L4
10
0.487606
20
12.885999
0
VERTEX
8
L4
10
0.467125
20
12.885389
0
VERTEX
8
L4
10
0.447161
20
12.89
0
VERTEX
8
L4
10
-0.325
20
12.89
0
VERTEX
8
L4
10
-0.344411
20
12.887444
0
VERTEX
8
L4
10
-0.3625
20
12.879952
0
VERTEX
8
L4
10
-0.378033
20
12.868033
0
VERTEX
8
L4
10
-0.389952
20
12.8525
0
VERTEX
8
L4
10
-0.397444
20
12.834411
0
VERTEX
8
L4
10
-0.4
20
12.815
0
VERTEX
8
L4
10
-0.4
20
12.423301
0
VERTEX
8
L4
10
-0.385
20
12.419281999999999
0
VERTEX
8
L4
10
-0.355718
20
12.39
0
VERTEX
8
L4
10
-0.345
20
12.35
0
VERTEX
8
L4
10
-0.355718
20
12.31
0
VERTEX
8
L4
10
-0.385
20
12.280718
0
VERTEX
8
L4
10
-0.4
20
12.276698699999999
0
VERTEX
8
L4
10
-0.4
20
11.545
0
VERTEX
8
L4
10
-0.397444
20
11.525589
0
VERTEX
8
L4
10
-0.389952
20
11.5075
0
VERTEX
8
L4
10
-0.378033
20
11.491966999999999
0
VERTEX
8
L4
10
-0.3625
20
11.480048
0
VERTEX
8
L4
10
-0.344411
20
11.472555999999999
0
VERTEX
8
L4
10
-0.325
20
11.469999999999999
0
SEQEND
0
POLYLINE
8
Mark
66
1
70
1
0
VERTEX
8
Mark
10
2.425
20
12.9025
0
VERTEX
8
Mark
10
2.075
20
12.9025
0
VERTEX
8
Mark
10
2.075
20
13.352500000000001
0
VERTEX
8
Mark
10
2.425
20
13.352500000000001
0
SEQEND
0
TEXT
8
0
10
-0.75
20
-1.7762499999999999
40
0.5075
1
C1-V4
0
TEXT
8
0
10
1.5
20
-0.25375
40
0.5075
1
C2-V5
0
TEXT
8
0
10
-0.75
20
1.2687499999999998
40
0.5075
1
C3
0
TEXT
8
0
10
1.5
20
2.79125
40
0.5075
1
G-V5
0
TEXT
8
0
10
-0.75
20
4.31375
40
0.5075
1
H1-V4
0
TEXT
8
0
10
1.5
20
5.83625
40
0.5075
1
L1-V1
0
TEXT
8
0
10
-0.75
20
7.35875
40
0.5075
1
L2-V2
0
TEXT
8
0
10
1.5
20
8.88125
40
0.5075
1
L3-V3
0
TEXT
8
0
10
-0.75
20
10.403749999999999
40
0.5075
1
L4-V4
0
TEXT
8
0
10
1.5
20
11.92625
40
0.5075
1
Mark
0
ENDSEC
0
EOF
