0
SECTION
2
HEADER
9
$ACADVER
1
AC1006
9
$INSBASE
10
0.0
20
0.0
30
0.0
9
$EXTMIN
10
0.0
20
0.0
9
$EXTMAX
10
0.0
20
0.0
0
ENDSEC
0
SECTION
2
TABLES
0
TABLE
2
LTYPE
70
1
0
LTYPE
2
CONTINUOUS
70
64
3
Solid line
72
65
73
0
40
0.0
0
ENDTAB
0
TABLE
2
LAYER
70
1
0
LAYER
2
0
70
0
62
255
6
continuous
0
ENDTAB
0
TABLE
2
STYLE
70
1
0
STYLE
2
STANDARD
70
0
40
0
41
1
50
0
71
0
42
1
3
ARIAL.TTF
4

0
ENDTAB
0
TABLE
2
VIEW
70
0
0
ENDTAB
0
ENDSEC
0
SECTION
2
BLOCKS
0
BLOCK
8
0
2
cutlineendpoint
70
0
10
0
20
0
30
0
3
cutlineendpoint
0
POLYLINE
8
0
66
1
70
1
40
0.04
41
0.04
0
VERTEX
8
0
10
-0.02
20
0
30
0
42
1.0
0
VERTEX
8
0
10
0.02
20
0
30
0
42
1.0
0
SEQEND
0
ENDBLK
0
ENDSEC
0
SECTION
2
ENTITIES
0
CIRCLE
8
V4
10
51.56406025824965
20
52.89555236728839
40
0.0375
0
POINT
8
PET
10
51.56406025824965
20
52.89555236728839
0
CIRCLE
8
V4
10
53.328766140602575
20
52.89555236728839
40
0.0375
0
POINT
8
PET
10
53.328766140602575
20
52.89555236728839
0
CIRCLE
8
V4
10
55.093472022955524
20
52.89555236728839
40
0.0375
0
POINT
8
PET
10
55.093472022955524
20
52.89555236728839
0
CIRCLE
8
V4
10
56.85817790530847
20
52.89555236728839
40
0.0375
0
POINT
8
PET
10
56.85817790530847
20
52.89555236728839
0
CIRCLE
8
V4
10
58.62288378766141
20
52.89555236728839
40
0.0375
0
POINT
8
PET
10
58.62288378766141
20
52.89555236728839
0
CIRCLE
8
V4
10
60.38758967001436
20
52.89555236728839
40
0.0375
0
POINT
8
PET
10
60.38758967001436
20
52.89555236728839
0
CIRCLE
8
V4
10
62.152295552367285
20
52.89555236728839
40
0.0375
0
POINT
8
PET
10
62.152295552367285
20
52.89555236728839
0
CIRCLE
8
V4
10
63.91700143472024
20
52.89555236728839
40
0.0375
0
POINT
8
PET
10
63.91700143472024
20
52.89555236728839
0
CIRCLE
8
V4
10
65.68170731707316
20
52.89555236728839
40
0.0375
0
POINT
8
PET
10
65.68170731707316
20
52.89555236728839
0
CIRCLE
8
V4
10
67.45265768958187
20
52.89305457122609
40
0.0375
0
POINT
8
PET
10
67.45265768958187
20
52.89305457122609
0
CIRCLE
8
V4
10
69.21736357193481
20
52.89305457122609
40
0.0375
0
POINT
8
PET
10
69.21736357193481
20
52.89305457122609
0
CIRCLE
8
V4
10
70.98206945428774
20
52.89305457122609
40
0.0375
0
POINT
8
PET
10
70.98206945428774
20
52.89305457122609
0
CIRCLE
8
V4
10
72.74677533664068
20
52.89305457122609
40
0.0375
0
POINT
8
PET
10
72.74677533664068
20
52.89305457122609
0
CIRCLE
8
V4
10
74.51148121899362
20
52.89305457122609
40
0.0375
0
POINT
8
PET
10
74.51148121899362
20
52.89305457122609
0
CIRCLE
8
V4
10
76.27618710134657
20
52.89305457122609
40
0.0375
0
POINT
8
PET
10
76.27618710134657
20
52.89305457122609
0
CIRCLE
8
V4
10
78.04089298369951
20
52.89305457122609
40
0.0375
0
POINT
8
PET
10
78.04089298369951
20
52.89305457122609
0
CIRCLE
8
V4
10
79.80559886605243
20
52.89305457122609
40
0.0375
0
POINT
8
PET
10
79.80559886605243
20
52.89305457122609
0
CIRCLE
8
V4
10
81.5703047484054
20
52.89305457122609
40
0.0375
0
POINT
8
PET
10
81.5703047484054
20
52.89305457122609
0
CIRCLE
8
V4
10
83.33501063075833
20
52.89305457122609
40
0.0375
0
POINT
8
PET
10
83.33501063075833
20
52.89305457122609
0
CIRCLE
8
V4
10
85.10581232492997
20
52.8906162464986
40
0.0375
0
POINT
8
PET
10
85.10581232492997
20
52.8906162464986
0
CIRCLE
8
V4
10
86.87051820728288
20
52.8906162464986
40
0.0375
0
POINT
8
PET
10
86.87051820728288
20
52.8906162464986
0
CIRCLE
8
V4
10
88.63522408963587
20
52.8906162464986
40
0.0375
0
POINT
8
PET
10
88.63522408963587
20
52.8906162464986
0
CIRCLE
8
V4
10
90.3999299719888
20
52.8906162464986
40
0.0375
0
POINT
8
PET
10
90.3999299719888
20
52.8906162464986
0
CIRCLE
8
V4
10
92.16463585434174
20
52.8906162464986
40
0.0375
0
POINT
8
PET
10
92.16463585434174
20
52.8906162464986
0
CIRCLE
8
V4
10
93.9293417366947
20
52.8906162464986
40
0.0375
0
POINT
8
PET
10
93.9293417366947
20
52.8906162464986
0
CIRCLE
8
V4
10
95.69404761904762
20
52.8906162464986
40
0.0375
0
POINT
8
PET
10
95.69404761904762
20
52.8906162464986
0
CIRCLE
8
V4
10
97.45875350140055
20
52.8906162464986
40
0.0375
0
POINT
8
PET
10
97.45875350140055
20
52.8906162464986
0
CIRCLE
8
V4
10
99.2234593837535
20
52.8906162464986
40
0.0375
0
POINT
8
PET
10
99.2234593837535
20
52.8906162464986
0
CIRCLE
8
V4
10
100.98816526610642
20
52.8906162464986
40
0.0375
0
POINT
8
PET
10
100.98816526610642
20
52.8906162464986
0
CIRCLE
8
V4
10
102.75882352941177
20
52.888235294117656
40
0.0375
0
POINT
8
PET
10
102.75882352941177
20
52.888235294117656
0
CIRCLE
8
V4
10
104.52352941176473
20
52.888235294117656
40
0.0375
0
POINT
8
PET
10
104.52352941176473
20
52.888235294117656
0
CIRCLE
8
V4
10
106.28823529411765
20
52.888235294117656
40
0.0375
0
POINT
8
PET
10
106.28823529411765
20
52.888235294117656
0
CIRCLE
8
V4
10
108.05294117647058
20
52.888235294117656
40
0.0375
0
POINT
8
PET
10
108.05294117647058
20
52.888235294117656
0
CIRCLE
8
V4
10
109.81764705882351
20
52.888235294117656
40
0.0375
0
POINT
8
PET
10
109.81764705882351
20
52.888235294117656
0
CIRCLE
8
V4
10
111.58235294117647
20
52.888235294117656
40
0.0375
0
POINT
8
PET
10
111.58235294117647
20
52.888235294117656
0
CIRCLE
8
V4
10
113.3470588235294
20
52.888235294117656
40
0.0375
0
POINT
8
PET
10
113.3470588235294
20
52.888235294117656
0
CIRCLE
8
V4
10
115.11176470588235
20
52.888235294117656
40
0.0375
0
POINT
8
PET
10
115.11176470588235
20
52.888235294117656
0
CIRCLE
8
V4
10
116.87647058823529
20
52.888235294117656
40
0.0375
0
POINT
8
PET
10
116.87647058823529
20
52.888235294117656
0
CIRCLE
8
V4
10
118.64117647058823
20
52.888235294117656
40
0.0375
0
POINT
8
PET
10
118.64117647058823
20
52.888235294117656
0
CIRCLE
8
V4
10
120.41169630642956
20
52.8859097127223
40
0.0375
0
POINT
8
PET
10
120.41169630642956
20
52.8859097127223
0
CIRCLE
8
V4
10
122.1764021887825
20
52.8859097127223
40
0.0375
0
POINT
8
PET
10
122.1764021887825
20
52.8859097127223
0
CIRCLE
8
V4
10
123.94110807113543
20
52.8859097127223
40
0.0375
0
POINT
8
PET
10
123.94110807113543
20
52.8859097127223
0
CIRCLE
8
V4
10
125.70581395348837
20
52.8859097127223
40
0.0375
0
POINT
8
PET
10
125.70581395348837
20
52.8859097127223
0
CIRCLE
8
V4
10
127.4705198358413
20
52.8859097127223
40
0.0375
0
POINT
8
PET
10
127.4705198358413
20
52.8859097127223
0
CIRCLE
8
V4
10
129.23522571819424
20
52.8859097127223
40
0.0375
0
POINT
8
PET
10
129.23522571819424
20
52.8859097127223
0
CIRCLE
8
V4
10
130.99993160054717
20
52.8859097127223
40
0.0375
0
POINT
8
PET
10
130.99993160054717
20
52.8859097127223
0
CIRCLE
8
V4
10
132.7646374829001
20
52.8859097127223
40
0.0375
0
POINT
8
PET
10
132.7646374829001
20
52.8859097127223
0
CIRCLE
8
V4
10
134.52934336525308
20
52.8859097127223
40
0.0375
0
POINT
8
PET
10
134.52934336525308
20
52.8859097127223
0
CIRCLE
8
V4
10
136.29404924760604
20
52.8859097127223
40
0.0375
0
POINT
8
PET
10
136.29404924760604
20
52.8859097127223
0
CIRCLE
8
V4
10
138.06443542934414
20
52.88363759296822
40
0.0375
0
POINT
8
PET
10
138.06443542934414
20
52.88363759296822
0
CIRCLE
8
V4
10
139.82914131169707
20
52.88363759296822
40
0.0375
0
POINT
8
PET
10
139.82914131169707
20
52.88363759296822
0
CIRCLE
8
V4
10
141.59384719405006
20
52.88363759296822
40
0.0375
0
POINT
8
PET
10
141.59384719405006
20
52.88363759296822
0
CIRCLE
8
V4
10
143.358553076403
20
52.88363759296822
40
0.0375
0
POINT
8
PET
10
143.358553076403
20
52.88363759296822
0
CIRCLE
8
V4
10
145.12325895875594
20
52.88363759296822
40
0.0375
0
POINT
8
PET
10
145.12325895875594
20
52.88363759296822
0
CIRCLE
8
V4
10
146.88796484110887
20
52.88363759296822
40
0.0375
0
POINT
8
PET
10
146.88796484110887
20
52.88363759296822
0
CIRCLE
8
V4
10
148.6526707234618
20
52.88363759296822
40
0.0375
0
POINT
8
PET
10
148.6526707234618
20
52.88363759296822
0
CIRCLE
8
V4
10
150.41737660581475
20
52.88363759296822
40
0.0375
0
POINT
8
PET
10
150.41737660581475
20
52.88363759296822
0
CIRCLE
8
V4
10
152.18208248816768
20
52.88363759296822
40
0.0375
0
POINT
8
PET
10
152.18208248816768
20
52.88363759296822
0
CIRCLE
8
V4
10
153.9467883705206
20
52.88363759296822
40
0.0375
0
POINT
8
PET
10
153.9467883705206
20
52.88363759296822
0
CIRCLE
8
V4
10
155.71704545454546
20
52.88141711229948
40
0.0375
0
POINT
8
PET
10
155.71704545454546
20
52.88141711229948
0
CIRCLE
8
V4
10
157.4817513368984
20
52.88141711229948
40
0.0375
0
POINT
8
PET
10
157.4817513368984
20
52.88141711229948
0
CIRCLE
8
V4
10
159.24645721925137
20
52.88141711229948
40
0.0375
0
POINT
8
PET
10
159.24645721925137
20
52.88141711229948
0
CIRCLE
8
V4
10
161.0111631016043
20
52.88141711229948
40
0.0375
0
POINT
8
PET
10
161.0111631016043
20
52.88141711229948
0
CIRCLE
8
V4
10
162.77586898395722
20
52.88141711229948
40
0.0375
0
POINT
8
PET
10
162.77586898395722
20
52.88141711229948
0
CIRCLE
8
V4
10
164.54057486631018
20
52.88141711229948
40
0.0375
0
POINT
8
PET
10
164.54057486631018
20
52.88141711229948
0
CIRCLE
8
V4
10
166.3052807486631
20
52.88141711229948
40
0.0375
0
POINT
8
PET
10
166.3052807486631
20
52.88141711229948
0
CIRCLE
8
V4
10
168.06998663101604
20
52.88141711229948
40
0.0375
0
POINT
8
PET
10
168.06998663101604
20
52.88141711229948
0
CIRCLE
8
V4
10
169.83469251336896
20
52.88141711229948
40
0.0375
0
POINT
8
PET
10
169.83469251336896
20
52.88141711229948
0
CIRCLE
8
0
10
50.0
20
50.0
40
0.15
0
CIRCLE
8
0
10
50.0
20
172.4
40
0.15
0
CIRCLE
8
0
10
50.0
20
176.4
40
0.15
0
CIRCLE
8
0
10
172.4
20
50.0
40
0.15
0
CIRCLE
8
0
10
172.4
20
172.4
40
0.15
0
ENDSEC
0
EOF
