0
SECTION
2
HEADER
9
$ACADVER
1
AC1006
9
$INSBASE
10
0.0
20
0.0
30
0.0
9
$EXTMIN
10
0.0
20
0.0
9
$EXTMAX
10
0.0
20
0.0
0
ENDSEC
0
SECTION
2
TABLES
0
TABLE
2
LTYPE
70
1
0
LTYPE
2
CONTINUOUS
70
64
3
Solid line
72
65
73
0
40
0.0
0
ENDTAB
0
TABLE
2
LAYER
70
1
0
LAYER
2
0
70
0
62
255
6
continuous
0
ENDTAB
0
TABLE
2
STYLE
70
1
0
STYLE
2
STANDARD
70
0
40
0
41
1
50
0
71
0
42
1
3
ARIAL.TTF
4

0
ENDTAB
0
TABLE
2
VIEW
70
0
0
ENDTAB
0
ENDSEC
0
SECTION
2
BLOCKS
0
BLOCK
8
0
2
cutlineendpoint
70
0
10
0
20
0
30
0
3
cutlineendpoint
0
POLYLINE
8
0
66
1
70
1
40
0.04
41
0.04
0
VERTEX
8
0
10
-0.02
20
0
30
0
42
1.0
0
VERTEX
8
0
10
0.02
20
0
30
0
42
1.0
0
SEQEND
0
ENDBLK
0
ENDSEC
0
SECTION
2
ENTITIES
0
CIRCLE
8
V3
10
52.661621233859414
20
53.64555236728839
40
0.0375
0
POINT
8
PET
10
52.661621233859414
20
53.64555236728839
0
CIRCLE
8
V3
10
52.661621233859414
20
51.730918220946926
40
0.0375
0
POINT
8
PET
10
52.661621233859414
20
51.730918220946926
0
CIRCLE
8
V3
10
54.42632711621234
20
53.64555236728839
40
0.0375
0
POINT
8
PET
10
54.42632711621234
20
53.64555236728839
0
CIRCLE
8
V3
10
54.42632711621234
20
51.730918220946926
40
0.0375
0
POINT
8
PET
10
54.42632711621234
20
51.730918220946926
0
CIRCLE
8
V3
10
56.191032998565284
20
53.64555236728839
40
0.0375
0
POINT
8
PET
10
56.191032998565284
20
53.64555236728839
0
CIRCLE
8
V3
10
56.191032998565284
20
51.730918220946926
40
0.0375
0
POINT
8
PET
10
56.191032998565284
20
51.730918220946926
0
CIRCLE
8
V3
10
57.95573888091823
20
53.64555236728839
40
0.0375
0
POINT
8
PET
10
57.95573888091823
20
53.64555236728839
0
CIRCLE
8
V3
10
57.95573888091823
20
51.730918220946926
40
0.0375
0
POINT
8
PET
10
57.95573888091823
20
51.730918220946926
0
CIRCLE
8
V3
10
59.72044476327116
20
53.64555236728839
40
0.0375
0
POINT
8
PET
10
59.72044476327116
20
53.64555236728839
0
CIRCLE
8
V3
10
59.72044476327116
20
51.730918220946926
40
0.0375
0
POINT
8
PET
10
59.72044476327116
20
51.730918220946926
0
CIRCLE
8
V3
10
61.48515064562411
20
53.64555236728839
40
0.0375
0
POINT
8
PET
10
61.48515064562411
20
53.64555236728839
0
CIRCLE
8
V3
10
61.48515064562411
20
51.730918220946926
40
0.0375
0
POINT
8
PET
10
61.48515064562411
20
51.730918220946926
0
CIRCLE
8
V3
10
63.249856527977045
20
53.64555236728839
40
0.0375
0
POINT
8
PET
10
63.249856527977045
20
53.64555236728839
0
CIRCLE
8
V3
10
63.249856527977045
20
51.730918220946926
40
0.0375
0
POINT
8
PET
10
63.249856527977045
20
51.730918220946926
0
CIRCLE
8
V3
10
65.01456241032999
20
53.64555236728839
40
0.0375
0
POINT
8
PET
10
65.01456241032999
20
53.64555236728839
0
CIRCLE
8
V3
10
65.01456241032999
20
51.730918220946926
40
0.0375
0
POINT
8
PET
10
65.01456241032999
20
51.730918220946926
0
CIRCLE
8
V3
10
66.77926829268293
20
53.64555236728839
40
0.0375
0
POINT
8
PET
10
66.77926829268293
20
53.64555236728839
0
CIRCLE
8
V3
10
66.77926829268293
20
51.730918220946926
40
0.0375
0
POINT
8
PET
10
66.77926829268293
20
51.730918220946926
0
CIRCLE
8
V3
10
68.53699503897946
20
53.63401842664778
40
0.0375
0
POINT
8
PET
10
68.53699503897946
20
53.63401842664778
0
CIRCLE
8
V3
10
68.53699503897946
20
51.74245216158753
40
0.0375
0
POINT
8
PET
10
68.53699503897946
20
51.74245216158753
0
CIRCLE
8
V3
10
70.3017009213324
20
53.63401842664778
40
0.0375
0
POINT
8
PET
10
70.3017009213324
20
53.63401842664778
0
CIRCLE
8
V3
10
70.3017009213324
20
51.74245216158753
40
0.0375
0
POINT
8
PET
10
70.3017009213324
20
51.74245216158753
0
CIRCLE
8
V3
10
72.06640680368534
20
53.63401842664778
40
0.0375
0
POINT
8
PET
10
72.06640680368534
20
53.63401842664778
0
CIRCLE
8
V3
10
72.06640680368534
20
51.74245216158753
40
0.0375
0
POINT
8
PET
10
72.06640680368534
20
51.74245216158753
0
CIRCLE
8
V3
10
73.83111268603828
20
53.63401842664778
40
0.0375
0
POINT
8
PET
10
73.83111268603828
20
53.63401842664778
0
CIRCLE
8
V3
10
73.83111268603828
20
51.74245216158753
40
0.0375
0
POINT
8
PET
10
73.83111268603828
20
51.74245216158753
0
CIRCLE
8
V3
10
75.59581856839122
20
53.63401842664778
40
0.0375
0
POINT
8
PET
10
75.59581856839122
20
53.63401842664778
0
CIRCLE
8
V3
10
75.59581856839122
20
51.74245216158753
40
0.0375
0
POINT
8
PET
10
75.59581856839122
20
51.74245216158753
0
CIRCLE
8
V3
10
77.36052445074417
20
53.63401842664778
40
0.0375
0
POINT
8
PET
10
77.36052445074417
20
53.63401842664778
0
CIRCLE
8
V3
10
77.36052445074417
20
51.74245216158753
40
0.0375
0
POINT
8
PET
10
77.36052445074417
20
51.74245216158753
0
CIRCLE
8
V3
10
79.12523033309711
20
53.63401842664778
40
0.0375
0
POINT
8
PET
10
79.12523033309711
20
53.63401842664778
0
CIRCLE
8
V3
10
79.12523033309711
20
51.74245216158753
40
0.0375
0
POINT
8
PET
10
79.12523033309711
20
51.74245216158753
0
CIRCLE
8
V3
10
80.88993621545005
20
53.63401842664778
40
0.0375
0
POINT
8
PET
10
80.88993621545005
20
53.63401842664778
0
CIRCLE
8
V3
10
80.88993621545005
20
51.74245216158753
40
0.0375
0
POINT
8
PET
10
80.88993621545005
20
51.74245216158753
0
CIRCLE
8
V3
10
82.65464209780299
20
53.63401842664778
40
0.0375
0
POINT
8
PET
10
82.65464209780299
20
53.63401842664778
0
CIRCLE
8
V3
10
82.65464209780299
20
51.74245216158753
40
0.0375
0
POINT
8
PET
10
82.65464209780299
20
51.74245216158753
0
CIRCLE
8
V3
10
84.41934798015592
20
53.63401842664778
40
0.0375
0
POINT
8
PET
10
84.41934798015592
20
53.63401842664778
0
CIRCLE
8
V3
10
84.41934798015592
20
51.74245216158753
40
0.0375
0
POINT
8
PET
10
84.41934798015592
20
51.74245216158753
0
CIRCLE
8
V3
10
86.17724089635855
20
53.62275910364145
40
0.0375
0
POINT
8
PET
10
86.17724089635855
20
53.62275910364145
0
CIRCLE
8
V3
10
86.17724089635855
20
51.75371148459384
40
0.0375
0
POINT
8
PET
10
86.17724089635855
20
51.75371148459384
0
CIRCLE
8
V3
10
87.94194677871148
20
53.62275910364145
40
0.0375
0
POINT
8
PET
10
87.94194677871148
20
53.62275910364145
0
CIRCLE
8
V3
10
87.94194677871148
20
51.75371148459384
40
0.0375
0
POINT
8
PET
10
87.94194677871148
20
51.75371148459384
0
CIRCLE
8
V3
10
89.70665266106444
20
53.62275910364145
40
0.0375
0
POINT
8
PET
10
89.70665266106444
20
53.62275910364145
0
CIRCLE
8
V3
10
89.70665266106444
20
51.75371148459384
40
0.0375
0
POINT
8
PET
10
89.70665266106444
20
51.75371148459384
0
CIRCLE
8
V3
10
91.47135854341735
20
53.62275910364145
40
0.0375
0
POINT
8
PET
10
91.47135854341735
20
53.62275910364145
0
CIRCLE
8
V3
10
91.47135854341735
20
51.75371148459384
40
0.0375
0
POINT
8
PET
10
91.47135854341735
20
51.75371148459384
0
CIRCLE
8
V3
10
93.23606442577032
20
53.62275910364145
40
0.0375
0
POINT
8
PET
10
93.23606442577032
20
53.62275910364145
0
CIRCLE
8
V3
10
93.23606442577032
20
51.75371148459384
40
0.0375
0
POINT
8
PET
10
93.23606442577032
20
51.75371148459384
0
CIRCLE
8
V3
10
95.00077030812325
20
53.62275910364145
40
0.0375
0
POINT
8
PET
10
95.00077030812325
20
53.62275910364145
0
CIRCLE
8
V3
10
95.00077030812325
20
51.75371148459384
40
0.0375
0
POINT
8
PET
10
95.00077030812325
20
51.75371148459384
0
CIRCLE
8
V3
10
96.76547619047618
20
53.62275910364145
40
0.0375
0
POINT
8
PET
10
96.76547619047618
20
53.62275910364145
0
CIRCLE
8
V3
10
96.76547619047618
20
51.75371148459384
40
0.0375
0
POINT
8
PET
10
96.76547619047618
20
51.75371148459384
0
CIRCLE
8
V3
10
98.53018207282913
20
53.62275910364145
40
0.0375
0
POINT
8
PET
10
98.53018207282913
20
53.62275910364145
0
CIRCLE
8
V3
10
98.53018207282913
20
51.75371148459384
40
0.0375
0
POINT
8
PET
10
98.53018207282913
20
51.75371148459384
0
CIRCLE
8
V3
10
100.29488795518206
20
53.62275910364145
40
0.0375
0
POINT
8
PET
10
100.29488795518206
20
53.62275910364145
0
CIRCLE
8
V3
10
100.29488795518206
20
51.75371148459384
40
0.0375
0
POINT
8
PET
10
100.29488795518206
20
51.75371148459384
0
CIRCLE
8
V3
10
102.05959383753502
20
53.62275910364145
40
0.0375
0
POINT
8
PET
10
102.05959383753502
20
53.62275910364145
0
CIRCLE
8
V3
10
102.05959383753502
20
51.75371148459384
40
0.0375
0
POINT
8
PET
10
102.05959383753502
20
51.75371148459384
0
CIRCLE
8
V3
10
103.81764705882357
20
53.611764705882344
40
0.0375
0
POINT
8
PET
10
103.81764705882357
20
53.611764705882344
0
CIRCLE
8
V3
10
103.81764705882357
20
51.76470588235295
40
0.0375
0
POINT
8
PET
10
103.81764705882357
20
51.76470588235295
0
CIRCLE
8
V3
10
105.5823529411765
20
53.611764705882344
40
0.0375
0
POINT
8
PET
10
105.5823529411765
20
53.611764705882344
0
CIRCLE
8
V3
10
105.5823529411765
20
51.76470588235295
40
0.0375
0
POINT
8
PET
10
105.5823529411765
20
51.76470588235295
0
CIRCLE
8
V3
10
107.34705882352942
20
53.611764705882344
40
0.0375
0
POINT
8
PET
10
107.34705882352942
20
53.611764705882344
0
CIRCLE
8
V3
10
107.34705882352942
20
51.76470588235295
40
0.0375
0
POINT
8
PET
10
107.34705882352942
20
51.76470588235295
0
CIRCLE
8
V3
10
109.11176470588238
20
53.611764705882344
40
0.0375
0
POINT
8
PET
10
109.11176470588238
20
53.611764705882344
0
CIRCLE
8
V3
10
109.11176470588238
20
51.76470588235295
40
0.0375
0
POINT
8
PET
10
109.11176470588238
20
51.76470588235295
0
CIRCLE
8
V3
10
110.87647058823529
20
53.611764705882344
40
0.0375
0
POINT
8
PET
10
110.87647058823529
20
53.611764705882344
0
CIRCLE
8
V3
10
110.87647058823529
20
51.76470588235295
40
0.0375
0
POINT
8
PET
10
110.87647058823529
20
51.76470588235295
0
CIRCLE
8
V3
10
112.64117647058826
20
53.611764705882344
40
0.0375
0
POINT
8
PET
10
112.64117647058826
20
53.611764705882344
0
CIRCLE
8
V3
10
112.64117647058826
20
51.76470588235295
40
0.0375
0
POINT
8
PET
10
112.64117647058826
20
51.76470588235295
0
CIRCLE
8
V3
10
114.40588235294116
20
53.611764705882344
40
0.0375
0
POINT
8
PET
10
114.40588235294116
20
53.611764705882344
0
CIRCLE
8
V3
10
114.40588235294116
20
51.76470588235295
40
0.0375
0
POINT
8
PET
10
114.40588235294116
20
51.76470588235295
0
CIRCLE
8
V3
10
116.17058823529412
20
53.611764705882344
40
0.0375
0
POINT
8
PET
10
116.17058823529412
20
53.611764705882344
0
CIRCLE
8
V3
10
116.17058823529412
20
51.76470588235295
40
0.0375
0
POINT
8
PET
10
116.17058823529412
20
51.76470588235295
0
CIRCLE
8
V3
10
117.93529411764705
20
53.611764705882344
40
0.0375
0
POINT
8
PET
10
117.93529411764705
20
53.611764705882344
0
CIRCLE
8
V3
10
117.93529411764705
20
51.76470588235295
40
0.0375
0
POINT
8
PET
10
117.93529411764705
20
51.76470588235295
0
CIRCLE
8
V3
10
119.7
20
53.611764705882344
40
0.0375
0
POINT
8
PET
10
119.7
20
53.611764705882344
0
CIRCLE
8
V3
10
119.7
20
51.76470588235295
40
0.0375
0
POINT
8
PET
10
119.7
20
51.76470588235295
0
CIRCLE
8
V3
10
121.45820793433654
20
53.60102599179208
40
0.0375
0
POINT
8
PET
10
121.45820793433654
20
53.60102599179208
0
CIRCLE
8
V3
10
121.45820793433654
20
51.775444596443236
40
0.0375
0
POINT
8
PET
10
121.45820793433654
20
51.775444596443236
0
CIRCLE
8
V3
10
123.22291381668948
20
53.60102599179208
40
0.0375
0
POINT
8
PET
10
123.22291381668948
20
53.60102599179208
0
CIRCLE
8
V3
10
123.22291381668948
20
51.775444596443236
40
0.0375
0
POINT
8
PET
10
123.22291381668948
20
51.775444596443236
0
CIRCLE
8
V3
10
124.98761969904244
20
53.60102599179208
40
0.0375
0
POINT
8
PET
10
124.98761969904244
20
53.60102599179208
0
CIRCLE
8
V3
10
124.98761969904244
20
51.775444596443236
40
0.0375
0
POINT
8
PET
10
124.98761969904244
20
51.775444596443236
0
CIRCLE
8
V3
10
126.75232558139538
20
53.60102599179208
40
0.0375
0
POINT
8
PET
10
126.75232558139538
20
53.60102599179208
0
CIRCLE
8
V3
10
126.75232558139538
20
51.775444596443236
40
0.0375
0
POINT
8
PET
10
126.75232558139538
20
51.775444596443236
0
CIRCLE
8
V3
10
128.51703146374828
20
53.60102599179208
40
0.0375
0
POINT
8
PET
10
128.51703146374828
20
53.60102599179208
0
CIRCLE
8
V3
10
128.51703146374828
20
51.775444596443236
40
0.0375
0
POINT
8
PET
10
128.51703146374828
20
51.775444596443236
0
CIRCLE
8
V3
10
130.28173734610127
20
53.60102599179208
40
0.0375
0
POINT
8
PET
10
130.28173734610127
20
53.60102599179208
0
CIRCLE
8
V3
10
130.28173734610127
20
51.775444596443236
40
0.0375
0
POINT
8
PET
10
130.28173734610127
20
51.775444596443236
0
CIRCLE
8
V3
10
132.04644322845414
20
53.60102599179208
40
0.0375
0
POINT
8
PET
10
132.04644322845414
20
53.60102599179208
0
CIRCLE
8
V3
10
132.04644322845414
20
51.775444596443236
40
0.0375
0
POINT
8
PET
10
132.04644322845414
20
51.775444596443236
0
CIRCLE
8
V3
10
133.81114911080712
20
53.60102599179208
40
0.0375
0
POINT
8
PET
10
133.81114911080712
20
53.60102599179208
0
CIRCLE
8
V3
10
133.81114911080712
20
51.775444596443236
40
0.0375
0
POINT
8
PET
10
133.81114911080712
20
51.775444596443236
0
CIRCLE
8
V3
10
135.57585499316002
20
53.60102599179208
40
0.0375
0
POINT
8
PET
10
135.57585499316002
20
53.60102599179208
0
CIRCLE
8
V3
10
135.57585499316002
20
51.775444596443236
40
0.0375
0
POINT
8
PET
10
135.57585499316002
20
51.775444596443236
0
CIRCLE
8
V3
10
137.34056087551303
20
53.60102599179208
40
0.0375
0
POINT
8
PET
10
137.34056087551303
20
53.60102599179208
0
CIRCLE
8
V3
10
137.34056087551303
20
51.775444596443236
40
0.0375
0
POINT
8
PET
10
137.34056087551303
20
51.775444596443236
0
CIRCLE
8
V3
10
139.09891818796487
20
53.590534144692356
40
0.0375
0
POINT
8
PET
10
139.09891818796487
20
53.590534144692356
0
CIRCLE
8
V3
10
139.09891818796487
20
51.78593644354294
40
0.0375
0
POINT
8
PET
10
139.09891818796487
20
51.78593644354294
0
CIRCLE
8
V3
10
140.86362407031774
20
53.590534144692356
40
0.0375
0
POINT
8
PET
10
140.86362407031774
20
53.590534144692356
0
CIRCLE
8
V3
10
140.86362407031774
20
51.78593644354294
40
0.0375
0
POINT
8
PET
10
140.86362407031774
20
51.78593644354294
0
CIRCLE
8
V3
10
142.62832995267075
20
53.590534144692356
40
0.0375
0
POINT
8
PET
10
142.62832995267075
20
53.590534144692356
0
CIRCLE
8
V3
10
142.62832995267075
20
51.78593644354294
40
0.0375
0
POINT
8
PET
10
142.62832995267075
20
51.78593644354294
0
CIRCLE
8
V3
10
144.39303583502365
20
53.590534144692356
40
0.0375
0
POINT
8
PET
10
144.39303583502365
20
53.590534144692356
0
CIRCLE
8
V3
10
144.39303583502365
20
51.78593644354294
40
0.0375
0
POINT
8
PET
10
144.39303583502365
20
51.78593644354294
0
CIRCLE
8
V3
10
146.15774171737664
20
53.590534144692356
40
0.0375
0
POINT
8
PET
10
146.15774171737664
20
53.590534144692356
0
CIRCLE
8
V3
10
146.15774171737664
20
51.78593644354294
40
0.0375
0
POINT
8
PET
10
146.15774171737664
20
51.78593644354294
0
CIRCLE
8
V3
10
147.92244759972948
20
53.590534144692356
40
0.0375
0
POINT
8
PET
10
147.92244759972948
20
53.590534144692356
0
CIRCLE
8
V3
10
147.92244759972948
20
51.78593644354294
40
0.0375
0
POINT
8
PET
10
147.92244759972948
20
51.78593644354294
0
CIRCLE
8
V3
10
149.6871534820825
20
53.590534144692356
40
0.0375
0
POINT
8
PET
10
149.6871534820825
20
53.590534144692356
0
CIRCLE
8
V3
10
149.6871534820825
20
51.78593644354294
40
0.0375
0
POINT
8
PET
10
149.6871534820825
20
51.78593644354294
0
CIRCLE
8
V3
10
151.45185936443542
20
53.590534144692356
40
0.0375
0
POINT
8
PET
10
151.45185936443542
20
53.590534144692356
0
CIRCLE
8
V3
10
151.45185936443542
20
51.78593644354294
40
0.0375
0
POINT
8
PET
10
151.45185936443542
20
51.78593644354294
0
CIRCLE
8
V3
10
153.21656524678838
20
53.590534144692356
40
0.0375
0
POINT
8
PET
10
153.21656524678838
20
53.590534144692356
0
CIRCLE
8
V3
10
153.21656524678838
20
51.78593644354294
40
0.0375
0
POINT
8
PET
10
153.21656524678838
20
51.78593644354294
0
CIRCLE
8
V3
10
154.98127112914133
20
53.590534144692356
40
0.0375
0
POINT
8
PET
10
154.98127112914133
20
53.590534144692356
0
CIRCLE
8
V3
10
154.98127112914133
20
51.78593644354294
40
0.0375
0
POINT
8
PET
10
154.98127112914133
20
51.78593644354294
0
CIRCLE
8
V3
10
156.7397727272727
20
53.58028074866311
40
0.0375
0
POINT
8
PET
10
156.7397727272727
20
53.58028074866311
0
CIRCLE
8
V3
10
156.7397727272727
20
51.7961898395722
40
0.0375
0
POINT
8
PET
10
156.7397727272727
20
51.7961898395722
0
CIRCLE
8
V3
10
158.50447860962566
20
53.58028074866311
40
0.0375
0
POINT
8
PET
10
158.50447860962566
20
53.58028074866311
0
CIRCLE
8
V3
10
158.50447860962566
20
51.7961898395722
40
0.0375
0
POINT
8
PET
10
158.50447860962566
20
51.7961898395722
0
CIRCLE
8
V3
10
160.2691844919786
20
53.58028074866311
40
0.0375
0
POINT
8
PET
10
160.2691844919786
20
53.58028074866311
0
CIRCLE
8
V3
10
160.2691844919786
20
51.7961898395722
40
0.0375
0
POINT
8
PET
10
160.2691844919786
20
51.7961898395722
0
CIRCLE
8
V3
10
162.03389037433155
20
53.58028074866311
40
0.0375
0
POINT
8
PET
10
162.03389037433155
20
53.58028074866311
0
CIRCLE
8
V3
10
162.03389037433155
20
51.7961898395722
40
0.0375
0
POINT
8
PET
10
162.03389037433155
20
51.7961898395722
0
CIRCLE
8
V3
10
163.79859625668448
20
53.58028074866311
40
0.0375
0
POINT
8
PET
10
163.79859625668448
20
53.58028074866311
0
CIRCLE
8
V3
10
163.79859625668448
20
51.7961898395722
40
0.0375
0
POINT
8
PET
10
163.79859625668448
20
51.7961898395722
0
CIRCLE
8
V3
10
165.56330213903743
20
53.58028074866311
40
0.0375
0
POINT
8
PET
10
165.56330213903743
20
53.58028074866311
0
CIRCLE
8
V3
10
165.56330213903743
20
51.7961898395722
40
0.0375
0
POINT
8
PET
10
165.56330213903743
20
51.7961898395722
0
CIRCLE
8
V3
10
167.32800802139042
20
53.58028074866311
40
0.0375
0
POINT
8
PET
10
167.32800802139042
20
53.58028074866311
0
CIRCLE
8
V3
10
167.32800802139042
20
51.7961898395722
40
0.0375
0
POINT
8
PET
10
167.32800802139042
20
51.7961898395722
0
CIRCLE
8
V3
10
169.09271390374332
20
53.58028074866311
40
0.0375
0
POINT
8
PET
10
169.09271390374332
20
53.58028074866311
0
CIRCLE
8
V3
10
169.09271390374332
20
51.7961898395722
40
0.0375
0
POINT
8
PET
10
169.09271390374332
20
51.7961898395722
0
CIRCLE
8
V3
10
170.8574197860963
20
53.58028074866311
40
0.0375
0
POINT
8
PET
10
170.8574197860963
20
53.58028074866311
0
CIRCLE
8
V3
10
170.8574197860963
20
51.7961898395722
40
0.0375
0
POINT
8
PET
10
170.8574197860963
20
51.7961898395722
0
CIRCLE
8
0
10
50.0
20
50.0
40
0.15
0
CIRCLE
8
0
10
50.0
20
172.4
40
0.15
0
CIRCLE
8
0
10
50.0
20
176.4
40
0.15
0
CIRCLE
8
0
10
172.4
20
50.0
40
0.15
0
CIRCLE
8
0
10
172.4
20
172.4
40
0.15
0
ENDSEC
0
EOF
