0
SECTION
2
HEADER
9
$ACADVER
1
AC1006
9
$INSBASE
10
0.0
20
0.0
30
0.0
9
$EXTMIN
10
0.0
20
0.0
9
$EXTMAX
10
0.0
20
0.0
0
ENDSEC
0
SECTION
2
TABLES
0
TABLE
2
LTYPE
70
1
0
LTYPE
2
CONTINUOUS
70
64
3
Solid line
72
65
73
0
40
0.0
0
ENDTAB
0
TABLE
2
LAYER
70
1
0
LAYER
2
0
70
0
62
255
6
continuous
0
ENDTAB
0
TABLE
2
STYLE
70
1
0
STYLE
2
STANDARD
70
0
40
0
41
1
50
0
71
0
42
1
3
ARIAL.TTF
4

0
ENDTAB
0
TABLE
2
VIEW
70
0
0
ENDTAB
0
ENDSEC
0
SECTION
2
BLOCKS
0
BLOCK
8
0
2
cutlineendpoint
70
0
10
0
20
0
30
0
3
cutlineendpoint
0
POLYLINE
8
0
66
1
70
1
40
0.04
41
0.04
0
VERTEX
8
0
10
-0.02
20
0
30
0
42
1.0
0
VERTEX
8
0
10
0.02
20
0
30
0
42
1.0
0
SEQEND
0
ENDBLK
0
ENDSEC
0
SECTION
2
ENTITIES
0
CIRCLE
8
V5
10
52.08235294117646
20
52.93213773314204
40
0.02666666666666667
0
CIRCLE
8
PET
10
52.08235294117646
20
52.93213773314204
40
0.005
0
CIRCLE
8
V5
10
53.84705882352941
20
52.93213773314204
40
0.02666666666666667
0
CIRCLE
8
PET
10
53.84705882352941
20
52.93213773314204
40
0.005
0
CIRCLE
8
V5
10
55.611764705882365
20
52.93213773314204
40
0.02666666666666667
0
CIRCLE
8
PET
10
55.611764705882365
20
52.93213773314204
40
0.005
0
CIRCLE
8
V5
10
57.3764705882353
20
52.93213773314204
40
0.02666666666666667
0
CIRCLE
8
PET
10
57.3764705882353
20
52.93213773314204
40
0.005
0
CIRCLE
8
V5
10
59.14117647058824
20
52.93213773314204
40
0.02666666666666667
0
CIRCLE
8
PET
10
59.14117647058824
20
52.93213773314204
40
0.005
0
CIRCLE
8
V5
10
60.90588235294117
20
52.93213773314204
40
0.02666666666666667
0
CIRCLE
8
PET
10
60.90588235294117
20
52.93213773314204
40
0.005
0
CIRCLE
8
V5
10
62.670588235294126
20
52.93213773314204
40
0.02666666666666667
0
CIRCLE
8
PET
10
62.670588235294126
20
52.93213773314204
40
0.005
0
CIRCLE
8
V5
10
64.43529411764708
20
52.93213773314204
40
0.02666666666666667
0
CIRCLE
8
PET
10
64.43529411764708
20
52.93213773314204
40
0.005
0
CIRCLE
8
V5
10
66.2
20
52.93213773314204
40
0.02666666666666667
0
CIRCLE
8
PET
10
66.2
20
52.93213773314204
40
0.005
0
CIRCLE
8
V5
10
67.96470588235296
20
52.929199149539336
40
0.02666666666666667
0
CIRCLE
8
PET
10
67.96470588235296
20
52.929199149539336
40
0.005
0
CIRCLE
8
V5
10
69.72941176470589
20
52.929199149539336
40
0.02666666666666667
0
CIRCLE
8
PET
10
69.72941176470589
20
52.929199149539336
40
0.005
0
CIRCLE
8
V5
10
71.49411764705883
20
52.929199149539336
40
0.02666666666666667
0
CIRCLE
8
PET
10
71.49411764705883
20
52.929199149539336
40
0.005
0
CIRCLE
8
V5
10
73.25882352941177
20
52.929199149539336
40
0.02666666666666667
0
CIRCLE
8
PET
10
73.25882352941177
20
52.929199149539336
40
0.005
0
CIRCLE
8
V5
10
75.0235294117647
20
52.929199149539336
40
0.02666666666666667
0
CIRCLE
8
PET
10
75.0235294117647
20
52.929199149539336
40
0.005
0
CIRCLE
8
V5
10
76.78823529411764
20
52.929199149539336
40
0.02666666666666667
0
CIRCLE
8
PET
10
76.78823529411764
20
52.929199149539336
40
0.005
0
CIRCLE
8
V5
10
78.5529411764706
20
52.929199149539336
40
0.02666666666666667
0
CIRCLE
8
PET
10
78.5529411764706
20
52.929199149539336
40
0.005
0
CIRCLE
8
V5
10
80.31764705882352
20
52.929199149539336
40
0.02666666666666667
0
CIRCLE
8
PET
10
80.31764705882352
20
52.929199149539336
40
0.005
0
CIRCLE
8
V5
10
82.0823529411765
20
52.929199149539336
40
0.02666666666666667
0
CIRCLE
8
PET
10
82.0823529411765
20
52.929199149539336
40
0.005
0
CIRCLE
8
V5
10
83.84705882352942
20
52.929199149539336
40
0.02666666666666667
0
CIRCLE
8
PET
10
83.84705882352942
20
52.929199149539336
40
0.005
0
CIRCLE
8
V5
10
85.61176470588236
20
52.926330532212894
40
0.02666666666666667
0
CIRCLE
8
PET
10
85.61176470588236
20
52.926330532212894
40
0.005
0
CIRCLE
8
V5
10
87.37647058823529
20
52.926330532212894
40
0.02666666666666667
0
CIRCLE
8
PET
10
87.37647058823529
20
52.926330532212894
40
0.005
0
CIRCLE
8
V5
10
89.14117647058822
20
52.926330532212894
40
0.02666666666666667
0
CIRCLE
8
PET
10
89.14117647058822
20
52.926330532212894
40
0.005
0
CIRCLE
8
V5
10
90.90588235294115
20
52.926330532212894
40
0.02666666666666667
0
CIRCLE
8
PET
10
90.90588235294115
20
52.926330532212894
40
0.005
0
CIRCLE
8
V5
10
92.67058823529412
20
52.926330532212894
40
0.02666666666666667
0
CIRCLE
8
PET
10
92.67058823529412
20
52.926330532212894
40
0.005
0
CIRCLE
8
V5
10
94.43529411764708
20
52.926330532212894
40
0.02666666666666667
0
CIRCLE
8
PET
10
94.43529411764708
20
52.926330532212894
40
0.005
0
CIRCLE
8
V5
10
96.2
20
52.926330532212894
40
0.02666666666666667
0
CIRCLE
8
PET
10
96.2
20
52.926330532212894
40
0.005
0
CIRCLE
8
V5
10
97.96470588235296
20
52.926330532212894
40
0.02666666666666667
0
CIRCLE
8
PET
10
97.96470588235296
20
52.926330532212894
40
0.005
0
CIRCLE
8
V5
10
99.7294117647059
20
52.926330532212894
40
0.02666666666666667
0
CIRCLE
8
PET
10
99.7294117647059
20
52.926330532212894
40
0.005
0
CIRCLE
8
V5
10
101.49411764705883
20
52.926330532212894
40
0.02666666666666667
0
CIRCLE
8
PET
10
101.49411764705883
20
52.926330532212894
40
0.005
0
CIRCLE
8
V5
10
103.25882352941177
20
52.92352941176471
40
0.02666666666666667
0
CIRCLE
8
PET
10
103.25882352941177
20
52.92352941176471
40
0.005
0
CIRCLE
8
V5
10
105.02352941176473
20
52.92352941176471
40
0.02666666666666667
0
CIRCLE
8
PET
10
105.02352941176473
20
52.92352941176471
40
0.005
0
CIRCLE
8
V5
10
106.78823529411765
20
52.92352941176471
40
0.02666666666666667
0
CIRCLE
8
PET
10
106.78823529411765
20
52.92352941176471
40
0.005
0
CIRCLE
8
V5
10
108.55294117647058
20
52.92352941176471
40
0.02666666666666667
0
CIRCLE
8
PET
10
108.55294117647058
20
52.92352941176471
40
0.005
0
CIRCLE
8
V5
10
110.31764705882351
20
52.92352941176471
40
0.02666666666666667
0
CIRCLE
8
PET
10
110.31764705882351
20
52.92352941176471
40
0.005
0
CIRCLE
8
V5
10
112.08235294117647
20
52.92352941176471
40
0.02666666666666667
0
CIRCLE
8
PET
10
112.08235294117647
20
52.92352941176471
40
0.005
0
CIRCLE
8
V5
10
113.8470588235294
20
52.92352941176471
40
0.02666666666666667
0
CIRCLE
8
PET
10
113.8470588235294
20
52.92352941176471
40
0.005
0
CIRCLE
8
V5
10
115.61176470588235
20
52.92352941176471
40
0.02666666666666667
0
CIRCLE
8
PET
10
115.61176470588235
20
52.92352941176471
40
0.005
0
CIRCLE
8
V5
10
117.37647058823529
20
52.92352941176471
40
0.02666666666666667
0
CIRCLE
8
PET
10
117.37647058823529
20
52.92352941176471
40
0.005
0
CIRCLE
8
V5
10
119.14117647058823
20
52.92352941176471
40
0.02666666666666667
0
CIRCLE
8
PET
10
119.14117647058823
20
52.92352941176471
40
0.005
0
CIRCLE
8
V5
10
120.90588235294119
20
52.92079343365253
40
0.02666666666666667
0
CIRCLE
8
PET
10
120.90588235294119
20
52.92079343365253
40
0.005
0
CIRCLE
8
V5
10
122.67058823529413
20
52.92079343365253
40
0.02666666666666667
0
CIRCLE
8
PET
10
122.67058823529413
20
52.92079343365253
40
0.005
0
CIRCLE
8
V5
10
124.43529411764708
20
52.92079343365253
40
0.02666666666666667
0
CIRCLE
8
PET
10
124.43529411764708
20
52.92079343365253
40
0.005
0
CIRCLE
8
V5
10
126.2
20
52.92079343365253
40
0.02666666666666667
0
CIRCLE
8
PET
10
126.2
20
52.92079343365253
40
0.005
0
CIRCLE
8
V5
10
127.96470588235293
20
52.92079343365253
40
0.02666666666666667
0
CIRCLE
8
PET
10
127.96470588235293
20
52.92079343365253
40
0.005
0
CIRCLE
8
V5
10
129.7294117647059
20
52.92079343365253
40
0.02666666666666667
0
CIRCLE
8
PET
10
129.7294117647059
20
52.92079343365253
40
0.005
0
CIRCLE
8
V5
10
131.49411764705883
20
52.92079343365253
40
0.02666666666666667
0
CIRCLE
8
PET
10
131.49411764705883
20
52.92079343365253
40
0.005
0
CIRCLE
8
V5
10
133.25882352941176
20
52.92079343365253
40
0.02666666666666667
0
CIRCLE
8
PET
10
133.25882352941176
20
52.92079343365253
40
0.005
0
CIRCLE
8
V5
10
135.02352941176468
20
52.92079343365253
40
0.02666666666666667
0
CIRCLE
8
PET
10
135.02352941176468
20
52.92079343365253
40
0.005
0
CIRCLE
8
V5
10
136.78823529411764
20
52.92079343365253
40
0.02666666666666667
0
CIRCLE
8
PET
10
136.78823529411764
20
52.92079343365253
40
0.005
0
CIRCLE
8
V5
10
138.5529411764706
20
52.91812035158892
40
0.02666666666666667
0
CIRCLE
8
PET
10
138.5529411764706
20
52.91812035158892
40
0.005
0
CIRCLE
8
V5
10
140.31764705882352
20
52.91812035158892
40
0.02666666666666667
0
CIRCLE
8
PET
10
140.31764705882352
20
52.91812035158892
40
0.005
0
CIRCLE
8
V5
10
142.08235294117648
20
52.91812035158892
40
0.02666666666666667
0
CIRCLE
8
PET
10
142.08235294117648
20
52.91812035158892
40
0.005
0
CIRCLE
8
V5
10
143.84705882352944
20
52.91812035158892
40
0.02666666666666667
0
CIRCLE
8
PET
10
143.84705882352944
20
52.91812035158892
40
0.005
0
CIRCLE
8
V5
10
145.61176470588236
20
52.91812035158892
40
0.02666666666666667
0
CIRCLE
8
PET
10
145.61176470588236
20
52.91812035158892
40
0.005
0
CIRCLE
8
V5
10
147.3764705882353
20
52.91812035158892
40
0.02666666666666667
0
CIRCLE
8
PET
10
147.3764705882353
20
52.91812035158892
40
0.005
0
CIRCLE
8
V5
10
149.14117647058822
20
52.91812035158892
40
0.02666666666666667
0
CIRCLE
8
PET
10
149.14117647058822
20
52.91812035158892
40
0.005
0
CIRCLE
8
V5
10
150.90588235294118
20
52.91812035158892
40
0.02666666666666667
0
CIRCLE
8
PET
10
150.90588235294118
20
52.91812035158892
40
0.005
0
CIRCLE
8
V5
10
152.67058823529413
20
52.91812035158892
40
0.02666666666666667
0
CIRCLE
8
PET
10
152.67058823529413
20
52.91812035158892
40
0.005
0
CIRCLE
8
V5
10
154.43529411764706
20
52.91812035158892
40
0.02666666666666667
0
CIRCLE
8
PET
10
154.43529411764706
20
52.91812035158892
40
0.005
0
CIRCLE
8
V5
10
156.2
20
52.91550802139037
40
0.02666666666666667
0
CIRCLE
8
PET
10
156.2
20
52.91550802139037
40
0.005
0
CIRCLE
8
V5
10
157.96470588235294
20
52.91550802139037
40
0.02666666666666667
0
CIRCLE
8
PET
10
157.96470588235294
20
52.91550802139037
40
0.005
0
CIRCLE
8
V5
10
159.7294117647059
20
52.91550802139037
40
0.02666666666666667
0
CIRCLE
8
PET
10
159.7294117647059
20
52.91550802139037
40
0.005
0
CIRCLE
8
V5
10
161.49411764705883
20
52.91550802139037
40
0.02666666666666667
0
CIRCLE
8
PET
10
161.49411764705883
20
52.91550802139037
40
0.005
0
CIRCLE
8
V5
10
163.25882352941176
20
52.91550802139037
40
0.02666666666666667
0
CIRCLE
8
PET
10
163.25882352941176
20
52.91550802139037
40
0.005
0
CIRCLE
8
V5
10
165.0235294117647
20
52.91550802139037
40
0.02666666666666667
0
CIRCLE
8
PET
10
165.0235294117647
20
52.91550802139037
40
0.005
0
CIRCLE
8
V5
10
166.78823529411767
20
52.91550802139037
40
0.02666666666666667
0
CIRCLE
8
PET
10
166.78823529411767
20
52.91550802139037
40
0.005
0
CIRCLE
8
V5
10
168.5529411764706
20
52.91550802139037
40
0.02666666666666667
0
CIRCLE
8
PET
10
168.5529411764706
20
52.91550802139037
40
0.005
0
CIRCLE
8
V5
10
170.31764705882352
20
52.91550802139037
40
0.02666666666666667
0
CIRCLE
8
PET
10
170.31764705882352
20
52.91550802139037
40
0.005
0
CIRCLE
8
0
10
50.0
20
50.0
40
0.15
0
CIRCLE
8
0
10
50.0
20
172.4
40
0.15
0
CIRCLE
8
0
10
172.4
20
50.0
40
0.15
0
CIRCLE
8
0
10
172.4
20
172.4
40
0.15
0
ENDSEC
0
EOF
