0
SECTION
2
HEADER
9
$ACADVER
1
AC1006
9
$INSBASE
10
0.0
20
0.0
30
0.0
9
$EXTMIN
10
0.0
20
0.0
9
$EXTMAX
10
0.0
20
0.0
0
ENDSEC
0
SECTION
2
TABLES
0
TABLE
2
LTYPE
70
1
0
LTYPE
2
CONTINUOUS
70
64
3
Solid line
72
65
73
0
40
0.0
0
ENDTAB
0
TABLE
2
LAYER
70
1
0
LAYER
2
0
70
0
62
255
6
continuous
0
ENDTAB
0
TABLE
2
STYLE
70
1
0
STYLE
2
STANDARD
70
0
40
0
41
1
50
0
71
0
42
1
3
ARIAL.TTF
4

0
ENDTAB
0
TABLE
2
VIEW
70
0
0
ENDTAB
0
ENDSEC
0
SECTION
2
BLOCKS
0
BLOCK
8
0
2
cutlineendpoint
70
0
10
0
20
0
30
0
3
cutlineendpoint
0
POLYLINE
8
0
66
1
70
1
40
0.04
41
0.04
0
VERTEX
8
0
10
-0.02
20
0
30
0
42
1.0
0
VERTEX
8
0
10
0.02
20
0
30
0
42
1.0
0
SEQEND
0
ENDBLK
0
ENDSEC
0
SECTION
2
ENTITIES
0
CIRCLE
8
V2
10
51.50308464849355
20
53.64555236728839
40
0.02666666666666667
0
CIRCLE
8
PET
10
51.50308464849355
20
53.64555236728839
40
0.005
0
CIRCLE
8
V2
10
51.50308464849355
20
51.730918220946926
40
0.02666666666666667
0
CIRCLE
8
PET
10
51.50308464849355
20
51.730918220946926
40
0.005
0
CIRCLE
8
V2
10
53.26779053084649
20
53.64555236728839
40
0.02666666666666667
0
CIRCLE
8
PET
10
53.26779053084649
20
53.64555236728839
40
0.005
0
CIRCLE
8
V2
10
53.26779053084649
20
51.730918220946926
40
0.02666666666666667
0
CIRCLE
8
PET
10
53.26779053084649
20
51.730918220946926
40
0.005
0
CIRCLE
8
V2
10
55.03249641319943
20
53.64555236728839
40
0.02666666666666667
0
CIRCLE
8
PET
10
55.03249641319943
20
53.64555236728839
40
0.005
0
CIRCLE
8
V2
10
55.03249641319943
20
51.730918220946926
40
0.02666666666666667
0
CIRCLE
8
PET
10
55.03249641319943
20
51.730918220946926
40
0.005
0
CIRCLE
8
V2
10
56.797202295552374
20
53.64555236728839
40
0.02666666666666667
0
CIRCLE
8
PET
10
56.797202295552374
20
53.64555236728839
40
0.005
0
CIRCLE
8
V2
10
56.797202295552374
20
51.730918220946926
40
0.02666666666666667
0
CIRCLE
8
PET
10
56.797202295552374
20
51.730918220946926
40
0.005
0
CIRCLE
8
V2
10
58.56190817790531
20
53.64555236728839
40
0.02666666666666667
0
CIRCLE
8
PET
10
58.56190817790531
20
53.64555236728839
40
0.005
0
CIRCLE
8
V2
10
58.56190817790531
20
51.730918220946926
40
0.02666666666666667
0
CIRCLE
8
PET
10
58.56190817790531
20
51.730918220946926
40
0.005
0
CIRCLE
8
V2
10
60.326614060258244
20
53.64555236728839
40
0.02666666666666667
0
CIRCLE
8
PET
10
60.326614060258244
20
53.64555236728839
40
0.005
0
CIRCLE
8
V2
10
60.326614060258244
20
51.730918220946926
40
0.02666666666666667
0
CIRCLE
8
PET
10
60.326614060258244
20
51.730918220946926
40
0.005
0
CIRCLE
8
V2
10
62.091319942611186
20
53.64555236728839
40
0.02666666666666667
0
CIRCLE
8
PET
10
62.091319942611186
20
53.64555236728839
40
0.005
0
CIRCLE
8
V2
10
62.091319942611186
20
51.730918220946926
40
0.02666666666666667
0
CIRCLE
8
PET
10
62.091319942611186
20
51.730918220946926
40
0.005
0
CIRCLE
8
V2
10
63.85602582496412
20
53.64555236728839
40
0.02666666666666667
0
CIRCLE
8
PET
10
63.85602582496412
20
53.64555236728839
40
0.005
0
CIRCLE
8
V2
10
63.85602582496412
20
51.730918220946926
40
0.02666666666666667
0
CIRCLE
8
PET
10
63.85602582496412
20
51.730918220946926
40
0.005
0
CIRCLE
8
V2
10
65.62073170731708
20
53.64555236728839
40
0.02666666666666667
0
CIRCLE
8
PET
10
65.62073170731708
20
53.64555236728839
40
0.005
0
CIRCLE
8
V2
10
65.62073170731708
20
51.730918220946926
40
0.02666666666666667
0
CIRCLE
8
PET
10
65.62073170731708
20
51.730918220946926
40
0.005
0
CIRCLE
8
V2
10
67.39241672572642
20
53.63401842664778
40
0.02666666666666667
0
CIRCLE
8
PET
10
67.39241672572642
20
53.63401842664778
40
0.005
0
CIRCLE
8
V2
10
67.39241672572642
20
51.74245216158753
40
0.02666666666666667
0
CIRCLE
8
PET
10
67.39241672572642
20
51.74245216158753
40
0.005
0
CIRCLE
8
V2
10
69.15712260807938
20
53.63401842664778
40
0.02666666666666667
0
CIRCLE
8
PET
10
69.15712260807938
20
53.63401842664778
40
0.005
0
CIRCLE
8
V2
10
69.15712260807938
20
51.74245216158753
40
0.02666666666666667
0
CIRCLE
8
PET
10
69.15712260807938
20
51.74245216158753
40
0.005
0
CIRCLE
8
V2
10
70.92182849043233
20
53.63401842664778
40
0.02666666666666667
0
CIRCLE
8
PET
10
70.92182849043233
20
53.63401842664778
40
0.005
0
CIRCLE
8
V2
10
70.92182849043233
20
51.74245216158753
40
0.02666666666666667
0
CIRCLE
8
PET
10
70.92182849043233
20
51.74245216158753
40
0.005
0
CIRCLE
8
V2
10
72.68653437278526
20
53.63401842664778
40
0.02666666666666667
0
CIRCLE
8
PET
10
72.68653437278526
20
53.63401842664778
40
0.005
0
CIRCLE
8
V2
10
72.68653437278526
20
51.74245216158753
40
0.02666666666666667
0
CIRCLE
8
PET
10
72.68653437278526
20
51.74245216158753
40
0.005
0
CIRCLE
8
V2
10
74.4512402551382
20
53.63401842664778
40
0.02666666666666667
0
CIRCLE
8
PET
10
74.4512402551382
20
53.63401842664778
40
0.005
0
CIRCLE
8
V2
10
74.4512402551382
20
51.74245216158753
40
0.02666666666666667
0
CIRCLE
8
PET
10
74.4512402551382
20
51.74245216158753
40
0.005
0
CIRCLE
8
V2
10
76.21594613749114
20
53.63401842664778
40
0.02666666666666667
0
CIRCLE
8
PET
10
76.21594613749114
20
53.63401842664778
40
0.005
0
CIRCLE
8
V2
10
76.21594613749114
20
51.74245216158753
40
0.02666666666666667
0
CIRCLE
8
PET
10
76.21594613749114
20
51.74245216158753
40
0.005
0
CIRCLE
8
V2
10
77.98065201984409
20
53.63401842664778
40
0.02666666666666667
0
CIRCLE
8
PET
10
77.98065201984409
20
53.63401842664778
40
0.005
0
CIRCLE
8
V2
10
77.98065201984409
20
51.74245216158753
40
0.02666666666666667
0
CIRCLE
8
PET
10
77.98065201984409
20
51.74245216158753
40
0.005
0
CIRCLE
8
V2
10
79.74535790219701
20
53.63401842664778
40
0.02666666666666667
0
CIRCLE
8
PET
10
79.74535790219701
20
53.63401842664778
40
0.005
0
CIRCLE
8
V2
10
79.74535790219701
20
51.74245216158753
40
0.02666666666666667
0
CIRCLE
8
PET
10
79.74535790219701
20
51.74245216158753
40
0.005
0
CIRCLE
8
V2
10
81.51006378454996
20
53.63401842664778
40
0.02666666666666667
0
CIRCLE
8
PET
10
81.51006378454996
20
53.63401842664778
40
0.005
0
CIRCLE
8
V2
10
81.51006378454996
20
51.74245216158753
40
0.02666666666666667
0
CIRCLE
8
PET
10
81.51006378454996
20
51.74245216158753
40
0.005
0
CIRCLE
8
V2
10
83.27476966690291
20
53.63401842664778
40
0.02666666666666667
0
CIRCLE
8
PET
10
83.27476966690291
20
53.63401842664778
40
0.005
0
CIRCLE
8
V2
10
83.27476966690291
20
51.74245216158753
40
0.02666666666666667
0
CIRCLE
8
PET
10
83.27476966690291
20
51.74245216158753
40
0.005
0
CIRCLE
8
V2
10
85.04628851540618
20
53.62275910364145
40
0.02666666666666667
0
CIRCLE
8
PET
10
85.04628851540618
20
53.62275910364145
40
0.005
0
CIRCLE
8
V2
10
85.04628851540618
20
51.75371148459384
40
0.02666666666666667
0
CIRCLE
8
PET
10
85.04628851540618
20
51.75371148459384
40
0.005
0
CIRCLE
8
V2
10
86.8109943977591
20
53.62275910364145
40
0.02666666666666667
0
CIRCLE
8
PET
10
86.8109943977591
20
53.62275910364145
40
0.005
0
CIRCLE
8
V2
10
86.8109943977591
20
51.75371148459384
40
0.02666666666666667
0
CIRCLE
8
PET
10
86.8109943977591
20
51.75371148459384
40
0.005
0
CIRCLE
8
V2
10
88.57570028011206
20
53.62275910364145
40
0.02666666666666667
0
CIRCLE
8
PET
10
88.57570028011206
20
53.62275910364145
40
0.005
0
CIRCLE
8
V2
10
88.57570028011206
20
51.75371148459384
40
0.02666666666666667
0
CIRCLE
8
PET
10
88.57570028011206
20
51.75371148459384
40
0.005
0
CIRCLE
8
V2
10
90.340406162465
20
53.62275910364145
40
0.02666666666666667
0
CIRCLE
8
PET
10
90.340406162465
20
53.62275910364145
40
0.005
0
CIRCLE
8
V2
10
90.340406162465
20
51.75371148459384
40
0.02666666666666667
0
CIRCLE
8
PET
10
90.340406162465
20
51.75371148459384
40
0.005
0
CIRCLE
8
V2
10
92.10511204481793
20
53.62275910364145
40
0.02666666666666667
0
CIRCLE
8
PET
10
92.10511204481793
20
53.62275910364145
40
0.005
0
CIRCLE
8
V2
10
92.10511204481793
20
51.75371148459384
40
0.02666666666666667
0
CIRCLE
8
PET
10
92.10511204481793
20
51.75371148459384
40
0.005
0
CIRCLE
8
V2
10
93.86981792717087
20
53.62275910364145
40
0.02666666666666667
0
CIRCLE
8
PET
10
93.86981792717087
20
53.62275910364145
40
0.005
0
CIRCLE
8
V2
10
93.86981792717087
20
51.75371148459384
40
0.02666666666666667
0
CIRCLE
8
PET
10
93.86981792717087
20
51.75371148459384
40
0.005
0
CIRCLE
8
V2
10
95.6345238095238
20
53.62275910364145
40
0.02666666666666667
0
CIRCLE
8
PET
10
95.6345238095238
20
53.62275910364145
40
0.005
0
CIRCLE
8
V2
10
95.6345238095238
20
51.75371148459384
40
0.02666666666666667
0
CIRCLE
8
PET
10
95.6345238095238
20
51.75371148459384
40
0.005
0
CIRCLE
8
V2
10
97.39922969187676
20
53.62275910364145
40
0.02666666666666667
0
CIRCLE
8
PET
10
97.39922969187676
20
53.62275910364145
40
0.005
0
CIRCLE
8
V2
10
97.39922969187676
20
51.75371148459384
40
0.02666666666666667
0
CIRCLE
8
PET
10
97.39922969187676
20
51.75371148459384
40
0.005
0
CIRCLE
8
V2
10
99.16393557422968
20
53.62275910364145
40
0.02666666666666667
0
CIRCLE
8
PET
10
99.16393557422968
20
53.62275910364145
40
0.005
0
CIRCLE
8
V2
10
99.16393557422968
20
51.75371148459384
40
0.02666666666666667
0
CIRCLE
8
PET
10
99.16393557422968
20
51.75371148459384
40
0.005
0
CIRCLE
8
V2
10
100.92864145658264
20
53.62275910364145
40
0.02666666666666667
0
CIRCLE
8
PET
10
100.92864145658264
20
53.62275910364145
40
0.005
0
CIRCLE
8
V2
10
100.92864145658264
20
51.75371148459384
40
0.02666666666666667
0
CIRCLE
8
PET
10
100.92864145658264
20
51.75371148459384
40
0.005
0
CIRCLE
8
V2
10
102.7
20
53.611764705882344
40
0.02666666666666667
0
CIRCLE
8
PET
10
102.7
20
53.611764705882344
40
0.005
0
CIRCLE
8
V2
10
102.7
20
51.76470588235295
40
0.02666666666666667
0
CIRCLE
8
PET
10
102.7
20
51.76470588235295
40
0.005
0
CIRCLE
8
V2
10
104.46470588235296
20
53.611764705882344
40
0.02666666666666667
0
CIRCLE
8
PET
10
104.46470588235296
20
53.611764705882344
40
0.005
0
CIRCLE
8
V2
10
104.46470588235296
20
51.76470588235295
40
0.02666666666666667
0
CIRCLE
8
PET
10
104.46470588235296
20
51.76470588235295
40
0.005
0
CIRCLE
8
V2
10
106.22941176470586
20
53.611764705882344
40
0.02666666666666667
0
CIRCLE
8
PET
10
106.22941176470586
20
53.611764705882344
40
0.005
0
CIRCLE
8
V2
10
106.22941176470586
20
51.76470588235295
40
0.02666666666666667
0
CIRCLE
8
PET
10
106.22941176470586
20
51.76470588235295
40
0.005
0
CIRCLE
8
V2
10
107.99411764705881
20
53.611764705882344
40
0.02666666666666667
0
CIRCLE
8
PET
10
107.99411764705881
20
53.611764705882344
40
0.005
0
CIRCLE
8
V2
10
107.99411764705881
20
51.76470588235295
40
0.02666666666666667
0
CIRCLE
8
PET
10
107.99411764705881
20
51.76470588235295
40
0.005
0
CIRCLE
8
V2
10
109.75882352941174
20
53.611764705882344
40
0.02666666666666667
0
CIRCLE
8
PET
10
109.75882352941174
20
53.611764705882344
40
0.005
0
CIRCLE
8
V2
10
109.75882352941174
20
51.76470588235295
40
0.02666666666666667
0
CIRCLE
8
PET
10
109.75882352941174
20
51.76470588235295
40
0.005
0
CIRCLE
8
V2
10
111.52352941176468
20
53.611764705882344
40
0.02666666666666667
0
CIRCLE
8
PET
10
111.52352941176468
20
53.611764705882344
40
0.005
0
CIRCLE
8
V2
10
111.52352941176468
20
51.76470588235295
40
0.02666666666666667
0
CIRCLE
8
PET
10
111.52352941176468
20
51.76470588235295
40
0.005
0
CIRCLE
8
V2
10
113.28823529411765
20
53.611764705882344
40
0.02666666666666667
0
CIRCLE
8
PET
10
113.28823529411765
20
53.611764705882344
40
0.005
0
CIRCLE
8
V2
10
113.28823529411765
20
51.76470588235295
40
0.02666666666666667
0
CIRCLE
8
PET
10
113.28823529411765
20
51.76470588235295
40
0.005
0
CIRCLE
8
V2
10
115.05294117647055
20
53.611764705882344
40
0.02666666666666667
0
CIRCLE
8
PET
10
115.05294117647055
20
53.611764705882344
40
0.005
0
CIRCLE
8
V2
10
115.05294117647055
20
51.76470588235295
40
0.02666666666666667
0
CIRCLE
8
PET
10
115.05294117647055
20
51.76470588235295
40
0.005
0
CIRCLE
8
V2
10
116.81764705882354
20
53.611764705882344
40
0.02666666666666667
0
CIRCLE
8
PET
10
116.81764705882354
20
53.611764705882344
40
0.005
0
CIRCLE
8
V2
10
116.81764705882354
20
51.76470588235295
40
0.02666666666666667
0
CIRCLE
8
PET
10
116.81764705882354
20
51.76470588235295
40
0.005
0
CIRCLE
8
V2
10
118.58235294117647
20
53.611764705882344
40
0.02666666666666667
0
CIRCLE
8
PET
10
118.58235294117647
20
53.611764705882344
40
0.005
0
CIRCLE
8
V2
10
118.58235294117647
20
51.76470588235295
40
0.02666666666666667
0
CIRCLE
8
PET
10
118.58235294117647
20
51.76470588235295
40
0.005
0
CIRCLE
8
V2
10
120.35355677154583
20
53.60102599179208
40
0.02666666666666667
0
CIRCLE
8
PET
10
120.35355677154583
20
53.60102599179208
40
0.005
0
CIRCLE
8
V2
10
120.35355677154583
20
51.775444596443236
40
0.02666666666666667
0
CIRCLE
8
PET
10
120.35355677154583
20
51.775444596443236
40
0.005
0
CIRCLE
8
V2
10
122.11826265389874
20
53.60102599179208
40
0.02666666666666667
0
CIRCLE
8
PET
10
122.11826265389874
20
53.60102599179208
40
0.005
0
CIRCLE
8
V2
10
122.11826265389874
20
51.775444596443236
40
0.02666666666666667
0
CIRCLE
8
PET
10
122.11826265389874
20
51.775444596443236
40
0.005
0
CIRCLE
8
V2
10
123.88296853625172
20
53.60102599179208
40
0.02666666666666667
0
CIRCLE
8
PET
10
123.88296853625172
20
53.60102599179208
40
0.005
0
CIRCLE
8
V2
10
123.88296853625172
20
51.775444596443236
40
0.02666666666666667
0
CIRCLE
8
PET
10
123.88296853625172
20
51.775444596443236
40
0.005
0
CIRCLE
8
V2
10
125.64767441860464
20
53.60102599179208
40
0.02666666666666667
0
CIRCLE
8
PET
10
125.64767441860464
20
53.60102599179208
40
0.005
0
CIRCLE
8
V2
10
125.64767441860464
20
51.775444596443236
40
0.02666666666666667
0
CIRCLE
8
PET
10
125.64767441860464
20
51.775444596443236
40
0.005
0
CIRCLE
8
V2
10
127.41238030095758
20
53.60102599179208
40
0.02666666666666667
0
CIRCLE
8
PET
10
127.41238030095758
20
53.60102599179208
40
0.005
0
CIRCLE
8
V2
10
127.41238030095758
20
51.775444596443236
40
0.02666666666666667
0
CIRCLE
8
PET
10
127.41238030095758
20
51.775444596443236
40
0.005
0
CIRCLE
8
V2
10
129.1770861833105
20
53.60102599179208
40
0.02666666666666667
0
CIRCLE
8
PET
10
129.1770861833105
20
53.60102599179208
40
0.005
0
CIRCLE
8
V2
10
129.1770861833105
20
51.775444596443236
40
0.02666666666666667
0
CIRCLE
8
PET
10
129.1770861833105
20
51.775444596443236
40
0.005
0
CIRCLE
8
V2
10
130.94179206566346
20
53.60102599179208
40
0.02666666666666667
0
CIRCLE
8
PET
10
130.94179206566346
20
53.60102599179208
40
0.005
0
CIRCLE
8
V2
10
130.94179206566346
20
51.775444596443236
40
0.02666666666666667
0
CIRCLE
8
PET
10
130.94179206566346
20
51.775444596443236
40
0.005
0
CIRCLE
8
V2
10
132.70649794801636
20
53.60102599179208
40
0.02666666666666667
0
CIRCLE
8
PET
10
132.70649794801636
20
53.60102599179208
40
0.005
0
CIRCLE
8
V2
10
132.70649794801636
20
51.775444596443236
40
0.02666666666666667
0
CIRCLE
8
PET
10
132.70649794801636
20
51.775444596443236
40
0.005
0
CIRCLE
8
V2
10
134.47120383036938
20
53.60102599179208
40
0.02666666666666667
0
CIRCLE
8
PET
10
134.47120383036938
20
53.60102599179208
40
0.005
0
CIRCLE
8
V2
10
134.47120383036938
20
51.775444596443236
40
0.02666666666666667
0
CIRCLE
8
PET
10
134.47120383036938
20
51.775444596443236
40
0.005
0
CIRCLE
8
V2
10
136.23590971272233
20
53.60102599179208
40
0.02666666666666667
0
CIRCLE
8
PET
10
136.23590971272233
20
53.60102599179208
40
0.005
0
CIRCLE
8
V2
10
136.23590971272233
20
51.775444596443236
40
0.02666666666666667
0
CIRCLE
8
PET
10
136.23590971272233
20
51.775444596443236
40
0.005
0
CIRCLE
8
V2
10
138.00696416497638
20
53.590534144692356
40
0.02666666666666667
0
CIRCLE
8
PET
10
138.00696416497638
20
53.590534144692356
40
0.005
0
CIRCLE
8
V2
10
138.00696416497638
20
51.78593644354294
40
0.02666666666666667
0
CIRCLE
8
PET
10
138.00696416497638
20
51.78593644354294
40
0.005
0
CIRCLE
8
V2
10
139.77167004732928
20
53.590534144692356
40
0.02666666666666667
0
CIRCLE
8
PET
10
139.77167004732928
20
53.590534144692356
40
0.005
0
CIRCLE
8
V2
10
139.77167004732928
20
51.78593644354294
40
0.02666666666666667
0
CIRCLE
8
PET
10
139.77167004732928
20
51.78593644354294
40
0.005
0
CIRCLE
8
V2
10
141.53637592968226
20
53.590534144692356
40
0.02666666666666667
0
CIRCLE
8
PET
10
141.53637592968226
20
53.590534144692356
40
0.005
0
CIRCLE
8
V2
10
141.53637592968226
20
51.78593644354294
40
0.02666666666666667
0
CIRCLE
8
PET
10
141.53637592968226
20
51.78593644354294
40
0.005
0
CIRCLE
8
V2
10
143.30108181203516
20
53.590534144692356
40
0.02666666666666667
0
CIRCLE
8
PET
10
143.30108181203516
20
53.590534144692356
40
0.005
0
CIRCLE
8
V2
10
143.30108181203516
20
51.78593644354294
40
0.02666666666666667
0
CIRCLE
8
PET
10
143.30108181203516
20
51.78593644354294
40
0.005
0
CIRCLE
8
V2
10
145.06578769438815
20
53.590534144692356
40
0.02666666666666667
0
CIRCLE
8
PET
10
145.06578769438815
20
53.590534144692356
40
0.005
0
CIRCLE
8
V2
10
145.06578769438815
20
51.78593644354294
40
0.02666666666666667
0
CIRCLE
8
PET
10
145.06578769438815
20
51.78593644354294
40
0.005
0
CIRCLE
8
V2
10
146.83049357674102
20
53.590534144692356
40
0.02666666666666667
0
CIRCLE
8
PET
10
146.83049357674102
20
53.590534144692356
40
0.005
0
CIRCLE
8
V2
10
146.83049357674102
20
51.78593644354294
40
0.02666666666666667
0
CIRCLE
8
PET
10
146.83049357674102
20
51.78593644354294
40
0.005
0
CIRCLE
8
V2
10
148.595199459094
20
53.590534144692356
40
0.02666666666666667
0
CIRCLE
8
PET
10
148.595199459094
20
53.590534144692356
40
0.005
0
CIRCLE
8
V2
10
148.595199459094
20
51.78593644354294
40
0.02666666666666667
0
CIRCLE
8
PET
10
148.595199459094
20
51.78593644354294
40
0.005
0
CIRCLE
8
V2
10
150.3599053414469
20
53.590534144692356
40
0.02666666666666667
0
CIRCLE
8
PET
10
150.3599053414469
20
53.590534144692356
40
0.005
0
CIRCLE
8
V2
10
150.3599053414469
20
51.78593644354294
40
0.02666666666666667
0
CIRCLE
8
PET
10
150.3599053414469
20
51.78593644354294
40
0.005
0
CIRCLE
8
V2
10
152.12461122379992
20
53.590534144692356
40
0.02666666666666667
0
CIRCLE
8
PET
10
152.12461122379992
20
53.590534144692356
40
0.005
0
CIRCLE
8
V2
10
152.12461122379992
20
51.78593644354294
40
0.02666666666666667
0
CIRCLE
8
PET
10
152.12461122379992
20
51.78593644354294
40
0.005
0
CIRCLE
8
V2
10
153.8893171061528
20
53.590534144692356
40
0.02666666666666667
0
CIRCLE
8
PET
10
153.8893171061528
20
53.590534144692356
40
0.005
0
CIRCLE
8
V2
10
153.8893171061528
20
51.78593644354294
40
0.02666666666666667
0
CIRCLE
8
PET
10
153.8893171061528
20
51.78593644354294
40
0.005
0
CIRCLE
8
V2
10
155.66022727272724
20
53.58028074866311
40
0.02666666666666667
0
CIRCLE
8
PET
10
155.66022727272724
20
53.58028074866311
40
0.005
0
CIRCLE
8
V2
10
155.66022727272724
20
51.7961898395722
40
0.02666666666666667
0
CIRCLE
8
PET
10
155.66022727272724
20
51.7961898395722
40
0.005
0
CIRCLE
8
V2
10
157.4249331550802
20
53.58028074866311
40
0.02666666666666667
0
CIRCLE
8
PET
10
157.4249331550802
20
53.58028074866311
40
0.005
0
CIRCLE
8
V2
10
157.4249331550802
20
51.7961898395722
40
0.02666666666666667
0
CIRCLE
8
PET
10
157.4249331550802
20
51.7961898395722
40
0.005
0
CIRCLE
8
V2
10
159.1896390374332
20
53.58028074866311
40
0.02666666666666667
0
CIRCLE
8
PET
10
159.1896390374332
20
53.58028074866311
40
0.005
0
CIRCLE
8
V2
10
159.1896390374332
20
51.7961898395722
40
0.02666666666666667
0
CIRCLE
8
PET
10
159.1896390374332
20
51.7961898395722
40
0.005
0
CIRCLE
8
V2
10
160.9543449197861
20
53.58028074866311
40
0.02666666666666667
0
CIRCLE
8
PET
10
160.9543449197861
20
53.58028074866311
40
0.005
0
CIRCLE
8
V2
10
160.9543449197861
20
51.7961898395722
40
0.02666666666666667
0
CIRCLE
8
PET
10
160.9543449197861
20
51.7961898395722
40
0.005
0
CIRCLE
8
V2
10
162.71905080213904
20
53.58028074866311
40
0.02666666666666667
0
CIRCLE
8
PET
10
162.71905080213904
20
53.58028074866311
40
0.005
0
CIRCLE
8
V2
10
162.71905080213904
20
51.7961898395722
40
0.02666666666666667
0
CIRCLE
8
PET
10
162.71905080213904
20
51.7961898395722
40
0.005
0
CIRCLE
8
V2
10
164.48375668449196
20
53.58028074866311
40
0.02666666666666667
0
CIRCLE
8
PET
10
164.48375668449196
20
53.58028074866311
40
0.005
0
CIRCLE
8
V2
10
164.48375668449196
20
51.7961898395722
40
0.02666666666666667
0
CIRCLE
8
PET
10
164.48375668449196
20
51.7961898395722
40
0.005
0
CIRCLE
8
V2
10
166.24846256684495
20
53.58028074866311
40
0.02666666666666667
0
CIRCLE
8
PET
10
166.24846256684495
20
53.58028074866311
40
0.005
0
CIRCLE
8
V2
10
166.24846256684495
20
51.7961898395722
40
0.02666666666666667
0
CIRCLE
8
PET
10
166.24846256684495
20
51.7961898395722
40
0.005
0
CIRCLE
8
V2
10
168.01316844919785
20
53.58028074866311
40
0.02666666666666667
0
CIRCLE
8
PET
10
168.01316844919785
20
53.58028074866311
40
0.005
0
CIRCLE
8
V2
10
168.01316844919785
20
51.7961898395722
40
0.02666666666666667
0
CIRCLE
8
PET
10
168.01316844919785
20
51.7961898395722
40
0.005
0
CIRCLE
8
V2
10
169.7778743315508
20
53.58028074866311
40
0.02666666666666667
0
CIRCLE
8
PET
10
169.7778743315508
20
53.58028074866311
40
0.005
0
CIRCLE
8
V2
10
169.7778743315508
20
51.7961898395722
40
0.02666666666666667
0
CIRCLE
8
PET
10
169.7778743315508
20
51.7961898395722
40
0.005
0
CIRCLE
8
0
10
50.0
20
50.0
40
0.15
0
CIRCLE
8
0
10
50.0
20
172.4
40
0.15
0
CIRCLE
8
0
10
172.4
20
50.0
40
0.15
0
CIRCLE
8
0
10
172.4
20
172.4
40
0.15
0
ENDSEC
0
EOF
