0
SECTION
2
HEADER
9
$ACADVER
1
AC1006
9
$INSBASE
10
0.0
20
0.0
30
0.0
9
$EXTMIN
10
-3.307999999999569
20
-4.372999999999983
9
$EXTMAX
10
43.90799999999956
20
9.258000000000354
0
ENDSEC
0
SECTION
2
TABLES
0
TABLE
2
LTYPE
70
1
0
LTYPE
2
CONTINUOUS
70
64
3
Solid line
72
65
73
0
40
0.0
0
ENDTAB
0
TABLE
2
LAYER
70
16
0
LAYER
2
L4
70
0
62
12
6
continuous
0
LAYER
2
V7
70
0
62
22
6
continuous
0
LAYER
2
L3
70
0
62
32
6
continuous
0
LAYER
2
V6
70
0
62
42
6
continuous
0
LAYER
2
L2
70
0
62
52
6
continuous
0
LAYER
2
V5
70
0
62
62
6
continuous
0
LAYER
2
L1
70
0
62
72
6
continuous
0
LAYER
2
V4
70
0
62
82
6
continuous
0
LAYER
2
C3
70
0
62
92
6
continuous
0
LAYER
2
V3
70
0
62
102
6
continuous
0
LAYER
2
C2
70
0
62
112
6
continuous
0
LAYER
2
V2
70
0
62
122
6
continuous
0
LAYER
2
C1
70
0
62
132
6
continuous
0
LAYER
2
V1
70
0
62
142
6
continuous
0
LAYER
2
G1
70
0
62
152
6
continuous
0
LAYER
2
0
70
0
62
7
6
continuous
0
ENDTAB
0
TABLE
2
STYLE
70
1
0
STYLE
2
STANDARD
70
0
40
0
41
1
50
0
71
0
42
1
3
ARIAL.TTF
4

0
ENDTAB
0
TABLE
2
VIEW
70
0
0
ENDTAB
0
ENDSEC
0
SECTION
2
BLOCKS
0
ENDSEC
0
SECTION
2
ENTITIES
0
POLYLINE
8
L4
66
1
70
1
0
VERTEX
8
L4
10
-1.066685907471921
20
0.5999999999999979
0
VERTEX
8
L4
10
-1.066685907471921
20
1.1000000000000096
0
VERTEX
8
L4
10
-1.4479615163037234
20
1.1000000000000096
0
VERTEX
8
L4
10
-1.4479615163037234
20
0.15000000000000613
0
VERTEX
8
L4
10
-1.4900000000000035
20
0.15000000000000613
0
VERTEX
8
L4
10
-1.4900000000000035
20
-0.049999999999994986
0
VERTEX
8
L4
10
-1.3679615163037213
20
-0.049999999999994986
0
VERTEX
8
L4
10
-1.3679615163037213
20
1.0200000000000087
0
VERTEX
8
L4
10
-1.1466859074719211
20
1.0200000000000087
0
VERTEX
8
L4
10
-1.1466859074719211
20
0.699999999999998
0
VERTEX
8
L4
10
-1.1666859074719211
20
0.699999999999998
0
VERTEX
8
L4
10
-1.1666859074719211
20
0.5999999999999979
0
VERTEX
8
L4
10
-1.066685907471921
20
0.5999999999999979
0
SEQEND
0
POLYLINE
8
L4
66
1
70
1
0
VERTEX
8
L4
10
0.82021405414533
20
0.6000000000000076
0
VERTEX
8
L4
10
0.82021405414533
20
0.7000000000000077
0
VERTEX
8
L4
10
0.80021405414533
20
0.7000000000000077
0
VERTEX
8
L4
10
0.80021405414533
20
1.0200000000000087
0
VERTEX
8
L4
10
0.9364896629771411
20
1.0200000000000087
0
VERTEX
8
L4
10
0.9364896629771411
20
0.4720670054747371
0
VERTEX
8
L4
10
0.8290545363033903
20
0.4720670054747371
0
VERTEX
8
L4
10
0.8290545363033903
20
-0.049999999999994986
0
VERTEX
8
L4
10
0.9290545363033913
20
-0.049999999999994986
0
VERTEX
8
L4
10
0.9290545363033913
20
0.392067005474737
0
VERTEX
8
L4
10
1.0164896629771412
20
0.392067005474737
0
VERTEX
8
L4
10
1.0164896629771412
20
1.1000000000000096
0
VERTEX
8
L4
10
0.7202140541453304
20
1.1000000000000096
0
VERTEX
8
L4
10
0.7202140541453304
20
0.6000000000000076
0
VERTEX
8
L4
10
0.82021405414533
20
0.6000000000000076
0
SEQEND
0
POLYLINE
8
L4
66
1
70
1
0
VERTEX
8
L4
10
-0.2827935485684008
20
-1.4500000000000084
0
VERTEX
8
L4
10
-0.6074447788335706
20
-1.4500000000000073
0
VERTEX
8
L4
10
-0.6074447788335706
20
-0.4600000000000062
0
VERTEX
8
L4
10
-0.5874447788335706
20
-0.4600000000000062
0
VERTEX
8
L4
10
-0.5874447788335706
20
-0.36000000000000587
0
VERTEX
8
L4
10
-0.6874447788335707
20
-0.36000000000000587
0
VERTEX
8
L4
10
-0.6874447788335707
20
-1.5300000000000045
0
VERTEX
8
L4
10
-0.20279354856840093
20
-1.5300000000000054
0
VERTEX
8
L4
10
-0.20279354856838983
20
-0.130000000000005
0
VERTEX
8
L4
10
-0.8290545363033308
20
-0.130000000000005
0
VERTEX
8
L4
10
-0.8290545363033308
20
0.04999999999999541
0
VERTEX
8
L4
10
-0.9290545363033309
20
0.04999999999999541
0
VERTEX
8
L4
10
-0.9290545363033309
20
-0.130000000000005
0
VERTEX
8
L4
10
-1.2821808663157312
20
-0.130000000000005
0
VERTEX
8
L4
10
-1.2821808663157312
20
-1.0999999999999983
0
VERTEX
8
L4
10
-0.8290545363033408
20
-1.0999999999999983
0
VERTEX
8
L4
10
-0.8290545363033308
20
-0.6000000000000068
0
VERTEX
8
L4
10
-0.9290545363033309
20
-0.6000000000000068
0
VERTEX
8
L4
10
-0.9290545363033309
20
-0.7000000000000071
0
VERTEX
8
L4
10
-0.9090545363033309
20
-0.7000000000000071
0
VERTEX
8
L4
10
-0.9090545363033409
20
-1.0199999999999982
0
VERTEX
8
L4
10
-1.2021808663157312
20
-1.0199999999999982
0
VERTEX
8
L4
10
-1.2021808663157312
20
-0.2100000000000053
0
VERTEX
8
L4
10
-0.2827935485684008
20
-0.2100000000000053
0
VERTEX
8
L4
10
-0.2827935485684008
20
-1.4500000000000084
0
SEQEND
0
POLYLINE
8
L4
66
1
70
1
0
VERTEX
8
L4
10
0.13710498153861006
20
0.6000000000000076
0
VERTEX
8
L4
10
0.13710498153861006
20
0.7000000000000077
0
VERTEX
8
L4
10
0.11710498153861004
20
0.7000000000000077
0
VERTEX
8
L4
10
0.11710498153861004
20
1.0200000000000087
0
VERTEX
8
L4
10
0.4233805903704102
20
1.0200000000000087
0
VERTEX
8
L4
10
0.4233805903704102
20
0.2720670054747365
0
VERTEX
8
L4
10
0.09594546369667012
20
0.2720670054747365
0
VERTEX
8
L4
10
0.09594546369667012
20
-0.049999999999994986
0
VERTEX
8
L4
10
0.1959454636966702
20
-0.049999999999994986
0
VERTEX
8
L4
10
0.1959454636966702
20
0.192067005474736
0
VERTEX
8
L4
10
0.50338059037041
20
0.192067005474736
0
VERTEX
8
L4
10
0.50338059037041
20
1.1000000000000096
0
VERTEX
8
L4
10
0.03710498153861019
20
1.1000000000000096
0
VERTEX
8
L4
10
0.03710498153861019
20
0.6000000000000076
0
VERTEX
8
L4
10
0.13710498153861006
20
0.6000000000000076
0
SEQEND
0
POLYLINE
8
L4
66
1
70
1
0
VERTEX
8
L4
10
-0.06780667982142985
20
0.5999999999999979
0
VERTEX
8
L4
10
-0.06780667982142985
20
1.1000000000000096
0
VERTEX
8
L4
10
-0.891489662977071
20
1.1000000000000096
0
VERTEX
8
L4
10
-0.891489662977081
20
0.192067005474736
0
VERTEX
8
L4
10
-0.4590545363033305
20
0.192067005474736
0
VERTEX
8
L4
10
-0.4590545363033305
20
-0.050000000000004687
0
VERTEX
8
L4
10
-0.35905453630333084
20
-0.050000000000004687
0
VERTEX
8
L4
10
-0.35905453630333084
20
0.2720670054747365
0
VERTEX
8
L4
10
-0.8114896629770809
20
0.2720670054747365
0
VERTEX
8
L4
10
-0.8114896629770709
20
1.0200000000000087
0
VERTEX
8
L4
10
-0.14780667982142992
20
1.0200000000000087
0
VERTEX
8
L4
10
-0.14780667982142992
20
0.699999999999998
0
VERTEX
8
L4
10
-0.16780667982143083
20
0.699999999999998
0
VERTEX
8
L4
10
-0.16780667982143083
20
0.5999999999999979
0
VERTEX
8
L4
10
-0.06780667982142985
20
0.5999999999999979
0
SEQEND
0
POLYLINE
8
L4
66
1
70
1
0
VERTEX
8
L4
10
0.8055815981199612
20
-0.7000000000000071
0
VERTEX
8
L4
10
0.8255815981199603
20
-0.7000000000000071
0
VERTEX
8
L4
10
0.8255815981199603
20
-1.0399999999999983
0
VERTEX
8
L4
10
0.5851137614423101
20
-1.0399999999999983
0
VERTEX
8
L4
10
0.5851137614423101
20
-0.2720670054747356
0
VERTEX
8
L4
10
0.6440545363033303
20
-0.2720670054747356
0
VERTEX
8
L4
10
0.6440545363033303
20
0.04999999999999541
0
VERTEX
8
L4
10
0.5440545363033302
20
0.05000000000000561
0
VERTEX
8
L4
10
0.5440545363033302
20
-0.1920670054747351
0
VERTEX
8
L4
10
-0.12396321098200991
20
-0.1920670054747351
0
VERTEX
8
L4
10
-0.12396321098200991
20
-1.2000000000000024
0
VERTEX
8
L4
10
0.25511376144231024
20
-1.2000000000000024
0
VERTEX
8
L4
10
0.25511376144231024
20
-0.42206700547473597
0
VERTEX
8
L4
10
0.15511376144231015
20
-0.42206700547473597
0
VERTEX
8
L4
10
0.15511376144231015
20
-0.5220670054747365
0
VERTEX
8
L4
10
0.17511376144231017
20
-0.5220670054747365
0
VERTEX
8
L4
10
0.17511376144231017
20
-1.1200000000000023
0
VERTEX
8
L4
10
-0.04396321098200984
20
-1.1200000000000023
0
VERTEX
8
L4
10
-0.04396321098200984
20
-0.2720670054747356
0
VERTEX
8
L4
10
0.5051137614423102
20
-0.2720670054747356
0
VERTEX
8
L4
10
0.5051137614423102
20
-1.1200000000000023
0
VERTEX
8
L4
10
0.9055815981199613
20
-1.1200000000000023
0
VERTEX
8
L4
10
0.9055815981199613
20
-0.6000000000000068
0
VERTEX
8
L4
10
0.8055815981199612
20
-0.6000000000000068
0
VERTEX
8
L4
10
0.8055815981199612
20
-0.7000000000000071
0
SEQEND
0
POLYLINE
8
L4
66
1
70
1
0
VERTEX
8
L4
10
1.116685907471921
20
-0.6999999999999971
0
VERTEX
8
L4
10
1.116685907471921
20
-0.5999999999999968
0
VERTEX
8
L4
10
1.0166859074719201
20
-0.5999999999999968
0
VERTEX
8
L4
10
1.0166859074719201
20
-1.0999999999999983
0
VERTEX
8
L4
10
1.447961516303721
20
-1.0999999999999983
0
VERTEX
8
L4
10
1.447961516303721
20
-0.1499999999999953
0
VERTEX
8
L4
10
1.490000000000001
20
-0.1499999999999953
0
VERTEX
8
L4
10
1.490000000000001
20
0.05000000000000561
0
VERTEX
8
L4
10
1.3679615163037213
20
0.05000000000000561
0
VERTEX
8
L4
10
1.3679615163037213
20
-1.0199999999999982
0
VERTEX
8
L4
10
1.0966859074719202
20
-1.0199999999999982
0
VERTEX
8
L4
10
1.0966859074719202
20
-0.6999999999999971
0
VERTEX
8
L4
10
1.116685907471921
20
-0.6999999999999971
0
SEQEND
0
POLYLINE
8
L4
66
1
70
1
0
VERTEX
8
L4
10
-2.399999999999582
20
-2.1000000000003625
0
VERTEX
8
L4
10
2.399999999999582
20
-2.1000000000003625
0
VERTEX
8
L4
10
2.399999999999582
20
2.1000000000003625
0
VERTEX
8
L4
10
-2.399999999999582
20
2.1000000000003625
0
VERTEX
8
L4
10
-2.399999999999582
20
-2.1000000000003625
0
SEQEND
0
TEXT
8
0
62
12
10
-0.5775000000000001
20
-3.4650000000000003
40
1.05
1
L4
0
POLYLINE
8
V7
66
1
70
1
0
VERTEX
8
V7
10
-0.9200000000000015
20
6.249999999999995
0
VERTEX
8
V7
10
-0.9080073513420717
20
6.221047184961234
0
VERTEX
8
V7
10
-0.8790545363033015
20
6.209054536303294
0
VERTEX
8
V7
10
-0.8501017212645414
20
6.221047184961234
0
VERTEX
8
V7
10
-0.8381090726066014
20
6.249999999999995
0
VERTEX
8
V7
10
-0.8501017212645414
20
6.278952815038765
0
VERTEX
8
V7
10
-0.8790545363033015
20
6.290945463696694
0
VERTEX
8
V7
10
-0.9080073513420717
20
6.278952815038765
0
VERTEX
8
V7
10
-0.9200000000000015
20
6.249999999999995
0
SEQEND
0
POLYLINE
8
V7
66
1
70
1
0
VERTEX
8
V7
10
-1.1557281395748322
20
6.903686893043619
0
VERTEX
8
V7
10
-1.1468999616171922
20
6.874999999999999
0
VERTEX
8
V7
10
-1.1203728005155122
20
6.860957767897059
0
VERTEX
8
V7
10
-1.091685907471892
20
6.8697859458547
0
VERTEX
8
V7
10
-1.077643675368942
20
6.896313106956389
0
VERTEX
8
V7
10
-1.086471853326592
20
6.924999999999999
0
VERTEX
8
V7
10
-1.1129990144282722
20
6.93904223210295
0
VERTEX
8
V7
10
-1.1416859074718921
20
6.930214054145309
0
VERTEX
8
V7
10
-1.1557281395748322
20
6.903686893043619
0
SEQEND
0
POLYLINE
8
V7
66
1
70
1
0
VERTEX
8
V7
10
-0.12149357286501994
20
6.860957767897059
0
VERTEX
8
V7
10
-0.09280667982139978
20
6.8697859458547
0
VERTEX
8
V7
10
-0.07876444771844993
20
6.896313106956389
0
VERTEX
8
V7
10
-0.08759262567609882
20
6.924999999999999
0
VERTEX
8
V7
10
-0.1141197867777799
20
6.93904223210295
0
VERTEX
8
V7
10
-0.14280667982139894
20
6.930214054145309
0
VERTEX
8
V7
10
-0.1568489119243397
20
6.903686893043619
0
VERTEX
8
V7
10
-0.1480207339666988
20
6.874999999999999
0
VERTEX
8
V7
10
-0.12149357286501994
20
6.860957767897059
0
SEQEND
0
POLYLINE
8
V7
66
1
70
1
0
VERTEX
8
V7
10
-0.8753676432596915
20
5.639042232102939
0
VERTEX
8
V7
10
-0.9040545363033017
20
5.630214054145299
0
VERTEX
8
V7
10
-0.9180967684062515
20
5.6036868930436095
0
VERTEX
8
V7
10
-0.9092685904486115
20
5.5749999999999895
0
VERTEX
8
V7
10
-0.8827414293469216
20
5.560957767897049
0
VERTEX
8
V7
10
-0.8540545363033014
20
5.56978594585469
0
VERTEX
8
V7
10
-0.8400123042003613
20
5.59631310695638
0
VERTEX
8
V7
10
-0.8488404821580013
20
5.624999999999989
0
VERTEX
8
V7
10
-0.8753676432596915
20
5.639042232102939
0
SEQEND
0
POLYLINE
8
V7
66
1
70
1
0
VERTEX
8
V7
10
0.20142686839872104
20
5.816975226628202
0
VERTEX
8
V7
10
0.17489970729703108
20
5.8029329945252615
0
VERTEX
8
V7
10
0.16607152933939107
20
5.774246101481641
0
VERTEX
8
V7
10
0.18011376144234115
20
5.7477189403799605
0
VERTEX
8
V7
10
0.2088006544859511
20
5.738890762422311
0
VERTEX
8
V7
10
0.23532781558764215
20
5.752932994525261
0
VERTEX
8
V7
10
0.24415599354528217
20
5.781619887568871
0
VERTEX
8
V7
10
0.2301137614423412
20
5.808147048670562
0
VERTEX
8
V7
10
0.20142686839872104
20
5.816975226628202
0
SEQEND
0
POLYLINE
8
V7
66
1
70
1
0
VERTEX
8
V7
10
-0.6337578857899209
20
5.879042232102941
0
VERTEX
8
V7
10
-0.6624447788335408
20
5.870214054145292
0
VERTEX
8
V7
10
-0.6764870109364809
20
5.843686893043611
0
VERTEX
8
V7
10
-0.6676588329788409
20
5.8149999999999915
0
VERTEX
8
V7
10
-0.6411316718771609
20
5.800957767897051
0
VERTEX
8
V7
10
-0.612444778833541
20
5.809785945854692
0
VERTEX
8
V7
10
-0.5984025467306007
20
5.836313106956382
0
VERTEX
8
V7
10
-0.6072307246882407
20
5.864999999999991
0
VERTEX
8
V7
10
-0.6337578857899209
20
5.879042232102941
0
SEQEND
0
POLYLINE
8
V7
66
1
70
1
0
VERTEX
8
V7
10
0.825367543974693
20
5.624999999999989
0
VERTEX
8
V7
10
0.816539366017053
20
5.59631310695638
0
VERTEX
8
V7
10
0.8305815981199931
20
5.56978594585469
0
VERTEX
8
V7
10
0.859268491163613
20
5.560957767897049
0
VERTEX
8
V7
10
0.885795652265303
20
5.5749999999999895
0
VERTEX
8
V7
10
0.894623830222943
20
5.6036868930436095
0
VERTEX
8
V7
10
0.8805815981199929
20
5.630214054145299
0
VERTEX
8
V7
10
0.8518947050763832
20
5.639042232102939
0
VERTEX
8
V7
10
0.825367543974693
20
5.624999999999989
0
SEQEND
0
POLYLINE
8
V7
66
1
70
1
0
VERTEX
8
V7
10
0.0480627494357011
20
6.896313106956389
0
VERTEX
8
V7
10
0.06210498153864119
20
6.8697859458547
0
VERTEX
8
V7
10
0.09079187458226112
20
6.860957767897059
0
VERTEX
8
V7
10
0.11731903568394109
20
6.875000000000009
0
VERTEX
8
V7
10
0.1261472136415811
20
6.903686893043619
0
VERTEX
8
V7
10
0.11210498153864101
20
6.930214054145309
0
VERTEX
8
V7
10
0.08341808849502108
20
6.93904223210295
0
VERTEX
8
V7
10
0.05689092739334112
20
6.925000000000009
0
VERTEX
8
V7
10
0.0480627494357011
20
6.896313106956389
0
SEQEND
0
POLYLINE
8
V7
66
1
70
1
0
VERTEX
8
V7
10
1.036471853326654
20
5.625
0
VERTEX
8
V7
10
1.0276436753690041
20
5.59631310695638
0
VERTEX
8
V7
10
1.0416859074719542
20
5.56978594585469
0
VERTEX
8
V7
10
1.0703728005155742
20
5.560957767897049
0
VERTEX
8
V7
10
1.096899961617254
20
5.574999999999999
0
VERTEX
8
V7
10
1.105728139574894
20
5.6036868930436095
0
VERTEX
8
V7
10
1.0916859074719532
20
5.630214054145299
0
VERTEX
8
V7
10
1.062999014428334
20
5.639042232102939
0
VERTEX
8
V7
10
1.036471853326654
20
5.625
0
SEQEND
0
POLYLINE
8
V7
66
1
70
1
0
VERTEX
8
V7
10
0.766527161101743
20
6.93904223210295
0
VERTEX
8
V7
10
0.740000000000063
20
6.925000000000009
0
VERTEX
8
V7
10
0.731171822042423
20
6.896313106956389
0
VERTEX
8
V7
10
0.7452140541453631
20
6.8697859458547
0
VERTEX
8
V7
10
0.7739009471889831
20
6.860957767897059
0
VERTEX
8
V7
10
0.800428108290663
20
6.875000000000009
0
VERTEX
8
V7
10
0.809256286248313
20
6.903686893043619
0
VERTEX
8
V7
10
0.7952140541453632
20
6.930214054145309
0
VERTEX
8
V7
10
0.766527161101743
20
6.93904223210295
0
SEQEND
0
POLYLINE
8
V7
66
1
70
1
0
VERTEX
8
V7
10
1.4469143313424842
20
6.278952815038765
0
VERTEX
8
V7
10
1.4179615163037251
20
6.290945463696694
0
VERTEX
8
V7
10
1.3890087012649541
20
6.278952815038765
0
VERTEX
8
V7
10
1.3770160526070252
20
6.249999999999995
0
VERTEX
8
V7
10
1.3890087012649652
20
6.221047184961234
0
VERTEX
8
V7
10
1.4179615163037251
20
6.209054536303294
0
VERTEX
8
V7
10
1.4469143313424842
20
6.221047184961234
0
VERTEX
8
V7
10
1.458906980000425
20
6.249999999999995
0
VERTEX
8
V7
10
1.4469143313424842
20
6.278952815038765
0
SEQEND
0
POLYLINE
8
V7
66
1
70
1
0
VERTEX
8
V7
10
0.8501017212645929
20
6.278952815038765
0
VERTEX
8
V7
10
0.8381090726066631
20
6.250000000000004
0
VERTEX
8
V7
10
0.8501017212645929
20
6.221047184961234
0
VERTEX
8
V7
10
0.879054536303363
20
6.209054536303294
0
VERTEX
8
V7
10
0.908007351342123
20
6.221047184961234
0
VERTEX
8
V7
10
0.920000000000063
20
6.250000000000004
0
VERTEX
8
V7
10
0.908007351342123
20
6.278952815038765
0
VERTEX
8
V7
10
0.879054536303363
20
6.290945463696705
0
VERTEX
8
V7
10
0.8501017212645929
20
6.278952815038765
0
SEQEND
0
POLYLINE
8
V7
66
1
70
1
0
VERTEX
8
V7
10
-1.446914331342485
20
6.221047184961234
0
VERTEX
8
V7
10
-1.417961516303725
20
6.209054536303294
0
VERTEX
8
V7
10
-1.389008701264963
20
6.221047184961234
0
VERTEX
8
V7
10
-1.377016052607023
20
6.249999999999995
0
VERTEX
8
V7
10
-1.389008701264953
20
6.278952815038765
0
VERTEX
8
V7
10
-1.417961516303725
20
6.290945463696694
0
VERTEX
8
V7
10
-1.446914331342485
20
6.278952815038765
0
VERTEX
8
V7
10
-1.458906980000425
20
6.249999999999995
0
VERTEX
8
V7
10
-1.446914331342485
20
6.221047184961234
0
SEQEND
0
POLYLINE
8
V7
66
1
70
1
0
VERTEX
8
V7
10
0.5531090726066621
20
6.250000000000004
0
VERTEX
8
V7
10
0.5651017212645921
20
6.221047184961234
0
VERTEX
8
V7
10
0.594054536303362
20
6.209054536303294
0
VERTEX
8
V7
10
0.6230073513421222
20
6.221047184961234
0
VERTEX
8
V7
10
0.6350000000000622
20
6.250000000000004
0
VERTEX
8
V7
10
0.6230073513421222
20
6.278952815038765
0
VERTEX
8
V7
10
0.594054536303362
20
6.290945463696705
0
VERTEX
8
V7
10
0.5651017212645921
20
6.278952815038765
0
VERTEX
8
V7
10
0.5531090726066621
20
6.250000000000004
0
SEQEND
0
POLYLINE
8
V7
66
1
70
1
0
VERTEX
8
V7
10
-0.43800735134207014
20
6.221047184961234
0
VERTEX
8
V7
10
-0.40905453630330024
20
6.209054536303294
0
VERTEX
8
V7
10
-0.38010172126454034
20
6.221047184961234
0
VERTEX
8
V7
10
-0.3681090726066003
20
6.249999999999995
0
VERTEX
8
V7
10
-0.38010172126454034
20
6.278952815038765
0
VERTEX
8
V7
10
-0.40905453630330024
20
6.290945463696694
0
VERTEX
8
V7
10
-0.43800735134207014
20
6.278952815038765
0
VERTEX
8
V7
10
-0.4500000000000004
20
6.249999999999995
0
VERTEX
8
V7
10
-0.43800735134207014
20
6.221047184961234
0
SEQEND
0
POLYLINE
8
V7
66
1
70
1
0
VERTEX
8
V7
10
0.17489827873546115
20
6.221047184961234
0
VERTEX
8
V7
10
0.18689092739340207
20
6.250000000000004
0
VERTEX
8
V7
10
0.17489827873546115
20
6.278952815038765
0
VERTEX
8
V7
10
0.14594546369670103
20
6.290945463696705
0
VERTEX
8
V7
10
0.11699264865793113
20
6.278952815038765
0
VERTEX
8
V7
10
0.10500000000000109
20
6.250000000000004
0
VERTEX
8
V7
10
0.11699264865793113
20
6.221047184961234
0
VERTEX
8
V7
10
0.14594546369670103
20
6.209054536303294
0
VERTEX
8
V7
10
0.17489827873546115
20
6.221047184961234
0
SEQEND
0
POLYLINE
8
V7
66
1
70
1
0
VERTEX
8
V7
10
-2.3999999999995856
20
4.149999999999629
0
VERTEX
8
V7
10
2.399999999999586
20
4.149999999999629
0
VERTEX
8
V7
10
2.399999999999586
20
8.35000000000037
0
VERTEX
8
V7
10
-2.3999999999995856
20
8.35000000000037
0
VERTEX
8
V7
10
-2.3999999999995856
20
4.149999999999629
0
SEQEND
0
TEXT
8
0
62
22
10
-0.5775000000000001
20
2.6
40
1.05
1
V7
0
POLYLINE
8
L3
66
1
70
1
0
VERTEX
8
L3
10
4.43203848369628
20
0.38206700547473615
0
VERTEX
8
L3
10
4.43203848369628
20
1.0200000000000073
0
VERTEX
8
L3
10
4.653314092528079
20
1.0200000000000073
0
VERTEX
8
L3
10
4.653314092528079
20
0.899999999999997
0
VERTEX
8
L3
10
4.63331409252808
20
0.899999999999997
0
VERTEX
8
L3
10
4.63331409252808
20
0.7999999999999972
0
VERTEX
8
L3
10
4.73331409252808
20
0.7999999999999972
0
VERTEX
8
L3
10
4.73331409252808
20
1.100000000000007
0
VERTEX
8
L3
10
4.352038483696278
20
1.100000000000007
0
VERTEX
8
L3
10
4.352038483696278
20
0.3020670054747352
0
VERTEX
8
L3
10
4.73331409252808
20
0.3020670054747352
0
VERTEX
8
L3
10
4.73331409252808
20
0.6999999999999971
0
VERTEX
8
L3
10
4.63331409252808
20
0.6999999999999971
0
VERTEX
8
L3
10
4.63331409252808
20
0.5999999999999961
0
VERTEX
8
L3
10
4.653314092528079
20
0.5999999999999961
0
VERTEX
8
L3
10
4.653314092528079
20
0.38206700547473615
0
VERTEX
8
L3
10
4.43203848369628
20
0.38206700547473615
0
SEQEND
0
POLYLINE
8
L3
66
1
70
1
0
VERTEX
8
L3
10
5.36199264865793
20
-0.02895281503876479
0
VERTEX
8
L3
10
5.3909454636967
20
-0.04094546369670482
0
VERTEX
8
L3
10
5.4198982787354595
20
-0.02895281503876479
0
VERTEX
8
L3
10
5.4318909273933995
20
-4.884981308350689e-15
0
VERTEX
8
L3
10
5.4198982787354595
20
0.028952815038765234
0
VERTEX
8
L3
10
5.3909454636967
20
0.04094546369669505
0
VERTEX
8
L3
10
5.36199264865793
20
0.028952815038765234
0
VERTEX
8
L3
10
5.3500000000000005
20
-4.884981308350689e-15
0
VERTEX
8
L3
10
5.36199264865793
20
-0.02895281503876479
0
SEQEND
0
POLYLINE
8
L3
66
1
70
1
0
VERTEX
8
L3
10
4.88
20
-4.884981308350689e-15
0
VERTEX
8
L3
10
4.89199264865793
20
-0.02895281503876479
0
VERTEX
8
L3
10
4.9209454636967
20
-0.04094546369670482
0
VERTEX
8
L3
10
4.94989827873546
20
-0.02895281503876479
0
VERTEX
8
L3
10
4.9618909273934
20
-4.884981308350689e-15
0
VERTEX
8
L3
10
4.94989827873546
20
0.028952815038765234
0
VERTEX
8
L3
10
4.9209454636967
20
0.04094546369669505
0
VERTEX
8
L3
10
4.89199264865793
20
0.028952815038765234
0
VERTEX
8
L3
10
4.88
20
-4.884981308350689e-15
0
SEQEND
0
POLYLINE
8
L3
66
1
70
1
0
VERTEX
8
L3
10
5.65219332017857
20
0.27206700547473517
0
VERTEX
8
L3
10
4.98851033702292
20
0.27206700547473517
0
VERTEX
8
L3
10
4.98851033702293
20
1.0200000000000073
0
VERTEX
8
L3
10
5.65219332017857
20
1.0200000000000073
0
VERTEX
8
L3
10
5.65219332017857
20
0.899999999999997
0
VERTEX
8
L3
10
5.63219332017857
20
0.899999999999997
0
VERTEX
8
L3
10
5.63219332017857
20
0.7999999999999972
0
VERTEX
8
L3
10
5.73219332017857
20
0.7999999999999972
0
VERTEX
8
L3
10
5.73219332017857
20
1.100000000000007
0
VERTEX
8
L3
10
4.90851033702293
20
1.100000000000007
0
VERTEX
8
L3
10
4.9085103370229195
20
0.1920670054747351
0
VERTEX
8
L3
10
5.73219332017857
20
0.1920670054747351
0
VERTEX
8
L3
10
5.73219332017857
20
0.6999999999999971
0
VERTEX
8
L3
10
5.63219332017857
20
0.6999999999999971
0
VERTEX
8
L3
10
5.63219332017857
20
0.5999999999999961
0
VERTEX
8
L3
10
5.65219332017857
20
0.5999999999999961
0
VERTEX
8
L3
10
5.65219332017857
20
0.27206700547473517
0
SEQEND
0
POLYLINE
8
L3
66
1
70
1
0
VERTEX
8
L3
10
5.11255522116643
20
-0.5600645558592567
0
VERTEX
8
L3
10
5.11255522116643
20
-1.5300000000000031
0
VERTEX
8
L3
10
5.5972064514316
20
-1.5300000000000042
0
VERTEX
8
L3
10
5.59720645143161
20
-0.13000000000000544
0
VERTEX
8
L3
10
5.11255522116643
20
-0.13000000000000544
0
VERTEX
8
L3
10
5.11255522116643
20
-0.4600000000000062
0
VERTEX
8
L3
10
5.21255522116643
20
-0.4600000000000062
0
VERTEX
8
L3
10
5.21255522116643
20
-0.3600000000000061
0
VERTEX
8
L3
10
5.1925552211664305
20
-0.3600000000000061
0
VERTEX
8
L3
10
5.1925552211664305
20
-0.21000000000000552
0
VERTEX
8
L3
10
5.5172064514315995
20
-0.21000000000000552
0
VERTEX
8
L3
10
5.5172064514315995
20
-1.450000000000008
0
VERTEX
8
L3
10
5.1925552211664305
20
-1.4500000000000068
0
VERTEX
8
L3
10
5.1925552211664305
20
-0.6600645558592568
0
VERTEX
8
L3
10
5.21255522116643
20
-0.6600645558592568
0
VERTEX
8
L3
10
5.21255522116643
20
-0.5600645558592567
0
VERTEX
8
L3
10
5.11255522116643
20
-0.5600645558592567
0
SEQEND
0
POLYLINE
8
L3
66
1
70
1
0
VERTEX
8
L3
10
6.8966859074719205
20
-0.5999999999999968
0
VERTEX
8
L3
10
6.8966859074719205
20
-0.2302971713247659
0
VERTEX
8
L3
10
7.167961516303722
20
-0.2302971713247659
0
VERTEX
8
L3
10
7.167961516303722
20
-1.0199999999999978
0
VERTEX
8
L3
10
6.8966859074719205
20
-1.0199999999999978
0
VERTEX
8
L3
10
6.8966859074719205
20
-0.8999999999999977
0
VERTEX
8
L3
10
6.916685907471921
20
-0.8999999999999977
0
VERTEX
8
L3
10
6.916685907471921
20
-0.7999999999999972
0
VERTEX
8
L3
10
6.81668590747192
20
-0.7999999999999972
0
VERTEX
8
L3
10
6.81668590747192
20
-1.099999999999998
0
VERTEX
8
L3
10
7.247961516303722
20
-1.099999999999998
0
VERTEX
8
L3
10
7.247961516303722
20
-0.1502971713247656
0
VERTEX
8
L3
10
6.81668590747192
20
-0.1502971713247656
0
VERTEX
8
L3
10
6.81668590747192
20
-0.6999999999999968
0
VERTEX
8
L3
10
6.916685907471921
20
-0.6999999999999968
0
VERTEX
8
L3
10
6.916685907471921
20
-0.5999999999999968
0
VERTEX
8
L3
10
6.8966859074719205
20
-0.5999999999999968
0
SEQEND
0
POLYLINE
8
L3
66
1
70
1
0
VERTEX
8
L3
10
4.87094546369667
20
-0.6000000000000068
0
VERTEX
8
L3
10
4.87094546369667
20
-0.7000000000000068
0
VERTEX
8
L3
10
4.97094546369667
20
-0.7000000000000068
0
VERTEX
8
L3
10
4.97094546369667
20
-0.3800000000000061
0
VERTEX
8
L3
10
4.51781913368427
20
-0.3800000000000061
0
VERTEX
8
L3
10
4.51781913368427
20
-1.099999999999998
0
VERTEX
8
L3
10
4.97094546369666
20
-1.099999999999998
0
VERTEX
8
L3
10
4.97094546369667
20
-0.8000000000000071
0
VERTEX
8
L3
10
4.87094546369667
20
-0.8000000000000071
0
VERTEX
8
L3
10
4.87094546369666
20
-0.9000000000000077
0
VERTEX
8
L3
10
4.89094546369666
20
-0.9000000000000077
0
VERTEX
8
L3
10
4.89094546369666
20
-1.0199999999999978
0
VERTEX
8
L3
10
4.597819133684269
20
-1.0199999999999978
0
VERTEX
8
L3
10
4.597819133684269
20
-0.4600000000000062
0
VERTEX
8
L3
10
4.89094546369667
20
-0.4600000000000062
0
VERTEX
8
L3
10
4.89094546369667
20
-0.6000000000000068
0
VERTEX
8
L3
10
4.87094546369667
20
-0.6000000000000068
0
SEQEND
0
POLYLINE
8
L3
66
1
70
1
0
VERTEX
8
L3
10
4.353085668657518
20
-0.02895281503876479
0
VERTEX
8
L3
10
4.382038483696277
20
-0.04094546369670482
0
VERTEX
8
L3
10
4.4109912987350395
20
-0.02895281503876479
0
VERTEX
8
L3
10
4.4229839473929795
20
-4.884981308350689e-15
0
VERTEX
8
L3
10
4.410991298735049
20
0.028952815038765234
0
VERTEX
8
L3
10
4.382038483696277
20
0.04094546369669505
0
VERTEX
8
L3
10
4.353085668657518
20
0.028952815038765234
0
VERTEX
8
L3
10
4.341093019999578
20
-4.884981308350689e-15
0
VERTEX
8
L3
10
4.353085668657518
20
-0.02895281503876479
0
SEQEND
0
POLYLINE
8
L3
66
1
70
1
0
VERTEX
8
L3
10
6.60021405414533
20
0.47206700547473623
0
VERTEX
8
L3
10
6.60021405414533
20
0.6000000000000061
0
VERTEX
8
L3
10
6.62021405414533
20
0.6000000000000061
0
VERTEX
8
L3
10
6.62021405414533
20
0.7000000000000071
0
VERTEX
8
L3
10
6.52021405414533
20
0.7000000000000071
0
VERTEX
8
L3
10
6.52021405414533
20
0.39206700547473616
0
VERTEX
8
L3
10
6.8164896629771405
20
0.39206700547473616
0
VERTEX
8
L3
10
6.8164896629771405
20
1.100000000000007
0
VERTEX
8
L3
10
6.52021405414533
20
1.100000000000007
0
VERTEX
8
L3
10
6.52021405414533
20
0.8000000000000071
0
VERTEX
8
L3
10
6.62021405414533
20
0.8000000000000071
0
VERTEX
8
L3
10
6.62021405414533
20
0.900000000000007
0
VERTEX
8
L3
10
6.60021405414533
20
0.900000000000007
0
VERTEX
8
L3
10
6.60021405414533
20
1.0200000000000073
0
VERTEX
8
L3
10
6.7364896629771405
20
1.0200000000000073
0
VERTEX
8
L3
10
6.7364896629771405
20
0.47206700547473623
0
VERTEX
8
L3
10
6.60021405414533
20
0.47206700547473623
0
SEQEND
0
POLYLINE
8
L3
66
1
70
1
0
VERTEX
8
L3
10
7.246914331342481
20
0.028952815038765234
0
VERTEX
8
L3
10
7.2179615163037205
20
0.04094546369669505
0
VERTEX
8
L3
10
7.189008701264951
20
0.028952815038765234
0
VERTEX
8
L3
10
7.177016052607021
20
-4.884981308350689e-15
0
VERTEX
8
L3
10
7.189008701264961
20
-0.02895281503876479
0
VERTEX
8
L3
10
7.2179615163037205
20
-0.04094546369670482
0
VERTEX
8
L3
10
7.246914331342481
20
-0.02895281503876479
0
VERTEX
8
L3
10
7.258906980000422
20
-4.884981308350689e-15
0
VERTEX
8
L3
10
7.246914331342481
20
0.028952815038765234
0
SEQEND
0
POLYLINE
8
L3
66
1
70
1
0
VERTEX
8
L3
10
5.9171049815386105
20
0.27206700547473517
0
VERTEX
8
L3
10
5.9171049815386105
20
0.6000000000000061
0
VERTEX
8
L3
10
5.93710498153861
20
0.6000000000000061
0
VERTEX
8
L3
10
5.93710498153861
20
0.7000000000000071
0
VERTEX
8
L3
10
5.8371049815386105
20
0.7000000000000071
0
VERTEX
8
L3
10
5.8371049815386105
20
0.1920670054747351
0
VERTEX
8
L3
10
6.30338059037041
20
0.1920670054747351
0
VERTEX
8
L3
10
6.30338059037041
20
1.100000000000007
0
VERTEX
8
L3
10
5.8371049815386105
20
1.100000000000007
0
VERTEX
8
L3
10
5.8371049815386105
20
0.8000000000000071
0
VERTEX
8
L3
10
5.93710498153861
20
0.8000000000000071
0
VERTEX
8
L3
10
5.93710498153861
20
0.900000000000007
0
VERTEX
8
L3
10
5.9171049815386105
20
0.900000000000007
0
VERTEX
8
L3
10
5.9171049815386105
20
1.0200000000000073
0
VERTEX
8
L3
10
6.22338059037041
20
1.0200000000000073
0
VERTEX
8
L3
10
6.22338059037041
20
0.27206700547473517
0
VERTEX
8
L3
10
5.9171049815386105
20
0.27206700547473517
0
SEQEND
0
POLYLINE
8
L3
66
1
70
1
0
VERTEX
8
L3
10
6.6501017212645905
20
0.028952815038765234
0
VERTEX
8
L3
10
6.63810907260666
20
5.10702591327572e-15
0
VERTEX
8
L3
10
6.6501017212645905
20
-0.02895281503876479
0
VERTEX
8
L3
10
6.6790545363033615
20
-0.04094546369670482
0
VERTEX
8
L3
10
6.70800735134212
20
-0.02895281503876479
0
VERTEX
8
L3
10
6.72000000000006
20
5.10702591327572e-15
0
VERTEX
8
L3
10
6.70800735134212
20
0.028952815038765234
0
VERTEX
8
L3
10
6.6790545363033615
20
0.04094546369670504
0
VERTEX
8
L3
10
6.6501017212645905
20
0.028952815038765234
0
SEQEND
0
POLYLINE
8
L3
66
1
70
1
0
VERTEX
8
L3
10
6.62558159811996
20
-0.27206700547473583
0
VERTEX
8
L3
10
6.62558159811996
20
-0.6000000000000068
0
VERTEX
8
L3
10
6.60558159811996
20
-0.6000000000000068
0
VERTEX
8
L3
10
6.60558159811996
20
-0.7000000000000068
0
VERTEX
8
L3
10
6.705581598119961
20
-0.7000000000000068
0
VERTEX
8
L3
10
6.705581598119961
20
-0.19206700547473554
0
VERTEX
8
L3
10
6.3051137614423105
20
-0.19206700547473554
0
VERTEX
8
L3
10
6.3051137614423105
20
-1.1200000000000019
0
VERTEX
8
L3
10
6.705581598119961
20
-1.1200000000000019
0
VERTEX
8
L3
10
6.705581598119961
20
-0.8000000000000071
0
VERTEX
8
L3
10
6.60558159811996
20
-0.8000000000000071
0
VERTEX
8
L3
10
6.60558159811996
20
-0.8999999999999977
0
VERTEX
8
L3
10
6.62558159811996
20
-0.8999999999999977
0
VERTEX
8
L3
10
6.62558159811996
20
-1.0399999999999978
0
VERTEX
8
L3
10
6.385113761442311
20
-1.0399999999999978
0
VERTEX
8
L3
10
6.385113761442311
20
-0.27206700547473583
0
VERTEX
8
L3
10
6.62558159811996
20
-0.27206700547473583
0
SEQEND
0
POLYLINE
8
L3
66
1
70
1
0
VERTEX
8
L3
10
6.35310907260666
20
5.10702591327572e-15
0
VERTEX
8
L3
10
6.36510172126459
20
-0.02895281503876479
0
VERTEX
8
L3
10
6.39405453630336
20
-0.04094546369670482
0
VERTEX
8
L3
10
6.42300735134212
20
-0.02895281503876479
0
VERTEX
8
L3
10
6.43500000000006
20
5.10702591327572e-15
0
VERTEX
8
L3
10
6.42300735134212
20
0.028952815038765234
0
VERTEX
8
L3
10
6.39405453630336
20
0.04094546369670504
0
VERTEX
8
L3
10
6.36510172126459
20
0.028952815038765234
0
VERTEX
8
L3
10
6.35310907260666
20
5.10702591327572e-15
0
SEQEND
0
POLYLINE
8
L3
66
1
70
1
0
VERTEX
8
L3
10
5.955113761442311
20
-0.6220670054747366
0
VERTEX
8
L3
10
5.955113761442311
20
-0.7220670054747369
0
VERTEX
8
L3
10
5.97511376144231
20
-0.7220670054747369
0
VERTEX
8
L3
10
5.97511376144231
20
-1.1200000000000019
0
VERTEX
8
L3
10
5.75603678901799
20
-1.1200000000000019
0
VERTEX
8
L3
10
5.75603678901799
20
-0.3720670054747359
0
VERTEX
8
L3
10
5.97511376144231
20
-0.3720670054747359
0
VERTEX
8
L3
10
5.97511376144231
20
-0.4220670054747362
0
VERTEX
8
L3
10
5.955113761442311
20
-0.4220670054747362
0
VERTEX
8
L3
10
5.955113761442311
20
-0.5220670054747365
0
VERTEX
8
L3
10
6.0551137614423105
20
-0.5220670054747365
0
VERTEX
8
L3
10
6.0551137614423105
20
-0.29206700547473585
0
VERTEX
8
L3
10
5.67603678901799
20
-0.29206700547473585
0
VERTEX
8
L3
10
5.67603678901799
20
-1.2000000000000022
0
VERTEX
8
L3
10
6.0551137614423105
20
-1.2000000000000022
0
VERTEX
8
L3
10
6.0551137614423105
20
-0.6220670054747366
0
VERTEX
8
L3
10
5.955113761442311
20
-0.6220670054747366
0
SEQEND
0
POLYLINE
8
L3
66
1
70
1
0
VERTEX
8
L3
10
5.97489827873546
20
-0.02895281503876479
0
VERTEX
8
L3
10
5.9868909273934
20
5.10702591327572e-15
0
VERTEX
8
L3
10
5.97489827873546
20
0.028952815038765234
0
VERTEX
8
L3
10
5.945945463696701
20
0.04094546369670504
0
VERTEX
8
L3
10
5.9169926486579305
20
0.028952815038765234
0
VERTEX
8
L3
10
5.905
20
5.10702591327572e-15
0
VERTEX
8
L3
10
5.9169926486579305
20
-0.02895281503876479
0
VERTEX
8
L3
10
5.945945463696701
20
-0.04094546369670482
0
VERTEX
8
L3
10
5.97489827873546
20
-0.02895281503876479
0
SEQEND
0
POLYLINE
8
L3
66
1
70
1
0
VERTEX
8
L3
10
3.400000000000419
20
-2.100000000000361
0
VERTEX
8
L3
10
8.19999999999958
20
-2.100000000000361
0
VERTEX
8
L3
10
8.19999999999958
20
2.100000000000361
0
VERTEX
8
L3
10
3.400000000000419
20
2.100000000000361
0
VERTEX
8
L3
10
3.400000000000419
20
-2.100000000000361
0
SEQEND
0
TEXT
8
0
62
32
10
5.2225
20
-3.4650000000000003
40
1.05
1
L3
0
POLYLINE
8
V6
66
1
70
1
0
VERTEX
8
V6
10
4.879999999999999
20
6.249999999999995
0
VERTEX
8
V6
10
4.891992648657928
20
6.221047184961234
0
VERTEX
8
V6
10
4.9209454636966985
20
6.209054536303294
0
VERTEX
8
V6
10
4.949898278735459
20
6.221047184961234
0
VERTEX
8
V6
10
4.961890927393399
20
6.249999999999995
0
VERTEX
8
V6
10
4.949898278735459
20
6.278952815038765
0
VERTEX
8
V6
10
4.9209454636966985
20
6.290945463696694
0
VERTEX
8
V6
10
4.891992648657928
20
6.278952815038765
0
VERTEX
8
V6
10
4.879999999999999
20
6.249999999999995
0
SEQEND
0
POLYLINE
8
V6
66
1
70
1
0
VERTEX
8
V6
10
4.713528146673409
20
7.125000000000001
0
VERTEX
8
V6
10
4.6870009855717285
20
7.139042232102951
0
VERTEX
8
V6
10
4.658314092528109
20
7.130214054145311
0
VERTEX
8
V6
10
4.644271860425168
20
7.103686893043621
0
VERTEX
8
V6
10
4.653100038382808
20
7.075
0
VERTEX
8
V6
10
4.679627199484498
20
7.06095776789706
0
VERTEX
8
V6
10
4.708314092528108
20
7.0697859458547
0
VERTEX
8
V6
10
4.7223563246310585
20
7.096313106956391
0
VERTEX
8
V6
10
4.713528146673409
20
7.125000000000001
0
SEQEND
0
POLYLINE
8
V6
66
1
70
1
0
VERTEX
8
V6
10
5.7071933201786
20
7.0697859458547
0
VERTEX
8
V6
10
5.72123555228155
20
7.096313106956391
0
VERTEX
8
V6
10
5.712407374323901
20
7.125000000000001
0
VERTEX
8
V6
10
5.68588021322222
20
7.139042232102951
0
VERTEX
8
V6
10
5.657193320178601
20
7.130214054145301
0
VERTEX
8
V6
10
5.64315108807566
20
7.103686893043621
0
VERTEX
8
V6
10
5.651979266033301
20
7.075
0
VERTEX
8
V6
10
5.67850642713498
20
7.06095776789706
0
VERTEX
8
V6
10
5.7071933201786
20
7.0697859458547
0
SEQEND
0
POLYLINE
8
V6
66
1
70
1
0
VERTEX
8
V6
10
4.895945463696698
20
5.430214054145299
0
VERTEX
8
V6
10
4.881903231593749
20
5.4036868930436075
0
VERTEX
8
V6
10
4.890731409551389
20
5.374999999999988
0
VERTEX
8
V6
10
4.917258570653079
20
5.360957767897048
0
VERTEX
8
V6
10
4.945945463696689
20
5.369785945854688
0
VERTEX
8
V6
10
4.959987695799639
20
5.396313106956378
0
VERTEX
8
V6
10
4.951159517841999
20
5.424999999999989
0
VERTEX
8
V6
10
4.924632356740309
20
5.439042232102938
0
VERTEX
8
V6
10
4.895945463696698
20
5.430214054145299
0
SEQEND
0
POLYLINE
8
V6
66
1
70
1
0
VERTEX
8
V6
10
6.008800654485952
20
5.538890762422309
0
VERTEX
8
V6
10
6.035327815587642
20
5.55293299452526
0
VERTEX
8
V6
10
6.044155993545282
20
5.58161988756887
0
VERTEX
8
V6
10
6.030113761442341
20
5.60814704867056
0
VERTEX
8
V6
10
6.001426868398721
20
5.6169752266282
0
VERTEX
8
V6
10
5.974899707297031
20
5.6029329945252595
0
VERTEX
8
V6
10
5.966071529339391
20
5.57424610148164
0
VERTEX
8
V6
10
5.980113761442341
20
5.54771894037996
0
VERTEX
8
V6
10
6.008800654485952
20
5.538890762422309
0
SEQEND
0
POLYLINE
8
V6
66
1
70
1
0
VERTEX
8
V6
10
5.123512989063519
20
5.64362233718435
0
VERTEX
8
V6
10
5.13234116702116
20
5.61493544414074
0
VERTEX
8
V6
10
5.158868328122839
20
5.60089321203779
0
VERTEX
8
V6
10
5.187555221166459
20
5.60972138999544
0
VERTEX
8
V6
10
5.201597453269399
20
5.63624855109712
0
VERTEX
8
V6
10
5.192769275311759
20
5.66493544414074
0
VERTEX
8
V6
10
5.166242114210079
20
5.678977676243679
0
VERTEX
8
V6
10
5.137555221166459
20
5.67014949828604
0
VERTEX
8
V6
10
5.123512989063519
20
5.64362233718435
0
SEQEND
0
POLYLINE
8
V6
66
1
70
1
0
VERTEX
8
V6
10
6.659268491163614
20
5.360957767897048
0
VERTEX
8
V6
10
6.685795652265304
20
5.374999999999988
0
VERTEX
8
V6
10
6.694623830222943
20
5.4036868930436075
0
VERTEX
8
V6
10
6.680581598119993
20
5.430214054145299
0
VERTEX
8
V6
10
6.6518947050763835
20
5.439042232102938
0
VERTEX
8
V6
10
6.6253675439746935
20
5.424999999999989
0
VERTEX
8
V6
10
6.6165393660170535
20
5.396313106956378
0
VERTEX
8
V6
10
6.630581598119994
20
5.369785945854688
0
VERTEX
8
V6
10
6.659268491163614
20
5.360957767897048
0
SEQEND
0
POLYLINE
8
V6
66
1
70
1
0
VERTEX
8
V6
10
5.926147213641581
20
7.103686893043621
0
VERTEX
8
V6
10
5.912104981538642
20
7.130214054145311
0
VERTEX
8
V6
10
5.883418088495022
20
7.139042232102951
0
VERTEX
8
V6
10
5.856890927393342
20
7.125000000000011
0
VERTEX
8
V6
10
5.848062749435702
20
7.096313106956391
0
VERTEX
8
V6
10
5.862104981538641
20
7.0697859458547
0
VERTEX
8
V6
10
5.890791874582261
20
7.06095776789706
0
VERTEX
8
V6
10
5.917319035683941
20
7.07500000000001
0
VERTEX
8
V6
10
5.926147213641581
20
7.103686893043621
0
SEQEND
0
POLYLINE
8
V6
66
1
70
1
0
VERTEX
8
V6
10
6.836471853326654
20
5.424999999999999
0
VERTEX
8
V6
10
6.827643675369004
20
5.396313106956378
0
VERTEX
8
V6
10
6.8416859074719545
20
5.369785945854688
0
VERTEX
8
V6
10
6.870372800515574
20
5.360957767897048
0
VERTEX
8
V6
10
6.896899961617255
20
5.374999999999998
0
VERTEX
8
V6
10
6.905728139574894
20
5.4036868930436075
0
VERTEX
8
V6
10
6.891685907471953
20
5.430214054145299
0
VERTEX
8
V6
10
6.862999014428334
20
5.439042232102938
0
VERTEX
8
V6
10
6.836471853326654
20
5.424999999999999
0
SEQEND
0
POLYLINE
8
V6
66
1
70
1
0
VERTEX
8
V6
10
6.6004281082906635
20
7.07500000000001
0
VERTEX
8
V6
10
6.609256286248313
20
7.103686893043621
0
VERTEX
8
V6
10
6.595214054145363
20
7.130214054145311
0
VERTEX
8
V6
10
6.566527161101743
20
7.139042232102951
0
VERTEX
8
V6
10
6.540000000000063
20
7.125000000000011
0
VERTEX
8
V6
10
6.531171822042423
20
7.096313106956391
0
VERTEX
8
V6
10
6.545214054145363
20
7.0697859458547
0
VERTEX
8
V6
10
6.573900947188983
20
7.06095776789706
0
VERTEX
8
V6
10
6.6004281082906635
20
7.07500000000001
0
SEQEND
0
POLYLINE
8
V6
66
1
70
1
0
VERTEX
8
V6
10
7.246914331342484
20
6.278952815038765
0
VERTEX
8
V6
10
7.217961516303726
20
6.290945463696694
0
VERTEX
8
V6
10
7.189008701264955
20
6.278952815038765
0
VERTEX
8
V6
10
7.1770160526070255
20
6.249999999999995
0
VERTEX
8
V6
10
7.1890087012649655
20
6.221047184961234
0
VERTEX
8
V6
10
7.217961516303726
20
6.209054536303294
0
VERTEX
8
V6
10
7.246914331342484
20
6.221047184961234
0
VERTEX
8
V6
10
7.258906980000425
20
6.249999999999995
0
VERTEX
8
V6
10
7.246914331342484
20
6.278952815038765
0
SEQEND
0
POLYLINE
8
V6
66
1
70
1
0
VERTEX
8
V6
10
6.650101721264593
20
6.278952815038765
0
VERTEX
8
V6
10
6.638109072606664
20
6.250000000000004
0
VERTEX
8
V6
10
6.650101721264593
20
6.221047184961234
0
VERTEX
8
V6
10
6.679054536303363
20
6.209054536303294
0
VERTEX
8
V6
10
6.708007351342124
20
6.221047184961234
0
VERTEX
8
V6
10
6.720000000000063
20
6.250000000000004
0
VERTEX
8
V6
10
6.708007351342124
20
6.278952815038765
0
VERTEX
8
V6
10
6.679054536303363
20
6.290945463696705
0
VERTEX
8
V6
10
6.650101721264593
20
6.278952815038765
0
SEQEND
0
POLYLINE
8
V6
66
1
70
1
0
VERTEX
8
V6
10
4.353085668657515
20
6.221047184961234
0
VERTEX
8
V6
10
4.382038483696276
20
6.209054536303294
0
VERTEX
8
V6
10
4.410991298735038
20
6.221047184961234
0
VERTEX
8
V6
10
4.422983947392977
20
6.249999999999995
0
VERTEX
8
V6
10
4.4109912987350475
20
6.278952815038765
0
VERTEX
8
V6
10
4.382038483696276
20
6.290945463696694
0
VERTEX
8
V6
10
4.353085668657515
20
6.278952815038765
0
VERTEX
8
V6
10
4.341093019999575
20
6.249999999999995
0
VERTEX
8
V6
10
4.353085668657515
20
6.221047184961234
0
SEQEND
0
POLYLINE
8
V6
66
1
70
1
0
VERTEX
8
V6
10
6.353109072606662
20
6.250000000000004
0
VERTEX
8
V6
10
6.365101721264592
20
6.221047184961234
0
VERTEX
8
V6
10
6.394054536303362
20
6.209054536303294
0
VERTEX
8
V6
10
6.423007351342123
20
6.221047184961234
0
VERTEX
8
V6
10
6.435000000000063
20
6.250000000000004
0
VERTEX
8
V6
10
6.423007351342123
20
6.278952815038765
0
VERTEX
8
V6
10
6.394054536303362
20
6.290945463696705
0
VERTEX
8
V6
10
6.365101721264592
20
6.278952815038765
0
VERTEX
8
V6
10
6.353109072606662
20
6.250000000000004
0
SEQEND
0
POLYLINE
8
V6
66
1
70
1
0
VERTEX
8
V6
10
5.36199264865793
20
6.221047184961234
0
VERTEX
8
V6
10
5.3909454636967
20
6.209054536303294
0
VERTEX
8
V6
10
5.4198982787354595
20
6.221047184961234
0
VERTEX
8
V6
10
5.4318909273934
20
6.249999999999995
0
VERTEX
8
V6
10
5.4198982787354595
20
6.278952815038765
0
VERTEX
8
V6
10
5.3909454636967
20
6.290945463696694
0
VERTEX
8
V6
10
5.36199264865793
20
6.278952815038765
0
VERTEX
8
V6
10
5.35
20
6.249999999999995
0
VERTEX
8
V6
10
5.36199264865793
20
6.221047184961234
0
SEQEND
0
POLYLINE
8
V6
66
1
70
1
0
VERTEX
8
V6
10
5.974898278735461
20
6.221047184961234
0
VERTEX
8
V6
10
5.986890927393402
20
6.250000000000004
0
VERTEX
8
V6
10
5.974898278735461
20
6.278952815038765
0
VERTEX
8
V6
10
5.9459454636967015
20
6.290945463696705
0
VERTEX
8
V6
10
5.916992648657931
20
6.278952815038765
0
VERTEX
8
V6
10
5.905000000000001
20
6.250000000000004
0
VERTEX
8
V6
10
5.916992648657931
20
6.221047184961234
0
VERTEX
8
V6
10
5.9459454636967015
20
6.209054536303294
0
VERTEX
8
V6
10
5.974898278735461
20
6.221047184961234
0
SEQEND
0
POLYLINE
8
V6
66
1
70
1
0
VERTEX
8
V6
10
3.4000000000004142
20
4.14999999999963
0
VERTEX
8
V6
10
8.199999999999587
20
4.14999999999963
0
VERTEX
8
V6
10
8.199999999999587
20
8.35000000000037
0
VERTEX
8
V6
10
3.4000000000004142
20
8.35000000000037
0
VERTEX
8
V6
10
3.4000000000004142
20
4.14999999999963
0
SEQEND
0
TEXT
8
0
62
42
10
5.2225
20
2.6
40
1.05
1
V6
0
POLYLINE
8
L2
66
1
70
1
0
VERTEX
8
L2
10
10.45331409252808
20
0.3820670054747355
0
VERTEX
8
L2
10
10.23203848369628
20
0.3820670054747355
0
VERTEX
8
L2
10
10.23203848369628
20
1.0200000000000076
0
VERTEX
8
L2
10
10.34503944814101
20
1.0200000000000076
0
VERTEX
8
L2
10
10.34503944814101
20
0.9999999999999987
0
VERTEX
8
L2
10
10.44503944814101
20
0.9999999999999987
0
VERTEX
8
L2
10
10.44503944814101
20
1.1000000000000076
0
VERTEX
8
L2
10
10.152038483696279
20
1.1000000000000076
0
VERTEX
8
L2
10
10.152038483696279
20
0.3020670054747354
0
VERTEX
8
L2
10
10.53331409252808
20
0.3020670054747354
0
VERTEX
8
L2
10
10.53331409252808
20
0.8999999999999975
0
VERTEX
8
L2
10
10.43331409252808
20
0.8999999999999975
0
VERTEX
8
L2
10
10.43331409252808
20
0.7999999999999965
0
VERTEX
8
L2
10
10.45331409252808
20
0.7999999999999965
0
VERTEX
8
L2
10
10.45331409252808
20
0.3820670054747355
0
SEQEND
0
POLYLINE
8
L2
66
1
70
1
0
VERTEX
8
L2
10
12.704960551858992
20
-1.0999999999999988
0
VERTEX
8
L2
10
13.047961516303722
20
-1.0999999999999988
0
VERTEX
8
L2
10
13.047961516303722
20
-0.15029717132476583
0
VERTEX
8
L2
10
12.61668590747192
20
-0.15029717132476583
0
VERTEX
8
L2
10
12.61668590747192
20
-0.8999999999999981
0
VERTEX
8
L2
10
12.716685907471922
20
-0.8999999999999981
0
VERTEX
8
L2
10
12.716685907471922
20
-0.7999999999999978
0
VERTEX
8
L2
10
12.69668590747192
20
-0.7999999999999978
0
VERTEX
8
L2
10
12.69668590747192
20
-0.23029717132476613
0
VERTEX
8
L2
10
12.967961516303722
20
-0.23029717132476613
0
VERTEX
8
L2
10
12.967961516303722
20
-1.0199999999999985
0
VERTEX
8
L2
10
12.804960551858992
20
-1.0199999999999985
0
VERTEX
8
L2
10
12.804960551858992
20
-0.9999999999999984
0
VERTEX
8
L2
10
12.704960551858992
20
-0.9999999999999984
0
VERTEX
8
L2
10
12.704960551858992
20
-1.0999999999999988
0
SEQEND
0
POLYLINE
8
L2
66
1
70
1
0
VERTEX
8
L2
10
10.153085668657518
20
-0.028952815038765456
0
VERTEX
8
L2
10
10.182038483696278
20
-0.040945463696705486
0
VERTEX
8
L2
10
10.21099129873504
20
-0.028952815038765456
0
VERTEX
8
L2
10
10.222983947392981
20
-5.551115123125783e-15
0
VERTEX
8
L2
10
10.21099129873505
20
0.028952815038765456
0
VERTEX
8
L2
10
10.182038483696278
20
0.040945463696694384
0
VERTEX
8
L2
10
10.153085668657518
20
0.028952815038765456
0
VERTEX
8
L2
10
10.141093019999579
20
-5.551115123125783e-15
0
VERTEX
8
L2
10
10.153085668657518
20
-0.028952815038765456
0
SEQEND
0
POLYLINE
8
L2
66
1
70
1
0
VERTEX
8
L2
10
10.70851033702292
20
0.19206700547473554
0
VERTEX
8
L2
10
11.532193320178571
20
0.19206700547473554
0
VERTEX
8
L2
10
11.532193320178571
20
0.8999999999999975
0
VERTEX
8
L2
10
11.432193320178571
20
0.8999999999999975
0
VERTEX
8
L2
10
11.432193320178571
20
0.7999999999999965
0
VERTEX
8
L2
10
11.452193320178571
20
0.7999999999999965
0
VERTEX
8
L2
10
11.452193320178571
20
0.2720670054747354
0
VERTEX
8
L2
10
10.78851033702292
20
0.2720670054747354
0
VERTEX
8
L2
10
10.788510337022931
20
1.0200000000000076
0
VERTEX
8
L2
10
11.1639186757915
20
1.0200000000000076
0
VERTEX
8
L2
10
11.1639186757915
20
0.9999999999999987
0
VERTEX
8
L2
10
11.263918675791501
20
0.9999999999999987
0
VERTEX
8
L2
10
11.263918675791501
20
1.1000000000000076
0
VERTEX
8
L2
10
10.70851033702293
20
1.1000000000000076
0
VERTEX
8
L2
10
10.70851033702292
20
0.19206700547473554
0
SEQEND
0
POLYLINE
8
L2
66
1
70
1
0
VERTEX
8
L2
10
13.046914331342482
20
0.028952815038765456
0
VERTEX
8
L2
10
13.017961516303721
20
0.040945463696694384
0
VERTEX
8
L2
10
12.989008701264952
20
0.028952815038765456
0
VERTEX
8
L2
10
12.977016052607022
20
-5.551115123125783e-15
0
VERTEX
8
L2
10
12.98900870126496
20
-0.028952815038765456
0
VERTEX
8
L2
10
13.017961516303721
20
-0.040945463696705486
0
VERTEX
8
L2
10
13.046914331342482
20
-0.028952815038765456
0
VERTEX
8
L2
10
13.058906980000422
20
-5.551115123125783e-15
0
VERTEX
8
L2
10
13.046914331342482
20
0.028952815038765456
0
SEQEND
0
POLYLINE
8
L2
66
1
70
1
0
VERTEX
8
L2
10
10.77094546369666
20
-0.9000000000000081
0
VERTEX
8
L2
10
10.770945463696671
20
-0.38000000000000655
0
VERTEX
8
L2
10
10.31781913368427
20
-0.38000000000000655
0
VERTEX
8
L2
10
10.31781913368427
20
-1.0999999999999988
0
VERTEX
8
L2
10
10.723371306145701
20
-1.0999999999999988
0
VERTEX
8
L2
10
10.723371306145701
20
-0.9999999999999984
0
VERTEX
8
L2
10
10.6233713061457
20
-0.9999999999999984
0
VERTEX
8
L2
10
10.6233713061457
20
-1.0199999999999985
0
VERTEX
8
L2
10
10.397819133684271
20
-1.0199999999999985
0
VERTEX
8
L2
10
10.397819133684271
20
-0.4600000000000066
0
VERTEX
8
L2
10
10.690945463696671
20
-0.4600000000000066
0
VERTEX
8
L2
10
10.690945463696671
20
-0.8000000000000078
0
VERTEX
8
L2
10
10.67094546369667
20
-0.8000000000000078
0
VERTEX
8
L2
10
10.670945463696661
20
-0.9000000000000081
0
VERTEX
8
L2
10
10.77094546369666
20
-0.9000000000000081
0
SEQEND
0
POLYLINE
8
L2
66
1
70
1
0
VERTEX
8
L2
10
12.42905453630332
20
-0.049999999999995604
0
VERTEX
8
L2
10
12.529054536303331
20
-0.049999999999995604
0
VERTEX
8
L2
10
12.529054536303331
20
0.050000000000004485
0
VERTEX
8
L2
10
12.42905453630332
20
0.050000000000004485
0
VERTEX
8
L2
10
12.42905453630332
20
-0.049999999999995604
0
SEQEND
0
POLYLINE
8
L2
66
1
70
1
0
VERTEX
8
L2
10
12.616489662977141
20
1.1000000000000076
0
VERTEX
8
L2
10
12.40848869853241
20
1.1000000000000076
0
VERTEX
8
L2
10
12.40848869853241
20
1.0000000000000084
0
VERTEX
8
L2
10
12.50848869853241
20
1.0000000000000084
0
VERTEX
8
L2
10
12.50848869853241
20
1.0200000000000076
0
VERTEX
8
L2
10
12.536489662977141
20
1.0200000000000076
0
VERTEX
8
L2
10
12.536489662977141
20
0.47206700547473646
0
VERTEX
8
L2
10
12.40021405414533
20
0.47206700547473646
0
VERTEX
8
L2
10
12.40021405414533
20
0.8000000000000074
0
VERTEX
8
L2
10
12.420214054145331
20
0.8000000000000074
0
VERTEX
8
L2
10
12.420214054145331
20
0.9000000000000075
0
VERTEX
8
L2
10
12.320214054145332
20
0.9000000000000075
0
VERTEX
8
L2
10
12.320214054145332
20
0.3920670054747355
0
VERTEX
8
L2
10
12.616489662977141
20
0.3920670054747355
0
VERTEX
8
L2
10
12.616489662977141
20
1.1000000000000076
0
SEQEND
0
POLYLINE
8
L2
66
1
70
1
0
VERTEX
8
L2
10
12.14405453630332
20
0.050000000000004485
0
VERTEX
8
L2
10
12.14405453630332
20
-0.049999999999995604
0
VERTEX
8
L2
10
12.24405453630333
20
-0.049999999999995604
0
VERTEX
8
L2
10
12.24405453630333
20
0.050000000000004485
0
VERTEX
8
L2
10
12.14405453630332
20
0.050000000000004485
0
SEQEND
0
POLYLINE
8
L2
66
1
70
1
0
VERTEX
8
L2
10
12.10338059037041
20
1.1000000000000076
0
VERTEX
8
L2
10
11.72537962592569
20
1.1000000000000076
0
VERTEX
8
L2
10
11.72537962592569
20
1.0000000000000084
0
VERTEX
8
L2
10
11.825379625925692
20
1.0000000000000084
0
VERTEX
8
L2
10
11.825379625925692
20
1.0200000000000076
0
VERTEX
8
L2
10
12.023380590370412
20
1.0200000000000076
0
VERTEX
8
L2
10
12.023380590370412
20
0.2720670054747354
0
VERTEX
8
L2
10
11.717104981538611
20
0.2720670054747354
0
VERTEX
8
L2
10
11.717104981538611
20
0.8000000000000074
0
VERTEX
8
L2
10
11.73710498153861
20
0.8000000000000074
0
VERTEX
8
L2
10
11.73710498153861
20
0.9000000000000075
0
VERTEX
8
L2
10
11.637104981538611
20
0.9000000000000075
0
VERTEX
8
L2
10
11.637104981538611
20
0.19206700547473554
0
VERTEX
8
L2
10
12.10338059037041
20
0.19206700547473554
0
VERTEX
8
L2
10
12.10338059037041
20
1.1000000000000076
0
SEQEND
0
POLYLINE
8
L2
66
1
70
1
0
VERTEX
8
L2
10
11.79594546369667
20
0.050000000000004485
0
VERTEX
8
L2
10
11.695945463696662
20
0.050000000000004485
0
VERTEX
8
L2
10
11.695945463696662
20
-0.049999999999995604
0
VERTEX
8
L2
10
11.79594546369667
20
-0.049999999999995604
0
VERTEX
8
L2
10
11.79594546369667
20
0.050000000000004485
0
SEQEND
0
POLYLINE
8
L2
66
1
70
1
0
VERTEX
8
L2
10
11.755113761442312
20
-1.1200000000000028
0
VERTEX
8
L2
10
11.556036789017991
20
-1.1200000000000028
0
VERTEX
8
L2
10
11.556036789017991
20
-0.37206700547473637
0
VERTEX
8
L2
10
11.775113761442311
20
-0.37206700547473637
0
VERTEX
8
L2
10
11.775113761442311
20
-0.622067005474737
0
VERTEX
8
L2
10
11.755113761442312
20
-0.622067005474737
0
VERTEX
8
L2
10
11.755113761442312
20
-0.7220670054747376
0
VERTEX
8
L2
10
11.855113761442311
20
-0.7220670054747376
0
VERTEX
8
L2
10
11.855113761442311
20
-0.2920670054747363
0
VERTEX
8
L2
10
11.476036789017991
20
-0.2920670054747363
0
VERTEX
8
L2
10
11.476036789017991
20
-1.200000000000003
0
VERTEX
8
L2
10
11.855113761442311
20
-1.200000000000003
0
VERTEX
8
L2
10
11.855113761442311
20
-0.8720670054747379
0
VERTEX
8
L2
10
11.755113761442312
20
-0.8720670054747379
0
VERTEX
8
L2
10
11.755113761442312
20
-1.1200000000000028
0
SEQEND
0
POLYLINE
8
L2
66
1
70
1
0
VERTEX
8
L2
10
11.14094546369666
20
0.050000000000004485
0
VERTEX
8
L2
10
11.14094546369667
20
-0.13000000000000567
0
VERTEX
8
L2
10
10.91255522116643
20
-0.13000000000000567
0
VERTEX
8
L2
10
10.91255522116643
20
-0.6600645558592573
0
VERTEX
8
L2
10
11.01255522116643
20
-0.6600645558592573
0
VERTEX
8
L2
10
11.01255522116643
20
-0.560064555859257
0
VERTEX
8
L2
10
10.99255522116643
20
-0.560064555859257
0
VERTEX
8
L2
10
10.99255522116643
20
-0.21000000000000596
0
VERTEX
8
L2
10
11.24094546369667
20
-0.21000000000000596
0
VERTEX
8
L2
10
11.24094546369667
20
0.050000000000004485
0
VERTEX
8
L2
10
11.14094546369666
20
0.050000000000004485
0
SEQEND
0
POLYLINE
8
L2
66
1
70
1
0
VERTEX
8
L2
10
12.105113761442311
20
-1.0999999999999988
0
VERTEX
8
L2
10
12.41730695373289
20
-1.0999999999999988
0
VERTEX
8
L2
10
12.41730695373289
20
-0.9999999999999984
0
VERTEX
8
L2
10
12.31730695373289
20
-0.9999999999999984
0
VERTEX
8
L2
10
12.31730695373289
20
-1.0199999999999985
0
VERTEX
8
L2
10
12.185113761442311
20
-1.0199999999999985
0
VERTEX
8
L2
10
12.185113761442311
20
-0.27206700547473606
0
VERTEX
8
L2
10
12.425581598119962
20
-0.27206700547473606
0
VERTEX
8
L2
10
12.425581598119962
20
-0.8000000000000078
0
VERTEX
8
L2
10
12.40558159811996
20
-0.8000000000000078
0
VERTEX
8
L2
10
12.40558159811996
20
-0.8999999999999981
0
VERTEX
8
L2
10
12.505581598119962
20
-0.8999999999999981
0
VERTEX
8
L2
10
12.505581598119962
20
-0.19206700547473576
0
VERTEX
8
L2
10
12.105113761442311
20
-0.19206700547473576
0
VERTEX
8
L2
10
12.105113761442311
20
-1.0999999999999988
0
SEQEND
0
POLYLINE
8
L2
66
1
70
1
0
VERTEX
8
L2
10
10.770945463696671
20
-0.049999999999995604
0
VERTEX
8
L2
10
10.770945463696671
20
0.050000000000004485
0
VERTEX
8
L2
10
10.670945463696661
20
0.050000000000004485
0
VERTEX
8
L2
10
10.670945463696661
20
-0.049999999999995604
0
VERTEX
8
L2
10
10.770945463696671
20
-0.049999999999995604
0
SEQEND
0
POLYLINE
8
L2
66
1
70
1
0
VERTEX
8
L2
10
9.20000000000042
20
-2.1000000000003616
0
VERTEX
8
L2
10
13.99999999999958
20
-2.1000000000003616
0
VERTEX
8
L2
10
13.99999999999958
20
2.1000000000003616
0
VERTEX
8
L2
10
9.20000000000042
20
2.1000000000003616
0
VERTEX
8
L2
10
9.20000000000042
20
-2.1000000000003616
0
SEQEND
0
TEXT
8
0
62
52
10
11.022499999999999
20
-3.4650000000000003
40
1.05
1
L2
0
POLYLINE
8
V5
66
1
70
1
0
VERTEX
8
V5
10
10.369999999999996
20
7.3300000000000125
0
VERTEX
8
V5
10
10.356120681127745
20
7.303507639857912
0
VERTEX
8
V5
10
10.365039448141037
20
7.274960551858973
0
VERTEX
8
V5
10
10.391531808283137
20
7.2610812329867125
0
VERTEX
8
V5
10
10.420078896282076
20
7.270000000000012
0
VERTEX
8
V5
10
10.433958215154336
20
7.296492360142112
0
VERTEX
8
V5
10
10.425039448141037
20
7.325039448141053
0
VERTEX
8
V5
10
10.398547087998937
20
7.338918767013302
0
VERTEX
8
V5
10
10.369999999999996
20
7.3300000000000125
0
SEQEND
0
POLYLINE
8
V5
66
1
70
1
0
VERTEX
8
V5
10
10.676878946003626
20
5.2389187670132875
0
VERTEX
8
V5
10
10.648331858004687
20
5.229999999999998
0
VERTEX
8
V5
10
10.634452539132436
20
5.203507639857897
0
VERTEX
8
V5
10
10.643371306145726
20
5.174960551858957
0
VERTEX
8
V5
10
10.669863666287837
20
5.161081232986698
0
VERTEX
8
V5
10
10.698410754286767
20
5.169999999999997
0
VERTEX
8
V5
10
10.712290073159027
20
5.196492360142098
0
VERTEX
8
V5
10
10.703371306145726
20
5.225039448141038
0
VERTEX
8
V5
10
10.676878946003626
20
5.2389187670132875
0
SEQEND
0
POLYLINE
8
V5
66
1
70
1
0
VERTEX
8
V5
10
10.691992648657926
20
6.278952815038765
0
VERTEX
8
V5
10
10.679999999999996
20
6.249999999999995
0
VERTEX
8
V5
10
10.691992648657926
20
6.221047184961235
0
VERTEX
8
V5
10
10.720945463696697
20
6.209054536303295
0
VERTEX
8
V5
10
10.749898278735458
20
6.221047184961235
0
VERTEX
8
V5
10
10.761890927393397
20
6.249999999999995
0
VERTEX
8
V5
10
10.749898278735458
20
6.278952815038765
0
VERTEX
8
V5
10
10.720945463696697
20
6.290945463696695
0
VERTEX
8
V5
10
10.691992648657926
20
6.278952815038765
0
SEQEND
0
POLYLINE
8
V5
66
1
70
1
0
VERTEX
8
V5
10
12.433449250391401
20
7.270000000000012
0
VERTEX
8
V5
10
12.461996338390342
20
7.261081232986722
0
VERTEX
8
V5
10
12.488488698532441
20
7.274960551858973
0
VERTEX
8
V5
10
12.497407465545741
20
7.303507639857912
0
VERTEX
8
V5
10
12.483528146673482
20
7.3300000000000125
0
VERTEX
8
V5
10
12.454981058674552
20
7.338918767013302
0
VERTEX
8
V5
10
12.428488698532442
20
7.325039448141053
0
VERTEX
8
V5
10
12.419569931519153
20
7.296492360142112
0
VERTEX
8
V5
10
12.433449250391401
20
7.270000000000012
0
SEQEND
0
POLYLINE
8
V5
66
1
70
1
0
VERTEX
8
V5
10
11.149999999999999
20
6.249999999999995
0
VERTEX
8
V5
10
11.161992648657929
20
6.221047184961235
0
VERTEX
8
V5
10
11.190945463696698
20
6.209054536303295
0
VERTEX
8
V5
10
11.219898278735458
20
6.221047184961235
0
VERTEX
8
V5
10
11.231890927393398
20
6.249999999999995
0
VERTEX
8
V5
10
11.219898278735458
20
6.278952815038765
0
VERTEX
8
V5
10
11.190945463696698
20
6.290945463696695
0
VERTEX
8
V5
10
11.161992648657929
20
6.278952815038765
0
VERTEX
8
V5
10
11.149999999999999
20
6.249999999999995
0
SEQEND
0
POLYLINE
8
V5
66
1
70
1
0
VERTEX
8
V5
10
12.450101721264591
20
6.221047184961235
0
VERTEX
8
V5
10
12.479054536303362
20
6.209054536303295
0
VERTEX
8
V5
10
12.508007351342123
20
6.221047184961235
0
VERTEX
8
V5
10
12.520000000000062
20
6.250000000000005
0
VERTEX
8
V5
10
12.508007351342123
20
6.278952815038765
0
VERTEX
8
V5
10
12.479054536303362
20
6.290945463696706
0
VERTEX
8
V5
10
12.450101721264591
20
6.278952815038765
0
VERTEX
8
V5
10
12.438109072606661
20
6.250000000000005
0
VERTEX
8
V5
10
12.450101721264591
20
6.221047184961235
0
SEQEND
0
POLYLINE
8
V5
66
1
70
1
0
VERTEX
8
V5
10
11.188879227650489
20
7.3300000000000125
0
VERTEX
8
V5
10
11.17499990877823
20
7.303507639857902
0
VERTEX
8
V5
10
11.183918675791528
20
7.274960551858973
0
VERTEX
8
V5
10
11.210411035933628
20
7.2610812329867125
0
VERTEX
8
V5
10
11.238958123932568
20
7.270000000000012
0
VERTEX
8
V5
10
11.252837442804818
20
7.296492360142112
0
VERTEX
8
V5
10
11.243918675791528
20
7.325039448141053
0
VERTEX
8
V5
10
11.21742631564942
20
7.338918767013302
0
VERTEX
8
V5
10
11.188879227650489
20
7.3300000000000125
0
SEQEND
0
POLYLINE
8
V5
66
1
70
1
0
VERTEX
8
V5
10
11.77888726578362
20
7.261081232986722
0
VERTEX
8
V5
10
11.80537962592572
20
7.274960551858973
0
VERTEX
8
V5
10
11.81429839293902
20
7.303507639857912
0
VERTEX
8
V5
10
11.800419074066761
20
7.3300000000000125
0
VERTEX
8
V5
10
11.77187198606782
20
7.338918767013302
0
VERTEX
8
V5
10
11.74537962592572
20
7.325039448141053
0
VERTEX
8
V5
10
11.73646085891243
20
7.296492360142112
0
VERTEX
8
V5
10
11.750340177784679
20
7.270000000000012
0
VERTEX
8
V5
10
11.77888726578362
20
7.261081232986722
0
SEQEND
0
POLYLINE
8
V5
66
1
70
1
0
VERTEX
8
V5
10
12.729921103717992
20
5.169999999999997
0
VERTEX
8
V5
10
12.758468191716922
20
5.1610812329867075
0
VERTEX
8
V5
10
12.784960551859033
20
5.174960551858957
0
VERTEX
8
V5
10
12.793879318872323
20
5.203507639857897
0
VERTEX
8
V5
10
12.780000000000072
20
5.229999999999998
0
VERTEX
8
V5
10
12.751452912001131
20
5.2389187670132875
0
VERTEX
8
V5
10
12.724960551859033
20
5.225039448141038
0
VERTEX
8
V5
10
12.716041784845732
20
5.196492360142098
0
VERTEX
8
V5
10
12.729921103717992
20
5.169999999999997
0
SEQEND
0
POLYLINE
8
V5
66
1
70
1
0
VERTEX
8
V5
10
11.71699264865793
20
6.221047184961235
0
VERTEX
8
V5
10
11.7459454636967
20
6.209054536303295
0
VERTEX
8
V5
10
11.77489827873546
20
6.221047184961235
0
VERTEX
8
V5
10
11.7868909273934
20
6.250000000000005
0
VERTEX
8
V5
10
11.77489827873546
20
6.278952815038765
0
VERTEX
8
V5
10
11.7459454636967
20
6.290945463696706
0
VERTEX
8
V5
10
11.71699264865793
20
6.278952815038765
0
VERTEX
8
V5
10
11.705
20
6.250000000000005
0
VERTEX
8
V5
10
11.71699264865793
20
6.221047184961235
0
SEQEND
0
POLYLINE
8
V5
66
1
70
1
0
VERTEX
8
V5
10
10.153085668657514
20
6.221047184961235
0
VERTEX
8
V5
10
10.182038483696275
20
6.209054536303295
0
VERTEX
8
V5
10
10.210991298735035
20
6.221047184961235
0
VERTEX
8
V5
10
10.222983947392976
20
6.249999999999995
0
VERTEX
8
V5
10
10.210991298735046
20
6.278952815038765
0
VERTEX
8
V5
10
10.182038483696275
20
6.290945463696695
0
VERTEX
8
V5
10
10.153085668657514
20
6.278952815038765
0
VERTEX
8
V5
10
10.141093019999573
20
6.249999999999995
0
VERTEX
8
V5
10
10.153085668657514
20
6.221047184961235
0
SEQEND
0
POLYLINE
8
V5
66
1
70
1
0
VERTEX
8
V5
10
12.165101721264591
20
6.221047184961235
0
VERTEX
8
V5
10
12.19405453630336
20
6.209054536303295
0
VERTEX
8
V5
10
12.22300735134212
20
6.221047184961235
0
VERTEX
8
V5
10
12.23500000000006
20
6.250000000000005
0
VERTEX
8
V5
10
12.22300735134212
20
6.278952815038765
0
VERTEX
8
V5
10
12.19405453630336
20
6.290945463696706
0
VERTEX
8
V5
10
12.165101721264591
20
6.278952815038765
0
VERTEX
8
V5
10
12.15310907260666
20
6.250000000000005
0
VERTEX
8
V5
10
12.165101721264591
20
6.221047184961235
0
SEQEND
0
POLYLINE
8
V5
66
1
70
1
0
VERTEX
8
V5
10
13.046914331342483
20
6.278952815038765
0
VERTEX
8
V5
10
13.017961516303723
20
6.290945463696695
0
VERTEX
8
V5
10
12.989008701264952
20
6.278952815038765
0
VERTEX
8
V5
10
12.977016052607024
20
6.249999999999995
0
VERTEX
8
V5
10
12.989008701264964
20
6.221047184961235
0
VERTEX
8
V5
10
13.017961516303723
20
6.209054536303295
0
VERTEX
8
V5
10
13.046914331342483
20
6.221047184961235
0
VERTEX
8
V5
10
13.058906980000424
20
6.249999999999995
0
VERTEX
8
V5
10
13.046914331342483
20
6.278952815038765
0
SEQEND
0
POLYLINE
8
V5
66
1
70
1
0
VERTEX
8
V5
10
12.342267505591881
20
5.169999999999997
0
VERTEX
8
V5
10
12.370814593590822
20
5.1610812329867075
0
VERTEX
8
V5
10
12.397306953732922
20
5.174960551858957
0
VERTEX
8
V5
10
12.406225720746221
20
5.203507639857897
0
VERTEX
8
V5
10
12.392346401873962
20
5.229999999999998
0
VERTEX
8
V5
10
12.363799313875022
20
5.2389187670132875
0
VERTEX
8
V5
10
12.337306953732922
20
5.225039448141038
0
VERTEX
8
V5
10
12.328388186719632
20
5.196492360142098
0
VERTEX
8
V5
10
12.342267505591881
20
5.169999999999997
0
SEQEND
0
POLYLINE
8
V5
66
1
70
1
0
VERTEX
8
V5
10
11.83011376144234
20
5.358147048670559
0
VERTEX
8
V5
10
11.80142686839872
20
5.366975226628199
0
VERTEX
8
V5
10
11.77489970729703
20
5.352932994525259
0
VERTEX
8
V5
10
11.76607152933939
20
5.324246101481639
0
VERTEX
8
V5
10
11.78011376144234
20
5.2977189403799585
0
VERTEX
8
V5
10
11.80880065448595
20
5.288890762422308
0
VERTEX
8
V5
10
11.835327815587641
20
5.302932994525258
0
VERTEX
8
V5
10
11.84415599354528
20
5.331619887568868
0
VERTEX
8
V5
10
11.83011376144234
20
5.358147048670559
0
SEQEND
0
POLYLINE
8
V5
66
1
70
1
0
VERTEX
8
V5
10
9.200000000000413
20
4.149999999999631
0
VERTEX
8
V5
10
13.999999999999586
20
4.149999999999631
0
VERTEX
8
V5
10
13.999999999999586
20
8.350000000000371
0
VERTEX
8
V5
10
9.200000000000413
20
8.350000000000371
0
VERTEX
8
V5
10
9.200000000000413
20
4.149999999999631
0
SEQEND
0
TEXT
8
0
62
62
10
11.022499999999999
20
2.6
40
1.05
1
V5
0
POLYLINE
8
L1
66
1
70
1
0
VERTEX
8
L1
10
16.17
20
1.0800000000000085
0
VERTEX
8
L1
10
16.15612068112775
20
1.0535076398579084
0
VERTEX
8
L1
10
16.16503944814104
20
1.0249605518589695
0
VERTEX
8
L1
10
16.19153180828314
20
1.0110812329867085
0
VERTEX
8
L1
10
16.22007889628208
20
1.0200000000000085
0
VERTEX
8
L1
10
16.23395821515434
20
1.0464923601421086
0
VERTEX
8
L1
10
16.22503944814104
20
1.0750394481410486
0
VERTEX
8
L1
10
16.19854708799894
20
1.0889187670132996
0
VERTEX
8
L1
10
16.17
20
1.0800000000000085
0
SEQEND
0
POLYLINE
8
L1
66
1
70
1
0
VERTEX
8
L1
10
18.529921103717992
20
-1.0799999999999985
0
VERTEX
8
L1
10
18.558468191716923
20
-1.0889187670132885
0
VERTEX
8
L1
10
18.58496055185903
20
-1.0750394481410386
0
VERTEX
8
L1
10
18.59387931887232
20
-1.0464923601420986
0
VERTEX
8
L1
10
18.580000000000073
20
-1.0199999999999985
0
VERTEX
8
L1
10
18.551452912001132
20
-1.0110812329867085
0
VERTEX
8
L1
10
18.52496055185903
20
-1.0249605518589584
0
VERTEX
8
L1
10
18.516041784845733
20
-1.0535076398578984
0
VERTEX
8
L1
10
18.529921103717992
20
-1.0799999999999985
0
SEQEND
0
POLYLINE
8
L1
66
1
70
1
0
VERTEX
8
L1
10
16.98887922765049
20
1.0800000000000085
0
VERTEX
8
L1
10
16.97499990877823
20
1.0535076398578984
0
VERTEX
8
L1
10
16.98391867579153
20
1.0249605518589695
0
VERTEX
8
L1
10
17.01041103593363
20
1.0110812329867085
0
VERTEX
8
L1
10
17.03895812393257
20
1.0200000000000085
0
VERTEX
8
L1
10
17.05283744280482
20
1.0464923601421086
0
VERTEX
8
L1
10
17.04391867579153
20
1.0750394481410486
0
VERTEX
8
L1
10
17.01742631564942
20
1.0889187670132996
0
VERTEX
8
L1
10
16.98887922765049
20
1.0800000000000085
0
SEQEND
0
POLYLINE
8
L1
66
1
70
1
0
VERTEX
8
L1
10
15.953085668657518
20
-0.028952815038764596
0
VERTEX
8
L1
10
15.982038483696279
20
-0.040945463696704994
0
VERTEX
8
L1
10
16.01099129873504
20
-0.028952815038764596
0
VERTEX
8
L1
10
16.02298394739298
20
-4.697631172945194e-15
0
VERTEX
8
L1
10
16.01099129873505
20
0.02895281503876551
0
VERTEX
8
L1
10
15.982038483696279
20
0.0409454636966953
0
VERTEX
8
L1
10
15.953085668657518
20
0.02895281503876551
0
VERTEX
8
L1
10
15.941093019999578
20
-4.697631172945194e-15
0
VERTEX
8
L1
10
15.953085668657518
20
-0.028952815038764596
0
SEQEND
0
POLYLINE
8
L1
66
1
70
1
0
VERTEX
8
L1
10
16.95
20
-4.697631172945194e-15
0
VERTEX
8
L1
10
16.96199264865793
20
-0.028952815038764596
0
VERTEX
8
L1
10
16.9909454636967
20
-0.040945463696704994
0
VERTEX
8
L1
10
17.01989827873546
20
-0.028952815038764596
0
VERTEX
8
L1
10
17.031890927393402
20
-4.697631172945194e-15
0
VERTEX
8
L1
10
17.01989827873546
20
0.02895281503876551
0
VERTEX
8
L1
10
16.9909454636967
20
0.0409454636966953
0
VERTEX
8
L1
10
16.96199264865793
20
0.02895281503876551
0
VERTEX
8
L1
10
16.95
20
-4.697631172945194e-15
0
SEQEND
0
POLYLINE
8
L1
66
1
70
1
0
VERTEX
8
L1
10
18.846914331342482
20
0.02895281503876551
0
VERTEX
8
L1
10
18.817961516303722
20
0.0409454636966953
0
VERTEX
8
L1
10
18.78900870126495
20
0.02895281503876551
0
VERTEX
8
L1
10
18.77701605260702
20
-4.697631172945194e-15
0
VERTEX
8
L1
10
18.78900870126496
20
-0.028952815038764596
0
VERTEX
8
L1
10
18.817961516303722
20
-0.040945463696704994
0
VERTEX
8
L1
10
18.846914331342482
20
-0.028952815038764596
0
VERTEX
8
L1
10
18.85890698000042
20
-4.697631172945194e-15
0
VERTEX
8
L1
10
18.846914331342482
20
0.02895281503876551
0
SEQEND
0
POLYLINE
8
L1
66
1
70
1
0
VERTEX
8
L1
10
16.47687894600363
20
-1.0110812329867085
0
VERTEX
8
L1
10
16.44833185800469
20
-1.0199999999999985
0
VERTEX
8
L1
10
16.43445253913244
20
-1.0464923601420986
0
VERTEX
8
L1
10
16.44337130614573
20
-1.0750394481410386
0
VERTEX
8
L1
10
16.46986366628784
20
-1.0889187670132985
0
VERTEX
8
L1
10
16.49841075428677
20
-1.0799999999999985
0
VERTEX
8
L1
10
16.51229007315903
20
-1.0535076398578984
0
VERTEX
8
L1
10
16.50337130614573
20
-1.0249605518589584
0
VERTEX
8
L1
10
16.47687894600363
20
-1.0110812329867085
0
SEQEND
0
POLYLINE
8
L1
66
1
70
1
0
VERTEX
8
L1
10
18.32905453630333
20
0.0500000000000054
0
VERTEX
8
L1
10
18.22905453630332
20
0.0500000000000054
0
VERTEX
8
L1
10
18.22905453630332
20
-0.049999999999995194
0
VERTEX
8
L1
10
18.32905453630333
20
-0.049999999999995194
0
VERTEX
8
L1
10
18.32905453630333
20
0.0500000000000054
0
SEQEND
0
POLYLINE
8
L1
66
1
70
1
0
VERTEX
8
L1
10
18.233449250391402
20
1.0200000000000085
0
VERTEX
8
L1
10
18.26199633839034
20
1.0110812329867185
0
VERTEX
8
L1
10
18.28848869853244
20
1.0249605518589695
0
VERTEX
8
L1
10
18.29740746554574
20
1.0535076398579084
0
VERTEX
8
L1
10
18.28352814667348
20
1.0800000000000085
0
VERTEX
8
L1
10
18.254981058674552
20
1.0889187670132996
0
VERTEX
8
L1
10
18.22848869853244
20
1.0750394481410486
0
VERTEX
8
L1
10
18.21956993151915
20
1.0464923601421086
0
VERTEX
8
L1
10
18.233449250391402
20
1.0200000000000085
0
SEQEND
0
POLYLINE
8
L1
66
1
70
1
0
VERTEX
8
L1
10
18.04405453630333
20
0.0500000000000054
0
VERTEX
8
L1
10
17.94405453630332
20
0.0500000000000054
0
VERTEX
8
L1
10
17.94405453630332
20
-0.049999999999995194
0
VERTEX
8
L1
10
18.04405453630333
20
-0.049999999999995194
0
VERTEX
8
L1
10
18.04405453630333
20
0.0500000000000054
0
SEQEND
0
POLYLINE
8
L1
66
1
70
1
0
VERTEX
8
L1
10
17.57888726578362
20
1.0110812329867185
0
VERTEX
8
L1
10
17.60537962592572
20
1.0249605518589695
0
VERTEX
8
L1
10
17.61429839293902
20
1.0535076398579084
0
VERTEX
8
L1
10
17.60041907406676
20
1.0800000000000085
0
VERTEX
8
L1
10
17.57187198606782
20
1.0889187670132996
0
VERTEX
8
L1
10
17.545379625925722
20
1.0750394481410486
0
VERTEX
8
L1
10
17.53646085891243
20
1.0464923601421086
0
VERTEX
8
L1
10
17.55034017778468
20
1.0200000000000085
0
VERTEX
8
L1
10
17.57888726578362
20
1.0110812329867185
0
SEQEND
0
POLYLINE
8
L1
66
1
70
1
0
VERTEX
8
L1
10
17.49594546369667
20
-0.37206700547473587
0
VERTEX
8
L1
10
17.57511376144231
20
-0.37206700547473587
0
VERTEX
8
L1
10
17.57511376144231
20
-0.8720670054747377
0
VERTEX
8
L1
10
17.55511376144231
20
-0.8720670054747377
0
VERTEX
8
L1
10
17.55511376144231
20
-0.9720670054747382
0
VERTEX
8
L1
10
17.655113761442312
20
-0.9720670054747382
0
VERTEX
8
L1
10
17.655113761442312
20
-0.2920670054747359
0
VERTEX
8
L1
10
17.59594546369667
20
-0.2920670054747359
0
VERTEX
8
L1
10
17.59594546369667
20
0.0500000000000054
0
VERTEX
8
L1
10
17.49594546369666
20
0.0500000000000054
0
VERTEX
8
L1
10
17.49594546369667
20
-0.37206700547473587
0
SEQEND
0
POLYLINE
8
L1
66
1
70
1
0
VERTEX
8
L1
10
18.14226750559188
20
-1.0799999999999985
0
VERTEX
8
L1
10
18.17081459359082
20
-1.0889187670132885
0
VERTEX
8
L1
10
18.19730695373292
20
-1.0750394481410386
0
VERTEX
8
L1
10
18.20622572074622
20
-1.0464923601420986
0
VERTEX
8
L1
10
18.192346401873962
20
-1.0199999999999985
0
VERTEX
8
L1
10
18.16379931387502
20
-1.0110812329867085
0
VERTEX
8
L1
10
18.13730695373292
20
-1.0249605518589584
0
VERTEX
8
L1
10
18.12838818671963
20
-1.0535076398578984
0
VERTEX
8
L1
10
18.14226750559188
20
-1.0799999999999985
0
SEQEND
0
POLYLINE
8
L1
66
1
70
1
0
VERTEX
8
L1
10
16.47094546369666
20
-0.049999999999995194
0
VERTEX
8
L1
10
16.57094546369667
20
-0.049999999999995194
0
VERTEX
8
L1
10
16.57094546369667
20
0.0500000000000054
0
VERTEX
8
L1
10
16.47094546369666
20
0.0500000000000054
0
VERTEX
8
L1
10
16.47094546369666
20
-0.049999999999995194
0
SEQEND
0
POLYLINE
8
L1
66
1
70
1
0
VERTEX
8
L1
10
15.00000000000042
20
-2.100000000000363
0
VERTEX
8
L1
10
19.79999999999958
20
-2.100000000000363
0
VERTEX
8
L1
10
19.79999999999958
20
2.100000000000363
0
VERTEX
8
L1
10
15.00000000000042
20
2.100000000000363
0
VERTEX
8
L1
10
15.00000000000042
20
-2.100000000000363
0
SEQEND
0
TEXT
8
0
62
72
10
16.822499999999998
20
-3.4650000000000003
40
1.05
1
L1
0
POLYLINE
8
V4
66
1
70
1
0
VERTEX
8
V4
10
16.198547087998936
20
7.338918767013301
0
VERTEX
8
V4
10
16.169999999999995
20
7.330000000000012
0
VERTEX
8
V4
10
16.156120681127746
20
7.303507639857911
0
VERTEX
8
V4
10
16.165039448141037
20
7.274960551858972
0
VERTEX
8
V4
10
16.191531808283138
20
7.261081232986711
0
VERTEX
8
V4
10
16.220078896282075
20
7.270000000000011
0
VERTEX
8
V4
10
16.233958215154335
20
7.296492360142111
0
VERTEX
8
V4
10
16.225039448141036
20
7.325039448141052
0
VERTEX
8
V4
10
16.198547087998936
20
7.338918767013301
0
SEQEND
0
POLYLINE
8
V4
66
1
70
1
0
VERTEX
8
V4
10
16.448331858004686
20
5.229999999999997
0
VERTEX
8
V4
10
16.434452539132437
20
5.2035076398578965
0
VERTEX
8
V4
10
16.44337130614573
20
5.174960551858956
0
VERTEX
8
V4
10
16.469863666287836
20
5.161081232986696
0
VERTEX
8
V4
10
16.498410754286766
20
5.169999999999996
0
VERTEX
8
V4
10
16.512290073159026
20
5.196492360142097
0
VERTEX
8
V4
10
16.503371306145727
20
5.225039448141038
0
VERTEX
8
V4
10
16.476878946003627
20
5.238918767013287
0
VERTEX
8
V4
10
16.448331858004686
20
5.229999999999997
0
SEQEND
0
POLYLINE
8
V4
66
1
70
1
0
VERTEX
8
V4
10
18.233449250391402
20
7.270000000000011
0
VERTEX
8
V4
10
18.261996338390343
20
7.261081232986721
0
VERTEX
8
V4
10
18.28848869853244
20
7.274960551858972
0
VERTEX
8
V4
10
18.297407465545742
20
7.303507639857911
0
VERTEX
8
V4
10
18.283528146673483
20
7.330000000000012
0
VERTEX
8
V4
10
18.254981058674552
20
7.338918767013301
0
VERTEX
8
V4
10
18.22848869853244
20
7.325039448141052
0
VERTEX
8
V4
10
18.219569931519153
20
7.296492360142111
0
VERTEX
8
V4
10
18.233449250391402
20
7.270000000000011
0
SEQEND
0
POLYLINE
8
V4
66
1
70
1
0
VERTEX
8
V4
10
16.479999999999997
20
6.249999999999995
0
VERTEX
8
V4
10
16.491992648657927
20
6.221047184961233
0
VERTEX
8
V4
10
16.520945463696698
20
6.209054536303293
0
VERTEX
8
V4
10
16.54989827873546
20
6.221047184961233
0
VERTEX
8
V4
10
16.561890927393396
20
6.249999999999995
0
VERTEX
8
V4
10
16.54989827873546
20
6.278952815038764
0
VERTEX
8
V4
10
16.520945463696698
20
6.290945463696694
0
VERTEX
8
V4
10
16.491992648657927
20
6.278952815038764
0
VERTEX
8
V4
10
16.479999999999997
20
6.249999999999995
0
SEQEND
0
POLYLINE
8
V4
66
1
70
1
0
VERTEX
8
V4
10
18.250101721264592
20
6.221047184961233
0
VERTEX
8
V4
10
18.279054536303363
20
6.209054536303293
0
VERTEX
8
V4
10
18.308007351342123
20
6.221047184961233
0
VERTEX
8
V4
10
18.32000000000006
20
6.250000000000004
0
VERTEX
8
V4
10
18.308007351342123
20
6.278952815038764
0
VERTEX
8
V4
10
18.279054536303363
20
6.290945463696705
0
VERTEX
8
V4
10
18.250101721264592
20
6.278952815038764
0
VERTEX
8
V4
10
18.23810907260666
20
6.250000000000004
0
VERTEX
8
V4
10
18.250101721264592
20
6.221047184961233
0
SEQEND
0
POLYLINE
8
V4
66
1
70
1
0
VERTEX
8
V4
10
16.95
20
6.249999999999995
0
VERTEX
8
V4
10
16.96199264865793
20
6.221047184961233
0
VERTEX
8
V4
10
16.990945463696697
20
6.209054536303293
0
VERTEX
8
V4
10
17.019898278735457
20
6.221047184961233
0
VERTEX
8
V4
10
17.0318909273934
20
6.249999999999995
0
VERTEX
8
V4
10
17.019898278735457
20
6.278952815038764
0
VERTEX
8
V4
10
16.990945463696697
20
6.290945463696694
0
VERTEX
8
V4
10
16.96199264865793
20
6.278952815038764
0
VERTEX
8
V4
10
16.95
20
6.249999999999995
0
SEQEND
0
POLYLINE
8
V4
66
1
70
1
0
VERTEX
8
V4
10
17.55034017778468
20
7.270000000000011
0
VERTEX
8
V4
10
17.578887265783617
20
7.261081232986721
0
VERTEX
8
V4
10
17.60537962592572
20
7.274960551858972
0
VERTEX
8
V4
10
17.61429839293902
20
7.303507639857911
0
VERTEX
8
V4
10
17.60041907406676
20
7.330000000000012
0
VERTEX
8
V4
10
17.57187198606782
20
7.338918767013301
0
VERTEX
8
V4
10
17.54537962592572
20
7.325039448141052
0
VERTEX
8
V4
10
17.53646085891243
20
7.296492360142111
0
VERTEX
8
V4
10
17.55034017778468
20
7.270000000000011
0
SEQEND
0
POLYLINE
8
V4
66
1
70
1
0
VERTEX
8
V4
10
17.01742631564942
20
7.338918767013301
0
VERTEX
8
V4
10
16.98887922765049
20
7.330000000000012
0
VERTEX
8
V4
10
16.97499990877823
20
7.3035076398579015
0
VERTEX
8
V4
10
16.98391867579153
20
7.274960551858972
0
VERTEX
8
V4
10
17.01041103593363
20
7.261081232986711
0
VERTEX
8
V4
10
17.038958123932566
20
7.270000000000011
0
VERTEX
8
V4
10
17.05283744280482
20
7.296492360142111
0
VERTEX
8
V4
10
17.043918675791527
20
7.325039448141052
0
VERTEX
8
V4
10
17.01742631564942
20
7.338918767013301
0
SEQEND
0
POLYLINE
8
V4
66
1
70
1
0
VERTEX
8
V4
10
17.965101721264592
20
6.221047184961233
0
VERTEX
8
V4
10
17.99405453630336
20
6.209054536303293
0
VERTEX
8
V4
10
18.02300735134212
20
6.221047184961233
0
VERTEX
8
V4
10
18.03500000000006
20
6.250000000000004
0
VERTEX
8
V4
10
18.02300735134212
20
6.278952815038764
0
VERTEX
8
V4
10
17.99405453630336
20
6.290945463696705
0
VERTEX
8
V4
10
17.965101721264592
20
6.278952815038764
0
VERTEX
8
V4
10
17.95310907260666
20
6.250000000000004
0
VERTEX
8
V4
10
17.965101721264592
20
6.221047184961233
0
SEQEND
0
POLYLINE
8
V4
66
1
70
1
0
VERTEX
8
V4
10
18.529921103717992
20
5.169999999999996
0
VERTEX
8
V4
10
18.558468191716923
20
5.161081232986707
0
VERTEX
8
V4
10
18.584960551859034
20
5.174960551858956
0
VERTEX
8
V4
10
18.59387931887232
20
5.2035076398578965
0
VERTEX
8
V4
10
18.580000000000073
20
5.229999999999997
0
VERTEX
8
V4
10
18.551452912001132
20
5.238918767013287
0
VERTEX
8
V4
10
18.52496055185903
20
5.225039448141038
0
VERTEX
8
V4
10
18.516041784845733
20
5.196492360142097
0
VERTEX
8
V4
10
18.529921103717992
20
5.169999999999996
0
SEQEND
0
POLYLINE
8
V4
66
1
70
1
0
VERTEX
8
V4
10
17.505
20
6.250000000000004
0
VERTEX
8
V4
10
17.51699264865793
20
6.221047184961233
0
VERTEX
8
V4
10
17.5459454636967
20
6.209054536303293
0
VERTEX
8
V4
10
17.57489827873546
20
6.221047184961233
0
VERTEX
8
V4
10
17.586890927393398
20
6.250000000000004
0
VERTEX
8
V4
10
17.57489827873546
20
6.278952815038764
0
VERTEX
8
V4
10
17.5459454636967
20
6.290945463696705
0
VERTEX
8
V4
10
17.51699264865793
20
6.278952815038764
0
VERTEX
8
V4
10
17.505
20
6.250000000000004
0
SEQEND
0
POLYLINE
8
V4
66
1
70
1
0
VERTEX
8
V4
10
15.953085668657513
20
6.221047184961233
0
VERTEX
8
V4
10
15.982038483696273
20
6.209054536303293
0
VERTEX
8
V4
10
16.010991298735036
20
6.221047184961233
0
VERTEX
8
V4
10
16.022983947392976
20
6.249999999999995
0
VERTEX
8
V4
10
16.010991298735046
20
6.278952815038764
0
VERTEX
8
V4
10
15.982038483696273
20
6.290945463696694
0
VERTEX
8
V4
10
15.953085668657513
20
6.278952815038764
0
VERTEX
8
V4
10
15.941093019999574
20
6.249999999999995
0
VERTEX
8
V4
10
15.953085668657513
20
6.221047184961233
0
SEQEND
0
POLYLINE
8
V4
66
1
70
1
0
VERTEX
8
V4
10
18.17081459359082
20
5.161081232986707
0
VERTEX
8
V4
10
18.19730695373292
20
5.174960551858956
0
VERTEX
8
V4
10
18.20622572074622
20
5.2035076398578965
0
VERTEX
8
V4
10
18.192346401873962
20
5.229999999999997
0
VERTEX
8
V4
10
18.16379931387502
20
5.238918767013287
0
VERTEX
8
V4
10
18.13730695373292
20
5.225039448141038
0
VERTEX
8
V4
10
18.12838818671963
20
5.196492360142097
0
VERTEX
8
V4
10
18.14226750559188
20
5.169999999999996
0
VERTEX
8
V4
10
18.17081459359082
20
5.161081232986707
0
SEQEND
0
POLYLINE
8
V4
66
1
70
1
0
VERTEX
8
V4
10
18.846914331342482
20
6.278952815038764
0
VERTEX
8
V4
10
18.817961516303722
20
6.290945463696694
0
VERTEX
8
V4
10
18.789008701264954
20
6.278952815038764
0
VERTEX
8
V4
10
18.777016052607024
20
6.249999999999995
0
VERTEX
8
V4
10
18.789008701264965
20
6.221047184961233
0
VERTEX
8
V4
10
18.817961516303722
20
6.209054536303293
0
VERTEX
8
V4
10
18.846914331342482
20
6.221047184961233
0
VERTEX
8
V4
10
18.858906980000423
20
6.249999999999995
0
VERTEX
8
V4
10
18.846914331342482
20
6.278952815038764
0
SEQEND
0
POLYLINE
8
V4
66
1
70
1
0
VERTEX
8
V4
10
15.000000000000412
20
4.149999999999629
0
VERTEX
8
V4
10
19.799999999999585
20
4.149999999999629
0
VERTEX
8
V4
10
19.799999999999585
20
8.35000000000037
0
VERTEX
8
V4
10
15.000000000000412
20
8.35000000000037
0
VERTEX
8
V4
10
15.000000000000412
20
4.149999999999629
0
SEQEND
0
TEXT
8
0
62
82
10
16.822499999999998
20
2.6
40
1.05
1
V4
0
POLYLINE
8
C3
66
1
70
1
0
VERTEX
8
C3
10
22.13094546369667
20
0.6489533994795162
0
VERTEX
8
C3
10
22.13094546369667
20
0.13000000000000567
0
VERTEX
8
C3
10
22.27094546369667
20
0.13000000000000567
0
VERTEX
8
C3
10
22.27094546369666
20
-0.04999999999999538
0
VERTEX
8
C3
10
22.37094546369667
20
-0.04999999999999538
0
VERTEX
8
C3
10
22.37094546369667
20
0.13000000000000567
0
VERTEX
8
C3
10
22.51094546369667
20
0.13000000000000567
0
VERTEX
8
C3
10
22.51094546369667
20
0.6489533994795162
0
VERTEX
8
C3
10
22.13094546369667
20
0.6489533994795162
0
SEQEND
0
POLYLINE
8
C3
66
1
70
1
0
VERTEX
8
C3
10
24.30496055185899
20
-1.0999999999999965
0
VERTEX
8
C3
10
24.40496055185899
20
-1.0999999999999965
0
VERTEX
8
C3
10
24.40496055185899
20
-0.9999999999999964
0
VERTEX
8
C3
10
24.30496055185899
20
-0.9999999999999964
0
VERTEX
8
C3
10
24.30496055185899
20
-1.0999999999999965
0
SEQEND
0
POLYLINE
8
C3
66
1
70
1
0
VERTEX
8
C3
10
22.84094546369667
20
0.050000000000005596
0
VERTEX
8
C3
10
22.74094546369666
20
0.050000000000005596
0
VERTEX
8
C3
10
22.74094546369666
20
-0.04999999999999538
0
VERTEX
8
C3
10
22.84094546369667
20
-0.04999999999999538
0
VERTEX
8
C3
10
22.84094546369667
20
0.050000000000005596
0
SEQEND
0
POLYLINE
8
C3
66
1
70
1
0
VERTEX
8
C3
10
23.91730695373289
20
-0.9999999999999964
0
VERTEX
8
C3
10
23.91730695373289
20
-1.0999999999999965
0
VERTEX
8
C3
10
24.01730695373289
20
-1.0999999999999965
0
VERTEX
8
C3
10
24.01730695373289
20
-0.9999999999999964
0
VERTEX
8
C3
10
23.91730695373289
20
-0.9999999999999964
0
SEQEND
0
POLYLINE
8
C3
66
1
70
1
0
VERTEX
8
C3
10
23.39594546369667
20
-0.04999999999999538
0
VERTEX
8
C3
10
23.39594546369667
20
0.050000000000005596
0
VERTEX
8
C3
10
23.29594546369666
20
0.050000000000005596
0
VERTEX
8
C3
10
23.29594546369666
20
-0.04999999999999538
0
VERTEX
8
C3
10
23.39594546369667
20
-0.04999999999999538
0
SEQEND
0
POLYLINE
8
C3
66
1
70
1
0
VERTEX
8
C3
10
22.3233713061457
20
-0.9999999999999964
0
VERTEX
8
C3
10
22.2233713061457
20
-0.9999999999999964
0
VERTEX
8
C3
10
22.2233713061457
20
-1.0999999999999965
0
VERTEX
8
C3
10
22.3233713061457
20
-1.0999999999999965
0
VERTEX
8
C3
10
22.3233713061457
20
-0.9999999999999964
0
SEQEND
0
POLYLINE
8
C3
66
1
70
1
0
VERTEX
8
C3
10
23.74405453630332
20
0.050000000000005596
0
VERTEX
8
C3
10
23.74405453630332
20
-0.04999999999999538
0
VERTEX
8
C3
10
23.84405453630333
20
-0.04999999999999538
0
VERTEX
8
C3
10
23.84405453630333
20
0.050000000000005596
0
VERTEX
8
C3
10
23.74405453630332
20
0.050000000000005596
0
SEQEND
0
POLYLINE
8
C3
66
1
70
1
0
VERTEX
8
C3
10
24.108488698532412
20
1.0000000000000067
0
VERTEX
8
C3
10
24.108488698532412
20
1.1000000000000072
0
VERTEX
8
C3
10
24.00848869853241
20
1.1000000000000072
0
VERTEX
8
C3
10
24.00848869853241
20
1.0000000000000067
0
VERTEX
8
C3
10
24.108488698532412
20
1.0000000000000067
0
SEQEND
0
POLYLINE
8
C3
66
1
70
1
0
VERTEX
8
C3
10
24.12905453630333
20
-0.04999999999999538
0
VERTEX
8
C3
10
24.12905453630333
20
0.050000000000005596
0
VERTEX
8
C3
10
24.02905453630332
20
0.050000000000005596
0
VERTEX
8
C3
10
24.02905453630332
20
-0.04999999999999538
0
VERTEX
8
C3
10
24.12905453630333
20
-0.04999999999999538
0
SEQEND
0
POLYLINE
8
C3
66
1
70
1
0
VERTEX
8
C3
10
23.42537962592569
20
1.0000000000000067
0
VERTEX
8
C3
10
23.42537962592569
20
1.1000000000000072
0
VERTEX
8
C3
10
23.32537962592569
20
1.1000000000000072
0
VERTEX
8
C3
10
23.32537962592569
20
1.0000000000000067
0
VERTEX
8
C3
10
23.42537962592569
20
1.0000000000000067
0
SEQEND
0
POLYLINE
8
C3
66
1
70
1
0
VERTEX
8
C3
10
24.64691433134248
20
0.028952815038765678
0
VERTEX
8
C3
10
24.61796151630372
20
0.040945463696695494
0
VERTEX
8
C3
10
24.58900870126495
20
0.028952815038765678
0
VERTEX
8
C3
10
24.57701605260702
20
-5.329070518200751e-15
0
VERTEX
8
C3
10
24.58900870126496
20
-0.028952815038764346
0
VERTEX
8
C3
10
24.61796151630372
20
-0.040945463696704376
0
VERTEX
8
C3
10
24.64691433134248
20
-0.028952815038764346
0
VERTEX
8
C3
10
24.65890698000042
20
-5.329070518200751e-15
0
VERTEX
8
C3
10
24.64691433134248
20
0.028952815038765678
0
SEQEND
0
POLYLINE
8
C3
66
1
70
1
0
VERTEX
8
C3
10
22.86391867579149
20
0.9999999999999969
0
VERTEX
8
C3
10
22.86391867579149
20
1.1000000000000072
0
VERTEX
8
C3
10
22.76391867579149
20
1.1000000000000072
0
VERTEX
8
C3
10
22.76391867579149
20
0.9999999999999969
0
VERTEX
8
C3
10
22.86391867579149
20
0.9999999999999969
0
SEQEND
0
POLYLINE
8
C3
66
1
70
1
0
VERTEX
8
C3
10
21.75308566865752
20
-0.028952815038764346
0
VERTEX
8
C3
10
21.78203848369628
20
-0.040945463696704376
0
VERTEX
8
C3
10
21.81099129873504
20
-0.028952815038764346
0
VERTEX
8
C3
10
21.82298394739298
20
-5.329070518200751e-15
0
VERTEX
8
C3
10
21.81099129873505
20
0.028952815038765678
0
VERTEX
8
C3
10
21.78203848369628
20
0.040945463696695494
0
VERTEX
8
C3
10
21.75308566865752
20
0.028952815038765678
0
VERTEX
8
C3
10
21.741093019999578
20
-5.329070518200751e-15
0
VERTEX
8
C3
10
21.75308566865752
20
-0.028952815038764346
0
SEQEND
0
POLYLINE
8
C3
66
1
70
1
0
VERTEX
8
C3
10
22.04503944814101
20
1.1000000000000072
0
VERTEX
8
C3
10
21.94503944814101
20
1.1000000000000072
0
VERTEX
8
C3
10
21.94503944814101
20
1.0000000000000067
0
VERTEX
8
C3
10
22.04503944814101
20
1.0000000000000067
0
VERTEX
8
C3
10
22.04503944814101
20
1.1000000000000072
0
SEQEND
0
POLYLINE
8
C3
66
1
70
1
0
VERTEX
8
C3
10
24.44905453630333
20
-0.04999999999999538
0
VERTEX
8
C3
10
24.44905453630333
20
0.7444919420003466
0
VERTEX
8
C3
10
23.96805336599993
20
0.7444919420003466
0
VERTEX
8
C3
10
23.96805336599993
20
0.13768807944994554
0
VERTEX
8
C3
10
24.34905453630333
20
0.13768807944994554
0
VERTEX
8
C3
10
24.34905453630333
20
-0.04999999999999538
0
VERTEX
8
C3
10
24.44905453630333
20
-0.04999999999999538
0
SEQEND
0
POLYLINE
8
C3
66
1
70
1
0
VERTEX
8
C3
10
23.66499113840406
20
0.5800000000000063
0
VERTEX
8
C3
10
23.47
20
0.5800000000000063
0
VERTEX
8
C3
10
23.47
20
0.3700000000000059
0
VERTEX
8
C3
10
23.56499113840406
20
0.3700000000000059
0
VERTEX
8
C3
10
23.56499113840406
20
-0.27999999999999536
0
VERTEX
8
C3
10
23.66499113840406
20
-0.27999999999999536
0
VERTEX
8
C3
10
23.66499113840406
20
0.5800000000000063
0
SEQEND
0
POLYLINE
8
C3
66
1
70
1
0
VERTEX
8
C3
10
20.80000000000042
20
-2.1000000000003585
0
VERTEX
8
C3
10
25.59999999999958
20
-2.1000000000003585
0
VERTEX
8
C3
10
25.59999999999958
20
2.1000000000003585
0
VERTEX
8
C3
10
20.80000000000042
20
2.1000000000003585
0
VERTEX
8
C3
10
20.80000000000042
20
-2.1000000000003585
0
SEQEND
0
TEXT
8
0
62
92
10
22.6225
20
-3.4650000000000003
40
1.05
1
C3
0
POLYLINE
8
V3
66
1
70
1
0
VERTEX
8
V3
10
21.998547087998936
20
7.338918767013302
0
VERTEX
8
V3
10
21.969999999999995
20
7.3300000000000125
0
VERTEX
8
V3
10
21.956120681127747
20
7.303507639857912
0
VERTEX
8
V3
10
21.965039448141038
20
7.274960551858973
0
VERTEX
8
V3
10
21.99153180828314
20
7.261081232986712
0
VERTEX
8
V3
10
22.020078896282076
20
7.270000000000012
0
VERTEX
8
V3
10
22.033958215154335
20
7.296492360142112
0
VERTEX
8
V3
10
22.025039448141037
20
7.325039448141052
0
VERTEX
8
V3
10
21.998547087998936
20
7.338918767013302
0
SEQEND
0
POLYLINE
8
V3
66
1
70
1
0
VERTEX
8
V3
10
22.279999999999998
20
6.249999999999996
0
VERTEX
8
V3
10
22.291992648657928
20
6.221047184961235
0
VERTEX
8
V3
10
22.3209454636967
20
6.209054536303295
0
VERTEX
8
V3
10
22.349898278735456
20
6.221047184961235
0
VERTEX
8
V3
10
22.361890927393397
20
6.249999999999996
0
VERTEX
8
V3
10
22.349898278735456
20
6.278952815038767
0
VERTEX
8
V3
10
22.3209454636967
20
6.290945463696696
0
VERTEX
8
V3
10
22.291992648657928
20
6.278952815038767
0
VERTEX
8
V3
10
22.279999999999998
20
6.249999999999996
0
SEQEND
0
POLYLINE
8
V3
66
1
70
1
0
VERTEX
8
V3
10
22.248331858004686
20
5.229999999999999
0
VERTEX
8
V3
10
22.234452539132437
20
5.203507639857899
0
VERTEX
8
V3
10
22.243371306145725
20
5.174960551858959
0
VERTEX
8
V3
10
22.269863666287836
20
5.161081232986698
0
VERTEX
8
V3
10
22.298410754286767
20
5.17
0
VERTEX
8
V3
10
22.312290073159026
20
5.196492360142099
0
VERTEX
8
V3
10
22.303371306145728
20
5.22503944814104
0
VERTEX
8
V3
10
22.276878946003627
20
5.238918767013289
0
VERTEX
8
V3
10
22.248331858004686
20
5.229999999999999
0
SEQEND
0
POLYLINE
8
V3
66
1
70
1
0
VERTEX
8
V3
10
22.75
20
6.249999999999996
0
VERTEX
8
V3
10
22.76199264865793
20
6.221047184961235
0
VERTEX
8
V3
10
22.790945463696698
20
6.209054536303295
0
VERTEX
8
V3
10
22.819898278735458
20
6.221047184961235
0
VERTEX
8
V3
10
22.8318909273934
20
6.249999999999996
0
VERTEX
8
V3
10
22.819898278735458
20
6.278952815038767
0
VERTEX
8
V3
10
22.790945463696698
20
6.290945463696696
0
VERTEX
8
V3
10
22.76199264865793
20
6.278952815038767
0
VERTEX
8
V3
10
22.75
20
6.249999999999996
0
SEQEND
0
POLYLINE
8
V3
66
1
70
1
0
VERTEX
8
V3
10
24.033449250391403
20
7.270000000000012
0
VERTEX
8
V3
10
24.06199633839034
20
7.261081232986722
0
VERTEX
8
V3
10
24.08848869853244
20
7.274960551858973
0
VERTEX
8
V3
10
24.097407465545743
20
7.303507639857912
0
VERTEX
8
V3
10
24.08352814667348
20
7.3300000000000125
0
VERTEX
8
V3
10
24.054981058674553
20
7.338918767013302
0
VERTEX
8
V3
10
24.028488698532442
20
7.325039448141052
0
VERTEX
8
V3
10
24.01956993151915
20
7.296492360142112
0
VERTEX
8
V3
10
24.033449250391403
20
7.270000000000012
0
SEQEND
0
POLYLINE
8
V3
66
1
70
1
0
VERTEX
8
V3
10
22.817426315649417
20
7.338918767013302
0
VERTEX
8
V3
10
22.78887922765049
20
7.3300000000000125
0
VERTEX
8
V3
10
22.774999908778227
20
7.303507639857902
0
VERTEX
8
V3
10
22.78391867579153
20
7.274960551858973
0
VERTEX
8
V3
10
22.81041103593363
20
7.261081232986712
0
VERTEX
8
V3
10
22.838958123932567
20
7.270000000000012
0
VERTEX
8
V3
10
22.85283744280482
20
7.296492360142112
0
VERTEX
8
V3
10
22.843918675791528
20
7.325039448141052
0
VERTEX
8
V3
10
22.817426315649417
20
7.338918767013302
0
SEQEND
0
POLYLINE
8
V3
66
1
70
1
0
VERTEX
8
V3
10
24.05010172126459
20
6.221047184961235
0
VERTEX
8
V3
10
24.07905453630336
20
6.209054536303295
0
VERTEX
8
V3
10
24.10800735134212
20
6.221047184961235
0
VERTEX
8
V3
10
24.12000000000006
20
6.250000000000005
0
VERTEX
8
V3
10
24.10800735134212
20
6.278952815038767
0
VERTEX
8
V3
10
24.07905453630336
20
6.290945463696707
0
VERTEX
8
V3
10
24.05010172126459
20
6.278952815038767
0
VERTEX
8
V3
10
24.03810907260666
20
6.250000000000005
0
VERTEX
8
V3
10
24.05010172126459
20
6.221047184961235
0
SEQEND
0
POLYLINE
8
V3
66
1
70
1
0
VERTEX
8
V3
10
24.329921103717993
20
5.17
0
VERTEX
8
V3
10
24.358468191716923
20
5.161081232986709
0
VERTEX
8
V3
10
24.38496055185903
20
5.174960551858959
0
VERTEX
8
V3
10
24.393879318872322
20
5.203507639857899
0
VERTEX
8
V3
10
24.38000000000007
20
5.229999999999999
0
VERTEX
8
V3
10
24.351452912001132
20
5.238918767013289
0
VERTEX
8
V3
10
24.324960551859032
20
5.22503944814104
0
VERTEX
8
V3
10
24.31604178484573
20
5.196492360142099
0
VERTEX
8
V3
10
24.329921103717993
20
5.17
0
SEQEND
0
POLYLINE
8
V3
66
1
70
1
0
VERTEX
8
V3
10
23.35034017778468
20
7.270000000000012
0
VERTEX
8
V3
10
23.378887265783618
20
7.261081232986722
0
VERTEX
8
V3
10
23.40537962592572
20
7.274960551858973
0
VERTEX
8
V3
10
23.41429839293902
20
7.303507639857912
0
VERTEX
8
V3
10
23.40041907406676
20
7.3300000000000125
0
VERTEX
8
V3
10
23.37187198606782
20
7.338918767013302
0
VERTEX
8
V3
10
23.34537962592572
20
7.325039448141052
0
VERTEX
8
V3
10
23.336460858912428
20
7.296492360142112
0
VERTEX
8
V3
10
23.35034017778468
20
7.270000000000012
0
SEQEND
0
POLYLINE
8
V3
66
1
70
1
0
VERTEX
8
V3
10
21.753085668657516
20
6.221047184961235
0
VERTEX
8
V3
10
21.782038483696272
20
6.209054536303295
0
VERTEX
8
V3
10
21.810991298735036
20
6.221047184961235
0
VERTEX
8
V3
10
21.822983947392977
20
6.249999999999996
0
VERTEX
8
V3
10
21.810991298735047
20
6.278952815038767
0
VERTEX
8
V3
10
21.782038483696272
20
6.290945463696696
0
VERTEX
8
V3
10
21.753085668657516
20
6.278952815038767
0
VERTEX
8
V3
10
21.741093019999575
20
6.249999999999996
0
VERTEX
8
V3
10
21.753085668657516
20
6.221047184961235
0
SEQEND
0
POLYLINE
8
V3
66
1
70
1
0
VERTEX
8
V3
10
23.76510172126459
20
6.221047184961235
0
VERTEX
8
V3
10
23.79405453630336
20
6.209054536303295
0
VERTEX
8
V3
10
23.82300735134212
20
6.221047184961235
0
VERTEX
8
V3
10
23.83500000000006
20
6.250000000000005
0
VERTEX
8
V3
10
23.82300735134212
20
6.278952815038767
0
VERTEX
8
V3
10
23.79405453630336
20
6.290945463696707
0
VERTEX
8
V3
10
23.76510172126459
20
6.278952815038767
0
VERTEX
8
V3
10
23.753109072606662
20
6.250000000000005
0
VERTEX
8
V3
10
23.76510172126459
20
6.221047184961235
0
SEQEND
0
POLYLINE
8
V3
66
1
70
1
0
VERTEX
8
V3
10
24.646914331342483
20
6.278952815038767
0
VERTEX
8
V3
10
24.617961516303723
20
6.290945463696696
0
VERTEX
8
V3
10
24.58900870126495
20
6.278952815038767
0
VERTEX
8
V3
10
24.57701605260702
20
6.249999999999996
0
VERTEX
8
V3
10
24.589008701264962
20
6.221047184961235
0
VERTEX
8
V3
10
24.617961516303723
20
6.209054536303295
0
VERTEX
8
V3
10
24.646914331342483
20
6.221047184961235
0
VERTEX
8
V3
10
24.658906980000424
20
6.249999999999996
0
VERTEX
8
V3
10
24.646914331342483
20
6.278952815038767
0
SEQEND
0
POLYLINE
8
V3
66
1
70
1
0
VERTEX
8
V3
10
23.305
20
6.250000000000005
0
VERTEX
8
V3
10
23.31699264865793
20
6.221047184961235
0
VERTEX
8
V3
10
23.3459454636967
20
6.209054536303295
0
VERTEX
8
V3
10
23.374898278735458
20
6.221047184961235
0
VERTEX
8
V3
10
23.3868909273934
20
6.250000000000005
0
VERTEX
8
V3
10
23.374898278735458
20
6.278952815038767
0
VERTEX
8
V3
10
23.3459454636967
20
6.290945463696707
0
VERTEX
8
V3
10
23.31699264865793
20
6.278952815038767
0
VERTEX
8
V3
10
23.305
20
6.250000000000005
0
SEQEND
0
POLYLINE
8
V3
66
1
70
1
0
VERTEX
8
V3
10
24.3740545363033
20
6.219785945854696
0
VERTEX
8
V3
10
24.40274142934692
20
6.210957767897055
0
VERTEX
8
V3
10
24.4292685904486
20
6.225000000000005
0
VERTEX
8
V3
10
24.43809676840624
20
6.253686893043615
0
VERTEX
8
V3
10
24.424054536303302
20
6.280214054145306
0
VERTEX
8
V3
10
24.395367643259682
20
6.289042232102946
0
VERTEX
8
V3
10
24.368840482158003
20
6.275000000000007
0
VERTEX
8
V3
10
24.360012304200364
20
6.246313106956386
0
VERTEX
8
V3
10
24.3740545363033
20
6.219785945854696
0
SEQEND
0
POLYLINE
8
V3
66
1
70
1
0
VERTEX
8
V3
10
23.97081459359082
20
5.161081232986709
0
VERTEX
8
V3
10
23.99730695373292
20
5.174960551858959
0
VERTEX
8
V3
10
24.006225720746222
20
5.203507639857899
0
VERTEX
8
V3
10
23.992346401873963
20
5.229999999999999
0
VERTEX
8
V3
10
23.963799313875022
20
5.238918767013289
0
VERTEX
8
V3
10
23.93730695373292
20
5.22503944814104
0
VERTEX
8
V3
10
23.92838818671963
20
5.196492360142099
0
VERTEX
8
V3
10
23.942267505591882
20
5.17
0
VERTEX
8
V3
10
23.97081459359082
20
5.161081232986709
0
SEQEND
0
POLYLINE
8
V3
66
1
70
1
0
VERTEX
8
V3
10
23.57594890630114
20
6.016313106956384
0
VERTEX
8
V3
10
23.58999113840409
20
5.9897859458546945
0
VERTEX
8
V3
10
23.6186780314477
20
5.9809577678970545
0
VERTEX
8
V3
10
23.64520519254939
20
5.994999999999994
0
VERTEX
8
V3
10
23.65403337050703
20
6.023686893043614
0
VERTEX
8
V3
10
23.63999113840409
20
6.050214054145304
0
VERTEX
8
V3
10
23.611304245360472
20
6.059042232102945
0
VERTEX
8
V3
10
23.58477708425879
20
6.045000000000004
0
VERTEX
8
V3
10
23.57594890630114
20
6.016313106956384
0
SEQEND
0
POLYLINE
8
V3
66
1
70
1
0
VERTEX
8
V3
10
20.800000000000413
20
4.149999999999633
0
VERTEX
8
V3
10
25.599999999999582
20
4.149999999999633
0
VERTEX
8
V3
10
25.599999999999582
20
8.350000000000367
0
VERTEX
8
V3
10
20.800000000000413
20
8.350000000000367
0
VERTEX
8
V3
10
20.800000000000413
20
4.149999999999633
0
SEQEND
0
TEXT
8
0
62
102
10
22.6225
20
2.6
40
1.05
1
V3
0
POLYLINE
8
C2
66
1
70
1
0
VERTEX
8
C2
10
27.75094546369667
20
-0.04999999999999538
0
VERTEX
8
C2
10
27.85094546369667
20
-0.04999999999999538
0
VERTEX
8
C2
10
27.85094546369667
20
0.18768807944994514
0
VERTEX
8
C2
10
28.331946634000072
20
0.18768807944994514
0
VERTEX
8
C2
10
28.331946634000072
20
0.8444919420003456
0
VERTEX
8
C2
10
27.75094546369667
20
0.8444919420003456
0
VERTEX
8
C2
10
27.75094546369667
20
-0.04999999999999538
0
SEQEND
0
POLYLINE
8
C2
66
1
70
1
0
VERTEX
8
C2
10
30.10496055185899
20
-0.9999999999999967
0
VERTEX
8
C2
10
30.10496055185899
20
-1.0999999999999954
0
VERTEX
8
C2
10
30.204960551858992
20
-1.0999999999999954
0
VERTEX
8
C2
10
30.204960551858992
20
-0.9999999999999967
0
VERTEX
8
C2
10
30.10496055185899
20
-0.9999999999999967
0
SEQEND
0
POLYLINE
8
C2
66
1
70
1
0
VERTEX
8
C2
10
28.07094546369666
20
0.05000000000000493
0
VERTEX
8
C2
10
28.07094546369666
20
-0.04999999999999538
0
VERTEX
8
C2
10
28.170945463696672
20
-0.04999999999999538
0
VERTEX
8
C2
10
28.170945463696672
20
0.05000000000000493
0
VERTEX
8
C2
10
28.07094546369666
20
0.05000000000000493
0
SEQEND
0
POLYLINE
8
C2
66
1
70
1
0
VERTEX
8
C2
10
29.817306953732892
20
-0.9999999999999967
0
VERTEX
8
C2
10
29.71730695373289
20
-0.9999999999999967
0
VERTEX
8
C2
10
29.71730695373289
20
-1.0999999999999954
0
VERTEX
8
C2
10
29.817306953732892
20
-1.0999999999999954
0
VERTEX
8
C2
10
29.817306953732892
20
-0.9999999999999967
0
SEQEND
0
POLYLINE
8
C2
66
1
70
1
0
VERTEX
8
C2
10
28.540945463696662
20
-0.04999999999999538
0
VERTEX
8
C2
10
28.64094546369667
20
-0.04999999999999538
0
VERTEX
8
C2
10
28.64094546369667
20
0.05000000000000493
0
VERTEX
8
C2
10
28.540945463696662
20
0.05000000000000493
0
VERTEX
8
C2
10
28.540945463696662
20
-0.04999999999999538
0
SEQEND
0
POLYLINE
8
C2
66
1
70
1
0
VERTEX
8
C2
10
28.1233713061457
20
-1.0999999999999954
0
VERTEX
8
C2
10
28.1233713061457
20
-0.9999999999999967
0
VERTEX
8
C2
10
28.0233713061457
20
-0.9999999999999967
0
VERTEX
8
C2
10
28.0233713061457
20
-1.0999999999999954
0
VERTEX
8
C2
10
28.1233713061457
20
-1.0999999999999954
0
SEQEND
0
POLYLINE
8
C2
66
1
70
1
0
VERTEX
8
C2
10
29.54405453630332
20
-0.04999999999999538
0
VERTEX
8
C2
10
29.64405453630333
20
-0.04999999999999538
0
VERTEX
8
C2
10
29.64405453630333
20
0.05000000000000493
0
VERTEX
8
C2
10
29.54405453630332
20
0.05000000000000493
0
VERTEX
8
C2
10
29.54405453630332
20
-0.04999999999999538
0
SEQEND
0
POLYLINE
8
C2
66
1
70
1
0
VERTEX
8
C2
10
29.80848869853241
20
1.1000000000000056
0
VERTEX
8
C2
10
29.80848869853241
20
1.0000000000000056
0
VERTEX
8
C2
10
29.90848869853241
20
1.0000000000000056
0
VERTEX
8
C2
10
29.90848869853241
20
1.1000000000000056
0
VERTEX
8
C2
10
29.80848869853241
20
1.1000000000000056
0
SEQEND
0
POLYLINE
8
C2
66
1
70
1
0
VERTEX
8
C2
10
30.44691433134248
20
0.028952815038765012
0
VERTEX
8
C2
10
30.41796151630372
20
0.04094546369669483
0
VERTEX
8
C2
10
30.38900870126495
20
0.028952815038765012
0
VERTEX
8
C2
10
30.377016052607022
20
-5.551115123125783e-15
0
VERTEX
8
C2
10
30.38900870126496
20
-0.028952815038765456
0
VERTEX
8
C2
10
30.41796151630372
20
-0.040945463696705486
0
VERTEX
8
C2
10
30.44691433134248
20
-0.028952815038765456
0
VERTEX
8
C2
10
30.45890698000042
20
-5.551115123125783e-15
0
VERTEX
8
C2
10
30.44691433134248
20
0.028952815038765012
0
SEQEND
0
POLYLINE
8
C2
66
1
70
1
0
VERTEX
8
C2
10
29.22537962592569
20
1.1000000000000056
0
VERTEX
8
C2
10
29.125379625925692
20
1.1000000000000056
0
VERTEX
8
C2
10
29.125379625925692
20
1.0000000000000056
0
VERTEX
8
C2
10
29.22537962592569
20
1.0000000000000056
0
VERTEX
8
C2
10
29.22537962592569
20
1.1000000000000056
0
SEQEND
0
POLYLINE
8
C2
66
1
70
1
0
VERTEX
8
C2
10
27.55308566865752
20
-0.028952815038765456
0
VERTEX
8
C2
10
27.58203848369628
20
-0.040945463696705486
0
VERTEX
8
C2
10
27.61099129873504
20
-0.028952815038765456
0
VERTEX
8
C2
10
27.62298394739298
20
-5.551115123125783e-15
0
VERTEX
8
C2
10
27.61099129873505
20
0.028952815038765012
0
VERTEX
8
C2
10
27.58203848369628
20
0.04094546369669483
0
VERTEX
8
C2
10
27.55308566865752
20
0.028952815038765012
0
VERTEX
8
C2
10
27.54109301999958
20
-5.551115123125783e-15
0
VERTEX
8
C2
10
27.55308566865752
20
-0.028952815038765456
0
SEQEND
0
POLYLINE
8
C2
66
1
70
1
0
VERTEX
8
C2
10
28.66391867579149
20
1.1000000000000056
0
VERTEX
8
C2
10
28.56391867579149
20
1.1000000000000056
0
VERTEX
8
C2
10
28.56391867579149
20
0.9999999999999958
0
VERTEX
8
C2
10
28.66391867579149
20
0.9999999999999958
0
VERTEX
8
C2
10
28.66391867579149
20
1.1000000000000056
0
SEQEND
0
POLYLINE
8
C2
66
1
70
1
0
VERTEX
8
C2
10
29.47499113840405
20
-0.5599999999999954
0
VERTEX
8
C2
10
29.66
20
-0.5599999999999954
0
VERTEX
8
C2
10
29.66
20
-0.8626807201361055
0
VERTEX
8
C2
10
30.425893196363113
20
-0.8626807201361055
0
VERTEX
8
C2
10
30.425893196363113
20
-0.14999999999999547
0
VERTEX
8
C2
10
29.92905453630333
20
-0.14999999999999547
0
VERTEX
8
C2
10
29.92905453630333
20
0.130000000000005
0
VERTEX
8
C2
10
30.27905453630333
20
0.130000000000005
0
VERTEX
8
C2
10
30.27905453630333
20
0.8289533994795157
0
VERTEX
8
C2
10
29.74905453630333
20
0.8289533994795157
0
VERTEX
8
C2
10
29.74905453630333
20
0.130000000000005
0
VERTEX
8
C2
10
29.82905453630333
20
0.130000000000005
0
VERTEX
8
C2
10
29.82905453630333
20
-0.1799999999999955
0
VERTEX
8
C2
10
29.31499113840405
20
-0.1799999999999955
0
VERTEX
8
C2
10
29.31499113840405
20
-0.5626807201361055
0
VERTEX
8
C2
10
29.47499113840405
20
-0.5626807201361055
0
VERTEX
8
C2
10
29.47499113840405
20
-0.5599999999999954
0
SEQEND
0
POLYLINE
8
C2
66
1
70
1
0
VERTEX
8
C2
10
27.74503944814101
20
1.0000000000000056
0
VERTEX
8
C2
10
27.845039448141012
20
1.0000000000000056
0
VERTEX
8
C2
10
27.845039448141012
20
1.1000000000000056
0
VERTEX
8
C2
10
27.74503944814101
20
1.1000000000000056
0
VERTEX
8
C2
10
27.74503944814101
20
1.0000000000000056
0
SEQEND
0
POLYLINE
8
C2
66
1
70
1
0
VERTEX
8
C2
10
28.080000000000002
20
-0.8226807201361055
0
VERTEX
8
C2
10
28.92104765138786
20
-0.8226807201361055
0
VERTEX
8
C2
10
28.92104765138786
20
-0.34699271926797537
0
VERTEX
8
C2
10
29.19594546369667
20
-0.34699271926797537
0
VERTEX
8
C2
10
29.19594546369667
20
0.130000000000005
0
VERTEX
8
C2
10
29.580945463696672
20
0.130000000000005
0
VERTEX
8
C2
10
29.580945463696672
20
0.6789533994795158
0
VERTEX
8
C2
10
28.670945463696672
20
0.6789533994795158
0
VERTEX
8
C2
10
28.670945463696672
20
0.130000000000005
0
VERTEX
8
C2
10
29.095945463696673
20
0.130000000000005
0
VERTEX
8
C2
10
29.095945463696673
20
-0.13999999999999546
0
VERTEX
8
C2
10
28.72188206579739
20
-0.13999999999999546
0
VERTEX
8
C2
10
28.72188206579739
20
-0.49999999999999556
0
VERTEX
8
C2
10
28.080000000000002
20
-0.49999999999999556
0
VERTEX
8
C2
10
28.080000000000002
20
-0.8226807201361055
0
SEQEND
0
POLYLINE
8
C2
66
1
70
1
0
VERTEX
8
C2
10
30.174054536303302
20
-0.030214054145305536
0
VERTEX
8
C2
10
30.202741429346922
20
-0.03904223210294555
0
VERTEX
8
C2
10
30.2292685904486
20
-0.02499999999999547
0
VERTEX
8
C2
10
30.23809676840624
20
0.003686893043614914
0
VERTEX
8
C2
10
30.2240545363033
20
0.03021405414530487
0
VERTEX
8
C2
10
30.19536764325968
20
0.039042232102944885
0
VERTEX
8
C2
10
30.168840482158
20
0.025000000000005018
0
VERTEX
8
C2
10
30.16001230420036
20
-0.003686893043615358
0
VERTEX
8
C2
10
30.174054536303302
20
-0.030214054145305536
0
SEQEND
0
POLYLINE
8
C2
66
1
70
1
0
VERTEX
8
C2
10
26.60000000000042
20
-2.1000000000003567
0
VERTEX
8
C2
10
31.39999999999958
20
-2.1000000000003567
0
VERTEX
8
C2
10
31.39999999999958
20
2.1000000000003567
0
VERTEX
8
C2
10
26.60000000000042
20
2.1000000000003567
0
VERTEX
8
C2
10
26.60000000000042
20
-2.1000000000003567
0
SEQEND
0
TEXT
8
0
62
112
10
28.4225
20
-3.4650000000000003
40
1.05
1
C2
0
POLYLINE
8
V2
66
1
70
1
0
VERTEX
8
V2
10
27.798547087998937
20
7.338918767013301
0
VERTEX
8
V2
10
27.769999999999996
20
7.330000000000012
0
VERTEX
8
V2
10
27.756120681127747
20
7.303507639857911
0
VERTEX
8
V2
10
27.76503944814104
20
7.274960551858971
0
VERTEX
8
V2
10
27.79153180828314
20
7.261081232986711
0
VERTEX
8
V2
10
27.820078896282077
20
7.270000000000011
0
VERTEX
8
V2
10
27.833958215154336
20
7.296492360142111
0
VERTEX
8
V2
10
27.825039448141037
20
7.325039448141051
0
VERTEX
8
V2
10
27.798547087998937
20
7.338918767013301
0
SEQEND
0
POLYLINE
8
V2
66
1
70
1
0
VERTEX
8
V2
10
28.549999999999997
20
6.249999999999996
0
VERTEX
8
V2
10
28.561992648657927
20
6.221047184961235
0
VERTEX
8
V2
10
28.5909454636967
20
6.209054536303295
0
VERTEX
8
V2
10
28.61989827873546
20
6.221047184961235
0
VERTEX
8
V2
10
28.6318909273934
20
6.249999999999996
0
VERTEX
8
V2
10
28.61989827873546
20
6.278952815038767
0
VERTEX
8
V2
10
28.5909454636967
20
6.290945463696696
0
VERTEX
8
V2
10
28.561992648657927
20
6.278952815038767
0
VERTEX
8
V2
10
28.549999999999997
20
6.249999999999996
0
SEQEND
0
POLYLINE
8
V2
66
1
70
1
0
VERTEX
8
V2
10
28.08
20
6.249999999999996
0
VERTEX
8
V2
10
28.09199264865793
20
6.221047184961235
0
VERTEX
8
V2
10
28.1209454636967
20
6.209054536303295
0
VERTEX
8
V2
10
28.149898278735456
20
6.221047184961235
0
VERTEX
8
V2
10
28.161890927393397
20
6.249999999999996
0
VERTEX
8
V2
10
28.149898278735456
20
6.278952815038767
0
VERTEX
8
V2
10
28.1209454636967
20
6.290945463696696
0
VERTEX
8
V2
10
28.09199264865793
20
6.278952815038767
0
VERTEX
8
V2
10
28.08
20
6.249999999999996
0
SEQEND
0
POLYLINE
8
V2
66
1
70
1
0
VERTEX
8
V2
10
28.617426315649418
20
7.338918767013301
0
VERTEX
8
V2
10
28.588879227650487
20
7.330000000000012
0
VERTEX
8
V2
10
28.574999908778228
20
7.3035076398579015
0
VERTEX
8
V2
10
28.58391867579153
20
7.274960551858971
0
VERTEX
8
V2
10
28.61041103593363
20
7.261081232986711
0
VERTEX
8
V2
10
28.638958123932568
20
7.270000000000011
0
VERTEX
8
V2
10
28.65283744280482
20
7.296492360142111
0
VERTEX
8
V2
10
28.64391867579153
20
7.325039448141051
0
VERTEX
8
V2
10
28.617426315649418
20
7.338918767013301
0
SEQEND
0
POLYLINE
8
V2
66
1
70
1
0
VERTEX
8
V2
10
28.048331858004687
20
5.23
0
VERTEX
8
V2
10
28.034452539132438
20
5.2035076398579
0
VERTEX
8
V2
10
28.043371306145726
20
5.174960551858959
0
VERTEX
8
V2
10
28.069863666287837
20
5.1610812329866995
0
VERTEX
8
V2
10
28.098410754286768
20
5.17
0
VERTEX
8
V2
10
28.112290073159027
20
5.1964923601421
0
VERTEX
8
V2
10
28.10337130614573
20
5.2250394481410405
0
VERTEX
8
V2
10
28.076878946003628
20
5.23891876701329
0
VERTEX
8
V2
10
28.048331858004687
20
5.23
0
SEQEND
0
POLYLINE
8
V2
66
1
70
1
0
VERTEX
8
V2
10
30.12992110371799
20
5.17
0
VERTEX
8
V2
10
30.15846819171692
20
5.161081232986709
0
VERTEX
8
V2
10
30.18496055185903
20
5.174960551858959
0
VERTEX
8
V2
10
30.19387931887232
20
5.2035076398579
0
VERTEX
8
V2
10
30.18000000000007
20
5.23
0
VERTEX
8
V2
10
30.151452912001133
20
5.23891876701329
0
VERTEX
8
V2
10
30.124960551859033
20
5.2250394481410405
0
VERTEX
8
V2
10
30.11604178484573
20
5.1964923601421
0
VERTEX
8
V2
10
30.12992110371799
20
5.17
0
SEQEND
0
POLYLINE
8
V2
66
1
70
1
0
VERTEX
8
V2
10
29.8334492503914
20
7.270000000000011
0
VERTEX
8
V2
10
29.86199633839034
20
7.2610812329867205
0
VERTEX
8
V2
10
29.88848869853244
20
7.274960551858971
0
VERTEX
8
V2
10
29.89740746554574
20
7.303507639857911
0
VERTEX
8
V2
10
29.88352814667348
20
7.330000000000012
0
VERTEX
8
V2
10
29.85498105867455
20
7.338918767013301
0
VERTEX
8
V2
10
29.828488698532443
20
7.325039448141051
0
VERTEX
8
V2
10
29.81956993151915
20
7.296492360142111
0
VERTEX
8
V2
10
29.8334492503914
20
7.270000000000011
0
SEQEND
0
POLYLINE
8
V2
66
1
70
1
0
VERTEX
8
V2
10
27.553085668657516
20
6.221047184961235
0
VERTEX
8
V2
10
27.582038483696273
20
6.209054536303295
0
VERTEX
8
V2
10
27.610991298735037
20
6.221047184961235
0
VERTEX
8
V2
10
27.622983947392978
20
6.249999999999996
0
VERTEX
8
V2
10
27.610991298735048
20
6.278952815038767
0
VERTEX
8
V2
10
27.582038483696273
20
6.290945463696696
0
VERTEX
8
V2
10
27.553085668657516
20
6.278952815038767
0
VERTEX
8
V2
10
27.541093019999575
20
6.249999999999996
0
VERTEX
8
V2
10
27.553085668657516
20
6.221047184961235
0
SEQEND
0
POLYLINE
8
V2
66
1
70
1
0
VERTEX
8
V2
10
29.150340177784678
20
7.270000000000011
0
VERTEX
8
V2
10
29.17888726578362
20
7.2610812329867205
0
VERTEX
8
V2
10
29.20537962592572
20
7.274960551858971
0
VERTEX
8
V2
10
29.214298392939018
20
7.303507639857911
0
VERTEX
8
V2
10
29.20041907406676
20
7.330000000000012
0
VERTEX
8
V2
10
29.17187198606782
20
7.338918767013301
0
VERTEX
8
V2
10
29.14537962592572
20
7.325039448141051
0
VERTEX
8
V2
10
29.13646085891243
20
7.296492360142111
0
VERTEX
8
V2
10
29.150340177784678
20
7.270000000000011
0
SEQEND
0
POLYLINE
8
V2
66
1
70
1
0
VERTEX
8
V2
10
30.446914331342484
20
6.278952815038767
0
VERTEX
8
V2
10
30.41796151630372
20
6.290945463696696
0
VERTEX
8
V2
10
30.389008701264952
20
6.278952815038767
0
VERTEX
8
V2
10
30.377016052607022
20
6.249999999999996
0
VERTEX
8
V2
10
30.389008701264963
20
6.221047184961235
0
VERTEX
8
V2
10
30.41796151630372
20
6.209054536303295
0
VERTEX
8
V2
10
30.446914331342484
20
6.221047184961235
0
VERTEX
8
V2
10
30.45890698000042
20
6.249999999999996
0
VERTEX
8
V2
10
30.446914331342484
20
6.278952815038767
0
SEQEND
0
POLYLINE
8
V2
66
1
70
1
0
VERTEX
8
V2
10
29.56510172126459
20
6.221047184961235
0
VERTEX
8
V2
10
29.59405453630336
20
6.209054536303295
0
VERTEX
8
V2
10
29.62300735134212
20
6.221047184961235
0
VERTEX
8
V2
10
29.635000000000062
20
6.250000000000005
0
VERTEX
8
V2
10
29.62300735134212
20
6.278952815038767
0
VERTEX
8
V2
10
29.59405453630336
20
6.290945463696707
0
VERTEX
8
V2
10
29.56510172126459
20
6.278952815038767
0
VERTEX
8
V2
10
29.55310907260666
20
6.250000000000005
0
VERTEX
8
V2
10
29.56510172126459
20
6.221047184961235
0
SEQEND
0
POLYLINE
8
V2
66
1
70
1
0
VERTEX
8
V2
10
30.174054536303302
20
6.219785945854696
0
VERTEX
8
V2
10
30.202741429346922
20
6.210957767897055
0
VERTEX
8
V2
10
30.2292685904486
20
6.225000000000005
0
VERTEX
8
V2
10
30.23809676840624
20
6.253686893043615
0
VERTEX
8
V2
10
30.2240545363033
20
6.280214054145306
0
VERTEX
8
V2
10
30.19536764325968
20
6.289042232102947
0
VERTEX
8
V2
10
30.168840482158
20
6.275000000000007
0
VERTEX
8
V2
10
30.16001230420036
20
6.246313106956386
0
VERTEX
8
V2
10
30.174054536303302
20
6.219785945854696
0
SEQEND
0
POLYLINE
8
V2
66
1
70
1
0
VERTEX
8
V2
10
29.77081459359082
20
5.161081232986709
0
VERTEX
8
V2
10
29.79730695373292
20
5.174960551858959
0
VERTEX
8
V2
10
29.80622572074622
20
5.2035076398579
0
VERTEX
8
V2
10
29.79234640187396
20
5.23
0
VERTEX
8
V2
10
29.763799313875023
20
5.23891876701329
0
VERTEX
8
V2
10
29.73730695373292
20
5.2250394481410405
0
VERTEX
8
V2
10
29.72838818671963
20
5.1964923601421
0
VERTEX
8
V2
10
29.742267505591883
20
5.17
0
VERTEX
8
V2
10
29.77081459359082
20
5.161081232986709
0
SEQEND
0
POLYLINE
8
V2
66
1
70
1
0
VERTEX
8
V2
10
27.797258570653078
20
6.289042232102947
0
VERTEX
8
V2
10
27.7707314095514
20
6.275000000000007
0
VERTEX
8
V2
10
27.761903231593756
20
6.246313106956386
0
VERTEX
8
V2
10
27.775945463696697
20
6.219785945854696
0
VERTEX
8
V2
10
27.804632356740317
20
6.210957767897055
0
VERTEX
8
V2
10
27.831159517841996
20
6.225000000000005
0
VERTEX
8
V2
10
27.83998769579964
20
6.253686893043615
0
VERTEX
8
V2
10
27.825945463696698
20
6.280214054145306
0
VERTEX
8
V2
10
27.797258570653078
20
6.289042232102947
0
SEQEND
0
POLYLINE
8
V2
66
1
70
1
0
VERTEX
8
V2
10
26.600000000000414
20
4.149999999999634
0
VERTEX
8
V2
10
31.399999999999583
20
4.149999999999634
0
VERTEX
8
V2
10
31.399999999999583
20
8.350000000000367
0
VERTEX
8
V2
10
26.600000000000414
20
8.350000000000367
0
VERTEX
8
V2
10
26.600000000000414
20
4.149999999999634
0
SEQEND
0
TEXT
8
0
62
122
10
28.4225
20
2.6
40
1.05
1
V2
0
POLYLINE
8
C1
66
1
70
1
0
VERTEX
8
C1
10
35.44405453630333
20
0.05000000000000518
0
VERTEX
8
C1
10
35.344054536303325
20
0.05000000000000518
0
VERTEX
8
C1
10
35.344054536303325
20
-0.02999999999999492
0
VERTEX
8
C1
10
35.08905453630333
20
-0.02999999999999492
0
VERTEX
8
C1
10
35.08905453630333
20
-0.8789533994795149
0
VERTEX
8
C1
10
35.719054536303325
20
-0.8789533994795149
0
VERTEX
8
C1
10
35.719054536303325
20
-0.12999999999999504
0
VERTEX
8
C1
10
35.44405453630333
20
-0.12999999999999504
0
VERTEX
8
C1
10
35.44405453630333
20
0.05000000000000518
0
SEQEND
0
POLYLINE
8
C1
66
1
70
1
0
VERTEX
8
C1
10
35.02537962592569
20
1.100000000000005
0
VERTEX
8
C1
10
34.925379625925686
20
1.100000000000005
0
VERTEX
8
C1
10
34.925379625925686
20
1.0000000000000049
0
VERTEX
8
C1
10
35.02537962592569
20
1.0000000000000049
0
VERTEX
8
C1
10
35.02537962592569
20
1.100000000000005
0
SEQEND
0
POLYLINE
8
C1
66
1
70
1
0
VERTEX
8
C1
10
35.708488698532406
20
1.100000000000005
0
VERTEX
8
C1
10
35.608488698532405
20
1.100000000000005
0
VERTEX
8
C1
10
35.608488698532405
20
1.0000000000000049
0
VERTEX
8
C1
10
35.708488698532406
20
1.0000000000000049
0
VERTEX
8
C1
10
35.708488698532406
20
1.100000000000005
0
SEQEND
0
POLYLINE
8
C1
66
1
70
1
0
VERTEX
8
C1
10
34.36391867579149
20
1.100000000000005
0
VERTEX
8
C1
10
34.36391867579149
20
0.9999999999999949
0
VERTEX
8
C1
10
34.46391867579149
20
0.9999999999999949
0
VERTEX
8
C1
10
34.46391867579149
20
1.100000000000005
0
VERTEX
8
C1
10
34.36391867579149
20
1.100000000000005
0
SEQEND
0
POLYLINE
8
C1
66
1
70
1
0
VERTEX
8
C1
10
33.9233713061457
20
-0.9999999999999949
0
VERTEX
8
C1
10
33.823371306145695
20
-0.9999999999999949
0
VERTEX
8
C1
10
33.823371306145695
20
-1.099999999999995
0
VERTEX
8
C1
10
33.9233713061457
20
-1.099999999999995
0
VERTEX
8
C1
10
33.9233713061457
20
-0.9999999999999949
0
SEQEND
0
POLYLINE
8
C1
66
1
70
1
0
VERTEX
8
C1
10
33.54503944814101
20
1.0000000000000049
0
VERTEX
8
C1
10
33.645039448141006
20
1.0000000000000049
0
VERTEX
8
C1
10
33.645039448141006
20
1.100000000000005
0
VERTEX
8
C1
10
33.54503944814101
20
1.100000000000005
0
VERTEX
8
C1
10
33.54503944814101
20
1.0000000000000049
0
SEQEND
0
POLYLINE
8
C1
66
1
70
1
0
VERTEX
8
C1
10
35.517306953732884
20
-1.099999999999995
0
VERTEX
8
C1
10
35.617306953732886
20
-1.099999999999995
0
VERTEX
8
C1
10
35.617306953732886
20
-0.9999999999999949
0
VERTEX
8
C1
10
35.517306953732884
20
-0.9999999999999949
0
VERTEX
8
C1
10
35.517306953732884
20
-1.099999999999995
0
SEQEND
0
POLYLINE
8
C1
66
1
70
1
0
VERTEX
8
C1
10
34.27094546369667
20
-0.8789533994795149
0
VERTEX
8
C1
10
34.74094546369667
20
-0.8789533994795149
0
VERTEX
8
C1
10
34.74094546369667
20
-0.12999999999999504
0
VERTEX
8
C1
10
34.440945463696664
20
-0.12999999999999504
0
VERTEX
8
C1
10
34.440945463696664
20
0.05000000000000518
0
VERTEX
8
C1
10
34.34094546369667
20
0.05000000000000518
0
VERTEX
8
C1
10
34.34094546369667
20
-0.12999999999999504
0
VERTEX
8
C1
10
34.27094546369667
20
-0.12999999999999504
0
VERTEX
8
C1
10
34.27094546369667
20
-0.8789533994795149
0
SEQEND
0
POLYLINE
8
C1
66
1
70
1
0
VERTEX
8
C1
10
35.90496055185899
20
-1.099999999999995
0
VERTEX
8
C1
10
36.004960551858986
20
-1.099999999999995
0
VERTEX
8
C1
10
36.004960551858986
20
-0.9999999999999949
0
VERTEX
8
C1
10
35.90496055185899
20
-0.9999999999999949
0
VERTEX
8
C1
10
35.90496055185899
20
-1.099999999999995
0
SEQEND
0
POLYLINE
8
C1
66
1
70
1
0
VERTEX
8
C1
10
33.87094546369667
20
-0.049999999999994924
0
VERTEX
8
C1
10
33.970945463696665
20
-0.049999999999994924
0
VERTEX
8
C1
10
33.970945463696665
20
0.13000000000000517
0
VERTEX
8
C1
10
34.25094546369667
20
0.13000000000000517
0
VERTEX
8
C1
10
34.25094546369667
20
0.8789533994795149
0
VERTEX
8
C1
10
33.73094546369667
20
0.8789533994795149
0
VERTEX
8
C1
10
33.73094546369667
20
0.13000000000000517
0
VERTEX
8
C1
10
33.87094546369667
20
0.13000000000000517
0
VERTEX
8
C1
10
33.87094546369667
20
-0.049999999999994924
0
SEQEND
0
POLYLINE
8
C1
66
1
70
1
0
VERTEX
8
C1
10
36.25
20
-0.14999999999999503
0
VERTEX
8
C1
10
37.19999999999958
20
-0.14999999999999503
0
VERTEX
8
C1
10
37.19999999999958
20
0.05000000000000518
0
VERTEX
8
C1
10
35.899054536303325
20
0.05000000000000518
0
VERTEX
8
C1
10
35.899054536303325
20
-0.8789533994795149
0
VERTEX
8
C1
10
36.25
20
-0.8789533994795149
0
VERTEX
8
C1
10
36.25
20
-0.14999999999999503
0
SEQEND
0
POLYLINE
8
C1
66
1
70
1
0
VERTEX
8
C1
10
33.08
20
-0.8589533994795149
0
VERTEX
8
C1
10
33.86
20
-0.8589533994795149
0
VERTEX
8
C1
10
33.86
20
-0.369999999999995
0
VERTEX
8
C1
10
33.650945463696665
20
-0.369999999999995
0
VERTEX
8
C1
10
33.650945463696665
20
0.05000000000000518
0
VERTEX
8
C1
10
32.40000000000042
20
0.05000000000000518
0
VERTEX
8
C1
10
32.40000000000042
20
-0.14999999999999503
0
VERTEX
8
C1
10
33.08
20
-0.14999999999999503
0
VERTEX
8
C1
10
33.08
20
-0.8589533994795149
0
SEQEND
0
POLYLINE
8
C1
66
1
70
1
0
VERTEX
8
C1
10
32.40000000000042
20
-2.100000000000355
0
VERTEX
8
C1
10
37.19999999999958
20
-2.100000000000355
0
VERTEX
8
C1
10
37.19999999999958
20
2.100000000000355
0
VERTEX
8
C1
10
32.40000000000042
20
2.100000000000355
0
VERTEX
8
C1
10
32.40000000000042
20
-2.100000000000355
0
SEQEND
0
TEXT
8
0
62
132
10
34.2225
20
-3.4650000000000003
40
1.05
1
C1
0
POLYLINE
8
V1
66
1
70
1
0
VERTEX
8
V1
10
33.59854708799893
20
7.3389187670133
0
VERTEX
8
V1
10
33.56999999999999
20
7.33000000000001
0
VERTEX
8
V1
10
33.556120681127744
20
7.3035076398579095
0
VERTEX
8
V1
10
33.565039448141036
20
7.274960551858969
0
VERTEX
8
V1
10
33.591531808283136
20
7.261081232986709
0
VERTEX
8
V1
10
33.620078896282074
20
7.270000000000009
0
VERTEX
8
V1
10
33.63395821515434
20
7.29649236014211
0
VERTEX
8
V1
10
33.62503944814103
20
7.325039448141049
0
VERTEX
8
V1
10
33.59854708799893
20
7.3389187670133
0
SEQEND
0
POLYLINE
8
V1
66
1
70
1
0
VERTEX
8
V1
10
35.66199633839034
20
7.261081232986719
0
VERTEX
8
V1
10
35.68848869853244
20
7.274960551858969
0
VERTEX
8
V1
10
35.69740746554574
20
7.3035076398579095
0
VERTEX
8
V1
10
35.683528146673474
20
7.33000000000001
0
VERTEX
8
V1
10
35.65498105867455
20
7.3389187670133
0
VERTEX
8
V1
10
35.628488698532436
20
7.325039448141049
0
VERTEX
8
V1
10
35.619569931519145
20
7.29649236014211
0
VERTEX
8
V1
10
35.6334492503914
20
7.270000000000009
0
VERTEX
8
V1
10
35.66199633839034
20
7.261081232986719
0
SEQEND
0
POLYLINE
8
V1
66
1
70
1
0
VERTEX
8
V1
10
33.848331858004684
20
5.23
0
VERTEX
8
V1
10
33.834452539132435
20
5.2035076398579
0
VERTEX
8
V1
10
33.84337130614573
20
5.174960551858959
0
VERTEX
8
V1
10
33.869863666287834
20
5.1610812329866995
0
VERTEX
8
V1
10
33.898410754286765
20
5.17
0
VERTEX
8
V1
10
33.91229007315903
20
5.1964923601421
0
VERTEX
8
V1
10
33.90337130614572
20
5.2250394481410405
0
VERTEX
8
V1
10
33.87687894600362
20
5.23891876701329
0
VERTEX
8
V1
10
33.848331858004684
20
5.23
0
SEQEND
0
POLYLINE
8
V1
66
1
70
1
0
VERTEX
8
V1
10
34.950340177784675
20
7.270000000000009
0
VERTEX
8
V1
10
34.97888726578362
20
7.261081232986719
0
VERTEX
8
V1
10
35.00537962592572
20
7.274960551858969
0
VERTEX
8
V1
10
35.01429839293902
20
7.3035076398579095
0
VERTEX
8
V1
10
35.000419074066755
20
7.33000000000001
0
VERTEX
8
V1
10
34.97187198606782
20
7.3389187670133
0
VERTEX
8
V1
10
34.94537962592572
20
7.325039448141049
0
VERTEX
8
V1
10
34.936460858912426
20
7.29649236014211
0
VERTEX
8
V1
10
34.950340177784675
20
7.270000000000009
0
SEQEND
0
POLYLINE
8
V1
66
1
70
1
0
VERTEX
8
V1
10
34.417426315649415
20
7.3389187670133
0
VERTEX
8
V1
10
34.388879227650484
20
7.33000000000001
0
VERTEX
8
V1
10
34.37499990877823
20
7.3035076398579
0
VERTEX
8
V1
10
34.38391867579153
20
7.274960551858969
0
VERTEX
8
V1
10
34.41041103593363
20
7.261081232986709
0
VERTEX
8
V1
10
34.438958123932565
20
7.270000000000009
0
VERTEX
8
V1
10
34.452837442804814
20
7.29649236014211
0
VERTEX
8
V1
10
34.44391867579152
20
7.325039448141049
0
VERTEX
8
V1
10
34.417426315649415
20
7.3389187670133
0
SEQEND
0
POLYLINE
8
V1
66
1
70
1
0
VERTEX
8
V1
10
35.57081459359082
20
5.16108123298671
0
VERTEX
8
V1
10
35.59730695373292
20
5.174960551858959
0
VERTEX
8
V1
10
35.60622572074622
20
5.2035076398579
0
VERTEX
8
V1
10
35.592346401873954
20
5.23
0
VERTEX
8
V1
10
35.563799313875016
20
5.23891876701329
0
VERTEX
8
V1
10
35.537306953732916
20
5.2250394481410405
0
VERTEX
8
V1
10
35.528388186719624
20
5.1964923601421
0
VERTEX
8
V1
10
35.54226750559187
20
5.17
0
VERTEX
8
V1
10
35.57081459359082
20
5.16108123298671
0
SEQEND
0
POLYLINE
8
V1
66
1
70
1
0
VERTEX
8
V1
10
35.95846819171692
20
5.16108123298671
0
VERTEX
8
V1
10
35.984960551859025
20
5.174960551858959
0
VERTEX
8
V1
10
35.99387931887232
20
5.2035076398579
0
VERTEX
8
V1
10
35.98000000000007
20
5.23
0
VERTEX
8
V1
10
35.95145291200113
20
5.23891876701329
0
VERTEX
8
V1
10
35.92496055185903
20
5.2250394481410405
0
VERTEX
8
V1
10
35.916041784845724
20
5.1964923601421
0
VERTEX
8
V1
10
35.92992110371799
20
5.17
0
VERTEX
8
V1
10
35.95846819171692
20
5.16108123298671
0
SEQEND
0
POLYLINE
8
V1
66
1
70
1
0
VERTEX
8
V1
10
32.40000000000041
20
4.149999999999636
0
VERTEX
8
V1
10
37.19999999999958
20
4.149999999999636
0
VERTEX
8
V1
10
37.19999999999958
20
8.350000000000364
0
VERTEX
8
V1
10
32.40000000000041
20
8.350000000000364
0
VERTEX
8
V1
10
32.40000000000041
20
4.149999999999636
0
SEQEND
0
TEXT
8
0
62
142
10
34.2225
20
2.6
40
1.05
1
V1
0
POLYLINE
8
G1
66
1
70
1
0
VERTEX
8
G1
10
38.7
20
-2.100000000000355
0
VERTEX
8
G1
10
42.50000000000001
20
-2.100000000000355
0
VERTEX
8
G1
10
42.50000000000001
20
-0.46999999999999487
0
VERTEX
8
G1
10
41.790000000000006
20
-0.46999999999999487
0
VERTEX
8
G1
10
41.790000000000006
20
0.10000000000000497
0
VERTEX
8
G1
10
41.620000000000005
20
0.10000000000000497
0
VERTEX
8
G1
10
41.620000000000005
20
0.660000000000005
0
VERTEX
8
G1
10
42.50000000000001
20
0.660000000000005
0
VERTEX
8
G1
10
42.50000000000001
20
2.100000000000355
0
VERTEX
8
G1
10
38.7
20
2.100000000000355
0
VERTEX
8
G1
10
38.7
20
0.5100000000000051
0
VERTEX
8
G1
10
39.38
20
0.5100000000000051
0
VERTEX
8
G1
10
39.38
20
-0.389999999999995
0
VERTEX
8
G1
10
38.7
20
-0.389999999999995
0
VERTEX
8
G1
10
38.7
20
-2.100000000000355
0
SEQEND
0
POLYLINE
8
G1
66
1
70
1
0
VERTEX
8
G1
10
38.20000000000042
20
-2.100000000000355
0
VERTEX
8
G1
10
42.99999999999958
20
-2.100000000000355
0
VERTEX
8
G1
10
42.99999999999958
20
2.100000000000355
0
VERTEX
8
G1
10
38.20000000000042
20
2.100000000000355
0
VERTEX
8
G1
10
38.20000000000042
20
-2.100000000000355
0
SEQEND
0
TEXT
8
0
62
152
10
40.0225
20
-3.4650000000000003
40
1.05
1
G1
0
ENDSEC
0
EOF
