0
SECTION
2
HEADER
9
$ACADVER
1
AC1006
9
$INSBASE
10
0.0
20
0.0
30
0.0
9
$EXTMIN
10
-3.195999999999569
20
-8.220999999999984
9
$EXTMAX
10
38.195999999999565
20
15.146000000000354
0
ENDSEC
0
SECTION
2
TABLES
0
TABLE
2
LTYPE
70
1
0
LTYPE
2
CONTINUOUS
70
64
3
Solid line
72
65
73
0
40
0.0
0
ENDTAB
0
TABLE
2
LAYER
70
16
0
LAYER
2
L4
70
0
62
12
6
continuous
0
LAYER
2
V7
70
0
62
22
6
continuous
0
LAYER
2
L3
70
0
62
32
6
continuous
0
LAYER
2
V6
70
0
62
42
6
continuous
0
LAYER
2
L2
70
0
62
52
6
continuous
0
LAYER
2
V5
70
0
62
62
6
continuous
0
LAYER
2
L1
70
0
62
72
6
continuous
0
LAYER
2
V4
70
0
62
82
6
continuous
0
LAYER
2
C3
70
0
62
92
6
continuous
0
LAYER
2
V3
70
0
62
102
6
continuous
0
LAYER
2
C2
70
0
62
112
6
continuous
0
LAYER
2
V2
70
0
62
122
6
continuous
0
LAYER
2
C1
70
0
62
132
6
continuous
0
LAYER
2
V1
70
0
62
142
6
continuous
0
LAYER
2
G1
70
0
62
152
6
continuous
0
LAYER
2
0
70
0
62
7
6
continuous
0
ENDTAB
0
TABLE
2
STYLE
70
1
0
STYLE
2
STANDARD
70
0
40
0
41
1
50
0
71
0
42
1
3
ARIAL.TTF
4

0
ENDTAB
0
TABLE
2
VIEW
70
0
0
ENDTAB
0
ENDSEC
0
SECTION
2
BLOCKS
0
ENDSEC
0
SECTION
2
ENTITIES
0
POLYLINE
8
L4
66
1
70
1
0
VERTEX
8
L4
10
-1.066685907471921
20
0.5999999999999979
0
VERTEX
8
L4
10
-1.066685907471921
20
1.1000000000000096
0
VERTEX
8
L4
10
-1.4479615163037234
20
1.1000000000000096
0
VERTEX
8
L4
10
-1.4479615163037234
20
0.15000000000000613
0
VERTEX
8
L4
10
-1.4900000000000035
20
0.15000000000000613
0
VERTEX
8
L4
10
-1.4900000000000035
20
-0.049999999999994986
0
VERTEX
8
L4
10
-1.3679615163037213
20
-0.049999999999994986
0
VERTEX
8
L4
10
-1.3679615163037213
20
1.0200000000000087
0
VERTEX
8
L4
10
-1.1466859074719211
20
1.0200000000000087
0
VERTEX
8
L4
10
-1.1466859074719211
20
0.699999999999998
0
VERTEX
8
L4
10
-1.1666859074719211
20
0.699999999999998
0
VERTEX
8
L4
10
-1.1666859074719211
20
0.5999999999999979
0
VERTEX
8
L4
10
-1.066685907471921
20
0.5999999999999979
0
SEQEND
0
POLYLINE
8
L4
66
1
70
1
0
VERTEX
8
L4
10
0.82021405414533
20
0.6000000000000076
0
VERTEX
8
L4
10
0.82021405414533
20
0.7000000000000077
0
VERTEX
8
L4
10
0.80021405414533
20
0.7000000000000077
0
VERTEX
8
L4
10
0.80021405414533
20
1.0200000000000087
0
VERTEX
8
L4
10
0.9364896629771411
20
1.0200000000000087
0
VERTEX
8
L4
10
0.9364896629771411
20
0.4720670054747371
0
VERTEX
8
L4
10
0.8290545363033903
20
0.4720670054747371
0
VERTEX
8
L4
10
0.8290545363033903
20
-0.049999999999994986
0
VERTEX
8
L4
10
0.9290545363033913
20
-0.049999999999994986
0
VERTEX
8
L4
10
0.9290545363033913
20
0.392067005474737
0
VERTEX
8
L4
10
1.0164896629771412
20
0.392067005474737
0
VERTEX
8
L4
10
1.0164896629771412
20
1.1000000000000096
0
VERTEX
8
L4
10
0.7202140541453304
20
1.1000000000000096
0
VERTEX
8
L4
10
0.7202140541453304
20
0.6000000000000076
0
VERTEX
8
L4
10
0.82021405414533
20
0.6000000000000076
0
SEQEND
0
POLYLINE
8
L4
66
1
70
1
0
VERTEX
8
L4
10
-0.2827935485684008
20
-1.4500000000000084
0
VERTEX
8
L4
10
-0.6074447788335706
20
-1.4500000000000073
0
VERTEX
8
L4
10
-0.6074447788335706
20
-0.4600000000000062
0
VERTEX
8
L4
10
-0.5874447788335706
20
-0.4600000000000062
0
VERTEX
8
L4
10
-0.5874447788335706
20
-0.36000000000000587
0
VERTEX
8
L4
10
-0.6874447788335707
20
-0.36000000000000587
0
VERTEX
8
L4
10
-0.6874447788335707
20
-1.5300000000000045
0
VERTEX
8
L4
10
-0.20279354856840093
20
-1.5300000000000054
0
VERTEX
8
L4
10
-0.20279354856838983
20
-0.130000000000005
0
VERTEX
8
L4
10
-0.8290545363033308
20
-0.130000000000005
0
VERTEX
8
L4
10
-0.8290545363033308
20
0.04999999999999541
0
VERTEX
8
L4
10
-0.9290545363033309
20
0.04999999999999541
0
VERTEX
8
L4
10
-0.9290545363033309
20
-0.130000000000005
0
VERTEX
8
L4
10
-1.2821808663157312
20
-0.130000000000005
0
VERTEX
8
L4
10
-1.2821808663157312
20
-1.0999999999999983
0
VERTEX
8
L4
10
-0.8290545363033408
20
-1.0999999999999983
0
VERTEX
8
L4
10
-0.8290545363033308
20
-0.6000000000000068
0
VERTEX
8
L4
10
-0.9290545363033309
20
-0.6000000000000068
0
VERTEX
8
L4
10
-0.9290545363033309
20
-0.7000000000000071
0
VERTEX
8
L4
10
-0.9090545363033309
20
-0.7000000000000071
0
VERTEX
8
L4
10
-0.9090545363033409
20
-1.0199999999999982
0
VERTEX
8
L4
10
-1.2021808663157312
20
-1.0199999999999982
0
VERTEX
8
L4
10
-1.2021808663157312
20
-0.2100000000000053
0
VERTEX
8
L4
10
-0.2827935485684008
20
-0.2100000000000053
0
VERTEX
8
L4
10
-0.2827935485684008
20
-1.4500000000000084
0
SEQEND
0
POLYLINE
8
L4
66
1
70
1
0
VERTEX
8
L4
10
0.13710498153861006
20
0.6000000000000076
0
VERTEX
8
L4
10
0.13710498153861006
20
0.7000000000000077
0
VERTEX
8
L4
10
0.11710498153861004
20
0.7000000000000077
0
VERTEX
8
L4
10
0.11710498153861004
20
1.0200000000000087
0
VERTEX
8
L4
10
0.4233805903704102
20
1.0200000000000087
0
VERTEX
8
L4
10
0.4233805903704102
20
0.2720670054747365
0
VERTEX
8
L4
10
0.09594546369667012
20
0.2720670054747365
0
VERTEX
8
L4
10
0.09594546369667012
20
-0.049999999999994986
0
VERTEX
8
L4
10
0.1959454636966702
20
-0.049999999999994986
0
VERTEX
8
L4
10
0.1959454636966702
20
0.192067005474736
0
VERTEX
8
L4
10
0.50338059037041
20
0.192067005474736
0
VERTEX
8
L4
10
0.50338059037041
20
1.1000000000000096
0
VERTEX
8
L4
10
0.03710498153861019
20
1.1000000000000096
0
VERTEX
8
L4
10
0.03710498153861019
20
0.6000000000000076
0
VERTEX
8
L4
10
0.13710498153861006
20
0.6000000000000076
0
SEQEND
0
POLYLINE
8
L4
66
1
70
1
0
VERTEX
8
L4
10
-0.06780667982142985
20
0.5999999999999979
0
VERTEX
8
L4
10
-0.06780667982142985
20
1.1000000000000096
0
VERTEX
8
L4
10
-0.891489662977071
20
1.1000000000000096
0
VERTEX
8
L4
10
-0.891489662977081
20
0.192067005474736
0
VERTEX
8
L4
10
-0.4590545363033305
20
0.192067005474736
0
VERTEX
8
L4
10
-0.4590545363033305
20
-0.050000000000004687
0
VERTEX
8
L4
10
-0.35905453630333084
20
-0.050000000000004687
0
VERTEX
8
L4
10
-0.35905453630333084
20
0.2720670054747365
0
VERTEX
8
L4
10
-0.8114896629770809
20
0.2720670054747365
0
VERTEX
8
L4
10
-0.8114896629770709
20
1.0200000000000087
0
VERTEX
8
L4
10
-0.14780667982142992
20
1.0200000000000087
0
VERTEX
8
L4
10
-0.14780667982142992
20
0.699999999999998
0
VERTEX
8
L4
10
-0.16780667982143083
20
0.699999999999998
0
VERTEX
8
L4
10
-0.16780667982143083
20
0.5999999999999979
0
VERTEX
8
L4
10
-0.06780667982142985
20
0.5999999999999979
0
SEQEND
0
POLYLINE
8
L4
66
1
70
1
0
VERTEX
8
L4
10
0.8055815981199612
20
-0.7000000000000071
0
VERTEX
8
L4
10
0.8255815981199603
20
-0.7000000000000071
0
VERTEX
8
L4
10
0.8255815981199603
20
-1.0399999999999983
0
VERTEX
8
L4
10
0.5851137614423101
20
-1.0399999999999983
0
VERTEX
8
L4
10
0.5851137614423101
20
-0.2720670054747356
0
VERTEX
8
L4
10
0.6440545363033303
20
-0.2720670054747356
0
VERTEX
8
L4
10
0.6440545363033303
20
0.04999999999999541
0
VERTEX
8
L4
10
0.5440545363033302
20
0.05000000000000561
0
VERTEX
8
L4
10
0.5440545363033302
20
-0.1920670054747351
0
VERTEX
8
L4
10
-0.12396321098200991
20
-0.1920670054747351
0
VERTEX
8
L4
10
-0.12396321098200991
20
-1.2000000000000024
0
VERTEX
8
L4
10
0.25511376144231024
20
-1.2000000000000024
0
VERTEX
8
L4
10
0.25511376144231024
20
-0.42206700547473597
0
VERTEX
8
L4
10
0.15511376144231015
20
-0.42206700547473597
0
VERTEX
8
L4
10
0.15511376144231015
20
-0.5220670054747365
0
VERTEX
8
L4
10
0.17511376144231017
20
-0.5220670054747365
0
VERTEX
8
L4
10
0.17511376144231017
20
-1.1200000000000023
0
VERTEX
8
L4
10
-0.04396321098200984
20
-1.1200000000000023
0
VERTEX
8
L4
10
-0.04396321098200984
20
-0.2720670054747356
0
VERTEX
8
L4
10
0.5051137614423102
20
-0.2720670054747356
0
VERTEX
8
L4
10
0.5051137614423102
20
-1.1200000000000023
0
VERTEX
8
L4
10
0.9055815981199613
20
-1.1200000000000023
0
VERTEX
8
L4
10
0.9055815981199613
20
-0.6000000000000068
0
VERTEX
8
L4
10
0.8055815981199612
20
-0.6000000000000068
0
VERTEX
8
L4
10
0.8055815981199612
20
-0.7000000000000071
0
SEQEND
0
POLYLINE
8
L4
66
1
70
1
0
VERTEX
8
L4
10
1.116685907471921
20
-0.6999999999999971
0
VERTEX
8
L4
10
1.116685907471921
20
-0.5999999999999968
0
VERTEX
8
L4
10
1.0166859074719201
20
-0.5999999999999968
0
VERTEX
8
L4
10
1.0166859074719201
20
-1.0999999999999983
0
VERTEX
8
L4
10
1.447961516303721
20
-1.0999999999999983
0
VERTEX
8
L4
10
1.447961516303721
20
-0.1499999999999953
0
VERTEX
8
L4
10
1.490000000000001
20
-0.1499999999999953
0
VERTEX
8
L4
10
1.490000000000001
20
0.05000000000000561
0
VERTEX
8
L4
10
1.3679615163037213
20
0.05000000000000561
0
VERTEX
8
L4
10
1.3679615163037213
20
-1.0199999999999982
0
VERTEX
8
L4
10
1.0966859074719202
20
-1.0199999999999982
0
VERTEX
8
L4
10
1.0966859074719202
20
-0.6999999999999971
0
VERTEX
8
L4
10
1.116685907471921
20
-0.6999999999999971
0
SEQEND
0
POLYLINE
8
L4
66
1
70
1
0
VERTEX
8
L4
10
-2.399999999999582
20
-2.1000000000003625
0
VERTEX
8
L4
10
2.399999999999582
20
-2.1000000000003625
0
VERTEX
8
L4
10
2.399999999999582
20
2.1000000000003625
0
VERTEX
8
L4
10
-2.399999999999582
20
2.1000000000003625
0
VERTEX
8
L4
10
-2.399999999999582
20
-2.1000000000003625
0
SEQEND
0
TEXT
8
0
62
12
10
-1.2375
20
-7.425000000000001
40
2.25
1
L4
0
POLYLINE
8
V7
66
1
70
1
0
VERTEX
8
V7
10
-0.9200000000000015
20
12.249999999999995
0
VERTEX
8
V7
10
-0.9080073513420717
20
12.221047184961234
0
VERTEX
8
V7
10
-0.8790545363033015
20
12.209054536303295
0
VERTEX
8
V7
10
-0.8501017212645414
20
12.221047184961234
0
VERTEX
8
V7
10
-0.8381090726066014
20
12.249999999999995
0
VERTEX
8
V7
10
-0.8501017212645414
20
12.278952815038764
0
VERTEX
8
V7
10
-0.8790545363033015
20
12.290945463696694
0
VERTEX
8
V7
10
-0.9080073513420717
20
12.278952815038764
0
VERTEX
8
V7
10
-0.9200000000000015
20
12.249999999999995
0
SEQEND
0
POLYLINE
8
V7
66
1
70
1
0
VERTEX
8
V7
10
-1.1557281395748322
20
12.903686893043618
0
VERTEX
8
V7
10
-1.1468999616171922
20
12.874999999999998
0
VERTEX
8
V7
10
-1.1203728005155122
20
12.860957767897059
0
VERTEX
8
V7
10
-1.091685907471892
20
12.8697859458547
0
VERTEX
8
V7
10
-1.077643675368942
20
12.89631310695639
0
VERTEX
8
V7
10
-1.086471853326592
20
12.924999999999999
0
VERTEX
8
V7
10
-1.1129990144282722
20
12.939042232102949
0
VERTEX
8
V7
10
-1.1416859074718921
20
12.93021405414531
0
VERTEX
8
V7
10
-1.1557281395748322
20
12.903686893043618
0
SEQEND
0
POLYLINE
8
V7
66
1
70
1
0
VERTEX
8
V7
10
-0.12149357286501994
20
12.860957767897059
0
VERTEX
8
V7
10
-0.09280667982139978
20
12.8697859458547
0
VERTEX
8
V7
10
-0.07876444771844993
20
12.89631310695639
0
VERTEX
8
V7
10
-0.08759262567609882
20
12.924999999999999
0
VERTEX
8
V7
10
-0.1141197867777799
20
12.939042232102949
0
VERTEX
8
V7
10
-0.14280667982139894
20
12.93021405414531
0
VERTEX
8
V7
10
-0.1568489119243397
20
12.903686893043618
0
VERTEX
8
V7
10
-0.1480207339666988
20
12.874999999999998
0
VERTEX
8
V7
10
-0.12149357286501994
20
12.860957767897059
0
SEQEND
0
POLYLINE
8
V7
66
1
70
1
0
VERTEX
8
V7
10
-0.8753676432596915
20
11.63904223210294
0
VERTEX
8
V7
10
-0.9040545363033017
20
11.6302140541453
0
VERTEX
8
V7
10
-0.9180967684062515
20
11.60368689304361
0
VERTEX
8
V7
10
-0.9092685904486115
20
11.57499999999999
0
VERTEX
8
V7
10
-0.8827414293469216
20
11.56095776789705
0
VERTEX
8
V7
10
-0.8540545363033014
20
11.56978594585469
0
VERTEX
8
V7
10
-0.8400123042003613
20
11.59631310695638
0
VERTEX
8
V7
10
-0.8488404821580013
20
11.62499999999999
0
VERTEX
8
V7
10
-0.8753676432596915
20
11.63904223210294
0
SEQEND
0
POLYLINE
8
V7
66
1
70
1
0
VERTEX
8
V7
10
0.20142686839872104
20
11.816975226628202
0
VERTEX
8
V7
10
0.17489970729703108
20
11.802932994525262
0
VERTEX
8
V7
10
0.16607152933939107
20
11.77424610148164
0
VERTEX
8
V7
10
0.18011376144234115
20
11.747718940379961
0
VERTEX
8
V7
10
0.2088006544859511
20
11.738890762422312
0
VERTEX
8
V7
10
0.23532781558764215
20
11.75293299452526
0
VERTEX
8
V7
10
0.24415599354528217
20
11.781619887568871
0
VERTEX
8
V7
10
0.2301137614423412
20
11.808147048670563
0
VERTEX
8
V7
10
0.20142686839872104
20
11.816975226628202
0
SEQEND
0
POLYLINE
8
V7
66
1
70
1
0
VERTEX
8
V7
10
-0.6337578857899209
20
11.879042232102941
0
VERTEX
8
V7
10
-0.6624447788335408
20
11.870214054145292
0
VERTEX
8
V7
10
-0.6764870109364809
20
11.843686893043612
0
VERTEX
8
V7
10
-0.6676588329788409
20
11.814999999999992
0
VERTEX
8
V7
10
-0.6411316718771609
20
11.800957767897051
0
VERTEX
8
V7
10
-0.612444778833541
20
11.809785945854692
0
VERTEX
8
V7
10
-0.5984025467306007
20
11.836313106956382
0
VERTEX
8
V7
10
-0.6072307246882407
20
11.864999999999991
0
VERTEX
8
V7
10
-0.6337578857899209
20
11.879042232102941
0
SEQEND
0
POLYLINE
8
V7
66
1
70
1
0
VERTEX
8
V7
10
0.825367543974693
20
11.62499999999999
0
VERTEX
8
V7
10
0.816539366017053
20
11.59631310695638
0
VERTEX
8
V7
10
0.8305815981199931
20
11.56978594585469
0
VERTEX
8
V7
10
0.859268491163613
20
11.56095776789705
0
VERTEX
8
V7
10
0.885795652265303
20
11.57499999999999
0
VERTEX
8
V7
10
0.894623830222943
20
11.60368689304361
0
VERTEX
8
V7
10
0.8805815981199929
20
11.6302140541453
0
VERTEX
8
V7
10
0.8518947050763832
20
11.63904223210294
0
VERTEX
8
V7
10
0.825367543974693
20
11.62499999999999
0
SEQEND
0
POLYLINE
8
V7
66
1
70
1
0
VERTEX
8
V7
10
0.0480627494357011
20
12.89631310695639
0
VERTEX
8
V7
10
0.06210498153864119
20
12.8697859458547
0
VERTEX
8
V7
10
0.09079187458226112
20
12.860957767897059
0
VERTEX
8
V7
10
0.11731903568394109
20
12.875000000000009
0
VERTEX
8
V7
10
0.1261472136415811
20
12.903686893043618
0
VERTEX
8
V7
10
0.11210498153864101
20
12.93021405414531
0
VERTEX
8
V7
10
0.08341808849502108
20
12.939042232102949
0
VERTEX
8
V7
10
0.05689092739334112
20
12.92500000000001
0
VERTEX
8
V7
10
0.0480627494357011
20
12.89631310695639
0
SEQEND
0
POLYLINE
8
V7
66
1
70
1
0
VERTEX
8
V7
10
1.036471853326654
20
11.625
0
VERTEX
8
V7
10
1.0276436753690041
20
11.59631310695638
0
VERTEX
8
V7
10
1.0416859074719542
20
11.56978594585469
0
VERTEX
8
V7
10
1.0703728005155742
20
11.56095776789705
0
VERTEX
8
V7
10
1.096899961617254
20
11.575
0
VERTEX
8
V7
10
1.105728139574894
20
11.60368689304361
0
VERTEX
8
V7
10
1.0916859074719532
20
11.6302140541453
0
VERTEX
8
V7
10
1.062999014428334
20
11.63904223210294
0
VERTEX
8
V7
10
1.036471853326654
20
11.625
0
SEQEND
0
POLYLINE
8
V7
66
1
70
1
0
VERTEX
8
V7
10
0.766527161101743
20
12.939042232102949
0
VERTEX
8
V7
10
0.740000000000063
20
12.92500000000001
0
VERTEX
8
V7
10
0.731171822042423
20
12.89631310695639
0
VERTEX
8
V7
10
0.7452140541453631
20
12.8697859458547
0
VERTEX
8
V7
10
0.7739009471889831
20
12.860957767897059
0
VERTEX
8
V7
10
0.800428108290663
20
12.875000000000009
0
VERTEX
8
V7
10
0.809256286248313
20
12.903686893043618
0
VERTEX
8
V7
10
0.7952140541453632
20
12.93021405414531
0
VERTEX
8
V7
10
0.766527161101743
20
12.939042232102949
0
SEQEND
0
POLYLINE
8
V7
66
1
70
1
0
VERTEX
8
V7
10
1.4469143313424842
20
12.278952815038764
0
VERTEX
8
V7
10
1.4179615163037251
20
12.290945463696694
0
VERTEX
8
V7
10
1.3890087012649541
20
12.278952815038764
0
VERTEX
8
V7
10
1.3770160526070252
20
12.249999999999995
0
VERTEX
8
V7
10
1.3890087012649652
20
12.221047184961234
0
VERTEX
8
V7
10
1.4179615163037251
20
12.209054536303295
0
VERTEX
8
V7
10
1.4469143313424842
20
12.221047184961234
0
VERTEX
8
V7
10
1.458906980000425
20
12.249999999999995
0
VERTEX
8
V7
10
1.4469143313424842
20
12.278952815038764
0
SEQEND
0
POLYLINE
8
V7
66
1
70
1
0
VERTEX
8
V7
10
0.8501017212645929
20
12.278952815038764
0
VERTEX
8
V7
10
0.8381090726066631
20
12.250000000000004
0
VERTEX
8
V7
10
0.8501017212645929
20
12.221047184961234
0
VERTEX
8
V7
10
0.879054536303363
20
12.209054536303295
0
VERTEX
8
V7
10
0.908007351342123
20
12.221047184961234
0
VERTEX
8
V7
10
0.920000000000063
20
12.250000000000004
0
VERTEX
8
V7
10
0.908007351342123
20
12.278952815038764
0
VERTEX
8
V7
10
0.879054536303363
20
12.290945463696705
0
VERTEX
8
V7
10
0.8501017212645929
20
12.278952815038764
0
SEQEND
0
POLYLINE
8
V7
66
1
70
1
0
VERTEX
8
V7
10
-1.446914331342485
20
12.221047184961234
0
VERTEX
8
V7
10
-1.417961516303725
20
12.209054536303295
0
VERTEX
8
V7
10
-1.389008701264963
20
12.221047184961234
0
VERTEX
8
V7
10
-1.377016052607023
20
12.249999999999995
0
VERTEX
8
V7
10
-1.389008701264953
20
12.278952815038764
0
VERTEX
8
V7
10
-1.417961516303725
20
12.290945463696694
0
VERTEX
8
V7
10
-1.446914331342485
20
12.278952815038764
0
VERTEX
8
V7
10
-1.458906980000425
20
12.249999999999995
0
VERTEX
8
V7
10
-1.446914331342485
20
12.221047184961234
0
SEQEND
0
POLYLINE
8
V7
66
1
70
1
0
VERTEX
8
V7
10
0.5531090726066621
20
12.250000000000004
0
VERTEX
8
V7
10
0.5651017212645921
20
12.221047184961234
0
VERTEX
8
V7
10
0.594054536303362
20
12.209054536303295
0
VERTEX
8
V7
10
0.6230073513421222
20
12.221047184961234
0
VERTEX
8
V7
10
0.6350000000000622
20
12.250000000000004
0
VERTEX
8
V7
10
0.6230073513421222
20
12.278952815038764
0
VERTEX
8
V7
10
0.594054536303362
20
12.290945463696705
0
VERTEX
8
V7
10
0.5651017212645921
20
12.278952815038764
0
VERTEX
8
V7
10
0.5531090726066621
20
12.250000000000004
0
SEQEND
0
POLYLINE
8
V7
66
1
70
1
0
VERTEX
8
V7
10
-0.43800735134207014
20
12.221047184961234
0
VERTEX
8
V7
10
-0.40905453630330024
20
12.209054536303295
0
VERTEX
8
V7
10
-0.38010172126454034
20
12.221047184961234
0
VERTEX
8
V7
10
-0.3681090726066003
20
12.249999999999995
0
VERTEX
8
V7
10
-0.38010172126454034
20
12.278952815038764
0
VERTEX
8
V7
10
-0.40905453630330024
20
12.290945463696694
0
VERTEX
8
V7
10
-0.43800735134207014
20
12.278952815038764
0
VERTEX
8
V7
10
-0.4500000000000004
20
12.249999999999995
0
VERTEX
8
V7
10
-0.43800735134207014
20
12.221047184961234
0
SEQEND
0
POLYLINE
8
V7
66
1
70
1
0
VERTEX
8
V7
10
0.17489827873546115
20
12.221047184961234
0
VERTEX
8
V7
10
0.18689092739340207
20
12.250000000000004
0
VERTEX
8
V7
10
0.17489827873546115
20
12.278952815038764
0
VERTEX
8
V7
10
0.14594546369670103
20
12.290945463696705
0
VERTEX
8
V7
10
0.11699264865793113
20
12.278952815038764
0
VERTEX
8
V7
10
0.10500000000000109
20
12.250000000000004
0
VERTEX
8
V7
10
0.11699264865793113
20
12.221047184961234
0
VERTEX
8
V7
10
0.14594546369670103
20
12.209054536303295
0
VERTEX
8
V7
10
0.17489827873546115
20
12.221047184961234
0
SEQEND
0
POLYLINE
8
V7
66
1
70
1
0
VERTEX
8
V7
10
-2.3999999999995856
20
10.149999999999629
0
VERTEX
8
V7
10
2.399999999999586
20
10.149999999999629
0
VERTEX
8
V7
10
2.399999999999586
20
14.35000000000037
0
VERTEX
8
V7
10
-2.3999999999995856
20
14.35000000000037
0
VERTEX
8
V7
10
-2.3999999999995856
20
10.149999999999629
0
SEQEND
0
TEXT
8
0
62
22
10
-1.2375
20
5.0
40
2.25
1
V7
0
POLYLINE
8
L3
66
1
70
1
0
VERTEX
8
L3
10
3.63203848369628
20
0.38206700547473615
0
VERTEX
8
L3
10
3.63203848369628
20
1.0200000000000073
0
VERTEX
8
L3
10
3.85331409252808
20
1.0200000000000073
0
VERTEX
8
L3
10
3.85331409252808
20
0.899999999999997
0
VERTEX
8
L3
10
3.8333140925280795
20
0.899999999999997
0
VERTEX
8
L3
10
3.8333140925280795
20
0.7999999999999972
0
VERTEX
8
L3
10
3.93331409252808
20
0.7999999999999972
0
VERTEX
8
L3
10
3.93331409252808
20
1.100000000000007
0
VERTEX
8
L3
10
3.5520384836962777
20
1.100000000000007
0
VERTEX
8
L3
10
3.5520384836962777
20
0.3020670054747352
0
VERTEX
8
L3
10
3.93331409252808
20
0.3020670054747352
0
VERTEX
8
L3
10
3.93331409252808
20
0.6999999999999971
0
VERTEX
8
L3
10
3.8333140925280795
20
0.6999999999999971
0
VERTEX
8
L3
10
3.8333140925280795
20
0.5999999999999961
0
VERTEX
8
L3
10
3.85331409252808
20
0.5999999999999961
0
VERTEX
8
L3
10
3.85331409252808
20
0.38206700547473615
0
VERTEX
8
L3
10
3.63203848369628
20
0.38206700547473615
0
SEQEND
0
POLYLINE
8
L3
66
1
70
1
0
VERTEX
8
L3
10
4.56199264865793
20
-0.02895281503876479
0
VERTEX
8
L3
10
4.5909454636967
20
-0.04094546369670482
0
VERTEX
8
L3
10
4.6198982787354606
20
-0.02895281503876479
0
VERTEX
8
L3
10
4.6318909273934
20
-4.884981308350689e-15
0
VERTEX
8
L3
10
4.6198982787354606
20
0.028952815038765234
0
VERTEX
8
L3
10
4.5909454636967
20
0.04094546369669505
0
VERTEX
8
L3
10
4.56199264865793
20
0.028952815038765234
0
VERTEX
8
L3
10
4.550000000000001
20
-4.884981308350689e-15
0
VERTEX
8
L3
10
4.56199264865793
20
-0.02895281503876479
0
SEQEND
0
POLYLINE
8
L3
66
1
70
1
0
VERTEX
8
L3
10
4.08
20
-4.884981308350689e-15
0
VERTEX
8
L3
10
4.09199264865793
20
-0.02895281503876479
0
VERTEX
8
L3
10
4.1209454636967
20
-0.04094546369670482
0
VERTEX
8
L3
10
4.14989827873546
20
-0.02895281503876479
0
VERTEX
8
L3
10
4.1618909273934
20
-4.884981308350689e-15
0
VERTEX
8
L3
10
4.14989827873546
20
0.028952815038765234
0
VERTEX
8
L3
10
4.1209454636967
20
0.04094546369669505
0
VERTEX
8
L3
10
4.09199264865793
20
0.028952815038765234
0
VERTEX
8
L3
10
4.08
20
-4.884981308350689e-15
0
SEQEND
0
POLYLINE
8
L3
66
1
70
1
0
VERTEX
8
L3
10
4.85219332017857
20
0.27206700547473517
0
VERTEX
8
L3
10
4.18851033702292
20
0.27206700547473517
0
VERTEX
8
L3
10
4.18851033702293
20
1.0200000000000073
0
VERTEX
8
L3
10
4.85219332017857
20
1.0200000000000073
0
VERTEX
8
L3
10
4.85219332017857
20
0.899999999999997
0
VERTEX
8
L3
10
4.83219332017857
20
0.899999999999997
0
VERTEX
8
L3
10
4.83219332017857
20
0.7999999999999972
0
VERTEX
8
L3
10
4.93219332017857
20
0.7999999999999972
0
VERTEX
8
L3
10
4.93219332017857
20
1.100000000000007
0
VERTEX
8
L3
10
4.10851033702293
20
1.100000000000007
0
VERTEX
8
L3
10
4.10851033702292
20
0.1920670054747351
0
VERTEX
8
L3
10
4.93219332017857
20
0.1920670054747351
0
VERTEX
8
L3
10
4.93219332017857
20
0.6999999999999971
0
VERTEX
8
L3
10
4.83219332017857
20
0.6999999999999971
0
VERTEX
8
L3
10
4.83219332017857
20
0.5999999999999961
0
VERTEX
8
L3
10
4.85219332017857
20
0.5999999999999961
0
VERTEX
8
L3
10
4.85219332017857
20
0.27206700547473517
0
SEQEND
0
POLYLINE
8
L3
66
1
70
1
0
VERTEX
8
L3
10
4.31255522116643
20
-0.5600645558592567
0
VERTEX
8
L3
10
4.31255522116643
20
-1.5300000000000031
0
VERTEX
8
L3
10
4.797206451431601
20
-1.5300000000000042
0
VERTEX
8
L3
10
4.79720645143161
20
-0.13000000000000544
0
VERTEX
8
L3
10
4.31255522116643
20
-0.13000000000000544
0
VERTEX
8
L3
10
4.31255522116643
20
-0.4600000000000062
0
VERTEX
8
L3
10
4.41255522116643
20
-0.4600000000000062
0
VERTEX
8
L3
10
4.41255522116643
20
-0.3600000000000061
0
VERTEX
8
L3
10
4.392555221166431
20
-0.3600000000000061
0
VERTEX
8
L3
10
4.392555221166431
20
-0.21000000000000552
0
VERTEX
8
L3
10
4.7172064514316006
20
-0.21000000000000552
0
VERTEX
8
L3
10
4.7172064514316006
20
-1.450000000000008
0
VERTEX
8
L3
10
4.392555221166431
20
-1.4500000000000068
0
VERTEX
8
L3
10
4.392555221166431
20
-0.6600645558592568
0
VERTEX
8
L3
10
4.41255522116643
20
-0.6600645558592568
0
VERTEX
8
L3
10
4.41255522116643
20
-0.5600645558592567
0
VERTEX
8
L3
10
4.31255522116643
20
-0.5600645558592567
0
SEQEND
0
POLYLINE
8
L3
66
1
70
1
0
VERTEX
8
L3
10
6.096685907471921
20
-0.5999999999999968
0
VERTEX
8
L3
10
6.096685907471921
20
-0.2302971713247659
0
VERTEX
8
L3
10
6.367961516303721
20
-0.2302971713247659
0
VERTEX
8
L3
10
6.367961516303721
20
-1.0199999999999978
0
VERTEX
8
L3
10
6.096685907471921
20
-1.0199999999999978
0
VERTEX
8
L3
10
6.096685907471921
20
-0.8999999999999977
0
VERTEX
8
L3
10
6.116685907471921
20
-0.8999999999999977
0
VERTEX
8
L3
10
6.116685907471921
20
-0.7999999999999972
0
VERTEX
8
L3
10
6.016685907471921
20
-0.7999999999999972
0
VERTEX
8
L3
10
6.016685907471921
20
-1.099999999999998
0
VERTEX
8
L3
10
6.447961516303721
20
-1.099999999999998
0
VERTEX
8
L3
10
6.447961516303721
20
-0.1502971713247656
0
VERTEX
8
L3
10
6.016685907471921
20
-0.1502971713247656
0
VERTEX
8
L3
10
6.016685907471921
20
-0.6999999999999968
0
VERTEX
8
L3
10
6.116685907471921
20
-0.6999999999999968
0
VERTEX
8
L3
10
6.116685907471921
20
-0.5999999999999968
0
VERTEX
8
L3
10
6.096685907471921
20
-0.5999999999999968
0
SEQEND
0
POLYLINE
8
L3
66
1
70
1
0
VERTEX
8
L3
10
4.07094546369667
20
-0.6000000000000068
0
VERTEX
8
L3
10
4.07094546369667
20
-0.7000000000000068
0
VERTEX
8
L3
10
4.17094546369667
20
-0.7000000000000068
0
VERTEX
8
L3
10
4.17094546369667
20
-0.3800000000000061
0
VERTEX
8
L3
10
3.71781913368427
20
-0.3800000000000061
0
VERTEX
8
L3
10
3.71781913368427
20
-1.099999999999998
0
VERTEX
8
L3
10
4.17094546369666
20
-1.099999999999998
0
VERTEX
8
L3
10
4.17094546369667
20
-0.8000000000000071
0
VERTEX
8
L3
10
4.07094546369667
20
-0.8000000000000071
0
VERTEX
8
L3
10
4.07094546369666
20
-0.9000000000000077
0
VERTEX
8
L3
10
4.09094546369666
20
-0.9000000000000077
0
VERTEX
8
L3
10
4.09094546369666
20
-1.0199999999999978
0
VERTEX
8
L3
10
3.7978191336842695
20
-1.0199999999999978
0
VERTEX
8
L3
10
3.7978191336842695
20
-0.4600000000000062
0
VERTEX
8
L3
10
4.09094546369667
20
-0.4600000000000062
0
VERTEX
8
L3
10
4.09094546369667
20
-0.6000000000000068
0
VERTEX
8
L3
10
4.07094546369667
20
-0.6000000000000068
0
SEQEND
0
POLYLINE
8
L3
66
1
70
1
0
VERTEX
8
L3
10
3.5530856686575176
20
-0.02895281503876479
0
VERTEX
8
L3
10
3.5820384836962775
20
-0.04094546369670482
0
VERTEX
8
L3
10
3.6109912987350397
20
-0.02895281503876479
0
VERTEX
8
L3
10
3.6229839473929797
20
-4.884981308350689e-15
0
VERTEX
8
L3
10
3.6109912987350494
20
0.028952815038765234
0
VERTEX
8
L3
10
3.5820384836962775
20
0.04094546369669505
0
VERTEX
8
L3
10
3.5530856686575176
20
0.028952815038765234
0
VERTEX
8
L3
10
3.5410930199995776
20
-4.884981308350689e-15
0
VERTEX
8
L3
10
3.5530856686575176
20
-0.02895281503876479
0
SEQEND
0
POLYLINE
8
L3
66
1
70
1
0
VERTEX
8
L3
10
5.80021405414533
20
0.47206700547473623
0
VERTEX
8
L3
10
5.80021405414533
20
0.6000000000000061
0
VERTEX
8
L3
10
5.82021405414533
20
0.6000000000000061
0
VERTEX
8
L3
10
5.82021405414533
20
0.7000000000000071
0
VERTEX
8
L3
10
5.72021405414533
20
0.7000000000000071
0
VERTEX
8
L3
10
5.72021405414533
20
0.39206700547473616
0
VERTEX
8
L3
10
6.01648966297714
20
0.39206700547473616
0
VERTEX
8
L3
10
6.01648966297714
20
1.100000000000007
0
VERTEX
8
L3
10
5.72021405414533
20
1.100000000000007
0
VERTEX
8
L3
10
5.72021405414533
20
0.8000000000000071
0
VERTEX
8
L3
10
5.82021405414533
20
0.8000000000000071
0
VERTEX
8
L3
10
5.82021405414533
20
0.900000000000007
0
VERTEX
8
L3
10
5.80021405414533
20
0.900000000000007
0
VERTEX
8
L3
10
5.80021405414533
20
1.0200000000000073
0
VERTEX
8
L3
10
5.93648966297714
20
1.0200000000000073
0
VERTEX
8
L3
10
5.93648966297714
20
0.47206700547473623
0
VERTEX
8
L3
10
5.80021405414533
20
0.47206700547473623
0
SEQEND
0
POLYLINE
8
L3
66
1
70
1
0
VERTEX
8
L3
10
6.446914331342482
20
0.028952815038765234
0
VERTEX
8
L3
10
6.417961516303722
20
0.04094546369669505
0
VERTEX
8
L3
10
6.3890087012649515
20
0.028952815038765234
0
VERTEX
8
L3
10
6.377016052607021
20
-4.884981308350689e-15
0
VERTEX
8
L3
10
6.389008701264961
20
-0.02895281503876479
0
VERTEX
8
L3
10
6.417961516303722
20
-0.04094546369670482
0
VERTEX
8
L3
10
6.446914331342482
20
-0.02895281503876479
0
VERTEX
8
L3
10
6.458906980000421
20
-4.884981308350689e-15
0
VERTEX
8
L3
10
6.446914331342482
20
0.028952815038765234
0
SEQEND
0
POLYLINE
8
L3
66
1
70
1
0
VERTEX
8
L3
10
5.117104981538611
20
0.27206700547473517
0
VERTEX
8
L3
10
5.117104981538611
20
0.6000000000000061
0
VERTEX
8
L3
10
5.137104981538611
20
0.6000000000000061
0
VERTEX
8
L3
10
5.137104981538611
20
0.7000000000000071
0
VERTEX
8
L3
10
5.03710498153861
20
0.7000000000000071
0
VERTEX
8
L3
10
5.03710498153861
20
0.1920670054747351
0
VERTEX
8
L3
10
5.50338059037041
20
0.1920670054747351
0
VERTEX
8
L3
10
5.50338059037041
20
1.100000000000007
0
VERTEX
8
L3
10
5.03710498153861
20
1.100000000000007
0
VERTEX
8
L3
10
5.03710498153861
20
0.8000000000000071
0
VERTEX
8
L3
10
5.137104981538611
20
0.8000000000000071
0
VERTEX
8
L3
10
5.137104981538611
20
0.900000000000007
0
VERTEX
8
L3
10
5.117104981538611
20
0.900000000000007
0
VERTEX
8
L3
10
5.117104981538611
20
1.0200000000000073
0
VERTEX
8
L3
10
5.42338059037041
20
1.0200000000000073
0
VERTEX
8
L3
10
5.42338059037041
20
0.27206700547473517
0
VERTEX
8
L3
10
5.117104981538611
20
0.27206700547473517
0
SEQEND
0
POLYLINE
8
L3
66
1
70
1
0
VERTEX
8
L3
10
5.85010172126459
20
0.028952815038765234
0
VERTEX
8
L3
10
5.8381090726066605
20
5.10702591327572e-15
0
VERTEX
8
L3
10
5.85010172126459
20
-0.02895281503876479
0
VERTEX
8
L3
10
5.879054536303361
20
-0.04094546369670482
0
VERTEX
8
L3
10
5.90800735134212
20
-0.02895281503876479
0
VERTEX
8
L3
10
5.92000000000006
20
5.10702591327572e-15
0
VERTEX
8
L3
10
5.90800735134212
20
0.028952815038765234
0
VERTEX
8
L3
10
5.879054536303361
20
0.04094546369670504
0
VERTEX
8
L3
10
5.85010172126459
20
0.028952815038765234
0
SEQEND
0
POLYLINE
8
L3
66
1
70
1
0
VERTEX
8
L3
10
5.82558159811996
20
-0.27206700547473583
0
VERTEX
8
L3
10
5.82558159811996
20
-0.6000000000000068
0
VERTEX
8
L3
10
5.805581598119961
20
-0.6000000000000068
0
VERTEX
8
L3
10
5.805581598119961
20
-0.7000000000000068
0
VERTEX
8
L3
10
5.905581598119961
20
-0.7000000000000068
0
VERTEX
8
L3
10
5.905581598119961
20
-0.19206700547473554
0
VERTEX
8
L3
10
5.50511376144231
20
-0.19206700547473554
0
VERTEX
8
L3
10
5.50511376144231
20
-1.1200000000000019
0
VERTEX
8
L3
10
5.905581598119961
20
-1.1200000000000019
0
VERTEX
8
L3
10
5.905581598119961
20
-0.8000000000000071
0
VERTEX
8
L3
10
5.805581598119961
20
-0.8000000000000071
0
VERTEX
8
L3
10
5.805581598119961
20
-0.8999999999999977
0
VERTEX
8
L3
10
5.82558159811996
20
-0.8999999999999977
0
VERTEX
8
L3
10
5.82558159811996
20
-1.0399999999999978
0
VERTEX
8
L3
10
5.58511376144231
20
-1.0399999999999978
0
VERTEX
8
L3
10
5.58511376144231
20
-0.27206700547473583
0
VERTEX
8
L3
10
5.82558159811996
20
-0.27206700547473583
0
SEQEND
0
POLYLINE
8
L3
66
1
70
1
0
VERTEX
8
L3
10
5.55310907260666
20
5.10702591327572e-15
0
VERTEX
8
L3
10
5.565101721264591
20
-0.02895281503876479
0
VERTEX
8
L3
10
5.594054536303361
20
-0.04094546369670482
0
VERTEX
8
L3
10
5.62300735134212
20
-0.02895281503876479
0
VERTEX
8
L3
10
5.63500000000006
20
5.10702591327572e-15
0
VERTEX
8
L3
10
5.62300735134212
20
0.028952815038765234
0
VERTEX
8
L3
10
5.594054536303361
20
0.04094546369670504
0
VERTEX
8
L3
10
5.565101721264591
20
0.028952815038765234
0
VERTEX
8
L3
10
5.55310907260666
20
5.10702591327572e-15
0
SEQEND
0
POLYLINE
8
L3
66
1
70
1
0
VERTEX
8
L3
10
5.15511376144231
20
-0.6220670054747366
0
VERTEX
8
L3
10
5.15511376144231
20
-0.7220670054747369
0
VERTEX
8
L3
10
5.175113761442311
20
-0.7220670054747369
0
VERTEX
8
L3
10
5.175113761442311
20
-1.1200000000000019
0
VERTEX
8
L3
10
4.95603678901799
20
-1.1200000000000019
0
VERTEX
8
L3
10
4.95603678901799
20
-0.3720670054747359
0
VERTEX
8
L3
10
5.175113761442311
20
-0.3720670054747359
0
VERTEX
8
L3
10
5.175113761442311
20
-0.4220670054747362
0
VERTEX
8
L3
10
5.15511376144231
20
-0.4220670054747362
0
VERTEX
8
L3
10
5.15511376144231
20
-0.5220670054747365
0
VERTEX
8
L3
10
5.25511376144231
20
-0.5220670054747365
0
VERTEX
8
L3
10
5.25511376144231
20
-0.29206700547473585
0
VERTEX
8
L3
10
4.87603678901799
20
-0.29206700547473585
0
VERTEX
8
L3
10
4.87603678901799
20
-1.2000000000000022
0
VERTEX
8
L3
10
5.25511376144231
20
-1.2000000000000022
0
VERTEX
8
L3
10
5.25511376144231
20
-0.6220670054747366
0
VERTEX
8
L3
10
5.15511376144231
20
-0.6220670054747366
0
SEQEND
0
POLYLINE
8
L3
66
1
70
1
0
VERTEX
8
L3
10
5.17489827873546
20
-0.02895281503876479
0
VERTEX
8
L3
10
5.1868909273934
20
5.10702591327572e-15
0
VERTEX
8
L3
10
5.17489827873546
20
0.028952815038765234
0
VERTEX
8
L3
10
5.145945463696701
20
0.04094546369670504
0
VERTEX
8
L3
10
5.116992648657931
20
0.028952815038765234
0
VERTEX
8
L3
10
5.105
20
5.10702591327572e-15
0
VERTEX
8
L3
10
5.116992648657931
20
-0.02895281503876479
0
VERTEX
8
L3
10
5.145945463696701
20
-0.04094546369670482
0
VERTEX
8
L3
10
5.17489827873546
20
-0.02895281503876479
0
SEQEND
0
POLYLINE
8
L3
66
1
70
1
0
VERTEX
8
L3
10
2.6000000000004193
20
-2.100000000000361
0
VERTEX
8
L3
10
7.39999999999958
20
-2.100000000000361
0
VERTEX
8
L3
10
7.39999999999958
20
2.100000000000361
0
VERTEX
8
L3
10
2.6000000000004193
20
2.100000000000361
0
VERTEX
8
L3
10
2.6000000000004193
20
-2.100000000000361
0
SEQEND
0
TEXT
8
0
62
32
10
3.7625
20
-7.425000000000001
40
2.25
1
L3
0
POLYLINE
8
V6
66
1
70
1
0
VERTEX
8
V6
10
4.079999999999998
20
12.249999999999996
0
VERTEX
8
V6
10
4.0919926486579286
20
12.221047184961236
0
VERTEX
8
V6
10
4.120945463696699
20
12.209054536303295
0
VERTEX
8
V6
10
4.149898278735459
20
12.221047184961236
0
VERTEX
8
V6
10
4.161890927393399
20
12.249999999999996
0
VERTEX
8
V6
10
4.149898278735459
20
12.278952815038766
0
VERTEX
8
V6
10
4.120945463696699
20
12.290945463696696
0
VERTEX
8
V6
10
4.0919926486579286
20
12.278952815038766
0
VERTEX
8
V6
10
4.079999999999998
20
12.249999999999996
0
SEQEND
0
POLYLINE
8
V6
66
1
70
1
0
VERTEX
8
V6
10
3.913528146673408
20
13.125000000000002
0
VERTEX
8
V6
10
3.887000985571728
20
13.139042232102952
0
VERTEX
8
V6
10
3.858314092528108
20
13.130214054145313
0
VERTEX
8
V6
10
3.844271860425168
20
13.103686893043621
0
VERTEX
8
V6
10
3.853100038382808
20
13.075000000000001
0
VERTEX
8
V6
10
3.8796271994844975
20
13.060957767897062
0
VERTEX
8
V6
10
3.9083140925281077
20
13.0697859458547
0
VERTEX
8
V6
10
3.922356324631058
20
13.09631310695639
0
VERTEX
8
V6
10
3.913528146673408
20
13.125000000000002
0
SEQEND
0
POLYLINE
8
V6
66
1
70
1
0
VERTEX
8
V6
10
4.9071933201786
20
13.0697859458547
0
VERTEX
8
V6
10
4.92123555228155
20
13.09631310695639
0
VERTEX
8
V6
10
4.912407374323902
20
13.125000000000002
0
VERTEX
8
V6
10
4.8858802132222205
20
13.139042232102952
0
VERTEX
8
V6
10
4.857193320178601
20
13.130214054145302
0
VERTEX
8
V6
10
4.84315108807566
20
13.103686893043621
0
VERTEX
8
V6
10
4.851979266033301
20
13.075000000000001
0
VERTEX
8
V6
10
4.87850642713498
20
13.060957767897062
0
VERTEX
8
V6
10
4.9071933201786
20
13.0697859458547
0
SEQEND
0
POLYLINE
8
V6
66
1
70
1
0
VERTEX
8
V6
10
4.095945463696698
20
11.4302140541453
0
VERTEX
8
V6
10
4.081903231593748
20
11.40368689304361
0
VERTEX
8
V6
10
4.090731409551388
20
11.37499999999999
0
VERTEX
8
V6
10
4.117258570653078
20
11.360957767897048
0
VERTEX
8
V6
10
4.145945463696688
20
11.369785945854689
0
VERTEX
8
V6
10
4.1599876957996385
20
11.396313106956379
0
VERTEX
8
V6
10
4.151159517841998
20
11.42499999999999
0
VERTEX
8
V6
10
4.1246323567403085
20
11.43904223210294
0
VERTEX
8
V6
10
4.095945463696698
20
11.4302140541453
0
SEQEND
0
POLYLINE
8
V6
66
1
70
1
0
VERTEX
8
V6
10
5.208800654485951
20
11.53889076242231
0
VERTEX
8
V6
10
5.235327815587642
20
11.55293299452526
0
VERTEX
8
V6
10
5.244155993545283
20
11.58161988756887
0
VERTEX
8
V6
10
5.230113761442341
20
11.60814704867056
0
VERTEX
8
V6
10
5.2014268683987215
20
11.6169752266282
0
VERTEX
8
V6
10
5.1748997072970315
20
11.602932994525261
0
VERTEX
8
V6
10
5.166071529339391
20
11.574246101481641
0
VERTEX
8
V6
10
5.180113761442341
20
11.54771894037996
0
VERTEX
8
V6
10
5.208800654485951
20
11.53889076242231
0
SEQEND
0
POLYLINE
8
V6
66
1
70
1
0
VERTEX
8
V6
10
4.323512989063519
20
11.64362233718435
0
VERTEX
8
V6
10
4.332341167021159
20
11.614935444140741
0
VERTEX
8
V6
10
4.358868328122839
20
11.600893212037791
0
VERTEX
8
V6
10
4.387555221166459
20
11.60972138999544
0
VERTEX
8
V6
10
4.4015974532693996
20
11.63624855109712
0
VERTEX
8
V6
10
4.3927692753117595
20
11.66493544414074
0
VERTEX
8
V6
10
4.366242114210079
20
11.678977676243681
0
VERTEX
8
V6
10
4.337555221166459
20
11.67014949828604
0
VERTEX
8
V6
10
4.323512989063519
20
11.64362233718435
0
SEQEND
0
POLYLINE
8
V6
66
1
70
1
0
VERTEX
8
V6
10
5.859268491163613
20
11.360957767897048
0
VERTEX
8
V6
10
5.885795652265303
20
11.37499999999999
0
VERTEX
8
V6
10
5.894623830222943
20
11.40368689304361
0
VERTEX
8
V6
10
5.880581598119993
20
11.4302140541453
0
VERTEX
8
V6
10
5.851894705076383
20
11.43904223210294
0
VERTEX
8
V6
10
5.825367543974693
20
11.42499999999999
0
VERTEX
8
V6
10
5.816539366017053
20
11.396313106956379
0
VERTEX
8
V6
10
5.830581598119993
20
11.369785945854689
0
VERTEX
8
V6
10
5.859268491163613
20
11.360957767897048
0
SEQEND
0
POLYLINE
8
V6
66
1
70
1
0
VERTEX
8
V6
10
5.126147213641581
20
13.103686893043621
0
VERTEX
8
V6
10
5.112104981538641
20
13.130214054145313
0
VERTEX
8
V6
10
5.083418088495021
20
13.139042232102952
0
VERTEX
8
V6
10
5.056890927393341
20
13.125000000000012
0
VERTEX
8
V6
10
5.048062749435701
20
13.09631310695639
0
VERTEX
8
V6
10
5.062104981538641
20
13.0697859458547
0
VERTEX
8
V6
10
5.090791874582261
20
13.060957767897062
0
VERTEX
8
V6
10
5.117319035683941
20
13.075000000000012
0
VERTEX
8
V6
10
5.126147213641581
20
13.103686893043621
0
SEQEND
0
POLYLINE
8
V6
66
1
70
1
0
VERTEX
8
V6
10
6.036471853326654
20
11.425
0
VERTEX
8
V6
10
6.027643675369005
20
11.396313106956379
0
VERTEX
8
V6
10
6.041685907471955
20
11.369785945854689
0
VERTEX
8
V6
10
6.070372800515575
20
11.360957767897048
0
VERTEX
8
V6
10
6.096899961617254
20
11.374999999999998
0
VERTEX
8
V6
10
6.105728139574894
20
11.40368689304361
0
VERTEX
8
V6
10
6.091685907471954
20
11.4302140541453
0
VERTEX
8
V6
10
6.062999014428334
20
11.43904223210294
0
VERTEX
8
V6
10
6.036471853326654
20
11.425
0
SEQEND
0
POLYLINE
8
V6
66
1
70
1
0
VERTEX
8
V6
10
5.800428108290663
20
13.075000000000012
0
VERTEX
8
V6
10
5.8092562862483135
20
13.103686893043621
0
VERTEX
8
V6
10
5.795214054145363
20
13.130214054145313
0
VERTEX
8
V6
10
5.7665271611017435
20
13.139042232102952
0
VERTEX
8
V6
10
5.740000000000063
20
13.125000000000012
0
VERTEX
8
V6
10
5.731171822042423
20
13.09631310695639
0
VERTEX
8
V6
10
5.745214054145363
20
13.0697859458547
0
VERTEX
8
V6
10
5.773900947188983
20
13.060957767897062
0
VERTEX
8
V6
10
5.800428108290663
20
13.075000000000012
0
SEQEND
0
POLYLINE
8
V6
66
1
70
1
0
VERTEX
8
V6
10
6.446914331342484
20
12.278952815038766
0
VERTEX
8
V6
10
6.417961516303725
20
12.290945463696696
0
VERTEX
8
V6
10
6.389008701264954
20
12.278952815038766
0
VERTEX
8
V6
10
6.377016052607026
20
12.249999999999996
0
VERTEX
8
V6
10
6.389008701264965
20
12.221047184961236
0
VERTEX
8
V6
10
6.417961516303725
20
12.209054536303295
0
VERTEX
8
V6
10
6.446914331342484
20
12.221047184961236
0
VERTEX
8
V6
10
6.458906980000425
20
12.249999999999996
0
VERTEX
8
V6
10
6.446914331342484
20
12.278952815038766
0
SEQEND
0
POLYLINE
8
V6
66
1
70
1
0
VERTEX
8
V6
10
5.850101721264593
20
12.278952815038766
0
VERTEX
8
V6
10
5.838109072606663
20
12.250000000000005
0
VERTEX
8
V6
10
5.850101721264593
20
12.221047184961236
0
VERTEX
8
V6
10
5.879054536303363
20
12.209054536303295
0
VERTEX
8
V6
10
5.908007351342123
20
12.221047184961236
0
VERTEX
8
V6
10
5.920000000000063
20
12.250000000000005
0
VERTEX
8
V6
10
5.908007351342123
20
12.278952815038766
0
VERTEX
8
V6
10
5.879054536303363
20
12.290945463696705
0
VERTEX
8
V6
10
5.850101721264593
20
12.278952815038766
0
SEQEND
0
POLYLINE
8
V6
66
1
70
1
0
VERTEX
8
V6
10
3.553085668657515
20
12.221047184961236
0
VERTEX
8
V6
10
3.582038483696275
20
12.209054536303295
0
VERTEX
8
V6
10
3.610991298735037
20
12.221047184961236
0
VERTEX
8
V6
10
3.622983947392977
20
12.249999999999996
0
VERTEX
8
V6
10
3.610991298735047
20
12.278952815038766
0
VERTEX
8
V6
10
3.582038483696275
20
12.290945463696696
0
VERTEX
8
V6
10
3.553085668657515
20
12.278952815038766
0
VERTEX
8
V6
10
3.541093019999575
20
12.249999999999996
0
VERTEX
8
V6
10
3.553085668657515
20
12.221047184961236
0
SEQEND
0
POLYLINE
8
V6
66
1
70
1
0
VERTEX
8
V6
10
5.553109072606662
20
12.250000000000005
0
VERTEX
8
V6
10
5.565101721264592
20
12.221047184961236
0
VERTEX
8
V6
10
5.5940545363033625
20
12.209054536303295
0
VERTEX
8
V6
10
5.623007351342122
20
12.221047184961236
0
VERTEX
8
V6
10
5.635000000000062
20
12.250000000000005
0
VERTEX
8
V6
10
5.623007351342122
20
12.278952815038766
0
VERTEX
8
V6
10
5.5940545363033625
20
12.290945463696705
0
VERTEX
8
V6
10
5.565101721264592
20
12.278952815038766
0
VERTEX
8
V6
10
5.553109072606662
20
12.250000000000005
0
SEQEND
0
POLYLINE
8
V6
66
1
70
1
0
VERTEX
8
V6
10
4.56199264865793
20
12.221047184961236
0
VERTEX
8
V6
10
4.5909454636967
20
12.209054536303295
0
VERTEX
8
V6
10
4.61989827873546
20
12.221047184961236
0
VERTEX
8
V6
10
4.6318909273934
20
12.249999999999996
0
VERTEX
8
V6
10
4.61989827873546
20
12.278952815038766
0
VERTEX
8
V6
10
4.5909454636967
20
12.290945463696696
0
VERTEX
8
V6
10
4.56199264865793
20
12.278952815038766
0
VERTEX
8
V6
10
4.55
20
12.249999999999996
0
VERTEX
8
V6
10
4.56199264865793
20
12.221047184961236
0
SEQEND
0
POLYLINE
8
V6
66
1
70
1
0
VERTEX
8
V6
10
5.174898278735461
20
12.221047184961236
0
VERTEX
8
V6
10
5.186890927393402
20
12.250000000000005
0
VERTEX
8
V6
10
5.174898278735461
20
12.278952815038766
0
VERTEX
8
V6
10
5.145945463696701
20
12.290945463696705
0
VERTEX
8
V6
10
5.116992648657931
20
12.278952815038766
0
VERTEX
8
V6
10
5.105000000000001
20
12.250000000000005
0
VERTEX
8
V6
10
5.116992648657931
20
12.221047184961236
0
VERTEX
8
V6
10
5.145945463696701
20
12.209054536303295
0
VERTEX
8
V6
10
5.174898278735461
20
12.221047184961236
0
SEQEND
0
POLYLINE
8
V6
66
1
70
1
0
VERTEX
8
V6
10
2.6000000000004144
20
10.14999999999963
0
VERTEX
8
V6
10
7.3999999999995865
20
10.14999999999963
0
VERTEX
8
V6
10
7.3999999999995865
20
14.350000000000371
0
VERTEX
8
V6
10
2.6000000000004144
20
14.350000000000371
0
VERTEX
8
V6
10
2.6000000000004144
20
10.14999999999963
0
SEQEND
0
TEXT
8
0
62
42
10
3.7625
20
5.0
40
2.25
1
V6
0
POLYLINE
8
L2
66
1
70
1
0
VERTEX
8
L2
10
8.85331409252808
20
0.3820670054747355
0
VERTEX
8
L2
10
8.632038483696281
20
0.3820670054747355
0
VERTEX
8
L2
10
8.632038483696281
20
1.0200000000000076
0
VERTEX
8
L2
10
8.74503944814101
20
1.0200000000000076
0
VERTEX
8
L2
10
8.74503944814101
20
0.9999999999999987
0
VERTEX
8
L2
10
8.84503944814101
20
0.9999999999999987
0
VERTEX
8
L2
10
8.84503944814101
20
1.1000000000000076
0
VERTEX
8
L2
10
8.552038483696279
20
1.1000000000000076
0
VERTEX
8
L2
10
8.552038483696279
20
0.3020670054747354
0
VERTEX
8
L2
10
8.93331409252808
20
0.3020670054747354
0
VERTEX
8
L2
10
8.93331409252808
20
0.8999999999999975
0
VERTEX
8
L2
10
8.83331409252808
20
0.8999999999999975
0
VERTEX
8
L2
10
8.83331409252808
20
0.7999999999999965
0
VERTEX
8
L2
10
8.85331409252808
20
0.7999999999999965
0
VERTEX
8
L2
10
8.85331409252808
20
0.3820670054747355
0
SEQEND
0
POLYLINE
8
L2
66
1
70
1
0
VERTEX
8
L2
10
11.104960551858992
20
-1.0999999999999988
0
VERTEX
8
L2
10
11.447961516303723
20
-1.0999999999999988
0
VERTEX
8
L2
10
11.447961516303723
20
-0.15029717132476583
0
VERTEX
8
L2
10
11.01668590747192
20
-0.15029717132476583
0
VERTEX
8
L2
10
11.01668590747192
20
-0.8999999999999981
0
VERTEX
8
L2
10
11.116685907471922
20
-0.8999999999999981
0
VERTEX
8
L2
10
11.116685907471922
20
-0.7999999999999978
0
VERTEX
8
L2
10
11.09668590747192
20
-0.7999999999999978
0
VERTEX
8
L2
10
11.09668590747192
20
-0.23029717132476613
0
VERTEX
8
L2
10
11.367961516303723
20
-0.23029717132476613
0
VERTEX
8
L2
10
11.367961516303723
20
-1.0199999999999985
0
VERTEX
8
L2
10
11.204960551858992
20
-1.0199999999999985
0
VERTEX
8
L2
10
11.204960551858992
20
-0.9999999999999984
0
VERTEX
8
L2
10
11.104960551858992
20
-0.9999999999999984
0
VERTEX
8
L2
10
11.104960551858992
20
-1.0999999999999988
0
SEQEND
0
POLYLINE
8
L2
66
1
70
1
0
VERTEX
8
L2
10
8.553085668657518
20
-0.028952815038765456
0
VERTEX
8
L2
10
8.582038483696278
20
-0.040945463696705486
0
VERTEX
8
L2
10
8.61099129873504
20
-0.028952815038765456
0
VERTEX
8
L2
10
8.622983947392981
20
-5.551115123125783e-15
0
VERTEX
8
L2
10
8.610991298735051
20
0.028952815038765456
0
VERTEX
8
L2
10
8.582038483696278
20
0.040945463696694384
0
VERTEX
8
L2
10
8.553085668657518
20
0.028952815038765456
0
VERTEX
8
L2
10
8.541093019999579
20
-5.551115123125783e-15
0
VERTEX
8
L2
10
8.553085668657518
20
-0.028952815038765456
0
SEQEND
0
POLYLINE
8
L2
66
1
70
1
0
VERTEX
8
L2
10
9.10851033702292
20
0.19206700547473554
0
VERTEX
8
L2
10
9.932193320178571
20
0.19206700547473554
0
VERTEX
8
L2
10
9.932193320178571
20
0.8999999999999975
0
VERTEX
8
L2
10
9.832193320178572
20
0.8999999999999975
0
VERTEX
8
L2
10
9.832193320178572
20
0.7999999999999965
0
VERTEX
8
L2
10
9.852193320178571
20
0.7999999999999965
0
VERTEX
8
L2
10
9.852193320178571
20
0.2720670054747354
0
VERTEX
8
L2
10
9.18851033702292
20
0.2720670054747354
0
VERTEX
8
L2
10
9.188510337022931
20
1.0200000000000076
0
VERTEX
8
L2
10
9.563918675791502
20
1.0200000000000076
0
VERTEX
8
L2
10
9.563918675791502
20
0.9999999999999987
0
VERTEX
8
L2
10
9.663918675791502
20
0.9999999999999987
0
VERTEX
8
L2
10
9.663918675791502
20
1.1000000000000076
0
VERTEX
8
L2
10
9.108510337022931
20
1.1000000000000076
0
VERTEX
8
L2
10
9.10851033702292
20
0.19206700547473554
0
SEQEND
0
POLYLINE
8
L2
66
1
70
1
0
VERTEX
8
L2
10
11.446914331342482
20
0.028952815038765456
0
VERTEX
8
L2
10
11.417961516303722
20
0.040945463696694384
0
VERTEX
8
L2
10
11.389008701264952
20
0.028952815038765456
0
VERTEX
8
L2
10
11.377016052607022
20
-5.551115123125783e-15
0
VERTEX
8
L2
10
11.389008701264963
20
-0.028952815038765456
0
VERTEX
8
L2
10
11.417961516303722
20
-0.040945463696705486
0
VERTEX
8
L2
10
11.446914331342482
20
-0.028952815038765456
0
VERTEX
8
L2
10
11.458906980000423
20
-5.551115123125783e-15
0
VERTEX
8
L2
10
11.446914331342482
20
0.028952815038765456
0
SEQEND
0
POLYLINE
8
L2
66
1
70
1
0
VERTEX
8
L2
10
9.170945463696661
20
-0.9000000000000081
0
VERTEX
8
L2
10
9.170945463696672
20
-0.38000000000000655
0
VERTEX
8
L2
10
8.717819133684271
20
-0.38000000000000655
0
VERTEX
8
L2
10
8.717819133684271
20
-1.0999999999999988
0
VERTEX
8
L2
10
9.123371306145701
20
-1.0999999999999988
0
VERTEX
8
L2
10
9.123371306145701
20
-0.9999999999999984
0
VERTEX
8
L2
10
9.023371306145702
20
-0.9999999999999984
0
VERTEX
8
L2
10
9.023371306145702
20
-1.0199999999999985
0
VERTEX
8
L2
10
8.797819133684271
20
-1.0199999999999985
0
VERTEX
8
L2
10
8.797819133684271
20
-0.4600000000000066
0
VERTEX
8
L2
10
9.09094546369667
20
-0.4600000000000066
0
VERTEX
8
L2
10
9.09094546369667
20
-0.8000000000000078
0
VERTEX
8
L2
10
9.07094546369667
20
-0.8000000000000078
0
VERTEX
8
L2
10
9.070945463696662
20
-0.9000000000000081
0
VERTEX
8
L2
10
9.170945463696661
20
-0.9000000000000081
0
SEQEND
0
POLYLINE
8
L2
66
1
70
1
0
VERTEX
8
L2
10
10.829054536303321
20
-0.049999999999995604
0
VERTEX
8
L2
10
10.929054536303331
20
-0.049999999999995604
0
VERTEX
8
L2
10
10.929054536303331
20
0.050000000000004485
0
VERTEX
8
L2
10
10.829054536303321
20
0.050000000000004485
0
VERTEX
8
L2
10
10.829054536303321
20
-0.049999999999995604
0
SEQEND
0
POLYLINE
8
L2
66
1
70
1
0
VERTEX
8
L2
10
11.016489662977142
20
1.1000000000000076
0
VERTEX
8
L2
10
10.808488698532411
20
1.1000000000000076
0
VERTEX
8
L2
10
10.808488698532411
20
1.0000000000000084
0
VERTEX
8
L2
10
10.90848869853241
20
1.0000000000000084
0
VERTEX
8
L2
10
10.90848869853241
20
1.0200000000000076
0
VERTEX
8
L2
10
10.936489662977142
20
1.0200000000000076
0
VERTEX
8
L2
10
10.936489662977142
20
0.47206700547473646
0
VERTEX
8
L2
10
10.800214054145332
20
0.47206700547473646
0
VERTEX
8
L2
10
10.800214054145332
20
0.8000000000000074
0
VERTEX
8
L2
10
10.820214054145332
20
0.8000000000000074
0
VERTEX
8
L2
10
10.820214054145332
20
0.9000000000000075
0
VERTEX
8
L2
10
10.72021405414533
20
0.9000000000000075
0
VERTEX
8
L2
10
10.72021405414533
20
0.3920670054747355
0
VERTEX
8
L2
10
11.016489662977142
20
0.3920670054747355
0
VERTEX
8
L2
10
11.016489662977142
20
1.1000000000000076
0
SEQEND
0
POLYLINE
8
L2
66
1
70
1
0
VERTEX
8
L2
10
10.544054536303321
20
0.050000000000004485
0
VERTEX
8
L2
10
10.544054536303321
20
-0.049999999999995604
0
VERTEX
8
L2
10
10.644054536303331
20
-0.049999999999995604
0
VERTEX
8
L2
10
10.644054536303331
20
0.050000000000004485
0
VERTEX
8
L2
10
10.544054536303321
20
0.050000000000004485
0
SEQEND
0
POLYLINE
8
L2
66
1
70
1
0
VERTEX
8
L2
10
10.503380590370412
20
1.1000000000000076
0
VERTEX
8
L2
10
10.12537962592569
20
1.1000000000000076
0
VERTEX
8
L2
10
10.12537962592569
20
1.0000000000000084
0
VERTEX
8
L2
10
10.225379625925692
20
1.0000000000000084
0
VERTEX
8
L2
10
10.225379625925692
20
1.0200000000000076
0
VERTEX
8
L2
10
10.42338059037041
20
1.0200000000000076
0
VERTEX
8
L2
10
10.42338059037041
20
0.2720670054747354
0
VERTEX
8
L2
10
10.117104981538612
20
0.2720670054747354
0
VERTEX
8
L2
10
10.117104981538612
20
0.8000000000000074
0
VERTEX
8
L2
10
10.137104981538611
20
0.8000000000000074
0
VERTEX
8
L2
10
10.137104981538611
20
0.9000000000000075
0
VERTEX
8
L2
10
10.037104981538612
20
0.9000000000000075
0
VERTEX
8
L2
10
10.037104981538612
20
0.19206700547473554
0
VERTEX
8
L2
10
10.503380590370412
20
0.19206700547473554
0
VERTEX
8
L2
10
10.503380590370412
20
1.1000000000000076
0
SEQEND
0
POLYLINE
8
L2
66
1
70
1
0
VERTEX
8
L2
10
10.19594546369667
20
0.050000000000004485
0
VERTEX
8
L2
10
10.095945463696662
20
0.050000000000004485
0
VERTEX
8
L2
10
10.095945463696662
20
-0.049999999999995604
0
VERTEX
8
L2
10
10.19594546369667
20
-0.049999999999995604
0
VERTEX
8
L2
10
10.19594546369667
20
0.050000000000004485
0
SEQEND
0
POLYLINE
8
L2
66
1
70
1
0
VERTEX
8
L2
10
10.155113761442312
20
-1.1200000000000028
0
VERTEX
8
L2
10
9.956036789017991
20
-1.1200000000000028
0
VERTEX
8
L2
10
9.956036789017991
20
-0.37206700547473637
0
VERTEX
8
L2
10
10.175113761442311
20
-0.37206700547473637
0
VERTEX
8
L2
10
10.175113761442311
20
-0.622067005474737
0
VERTEX
8
L2
10
10.155113761442312
20
-0.622067005474737
0
VERTEX
8
L2
10
10.155113761442312
20
-0.7220670054747376
0
VERTEX
8
L2
10
10.255113761442312
20
-0.7220670054747376
0
VERTEX
8
L2
10
10.255113761442312
20
-0.2920670054747363
0
VERTEX
8
L2
10
9.876036789017991
20
-0.2920670054747363
0
VERTEX
8
L2
10
9.876036789017991
20
-1.200000000000003
0
VERTEX
8
L2
10
10.255113761442312
20
-1.200000000000003
0
VERTEX
8
L2
10
10.255113761442312
20
-0.8720670054747379
0
VERTEX
8
L2
10
10.155113761442312
20
-0.8720670054747379
0
VERTEX
8
L2
10
10.155113761442312
20
-1.1200000000000028
0
SEQEND
0
POLYLINE
8
L2
66
1
70
1
0
VERTEX
8
L2
10
9.54094546369666
20
0.050000000000004485
0
VERTEX
8
L2
10
9.540945463696671
20
-0.13000000000000567
0
VERTEX
8
L2
10
9.31255522116643
20
-0.13000000000000567
0
VERTEX
8
L2
10
9.31255522116643
20
-0.6600645558592573
0
VERTEX
8
L2
10
9.412555221166432
20
-0.6600645558592573
0
VERTEX
8
L2
10
9.412555221166432
20
-0.560064555859257
0
VERTEX
8
L2
10
9.39255522116643
20
-0.560064555859257
0
VERTEX
8
L2
10
9.39255522116643
20
-0.21000000000000596
0
VERTEX
8
L2
10
9.64094546369667
20
-0.21000000000000596
0
VERTEX
8
L2
10
9.64094546369667
20
0.050000000000004485
0
VERTEX
8
L2
10
9.54094546369666
20
0.050000000000004485
0
SEQEND
0
POLYLINE
8
L2
66
1
70
1
0
VERTEX
8
L2
10
10.505113761442312
20
-1.0999999999999988
0
VERTEX
8
L2
10
10.817306953732892
20
-1.0999999999999988
0
VERTEX
8
L2
10
10.817306953732892
20
-0.9999999999999984
0
VERTEX
8
L2
10
10.71730695373289
20
-0.9999999999999984
0
VERTEX
8
L2
10
10.71730695373289
20
-1.0199999999999985
0
VERTEX
8
L2
10
10.585113761442312
20
-1.0199999999999985
0
VERTEX
8
L2
10
10.585113761442312
20
-0.27206700547473606
0
VERTEX
8
L2
10
10.82558159811996
20
-0.27206700547473606
0
VERTEX
8
L2
10
10.82558159811996
20
-0.8000000000000078
0
VERTEX
8
L2
10
10.80558159811996
20
-0.8000000000000078
0
VERTEX
8
L2
10
10.80558159811996
20
-0.8999999999999981
0
VERTEX
8
L2
10
10.905581598119962
20
-0.8999999999999981
0
VERTEX
8
L2
10
10.905581598119962
20
-0.19206700547473576
0
VERTEX
8
L2
10
10.505113761442312
20
-0.19206700547473576
0
VERTEX
8
L2
10
10.505113761442312
20
-1.0999999999999988
0
SEQEND
0
POLYLINE
8
L2
66
1
70
1
0
VERTEX
8
L2
10
9.170945463696672
20
-0.049999999999995604
0
VERTEX
8
L2
10
9.170945463696672
20
0.050000000000004485
0
VERTEX
8
L2
10
9.070945463696662
20
0.050000000000004485
0
VERTEX
8
L2
10
9.070945463696662
20
-0.049999999999995604
0
VERTEX
8
L2
10
9.170945463696672
20
-0.049999999999995604
0
SEQEND
0
POLYLINE
8
L2
66
1
70
1
0
VERTEX
8
L2
10
7.600000000000421
20
-2.1000000000003616
0
VERTEX
8
L2
10
12.399999999999581
20
-2.1000000000003616
0
VERTEX
8
L2
10
12.399999999999581
20
2.1000000000003616
0
VERTEX
8
L2
10
7.600000000000421
20
2.1000000000003616
0
VERTEX
8
L2
10
7.600000000000421
20
-2.1000000000003616
0
SEQEND
0
TEXT
8
0
62
52
10
8.7625
20
-7.425000000000001
40
2.25
1
L2
0
POLYLINE
8
V5
66
1
70
1
0
VERTEX
8
V5
10
8.769999999999996
20
13.330000000000013
0
VERTEX
8
V5
10
8.756120681127747
20
13.303507639857912
0
VERTEX
8
V5
10
8.765039448141037
20
13.274960551858973
0
VERTEX
8
V5
10
8.791531808283136
20
13.261081232986712
0
VERTEX
8
V5
10
8.820078896282077
20
13.270000000000012
0
VERTEX
8
V5
10
8.833958215154336
20
13.296492360142112
0
VERTEX
8
V5
10
8.825039448141037
20
13.325039448141052
0
VERTEX
8
V5
10
8.798547087998937
20
13.338918767013302
0
VERTEX
8
V5
10
8.769999999999996
20
13.330000000000013
0
SEQEND
0
POLYLINE
8
V5
66
1
70
1
0
VERTEX
8
V5
10
9.076878946003626
20
11.238918767013288
0
VERTEX
8
V5
10
9.048331858004687
20
11.229999999999997
0
VERTEX
8
V5
10
9.034452539132436
20
11.203507639857897
0
VERTEX
8
V5
10
9.043371306145726
20
11.174960551858957
0
VERTEX
8
V5
10
9.069863666287837
20
11.161081232986698
0
VERTEX
8
V5
10
9.098410754286768
20
11.169999999999998
0
VERTEX
8
V5
10
9.112290073159027
20
11.196492360142097
0
VERTEX
8
V5
10
9.103371306145727
20
11.225039448141038
0
VERTEX
8
V5
10
9.076878946003626
20
11.238918767013288
0
SEQEND
0
POLYLINE
8
V5
66
1
70
1
0
VERTEX
8
V5
10
9.091992648657927
20
12.278952815038766
0
VERTEX
8
V5
10
9.079999999999998
20
12.249999999999995
0
VERTEX
8
V5
10
9.091992648657927
20
12.221047184961234
0
VERTEX
8
V5
10
9.120945463696698
20
12.209054536303295
0
VERTEX
8
V5
10
9.149898278735458
20
12.221047184961234
0
VERTEX
8
V5
10
9.161890927393397
20
12.249999999999995
0
VERTEX
8
V5
10
9.149898278735458
20
12.278952815038766
0
VERTEX
8
V5
10
9.120945463696698
20
12.290945463696696
0
VERTEX
8
V5
10
9.091992648657927
20
12.278952815038766
0
SEQEND
0
POLYLINE
8
V5
66
1
70
1
0
VERTEX
8
V5
10
10.833449250391402
20
13.270000000000012
0
VERTEX
8
V5
10
10.861996338390341
20
13.261081232986722
0
VERTEX
8
V5
10
10.888488698532441
20
13.274960551858973
0
VERTEX
8
V5
10
10.897407465545742
20
13.303507639857912
0
VERTEX
8
V5
10
10.883528146673482
20
13.330000000000013
0
VERTEX
8
V5
10
10.854981058674552
20
13.338918767013302
0
VERTEX
8
V5
10
10.828488698532443
20
13.325039448141052
0
VERTEX
8
V5
10
10.819569931519151
20
13.296492360142112
0
VERTEX
8
V5
10
10.833449250391402
20
13.270000000000012
0
SEQEND
0
POLYLINE
8
V5
66
1
70
1
0
VERTEX
8
V5
10
9.549999999999999
20
12.249999999999995
0
VERTEX
8
V5
10
9.56199264865793
20
12.221047184961234
0
VERTEX
8
V5
10
9.590945463696698
20
12.209054536303295
0
VERTEX
8
V5
10
9.619898278735459
20
12.221047184961234
0
VERTEX
8
V5
10
9.631890927393398
20
12.249999999999995
0
VERTEX
8
V5
10
9.619898278735459
20
12.278952815038766
0
VERTEX
8
V5
10
9.590945463696698
20
12.290945463696696
0
VERTEX
8
V5
10
9.56199264865793
20
12.278952815038766
0
VERTEX
8
V5
10
9.549999999999999
20
12.249999999999995
0
SEQEND
0
POLYLINE
8
V5
66
1
70
1
0
VERTEX
8
V5
10
10.850101721264592
20
12.221047184961234
0
VERTEX
8
V5
10
10.879054536303363
20
12.209054536303295
0
VERTEX
8
V5
10
10.908007351342121
20
12.221047184961234
0
VERTEX
8
V5
10
10.920000000000062
20
12.250000000000005
0
VERTEX
8
V5
10
10.908007351342121
20
12.278952815038766
0
VERTEX
8
V5
10
10.879054536303363
20
12.290945463696705
0
VERTEX
8
V5
10
10.850101721264592
20
12.278952815038766
0
VERTEX
8
V5
10
10.838109072606661
20
12.250000000000005
0
VERTEX
8
V5
10
10.850101721264592
20
12.221047184961234
0
SEQEND
0
POLYLINE
8
V5
66
1
70
1
0
VERTEX
8
V5
10
9.588879227650489
20
13.330000000000013
0
VERTEX
8
V5
10
9.574999908778228
20
13.303507639857902
0
VERTEX
8
V5
10
9.583918675791528
20
13.274960551858973
0
VERTEX
8
V5
10
9.610411035933629
20
13.261081232986712
0
VERTEX
8
V5
10
9.638958123932568
20
13.270000000000012
0
VERTEX
8
V5
10
9.652837442804818
20
13.296492360142112
0
VERTEX
8
V5
10
9.643918675791529
20
13.325039448141052
0
VERTEX
8
V5
10
9.61742631564942
20
13.338918767013302
0
VERTEX
8
V5
10
9.588879227650489
20
13.330000000000013
0
SEQEND
0
POLYLINE
8
V5
66
1
70
1
0
VERTEX
8
V5
10
10.17888726578362
20
13.261081232986722
0
VERTEX
8
V5
10
10.20537962592572
20
13.274960551858973
0
VERTEX
8
V5
10
10.214298392939021
20
13.303507639857912
0
VERTEX
8
V5
10
10.200419074066762
20
13.330000000000013
0
VERTEX
8
V5
10
10.17187198606782
20
13.338918767013302
0
VERTEX
8
V5
10
10.14537962592572
20
13.325039448141052
0
VERTEX
8
V5
10
10.13646085891243
20
13.296492360142112
0
VERTEX
8
V5
10
10.15034017778468
20
13.270000000000012
0
VERTEX
8
V5
10
10.17888726578362
20
13.261081232986722
0
SEQEND
0
POLYLINE
8
V5
66
1
70
1
0
VERTEX
8
V5
10
11.129921103717994
20
11.169999999999998
0
VERTEX
8
V5
10
11.158468191716922
20
11.161081232986707
0
VERTEX
8
V5
10
11.184960551859033
20
11.174960551858957
0
VERTEX
8
V5
10
11.193879318872323
20
11.203507639857897
0
VERTEX
8
V5
10
11.180000000000073
20
11.229999999999997
0
VERTEX
8
V5
10
11.151452912001131
20
11.238918767013288
0
VERTEX
8
V5
10
11.124960551859033
20
11.225039448141038
0
VERTEX
8
V5
10
11.116041784845732
20
11.196492360142097
0
VERTEX
8
V5
10
11.129921103717994
20
11.169999999999998
0
SEQEND
0
POLYLINE
8
V5
66
1
70
1
0
VERTEX
8
V5
10
10.11699264865793
20
12.221047184961234
0
VERTEX
8
V5
10
10.1459454636967
20
12.209054536303295
0
VERTEX
8
V5
10
10.17489827873546
20
12.221047184961234
0
VERTEX
8
V5
10
10.186890927393401
20
12.250000000000005
0
VERTEX
8
V5
10
10.17489827873546
20
12.278952815038766
0
VERTEX
8
V5
10
10.1459454636967
20
12.290945463696705
0
VERTEX
8
V5
10
10.11699264865793
20
12.278952815038766
0
VERTEX
8
V5
10
10.105
20
12.250000000000005
0
VERTEX
8
V5
10
10.11699264865793
20
12.221047184961234
0
SEQEND
0
POLYLINE
8
V5
66
1
70
1
0
VERTEX
8
V5
10
8.553085668657515
20
12.221047184961234
0
VERTEX
8
V5
10
8.582038483696273
20
12.209054536303295
0
VERTEX
8
V5
10
8.610991298735035
20
12.221047184961234
0
VERTEX
8
V5
10
8.622983947392976
20
12.249999999999995
0
VERTEX
8
V5
10
8.610991298735046
20
12.278952815038766
0
VERTEX
8
V5
10
8.582038483696273
20
12.290945463696696
0
VERTEX
8
V5
10
8.553085668657515
20
12.278952815038766
0
VERTEX
8
V5
10
8.541093019999574
20
12.249999999999995
0
VERTEX
8
V5
10
8.553085668657515
20
12.221047184961234
0
SEQEND
0
POLYLINE
8
V5
66
1
70
1
0
VERTEX
8
V5
10
10.565101721264591
20
12.221047184961234
0
VERTEX
8
V5
10
10.59405453630336
20
12.209054536303295
0
VERTEX
8
V5
10
10.623007351342121
20
12.221047184961234
0
VERTEX
8
V5
10
10.635000000000062
20
12.250000000000005
0
VERTEX
8
V5
10
10.623007351342121
20
12.278952815038766
0
VERTEX
8
V5
10
10.59405453630336
20
12.290945463696705
0
VERTEX
8
V5
10
10.565101721264591
20
12.278952815038766
0
VERTEX
8
V5
10
10.553109072606661
20
12.250000000000005
0
VERTEX
8
V5
10
10.565101721264591
20
12.221047184961234
0
SEQEND
0
POLYLINE
8
V5
66
1
70
1
0
VERTEX
8
V5
10
11.446914331342484
20
12.278952815038766
0
VERTEX
8
V5
10
11.417961516303723
20
12.290945463696696
0
VERTEX
8
V5
10
11.389008701264952
20
12.278952815038766
0
VERTEX
8
V5
10
11.377016052607024
20
12.249999999999995
0
VERTEX
8
V5
10
11.389008701264963
20
12.221047184961234
0
VERTEX
8
V5
10
11.417961516303723
20
12.209054536303295
0
VERTEX
8
V5
10
11.446914331342484
20
12.221047184961234
0
VERTEX
8
V5
10
11.458906980000425
20
12.249999999999995
0
VERTEX
8
V5
10
11.446914331342484
20
12.278952815038766
0
SEQEND
0
POLYLINE
8
V5
66
1
70
1
0
VERTEX
8
V5
10
10.742267505591881
20
11.169999999999998
0
VERTEX
8
V5
10
10.770814593590822
20
11.161081232986707
0
VERTEX
8
V5
10
10.797306953732923
20
11.174960551858957
0
VERTEX
8
V5
10
10.806225720746221
20
11.203507639857897
0
VERTEX
8
V5
10
10.792346401873962
20
11.229999999999997
0
VERTEX
8
V5
10
10.763799313875023
20
11.238918767013288
0
VERTEX
8
V5
10
10.737306953732922
20
11.225039448141038
0
VERTEX
8
V5
10
10.728388186719632
20
11.196492360142097
0
VERTEX
8
V5
10
10.742267505591881
20
11.169999999999998
0
SEQEND
0
POLYLINE
8
V5
66
1
70
1
0
VERTEX
8
V5
10
10.23011376144234
20
11.358147048670558
0
VERTEX
8
V5
10
10.20142686839872
20
11.366975226628199
0
VERTEX
8
V5
10
10.17489970729703
20
11.352932994525258
0
VERTEX
8
V5
10
10.16607152933939
20
11.324246101481638
0
VERTEX
8
V5
10
10.18011376144234
20
11.297718940379958
0
VERTEX
8
V5
10
10.20880065448595
20
11.288890762422309
0
VERTEX
8
V5
10
10.235327815587642
20
11.302932994525259
0
VERTEX
8
V5
10
10.24415599354528
20
11.331619887568868
0
VERTEX
8
V5
10
10.23011376144234
20
11.358147048670558
0
SEQEND
0
POLYLINE
8
V5
66
1
70
1
0
VERTEX
8
V5
10
7.6000000000004135
20
10.14999999999963
0
VERTEX
8
V5
10
12.399999999999586
20
10.14999999999963
0
VERTEX
8
V5
10
12.399999999999586
20
14.350000000000371
0
VERTEX
8
V5
10
7.6000000000004135
20
14.350000000000371
0
VERTEX
8
V5
10
7.6000000000004135
20
10.14999999999963
0
SEQEND
0
TEXT
8
0
62
62
10
8.7625
20
5.0
40
2.25
1
V5
0
POLYLINE
8
L1
66
1
70
1
0
VERTEX
8
L1
10
13.77
20
1.0800000000000085
0
VERTEX
8
L1
10
13.756120681127749
20
1.0535076398579084
0
VERTEX
8
L1
10
13.76503944814104
20
1.0249605518589695
0
VERTEX
8
L1
10
13.791531808283139
20
1.0110812329867085
0
VERTEX
8
L1
10
13.82007889628208
20
1.0200000000000085
0
VERTEX
8
L1
10
13.83395821515434
20
1.0464923601421086
0
VERTEX
8
L1
10
13.82503944814104
20
1.0750394481410486
0
VERTEX
8
L1
10
13.798547087998939
20
1.0889187670132996
0
VERTEX
8
L1
10
13.77
20
1.0800000000000085
0
SEQEND
0
POLYLINE
8
L1
66
1
70
1
0
VERTEX
8
L1
10
16.12992110371799
20
-1.0799999999999985
0
VERTEX
8
L1
10
16.15846819171692
20
-1.0889187670132885
0
VERTEX
8
L1
10
16.18496055185903
20
-1.0750394481410386
0
VERTEX
8
L1
10
16.19387931887232
20
-1.0464923601420986
0
VERTEX
8
L1
10
16.18000000000007
20
-1.0199999999999985
0
VERTEX
8
L1
10
16.15145291200113
20
-1.0110812329867085
0
VERTEX
8
L1
10
16.124960551859033
20
-1.0249605518589584
0
VERTEX
8
L1
10
16.11604178484573
20
-1.0535076398578984
0
VERTEX
8
L1
10
16.12992110371799
20
-1.0799999999999985
0
SEQEND
0
POLYLINE
8
L1
66
1
70
1
0
VERTEX
8
L1
10
14.58887922765049
20
1.0800000000000085
0
VERTEX
8
L1
10
14.57499990877823
20
1.0535076398578984
0
VERTEX
8
L1
10
14.58391867579153
20
1.0249605518589695
0
VERTEX
8
L1
10
14.61041103593363
20
1.0110812329867085
0
VERTEX
8
L1
10
14.63895812393257
20
1.0200000000000085
0
VERTEX
8
L1
10
14.65283744280482
20
1.0464923601421086
0
VERTEX
8
L1
10
14.64391867579153
20
1.0750394481410486
0
VERTEX
8
L1
10
14.61742631564942
20
1.0889187670132996
0
VERTEX
8
L1
10
14.58887922765049
20
1.0800000000000085
0
SEQEND
0
POLYLINE
8
L1
66
1
70
1
0
VERTEX
8
L1
10
13.553085668657518
20
-0.028952815038764596
0
VERTEX
8
L1
10
13.582038483696277
20
-0.040945463696704994
0
VERTEX
8
L1
10
13.610991298735039
20
-0.028952815038764596
0
VERTEX
8
L1
10
13.62298394739298
20
-4.697631172945194e-15
0
VERTEX
8
L1
10
13.61099129873505
20
0.02895281503876551
0
VERTEX
8
L1
10
13.582038483696277
20
0.0409454636966953
0
VERTEX
8
L1
10
13.553085668657518
20
0.02895281503876551
0
VERTEX
8
L1
10
13.541093019999577
20
-4.697631172945194e-15
0
VERTEX
8
L1
10
13.553085668657518
20
-0.028952815038764596
0
SEQEND
0
POLYLINE
8
L1
66
1
70
1
0
VERTEX
8
L1
10
14.55
20
-4.697631172945194e-15
0
VERTEX
8
L1
10
14.561992648657931
20
-0.028952815038764596
0
VERTEX
8
L1
10
14.5909454636967
20
-0.040945463696704994
0
VERTEX
8
L1
10
14.61989827873546
20
-0.028952815038764596
0
VERTEX
8
L1
10
14.6318909273934
20
-4.697631172945194e-15
0
VERTEX
8
L1
10
14.61989827873546
20
0.02895281503876551
0
VERTEX
8
L1
10
14.5909454636967
20
0.0409454636966953
0
VERTEX
8
L1
10
14.561992648657931
20
0.02895281503876551
0
VERTEX
8
L1
10
14.55
20
-4.697631172945194e-15
0
SEQEND
0
POLYLINE
8
L1
66
1
70
1
0
VERTEX
8
L1
10
16.44691433134248
20
0.02895281503876551
0
VERTEX
8
L1
10
16.41796151630372
20
0.0409454636966953
0
VERTEX
8
L1
10
16.38900870126495
20
0.02895281503876551
0
VERTEX
8
L1
10
16.377016052607022
20
-4.697631172945194e-15
0
VERTEX
8
L1
10
16.389008701264963
20
-0.028952815038764596
0
VERTEX
8
L1
10
16.41796151630372
20
-0.040945463696704994
0
VERTEX
8
L1
10
16.44691433134248
20
-0.028952815038764596
0
VERTEX
8
L1
10
16.45890698000042
20
-4.697631172945194e-15
0
VERTEX
8
L1
10
16.44691433134248
20
0.02895281503876551
0
SEQEND
0
POLYLINE
8
L1
66
1
70
1
0
VERTEX
8
L1
10
14.07687894600363
20
-1.0110812329867085
0
VERTEX
8
L1
10
14.04833185800469
20
-1.0199999999999985
0
VERTEX
8
L1
10
14.03445253913244
20
-1.0464923601420986
0
VERTEX
8
L1
10
14.04337130614573
20
-1.0750394481410386
0
VERTEX
8
L1
10
14.069863666287839
20
-1.0889187670132985
0
VERTEX
8
L1
10
14.09841075428677
20
-1.0799999999999985
0
VERTEX
8
L1
10
14.112290073159029
20
-1.0535076398578984
0
VERTEX
8
L1
10
14.10337130614573
20
-1.0249605518589584
0
VERTEX
8
L1
10
14.07687894600363
20
-1.0110812329867085
0
SEQEND
0
POLYLINE
8
L1
66
1
70
1
0
VERTEX
8
L1
10
15.92905453630333
20
0.0500000000000054
0
VERTEX
8
L1
10
15.829054536303321
20
0.0500000000000054
0
VERTEX
8
L1
10
15.829054536303321
20
-0.049999999999995194
0
VERTEX
8
L1
10
15.92905453630333
20
-0.049999999999995194
0
VERTEX
8
L1
10
15.92905453630333
20
0.0500000000000054
0
SEQEND
0
POLYLINE
8
L1
66
1
70
1
0
VERTEX
8
L1
10
15.833449250391402
20
1.0200000000000085
0
VERTEX
8
L1
10
15.861996338390341
20
1.0110812329867185
0
VERTEX
8
L1
10
15.88848869853244
20
1.0249605518589695
0
VERTEX
8
L1
10
15.89740746554574
20
1.0535076398579084
0
VERTEX
8
L1
10
15.88352814667348
20
1.0800000000000085
0
VERTEX
8
L1
10
15.85498105867455
20
1.0889187670132996
0
VERTEX
8
L1
10
15.82848869853244
20
1.0750394481410486
0
VERTEX
8
L1
10
15.81956993151915
20
1.0464923601421086
0
VERTEX
8
L1
10
15.833449250391402
20
1.0200000000000085
0
SEQEND
0
POLYLINE
8
L1
66
1
70
1
0
VERTEX
8
L1
10
15.64405453630333
20
0.0500000000000054
0
VERTEX
8
L1
10
15.544054536303321
20
0.0500000000000054
0
VERTEX
8
L1
10
15.544054536303321
20
-0.049999999999995194
0
VERTEX
8
L1
10
15.64405453630333
20
-0.049999999999995194
0
VERTEX
8
L1
10
15.64405453630333
20
0.0500000000000054
0
SEQEND
0
POLYLINE
8
L1
66
1
70
1
0
VERTEX
8
L1
10
15.17888726578362
20
1.0110812329867185
0
VERTEX
8
L1
10
15.20537962592572
20
1.0249605518589695
0
VERTEX
8
L1
10
15.21429839293902
20
1.0535076398579084
0
VERTEX
8
L1
10
15.200419074066762
20
1.0800000000000085
0
VERTEX
8
L1
10
15.17187198606782
20
1.0889187670132996
0
VERTEX
8
L1
10
15.14537962592572
20
1.0750394481410486
0
VERTEX
8
L1
10
15.13646085891243
20
1.0464923601421086
0
VERTEX
8
L1
10
15.150340177784681
20
1.0200000000000085
0
VERTEX
8
L1
10
15.17888726578362
20
1.0110812329867185
0
SEQEND
0
POLYLINE
8
L1
66
1
70
1
0
VERTEX
8
L1
10
15.09594546369667
20
-0.37206700547473587
0
VERTEX
8
L1
10
15.17511376144231
20
-0.37206700547473587
0
VERTEX
8
L1
10
15.17511376144231
20
-0.8720670054747377
0
VERTEX
8
L1
10
15.15511376144231
20
-0.8720670054747377
0
VERTEX
8
L1
10
15.15511376144231
20
-0.9720670054747382
0
VERTEX
8
L1
10
15.25511376144231
20
-0.9720670054747382
0
VERTEX
8
L1
10
15.25511376144231
20
-0.2920670054747359
0
VERTEX
8
L1
10
15.19594546369667
20
-0.2920670054747359
0
VERTEX
8
L1
10
15.19594546369667
20
0.0500000000000054
0
VERTEX
8
L1
10
15.09594546369666
20
0.0500000000000054
0
VERTEX
8
L1
10
15.09594546369667
20
-0.37206700547473587
0
SEQEND
0
POLYLINE
8
L1
66
1
70
1
0
VERTEX
8
L1
10
15.742267505591881
20
-1.0799999999999985
0
VERTEX
8
L1
10
15.77081459359082
20
-1.0889187670132885
0
VERTEX
8
L1
10
15.797306953732921
20
-1.0750394481410386
0
VERTEX
8
L1
10
15.80622572074622
20
-1.0464923601420986
0
VERTEX
8
L1
10
15.79234640187396
20
-1.0199999999999985
0
VERTEX
8
L1
10
15.76379931387502
20
-1.0110812329867085
0
VERTEX
8
L1
10
15.73730695373292
20
-1.0249605518589584
0
VERTEX
8
L1
10
15.72838818671963
20
-1.0535076398578984
0
VERTEX
8
L1
10
15.742267505591881
20
-1.0799999999999985
0
SEQEND
0
POLYLINE
8
L1
66
1
70
1
0
VERTEX
8
L1
10
14.07094546369666
20
-0.049999999999995194
0
VERTEX
8
L1
10
14.17094546369667
20
-0.049999999999995194
0
VERTEX
8
L1
10
14.17094546369667
20
0.0500000000000054
0
VERTEX
8
L1
10
14.07094546369666
20
0.0500000000000054
0
VERTEX
8
L1
10
14.07094546369666
20
-0.049999999999995194
0
SEQEND
0
POLYLINE
8
L1
66
1
70
1
0
VERTEX
8
L1
10
12.600000000000419
20
-2.100000000000363
0
VERTEX
8
L1
10
17.39999999999958
20
-2.100000000000363
0
VERTEX
8
L1
10
17.39999999999958
20
2.100000000000363
0
VERTEX
8
L1
10
12.600000000000419
20
2.100000000000363
0
VERTEX
8
L1
10
12.600000000000419
20
-2.100000000000363
0
SEQEND
0
TEXT
8
0
62
72
10
13.7625
20
-7.425000000000001
40
2.25
1
L1
0
POLYLINE
8
V4
66
1
70
1
0
VERTEX
8
V4
10
13.798547087998937
20
13.338918767013302
0
VERTEX
8
V4
10
13.769999999999998
20
13.33000000000001
0
VERTEX
8
V4
10
13.756120681127747
20
13.303507639857912
0
VERTEX
8
V4
10
13.765039448141037
20
13.274960551858971
0
VERTEX
8
V4
10
13.791531808283137
20
13.261081232986712
0
VERTEX
8
V4
10
13.820078896282077
20
13.27000000000001
0
VERTEX
8
V4
10
13.833958215154338
20
13.29649236014211
0
VERTEX
8
V4
10
13.825039448141037
20
13.325039448141052
0
VERTEX
8
V4
10
13.798547087998937
20
13.338918767013302
0
SEQEND
0
POLYLINE
8
V4
66
1
70
1
0
VERTEX
8
V4
10
14.048331858004687
20
11.229999999999997
0
VERTEX
8
V4
10
14.034452539132438
20
11.203507639857897
0
VERTEX
8
V4
10
14.043371306145728
20
11.174960551858955
0
VERTEX
8
V4
10
14.069863666287839
20
11.161081232986696
0
VERTEX
8
V4
10
14.098410754286768
20
11.169999999999996
0
VERTEX
8
V4
10
14.112290073159029
20
11.196492360142097
0
VERTEX
8
V4
10
14.103371306145728
20
11.225039448141038
0
VERTEX
8
V4
10
14.076878946003628
20
11.238918767013287
0
VERTEX
8
V4
10
14.048331858004687
20
11.229999999999997
0
SEQEND
0
POLYLINE
8
V4
66
1
70
1
0
VERTEX
8
V4
10
15.833449250391402
20
13.27000000000001
0
VERTEX
8
V4
10
15.861996338390343
20
13.261081232986722
0
VERTEX
8
V4
10
15.888488698532443
20
13.274960551858971
0
VERTEX
8
V4
10
15.897407465545742
20
13.303507639857912
0
VERTEX
8
V4
10
15.883528146673484
20
13.33000000000001
0
VERTEX
8
V4
10
15.854981058674554
20
13.338918767013302
0
VERTEX
8
V4
10
15.828488698532443
20
13.325039448141052
0
VERTEX
8
V4
10
15.819569931519153
20
13.29649236014211
0
VERTEX
8
V4
10
15.833449250391402
20
13.27000000000001
0
SEQEND
0
POLYLINE
8
V4
66
1
70
1
0
VERTEX
8
V4
10
14.079999999999998
20
12.249999999999995
0
VERTEX
8
V4
10
14.091992648657929
20
12.221047184961233
0
VERTEX
8
V4
10
14.120945463696698
20
12.209054536303293
0
VERTEX
8
V4
10
14.149898278735458
20
12.221047184961233
0
VERTEX
8
V4
10
14.161890927393399
20
12.249999999999995
0
VERTEX
8
V4
10
14.149898278735458
20
12.278952815038764
0
VERTEX
8
V4
10
14.120945463696698
20
12.290945463696694
0
VERTEX
8
V4
10
14.091992648657929
20
12.278952815038764
0
VERTEX
8
V4
10
14.079999999999998
20
12.249999999999995
0
SEQEND
0
POLYLINE
8
V4
66
1
70
1
0
VERTEX
8
V4
10
15.850101721264593
20
12.221047184961233
0
VERTEX
8
V4
10
15.879054536303363
20
12.209054536303293
0
VERTEX
8
V4
10
15.908007351342123
20
12.221047184961233
0
VERTEX
8
V4
10
15.920000000000064
20
12.250000000000004
0
VERTEX
8
V4
10
15.908007351342123
20
12.278952815038764
0
VERTEX
8
V4
10
15.879054536303363
20
12.290945463696705
0
VERTEX
8
V4
10
15.850101721264593
20
12.278952815038764
0
VERTEX
8
V4
10
15.838109072606663
20
12.250000000000004
0
VERTEX
8
V4
10
15.850101721264593
20
12.221047184961233
0
SEQEND
0
POLYLINE
8
V4
66
1
70
1
0
VERTEX
8
V4
10
14.549999999999999
20
12.249999999999995
0
VERTEX
8
V4
10
14.56199264865793
20
12.221047184961233
0
VERTEX
8
V4
10
14.5909454636967
20
12.209054536303293
0
VERTEX
8
V4
10
14.619898278735459
20
12.221047184961233
0
VERTEX
8
V4
10
14.6318909273934
20
12.249999999999995
0
VERTEX
8
V4
10
14.619898278735459
20
12.278952815038764
0
VERTEX
8
V4
10
14.5909454636967
20
12.290945463696694
0
VERTEX
8
V4
10
14.56199264865793
20
12.278952815038764
0
VERTEX
8
V4
10
14.549999999999999
20
12.249999999999995
0
SEQEND
0
POLYLINE
8
V4
66
1
70
1
0
VERTEX
8
V4
10
15.150340177784681
20
13.27000000000001
0
VERTEX
8
V4
10
15.17888726578362
20
13.261081232986722
0
VERTEX
8
V4
10
15.20537962592572
20
13.274960551858971
0
VERTEX
8
V4
10
15.214298392939021
20
13.303507639857912
0
VERTEX
8
V4
10
15.200419074066762
20
13.33000000000001
0
VERTEX
8
V4
10
15.17187198606782
20
13.338918767013302
0
VERTEX
8
V4
10
15.14537962592572
20
13.325039448141052
0
VERTEX
8
V4
10
15.13646085891243
20
13.29649236014211
0
VERTEX
8
V4
10
15.150340177784681
20
13.27000000000001
0
SEQEND
0
POLYLINE
8
V4
66
1
70
1
0
VERTEX
8
V4
10
14.61742631564942
20
13.338918767013302
0
VERTEX
8
V4
10
14.588879227650489
20
13.33000000000001
0
VERTEX
8
V4
10
14.57499990877823
20
13.303507639857902
0
VERTEX
8
V4
10
14.58391867579153
20
13.274960551858971
0
VERTEX
8
V4
10
14.61041103593363
20
13.261081232986712
0
VERTEX
8
V4
10
14.63895812393257
20
13.27000000000001
0
VERTEX
8
V4
10
14.65283744280482
20
13.29649236014211
0
VERTEX
8
V4
10
14.643918675791529
20
13.325039448141052
0
VERTEX
8
V4
10
14.61742631564942
20
13.338918767013302
0
SEQEND
0
POLYLINE
8
V4
66
1
70
1
0
VERTEX
8
V4
10
15.565101721264591
20
12.221047184961233
0
VERTEX
8
V4
10
15.594054536303362
20
12.209054536303293
0
VERTEX
8
V4
10
15.623007351342123
20
12.221047184961233
0
VERTEX
8
V4
10
15.635000000000062
20
12.250000000000004
0
VERTEX
8
V4
10
15.623007351342123
20
12.278952815038764
0
VERTEX
8
V4
10
15.594054536303362
20
12.290945463696705
0
VERTEX
8
V4
10
15.565101721264591
20
12.278952815038764
0
VERTEX
8
V4
10
15.553109072606663
20
12.250000000000004
0
VERTEX
8
V4
10
15.565101721264591
20
12.221047184961233
0
SEQEND
0
POLYLINE
8
V4
66
1
70
1
0
VERTEX
8
V4
10
16.129921103717994
20
11.169999999999996
0
VERTEX
8
V4
10
16.158468191716924
20
11.161081232986707
0
VERTEX
8
V4
10
16.184960551859035
20
11.174960551858955
0
VERTEX
8
V4
10
16.193879318872323
20
11.203507639857897
0
VERTEX
8
V4
10
16.180000000000074
20
11.229999999999997
0
VERTEX
8
V4
10
16.151452912001133
20
11.238918767013287
0
VERTEX
8
V4
10
16.124960551859033
20
11.225039448141038
0
VERTEX
8
V4
10
16.116041784845734
20
11.196492360142097
0
VERTEX
8
V4
10
16.129921103717994
20
11.169999999999996
0
SEQEND
0
POLYLINE
8
V4
66
1
70
1
0
VERTEX
8
V4
10
15.105
20
12.250000000000004
0
VERTEX
8
V4
10
15.11699264865793
20
12.221047184961233
0
VERTEX
8
V4
10
15.145945463696702
20
12.209054536303293
0
VERTEX
8
V4
10
15.174898278735462
20
12.221047184961233
0
VERTEX
8
V4
10
15.186890927393401
20
12.250000000000004
0
VERTEX
8
V4
10
15.174898278735462
20
12.278952815038764
0
VERTEX
8
V4
10
15.145945463696702
20
12.290945463696705
0
VERTEX
8
V4
10
15.11699264865793
20
12.278952815038764
0
VERTEX
8
V4
10
15.105
20
12.250000000000004
0
SEQEND
0
POLYLINE
8
V4
66
1
70
1
0
VERTEX
8
V4
10
13.553085668657515
20
12.221047184961233
0
VERTEX
8
V4
10
13.582038483696275
20
12.209054536303293
0
VERTEX
8
V4
10
13.610991298735037
20
12.221047184961233
0
VERTEX
8
V4
10
13.622983947392976
20
12.249999999999995
0
VERTEX
8
V4
10
13.610991298735046
20
12.278952815038764
0
VERTEX
8
V4
10
13.582038483696275
20
12.290945463696694
0
VERTEX
8
V4
10
13.553085668657515
20
12.278952815038764
0
VERTEX
8
V4
10
13.541093019999575
20
12.249999999999995
0
VERTEX
8
V4
10
13.553085668657515
20
12.221047184961233
0
SEQEND
0
POLYLINE
8
V4
66
1
70
1
0
VERTEX
8
V4
10
15.770814593590822
20
11.161081232986707
0
VERTEX
8
V4
10
15.797306953732923
20
11.174960551858955
0
VERTEX
8
V4
10
15.806225720746223
20
11.203507639857897
0
VERTEX
8
V4
10
15.792346401873964
20
11.229999999999997
0
VERTEX
8
V4
10
15.763799313875023
20
11.238918767013287
0
VERTEX
8
V4
10
15.737306953732922
20
11.225039448141038
0
VERTEX
8
V4
10
15.728388186719632
20
11.196492360142097
0
VERTEX
8
V4
10
15.742267505591883
20
11.169999999999996
0
VERTEX
8
V4
10
15.770814593590822
20
11.161081232986707
0
SEQEND
0
POLYLINE
8
V4
66
1
70
1
0
VERTEX
8
V4
10
16.446914331342484
20
12.278952815038764
0
VERTEX
8
V4
10
16.417961516303723
20
12.290945463696694
0
VERTEX
8
V4
10
16.389008701264956
20
12.278952815038764
0
VERTEX
8
V4
10
16.377016052607026
20
12.249999999999995
0
VERTEX
8
V4
10
16.389008701264967
20
12.221047184961233
0
VERTEX
8
V4
10
16.417961516303723
20
12.209054536303293
0
VERTEX
8
V4
10
16.446914331342484
20
12.221047184961233
0
VERTEX
8
V4
10
16.458906980000425
20
12.249999999999995
0
VERTEX
8
V4
10
16.446914331342484
20
12.278952815038764
0
SEQEND
0
POLYLINE
8
V4
66
1
70
1
0
VERTEX
8
V4
10
12.600000000000414
20
10.149999999999629
0
VERTEX
8
V4
10
17.399999999999586
20
10.149999999999629
0
VERTEX
8
V4
10
17.399999999999586
20
14.35000000000037
0
VERTEX
8
V4
10
12.600000000000414
20
14.35000000000037
0
VERTEX
8
V4
10
12.600000000000414
20
10.149999999999629
0
SEQEND
0
TEXT
8
0
62
82
10
13.7625
20
5.0
40
2.25
1
V4
0
POLYLINE
8
C3
66
1
70
1
0
VERTEX
8
C3
10
18.93094546369667
20
0.6489533994795162
0
VERTEX
8
C3
10
18.93094546369667
20
0.13000000000000567
0
VERTEX
8
C3
10
19.07094546369667
20
0.13000000000000567
0
VERTEX
8
C3
10
19.07094546369666
20
-0.04999999999999538
0
VERTEX
8
C3
10
19.170945463696672
20
-0.04999999999999538
0
VERTEX
8
C3
10
19.170945463696672
20
0.13000000000000567
0
VERTEX
8
C3
10
19.31094546369667
20
0.13000000000000567
0
VERTEX
8
C3
10
19.31094546369667
20
0.6489533994795162
0
VERTEX
8
C3
10
18.93094546369667
20
0.6489533994795162
0
SEQEND
0
POLYLINE
8
C3
66
1
70
1
0
VERTEX
8
C3
10
21.10496055185899
20
-1.0999999999999965
0
VERTEX
8
C3
10
21.204960551858992
20
-1.0999999999999965
0
VERTEX
8
C3
10
21.204960551858992
20
-0.9999999999999964
0
VERTEX
8
C3
10
21.10496055185899
20
-0.9999999999999964
0
VERTEX
8
C3
10
21.10496055185899
20
-1.0999999999999965
0
SEQEND
0
POLYLINE
8
C3
66
1
70
1
0
VERTEX
8
C3
10
19.64094546369667
20
0.050000000000005596
0
VERTEX
8
C3
10
19.540945463696662
20
0.050000000000005596
0
VERTEX
8
C3
10
19.540945463696662
20
-0.04999999999999538
0
VERTEX
8
C3
10
19.64094546369667
20
-0.04999999999999538
0
VERTEX
8
C3
10
19.64094546369667
20
0.050000000000005596
0
SEQEND
0
POLYLINE
8
C3
66
1
70
1
0
VERTEX
8
C3
10
20.71730695373289
20
-0.9999999999999964
0
VERTEX
8
C3
10
20.71730695373289
20
-1.0999999999999965
0
VERTEX
8
C3
10
20.817306953732892
20
-1.0999999999999965
0
VERTEX
8
C3
10
20.817306953732892
20
-0.9999999999999964
0
VERTEX
8
C3
10
20.71730695373289
20
-0.9999999999999964
0
SEQEND
0
POLYLINE
8
C3
66
1
70
1
0
VERTEX
8
C3
10
20.19594546369667
20
-0.04999999999999538
0
VERTEX
8
C3
10
20.19594546369667
20
0.050000000000005596
0
VERTEX
8
C3
10
20.095945463696662
20
0.050000000000005596
0
VERTEX
8
C3
10
20.095945463696662
20
-0.04999999999999538
0
VERTEX
8
C3
10
20.19594546369667
20
-0.04999999999999538
0
SEQEND
0
POLYLINE
8
C3
66
1
70
1
0
VERTEX
8
C3
10
19.1233713061457
20
-0.9999999999999964
0
VERTEX
8
C3
10
19.0233713061457
20
-0.9999999999999964
0
VERTEX
8
C3
10
19.0233713061457
20
-1.0999999999999965
0
VERTEX
8
C3
10
19.1233713061457
20
-1.0999999999999965
0
VERTEX
8
C3
10
19.1233713061457
20
-0.9999999999999964
0
SEQEND
0
POLYLINE
8
C3
66
1
70
1
0
VERTEX
8
C3
10
20.54405453630332
20
0.050000000000005596
0
VERTEX
8
C3
10
20.54405453630332
20
-0.04999999999999538
0
VERTEX
8
C3
10
20.64405453630333
20
-0.04999999999999538
0
VERTEX
8
C3
10
20.64405453630333
20
0.050000000000005596
0
VERTEX
8
C3
10
20.54405453630332
20
0.050000000000005596
0
SEQEND
0
POLYLINE
8
C3
66
1
70
1
0
VERTEX
8
C3
10
20.90848869853241
20
1.0000000000000067
0
VERTEX
8
C3
10
20.90848869853241
20
1.1000000000000072
0
VERTEX
8
C3
10
20.80848869853241
20
1.1000000000000072
0
VERTEX
8
C3
10
20.80848869853241
20
1.0000000000000067
0
VERTEX
8
C3
10
20.90848869853241
20
1.0000000000000067
0
SEQEND
0
POLYLINE
8
C3
66
1
70
1
0
VERTEX
8
C3
10
20.92905453630333
20
-0.04999999999999538
0
VERTEX
8
C3
10
20.92905453630333
20
0.050000000000005596
0
VERTEX
8
C3
10
20.82905453630332
20
0.050000000000005596
0
VERTEX
8
C3
10
20.82905453630332
20
-0.04999999999999538
0
VERTEX
8
C3
10
20.92905453630333
20
-0.04999999999999538
0
SEQEND
0
POLYLINE
8
C3
66
1
70
1
0
VERTEX
8
C3
10
20.22537962592569
20
1.0000000000000067
0
VERTEX
8
C3
10
20.22537962592569
20
1.1000000000000072
0
VERTEX
8
C3
10
20.125379625925692
20
1.1000000000000072
0
VERTEX
8
C3
10
20.125379625925692
20
1.0000000000000067
0
VERTEX
8
C3
10
20.22537962592569
20
1.0000000000000067
0
SEQEND
0
POLYLINE
8
C3
66
1
70
1
0
VERTEX
8
C3
10
21.44691433134248
20
0.028952815038765678
0
VERTEX
8
C3
10
21.41796151630372
20
0.040945463696695494
0
VERTEX
8
C3
10
21.38900870126495
20
0.028952815038765678
0
VERTEX
8
C3
10
21.377016052607022
20
-5.329070518200751e-15
0
VERTEX
8
C3
10
21.38900870126496
20
-0.028952815038764346
0
VERTEX
8
C3
10
21.41796151630372
20
-0.040945463696704376
0
VERTEX
8
C3
10
21.44691433134248
20
-0.028952815038764346
0
VERTEX
8
C3
10
21.45890698000042
20
-5.329070518200751e-15
0
VERTEX
8
C3
10
21.44691433134248
20
0.028952815038765678
0
SEQEND
0
POLYLINE
8
C3
66
1
70
1
0
VERTEX
8
C3
10
19.66391867579149
20
0.9999999999999969
0
VERTEX
8
C3
10
19.66391867579149
20
1.1000000000000072
0
VERTEX
8
C3
10
19.56391867579149
20
1.1000000000000072
0
VERTEX
8
C3
10
19.56391867579149
20
0.9999999999999969
0
VERTEX
8
C3
10
19.66391867579149
20
0.9999999999999969
0
SEQEND
0
POLYLINE
8
C3
66
1
70
1
0
VERTEX
8
C3
10
18.55308566865752
20
-0.028952815038764346
0
VERTEX
8
C3
10
18.58203848369628
20
-0.040945463696704376
0
VERTEX
8
C3
10
18.61099129873504
20
-0.028952815038764346
0
VERTEX
8
C3
10
18.62298394739298
20
-5.329070518200751e-15
0
VERTEX
8
C3
10
18.61099129873505
20
0.028952815038765678
0
VERTEX
8
C3
10
18.58203848369628
20
0.040945463696695494
0
VERTEX
8
C3
10
18.55308566865752
20
0.028952815038765678
0
VERTEX
8
C3
10
18.54109301999958
20
-5.329070518200751e-15
0
VERTEX
8
C3
10
18.55308566865752
20
-0.028952815038764346
0
SEQEND
0
POLYLINE
8
C3
66
1
70
1
0
VERTEX
8
C3
10
18.845039448141012
20
1.1000000000000072
0
VERTEX
8
C3
10
18.74503944814101
20
1.1000000000000072
0
VERTEX
8
C3
10
18.74503944814101
20
1.0000000000000067
0
VERTEX
8
C3
10
18.845039448141012
20
1.0000000000000067
0
VERTEX
8
C3
10
18.845039448141012
20
1.1000000000000072
0
SEQEND
0
POLYLINE
8
C3
66
1
70
1
0
VERTEX
8
C3
10
21.24905453630333
20
-0.04999999999999538
0
VERTEX
8
C3
10
21.24905453630333
20
0.7444919420003466
0
VERTEX
8
C3
10
20.768053365999933
20
0.7444919420003466
0
VERTEX
8
C3
10
20.768053365999933
20
0.13768807944994554
0
VERTEX
8
C3
10
21.149054536303332
20
0.13768807944994554
0
VERTEX
8
C3
10
21.149054536303332
20
-0.04999999999999538
0
VERTEX
8
C3
10
21.24905453630333
20
-0.04999999999999538
0
SEQEND
0
POLYLINE
8
C3
66
1
70
1
0
VERTEX
8
C3
10
20.46499113840406
20
0.5800000000000063
0
VERTEX
8
C3
10
20.27
20
0.5800000000000063
0
VERTEX
8
C3
10
20.27
20
0.3700000000000059
0
VERTEX
8
C3
10
20.36499113840406
20
0.3700000000000059
0
VERTEX
8
C3
10
20.36499113840406
20
-0.27999999999999536
0
VERTEX
8
C3
10
20.46499113840406
20
-0.27999999999999536
0
VERTEX
8
C3
10
20.46499113840406
20
0.5800000000000063
0
SEQEND
0
POLYLINE
8
C3
66
1
70
1
0
VERTEX
8
C3
10
17.60000000000042
20
-2.1000000000003585
0
VERTEX
8
C3
10
22.39999999999958
20
-2.1000000000003585
0
VERTEX
8
C3
10
22.39999999999958
20
2.1000000000003585
0
VERTEX
8
C3
10
17.60000000000042
20
2.1000000000003585
0
VERTEX
8
C3
10
17.60000000000042
20
-2.1000000000003585
0
SEQEND
0
TEXT
8
0
62
92
10
18.7625
20
-7.425000000000001
40
2.25
1
C3
0
POLYLINE
8
V3
66
1
70
1
0
VERTEX
8
V3
10
18.798547087998937
20
13.338918767013302
0
VERTEX
8
V3
10
18.769999999999996
20
13.33000000000001
0
VERTEX
8
V3
10
18.756120681127747
20
13.303507639857912
0
VERTEX
8
V3
10
18.76503944814104
20
13.274960551858971
0
VERTEX
8
V3
10
18.79153180828314
20
13.261081232986712
0
VERTEX
8
V3
10
18.820078896282077
20
13.27000000000001
0
VERTEX
8
V3
10
18.833958215154336
20
13.29649236014211
0
VERTEX
8
V3
10
18.825039448141037
20
13.325039448141052
0
VERTEX
8
V3
10
18.798547087998937
20
13.338918767013302
0
SEQEND
0
POLYLINE
8
V3
66
1
70
1
0
VERTEX
8
V3
10
19.08
20
12.249999999999995
0
VERTEX
8
V3
10
19.09199264865793
20
12.221047184961234
0
VERTEX
8
V3
10
19.1209454636967
20
12.209054536303295
0
VERTEX
8
V3
10
19.149898278735456
20
12.221047184961234
0
VERTEX
8
V3
10
19.161890927393397
20
12.249999999999995
0
VERTEX
8
V3
10
19.149898278735456
20
12.278952815038766
0
VERTEX
8
V3
10
19.1209454636967
20
12.290945463696696
0
VERTEX
8
V3
10
19.09199264865793
20
12.278952815038766
0
VERTEX
8
V3
10
19.08
20
12.249999999999995
0
SEQEND
0
POLYLINE
8
V3
66
1
70
1
0
VERTEX
8
V3
10
19.048331858004687
20
11.229999999999999
0
VERTEX
8
V3
10
19.034452539132438
20
11.203507639857898
0
VERTEX
8
V3
10
19.043371306145726
20
11.174960551858959
0
VERTEX
8
V3
10
19.069863666287837
20
11.161081232986698
0
VERTEX
8
V3
10
19.098410754286768
20
11.169999999999998
0
VERTEX
8
V3
10
19.112290073159027
20
11.196492360142098
0
VERTEX
8
V3
10
19.10337130614573
20
11.225039448141038
0
VERTEX
8
V3
10
19.076878946003628
20
11.238918767013288
0
VERTEX
8
V3
10
19.048331858004687
20
11.229999999999999
0
SEQEND
0
POLYLINE
8
V3
66
1
70
1
0
VERTEX
8
V3
10
19.549999999999997
20
12.249999999999995
0
VERTEX
8
V3
10
19.561992648657927
20
12.221047184961234
0
VERTEX
8
V3
10
19.5909454636967
20
12.209054536303295
0
VERTEX
8
V3
10
19.61989827873546
20
12.221047184961234
0
VERTEX
8
V3
10
19.6318909273934
20
12.249999999999995
0
VERTEX
8
V3
10
19.61989827873546
20
12.278952815038766
0
VERTEX
8
V3
10
19.5909454636967
20
12.290945463696696
0
VERTEX
8
V3
10
19.561992648657927
20
12.278952815038766
0
VERTEX
8
V3
10
19.549999999999997
20
12.249999999999995
0
SEQEND
0
POLYLINE
8
V3
66
1
70
1
0
VERTEX
8
V3
10
20.833449250391403
20
13.27000000000001
0
VERTEX
8
V3
10
20.86199633839034
20
13.261081232986722
0
VERTEX
8
V3
10
20.88848869853244
20
13.274960551858971
0
VERTEX
8
V3
10
20.897407465545744
20
13.303507639857912
0
VERTEX
8
V3
10
20.88352814667348
20
13.33000000000001
0
VERTEX
8
V3
10
20.854981058674554
20
13.338918767013302
0
VERTEX
8
V3
10
20.828488698532443
20
13.325039448141052
0
VERTEX
8
V3
10
20.81956993151915
20
13.29649236014211
0
VERTEX
8
V3
10
20.833449250391403
20
13.27000000000001
0
SEQEND
0
POLYLINE
8
V3
66
1
70
1
0
VERTEX
8
V3
10
19.617426315649418
20
13.338918767013302
0
VERTEX
8
V3
10
19.588879227650487
20
13.33000000000001
0
VERTEX
8
V3
10
19.574999908778228
20
13.303507639857902
0
VERTEX
8
V3
10
19.58391867579153
20
13.274960551858971
0
VERTEX
8
V3
10
19.61041103593363
20
13.261081232986712
0
VERTEX
8
V3
10
19.638958123932568
20
13.27000000000001
0
VERTEX
8
V3
10
19.65283744280482
20
13.29649236014211
0
VERTEX
8
V3
10
19.64391867579153
20
13.325039448141052
0
VERTEX
8
V3
10
19.617426315649418
20
13.338918767013302
0
SEQEND
0
POLYLINE
8
V3
66
1
70
1
0
VERTEX
8
V3
10
20.85010172126459
20
12.221047184961234
0
VERTEX
8
V3
10
20.87905453630336
20
12.209054536303295
0
VERTEX
8
V3
10
20.90800735134212
20
12.221047184961234
0
VERTEX
8
V3
10
20.920000000000062
20
12.250000000000004
0
VERTEX
8
V3
10
20.90800735134212
20
12.278952815038766
0
VERTEX
8
V3
10
20.87905453630336
20
12.290945463696705
0
VERTEX
8
V3
10
20.85010172126459
20
12.278952815038766
0
VERTEX
8
V3
10
20.838109072606663
20
12.250000000000004
0
VERTEX
8
V3
10
20.85010172126459
20
12.221047184961234
0
SEQEND
0
POLYLINE
8
V3
66
1
70
1
0
VERTEX
8
V3
10
21.129921103717994
20
11.169999999999998
0
VERTEX
8
V3
10
21.15846819171692
20
11.161081232986708
0
VERTEX
8
V3
10
21.18496055185903
20
11.174960551858959
0
VERTEX
8
V3
10
21.193879318872323
20
11.203507639857898
0
VERTEX
8
V3
10
21.18000000000007
20
11.229999999999999
0
VERTEX
8
V3
10
21.151452912001133
20
11.238918767013288
0
VERTEX
8
V3
10
21.124960551859033
20
11.225039448141038
0
VERTEX
8
V3
10
21.11604178484573
20
11.196492360142098
0
VERTEX
8
V3
10
21.129921103717994
20
11.169999999999998
0
SEQEND
0
POLYLINE
8
V3
66
1
70
1
0
VERTEX
8
V3
10
20.15034017778468
20
13.27000000000001
0
VERTEX
8
V3
10
20.17888726578362
20
13.261081232986722
0
VERTEX
8
V3
10
20.20537962592572
20
13.274960551858971
0
VERTEX
8
V3
10
20.21429839293902
20
13.303507639857912
0
VERTEX
8
V3
10
20.20041907406676
20
13.33000000000001
0
VERTEX
8
V3
10
20.17187198606782
20
13.338918767013302
0
VERTEX
8
V3
10
20.14537962592572
20
13.325039448141052
0
VERTEX
8
V3
10
20.13646085891243
20
13.29649236014211
0
VERTEX
8
V3
10
20.15034017778468
20
13.27000000000001
0
SEQEND
0
POLYLINE
8
V3
66
1
70
1
0
VERTEX
8
V3
10
18.553085668657516
20
12.221047184961234
0
VERTEX
8
V3
10
18.582038483696273
20
12.209054536303295
0
VERTEX
8
V3
10
18.610991298735037
20
12.221047184961234
0
VERTEX
8
V3
10
18.622983947392978
20
12.249999999999995
0
VERTEX
8
V3
10
18.610991298735048
20
12.278952815038766
0
VERTEX
8
V3
10
18.582038483696273
20
12.290945463696696
0
VERTEX
8
V3
10
18.553085668657516
20
12.278952815038766
0
VERTEX
8
V3
10
18.541093019999575
20
12.249999999999995
0
VERTEX
8
V3
10
18.553085668657516
20
12.221047184961234
0
SEQEND
0
POLYLINE
8
V3
66
1
70
1
0
VERTEX
8
V3
10
20.56510172126459
20
12.221047184961234
0
VERTEX
8
V3
10
20.59405453630336
20
12.209054536303295
0
VERTEX
8
V3
10
20.62300735134212
20
12.221047184961234
0
VERTEX
8
V3
10
20.635000000000062
20
12.250000000000004
0
VERTEX
8
V3
10
20.62300735134212
20
12.278952815038766
0
VERTEX
8
V3
10
20.59405453630336
20
12.290945463696705
0
VERTEX
8
V3
10
20.56510172126459
20
12.278952815038766
0
VERTEX
8
V3
10
20.55310907260666
20
12.250000000000004
0
VERTEX
8
V3
10
20.56510172126459
20
12.221047184961234
0
SEQEND
0
POLYLINE
8
V3
66
1
70
1
0
VERTEX
8
V3
10
21.446914331342484
20
12.278952815038766
0
VERTEX
8
V3
10
21.417961516303723
20
12.290945463696696
0
VERTEX
8
V3
10
21.389008701264952
20
12.278952815038766
0
VERTEX
8
V3
10
21.377016052607022
20
12.249999999999995
0
VERTEX
8
V3
10
21.389008701264963
20
12.221047184961234
0
VERTEX
8
V3
10
21.417961516303723
20
12.209054536303295
0
VERTEX
8
V3
10
21.446914331342484
20
12.221047184961234
0
VERTEX
8
V3
10
21.458906980000425
20
12.249999999999995
0
VERTEX
8
V3
10
21.446914331342484
20
12.278952815038766
0
SEQEND
0
POLYLINE
8
V3
66
1
70
1
0
VERTEX
8
V3
10
20.105
20
12.250000000000004
0
VERTEX
8
V3
10
20.11699264865793
20
12.221047184961234
0
VERTEX
8
V3
10
20.1459454636967
20
12.209054536303295
0
VERTEX
8
V3
10
20.174898278735462
20
12.221047184961234
0
VERTEX
8
V3
10
20.1868909273934
20
12.250000000000004
0
VERTEX
8
V3
10
20.174898278735462
20
12.278952815038766
0
VERTEX
8
V3
10
20.1459454636967
20
12.290945463696705
0
VERTEX
8
V3
10
20.11699264865793
20
12.278952815038766
0
VERTEX
8
V3
10
20.105
20
12.250000000000004
0
SEQEND
0
POLYLINE
8
V3
66
1
70
1
0
VERTEX
8
V3
10
21.174054536303302
20
12.219785945854694
0
VERTEX
8
V3
10
21.202741429346922
20
12.210957767897055
0
VERTEX
8
V3
10
21.2292685904486
20
12.225000000000005
0
VERTEX
8
V3
10
21.238096768406244
20
12.253686893043614
0
VERTEX
8
V3
10
21.224054536303303
20
12.280214054145306
0
VERTEX
8
V3
10
21.195367643259683
20
12.289042232102945
0
VERTEX
8
V3
10
21.168840482158004
20
12.275000000000006
0
VERTEX
8
V3
10
21.160012304200364
20
12.246313106956384
0
VERTEX
8
V3
10
21.174054536303302
20
12.219785945854694
0
SEQEND
0
POLYLINE
8
V3
66
1
70
1
0
VERTEX
8
V3
10
20.77081459359082
20
11.161081232986708
0
VERTEX
8
V3
10
20.79730695373292
20
11.174960551858959
0
VERTEX
8
V3
10
20.80622572074622
20
11.203507639857898
0
VERTEX
8
V3
10
20.792346401873964
20
11.229999999999999
0
VERTEX
8
V3
10
20.763799313875023
20
11.238918767013288
0
VERTEX
8
V3
10
20.737306953732922
20
11.225039448141038
0
VERTEX
8
V3
10
20.72838818671963
20
11.196492360142098
0
VERTEX
8
V3
10
20.742267505591883
20
11.169999999999998
0
VERTEX
8
V3
10
20.77081459359082
20
11.161081232986708
0
SEQEND
0
POLYLINE
8
V3
66
1
70
1
0
VERTEX
8
V3
10
20.37594890630114
20
12.016313106956384
0
VERTEX
8
V3
10
20.389991138404092
20
11.989785945854694
0
VERTEX
8
V3
10
20.4186780314477
20
11.980957767897053
0
VERTEX
8
V3
10
20.44520519254939
20
11.994999999999994
0
VERTEX
8
V3
10
20.45403337050703
20
12.023686893043614
0
VERTEX
8
V3
10
20.43999113840409
20
12.050214054145304
0
VERTEX
8
V3
10
20.411304245360473
20
12.059042232102943
0
VERTEX
8
V3
10
20.38477708425879
20
12.045000000000003
0
VERTEX
8
V3
10
20.37594890630114
20
12.016313106956384
0
SEQEND
0
POLYLINE
8
V3
66
1
70
1
0
VERTEX
8
V3
10
17.600000000000414
20
10.14999999999963
0
VERTEX
8
V3
10
22.399999999999583
20
10.14999999999963
0
VERTEX
8
V3
10
22.399999999999583
20
14.350000000000367
0
VERTEX
8
V3
10
17.600000000000414
20
14.350000000000367
0
VERTEX
8
V3
10
17.600000000000414
20
10.14999999999963
0
SEQEND
0
TEXT
8
0
62
102
10
18.7625
20
5.0
40
2.25
1
V3
0
POLYLINE
8
C2
66
1
70
1
0
VERTEX
8
C2
10
23.75094546369667
20
-0.04999999999999538
0
VERTEX
8
C2
10
23.85094546369667
20
-0.04999999999999538
0
VERTEX
8
C2
10
23.85094546369667
20
0.18768807944994514
0
VERTEX
8
C2
10
24.331946634000072
20
0.18768807944994514
0
VERTEX
8
C2
10
24.331946634000072
20
0.8444919420003456
0
VERTEX
8
C2
10
23.75094546369667
20
0.8444919420003456
0
VERTEX
8
C2
10
23.75094546369667
20
-0.04999999999999538
0
SEQEND
0
POLYLINE
8
C2
66
1
70
1
0
VERTEX
8
C2
10
26.10496055185899
20
-0.9999999999999967
0
VERTEX
8
C2
10
26.10496055185899
20
-1.0999999999999954
0
VERTEX
8
C2
10
26.204960551858992
20
-1.0999999999999954
0
VERTEX
8
C2
10
26.204960551858992
20
-0.9999999999999967
0
VERTEX
8
C2
10
26.10496055185899
20
-0.9999999999999967
0
SEQEND
0
POLYLINE
8
C2
66
1
70
1
0
VERTEX
8
C2
10
24.07094546369666
20
0.05000000000000493
0
VERTEX
8
C2
10
24.07094546369666
20
-0.04999999999999538
0
VERTEX
8
C2
10
24.170945463696672
20
-0.04999999999999538
0
VERTEX
8
C2
10
24.170945463696672
20
0.05000000000000493
0
VERTEX
8
C2
10
24.07094546369666
20
0.05000000000000493
0
SEQEND
0
POLYLINE
8
C2
66
1
70
1
0
VERTEX
8
C2
10
25.817306953732892
20
-0.9999999999999967
0
VERTEX
8
C2
10
25.71730695373289
20
-0.9999999999999967
0
VERTEX
8
C2
10
25.71730695373289
20
-1.0999999999999954
0
VERTEX
8
C2
10
25.817306953732892
20
-1.0999999999999954
0
VERTEX
8
C2
10
25.817306953732892
20
-0.9999999999999967
0
SEQEND
0
POLYLINE
8
C2
66
1
70
1
0
VERTEX
8
C2
10
24.540945463696662
20
-0.04999999999999538
0
VERTEX
8
C2
10
24.64094546369667
20
-0.04999999999999538
0
VERTEX
8
C2
10
24.64094546369667
20
0.05000000000000493
0
VERTEX
8
C2
10
24.540945463696662
20
0.05000000000000493
0
VERTEX
8
C2
10
24.540945463696662
20
-0.04999999999999538
0
SEQEND
0
POLYLINE
8
C2
66
1
70
1
0
VERTEX
8
C2
10
24.1233713061457
20
-1.0999999999999954
0
VERTEX
8
C2
10
24.1233713061457
20
-0.9999999999999967
0
VERTEX
8
C2
10
24.0233713061457
20
-0.9999999999999967
0
VERTEX
8
C2
10
24.0233713061457
20
-1.0999999999999954
0
VERTEX
8
C2
10
24.1233713061457
20
-1.0999999999999954
0
SEQEND
0
POLYLINE
8
C2
66
1
70
1
0
VERTEX
8
C2
10
25.54405453630332
20
-0.04999999999999538
0
VERTEX
8
C2
10
25.64405453630333
20
-0.04999999999999538
0
VERTEX
8
C2
10
25.64405453630333
20
0.05000000000000493
0
VERTEX
8
C2
10
25.54405453630332
20
0.05000000000000493
0
VERTEX
8
C2
10
25.54405453630332
20
-0.04999999999999538
0
SEQEND
0
POLYLINE
8
C2
66
1
70
1
0
VERTEX
8
C2
10
25.80848869853241
20
1.1000000000000056
0
VERTEX
8
C2
10
25.80848869853241
20
1.0000000000000056
0
VERTEX
8
C2
10
25.90848869853241
20
1.0000000000000056
0
VERTEX
8
C2
10
25.90848869853241
20
1.1000000000000056
0
VERTEX
8
C2
10
25.80848869853241
20
1.1000000000000056
0
SEQEND
0
POLYLINE
8
C2
66
1
70
1
0
VERTEX
8
C2
10
26.44691433134248
20
0.028952815038765012
0
VERTEX
8
C2
10
26.41796151630372
20
0.04094546369669483
0
VERTEX
8
C2
10
26.38900870126495
20
0.028952815038765012
0
VERTEX
8
C2
10
26.377016052607022
20
-5.551115123125783e-15
0
VERTEX
8
C2
10
26.38900870126496
20
-0.028952815038765456
0
VERTEX
8
C2
10
26.41796151630372
20
-0.040945463696705486
0
VERTEX
8
C2
10
26.44691433134248
20
-0.028952815038765456
0
VERTEX
8
C2
10
26.45890698000042
20
-5.551115123125783e-15
0
VERTEX
8
C2
10
26.44691433134248
20
0.028952815038765012
0
SEQEND
0
POLYLINE
8
C2
66
1
70
1
0
VERTEX
8
C2
10
25.22537962592569
20
1.1000000000000056
0
VERTEX
8
C2
10
25.125379625925692
20
1.1000000000000056
0
VERTEX
8
C2
10
25.125379625925692
20
1.0000000000000056
0
VERTEX
8
C2
10
25.22537962592569
20
1.0000000000000056
0
VERTEX
8
C2
10
25.22537962592569
20
1.1000000000000056
0
SEQEND
0
POLYLINE
8
C2
66
1
70
1
0
VERTEX
8
C2
10
23.55308566865752
20
-0.028952815038765456
0
VERTEX
8
C2
10
23.58203848369628
20
-0.040945463696705486
0
VERTEX
8
C2
10
23.61099129873504
20
-0.028952815038765456
0
VERTEX
8
C2
10
23.62298394739298
20
-5.551115123125783e-15
0
VERTEX
8
C2
10
23.61099129873505
20
0.028952815038765012
0
VERTEX
8
C2
10
23.58203848369628
20
0.04094546369669483
0
VERTEX
8
C2
10
23.55308566865752
20
0.028952815038765012
0
VERTEX
8
C2
10
23.54109301999958
20
-5.551115123125783e-15
0
VERTEX
8
C2
10
23.55308566865752
20
-0.028952815038765456
0
SEQEND
0
POLYLINE
8
C2
66
1
70
1
0
VERTEX
8
C2
10
24.66391867579149
20
1.1000000000000056
0
VERTEX
8
C2
10
24.56391867579149
20
1.1000000000000056
0
VERTEX
8
C2
10
24.56391867579149
20
0.9999999999999958
0
VERTEX
8
C2
10
24.66391867579149
20
0.9999999999999958
0
VERTEX
8
C2
10
24.66391867579149
20
1.1000000000000056
0
SEQEND
0
POLYLINE
8
C2
66
1
70
1
0
VERTEX
8
C2
10
25.47499113840405
20
-0.5599999999999954
0
VERTEX
8
C2
10
25.66
20
-0.5599999999999954
0
VERTEX
8
C2
10
25.66
20
-0.8626807201361055
0
VERTEX
8
C2
10
26.425893196363113
20
-0.8626807201361055
0
VERTEX
8
C2
10
26.425893196363113
20
-0.14999999999999547
0
VERTEX
8
C2
10
25.92905453630333
20
-0.14999999999999547
0
VERTEX
8
C2
10
25.92905453630333
20
0.130000000000005
0
VERTEX
8
C2
10
26.27905453630333
20
0.130000000000005
0
VERTEX
8
C2
10
26.27905453630333
20
0.8289533994795157
0
VERTEX
8
C2
10
25.74905453630333
20
0.8289533994795157
0
VERTEX
8
C2
10
25.74905453630333
20
0.130000000000005
0
VERTEX
8
C2
10
25.82905453630333
20
0.130000000000005
0
VERTEX
8
C2
10
25.82905453630333
20
-0.1799999999999955
0
VERTEX
8
C2
10
25.31499113840405
20
-0.1799999999999955
0
VERTEX
8
C2
10
25.31499113840405
20
-0.5626807201361055
0
VERTEX
8
C2
10
25.47499113840405
20
-0.5626807201361055
0
VERTEX
8
C2
10
25.47499113840405
20
-0.5599999999999954
0
SEQEND
0
POLYLINE
8
C2
66
1
70
1
0
VERTEX
8
C2
10
23.74503944814101
20
1.0000000000000056
0
VERTEX
8
C2
10
23.845039448141012
20
1.0000000000000056
0
VERTEX
8
C2
10
23.845039448141012
20
1.1000000000000056
0
VERTEX
8
C2
10
23.74503944814101
20
1.1000000000000056
0
VERTEX
8
C2
10
23.74503944814101
20
1.0000000000000056
0
SEQEND
0
POLYLINE
8
C2
66
1
70
1
0
VERTEX
8
C2
10
24.080000000000002
20
-0.8226807201361055
0
VERTEX
8
C2
10
24.92104765138786
20
-0.8226807201361055
0
VERTEX
8
C2
10
24.92104765138786
20
-0.34699271926797537
0
VERTEX
8
C2
10
25.19594546369667
20
-0.34699271926797537
0
VERTEX
8
C2
10
25.19594546369667
20
0.130000000000005
0
VERTEX
8
C2
10
25.580945463696672
20
0.130000000000005
0
VERTEX
8
C2
10
25.580945463696672
20
0.6789533994795158
0
VERTEX
8
C2
10
24.670945463696672
20
0.6789533994795158
0
VERTEX
8
C2
10
24.670945463696672
20
0.130000000000005
0
VERTEX
8
C2
10
25.095945463696673
20
0.130000000000005
0
VERTEX
8
C2
10
25.095945463696673
20
-0.13999999999999546
0
VERTEX
8
C2
10
24.72188206579739
20
-0.13999999999999546
0
VERTEX
8
C2
10
24.72188206579739
20
-0.49999999999999556
0
VERTEX
8
C2
10
24.080000000000002
20
-0.49999999999999556
0
VERTEX
8
C2
10
24.080000000000002
20
-0.8226807201361055
0
SEQEND
0
POLYLINE
8
C2
66
1
70
1
0
VERTEX
8
C2
10
26.174054536303302
20
-0.030214054145305536
0
VERTEX
8
C2
10
26.202741429346922
20
-0.03904223210294555
0
VERTEX
8
C2
10
26.2292685904486
20
-0.02499999999999547
0
VERTEX
8
C2
10
26.23809676840624
20
0.003686893043614914
0
VERTEX
8
C2
10
26.2240545363033
20
0.03021405414530487
0
VERTEX
8
C2
10
26.19536764325968
20
0.039042232102944885
0
VERTEX
8
C2
10
26.168840482158
20
0.025000000000005018
0
VERTEX
8
C2
10
26.16001230420036
20
-0.003686893043615358
0
VERTEX
8
C2
10
26.174054536303302
20
-0.030214054145305536
0
SEQEND
0
POLYLINE
8
C2
66
1
70
1
0
VERTEX
8
C2
10
22.60000000000042
20
-2.1000000000003567
0
VERTEX
8
C2
10
27.39999999999958
20
-2.1000000000003567
0
VERTEX
8
C2
10
27.39999999999958
20
2.1000000000003567
0
VERTEX
8
C2
10
22.60000000000042
20
2.1000000000003567
0
VERTEX
8
C2
10
22.60000000000042
20
-2.1000000000003567
0
SEQEND
0
TEXT
8
0
62
112
10
23.7625
20
-7.425000000000001
40
2.25
1
C2
0
POLYLINE
8
V2
66
1
70
1
0
VERTEX
8
V2
10
23.798547087998937
20
13.338918767013302
0
VERTEX
8
V2
10
23.769999999999996
20
13.33000000000001
0
VERTEX
8
V2
10
23.756120681127747
20
13.303507639857912
0
VERTEX
8
V2
10
23.76503944814104
20
13.274960551858971
0
VERTEX
8
V2
10
23.79153180828314
20
13.26108123298671
0
VERTEX
8
V2
10
23.820078896282077
20
13.27000000000001
0
VERTEX
8
V2
10
23.833958215154336
20
13.29649236014211
0
VERTEX
8
V2
10
23.825039448141037
20
13.325039448141052
0
VERTEX
8
V2
10
23.798547087998937
20
13.338918767013302
0
SEQEND
0
POLYLINE
8
V2
66
1
70
1
0
VERTEX
8
V2
10
24.549999999999997
20
12.249999999999995
0
VERTEX
8
V2
10
24.561992648657927
20
12.221047184961236
0
VERTEX
8
V2
10
24.5909454636967
20
12.209054536303295
0
VERTEX
8
V2
10
24.61989827873546
20
12.221047184961236
0
VERTEX
8
V2
10
24.6318909273934
20
12.249999999999995
0
VERTEX
8
V2
10
24.61989827873546
20
12.278952815038766
0
VERTEX
8
V2
10
24.5909454636967
20
12.290945463696696
0
VERTEX
8
V2
10
24.561992648657927
20
12.278952815038766
0
VERTEX
8
V2
10
24.549999999999997
20
12.249999999999995
0
SEQEND
0
POLYLINE
8
V2
66
1
70
1
0
VERTEX
8
V2
10
24.08
20
12.249999999999995
0
VERTEX
8
V2
10
24.09199264865793
20
12.221047184961236
0
VERTEX
8
V2
10
24.1209454636967
20
12.209054536303295
0
VERTEX
8
V2
10
24.149898278735456
20
12.221047184961236
0
VERTEX
8
V2
10
24.161890927393397
20
12.249999999999995
0
VERTEX
8
V2
10
24.149898278735456
20
12.278952815038766
0
VERTEX
8
V2
10
24.1209454636967
20
12.290945463696696
0
VERTEX
8
V2
10
24.09199264865793
20
12.278952815038766
0
VERTEX
8
V2
10
24.08
20
12.249999999999995
0
SEQEND
0
POLYLINE
8
V2
66
1
70
1
0
VERTEX
8
V2
10
24.617426315649418
20
13.338918767013302
0
VERTEX
8
V2
10
24.588879227650487
20
13.33000000000001
0
VERTEX
8
V2
10
24.574999908778228
20
13.303507639857902
0
VERTEX
8
V2
10
24.58391867579153
20
13.274960551858971
0
VERTEX
8
V2
10
24.61041103593363
20
13.26108123298671
0
VERTEX
8
V2
10
24.638958123932568
20
13.27000000000001
0
VERTEX
8
V2
10
24.65283744280482
20
13.29649236014211
0
VERTEX
8
V2
10
24.64391867579153
20
13.325039448141052
0
VERTEX
8
V2
10
24.617426315649418
20
13.338918767013302
0
SEQEND
0
POLYLINE
8
V2
66
1
70
1
0
VERTEX
8
V2
10
24.048331858004687
20
11.23
0
VERTEX
8
V2
10
24.034452539132438
20
11.2035076398579
0
VERTEX
8
V2
10
24.043371306145726
20
11.174960551858959
0
VERTEX
8
V2
10
24.069863666287837
20
11.1610812329867
0
VERTEX
8
V2
10
24.098410754286768
20
11.17
0
VERTEX
8
V2
10
24.112290073159027
20
11.1964923601421
0
VERTEX
8
V2
10
24.10337130614573
20
11.22503944814104
0
VERTEX
8
V2
10
24.076878946003628
20
11.23891876701329
0
VERTEX
8
V2
10
24.048331858004687
20
11.23
0
SEQEND
0
POLYLINE
8
V2
66
1
70
1
0
VERTEX
8
V2
10
26.12992110371799
20
11.17
0
VERTEX
8
V2
10
26.15846819171692
20
11.16108123298671
0
VERTEX
8
V2
10
26.18496055185903
20
11.174960551858959
0
VERTEX
8
V2
10
26.19387931887232
20
11.2035076398579
0
VERTEX
8
V2
10
26.18000000000007
20
11.23
0
VERTEX
8
V2
10
26.151452912001133
20
11.23891876701329
0
VERTEX
8
V2
10
26.124960551859033
20
11.22503944814104
0
VERTEX
8
V2
10
26.11604178484573
20
11.1964923601421
0
VERTEX
8
V2
10
26.12992110371799
20
11.17
0
SEQEND
0
POLYLINE
8
V2
66
1
70
1
0
VERTEX
8
V2
10
25.8334492503914
20
13.27000000000001
0
VERTEX
8
V2
10
25.86199633839034
20
13.26108123298672
0
VERTEX
8
V2
10
25.88848869853244
20
13.274960551858971
0
VERTEX
8
V2
10
25.89740746554574
20
13.303507639857912
0
VERTEX
8
V2
10
25.88352814667348
20
13.33000000000001
0
VERTEX
8
V2
10
25.85498105867455
20
13.338918767013302
0
VERTEX
8
V2
10
25.828488698532443
20
13.325039448141052
0
VERTEX
8
V2
10
25.81956993151915
20
13.29649236014211
0
VERTEX
8
V2
10
25.8334492503914
20
13.27000000000001
0
SEQEND
0
POLYLINE
8
V2
66
1
70
1
0
VERTEX
8
V2
10
23.553085668657516
20
12.221047184961236
0
VERTEX
8
V2
10
23.582038483696273
20
12.209054536303295
0
VERTEX
8
V2
10
23.610991298735037
20
12.221047184961236
0
VERTEX
8
V2
10
23.622983947392978
20
12.249999999999995
0
VERTEX
8
V2
10
23.610991298735048
20
12.278952815038766
0
VERTEX
8
V2
10
23.582038483696273
20
12.290945463696696
0
VERTEX
8
V2
10
23.553085668657516
20
12.278952815038766
0
VERTEX
8
V2
10
23.541093019999575
20
12.249999999999995
0
VERTEX
8
V2
10
23.553085668657516
20
12.221047184961236
0
SEQEND
0
POLYLINE
8
V2
66
1
70
1
0
VERTEX
8
V2
10
25.150340177784678
20
13.27000000000001
0
VERTEX
8
V2
10
25.17888726578362
20
13.26108123298672
0
VERTEX
8
V2
10
25.20537962592572
20
13.274960551858971
0
VERTEX
8
V2
10
25.214298392939018
20
13.303507639857912
0
VERTEX
8
V2
10
25.20041907406676
20
13.33000000000001
0
VERTEX
8
V2
10
25.17187198606782
20
13.338918767013302
0
VERTEX
8
V2
10
25.14537962592572
20
13.325039448141052
0
VERTEX
8
V2
10
25.13646085891243
20
13.29649236014211
0
VERTEX
8
V2
10
25.150340177784678
20
13.27000000000001
0
SEQEND
0
POLYLINE
8
V2
66
1
70
1
0
VERTEX
8
V2
10
26.446914331342484
20
12.278952815038766
0
VERTEX
8
V2
10
26.41796151630372
20
12.290945463696696
0
VERTEX
8
V2
10
26.389008701264952
20
12.278952815038766
0
VERTEX
8
V2
10
26.377016052607022
20
12.249999999999995
0
VERTEX
8
V2
10
26.389008701264963
20
12.221047184961236
0
VERTEX
8
V2
10
26.41796151630372
20
12.209054536303295
0
VERTEX
8
V2
10
26.446914331342484
20
12.221047184961236
0
VERTEX
8
V2
10
26.45890698000042
20
12.249999999999995
0
VERTEX
8
V2
10
26.446914331342484
20
12.278952815038766
0
SEQEND
0
POLYLINE
8
V2
66
1
70
1
0
VERTEX
8
V2
10
25.56510172126459
20
12.221047184961236
0
VERTEX
8
V2
10
25.59405453630336
20
12.209054536303295
0
VERTEX
8
V2
10
25.62300735134212
20
12.221047184961236
0
VERTEX
8
V2
10
25.635000000000062
20
12.250000000000005
0
VERTEX
8
V2
10
25.62300735134212
20
12.278952815038766
0
VERTEX
8
V2
10
25.59405453630336
20
12.290945463696707
0
VERTEX
8
V2
10
25.56510172126459
20
12.278952815038766
0
VERTEX
8
V2
10
25.55310907260666
20
12.250000000000005
0
VERTEX
8
V2
10
25.56510172126459
20
12.221047184961236
0
SEQEND
0
POLYLINE
8
V2
66
1
70
1
0
VERTEX
8
V2
10
26.174054536303302
20
12.219785945854696
0
VERTEX
8
V2
10
26.202741429346922
20
12.210957767897055
0
VERTEX
8
V2
10
26.2292685904486
20
12.225000000000005
0
VERTEX
8
V2
10
26.23809676840624
20
12.253686893043616
0
VERTEX
8
V2
10
26.2240545363033
20
12.280214054145306
0
VERTEX
8
V2
10
26.19536764325968
20
12.289042232102947
0
VERTEX
8
V2
10
26.168840482158
20
12.275000000000006
0
VERTEX
8
V2
10
26.16001230420036
20
12.246313106956386
0
VERTEX
8
V2
10
26.174054536303302
20
12.219785945854696
0
SEQEND
0
POLYLINE
8
V2
66
1
70
1
0
VERTEX
8
V2
10
25.77081459359082
20
11.16108123298671
0
VERTEX
8
V2
10
25.79730695373292
20
11.174960551858959
0
VERTEX
8
V2
10
25.80622572074622
20
11.2035076398579
0
VERTEX
8
V2
10
25.79234640187396
20
11.23
0
VERTEX
8
V2
10
25.763799313875023
20
11.23891876701329
0
VERTEX
8
V2
10
25.73730695373292
20
11.22503944814104
0
VERTEX
8
V2
10
25.72838818671963
20
11.1964923601421
0
VERTEX
8
V2
10
25.742267505591883
20
11.17
0
VERTEX
8
V2
10
25.77081459359082
20
11.16108123298671
0
SEQEND
0
POLYLINE
8
V2
66
1
70
1
0
VERTEX
8
V2
10
23.797258570653078
20
12.289042232102947
0
VERTEX
8
V2
10
23.7707314095514
20
12.275000000000006
0
VERTEX
8
V2
10
23.761903231593756
20
12.246313106956386
0
VERTEX
8
V2
10
23.775945463696697
20
12.219785945854696
0
VERTEX
8
V2
10
23.804632356740317
20
12.210957767897055
0
VERTEX
8
V2
10
23.831159517841996
20
12.225000000000005
0
VERTEX
8
V2
10
23.83998769579964
20
12.253686893043616
0
VERTEX
8
V2
10
23.825945463696698
20
12.280214054145306
0
VERTEX
8
V2
10
23.797258570653078
20
12.289042232102947
0
SEQEND
0
POLYLINE
8
V2
66
1
70
1
0
VERTEX
8
V2
10
22.600000000000414
20
10.149999999999634
0
VERTEX
8
V2
10
27.399999999999583
20
10.149999999999634
0
VERTEX
8
V2
10
27.399999999999583
20
14.350000000000367
0
VERTEX
8
V2
10
22.600000000000414
20
14.350000000000367
0
VERTEX
8
V2
10
22.600000000000414
20
10.149999999999634
0
SEQEND
0
TEXT
8
0
62
122
10
23.7625
20
5.0
40
2.25
1
V2
0
POLYLINE
8
C1
66
1
70
1
0
VERTEX
8
C1
10
30.64405453630333
20
0.05000000000000518
0
VERTEX
8
C1
10
30.54405453630333
20
0.05000000000000518
0
VERTEX
8
C1
10
30.54405453630333
20
-0.02999999999999492
0
VERTEX
8
C1
10
30.289054536303333
20
-0.02999999999999492
0
VERTEX
8
C1
10
30.289054536303333
20
-0.8789533994795149
0
VERTEX
8
C1
10
30.91905453630333
20
-0.8789533994795149
0
VERTEX
8
C1
10
30.91905453630333
20
-0.12999999999999504
0
VERTEX
8
C1
10
30.64405453630333
20
-0.12999999999999504
0
VERTEX
8
C1
10
30.64405453630333
20
0.05000000000000518
0
SEQEND
0
POLYLINE
8
C1
66
1
70
1
0
VERTEX
8
C1
10
30.22537962592569
20
1.100000000000005
0
VERTEX
8
C1
10
30.12537962592569
20
1.100000000000005
0
VERTEX
8
C1
10
30.12537962592569
20
1.0000000000000049
0
VERTEX
8
C1
10
30.22537962592569
20
1.0000000000000049
0
VERTEX
8
C1
10
30.22537962592569
20
1.100000000000005
0
SEQEND
0
POLYLINE
8
C1
66
1
70
1
0
VERTEX
8
C1
10
30.90848869853241
20
1.100000000000005
0
VERTEX
8
C1
10
30.80848869853241
20
1.100000000000005
0
VERTEX
8
C1
10
30.80848869853241
20
1.0000000000000049
0
VERTEX
8
C1
10
30.90848869853241
20
1.0000000000000049
0
VERTEX
8
C1
10
30.90848869853241
20
1.100000000000005
0
SEQEND
0
POLYLINE
8
C1
66
1
70
1
0
VERTEX
8
C1
10
29.56391867579149
20
1.100000000000005
0
VERTEX
8
C1
10
29.56391867579149
20
0.9999999999999949
0
VERTEX
8
C1
10
29.66391867579149
20
0.9999999999999949
0
VERTEX
8
C1
10
29.66391867579149
20
1.100000000000005
0
VERTEX
8
C1
10
29.56391867579149
20
1.100000000000005
0
SEQEND
0
POLYLINE
8
C1
66
1
70
1
0
VERTEX
8
C1
10
29.1233713061457
20
-0.9999999999999949
0
VERTEX
8
C1
10
29.0233713061457
20
-0.9999999999999949
0
VERTEX
8
C1
10
29.0233713061457
20
-1.099999999999995
0
VERTEX
8
C1
10
29.1233713061457
20
-1.099999999999995
0
VERTEX
8
C1
10
29.1233713061457
20
-0.9999999999999949
0
SEQEND
0
POLYLINE
8
C1
66
1
70
1
0
VERTEX
8
C1
10
28.74503944814101
20
1.0000000000000049
0
VERTEX
8
C1
10
28.845039448141012
20
1.0000000000000049
0
VERTEX
8
C1
10
28.845039448141012
20
1.100000000000005
0
VERTEX
8
C1
10
28.74503944814101
20
1.100000000000005
0
VERTEX
8
C1
10
28.74503944814101
20
1.0000000000000049
0
SEQEND
0
POLYLINE
8
C1
66
1
70
1
0
VERTEX
8
C1
10
30.71730695373289
20
-1.099999999999995
0
VERTEX
8
C1
10
30.817306953732892
20
-1.099999999999995
0
VERTEX
8
C1
10
30.817306953732892
20
-0.9999999999999949
0
VERTEX
8
C1
10
30.71730695373289
20
-0.9999999999999949
0
VERTEX
8
C1
10
30.71730695373289
20
-1.099999999999995
0
SEQEND
0
POLYLINE
8
C1
66
1
70
1
0
VERTEX
8
C1
10
29.47094546369667
20
-0.8789533994795149
0
VERTEX
8
C1
10
29.94094546369667
20
-0.8789533994795149
0
VERTEX
8
C1
10
29.94094546369667
20
-0.12999999999999504
0
VERTEX
8
C1
10
29.64094546369667
20
-0.12999999999999504
0
VERTEX
8
C1
10
29.64094546369667
20
0.05000000000000518
0
VERTEX
8
C1
10
29.54094546369667
20
0.05000000000000518
0
VERTEX
8
C1
10
29.54094546369667
20
-0.12999999999999504
0
VERTEX
8
C1
10
29.47094546369667
20
-0.12999999999999504
0
VERTEX
8
C1
10
29.47094546369667
20
-0.8789533994795149
0
SEQEND
0
POLYLINE
8
C1
66
1
70
1
0
VERTEX
8
C1
10
31.10496055185899
20
-1.099999999999995
0
VERTEX
8
C1
10
31.204960551858992
20
-1.099999999999995
0
VERTEX
8
C1
10
31.204960551858992
20
-0.9999999999999949
0
VERTEX
8
C1
10
31.10496055185899
20
-0.9999999999999949
0
VERTEX
8
C1
10
31.10496055185899
20
-1.099999999999995
0
SEQEND
0
POLYLINE
8
C1
66
1
70
1
0
VERTEX
8
C1
10
29.07094546369667
20
-0.049999999999994924
0
VERTEX
8
C1
10
29.170945463696672
20
-0.049999999999994924
0
VERTEX
8
C1
10
29.170945463696672
20
0.13000000000000517
0
VERTEX
8
C1
10
29.45094546369667
20
0.13000000000000517
0
VERTEX
8
C1
10
29.45094546369667
20
0.8789533994795149
0
VERTEX
8
C1
10
28.93094546369667
20
0.8789533994795149
0
VERTEX
8
C1
10
28.93094546369667
20
0.13000000000000517
0
VERTEX
8
C1
10
29.07094546369667
20
0.13000000000000517
0
VERTEX
8
C1
10
29.07094546369667
20
-0.049999999999994924
0
SEQEND
0
POLYLINE
8
C1
66
1
70
1
0
VERTEX
8
C1
10
31.45
20
-0.14999999999999503
0
VERTEX
8
C1
10
32.39999999999958
20
-0.14999999999999503
0
VERTEX
8
C1
10
32.39999999999958
20
0.05000000000000518
0
VERTEX
8
C1
10
31.09905453630333
20
0.05000000000000518
0
VERTEX
8
C1
10
31.09905453630333
20
-0.8789533994795149
0
VERTEX
8
C1
10
31.45
20
-0.8789533994795149
0
VERTEX
8
C1
10
31.45
20
-0.14999999999999503
0
SEQEND
0
POLYLINE
8
C1
66
1
70
1
0
VERTEX
8
C1
10
28.279999999999998
20
-0.8589533994795149
0
VERTEX
8
C1
10
29.060000000000002
20
-0.8589533994795149
0
VERTEX
8
C1
10
29.060000000000002
20
-0.369999999999995
0
VERTEX
8
C1
10
28.85094546369667
20
-0.369999999999995
0
VERTEX
8
C1
10
28.85094546369667
20
0.05000000000000518
0
VERTEX
8
C1
10
27.60000000000042
20
0.05000000000000518
0
VERTEX
8
C1
10
27.60000000000042
20
-0.14999999999999503
0
VERTEX
8
C1
10
28.279999999999998
20
-0.14999999999999503
0
VERTEX
8
C1
10
28.279999999999998
20
-0.8589533994795149
0
SEQEND
0
POLYLINE
8
C1
66
1
70
1
0
VERTEX
8
C1
10
27.60000000000042
20
-2.100000000000355
0
VERTEX
8
C1
10
32.39999999999958
20
-2.100000000000355
0
VERTEX
8
C1
10
32.39999999999958
20
2.100000000000355
0
VERTEX
8
C1
10
27.60000000000042
20
2.100000000000355
0
VERTEX
8
C1
10
27.60000000000042
20
-2.100000000000355
0
SEQEND
0
TEXT
8
0
62
132
10
28.7625
20
-7.425000000000001
40
2.25
1
C1
0
POLYLINE
8
V1
66
1
70
1
0
VERTEX
8
V1
10
28.798547087998937
20
13.3389187670133
0
VERTEX
8
V1
10
28.769999999999996
20
13.330000000000009
0
VERTEX
8
V1
10
28.756120681127747
20
13.30350763985791
0
VERTEX
8
V1
10
28.76503944814104
20
13.27496055185897
0
VERTEX
8
V1
10
28.791531808283136
20
13.261081232986708
0
VERTEX
8
V1
10
28.820078896282077
20
13.270000000000008
0
VERTEX
8
V1
10
28.833958215154336
20
13.296492360142109
0
VERTEX
8
V1
10
28.825039448141037
20
13.32503944814105
0
VERTEX
8
V1
10
28.798547087998937
20
13.3389187670133
0
SEQEND
0
POLYLINE
8
V1
66
1
70
1
0
VERTEX
8
V1
10
30.86199633839034
20
13.261081232986719
0
VERTEX
8
V1
10
30.888488698532438
20
13.27496055185897
0
VERTEX
8
V1
10
30.89740746554574
20
13.30350763985791
0
VERTEX
8
V1
10
30.88352814667348
20
13.330000000000009
0
VERTEX
8
V1
10
30.85498105867455
20
13.3389187670133
0
VERTEX
8
V1
10
30.82848869853244
20
13.32503944814105
0
VERTEX
8
V1
10
30.81956993151915
20
13.296492360142109
0
VERTEX
8
V1
10
30.8334492503914
20
13.270000000000008
0
VERTEX
8
V1
10
30.86199633839034
20
13.261081232986719
0
SEQEND
0
POLYLINE
8
V1
66
1
70
1
0
VERTEX
8
V1
10
29.048331858004687
20
11.23
0
VERTEX
8
V1
10
29.034452539132438
20
11.2035076398579
0
VERTEX
8
V1
10
29.043371306145726
20
11.174960551858959
0
VERTEX
8
V1
10
29.069863666287837
20
11.1610812329867
0
VERTEX
8
V1
10
29.098410754286768
20
11.17
0
VERTEX
8
V1
10
29.112290073159027
20
11.1964923601421
0
VERTEX
8
V1
10
29.10337130614573
20
11.22503944814104
0
VERTEX
8
V1
10
29.076878946003628
20
11.23891876701329
0
VERTEX
8
V1
10
29.048331858004687
20
11.23
0
SEQEND
0
POLYLINE
8
V1
66
1
70
1
0
VERTEX
8
V1
10
30.150340177784678
20
13.270000000000008
0
VERTEX
8
V1
10
30.17888726578362
20
13.261081232986719
0
VERTEX
8
V1
10
30.20537962592572
20
13.27496055185897
0
VERTEX
8
V1
10
30.214298392939018
20
13.30350763985791
0
VERTEX
8
V1
10
30.200419074066758
20
13.330000000000009
0
VERTEX
8
V1
10
30.17187198606782
20
13.3389187670133
0
VERTEX
8
V1
10
30.14537962592572
20
13.32503944814105
0
VERTEX
8
V1
10
30.13646085891243
20
13.296492360142109
0
VERTEX
8
V1
10
30.150340177784678
20
13.270000000000008
0
SEQEND
0
POLYLINE
8
V1
66
1
70
1
0
VERTEX
8
V1
10
29.617426315649418
20
13.3389187670133
0
VERTEX
8
V1
10
29.588879227650487
20
13.330000000000009
0
VERTEX
8
V1
10
29.574999908778228
20
13.3035076398579
0
VERTEX
8
V1
10
29.58391867579153
20
13.27496055185897
0
VERTEX
8
V1
10
29.610411035933627
20
13.261081232986708
0
VERTEX
8
V1
10
29.638958123932568
20
13.270000000000008
0
VERTEX
8
V1
10
29.652837442804817
20
13.296492360142109
0
VERTEX
8
V1
10
29.64391867579153
20
13.32503944814105
0
VERTEX
8
V1
10
29.617426315649418
20
13.3389187670133
0
SEQEND
0
POLYLINE
8
V1
66
1
70
1
0
VERTEX
8
V1
10
30.77081459359082
20
11.16108123298671
0
VERTEX
8
V1
10
30.79730695373292
20
11.174960551858959
0
VERTEX
8
V1
10
30.80622572074622
20
11.2035076398579
0
VERTEX
8
V1
10
30.79234640187396
20
11.23
0
VERTEX
8
V1
10
30.76379931387502
20
11.23891876701329
0
VERTEX
8
V1
10
30.73730695373292
20
11.22503944814104
0
VERTEX
8
V1
10
30.72838818671963
20
11.1964923601421
0
VERTEX
8
V1
10
30.74226750559188
20
11.17
0
VERTEX
8
V1
10
30.77081459359082
20
11.16108123298671
0
SEQEND
0
POLYLINE
8
V1
66
1
70
1
0
VERTEX
8
V1
10
31.15846819171692
20
11.16108123298671
0
VERTEX
8
V1
10
31.18496055185903
20
11.174960551858959
0
VERTEX
8
V1
10
31.19387931887232
20
11.2035076398579
0
VERTEX
8
V1
10
31.18000000000007
20
11.23
0
VERTEX
8
V1
10
31.15145291200113
20
11.23891876701329
0
VERTEX
8
V1
10
31.12496055185903
20
11.22503944814104
0
VERTEX
8
V1
10
31.11604178484573
20
11.1964923601421
0
VERTEX
8
V1
10
31.12992110371799
20
11.17
0
VERTEX
8
V1
10
31.15846819171692
20
11.16108123298671
0
SEQEND
0
POLYLINE
8
V1
66
1
70
1
0
VERTEX
8
V1
10
27.600000000000414
20
10.149999999999636
0
VERTEX
8
V1
10
32.39999999999958
20
10.149999999999636
0
VERTEX
8
V1
10
32.39999999999958
20
14.350000000000364
0
VERTEX
8
V1
10
27.600000000000414
20
14.350000000000364
0
VERTEX
8
V1
10
27.600000000000414
20
10.149999999999636
0
SEQEND
0
TEXT
8
0
62
142
10
28.7625
20
5.0
40
2.25
1
V1
0
POLYLINE
8
G1
66
1
70
1
0
VERTEX
8
G1
10
33.1
20
-2.100000000000355
0
VERTEX
8
G1
10
36.900000000000006
20
-2.100000000000355
0
VERTEX
8
G1
10
36.900000000000006
20
-0.46999999999999487
0
VERTEX
8
G1
10
36.190000000000005
20
-0.46999999999999487
0
VERTEX
8
G1
10
36.190000000000005
20
0.10000000000000497
0
VERTEX
8
G1
10
36.02
20
0.10000000000000497
0
VERTEX
8
G1
10
36.02
20
0.660000000000005
0
VERTEX
8
G1
10
36.900000000000006
20
0.660000000000005
0
VERTEX
8
G1
10
36.900000000000006
20
2.100000000000355
0
VERTEX
8
G1
10
33.1
20
2.100000000000355
0
VERTEX
8
G1
10
33.1
20
0.5100000000000051
0
VERTEX
8
G1
10
33.78
20
0.5100000000000051
0
VERTEX
8
G1
10
33.78
20
-0.389999999999995
0
VERTEX
8
G1
10
33.1
20
-0.389999999999995
0
VERTEX
8
G1
10
33.1
20
-2.100000000000355
0
SEQEND
0
POLYLINE
8
G1
66
1
70
1
0
VERTEX
8
G1
10
32.60000000000042
20
-2.100000000000355
0
VERTEX
8
G1
10
37.39999999999958
20
-2.100000000000355
0
VERTEX
8
G1
10
37.39999999999958
20
2.100000000000355
0
VERTEX
8
G1
10
32.60000000000042
20
2.100000000000355
0
VERTEX
8
G1
10
32.60000000000042
20
-2.100000000000355
0
SEQEND
0
TEXT
8
0
62
152
10
33.7625
20
-7.425000000000001
40
2.25
1
G1
0
ENDSEC
0
EOF
