  0
SECTION
  2
ENTITIES
  0
POLYLINE
  8
C3
  5
1
 66
1
 10
0.0
 20
0.0
 30
0.0
 70
1
  0
VERTEX
  8
C3
  5
2
 10
0.05
 20
0.16
  0
VERTEX
  8
C3
  5
3
 10
0.0241181
 20
0.163407
  0
VERTEX
  8
C3
  5
4
 10
4.16334e-017
 20
0.173397
  0
VERTEX
  8
C3
  5
5
 10
-0.0207107
 20
0.189289
  0
VERTEX
  8
C3
  5
6
 10
-0.0366025
 20
0.21
  0
VERTEX
  8
C3
  5
7
 10
-0.0465926
 20
0.234118
  0
VERTEX
  8
C3
  5
8
 10
-0.05
 20
0.26
  0
VERTEX
  8
C3
  5
9
 10
-0.05
 20
0.43
  0
VERTEX
  8
C3
  5
A
 10
-0.0465926
 20
0.455882
  0
VERTEX
  8
C3
  5
B
 10
-0.0366025
 20
0.48
  0
VERTEX
  8
C3
  5
C
 10
-0.0207107
 20
0.500711
  0
VERTEX
  8
C3
  5
D
 10
-3.46945e-017
 20
0.516603
  0
VERTEX
  8
C3
  5
E
 10
0.0241181
 20
0.526593
  0
VERTEX
  8
C3
  5
F
 10
0.05
 20
0.53
  0
VERTEX
  8
C3
  5
10
 10
0.15
 20
0.53
  0
VERTEX
  8
C3
  5
11
 10
0.162941
 20
0.531704
  0
VERTEX
  8
C3
  5
12
 10
0.175
 20
0.536699
  0
VERTEX
  8
C3
  5
13
 10
0.185355
 20
0.544645
  0
VERTEX
  8
C3
  5
14
 10
0.193301
 20
0.555
  0
VERTEX
  8
C3
  5
15
 10
0.198296
 20
0.567059
  0
VERTEX
  8
C3
  5
16
 10
0.2
 20
0.58
  0
VERTEX
  8
C3
  5
17
 10
0.2
 20
0.63
  0
VERTEX
  8
C3
  5
18
 10
0.201704
 20
0.642941
  0
VERTEX
  8
C3
  5
19
 10
0.206699
 20
0.655
  0
VERTEX
  8
C3
  5
1A
 10
0.214645
 20
0.665355
  0
VERTEX
  8
C3
  5
1B
 10
0.225
 20
0.673301
  0
VERTEX
  8
C3
  5
1C
 10
0.237059
 20
0.678296
  0
VERTEX
  8
C3
  5
1D
 10
0.25
 20
0.68
  0
VERTEX
  8
C3
  5
1E
 10
0.5
 20
0.68
  0
VERTEX
  8
C3
  5
1F
 10
0.512941
 20
0.681704
  0
VERTEX
  8
C3
  5
20
 10
0.525
 20
0.686699
  0
VERTEX
  8
C3
  5
21
 10
0.535355
 20
0.694645
  0
VERTEX
  8
C3
  5
22
 10
0.543301
 20
0.705
  0
VERTEX
  8
C3
  5
23
 10
0.548296
 20
0.717059
  0
VERTEX
  8
C3
  5
24
 10
0.55
 20
0.73
  0
VERTEX
  8
C3
  5
25
 10
0.55
 20
0.835
  0
VERTEX
  8
C3
  5
26
 10
0.551704
 20
0.847941
  0
VERTEX
  8
C3
  5
27
 10
0.556699
 20
0.86
  0
VERTEX
  8
C3
  5
28
 10
0.564645
 20
0.870355
  0
VERTEX
  8
C3
  5
29
 10
0.575
 20
0.878301
  0
VERTEX
  8
C3
  5
2A
 10
0.587059
 20
0.883296
  0
VERTEX
  8
C3
  5
2B
 10
0.6
 20
0.885
  0
VERTEX
  8
C3
  5
2C
 10
0.75
 20
0.885
  0
VERTEX
  8
C3
  5
2D
 10
0.75
 20
0.555
  0
VERTEX
  8
C3
  5
2E
 10
0.56
 20
0.555
  0
VERTEX
  8
C3
  5
2F
 10
0.557412
 20
0.554659
  0
VERTEX
  8
C3
  5
30
 10
0.555
 20
0.55366
  0
VERTEX
  8
C3
  5
31
 10
0.552929
 20
0.552071
  0
VERTEX
  8
C3
  5
32
 10
0.55134
 20
0.55
  0
VERTEX
  8
C3
  5
33
 10
0.550341
 20
0.547588
  0
VERTEX
  8
C3
  5
34
 10
0.55
 20
0.545
  0
VERTEX
  8
C3
  5
35
 10
0.55
 20
0.54
  0
VERTEX
  8
C3
  5
36
 10
0.549659
 20
0.537412
  0
VERTEX
  8
C3
  5
37
 10
0.54866
 20
0.535
  0
VERTEX
  8
C3
  5
38
 10
0.547071
 20
0.532929
  0
VERTEX
  8
C3
  5
39
 10
0.545
 20
0.53134
  0
VERTEX
  8
C3
  5
3A
 10
0.542588
 20
0.530341
  0
VERTEX
  8
C3
  5
3B
 10
0.54
 20
0.53
  0
VERTEX
  8
C3
  5
3C
 10
0.4
 20
0.53
  0
VERTEX
  8
C3
  5
3D
 10
0.387059
 20
0.528296
  0
VERTEX
  8
C3
  5
3E
 10
0.375
 20
0.523301
  0
VERTEX
  8
C3
  5
3F
 10
0.364645
 20
0.515355
  0
VERTEX
  8
C3
  5
40
 10
0.356699
 20
0.505
  0
VERTEX
  8
C3
  5
41
 10
0.351704
 20
0.492941
  0
VERTEX
  8
C3
  5
42
 10
0.35
 20
0.48
  0
VERTEX
  8
C3
  5
43
 10
0.35
 20
0.26
  0
VERTEX
  8
C3
  5
44
 10
0.346593
 20
0.234118
  0
VERTEX
  8
C3
  5
45
 10
0.336603
 20
0.21
  0
VERTEX
  8
C3
  5
46
 10
0.320711
 20
0.189289
  0
VERTEX
  8
C3
  5
47
 10
0.3
 20
0.173397
  0
VERTEX
  8
C3
  5
48
 10
0.275882
 20
0.163407
  0
VERTEX
  8
C3
  5
49
 10
0.25
 20
0.16
  0
SEQEND
  8
C3
  5
4A
  0
POLYLINE
  8
C3
  5
4B
 66
1
 10
0.0
 20
0.0
 30
0.0
 70
1
  0
VERTEX
  8
C3
  5
4C
 10
-0.465
 20
0.17
  0
VERTEX
  8
C3
  5
4D
 10
-0.459641
 20
0.19
  0
VERTEX
  8
C3
  5
4E
 10
-0.445
 20
0.204641
  0
VERTEX
  8
C3
  5
4F
 10
-0.425
 20
0.21
  0
VERTEX
  8
C3
  5
50
 10
-0.405
 20
0.204641
  0
VERTEX
  8
C3
  5
51
 10
-0.390359
 20
0.19
  0
VERTEX
  8
C3
  5
52
 10
-0.385
 20
0.17
  0
VERTEX
  8
C3
  5
53
 10
-0.390359
 20
0.15
  0
VERTEX
  8
C3
  5
54
 10
-0.405
 20
0.135359
  0
VERTEX
  8
C3
  5
55
 10
-0.425
 20
0.13
  0
VERTEX
  8
C3
  5
56
 10
-0.445
 20
0.135359
  0
VERTEX
  8
C3
  5
57
 10
-0.459641
 20
0.15
  0
SEQEND
  8
C3
  5
58
  0
POLYLINE
  8
C3
  5
59
 66
1
 10
0.0
 20
0.0
 30
0.0
 70
1
  0
VERTEX
  8
C3
  5
5A
 10
-0.345
 20
0.17
  0
VERTEX
  8
C3
  5
5B
 10
-0.355718
 20
0.13
  0
VERTEX
  8
C3
  5
5C
 10
-0.385
 20
0.100718
  0
VERTEX
  8
C3
  5
5D
 10
-0.425
 20
0.09
  0
VERTEX
  8
C3
  5
5E
 10
-0.465
 20
0.100718
  0
VERTEX
  8
C3
  5
5F
 10
-0.494282
 20
0.13
  0
VERTEX
  8
C3
  5
60
 10
-0.505
 20
0.17
  0
VERTEX
  8
C3
  5
61
 10
-0.494282
 20
0.21
  0
VERTEX
  8
C3
  5
62
 10
-0.465
 20
0.239282
  0
VERTEX
  8
C3
  5
63
 10
-0.425
 20
0.25
  0
VERTEX
  8
C3
  5
64
 10
-0.385
 20
0.239282
  0
VERTEX
  8
C3
  5
65
 10
-0.355718
 20
0.21
  0
SEQEND
  8
C3
  5
66
  0
POLYLINE
  8
C3
  5
67
 66
1
 10
0.0
 20
0.0
 30
0.0
 70
1
  0
VERTEX
  8
C3
  5
68
 10
-0.55
 20
-0.232
  0
VERTEX
  8
C3
  5
69
 10
-0.546593
 20
-0.206118
  0
VERTEX
  8
C3
  5
6A
 10
-0.536603
 20
-0.182
  0
VERTEX
  8
C3
  5
6B
 10
-0.520711
 20
-0.161289
  0
VERTEX
  8
C3
  5
6C
 10
-0.5
 20
-0.145397
  0
VERTEX
  8
C3
  5
6D
 10
-0.475882
 20
-0.135407
  0
VERTEX
  8
C3
  5
6E
 10
-0.45
 20
-0.132
  0
VERTEX
  8
C3
  5
6F
 10
0.45
 20
-0.132
  0
VERTEX
  8
C3
  5
70
 10
0.475882
 20
-0.135407
  0
VERTEX
  8
C3
  5
71
 10
0.5
 20
-0.145397
  0
VERTEX
  8
C3
  5
72
 10
0.520711
 20
-0.161289
  0
VERTEX
  8
C3
  5
73
 10
0.536603
 20
-0.182
  0
VERTEX
  8
C3
  5
74
 10
0.546593
 20
-0.206118
  0
VERTEX
  8
C3
  5
75
 10
0.55
 20
-0.232
  0
VERTEX
  8
C3
  5
76
 10
0.55
 20
-0.505
  0
VERTEX
  8
C3
  5
77
 10
0.551704
 20
-0.517941
  0
VERTEX
  8
C3
  5
78
 10
0.556699
 20
-0.53
  0
VERTEX
  8
C3
  5
79
 10
0.564645
 20
-0.540355
  0
VERTEX
  8
C3
  5
7A
 10
0.575
 20
-0.548301
  0
VERTEX
  8
C3
  5
7B
 10
0.587059
 20
-0.553296
  0
VERTEX
  8
C3
  5
7C
 10
0.6
 20
-0.555
  0
VERTEX
  8
C3
  5
7D
 10
0.75
 20
-0.555
  0
VERTEX
  8
C3
  5
7E
 10
0.75
 20
-0.885
  0
VERTEX
  8
C3
  5
7F
 10
0.6
 20
-0.885
  0
VERTEX
  8
C3
  5
80
 10
0.587059
 20
-0.883296
  0
VERTEX
  8
C3
  5
81
 10
0.575
 20
-0.878301
  0
VERTEX
  8
C3
  5
82
 10
0.564645
 20
-0.870355
  0
VERTEX
  8
C3
  5
83
 10
0.556699
 20
-0.86
  0
VERTEX
  8
C3
  5
84
 10
0.551704
 20
-0.847941
  0
VERTEX
  8
C3
  5
85
 10
0.55
 20
-0.835
  0
VERTEX
  8
C3
  5
86
 10
0.55
 20
-0.76
  0
VERTEX
  8
C3
  5
87
 10
0.548296
 20
-0.747059
  0
VERTEX
  8
C3
  5
88
 10
0.543301
 20
-0.735
  0
VERTEX
  8
C3
  5
89
 10
0.535355
 20
-0.724645
  0
VERTEX
  8
C3
  5
8A
 10
0.525
 20
-0.716699
  0
VERTEX
  8
C3
  5
8B
 10
0.512941
 20
-0.711704
  0
VERTEX
  8
C3
  5
8C
 10
0.5
 20
-0.71
  0
VERTEX
  8
C3
  5
8D
 10
0.487059
 20
-0.708296
  0
VERTEX
  8
C3
  5
8E
 10
0.475
 20
-0.703301
  0
VERTEX
  8
C3
  5
8F
 10
0.464645
 20
-0.695355
  0
VERTEX
  8
C3
  5
90
 10
0.456699
 20
-0.685
  0
VERTEX
  8
C3
  5
91
 10
0.451704
 20
-0.672941
  0
VERTEX
  8
C3
  5
92
 10
0.45
 20
-0.66
  0
VERTEX
  8
C3
  5
93
 10
0.45
 20
-0.61
  0
VERTEX
  8
C3
  5
94
 10
0.448296
 20
-0.597059
  0
VERTEX
  8
C3
  5
95
 10
0.443301
 20
-0.585
  0
VERTEX
  8
C3
  5
96
 10
0.435355
 20
-0.574645
  0
VERTEX
  8
C3
  5
97
 10
0.425
 20
-0.566699
  0
VERTEX
  8
C3
  5
98
 10
0.412941
 20
-0.561704
  0
VERTEX
  8
C3
  5
99
 10
0.4
 20
-0.56
  0
VERTEX
  8
C3
  5
9A
 10
-0.45
 20
-0.56
  0
VERTEX
  8
C3
  5
9B
 10
-0.475882
 20
-0.556593
  0
VERTEX
  8
C3
  5
9C
 10
-0.5
 20
-0.546603
  0
VERTEX
  8
C3
  5
9D
 10
-0.520711
 20
-0.530711
  0
VERTEX
  8
C3
  5
9E
 10
-0.536603
 20
-0.51
  0
VERTEX
  8
C3
  5
9F
 10
-0.546593
 20
-0.485882
  0
VERTEX
  8
C3
  5
A0
 10
-0.55
 20
-0.46
  0
SEQEND
  8
C3
  5
A1
  0
POLYLINE
  8
C3
  5
A2
 66
1
 10
0.0
 20
0.0
 30
0.0
 70
1
  0
VERTEX
  8
C3
  5
A3
 10
0.75
 20
-1.015
  0
VERTEX
  8
C3
  5
A4
 10
-0.75
 20
-1.015
  0
VERTEX
  8
C3
  5
A5
 10
-0.75
 20
1.015
  0
VERTEX
  8
C3
  5
A6
 10
0.75
 20
1.015
  0
SEQEND
  8
C3
  5
A7
  0
ENDSEC
  0
EOF
