  0
SECTION
  2
ENTITIES
  0
POLYLINE
  8
C1
  5
1
 66
1
 10
0.0
 20
0.0
 30
0.0
 70
1
  0
VERTEX
  8
C1
  5
2
 10
0.6
 20
-0.885
  0
VERTEX
  8
C1
  5
3
 10
0.587059
 20
-0.883296
  0
VERTEX
  8
C1
  5
4
 10
0.575
 20
-0.878301
  0
VERTEX
  8
C1
  5
5
 10
0.564645
 20
-0.870355
  0
VERTEX
  8
C1
  5
6
 10
0.556699
 20
-0.86
  0
VERTEX
  8
C1
  5
7
 10
0.551704
 20
-0.847941
  0
VERTEX
  8
C1
  5
8
 10
0.55
 20
-0.835
  0
VERTEX
  8
C1
  5
9
 10
0.55
 20
-0.705
  0
VERTEX
  8
C1
  5
A
 10
0.548296
 20
-0.692059
  0
VERTEX
  8
C1
  5
B
 10
0.543301
 20
-0.68
  0
VERTEX
  8
C1
  5
C
 10
0.535355
 20
-0.669645
  0
VERTEX
  8
C1
  5
D
 10
0.525
 20
-0.661699
  0
VERTEX
  8
C1
  5
E
 10
0.512941
 20
-0.656704
  0
VERTEX
  8
C1
  5
F
 10
0.5
 20
-0.655
  0
VERTEX
  8
C1
  5
10
 10
0.35
 20
-0.655
  0
VERTEX
  8
C1
  5
11
 10
0.324562
 20
-0.65171
  0
VERTEX
  8
C1
  5
12
 10
0.300797
 20
-0.642058
  0
VERTEX
  8
C1
  5
13
 10
0.28027
 20
-0.626678
  0
VERTEX
  8
C1
  5
14
 10
0.26433
 20
-0.606582
  0
VERTEX
  8
C1
  5
15
 10
0.254027
 20
-0.583092
  0
VERTEX
  8
C1
  5
16
 10
0.250038
 20
-0.557754
  0
VERTEX
  8
C1
  5
17
 10
0.252626
 20
-0.532235
  0
VERTEX
  8
C1
  5
18
 10
0.26162
 20
-0.508213
  0
VERTEX
  8
C1
  5
19
 10
0.276429
 20
-0.48727
  0
VERTEX
  8
C1
  5
1A
 10
0.296079
 20
-0.470783
  0
VERTEX
  8
C1
  5
1B
 10
0.319276
 20
-0.459837
  0
VERTEX
  8
C1
  5
1C
 10
0.344494
 20
-0.455152
  0
VERTEX
  8
C1
  5
1D
 10
0.370075
 20
-0.457036
  0
VERTEX
  8
C1
  5
1E
 10
0.394335
 20
-0.465365
  0
VERTEX
  8
C1
  5
1F
 10
0.415678
 20
-0.479592
  0
VERTEX
  8
C1
  5
20
 10
0.4327
 20
-0.49878
  0
VERTEX
  8
C1
  5
21
 10
0.444281
 20
-0.521667
  0
VERTEX
  8
C1
  5
22
 10
0.449764
 20
-0.532653
  0
VERTEX
  8
C1
  5
23
 10
0.45776
 20
-0.541971
  0
VERTEX
  8
C1
  5
24
 10
0.467785
 20
-0.54906
  0
VERTEX
  8
C1
  5
25
 10
0.479236
 20
-0.553492
  0
VERTEX
  8
C1
  5
26
 10
0.491421
 20
-0.555
  0
VERTEX
  8
C1
  5
27
 10
0.75
 20
-0.555
  0
VERTEX
  8
C1
  5
28
 10
0.75
 20
-0.885
  0
SEQEND
  8
C1
  5
29
  0
POLYLINE
  8
C1
  5
2A
 66
1
 10
0.0
 20
0.0
 30
0.0
 70
1
  0
VERTEX
  8
C1
  5
2B
 10
0.35
 20
0.2
  0
VERTEX
  8
C1
  5
2C
 10
0.338074
 20
0.109413
  0
VERTEX
  8
C1
  5
2D
 10
0.303109
 20
0.025
  0
VERTEX
  8
C1
  5
2E
 10
0.247487
 20
-0.0474874
  0
VERTEX
  8
C1
  5
2F
 10
0.175
 20
-0.103109
  0
VERTEX
  8
C1
  5
30
 10
0.0905867
 20
-0.138074
  0
VERTEX
  8
C1
  5
31
 10
-6.4294e-017
 20
-0.15
  0
VERTEX
  8
C1
  5
32
 10
-0.0905867
 20
-0.138074
  0
VERTEX
  8
C1
  5
33
 10
-0.175
 20
-0.103109
  0
VERTEX
  8
C1
  5
34
 10
-0.247487
 20
-0.0474874
  0
VERTEX
  8
C1
  5
35
 10
-0.303109
 20
0.025
  0
VERTEX
  8
C1
  5
36
 10
-0.338074
 20
0.109413
  0
VERTEX
  8
C1
  5
37
 10
-0.35
 20
0.2
  0
VERTEX
  8
C1
  5
38
 10
-0.338074
 20
0.290587
  0
VERTEX
  8
C1
  5
39
 10
-0.303109
 20
0.375
  0
VERTEX
  8
C1
  5
3A
 10
-0.247487
 20
0.447487
  0
VERTEX
  8
C1
  5
3B
 10
-0.175
 20
0.503109
  0
VERTEX
  8
C1
  5
3C
 10
-0.0905867
 20
0.538074
  0
VERTEX
  8
C1
  5
3D
 10
9.91469e-017
 20
0.55
  0
VERTEX
  8
C1
  5
3E
 10
0.0905867
 20
0.538074
  0
VERTEX
  8
C1
  5
3F
 10
0.175
 20
0.503109
  0
VERTEX
  8
C1
  5
40
 10
0.247487
 20
0.447487
  0
VERTEX
  8
C1
  5
41
 10
0.303109
 20
0.375
  0
VERTEX
  8
C1
  5
42
 10
0.338074
 20
0.290587
  0
SEQEND
  8
C1
  5
43
  0
POLYLINE
  8
C1
  5
44
 66
1
 10
0.0
 20
0.0
 30
0.0
 70
1
  0
VERTEX
  8
C1
  5
45
 10
0.75
 20
-1.015
  0
VERTEX
  8
C1
  5
46
 10
-0.75
 20
-1.015
  0
VERTEX
  8
C1
  5
47
 10
-0.75
 20
1.015
  0
VERTEX
  8
C1
  5
48
 10
0.75
 20
1.015
  0
SEQEND
  8
C1
  5
49
  0
ENDSEC
  0
EOF
