  0
SECTION
  2
ENTITIES
  0
POLYLINE
  8
GND
  5
1
 66
1
 10
0.0
 20
0.0
 30
0.0
 70
1
  0
VERTEX
  8
GND
  5
2
 10
-0.034641
 20
0.18
  0
VERTEX
  8
GND
  5
3
 10
-0.04
 20
0.2
  0
VERTEX
  8
GND
  5
4
 10
-0.034641
 20
0.22
  0
VERTEX
  8
GND
  5
5
 10
-0.02
 20
0.234641
  0
VERTEX
  8
GND
  5
6
 10
1.73472e-018
 20
0.24
  0
VERTEX
  8
GND
  5
7
 10
0.02
 20
0.234641
  0
VERTEX
  8
GND
  5
8
 10
0.034641
 20
0.22
  0
VERTEX
  8
GND
  5
9
 10
0.04
 20
0.2
  0
VERTEX
  8
GND
  5
A
 10
0.034641
 20
0.18
  0
VERTEX
  8
GND
  5
B
 10
0.02
 20
0.165359
  0
VERTEX
  8
GND
  5
C
 10
1.73472e-018
 20
0.16
  0
VERTEX
  8
GND
  5
D
 10
-0.02
 20
0.165359
  0
SEQEND
  8
GND
  5
E
  0
POLYLINE
  8
GND
  5
F
 66
1
 10
0.0
 20
0.0
 30
0.0
 70
1
  0
VERTEX
  8
GND
  5
10
 10
0.08
 20
0.2
  0
VERTEX
  8
GND
  5
11
 10
0.069282
 20
0.16
  0
VERTEX
  8
GND
  5
12
 10
0.04
 20
0.130718
  0
VERTEX
  8
GND
  5
13
 10
3.46945e-018
 20
0.12
  0
VERTEX
  8
GND
  5
14
 10
-0.04
 20
0.130718
  0
VERTEX
  8
GND
  5
15
 10
-0.069282
 20
0.16
  0
VERTEX
  8
GND
  5
16
 10
-0.08
 20
0.2
  0
VERTEX
  8
GND
  5
17
 10
-0.069282
 20
0.24
  0
VERTEX
  8
GND
  5
18
 10
-0.04
 20
0.269282
  0
VERTEX
  8
GND
  5
19
 10
3.46945e-018
 20
0.28
  0
VERTEX
  8
GND
  5
1A
 10
0.04
 20
0.269282
  0
VERTEX
  8
GND
  5
1B
 10
0.069282
 20
0.24
  0
SEQEND
  8
GND
  5
1C
  0
POLYLINE
  8
GND
  5
1D
 66
1
 10
0.0
 20
0.0
 30
0.0
 70
1
  0
VERTEX
  8
GND
  5
1E
 10
0.190526
 20
0.09
  0
VERTEX
  8
GND
  5
1F
 10
0.22
 20
0.2
  0
VERTEX
  8
GND
  5
20
 10
0.190526
 20
0.31
  0
VERTEX
  8
GND
  5
21
 10
0.11
 20
0.390526
  0
VERTEX
  8
GND
  5
22
 10
6.93889e-018
 20
0.42
  0
VERTEX
  8
GND
  5
23
 10
-0.11
 20
0.390526
  0
VERTEX
  8
GND
  5
24
 10
-0.190526
 20
0.31
  0
VERTEX
  8
GND
  5
25
 10
-0.22
 20
0.2
  0
VERTEX
  8
GND
  5
26
 10
-0.190526
 20
0.09
  0
VERTEX
  8
GND
  5
27
 10
-0.11
 20
0.00947441
  0
VERTEX
  8
GND
  5
28
 10
6.93889e-018
 20
-0.02
  0
VERTEX
  8
GND
  5
29
 10
0.11
 20
0.00947441
  0
SEQEND
  8
GND
  5
2A
  0
POLYLINE
  8
GND
  5
2B
 66
1
 10
0.0
 20
0.0
 30
0.0
 70
1
  0
VERTEX
  8
GND
  5
2C
 10
-0.6
 20
-0.555
  0
VERTEX
  8
GND
  5
2D
 10
-0.587059
 20
-0.553296
  0
VERTEX
  8
GND
  5
2E
 10
-0.575
 20
-0.548301
  0
VERTEX
  8
GND
  5
2F
 10
-0.564645
 20
-0.540355
  0
VERTEX
  8
GND
  5
30
 10
-0.556699
 20
-0.53
  0
VERTEX
  8
GND
  5
31
 10
-0.551704
 20
-0.517941
  0
VERTEX
  8
GND
  5
32
 10
-0.55
 20
-0.505
  0
VERTEX
  8
GND
  5
33
 10
-0.55
 20
0.505
  0
VERTEX
  8
GND
  5
34
 10
-0.551704
 20
0.517941
  0
VERTEX
  8
GND
  5
35
 10
-0.556699
 20
0.53
  0
VERTEX
  8
GND
  5
36
 10
-0.564645
 20
0.540355
  0
VERTEX
  8
GND
  5
37
 10
-0.575
 20
0.548301
  0
VERTEX
  8
GND
  5
38
 10
-0.587059
 20
0.553296
  0
VERTEX
  8
GND
  5
39
 10
-0.6
 20
0.555
  0
VERTEX
  8
GND
  5
3A
 10
-0.75
 20
0.555
  0
VERTEX
  8
GND
  5
3B
 10
-0.75
 20
0.885
  0
VERTEX
  8
GND
  5
3C
 10
-0.58
 20
0.885
  0
VERTEX
  8
GND
  5
3D
 10
-0.567059
 20
0.883296
  0
VERTEX
  8
GND
  5
3E
 10
-0.555
 20
0.878301
  0
VERTEX
  8
GND
  5
3F
 10
-0.544645
 20
0.870355
  0
VERTEX
  8
GND
  5
40
 10
-0.536699
 20
0.86
  0
VERTEX
  8
GND
  5
41
 10
-0.531704
 20
0.847941
  0
VERTEX
  8
GND
  5
42
 10
-0.53
 20
0.835
  0
VERTEX
  8
GND
  5
43
 10
-0.53
 20
0.81
  0
VERTEX
  8
GND
  5
44
 10
-0.528296
 20
0.797059
  0
VERTEX
  8
GND
  5
45
 10
-0.523301
 20
0.785
  0
VERTEX
  8
GND
  5
46
 10
-0.515355
 20
0.774645
  0
VERTEX
  8
GND
  5
47
 10
-0.505
 20
0.766699
  0
VERTEX
  8
GND
  5
48
 10
-0.492941
 20
0.761704
  0
VERTEX
  8
GND
  5
49
 10
-0.48
 20
0.76
  0
VERTEX
  8
GND
  5
4A
 10
0.45
 20
0.76
  0
VERTEX
  8
GND
  5
4B
 10
0.475882
 20
0.756593
  0
VERTEX
  8
GND
  5
4C
 10
0.5
 20
0.746603
  0
VERTEX
  8
GND
  5
4D
 10
0.520711
 20
0.730711
  0
VERTEX
  8
GND
  5
4E
 10
0.536603
 20
0.71
  0
VERTEX
  8
GND
  5
4F
 10
0.546593
 20
0.685882
  0
VERTEX
  8
GND
  5
50
 10
0.55
 20
0.66
  0
VERTEX
  8
GND
  5
51
 10
0.55
 20
-0.66
  0
VERTEX
  8
GND
  5
52
 10
0.546593
 20
-0.685882
  0
VERTEX
  8
GND
  5
53
 10
0.536603
 20
-0.71
  0
VERTEX
  8
GND
  5
54
 10
0.520711
 20
-0.730711
  0
VERTEX
  8
GND
  5
55
 10
0.5
 20
-0.746603
  0
VERTEX
  8
GND
  5
56
 10
0.475882
 20
-0.756593
  0
VERTEX
  8
GND
  5
57
 10
0.45
 20
-0.76
  0
VERTEX
  8
GND
  5
58
 10
-0.48
 20
-0.76
  0
VERTEX
  8
GND
  5
59
 10
-0.492941
 20
-0.761704
  0
VERTEX
  8
GND
  5
5A
 10
-0.505
 20
-0.766699
  0
VERTEX
  8
GND
  5
5B
 10
-0.515355
 20
-0.774645
  0
VERTEX
  8
GND
  5
5C
 10
-0.523301
 20
-0.785
  0
VERTEX
  8
GND
  5
5D
 10
-0.528296
 20
-0.797059
  0
VERTEX
  8
GND
  5
5E
 10
-0.53
 20
-0.81
  0
VERTEX
  8
GND
  5
5F
 10
-0.53
 20
-0.835
  0
VERTEX
  8
GND
  5
60
 10
-0.531704
 20
-0.847941
  0
VERTEX
  8
GND
  5
61
 10
-0.536699
 20
-0.86
  0
VERTEX
  8
GND
  5
62
 10
-0.544645
 20
-0.870355
  0
VERTEX
  8
GND
  5
63
 10
-0.555
 20
-0.878301
  0
VERTEX
  8
GND
  5
64
 10
-0.567059
 20
-0.883296
  0
VERTEX
  8
GND
  5
65
 10
-0.58
 20
-0.885
  0
VERTEX
  8
GND
  5
66
 10
-0.75
 20
-0.885
  0
VERTEX
  8
GND
  5
67
 10
-0.75
 20
-0.555
  0
SEQEND
  8
GND
  5
68
  0
POLYLINE
  8
GND
  5
69
 66
1
 10
0.0
 20
0.0
 30
0.0
 70
1
  0
VERTEX
  8
GND
  5
6A
 10
0.75
 20
-1.015
  0
VERTEX
  8
GND
  5
6B
 10
-0.75
 20
-1.015
  0
VERTEX
  8
GND
  5
6C
 10
-0.75
 20
1.015
  0
VERTEX
  8
GND
  5
6D
 10
0.75
 20
1.015
  0
SEQEND
  8
GND
  5
6E
  0
ENDSEC
  0
EOF
