  0
SECTION
  2
ENTITIES
  0
POLYLINE
  8
L1
  5
1
 66
1
 10
0.0
 20
0.0
 30
0.0
 70
1
  0
VERTEX
  8
L1
  5
2
 10
-0.515
 20
0.175
  0
VERTEX
  8
L1
  5
3
 10
-0.513637
 20
0.185353
  0
VERTEX
  8
L1
  5
4
 10
-0.509641
 20
0.195
  0
VERTEX
  8
L1
  5
5
 10
-0.503284
 20
0.203284
  0
VERTEX
  8
L1
  5
6
 10
-0.495
 20
0.209641
  0
VERTEX
  8
L1
  5
7
 10
-0.485353
 20
0.213637
  0
VERTEX
  8
L1
  5
8
 10
-0.475
 20
0.215
  0
VERTEX
  8
L1
  5
9
 10
-0.464647
 20
0.213637
  0
VERTEX
  8
L1
  5
A
 10
-0.455
 20
0.209641
  0
VERTEX
  8
L1
  5
B
 10
-0.446716
 20
0.203284
  0
VERTEX
  8
L1
  5
C
 10
-0.440359
 20
0.195
  0
VERTEX
  8
L1
  5
D
 10
-0.436363
 20
0.185353
  0
VERTEX
  8
L1
  5
E
 10
-0.435
 20
0.175
  0
VERTEX
  8
L1
  5
F
 10
-0.436363
 20
0.164647
  0
VERTEX
  8
L1
  5
10
 10
-0.440359
 20
0.155
  0
VERTEX
  8
L1
  5
11
 10
-0.446716
 20
0.146716
  0
VERTEX
  8
L1
  5
12
 10
-0.455
 20
0.140359
  0
VERTEX
  8
L1
  5
13
 10
-0.464647
 20
0.136363
  0
VERTEX
  8
L1
  5
14
 10
-0.475
 20
0.135
  0
VERTEX
  8
L1
  5
15
 10
-0.485353
 20
0.136363
  0
VERTEX
  8
L1
  5
16
 10
-0.495
 20
0.140359
  0
VERTEX
  8
L1
  5
17
 10
-0.503284
 20
0.146716
  0
VERTEX
  8
L1
  5
18
 10
-0.509641
 20
0.155
  0
VERTEX
  8
L1
  5
19
 10
-0.513637
 20
0.164647
  0
SEQEND
  8
L1
  5
1A
  0
POLYLINE
  8
L1
  5
1B
 66
1
 10
0.0
 20
0.0
 30
0.0
 70
1
  0
VERTEX
  8
L1
  5
1C
 10
-0.515
 20
-0.175
  0
VERTEX
  8
L1
  5
1D
 10
-0.513637
 20
-0.164647
  0
VERTEX
  8
L1
  5
1E
 10
-0.509641
 20
-0.155
  0
VERTEX
  8
L1
  5
1F
 10
-0.503284
 20
-0.146716
  0
VERTEX
  8
L1
  5
20
 10
-0.495
 20
-0.140359
  0
VERTEX
  8
L1
  5
21
 10
-0.485353
 20
-0.136363
  0
VERTEX
  8
L1
  5
22
 10
-0.475
 20
-0.135
  0
VERTEX
  8
L1
  5
23
 10
-0.464647
 20
-0.136363
  0
VERTEX
  8
L1
  5
24
 10
-0.455
 20
-0.140359
  0
VERTEX
  8
L1
  5
25
 10
-0.446716
 20
-0.146716
  0
VERTEX
  8
L1
  5
26
 10
-0.440359
 20
-0.155
  0
VERTEX
  8
L1
  5
27
 10
-0.436363
 20
-0.164647
  0
VERTEX
  8
L1
  5
28
 10
-0.435
 20
-0.175
  0
VERTEX
  8
L1
  5
29
 10
-0.436363
 20
-0.185353
  0
VERTEX
  8
L1
  5
2A
 10
-0.440359
 20
-0.195
  0
VERTEX
  8
L1
  5
2B
 10
-0.446716
 20
-0.203284
  0
VERTEX
  8
L1
  5
2C
 10
-0.455
 20
-0.209641
  0
VERTEX
  8
L1
  5
2D
 10
-0.464647
 20
-0.213637
  0
VERTEX
  8
L1
  5
2E
 10
-0.475
 20
-0.215
  0
VERTEX
  8
L1
  5
2F
 10
-0.485353
 20
-0.213637
  0
VERTEX
  8
L1
  5
30
 10
-0.495
 20
-0.209641
  0
VERTEX
  8
L1
  5
31
 10
-0.503284
 20
-0.203284
  0
VERTEX
  8
L1
  5
32
 10
-0.509641
 20
-0.195
  0
VERTEX
  8
L1
  5
33
 10
-0.513637
 20
-0.185353
  0
SEQEND
  8
L1
  5
34
  0
POLYLINE
  8
L1
  5
35
 66
1
 10
0.0
 20
0.0
 30
0.0
 70
1
  0
VERTEX
  8
L1
  5
36
 10
-0.4
 20
0.202839
  0
VERTEX
  8
L1
  5
37
 10
-0.395389
 20
0.182875
  0
VERTEX
  8
L1
  5
38
 10
-0.395999
 20
0.162394
  0
VERTEX
  8
L1
  5
39
 10
-0.401793
 20
0.14274
  0
VERTEX
  8
L1
  5
3A
 10
-0.412389
 20
0.125202
  0
VERTEX
  8
L1
  5
3B
 10
-0.427091
 20
0.110931
  0
VERTEX
  8
L1
  5
3C
 10
-0.444937
 20
0.100863
  0
VERTEX
  8
L1
  5
3D
 10
-0.464755
 20
0.0956587
  0
VERTEX
  8
L1
  5
3E
 10
-0.485245
 20
0.0956587
  0
VERTEX
  8
L1
  5
3F
 10
-0.505063
 20
0.100863
  0
VERTEX
  8
L1
  5
40
 10
-0.522909
 20
0.110931
  0
VERTEX
  8
L1
  5
41
 10
-0.537611
 20
0.125202
  0
VERTEX
  8
L1
  5
42
 10
-0.548207
 20
0.14274
  0
VERTEX
  8
L1
  5
43
 10
-0.554001
 20
0.162394
  0
VERTEX
  8
L1
  5
44
 10
-0.554611
 20
0.182875
  0
VERTEX
  8
L1
  5
45
 10
-0.55
 20
0.202839
  0
VERTEX
  8
L1
  5
46
 10
-0.55
 20
0.635
  0
VERTEX
  8
L1
  5
47
 10
-0.542333
 20
0.693234
  0
VERTEX
  8
L1
  5
48
 10
-0.519856
 20
0.7475
  0
VERTEX
  8
L1
  5
49
 10
-0.484099
 20
0.794099
  0
VERTEX
  8
L1
  5
4A
 10
-0.4375
 20
0.829856
  0
VERTEX
  8
L1
  5
4B
 10
-0.383234
 20
0.852333
  0
VERTEX
  8
L1
  5
4C
 10
-0.325
 20
0.86
  0
VERTEX
  8
L1
  5
4D
 10
0.54
 20
0.86
  0
VERTEX
  8
L1
  5
4E
 10
0.542588
 20
0.860341
  0
VERTEX
  8
L1
  5
4F
 10
0.545
 20
0.86134
  0
VERTEX
  8
L1
  5
50
 10
0.547071
 20
0.862929
  0
VERTEX
  8
L1
  5
51
 10
0.54866
 20
0.865
  0
VERTEX
  8
L1
  5
52
 10
0.549659
 20
0.867412
  0
VERTEX
  8
L1
  5
53
 10
0.55
 20
0.87
  0
VERTEX
  8
L1
  5
54
 10
0.55
 20
0.875
  0
VERTEX
  8
L1
  5
55
 10
0.550341
 20
0.877588
  0
VERTEX
  8
L1
  5
56
 10
0.55134
 20
0.88
  0
VERTEX
  8
L1
  5
57
 10
0.552929
 20
0.882071
  0
VERTEX
  8
L1
  5
58
 10
0.555
 20
0.88366
  0
VERTEX
  8
L1
  5
59
 10
0.557412
 20
0.884659
  0
VERTEX
  8
L1
  5
5A
 10
0.56
 20
0.885
  0
VERTEX
  8
L1
  5
5B
 10
0.75
 20
0.885
  0
VERTEX
  8
L1
  5
5C
 10
0.75
 20
0.555
  0
VERTEX
  8
L1
  5
5D
 10
0.6
 20
0.555
  0
VERTEX
  8
L1
  5
5E
 10
0.587059
 20
0.556704
  0
VERTEX
  8
L1
  5
5F
 10
0.575
 20
0.561699
  0
VERTEX
  8
L1
  5
60
 10
0.564645
 20
0.569645
  0
VERTEX
  8
L1
  5
61
 10
0.556699
 20
0.58
  0
VERTEX
  8
L1
  5
62
 10
0.551704
 20
0.592059
  0
VERTEX
  8
L1
  5
63
 10
0.55
 20
0.605
  0
VERTEX
  8
L1
  5
64
 10
0.55
 20
0.66
  0
VERTEX
  8
L1
  5
65
 10
0.548296
 20
0.672941
  0
VERTEX
  8
L1
  5
66
 10
0.543301
 20
0.685
  0
VERTEX
  8
L1
  5
67
 10
0.535355
 20
0.695355
  0
VERTEX
  8
L1
  5
68
 10
0.525
 20
0.703301
  0
VERTEX
  8
L1
  5
69
 10
0.512941
 20
0.708296
  0
VERTEX
  8
L1
  5
6A
 10
0.5
 20
0.71
  0
VERTEX
  8
L1
  5
6B
 10
-0.325
 20
0.71
  0
VERTEX
  8
L1
  5
6C
 10
-0.344411
 20
0.707444
  0
VERTEX
  8
L1
  5
6D
 10
-0.3625
 20
0.699952
  0
VERTEX
  8
L1
  5
6E
 10
-0.378033
 20
0.688033
  0
VERTEX
  8
L1
  5
6F
 10
-0.389952
 20
0.6725
  0
VERTEX
  8
L1
  5
70
 10
-0.397444
 20
0.654411
  0
VERTEX
  8
L1
  5
71
 10
-0.4
 20
0.635
  0
SEQEND
  8
L1
  5
72
  0
POLYLINE
  8
L1
  5
73
 66
1
 10
0.0
 20
0.0
 30
0.0
 70
1
  0
VERTEX
  8
L1
  5
74
 10
-0.55
 20
-0.202839
  0
VERTEX
  8
L1
  5
75
 10
-0.554611
 20
-0.182875
  0
VERTEX
  8
L1
  5
76
 10
-0.554001
 20
-0.162394
  0
VERTEX
  8
L1
  5
77
 10
-0.548207
 20
-0.14274
  0
VERTEX
  8
L1
  5
78
 10
-0.537611
 20
-0.125202
  0
VERTEX
  8
L1
  5
79
 10
-0.522909
 20
-0.110931
  0
VERTEX
  8
L1
  5
7A
 10
-0.505063
 20
-0.100863
  0
VERTEX
  8
L1
  5
7B
 10
-0.485245
 20
-0.0956587
  0
VERTEX
  8
L1
  5
7C
 10
-0.464755
 20
-0.0956587
  0
VERTEX
  8
L1
  5
7D
 10
-0.444937
 20
-0.100863
  0
VERTEX
  8
L1
  5
7E
 10
-0.427091
 20
-0.110931
  0
VERTEX
  8
L1
  5
7F
 10
-0.412389
 20
-0.125202
  0
VERTEX
  8
L1
  5
80
 10
-0.401793
 20
-0.14274
  0
VERTEX
  8
L1
  5
81
 10
-0.395999
 20
-0.162394
  0
VERTEX
  8
L1
  5
82
 10
-0.395389
 20
-0.182875
  0
VERTEX
  8
L1
  5
83
 10
-0.4
 20
-0.202839
  0
VERTEX
  8
L1
  5
84
 10
-0.4
 20
-0.635
  0
VERTEX
  8
L1
  5
85
 10
-0.397444
 20
-0.654411
  0
VERTEX
  8
L1
  5
86
 10
-0.389952
 20
-0.6725
  0
VERTEX
  8
L1
  5
87
 10
-0.378033
 20
-0.688033
  0
VERTEX
  8
L1
  5
88
 10
-0.3625
 20
-0.699952
  0
VERTEX
  8
L1
  5
89
 10
-0.344411
 20
-0.707444
  0
VERTEX
  8
L1
  5
8A
 10
-0.325
 20
-0.71
  0
VERTEX
  8
L1
  5
8B
 10
0.5
 20
-0.71
  0
VERTEX
  8
L1
  5
8C
 10
0.512941
 20
-0.708296
  0
VERTEX
  8
L1
  5
8D
 10
0.525
 20
-0.703301
  0
VERTEX
  8
L1
  5
8E
 10
0.535355
 20
-0.695355
  0
VERTEX
  8
L1
  5
8F
 10
0.543301
 20
-0.685
  0
VERTEX
  8
L1
  5
90
 10
0.548296
 20
-0.672941
  0
VERTEX
  8
L1
  5
91
 10
0.55
 20
-0.66
  0
VERTEX
  8
L1
  5
92
 10
0.55
 20
-0.605
  0
VERTEX
  8
L1
  5
93
 10
0.551704
 20
-0.592059
  0
VERTEX
  8
L1
  5
94
 10
0.556699
 20
-0.58
  0
VERTEX
  8
L1
  5
95
 10
0.564645
 20
-0.569645
  0
VERTEX
  8
L1
  5
96
 10
0.575
 20
-0.561699
  0
VERTEX
  8
L1
  5
97
 10
0.587059
 20
-0.556704
  0
VERTEX
  8
L1
  5
98
 10
0.6
 20
-0.555
  0
VERTEX
  8
L1
  5
99
 10
0.75
 20
-0.555
  0
VERTEX
  8
L1
  5
9A
 10
0.75
 20
-0.885
  0
VERTEX
  8
L1
  5
9B
 10
0.56
 20
-0.885
  0
VERTEX
  8
L1
  5
9C
 10
0.557412
 20
-0.884659
  0
VERTEX
  8
L1
  5
9D
 10
0.555
 20
-0.88366
  0
VERTEX
  8
L1
  5
9E
 10
0.552929
 20
-0.882071
  0
VERTEX
  8
L1
  5
9F
 10
0.55134
 20
-0.88
  0
VERTEX
  8
L1
  5
A0
 10
0.550341
 20
-0.877588
  0
VERTEX
  8
L1
  5
A1
 10
0.55
 20
-0.875
  0
VERTEX
  8
L1
  5
A2
 10
0.55
 20
-0.87
  0
VERTEX
  8
L1
  5
A3
 10
0.549659
 20
-0.867412
  0
VERTEX
  8
L1
  5
A4
 10
0.54866
 20
-0.865
  0
VERTEX
  8
L1
  5
A5
 10
0.547071
 20
-0.862929
  0
VERTEX
  8
L1
  5
A6
 10
0.545
 20
-0.86134
  0
VERTEX
  8
L1
  5
A7
 10
0.542588
 20
-0.860341
  0
VERTEX
  8
L1
  5
A8
 10
0.54
 20
-0.86
  0
VERTEX
  8
L1
  5
A9
 10
-0.325
 20
-0.86
  0
VERTEX
  8
L1
  5
AA
 10
-0.383234
 20
-0.852333
  0
VERTEX
  8
L1
  5
AB
 10
-0.4375
 20
-0.829856
  0
VERTEX
  8
L1
  5
AC
 10
-0.484099
 20
-0.794099
  0
VERTEX
  8
L1
  5
AD
 10
-0.519856
 20
-0.7475
  0
VERTEX
  8
L1
  5
AE
 10
-0.542333
 20
-0.693234
  0
VERTEX
  8
L1
  5
AF
 10
-0.55
 20
-0.635
  0
SEQEND
  8
L1
  5
B0
  0
POLYLINE
  8
L1
  5
B1
 66
1
 10
0.0
 20
0.0
 30
0.0
 70
1
  0
VERTEX
  8
L1
  5
B2
 10
0.75
 20
-1.015
  0
VERTEX
  8
L1
  5
B3
 10
-0.75
 20
-1.015
  0
VERTEX
  8
L1
  5
B4
 10
-0.75
 20
1.015
  0
VERTEX
  8
L1
  5
B5
 10
0.75
 20
1.015
  0
SEQEND
  8
L1
  5
B6
  0
ENDSEC
  0
EOF
