  0
SECTION
  2
ENTITIES
  0
POLYLINE
  8
L3
  5
1
 66
1
 10
0.0
 20
0.0
 30
0.0
 70
1
  0
VERTEX
  8
L3
  5
2
 10
0.435
 20
0.785
  0
VERTEX
  8
L3
  5
3
 10
0.436363
 20
0.795353
  0
VERTEX
  8
L3
  5
4
 10
0.440359
 20
0.805
  0
VERTEX
  8
L3
  5
5
 10
0.446716
 20
0.813284
  0
VERTEX
  8
L3
  5
6
 10
0.455
 20
0.819641
  0
VERTEX
  8
L3
  5
7
 10
0.464647
 20
0.823637
  0
VERTEX
  8
L3
  5
8
 10
0.475
 20
0.825
  0
VERTEX
  8
L3
  5
9
 10
0.485353
 20
0.823637
  0
VERTEX
  8
L3
  5
A
 10
0.495
 20
0.819641
  0
VERTEX
  8
L3
  5
B
 10
0.503284
 20
0.813284
  0
VERTEX
  8
L3
  5
C
 10
0.509641
 20
0.805
  0
VERTEX
  8
L3
  5
D
 10
0.513637
 20
0.795353
  0
VERTEX
  8
L3
  5
E
 10
0.515
 20
0.785
  0
VERTEX
  8
L3
  5
F
 10
0.513637
 20
0.774647
  0
VERTEX
  8
L3
  5
10
 10
0.509641
 20
0.765
  0
VERTEX
  8
L3
  5
11
 10
0.503284
 20
0.756716
  0
VERTEX
  8
L3
  5
12
 10
0.495
 20
0.750359
  0
VERTEX
  8
L3
  5
13
 10
0.485353
 20
0.746363
  0
VERTEX
  8
L3
  5
14
 10
0.475
 20
0.745
  0
VERTEX
  8
L3
  5
15
 10
0.464647
 20
0.746363
  0
VERTEX
  8
L3
  5
16
 10
0.455
 20
0.750359
  0
VERTEX
  8
L3
  5
17
 10
0.446716
 20
0.756716
  0
VERTEX
  8
L3
  5
18
 10
0.440359
 20
0.765
  0
VERTEX
  8
L3
  5
19
 10
0.436363
 20
0.774647
  0
SEQEND
  8
L3
  5
1A
  0
POLYLINE
  8
L3
  5
1B
 66
1
 10
0.0
 20
0.0
 30
0.0
 70
1
  0
VERTEX
  8
L3
  5
1C
 10
0.435
 20
-0.785
  0
VERTEX
  8
L3
  5
1D
 10
0.436363
 20
-0.774647
  0
VERTEX
  8
L3
  5
1E
 10
0.440359
 20
-0.765
  0
VERTEX
  8
L3
  5
1F
 10
0.446716
 20
-0.756716
  0
VERTEX
  8
L3
  5
20
 10
0.455
 20
-0.750359
  0
VERTEX
  8
L3
  5
21
 10
0.464647
 20
-0.746363
  0
VERTEX
  8
L3
  5
22
 10
0.475
 20
-0.745
  0
VERTEX
  8
L3
  5
23
 10
0.485353
 20
-0.746363
  0
VERTEX
  8
L3
  5
24
 10
0.495
 20
-0.750359
  0
VERTEX
  8
L3
  5
25
 10
0.503284
 20
-0.756716
  0
VERTEX
  8
L3
  5
26
 10
0.509641
 20
-0.765
  0
VERTEX
  8
L3
  5
27
 10
0.513637
 20
-0.774647
  0
VERTEX
  8
L3
  5
28
 10
0.515
 20
-0.785
  0
VERTEX
  8
L3
  5
29
 10
0.513637
 20
-0.795353
  0
VERTEX
  8
L3
  5
2A
 10
0.509641
 20
-0.805
  0
VERTEX
  8
L3
  5
2B
 10
0.503284
 20
-0.813284
  0
VERTEX
  8
L3
  5
2C
 10
0.495
 20
-0.819641
  0
VERTEX
  8
L3
  5
2D
 10
0.485353
 20
-0.823637
  0
VERTEX
  8
L3
  5
2E
 10
0.475
 20
-0.825
  0
VERTEX
  8
L3
  5
2F
 10
0.464647
 20
-0.823637
  0
VERTEX
  8
L3
  5
30
 10
0.455
 20
-0.819641
  0
VERTEX
  8
L3
  5
31
 10
0.446716
 20
-0.813284
  0
VERTEX
  8
L3
  5
32
 10
0.440359
 20
-0.805
  0
VERTEX
  8
L3
  5
33
 10
0.436363
 20
-0.795353
  0
SEQEND
  8
L3
  5
34
  0
POLYLINE
  8
L3
  5
35
 66
1
 10
0.0
 20
0.0
 30
0.0
 70
1
  0
VERTEX
  8
L3
  5
36
 10
-0.55
 20
0.757161
  0
VERTEX
  8
L3
  5
37
 10
-0.554611
 20
0.777125
  0
VERTEX
  8
L3
  5
38
 10
-0.554001
 20
0.797606
  0
VERTEX
  8
L3
  5
39
 10
-0.548207
 20
0.81726
  0
VERTEX
  8
L3
  5
3A
 10
-0.537611
 20
0.834798
  0
VERTEX
  8
L3
  5
3B
 10
-0.522909
 20
0.849069
  0
VERTEX
  8
L3
  5
3C
 10
-0.505063
 20
0.859137
  0
VERTEX
  8
L3
  5
3D
 10
-0.485245
 20
0.864341
  0
VERTEX
  8
L3
  5
3E
 10
-0.464755
 20
0.864341
  0
VERTEX
  8
L3
  5
3F
 10
-0.444937
 20
0.859137
  0
VERTEX
  8
L3
  5
40
 10
-0.427091
 20
0.849069
  0
VERTEX
  8
L3
  5
41
 10
-0.412389
 20
0.834798
  0
VERTEX
  8
L3
  5
42
 10
-0.401793
 20
0.81726
  0
VERTEX
  8
L3
  5
43
 10
-0.395999
 20
0.797606
  0
VERTEX
  8
L3
  5
44
 10
-0.395389
 20
0.777125
  0
VERTEX
  8
L3
  5
45
 10
-0.4
 20
0.757161
  0
VERTEX
  8
L3
  5
46
 10
-0.4
 20
0.325
  0
VERTEX
  8
L3
  5
47
 10
-0.397444
 20
0.305589
  0
VERTEX
  8
L3
  5
48
 10
-0.389952
 20
0.2875
  0
VERTEX
  8
L3
  5
49
 10
-0.378033
 20
0.271967
  0
VERTEX
  8
L3
  5
4A
 10
-0.3625
 20
0.260048
  0
VERTEX
  8
L3
  5
4B
 10
-0.344411
 20
0.252556
  0
VERTEX
  8
L3
  5
4C
 10
-0.325
 20
0.25
  0
VERTEX
  8
L3
  5
4D
 10
0.325
 20
0.25
  0
VERTEX
  8
L3
  5
4E
 10
0.344411
 20
0.252556
  0
VERTEX
  8
L3
  5
4F
 10
0.3625
 20
0.260048
  0
VERTEX
  8
L3
  5
50
 10
0.378033
 20
0.271967
  0
VERTEX
  8
L3
  5
51
 10
0.389952
 20
0.2875
  0
VERTEX
  8
L3
  5
52
 10
0.397444
 20
0.305589
  0
VERTEX
  8
L3
  5
53
 10
0.4
 20
0.325
  0
VERTEX
  8
L3
  5
54
 10
0.4
 20
0.757161
  0
VERTEX
  8
L3
  5
55
 10
0.395389
 20
0.777125
  0
VERTEX
  8
L3
  5
56
 10
0.395999
 20
0.797606
  0
VERTEX
  8
L3
  5
57
 10
0.401793
 20
0.81726
  0
VERTEX
  8
L3
  5
58
 10
0.412389
 20
0.834798
  0
VERTEX
  8
L3
  5
59
 10
0.427091
 20
0.849069
  0
VERTEX
  8
L3
  5
5A
 10
0.444937
 20
0.859137
  0
VERTEX
  8
L3
  5
5B
 10
0.464755
 20
0.864341
  0
VERTEX
  8
L3
  5
5C
 10
0.485245
 20
0.864341
  0
VERTEX
  8
L3
  5
5D
 10
0.505063
 20
0.859137
  0
VERTEX
  8
L3
  5
5E
 10
0.522909
 20
0.849069
  0
VERTEX
  8
L3
  5
5F
 10
0.537611
 20
0.834798
  0
VERTEX
  8
L3
  5
60
 10
0.548207
 20
0.81726
  0
VERTEX
  8
L3
  5
61
 10
0.554001
 20
0.797606
  0
VERTEX
  8
L3
  5
62
 10
0.554611
 20
0.777125
  0
VERTEX
  8
L3
  5
63
 10
0.55
 20
0.757161
  0
VERTEX
  8
L3
  5
64
 10
0.55
 20
0.325
  0
VERTEX
  8
L3
  5
65
 10
0.542333
 20
0.266766
  0
VERTEX
  8
L3
  5
66
 10
0.519856
 20
0.2125
  0
VERTEX
  8
L3
  5
67
 10
0.484099
 20
0.165901
  0
VERTEX
  8
L3
  5
68
 10
0.4375
 20
0.130144
  0
VERTEX
  8
L3
  5
69
 10
0.383234
 20
0.107667
  0
VERTEX
  8
L3
  5
6A
 10
0.325
 20
0.1
  0
VERTEX
  8
L3
  5
6B
 10
-0.325
 20
0.1
  0
VERTEX
  8
L3
  5
6C
 10
-0.383234
 20
0.107667
  0
VERTEX
  8
L3
  5
6D
 10
-0.4375
 20
0.130144
  0
VERTEX
  8
L3
  5
6E
 10
-0.484099
 20
0.165901
  0
VERTEX
  8
L3
  5
6F
 10
-0.519856
 20
0.2125
  0
VERTEX
  8
L3
  5
70
 10
-0.542333
 20
0.266766
  0
VERTEX
  8
L3
  5
71
 10
-0.55
 20
0.325
  0
SEQEND
  8
L3
  5
72
  0
POLYLINE
  8
L3
  5
73
 66
1
 10
0.0
 20
0.0
 30
0.0
 70
1
  0
VERTEX
  8
L3
  5
74
 10
-0.4
 20
-0.757161
  0
VERTEX
  8
L3
  5
75
 10
-0.395389
 20
-0.777125
  0
VERTEX
  8
L3
  5
76
 10
-0.395999
 20
-0.797606
  0
VERTEX
  8
L3
  5
77
 10
-0.401793
 20
-0.81726
  0
VERTEX
  8
L3
  5
78
 10
-0.412389
 20
-0.834798
  0
VERTEX
  8
L3
  5
79
 10
-0.427091
 20
-0.849069
  0
VERTEX
  8
L3
  5
7A
 10
-0.444937
 20
-0.859137
  0
VERTEX
  8
L3
  5
7B
 10
-0.464755
 20
-0.864341
  0
VERTEX
  8
L3
  5
7C
 10
-0.485245
 20
-0.864341
  0
VERTEX
  8
L3
  5
7D
 10
-0.505063
 20
-0.859137
  0
VERTEX
  8
L3
  5
7E
 10
-0.522909
 20
-0.849069
  0
VERTEX
  8
L3
  5
7F
 10
-0.537611
 20
-0.834798
  0
VERTEX
  8
L3
  5
80
 10
-0.548207
 20
-0.81726
  0
VERTEX
  8
L3
  5
81
 10
-0.554001
 20
-0.797606
  0
VERTEX
  8
L3
  5
82
 10
-0.554611
 20
-0.777125
  0
VERTEX
  8
L3
  5
83
 10
-0.55
 20
-0.757161
  0
VERTEX
  8
L3
  5
84
 10
-0.55
 20
-0.325
  0
VERTEX
  8
L3
  5
85
 10
-0.542333
 20
-0.266766
  0
VERTEX
  8
L3
  5
86
 10
-0.519856
 20
-0.2125
  0
VERTEX
  8
L3
  5
87
 10
-0.484099
 20
-0.165901
  0
VERTEX
  8
L3
  5
88
 10
-0.4375
 20
-0.130144
  0
VERTEX
  8
L3
  5
89
 10
-0.383234
 20
-0.107667
  0
VERTEX
  8
L3
  5
8A
 10
-0.325
 20
-0.1
  0
VERTEX
  8
L3
  5
8B
 10
0.325
 20
-0.1
  0
VERTEX
  8
L3
  5
8C
 10
0.383234
 20
-0.107667
  0
VERTEX
  8
L3
  5
8D
 10
0.4375
 20
-0.130144
  0
VERTEX
  8
L3
  5
8E
 10
0.484099
 20
-0.165901
  0
VERTEX
  8
L3
  5
8F
 10
0.519856
 20
-0.2125
  0
VERTEX
  8
L3
  5
90
 10
0.542333
 20
-0.266766
  0
VERTEX
  8
L3
  5
91
 10
0.55
 20
-0.325
  0
VERTEX
  8
L3
  5
92
 10
0.55
 20
-0.757161
  0
VERTEX
  8
L3
  5
93
 10
0.554611
 20
-0.777125
  0
VERTEX
  8
L3
  5
94
 10
0.554001
 20
-0.797606
  0
VERTEX
  8
L3
  5
95
 10
0.548207
 20
-0.81726
  0
VERTEX
  8
L3
  5
96
 10
0.537611
 20
-0.834798
  0
VERTEX
  8
L3
  5
97
 10
0.522909
 20
-0.849069
  0
VERTEX
  8
L3
  5
98
 10
0.505063
 20
-0.859137
  0
VERTEX
  8
L3
  5
99
 10
0.485245
 20
-0.864341
  0
VERTEX
  8
L3
  5
9A
 10
0.464755
 20
-0.864341
  0
VERTEX
  8
L3
  5
9B
 10
0.444937
 20
-0.859137
  0
VERTEX
  8
L3
  5
9C
 10
0.427091
 20
-0.849069
  0
VERTEX
  8
L3
  5
9D
 10
0.412389
 20
-0.834798
  0
VERTEX
  8
L3
  5
9E
 10
0.401793
 20
-0.81726
  0
VERTEX
  8
L3
  5
9F
 10
0.395999
 20
-0.797606
  0
VERTEX
  8
L3
  5
A0
 10
0.395389
 20
-0.777125
  0
VERTEX
  8
L3
  5
A1
 10
0.4
 20
-0.757161
  0
VERTEX
  8
L3
  5
A2
 10
0.4
 20
-0.325
  0
VERTEX
  8
L3
  5
A3
 10
0.397444
 20
-0.305589
  0
VERTEX
  8
L3
  5
A4
 10
0.389952
 20
-0.2875
  0
VERTEX
  8
L3
  5
A5
 10
0.378033
 20
-0.271967
  0
VERTEX
  8
L3
  5
A6
 10
0.3625
 20
-0.260048
  0
VERTEX
  8
L3
  5
A7
 10
0.344411
 20
-0.252556
  0
VERTEX
  8
L3
  5
A8
 10
0.325
 20
-0.25
  0
VERTEX
  8
L3
  5
A9
 10
-0.325
 20
-0.25
  0
VERTEX
  8
L3
  5
AA
 10
-0.344411
 20
-0.252556
  0
VERTEX
  8
L3
  5
AB
 10
-0.3625
 20
-0.260048
  0
VERTEX
  8
L3
  5
AC
 10
-0.378033
 20
-0.271967
  0
VERTEX
  8
L3
  5
AD
 10
-0.389952
 20
-0.2875
  0
VERTEX
  8
L3
  5
AE
 10
-0.397444
 20
-0.305589
  0
VERTEX
  8
L3
  5
AF
 10
-0.4
 20
-0.325
  0
SEQEND
  8
L3
  5
B0
  0
POLYLINE
  8
L3
  5
B1
 66
1
 10
0.0
 20
0.0
 30
0.0
 70
1
  0
VERTEX
  8
L3
  5
B2
 10
0.75
 20
-1.015
  0
VERTEX
  8
L3
  5
B3
 10
-0.75
 20
-1.015
  0
VERTEX
  8
L3
  5
B4
 10
-0.75
 20
1.015
  0
VERTEX
  8
L3
  5
B5
 10
0.75
 20
1.015
  0
SEQEND
  8
L3
  5
B6
  0
ENDSEC
  0
EOF
