  0
SECTION
  2
ENTITIES
  0
POLYLINE
  8
L4
  5
1
 66
1
 10
0.0
 20
0.0
 30
0.0
 70
1
  0
VERTEX
  8
L4
  5
2
 10
-0.459641
 20
0.15
  0
VERTEX
  8
L4
  5
3
 10
-0.465
 20
0.17
  0
VERTEX
  8
L4
  5
4
 10
-0.459641
 20
0.19
  0
VERTEX
  8
L4
  5
5
 10
-0.445
 20
0.204641
  0
VERTEX
  8
L4
  5
6
 10
-0.425
 20
0.21
  0
VERTEX
  8
L4
  5
7
 10
-0.405
 20
0.204641
  0
VERTEX
  8
L4
  5
8
 10
-0.390359
 20
0.19
  0
VERTEX
  8
L4
  5
9
 10
-0.385
 20
0.17
  0
VERTEX
  8
L4
  5
A
 10
-0.390359
 20
0.15
  0
VERTEX
  8
L4
  5
B
 10
-0.405
 20
0.135359
  0
VERTEX
  8
L4
  5
C
 10
-0.425
 20
0.13
  0
VERTEX
  8
L4
  5
D
 10
-0.445
 20
0.135359
  0
SEQEND
  8
L4
  5
E
  0
POLYLINE
  8
L4
  5
F
 66
1
 10
0.0
 20
0.0
 30
0.0
 70
1
  0
VERTEX
  8
L4
  5
10
 10
0.447161
 20
-0.71
  0
VERTEX
  8
L4
  5
11
 10
0.467125
 20
-0.705389
  0
VERTEX
  8
L4
  5
12
 10
0.487606
 20
-0.705999
  0
VERTEX
  8
L4
  5
13
 10
0.50726
 20
-0.711793
  0
VERTEX
  8
L4
  5
14
 10
0.524798
 20
-0.722389
  0
VERTEX
  8
L4
  5
15
 10
0.539069
 20
-0.737091
  0
VERTEX
  8
L4
  5
16
 10
0.549137
 20
-0.754937
  0
VERTEX
  8
L4
  5
17
 10
0.554341
 20
-0.774755
  0
VERTEX
  8
L4
  5
18
 10
0.554341
 20
-0.795245
  0
VERTEX
  8
L4
  5
19
 10
0.549137
 20
-0.815063
  0
VERTEX
  8
L4
  5
1A
 10
0.539069
 20
-0.832909
  0
VERTEX
  8
L4
  5
1B
 10
0.524798
 20
-0.847611
  0
VERTEX
  8
L4
  5
1C
 10
0.50726
 20
-0.858207
  0
VERTEX
  8
L4
  5
1D
 10
0.487606
 20
-0.864001
  0
VERTEX
  8
L4
  5
1E
 10
0.467125
 20
-0.864611
  0
VERTEX
  8
L4
  5
1F
 10
0.447161
 20
-0.86
  0
VERTEX
  8
L4
  5
20
 10
-0.325
 20
-0.86
  0
VERTEX
  8
L4
  5
21
 10
-0.383234
 20
-0.852333
  0
VERTEX
  8
L4
  5
22
 10
-0.4375
 20
-0.829856
  0
VERTEX
  8
L4
  5
23
 10
-0.484099
 20
-0.794099
  0
VERTEX
  8
L4
  5
24
 10
-0.519856
 20
-0.7475
  0
VERTEX
  8
L4
  5
25
 10
-0.542333
 20
-0.693234
  0
VERTEX
  8
L4
  5
26
 10
-0.55
 20
-0.635
  0
VERTEX
  8
L4
  5
27
 10
-0.55
 20
0.635
  0
VERTEX
  8
L4
  5
28
 10
-0.542333
 20
0.693234
  0
VERTEX
  8
L4
  5
29
 10
-0.519856
 20
0.7475
  0
VERTEX
  8
L4
  5
2A
 10
-0.484099
 20
0.794099
  0
VERTEX
  8
L4
  5
2B
 10
-0.4375
 20
0.829856
  0
VERTEX
  8
L4
  5
2C
 10
-0.383234
 20
0.852333
  0
VERTEX
  8
L4
  5
2D
 10
-0.325
 20
0.86
  0
VERTEX
  8
L4
  5
2E
 10
0.447161
 20
0.86
  0
VERTEX
  8
L4
  5
2F
 10
0.467125
 20
0.864611
  0
VERTEX
  8
L4
  5
30
 10
0.487606
 20
0.864001
  0
VERTEX
  8
L4
  5
31
 10
0.50726
 20
0.858207
  0
VERTEX
  8
L4
  5
32
 10
0.524798
 20
0.847611
  0
VERTEX
  8
L4
  5
33
 10
0.539069
 20
0.832909
  0
VERTEX
  8
L4
  5
34
 10
0.549137
 20
0.815063
  0
VERTEX
  8
L4
  5
35
 10
0.554341
 20
0.795245
  0
VERTEX
  8
L4
  5
36
 10
0.554341
 20
0.774755
  0
VERTEX
  8
L4
  5
37
 10
0.549137
 20
0.754937
  0
VERTEX
  8
L4
  5
38
 10
0.539069
 20
0.737091
  0
VERTEX
  8
L4
  5
39
 10
0.524798
 20
0.722389
  0
VERTEX
  8
L4
  5
3A
 10
0.50726
 20
0.711793
  0
VERTEX
  8
L4
  5
3B
 10
0.487606
 20
0.705999
  0
VERTEX
  8
L4
  5
3C
 10
0.467125
 20
0.705389
  0
VERTEX
  8
L4
  5
3D
 10
0.447161
 20
0.71
  0
VERTEX
  8
L4
  5
3E
 10
-0.325
 20
0.71
  0
VERTEX
  8
L4
  5
3F
 10
-0.344411
 20
0.707444
  0
VERTEX
  8
L4
  5
40
 10
-0.3625
 20
0.699952
  0
VERTEX
  8
L4
  5
41
 10
-0.378033
 20
0.688033
  0
VERTEX
  8
L4
  5
42
 10
-0.389952
 20
0.6725
  0
VERTEX
  8
L4
  5
43
 10
-0.397444
 20
0.654411
  0
VERTEX
  8
L4
  5
44
 10
-0.4
 20
0.635
  0
VERTEX
  8
L4
  5
45
 10
-0.4
 20
0.243301
  0
VERTEX
  8
L4
  5
46
 10
-0.385
 20
0.239282
  0
VERTEX
  8
L4
  5
47
 10
-0.355718
 20
0.21
  0
VERTEX
  8
L4
  5
48
 10
-0.345
 20
0.17
  0
VERTEX
  8
L4
  5
49
 10
-0.355718
 20
0.13
  0
VERTEX
  8
L4
  5
4A
 10
-0.385
 20
0.100718
  0
VERTEX
  8
L4
  5
4B
 10
-0.4
 20
0.0966987
  0
VERTEX
  8
L4
  5
4C
 10
-0.4
 20
-0.635
  0
VERTEX
  8
L4
  5
4D
 10
-0.397444
 20
-0.654411
  0
VERTEX
  8
L4
  5
4E
 10
-0.389952
 20
-0.6725
  0
VERTEX
  8
L4
  5
4F
 10
-0.378033
 20
-0.688033
  0
VERTEX
  8
L4
  5
50
 10
-0.3625
 20
-0.699952
  0
VERTEX
  8
L4
  5
51
 10
-0.344411
 20
-0.707444
  0
VERTEX
  8
L4
  5
52
 10
-0.325
 20
-0.71
  0
SEQEND
  8
L4
  5
53
  0
POLYLINE
  8
L4
  5
54
 66
1
 10
0.0
 20
0.0
 30
0.0
 70
1
  0
VERTEX
  8
L4
  5
55
 10
0.75
 20
-1.015
  0
VERTEX
  8
L4
  5
56
 10
-0.75
 20
-1.015
  0
VERTEX
  8
L4
  5
57
 10
-0.75
 20
1.015
  0
VERTEX
  8
L4
  5
58
 10
0.75
 20
1.015
  0
SEQEND
  8
L4
  5
59
  0
ENDSEC
  0
EOF
