0
SECTION
2
HEADER
9
$ACADVER
1
AC1006
9
$INSBASE
10
0.0
20
0.0
30
0.0
9
$EXTMIN
10
0.0
20
0.0
9
$EXTMAX
10
0.0
20
0.0
0
ENDSEC
0
SECTION
2
TABLES
0
TABLE
2
LTYPE
70
1
0
LTYPE
2
CONTINUOUS
70
64
3
Solid line
72
65
73
0
40
0.0
0
ENDTAB
0
TABLE
2
LAYER
70
17
0
LAYER
2
0
70
0
62
255
6
continuous
0
LAYER
2
Outline
70
0
62
1
6
continuous
0
LAYER
2
C1
70
0
62
77
6
continuous
0
LAYER
2
V4
70
0
62
20
6
continuous
0
LAYER
2
C2
70
0
62
60
6
continuous
0
LAYER
2
V5
70
0
62
194
6
continuous
0
LAYER
2
C3
70
0
62
76
6
continuous
0
LAYER
2
G
70
0
62
92
6
continuous
0
LAYER
2
H1
70
0
62
52
6
continuous
0
LAYER
2
L1
70
0
62
247
6
continuous
0
LAYER
2
V1
70
0
62
146
6
continuous
0
LAYER
2
L2
70
0
62
81
6
continuous
0
LAYER
2
V2
70
0
62
81
6
continuous
0
LAYER
2
L3
70
0
62
90
6
continuous
0
LAYER
2
V3
70
0
62
133
6
continuous
0
LAYER
2
L4
70
0
62
175
6
continuous
0
LAYER
2
Mark
70
0
62
5
6
continuous
0
ENDTAB
0
TABLE
2
STYLE
70
1
0
STYLE
2
STANDARD
70
0
40
0
41
1
50
0
71
0
42
1
3
ARIAL.TTF
4

0
ENDTAB
0
TABLE
2
VIEW
70
0
0
ENDTAB
0
ENDSEC
0
SECTION
2
BLOCKS
0
ENDSEC
0
SECTION
2
ENTITIES
0
POLYLINE
8
Outline
66
1
70
1
0
VERTEX
8
Outline
10
0.75
20
1.015
0
VERTEX
8
Outline
10
0.75
20
-1.015
0
VERTEX
8
Outline
10
-0.75
20
-1.015
0
VERTEX
8
Outline
10
-0.75
20
1.015
0
SEQEND
0
POLYLINE
8
Outline
66
1
70
1
0
VERTEX
8
Outline
10
3.0
20
1.015
0
VERTEX
8
Outline
10
3.0
20
-1.015
0
VERTEX
8
Outline
10
1.5
20
-1.015
0
VERTEX
8
Outline
10
1.5
20
1.015
0
SEQEND
0
POLYLINE
8
Outline
66
1
70
1
0
VERTEX
8
Outline
10
5.25
20
1.015
0
VERTEX
8
Outline
10
5.25
20
-1.015
0
VERTEX
8
Outline
10
3.75
20
-1.015
0
VERTEX
8
Outline
10
3.75
20
1.015
0
SEQEND
0
POLYLINE
8
Outline
66
1
70
1
0
VERTEX
8
Outline
10
7.5
20
1.015
0
VERTEX
8
Outline
10
7.5
20
-1.015
0
VERTEX
8
Outline
10
6.0
20
-1.015
0
VERTEX
8
Outline
10
6.0
20
1.015
0
SEQEND
0
POLYLINE
8
Outline
66
1
70
1
0
VERTEX
8
Outline
10
9.75
20
1.015
0
VERTEX
8
Outline
10
9.75
20
-1.015
0
VERTEX
8
Outline
10
8.25
20
-1.015
0
VERTEX
8
Outline
10
8.25
20
1.015
0
SEQEND
0
POLYLINE
8
Outline
66
1
70
1
0
VERTEX
8
Outline
10
12.0
20
1.015
0
VERTEX
8
Outline
10
12.0
20
-1.015
0
VERTEX
8
Outline
10
10.5
20
-1.015
0
VERTEX
8
Outline
10
10.5
20
1.015
0
SEQEND
0
POLYLINE
8
Outline
66
1
70
1
0
VERTEX
8
Outline
10
14.25
20
1.015
0
VERTEX
8
Outline
10
14.25
20
-1.015
0
VERTEX
8
Outline
10
12.75
20
-1.015
0
VERTEX
8
Outline
10
12.75
20
1.015
0
SEQEND
0
POLYLINE
8
Outline
66
1
70
1
0
VERTEX
8
Outline
10
16.5
20
1.015
0
VERTEX
8
Outline
10
16.5
20
-1.015
0
VERTEX
8
Outline
10
15.0
20
-1.015
0
VERTEX
8
Outline
10
15.0
20
1.015
0
SEQEND
0
POLYLINE
8
Outline
66
1
70
1
0
VERTEX
8
Outline
10
18.75
20
1.015
0
VERTEX
8
Outline
10
18.75
20
-1.015
0
VERTEX
8
Outline
10
17.25
20
-1.015
0
VERTEX
8
Outline
10
17.25
20
1.015
0
SEQEND
0
POLYLINE
8
Outline
66
1
70
1
0
VERTEX
8
Outline
10
21.0
20
1.015
0
VERTEX
8
Outline
10
21.0
20
-1.015
0
VERTEX
8
Outline
10
19.5
20
-1.015
0
VERTEX
8
Outline
10
19.5
20
1.015
0
SEQEND
0
POLYLINE
8
C1
66
1
70
1
0
VERTEX
8
C1
10
0.05
20
0.16
0
VERTEX
8
C1
10
0.0241181
20
0.163407
0
VERTEX
8
C1
10
4.16334e-17
20
0.173397
0
VERTEX
8
C1
10
-0.0207107
20
0.189289
0
VERTEX
8
C1
10
-0.0366025
20
0.21
0
VERTEX
8
C1
10
-0.0465926
20
0.234118
0
VERTEX
8
C1
10
-0.05
20
0.26
0
VERTEX
8
C1
10
-0.05
20
0.43
0
VERTEX
8
C1
10
-0.0465926
20
0.455882
0
VERTEX
8
C1
10
-0.0366025
20
0.48
0
VERTEX
8
C1
10
-0.0207107
20
0.500711
0
VERTEX
8
C1
10
-3.46945e-17
20
0.516603
0
VERTEX
8
C1
10
0.0241181
20
0.526593
0
VERTEX
8
C1
10
0.05
20
0.53
0
VERTEX
8
C1
10
0.15
20
0.53
0
VERTEX
8
C1
10
0.162941
20
0.531704
0
VERTEX
8
C1
10
0.175
20
0.536699
0
VERTEX
8
C1
10
0.185355
20
0.544645
0
VERTEX
8
C1
10
0.193301
20
0.555
0
VERTEX
8
C1
10
0.198296
20
0.567059
0
VERTEX
8
C1
10
0.2
20
0.58
0
VERTEX
8
C1
10
0.2
20
0.63
0
VERTEX
8
C1
10
0.201704
20
0.642941
0
VERTEX
8
C1
10
0.206699
20
0.655
0
VERTEX
8
C1
10
0.214645
20
0.665355
0
VERTEX
8
C1
10
0.225
20
0.673301
0
VERTEX
8
C1
10
0.237059
20
0.678296
0
VERTEX
8
C1
10
0.25
20
0.68
0
VERTEX
8
C1
10
0.5
20
0.68
0
VERTEX
8
C1
10
0.512941
20
0.681704
0
VERTEX
8
C1
10
0.525
20
0.686699
0
VERTEX
8
C1
10
0.535355
20
0.694645
0
VERTEX
8
C1
10
0.543301
20
0.705
0
VERTEX
8
C1
10
0.548296
20
0.717059
0
VERTEX
8
C1
10
0.55
20
0.73
0
VERTEX
8
C1
10
0.55
20
0.835
0
VERTEX
8
C1
10
0.551704
20
0.847941
0
VERTEX
8
C1
10
0.556699
20
0.86
0
VERTEX
8
C1
10
0.564645
20
0.870355
0
VERTEX
8
C1
10
0.575
20
0.878301
0
VERTEX
8
C1
10
0.587059
20
0.883296
0
VERTEX
8
C1
10
0.6
20
0.885
0
VERTEX
8
C1
10
0.75
20
0.885
0
VERTEX
8
C1
10
0.75
20
0.555
0
VERTEX
8
C1
10
0.56
20
0.555
0
VERTEX
8
C1
10
0.557412
20
0.554659
0
VERTEX
8
C1
10
0.555
20
0.55366
0
VERTEX
8
C1
10
0.552929
20
0.552071
0
VERTEX
8
C1
10
0.55134
20
0.55
0
VERTEX
8
C1
10
0.550341
20
0.547588
0
VERTEX
8
C1
10
0.55
20
0.545
0
VERTEX
8
C1
10
0.55
20
0.54
0
VERTEX
8
C1
10
0.549659
20
0.537412
0
VERTEX
8
C1
10
0.54866
20
0.535
0
VERTEX
8
C1
10
0.547071
20
0.532929
0
VERTEX
8
C1
10
0.545
20
0.53134
0
VERTEX
8
C1
10
0.542588
20
0.530341
0
VERTEX
8
C1
10
0.54
20
0.53
0
VERTEX
8
C1
10
0.4
20
0.53
0
VERTEX
8
C1
10
0.387059
20
0.528296
0
VERTEX
8
C1
10
0.375
20
0.523301
0
VERTEX
8
C1
10
0.364645
20
0.515355
0
VERTEX
8
C1
10
0.356699
20
0.505
0
VERTEX
8
C1
10
0.351704
20
0.492941
0
VERTEX
8
C1
10
0.35
20
0.48
0
VERTEX
8
C1
10
0.35
20
0.26
0
VERTEX
8
C1
10
0.346593
20
0.234118
0
VERTEX
8
C1
10
0.336603
20
0.21
0
VERTEX
8
C1
10
0.320711
20
0.189289
0
VERTEX
8
C1
10
0.3
20
0.173397
0
VERTEX
8
C1
10
0.275882
20
0.163407
0
VERTEX
8
C1
10
0.25
20
0.16
0
SEQEND
0
POLYLINE
8
C1
66
1
70
1
0
VERTEX
8
C1
10
-0.345
20
0.17
0
VERTEX
8
C1
10
-0.355718
20
0.13
0
VERTEX
8
C1
10
-0.385
20
0.100718
0
VERTEX
8
C1
10
-0.425
20
0.09
0
VERTEX
8
C1
10
-0.465
20
0.100718
0
VERTEX
8
C1
10
-0.494282
20
0.13
0
VERTEX
8
C1
10
-0.505
20
0.17
0
VERTEX
8
C1
10
-0.494282
20
0.21
0
VERTEX
8
C1
10
-0.465
20
0.239282
0
VERTEX
8
C1
10
-0.425
20
0.25
0
VERTEX
8
C1
10
-0.385
20
0.239282
0
VERTEX
8
C1
10
-0.355718
20
0.21
0
SEQEND
0
POLYLINE
8
C1
66
1
70
1
0
VERTEX
8
C1
10
-0.55
20
-0.232
0
VERTEX
8
C1
10
-0.546593
20
-0.206118
0
VERTEX
8
C1
10
-0.536603
20
-0.182
0
VERTEX
8
C1
10
-0.520711
20
-0.161289
0
VERTEX
8
C1
10
-0.5
20
-0.145397
0
VERTEX
8
C1
10
-0.475882
20
-0.135407
0
VERTEX
8
C1
10
-0.45
20
-0.132
0
VERTEX
8
C1
10
0.45
20
-0.132
0
VERTEX
8
C1
10
0.475882
20
-0.135407
0
VERTEX
8
C1
10
0.5
20
-0.145397
0
VERTEX
8
C1
10
0.520711
20
-0.161289
0
VERTEX
8
C1
10
0.536603
20
-0.182
0
VERTEX
8
C1
10
0.546593
20
-0.206118
0
VERTEX
8
C1
10
0.55
20
-0.232
0
VERTEX
8
C1
10
0.55
20
-0.505
0
VERTEX
8
C1
10
0.551704
20
-0.517941
0
VERTEX
8
C1
10
0.556699
20
-0.53
0
VERTEX
8
C1
10
0.564645
20
-0.540355
0
VERTEX
8
C1
10
0.575
20
-0.548301
0
VERTEX
8
C1
10
0.587059
20
-0.553296
0
VERTEX
8
C1
10
0.6
20
-0.555
0
VERTEX
8
C1
10
0.75
20
-0.555
0
VERTEX
8
C1
10
0.75
20
-0.885
0
VERTEX
8
C1
10
0.6
20
-0.885
0
VERTEX
8
C1
10
0.587059
20
-0.883296
0
VERTEX
8
C1
10
0.575
20
-0.878301
0
VERTEX
8
C1
10
0.564645
20
-0.870355
0
VERTEX
8
C1
10
0.556699
20
-0.86
0
VERTEX
8
C1
10
0.551704
20
-0.847941
0
VERTEX
8
C1
10
0.55
20
-0.835
0
VERTEX
8
C1
10
0.55
20
-0.76
0
VERTEX
8
C1
10
0.548296
20
-0.747059
0
VERTEX
8
C1
10
0.543301
20
-0.735
0
VERTEX
8
C1
10
0.535355
20
-0.724645
0
VERTEX
8
C1
10
0.525
20
-0.716699
0
VERTEX
8
C1
10
0.512941
20
-0.711704
0
VERTEX
8
C1
10
0.5
20
-0.71
0
VERTEX
8
C1
10
0.487059
20
-0.708296
0
VERTEX
8
C1
10
0.475
20
-0.703301
0
VERTEX
8
C1
10
0.464645
20
-0.695355
0
VERTEX
8
C1
10
0.456699
20
-0.685
0
VERTEX
8
C1
10
0.451704
20
-0.672941
0
VERTEX
8
C1
10
0.45
20
-0.66
0
VERTEX
8
C1
10
0.45
20
-0.61
0
VERTEX
8
C1
10
0.448296
20
-0.597059
0
VERTEX
8
C1
10
0.443301
20
-0.585
0
VERTEX
8
C1
10
0.435355
20
-0.574645
0
VERTEX
8
C1
10
0.425
20
-0.566699
0
VERTEX
8
C1
10
0.412941
20
-0.561704
0
VERTEX
8
C1
10
0.4
20
-0.56
0
VERTEX
8
C1
10
-0.45
20
-0.56
0
VERTEX
8
C1
10
-0.475882
20
-0.556593
0
VERTEX
8
C1
10
-0.5
20
-0.546603
0
VERTEX
8
C1
10
-0.520711
20
-0.530711
0
VERTEX
8
C1
10
-0.536603
20
-0.51
0
VERTEX
8
C1
10
-0.546593
20
-0.485882
0
VERTEX
8
C1
10
-0.55
20
-0.46
0
SEQEND
0
POLYLINE
8
V4
66
1
70
1
0
VERTEX
8
V4
10
-0.465
20
0.17
0
VERTEX
8
V4
10
-0.459641
20
0.19
0
VERTEX
8
V4
10
-0.445
20
0.204641
0
VERTEX
8
V4
10
-0.425
20
0.21
0
VERTEX
8
V4
10
-0.405
20
0.204641
0
VERTEX
8
V4
10
-0.390359
20
0.19
0
VERTEX
8
V4
10
-0.385
20
0.17
0
VERTEX
8
V4
10
-0.390359
20
0.15
0
VERTEX
8
V4
10
-0.405
20
0.135359
0
VERTEX
8
V4
10
-0.425
20
0.13
0
VERTEX
8
V4
10
-0.445
20
0.135359
0
VERTEX
8
V4
10
-0.459641
20
0.15
0
SEQEND
0
POLYLINE
8
V4
66
1
70
1
0
VERTEX
8
V4
10
8.535
20
0.17
0
VERTEX
8
V4
10
8.540359
20
0.19
0
VERTEX
8
V4
10
8.555
20
0.204641
0
VERTEX
8
V4
10
8.575
20
0.21
0
VERTEX
8
V4
10
8.595
20
0.204641
0
VERTEX
8
V4
10
8.609641
20
0.19
0
VERTEX
8
V4
10
8.615
20
0.17
0
VERTEX
8
V4
10
8.609641
20
0.15
0
VERTEX
8
V4
10
8.595
20
0.135359
0
VERTEX
8
V4
10
8.575
20
0.13
0
VERTEX
8
V4
10
8.555
20
0.135359
0
VERTEX
8
V4
10
8.540359
20
0.15
0
SEQEND
0
POLYLINE
8
V4
66
1
70
1
0
VERTEX
8
V4
10
17.535
20
0.17
0
VERTEX
8
V4
10
17.540359
20
0.19
0
VERTEX
8
V4
10
17.555
20
0.204641
0
VERTEX
8
V4
10
17.575
20
0.21
0
VERTEX
8
V4
10
17.595
20
0.204641
0
VERTEX
8
V4
10
17.609641
20
0.19
0
VERTEX
8
V4
10
17.615
20
0.17
0
VERTEX
8
V4
10
17.609641
20
0.15
0
VERTEX
8
V4
10
17.595
20
0.135359
0
VERTEX
8
V4
10
17.575
20
0.13
0
VERTEX
8
V4
10
17.555
20
0.135359
0
VERTEX
8
V4
10
17.540359
20
0.15
0
SEQEND
0
POLYLINE
8
C2
66
1
70
1
0
VERTEX
8
C2
10
2.6
20
0.6600000000000001
0
VERTEX
8
C2
10
2.625882
20
0.656593
0
VERTEX
8
C2
10
2.65
20
0.6466029999999999
0
VERTEX
8
C2
10
2.670711
20
0.630711
0
VERTEX
8
C2
10
2.686603
20
0.61
0
VERTEX
8
C2
10
2.696593
20
0.585882
0
VERTEX
8
C2
10
2.7
20
0.56
0
VERTEX
8
C2
10
2.7
20
-0.56
0
VERTEX
8
C2
10
2.696593
20
-0.585882
0
VERTEX
8
C2
10
2.686603
20
-0.61
0
VERTEX
8
C2
10
2.670711
20
-0.630711
0
VERTEX
8
C2
10
2.65
20
-0.6466029999999999
0
VERTEX
8
C2
10
2.625882
20
-0.656593
0
VERTEX
8
C2
10
2.6
20
-0.6600000000000001
0
VERTEX
8
C2
10
1.9
20
-0.6600000000000001
0
VERTEX
8
C2
10
1.874118
20
-0.656593
0
VERTEX
8
C2
10
1.85
20
-0.6466029999999999
0
VERTEX
8
C2
10
1.829289
20
-0.630711
0
VERTEX
8
C2
10
1.813397
20
-0.61
0
VERTEX
8
C2
10
1.803407
20
-0.585882
0
VERTEX
8
C2
10
1.8
20
-0.56
0
VERTEX
8
C2
10
1.8
20
0.0966987
0
VERTEX
8
C2
10
1.785
20
0.100718
0
VERTEX
8
C2
10
1.755718
20
0.13
0
VERTEX
8
C2
10
1.745
20
0.17
0
VERTEX
8
C2
10
1.755718
20
0.21
0
VERTEX
8
C2
10
1.785
20
0.239282
0
VERTEX
8
C2
10
1.8
20
0.243301
0
VERTEX
8
C2
10
1.8
20
0.56
0
VERTEX
8
C2
10
1.803407
20
0.585882
0
VERTEX
8
C2
10
1.813397
20
0.61
0
VERTEX
8
C2
10
1.829289
20
0.630711
0
VERTEX
8
C2
10
1.85
20
0.6466029999999999
0
VERTEX
8
C2
10
1.874118
20
0.656593
0
VERTEX
8
C2
10
1.9
20
0.6600000000000001
0
SEQEND
0
POLYLINE
8
V5
66
1
70
1
0
VERTEX
8
V5
10
2.21
20
0.2
0
VERTEX
8
V5
10
2.215359
20
0.22
0
VERTEX
8
V5
10
2.23
20
0.234641
0
VERTEX
8
V5
10
2.25
20
0.24
0
VERTEX
8
V5
10
2.27
20
0.234641
0
VERTEX
8
V5
10
2.284641
20
0.22
0
VERTEX
8
V5
10
2.29
20
0.2
0
VERTEX
8
V5
10
2.284641
20
0.18
0
VERTEX
8
V5
10
2.27
20
0.165359
0
VERTEX
8
V5
10
2.25
20
0.16
0
VERTEX
8
V5
10
2.23
20
0.165359
0
VERTEX
8
V5
10
2.215359
20
0.18
0
SEQEND
0
POLYLINE
8
V5
66
1
70
1
0
VERTEX
8
V5
10
6.71
20
0.2
0
VERTEX
8
V5
10
6.715359
20
0.22
0
VERTEX
8
V5
10
6.73
20
0.234641
0
VERTEX
8
V5
10
6.75
20
0.24
0
VERTEX
8
V5
10
6.77
20
0.234641
0
VERTEX
8
V5
10
6.784641
20
0.22
0
VERTEX
8
V5
10
6.79
20
0.2
0
VERTEX
8
V5
10
6.784641
20
0.18
0
VERTEX
8
V5
10
6.77
20
0.165359
0
VERTEX
8
V5
10
6.75
20
0.16
0
VERTEX
8
V5
10
6.73
20
0.165359
0
VERTEX
8
V5
10
6.715359
20
0.18
0
SEQEND
0
POLYLINE
8
C3
66
1
70
1
0
VERTEX
8
C3
10
5.1
20
-0.885
0
VERTEX
8
C3
10
5.087059
20
-0.883296
0
VERTEX
8
C3
10
5.075
20
-0.878301
0
VERTEX
8
C3
10
5.064645
20
-0.870355
0
VERTEX
8
C3
10
5.056699
20
-0.86
0
VERTEX
8
C3
10
5.051704
20
-0.847941
0
VERTEX
8
C3
10
5.05
20
-0.835
0
VERTEX
8
C3
10
5.05
20
-0.705
0
VERTEX
8
C3
10
5.048296
20
-0.692059
0
VERTEX
8
C3
10
5.043301
20
-0.68
0
VERTEX
8
C3
10
5.035355
20
-0.669645
0
VERTEX
8
C3
10
5.025
20
-0.661699
0
VERTEX
8
C3
10
5.012941
20
-0.656704
0
VERTEX
8
C3
10
5.0
20
-0.655
0
VERTEX
8
C3
10
4.85
20
-0.655
0
VERTEX
8
C3
10
4.824562
20
-0.65171
0
VERTEX
8
C3
10
4.800797
20
-0.642058
0
VERTEX
8
C3
10
4.78027
20
-0.626678
0
VERTEX
8
C3
10
4.76433
20
-0.606582
0
VERTEX
8
C3
10
4.754027
20
-0.583092
0
VERTEX
8
C3
10
4.750038
20
-0.557754
0
VERTEX
8
C3
10
4.752626
20
-0.532235
0
VERTEX
8
C3
10
4.76162
20
-0.508213
0
VERTEX
8
C3
10
4.776429
20
-0.48727
0
VERTEX
8
C3
10
4.796079
20
-0.470783
0
VERTEX
8
C3
10
4.819276
20
-0.459837
0
VERTEX
8
C3
10
4.844494
20
-0.455152
0
VERTEX
8
C3
10
4.870075
20
-0.457036
0
VERTEX
8
C3
10
4.894335
20
-0.465365
0
VERTEX
8
C3
10
4.915678
20
-0.479592
0
VERTEX
8
C3
10
4.9327
20
-0.49878
0
VERTEX
8
C3
10
4.944281
20
-0.521667
0
VERTEX
8
C3
10
4.949764
20
-0.532653
0
VERTEX
8
C3
10
4.95776
20
-0.541971
0
VERTEX
8
C3
10
4.967785
20
-0.54906
0
VERTEX
8
C3
10
4.979236
20
-0.553492
0
VERTEX
8
C3
10
4.991421
20
-0.555
0
VERTEX
8
C3
10
5.25
20
-0.555
0
VERTEX
8
C3
10
5.25
20
-0.885
0
SEQEND
0
POLYLINE
8
C3
66
1
70
1
0
VERTEX
8
C3
10
4.85
20
0.2
0
VERTEX
8
C3
10
4.838074
20
0.109413
0
VERTEX
8
C3
10
4.803109
20
0.025
0
VERTEX
8
C3
10
4.747487
20
-0.0474874
0
VERTEX
8
C3
10
4.675
20
-0.103109
0
VERTEX
8
C3
10
4.5905867
20
-0.138074
0
VERTEX
8
C3
10
4.5
20
-0.15
0
VERTEX
8
C3
10
4.4094133
20
-0.138074
0
VERTEX
8
C3
10
4.325
20
-0.103109
0
VERTEX
8
C3
10
4.252513
20
-0.0474874
0
VERTEX
8
C3
10
4.196891
20
0.025
0
VERTEX
8
C3
10
4.161926
20
0.109413
0
VERTEX
8
C3
10
4.15
20
0.2
0
VERTEX
8
C3
10
4.161926
20
0.290587
0
VERTEX
8
C3
10
4.196891
20
0.375
0
VERTEX
8
C3
10
4.252513
20
0.447487
0
VERTEX
8
C3
10
4.325
20
0.503109
0
VERTEX
8
C3
10
4.4094133
20
0.538074
0
VERTEX
8
C3
10
4.5
20
0.55
0
VERTEX
8
C3
10
4.5905867
20
0.538074
0
VERTEX
8
C3
10
4.675
20
0.503109
0
VERTEX
8
C3
10
4.747487
20
0.447487
0
VERTEX
8
C3
10
4.803109
20
0.375
0
VERTEX
8
C3
10
4.838074
20
0.290587
0
SEQEND
0
POLYLINE
8
G
66
1
70
1
0
VERTEX
8
G
10
6.83
20
0.2
0
VERTEX
8
G
10
6.819282
20
0.16
0
VERTEX
8
G
10
6.79
20
0.130718
0
VERTEX
8
G
10
6.75
20
0.12
0
VERTEX
8
G
10
6.71
20
0.130718
0
VERTEX
8
G
10
6.680718
20
0.16
0
VERTEX
8
G
10
6.67
20
0.2
0
VERTEX
8
G
10
6.680718
20
0.24
0
VERTEX
8
G
10
6.71
20
0.269282
0
VERTEX
8
G
10
6.75
20
0.28
0
VERTEX
8
G
10
6.79
20
0.269282
0
VERTEX
8
G
10
6.819282
20
0.24
0
SEQEND
0
POLYLINE
8
G
66
1
70
1
0
VERTEX
8
G
10
6.940526
20
0.09
0
VERTEX
8
G
10
6.97
20
0.2
0
VERTEX
8
G
10
6.940526
20
0.31
0
VERTEX
8
G
10
6.86
20
0.390526
0
VERTEX
8
G
10
6.75
20
0.42
0
VERTEX
8
G
10
6.64
20
0.390526
0
VERTEX
8
G
10
6.559474
20
0.31
0
VERTEX
8
G
10
6.53
20
0.2
0
VERTEX
8
G
10
6.559474
20
0.09
0
VERTEX
8
G
10
6.64
20
0.00947441
0
VERTEX
8
G
10
6.75
20
-0.02
0
VERTEX
8
G
10
6.86
20
0.00947441
0
SEQEND
0
POLYLINE
8
G
66
1
70
1
0
VERTEX
8
G
10
6.15
20
-0.555
0
VERTEX
8
G
10
6.162941
20
-0.553296
0
VERTEX
8
G
10
6.175
20
-0.548301
0
VERTEX
8
G
10
6.185355
20
-0.540355
0
VERTEX
8
G
10
6.193301
20
-0.53
0
VERTEX
8
G
10
6.198296
20
-0.517941
0
VERTEX
8
G
10
6.2
20
-0.505
0
VERTEX
8
G
10
6.2
20
0.505
0
VERTEX
8
G
10
6.198296
20
0.517941
0
VERTEX
8
G
10
6.193301
20
0.53
0
VERTEX
8
G
10
6.185355
20
0.540355
0
VERTEX
8
G
10
6.175
20
0.548301
0
VERTEX
8
G
10
6.162941
20
0.553296
0
VERTEX
8
G
10
6.15
20
0.555
0
VERTEX
8
G
10
6.0
20
0.555
0
VERTEX
8
G
10
6.0
20
0.885
0
VERTEX
8
G
10
6.17
20
0.885
0
VERTEX
8
G
10
6.182941
20
0.883296
0
VERTEX
8
G
10
6.195
20
0.878301
0
VERTEX
8
G
10
6.205355
20
0.870355
0
VERTEX
8
G
10
6.2133009999999995
20
0.86
0
VERTEX
8
G
10
6.2182960000000005
20
0.847941
0
VERTEX
8
G
10
6.22
20
0.835
0
VERTEX
8
G
10
6.22
20
0.81
0
VERTEX
8
G
10
6.221704
20
0.797059
0
VERTEX
8
G
10
6.226699
20
0.785
0
VERTEX
8
G
10
6.234645
20
0.774645
0
VERTEX
8
G
10
6.245
20
0.766699
0
VERTEX
8
G
10
6.257059
20
0.761704
0
VERTEX
8
G
10
6.27
20
0.76
0
VERTEX
8
G
10
7.2
20
0.76
0
VERTEX
8
G
10
7.225882
20
0.756593
0
VERTEX
8
G
10
7.25
20
0.746603
0
VERTEX
8
G
10
7.270711
20
0.730711
0
VERTEX
8
G
10
7.286603
20
0.71
0
VERTEX
8
G
10
7.296593
20
0.685882
0
VERTEX
8
G
10
7.3
20
0.66
0
VERTEX
8
G
10
7.3
20
-0.66
0
VERTEX
8
G
10
7.296593
20
-0.685882
0
VERTEX
8
G
10
7.286603
20
-0.71
0
VERTEX
8
G
10
7.270711
20
-0.730711
0
VERTEX
8
G
10
7.25
20
-0.746603
0
VERTEX
8
G
10
7.225882
20
-0.756593
0
VERTEX
8
G
10
7.2
20
-0.76
0
VERTEX
8
G
10
6.27
20
-0.76
0
VERTEX
8
G
10
6.257059
20
-0.761704
0
VERTEX
8
G
10
6.245
20
-0.766699
0
VERTEX
8
G
10
6.234645
20
-0.774645
0
VERTEX
8
G
10
6.226699
20
-0.785
0
VERTEX
8
G
10
6.221704
20
-0.797059
0
VERTEX
8
G
10
6.22
20
-0.81
0
VERTEX
8
G
10
6.22
20
-0.835
0
VERTEX
8
G
10
6.2182960000000005
20
-0.847941
0
VERTEX
8
G
10
6.2133009999999995
20
-0.86
0
VERTEX
8
G
10
6.205355
20
-0.870355
0
VERTEX
8
G
10
6.195
20
-0.878301
0
VERTEX
8
G
10
6.182941
20
-0.883296
0
VERTEX
8
G
10
6.17
20
-0.885
0
VERTEX
8
G
10
6.0
20
-0.885
0
VERTEX
8
G
10
6.0
20
-0.555
0
SEQEND
0
POLYLINE
8
H1
66
1
70
1
0
VERTEX
8
H1
10
8.655
20
0.17
0
VERTEX
8
H1
10
8.644282
20
0.13
0
VERTEX
8
H1
10
8.615
20
0.100718
0
VERTEX
8
H1
10
8.575
20
0.09
0
VERTEX
8
H1
10
8.535
20
0.100718
0
VERTEX
8
H1
10
8.505718
20
0.13
0
VERTEX
8
H1
10
8.495
20
0.17
0
VERTEX
8
H1
10
8.505718
20
0.21
0
VERTEX
8
H1
10
8.535
20
0.239282
0
VERTEX
8
H1
10
8.575
20
0.25
0
VERTEX
8
H1
10
8.615
20
0.239282
0
VERTEX
8
H1
10
8.644282
20
0.21
0
SEQEND
0
POLYLINE
8
L1
66
1
70
1
0
VERTEX
8
L1
10
10.85
20
0.202839
0
VERTEX
8
L1
10
10.854611
20
0.182875
0
VERTEX
8
L1
10
10.854001
20
0.162394
0
VERTEX
8
L1
10
10.848207
20
0.14274
0
VERTEX
8
L1
10
10.837611
20
0.125202
0
VERTEX
8
L1
10
10.822909
20
0.110931
0
VERTEX
8
L1
10
10.805063
20
0.100863
0
VERTEX
8
L1
10
10.785245
20
0.0956587
0
VERTEX
8
L1
10
10.764755
20
0.0956587
0
VERTEX
8
L1
10
10.744937
20
0.100863
0
VERTEX
8
L1
10
10.727091
20
0.110931
0
VERTEX
8
L1
10
10.712389
20
0.125202
0
VERTEX
8
L1
10
10.701793
20
0.14274
0
VERTEX
8
L1
10
10.695999
20
0.162394
0
VERTEX
8
L1
10
10.695389
20
0.182875
0
VERTEX
8
L1
10
10.7
20
0.202839
0
VERTEX
8
L1
10
10.7
20
0.635
0
VERTEX
8
L1
10
10.707667
20
0.693234
0
VERTEX
8
L1
10
10.730144
20
0.7475
0
VERTEX
8
L1
10
10.765901
20
0.794099
0
VERTEX
8
L1
10
10.8125
20
0.829856
0
VERTEX
8
L1
10
10.866766
20
0.852333
0
VERTEX
8
L1
10
10.925
20
0.86
0
VERTEX
8
L1
10
11.79
20
0.86
0
VERTEX
8
L1
10
11.792588
20
0.860341
0
VERTEX
8
L1
10
11.795
20
0.86134
0
VERTEX
8
L1
10
11.797071
20
0.862929
0
VERTEX
8
L1
10
11.79866
20
0.865
0
VERTEX
8
L1
10
11.799659
20
0.867412
0
VERTEX
8
L1
10
11.8
20
0.87
0
VERTEX
8
L1
10
11.8
20
0.875
0
VERTEX
8
L1
10
11.800341
20
0.877588
0
VERTEX
8
L1
10
11.80134
20
0.88
0
VERTEX
8
L1
10
11.802929
20
0.882071
0
VERTEX
8
L1
10
11.805
20
0.88366
0
VERTEX
8
L1
10
11.807412
20
0.884659
0
VERTEX
8
L1
10
11.81
20
0.885
0
VERTEX
8
L1
10
12.0
20
0.885
0
VERTEX
8
L1
10
12.0
20
0.555
0
VERTEX
8
L1
10
11.85
20
0.555
0
VERTEX
8
L1
10
11.837059
20
0.556704
0
VERTEX
8
L1
10
11.825
20
0.561699
0
VERTEX
8
L1
10
11.814645
20
0.569645
0
VERTEX
8
L1
10
11.806699
20
0.58
0
VERTEX
8
L1
10
11.801704
20
0.592059
0
VERTEX
8
L1
10
11.8
20
0.605
0
VERTEX
8
L1
10
11.8
20
0.66
0
VERTEX
8
L1
10
11.798296
20
0.672941
0
VERTEX
8
L1
10
11.793301
20
0.685
0
VERTEX
8
L1
10
11.785355
20
0.695355
0
VERTEX
8
L1
10
11.775
20
0.703301
0
VERTEX
8
L1
10
11.762941
20
0.708296
0
VERTEX
8
L1
10
11.75
20
0.71
0
VERTEX
8
L1
10
10.925
20
0.71
0
VERTEX
8
L1
10
10.905588999999999
20
0.707444
0
VERTEX
8
L1
10
10.8875
20
0.699952
0
VERTEX
8
L1
10
10.871967
20
0.688033
0
VERTEX
8
L1
10
10.860048
20
0.6725
0
VERTEX
8
L1
10
10.852556
20
0.654411
0
VERTEX
8
L1
10
10.85
20
0.635
0
SEQEND
0
POLYLINE
8
L1
66
1
70
1
0
VERTEX
8
L1
10
10.7
20
-0.202839
0
VERTEX
8
L1
10
10.695389
20
-0.182875
0
VERTEX
8
L1
10
10.695999
20
-0.162394
0
VERTEX
8
L1
10
10.701793
20
-0.14274
0
VERTEX
8
L1
10
10.712389
20
-0.125202
0
VERTEX
8
L1
10
10.727091
20
-0.110931
0
VERTEX
8
L1
10
10.744937
20
-0.100863
0
VERTEX
8
L1
10
10.764755
20
-0.0956587
0
VERTEX
8
L1
10
10.785245
20
-0.0956587
0
VERTEX
8
L1
10
10.805063
20
-0.100863
0
VERTEX
8
L1
10
10.822909
20
-0.110931
0
VERTEX
8
L1
10
10.837611
20
-0.125202
0
VERTEX
8
L1
10
10.848207
20
-0.14274
0
VERTEX
8
L1
10
10.854001
20
-0.162394
0
VERTEX
8
L1
10
10.854611
20
-0.182875
0
VERTEX
8
L1
10
10.85
20
-0.202839
0
VERTEX
8
L1
10
10.85
20
-0.635
0
VERTEX
8
L1
10
10.852556
20
-0.654411
0
VERTEX
8
L1
10
10.860048
20
-0.6725
0
VERTEX
8
L1
10
10.871967
20
-0.688033
0
VERTEX
8
L1
10
10.8875
20
-0.699952
0
VERTEX
8
L1
10
10.905588999999999
20
-0.707444
0
VERTEX
8
L1
10
10.925
20
-0.71
0
VERTEX
8
L1
10
11.75
20
-0.71
0
VERTEX
8
L1
10
11.762941
20
-0.708296
0
VERTEX
8
L1
10
11.775
20
-0.703301
0
VERTEX
8
L1
10
11.785355
20
-0.695355
0
VERTEX
8
L1
10
11.793301
20
-0.685
0
VERTEX
8
L1
10
11.798296
20
-0.672941
0
VERTEX
8
L1
10
11.8
20
-0.66
0
VERTEX
8
L1
10
11.8
20
-0.605
0
VERTEX
8
L1
10
11.801704
20
-0.592059
0
VERTEX
8
L1
10
11.806699
20
-0.58
0
VERTEX
8
L1
10
11.814645
20
-0.569645
0
VERTEX
8
L1
10
11.825
20
-0.561699
0
VERTEX
8
L1
10
11.837059
20
-0.556704
0
VERTEX
8
L1
10
11.85
20
-0.555
0
VERTEX
8
L1
10
12.0
20
-0.555
0
VERTEX
8
L1
10
12.0
20
-0.885
0
VERTEX
8
L1
10
11.81
20
-0.885
0
VERTEX
8
L1
10
11.807412
20
-0.884659
0
VERTEX
8
L1
10
11.805
20
-0.88366
0
VERTEX
8
L1
10
11.802929
20
-0.882071
0
VERTEX
8
L1
10
11.80134
20
-0.88
0
VERTEX
8
L1
10
11.800341
20
-0.877588
0
VERTEX
8
L1
10
11.8
20
-0.875
0
VERTEX
8
L1
10
11.8
20
-0.87
0
VERTEX
8
L1
10
11.799659
20
-0.867412
0
VERTEX
8
L1
10
11.79866
20
-0.865
0
VERTEX
8
L1
10
11.797071
20
-0.862929
0
VERTEX
8
L1
10
11.795
20
-0.86134
0
VERTEX
8
L1
10
11.792588
20
-0.860341
0
VERTEX
8
L1
10
11.79
20
-0.86
0
VERTEX
8
L1
10
10.925
20
-0.86
0
VERTEX
8
L1
10
10.866766
20
-0.852333
0
VERTEX
8
L1
10
10.8125
20
-0.829856
0
VERTEX
8
L1
10
10.765901
20
-0.794099
0
VERTEX
8
L1
10
10.730144
20
-0.7475
0
VERTEX
8
L1
10
10.707667
20
-0.693234
0
VERTEX
8
L1
10
10.7
20
-0.635
0
SEQEND
0
POLYLINE
8
V1
66
1
70
1
0
VERTEX
8
V1
10
10.735
20
0.175
0
VERTEX
8
V1
10
10.736363
20
0.185353
0
VERTEX
8
V1
10
10.740359
20
0.195
0
VERTEX
8
V1
10
10.746716
20
0.203284
0
VERTEX
8
V1
10
10.755
20
0.209641
0
VERTEX
8
V1
10
10.764647
20
0.213637
0
VERTEX
8
V1
10
10.775
20
0.215
0
VERTEX
8
V1
10
10.785353
20
0.213637
0
VERTEX
8
V1
10
10.795
20
0.209641
0
VERTEX
8
V1
10
10.803284
20
0.203284
0
VERTEX
8
V1
10
10.809641
20
0.195
0
VERTEX
8
V1
10
10.813637
20
0.185353
0
VERTEX
8
V1
10
10.815
20
0.175
0
VERTEX
8
V1
10
10.813637
20
0.164647
0
VERTEX
8
V1
10
10.809641
20
0.155
0
VERTEX
8
V1
10
10.803284
20
0.146716
0
VERTEX
8
V1
10
10.795
20
0.140359
0
VERTEX
8
V1
10
10.785353
20
0.136363
0
VERTEX
8
V1
10
10.775
20
0.135
0
VERTEX
8
V1
10
10.764647
20
0.136363
0
VERTEX
8
V1
10
10.755
20
0.140359
0
VERTEX
8
V1
10
10.746716
20
0.146716
0
VERTEX
8
V1
10
10.740359
20
0.155
0
VERTEX
8
V1
10
10.736363
20
0.164647
0
SEQEND
0
POLYLINE
8
V1
66
1
70
1
0
VERTEX
8
V1
10
10.735
20
-0.175
0
VERTEX
8
V1
10
10.736363
20
-0.164647
0
VERTEX
8
V1
10
10.740359
20
-0.155
0
VERTEX
8
V1
10
10.746716
20
-0.146716
0
VERTEX
8
V1
10
10.755
20
-0.140359
0
VERTEX
8
V1
10
10.764647
20
-0.136363
0
VERTEX
8
V1
10
10.775
20
-0.135
0
VERTEX
8
V1
10
10.785353
20
-0.136363
0
VERTEX
8
V1
10
10.795
20
-0.140359
0
VERTEX
8
V1
10
10.803284
20
-0.146716
0
VERTEX
8
V1
10
10.809641
20
-0.155
0
VERTEX
8
V1
10
10.813637
20
-0.164647
0
VERTEX
8
V1
10
10.815
20
-0.175
0
VERTEX
8
V1
10
10.813637
20
-0.185353
0
VERTEX
8
V1
10
10.809641
20
-0.195
0
VERTEX
8
V1
10
10.803284
20
-0.203284
0
VERTEX
8
V1
10
10.795
20
-0.209641
0
VERTEX
8
V1
10
10.785353
20
-0.213637
0
VERTEX
8
V1
10
10.775
20
-0.215
0
VERTEX
8
V1
10
10.764647
20
-0.213637
0
VERTEX
8
V1
10
10.755
20
-0.209641
0
VERTEX
8
V1
10
10.746716
20
-0.203284
0
VERTEX
8
V1
10
10.740359
20
-0.195
0
VERTEX
8
V1
10
10.736363
20
-0.185353
0
SEQEND
0
POLYLINE
8
L2
66
1
70
1
0
VERTEX
8
L2
10
13.052839
20
0.1
0
VERTEX
8
L2
10
13.032875
20
0.0953885
0
VERTEX
8
L2
10
13.012394
20
0.0959995
0
VERTEX
8
L2
10
12.99274
20
0.101793
0
VERTEX
8
L2
10
12.975202
20
0.112389
0
VERTEX
8
L2
10
12.960931
20
0.127091
0
VERTEX
8
L2
10
12.950863
20
0.144937
0
VERTEX
8
L2
10
12.945659
20
0.164755
0
VERTEX
8
L2
10
12.945659
20
0.185245
0
VERTEX
8
L2
10
12.950863
20
0.205063
0
VERTEX
8
L2
10
12.960931
20
0.222909
0
VERTEX
8
L2
10
12.975202
20
0.237611
0
VERTEX
8
L2
10
12.99274
20
0.248207
0
VERTEX
8
L2
10
13.012394
20
0.254001
0
VERTEX
8
L2
10
13.032875
20
0.254611
0
VERTEX
8
L2
10
13.052839
20
0.25
0
VERTEX
8
L2
10
13.825
20
0.25
0
VERTEX
8
L2
10
13.844411000000001
20
0.252556
0
VERTEX
8
L2
10
13.8625
20
0.260048
0
VERTEX
8
L2
10
13.878033
20
0.271967
0
VERTEX
8
L2
10
13.889952
20
0.2875
0
VERTEX
8
L2
10
13.897444
20
0.305589
0
VERTEX
8
L2
10
13.9
20
0.325
0
VERTEX
8
L2
10
13.9
20
0.635
0
VERTEX
8
L2
10
13.897444
20
0.654411
0
VERTEX
8
L2
10
13.889952
20
0.6725
0
VERTEX
8
L2
10
13.878033
20
0.688033
0
VERTEX
8
L2
10
13.8625
20
0.699952
0
VERTEX
8
L2
10
13.844411000000001
20
0.707444
0
VERTEX
8
L2
10
13.825
20
0.71
0
VERTEX
8
L2
10
13.052839
20
0.71
0
VERTEX
8
L2
10
13.032875
20
0.705389
0
VERTEX
8
L2
10
13.012394
20
0.705999
0
VERTEX
8
L2
10
12.99274
20
0.711793
0
VERTEX
8
L2
10
12.975202
20
0.722389
0
VERTEX
8
L2
10
12.960931
20
0.737091
0
VERTEX
8
L2
10
12.950863
20
0.754937
0
VERTEX
8
L2
10
12.945659
20
0.774755
0
VERTEX
8
L2
10
12.945659
20
0.795245
0
VERTEX
8
L2
10
12.950863
20
0.815063
0
VERTEX
8
L2
10
12.960931
20
0.832909
0
VERTEX
8
L2
10
12.975202
20
0.847611
0
VERTEX
8
L2
10
12.99274
20
0.858207
0
VERTEX
8
L2
10
13.012394
20
0.864001
0
VERTEX
8
L2
10
13.032875
20
0.864611
0
VERTEX
8
L2
10
13.052839
20
0.86
0
VERTEX
8
L2
10
13.825
20
0.86
0
VERTEX
8
L2
10
13.883234
20
0.852333
0
VERTEX
8
L2
10
13.9375
20
0.829856
0
VERTEX
8
L2
10
13.984099
20
0.794099
0
VERTEX
8
L2
10
14.019856
20
0.7475
0
VERTEX
8
L2
10
14.042333
20
0.693234
0
VERTEX
8
L2
10
14.05
20
0.635
0
VERTEX
8
L2
10
14.05
20
0.325
0
VERTEX
8
L2
10
14.042333
20
0.266766
0
VERTEX
8
L2
10
14.019856
20
0.2125
0
VERTEX
8
L2
10
13.984099
20
0.165901
0
VERTEX
8
L2
10
13.9375
20
0.130144
0
VERTEX
8
L2
10
13.883234
20
0.107667
0
VERTEX
8
L2
10
13.825
20
0.1
0
SEQEND
0
POLYLINE
8
L2
66
1
70
1
0
VERTEX
8
L2
10
13.052839
20
-0.25
0
VERTEX
8
L2
10
13.032875
20
-0.254611
0
VERTEX
8
L2
10
13.012394
20
-0.254001
0
VERTEX
8
L2
10
12.99274
20
-0.248207
0
VERTEX
8
L2
10
12.975202
20
-0.237611
0
VERTEX
8
L2
10
12.960931
20
-0.222909
0
VERTEX
8
L2
10
12.950863
20
-0.205063
0
VERTEX
8
L2
10
12.945659
20
-0.185245
0
VERTEX
8
L2
10
12.945659
20
-0.164755
0
VERTEX
8
L2
10
12.950863
20
-0.144937
0
VERTEX
8
L2
10
12.960931
20
-0.127091
0
VERTEX
8
L2
10
12.975202
20
-0.112389
0
VERTEX
8
L2
10
12.99274
20
-0.101793
0
VERTEX
8
L2
10
13.012394
20
-0.0959995
0
VERTEX
8
L2
10
13.032875
20
-0.0953885
0
VERTEX
8
L2
10
13.052839
20
-0.1
0
VERTEX
8
L2
10
13.825
20
-0.1
0
VERTEX
8
L2
10
13.883234
20
-0.107667
0
VERTEX
8
L2
10
13.9375
20
-0.130144
0
VERTEX
8
L2
10
13.984099
20
-0.165901
0
VERTEX
8
L2
10
14.019856
20
-0.2125
0
VERTEX
8
L2
10
14.042333
20
-0.266766
0
VERTEX
8
L2
10
14.05
20
-0.325
0
VERTEX
8
L2
10
14.05
20
-0.635
0
VERTEX
8
L2
10
14.042333
20
-0.693234
0
VERTEX
8
L2
10
14.019856
20
-0.7475
0
VERTEX
8
L2
10
13.984099
20
-0.794099
0
VERTEX
8
L2
10
13.9375
20
-0.829856
0
VERTEX
8
L2
10
13.883234
20
-0.852333
0
VERTEX
8
L2
10
13.825
20
-0.86
0
VERTEX
8
L2
10
13.052839
20
-0.86
0
VERTEX
8
L2
10
13.032875
20
-0.864611
0
VERTEX
8
L2
10
13.012394
20
-0.864001
0
VERTEX
8
L2
10
12.99274
20
-0.858207
0
VERTEX
8
L2
10
12.975202
20
-0.847611
0
VERTEX
8
L2
10
12.960931
20
-0.832909
0
VERTEX
8
L2
10
12.950863
20
-0.815063
0
VERTEX
8
L2
10
12.945659
20
-0.795245
0
VERTEX
8
L2
10
12.945659
20
-0.774755
0
VERTEX
8
L2
10
12.950863
20
-0.754937
0
VERTEX
8
L2
10
12.960931
20
-0.737091
0
VERTEX
8
L2
10
12.975202
20
-0.722389
0
VERTEX
8
L2
10
12.99274
20
-0.711793
0
VERTEX
8
L2
10
13.012394
20
-0.705999
0
VERTEX
8
L2
10
13.032875
20
-0.705389
0
VERTEX
8
L2
10
13.052839
20
-0.71
0
VERTEX
8
L2
10
13.825
20
-0.71
0
VERTEX
8
L2
10
13.844411000000001
20
-0.707444
0
VERTEX
8
L2
10
13.8625
20
-0.699952
0
VERTEX
8
L2
10
13.878033
20
-0.688033
0
VERTEX
8
L2
10
13.889952
20
-0.6725
0
VERTEX
8
L2
10
13.897444
20
-0.654411
0
VERTEX
8
L2
10
13.9
20
-0.635
0
VERTEX
8
L2
10
13.9
20
-0.325
0
VERTEX
8
L2
10
13.897444
20
-0.305589
0
VERTEX
8
L2
10
13.889952
20
-0.2875
0
VERTEX
8
L2
10
13.878033
20
-0.271967
0
VERTEX
8
L2
10
13.8625
20
-0.260048
0
VERTEX
8
L2
10
13.844411000000001
20
-0.252556
0
VERTEX
8
L2
10
13.825
20
-0.25
0
SEQEND
0
POLYLINE
8
V2
66
1
70
1
0
VERTEX
8
V2
10
12.985
20
0.785
0
VERTEX
8
V2
10
12.986363
20
0.795353
0
VERTEX
8
V2
10
12.990359
20
0.805
0
VERTEX
8
V2
10
12.996716
20
0.813284
0
VERTEX
8
V2
10
13.005
20
0.819641
0
VERTEX
8
V2
10
13.014647
20
0.823637
0
VERTEX
8
V2
10
13.025
20
0.825
0
VERTEX
8
V2
10
13.035353
20
0.823637
0
VERTEX
8
V2
10
13.045
20
0.819641
0
VERTEX
8
V2
10
13.053284
20
0.813284
0
VERTEX
8
V2
10
13.059641
20
0.805
0
VERTEX
8
V2
10
13.063637
20
0.795353
0
VERTEX
8
V2
10
13.065
20
0.785
0
VERTEX
8
V2
10
13.063637
20
0.774647
0
VERTEX
8
V2
10
13.059641
20
0.765
0
VERTEX
8
V2
10
13.053284
20
0.756716
0
VERTEX
8
V2
10
13.045
20
0.750359
0
VERTEX
8
V2
10
13.035353
20
0.746363
0
VERTEX
8
V2
10
13.025
20
0.745
0
VERTEX
8
V2
10
13.014647
20
0.746363
0
VERTEX
8
V2
10
13.005
20
0.750359
0
VERTEX
8
V2
10
12.996716
20
0.756716
0
VERTEX
8
V2
10
12.990359
20
0.765
0
VERTEX
8
V2
10
12.986363
20
0.774647
0
SEQEND
0
POLYLINE
8
V2
66
1
70
1
0
VERTEX
8
V2
10
12.985
20
-0.785
0
VERTEX
8
V2
10
12.986363
20
-0.774647
0
VERTEX
8
V2
10
12.990359
20
-0.765
0
VERTEX
8
V2
10
12.996716
20
-0.756716
0
VERTEX
8
V2
10
13.005
20
-0.750359
0
VERTEX
8
V2
10
13.014647
20
-0.746363
0
VERTEX
8
V2
10
13.025
20
-0.745
0
VERTEX
8
V2
10
13.035353
20
-0.746363
0
VERTEX
8
V2
10
13.045
20
-0.750359
0
VERTEX
8
V2
10
13.053284
20
-0.756716
0
VERTEX
8
V2
10
13.059641
20
-0.765
0
VERTEX
8
V2
10
13.063637
20
-0.774647
0
VERTEX
8
V2
10
13.065
20
-0.785
0
VERTEX
8
V2
10
13.063637
20
-0.795353
0
VERTEX
8
V2
10
13.059641
20
-0.805
0
VERTEX
8
V2
10
13.053284
20
-0.813284
0
VERTEX
8
V2
10
13.045
20
-0.819641
0
VERTEX
8
V2
10
13.035353
20
-0.823637
0
VERTEX
8
V2
10
13.025
20
-0.825
0
VERTEX
8
V2
10
13.014647
20
-0.823637
0
VERTEX
8
V2
10
13.005
20
-0.819641
0
VERTEX
8
V2
10
12.996716
20
-0.813284
0
VERTEX
8
V2
10
12.990359
20
-0.805
0
VERTEX
8
V2
10
12.986363
20
-0.795353
0
SEQEND
0
POLYLINE
8
L3
66
1
70
1
0
VERTEX
8
L3
10
15.2
20
0.757161
0
VERTEX
8
L3
10
15.195389
20
0.777125
0
VERTEX
8
L3
10
15.195999
20
0.797606
0
VERTEX
8
L3
10
15.201793
20
0.81726
0
VERTEX
8
L3
10
15.212389
20
0.834798
0
VERTEX
8
L3
10
15.227091
20
0.849069
0
VERTEX
8
L3
10
15.244937
20
0.859137
0
VERTEX
8
L3
10
15.264755
20
0.864341
0
VERTEX
8
L3
10
15.285245
20
0.864341
0
VERTEX
8
L3
10
15.305063
20
0.859137
0
VERTEX
8
L3
10
15.322909
20
0.849069
0
VERTEX
8
L3
10
15.337611
20
0.834798
0
VERTEX
8
L3
10
15.348207
20
0.81726
0
VERTEX
8
L3
10
15.354001
20
0.797606
0
VERTEX
8
L3
10
15.354611
20
0.777125
0
VERTEX
8
L3
10
15.35
20
0.757161
0
VERTEX
8
L3
10
15.35
20
0.325
0
VERTEX
8
L3
10
15.352556
20
0.305589
0
VERTEX
8
L3
10
15.360048
20
0.2875
0
VERTEX
8
L3
10
15.371967
20
0.271967
0
VERTEX
8
L3
10
15.3875
20
0.260048
0
VERTEX
8
L3
10
15.405588999999999
20
0.252556
0
VERTEX
8
L3
10
15.425
20
0.25
0
VERTEX
8
L3
10
16.075
20
0.25
0
VERTEX
8
L3
10
16.094411
20
0.252556
0
VERTEX
8
L3
10
16.1125
20
0.260048
0
VERTEX
8
L3
10
16.128033
20
0.271967
0
VERTEX
8
L3
10
16.139952
20
0.2875
0
VERTEX
8
L3
10
16.147444
20
0.305589
0
VERTEX
8
L3
10
16.15
20
0.325
0
VERTEX
8
L3
10
16.15
20
0.757161
0
VERTEX
8
L3
10
16.145389
20
0.777125
0
VERTEX
8
L3
10
16.145999
20
0.797606
0
VERTEX
8
L3
10
16.151793
20
0.81726
0
VERTEX
8
L3
10
16.162389
20
0.834798
0
VERTEX
8
L3
10
16.177091
20
0.849069
0
VERTEX
8
L3
10
16.194937
20
0.859137
0
VERTEX
8
L3
10
16.214755
20
0.864341
0
VERTEX
8
L3
10
16.235245
20
0.864341
0
VERTEX
8
L3
10
16.255063
20
0.859137
0
VERTEX
8
L3
10
16.272909
20
0.849069
0
VERTEX
8
L3
10
16.287611
20
0.834798
0
VERTEX
8
L3
10
16.298207
20
0.81726
0
VERTEX
8
L3
10
16.304001
20
0.797606
0
VERTEX
8
L3
10
16.304611
20
0.777125
0
VERTEX
8
L3
10
16.3
20
0.757161
0
VERTEX
8
L3
10
16.3
20
0.325
0
VERTEX
8
L3
10
16.292333
20
0.266766
0
VERTEX
8
L3
10
16.269856
20
0.2125
0
VERTEX
8
L3
10
16.234099
20
0.165901
0
VERTEX
8
L3
10
16.1875
20
0.130144
0
VERTEX
8
L3
10
16.133234
20
0.107667
0
VERTEX
8
L3
10
16.075
20
0.1
0
VERTEX
8
L3
10
15.425
20
0.1
0
VERTEX
8
L3
10
15.366766
20
0.107667
0
VERTEX
8
L3
10
15.3125
20
0.130144
0
VERTEX
8
L3
10
15.265901
20
0.165901
0
VERTEX
8
L3
10
15.230144
20
0.2125
0
VERTEX
8
L3
10
15.207667
20
0.266766
0
VERTEX
8
L3
10
15.2
20
0.325
0
SEQEND
0
POLYLINE
8
L3
66
1
70
1
0
VERTEX
8
L3
10
15.35
20
-0.757161
0
VERTEX
8
L3
10
15.354611
20
-0.777125
0
VERTEX
8
L3
10
15.354001
20
-0.797606
0
VERTEX
8
L3
10
15.348207
20
-0.81726
0
VERTEX
8
L3
10
15.337611
20
-0.834798
0
VERTEX
8
L3
10
15.322909
20
-0.849069
0
VERTEX
8
L3
10
15.305063
20
-0.859137
0
VERTEX
8
L3
10
15.285245
20
-0.864341
0
VERTEX
8
L3
10
15.264755
20
-0.864341
0
VERTEX
8
L3
10
15.244937
20
-0.859137
0
VERTEX
8
L3
10
15.227091
20
-0.849069
0
VERTEX
8
L3
10
15.212389
20
-0.834798
0
VERTEX
8
L3
10
15.201793
20
-0.81726
0
VERTEX
8
L3
10
15.195999
20
-0.797606
0
VERTEX
8
L3
10
15.195389
20
-0.777125
0
VERTEX
8
L3
10
15.2
20
-0.757161
0
VERTEX
8
L3
10
15.2
20
-0.325
0
VERTEX
8
L3
10
15.207667
20
-0.266766
0
VERTEX
8
L3
10
15.230144
20
-0.2125
0
VERTEX
8
L3
10
15.265901
20
-0.165901
0
VERTEX
8
L3
10
15.3125
20
-0.130144
0
VERTEX
8
L3
10
15.366766
20
-0.107667
0
VERTEX
8
L3
10
15.425
20
-0.1
0
VERTEX
8
L3
10
16.075
20
-0.1
0
VERTEX
8
L3
10
16.133234
20
-0.107667
0
VERTEX
8
L3
10
16.1875
20
-0.130144
0
VERTEX
8
L3
10
16.234099
20
-0.165901
0
VERTEX
8
L3
10
16.269856
20
-0.2125
0
VERTEX
8
L3
10
16.292333
20
-0.266766
0
VERTEX
8
L3
10
16.3
20
-0.325
0
VERTEX
8
L3
10
16.3
20
-0.757161
0
VERTEX
8
L3
10
16.304611
20
-0.777125
0
VERTEX
8
L3
10
16.304001
20
-0.797606
0
VERTEX
8
L3
10
16.298207
20
-0.81726
0
VERTEX
8
L3
10
16.287611
20
-0.834798
0
VERTEX
8
L3
10
16.272909
20
-0.849069
0
VERTEX
8
L3
10
16.255063
20
-0.859137
0
VERTEX
8
L3
10
16.235245
20
-0.864341
0
VERTEX
8
L3
10
16.214755
20
-0.864341
0
VERTEX
8
L3
10
16.194937
20
-0.859137
0
VERTEX
8
L3
10
16.177091
20
-0.849069
0
VERTEX
8
L3
10
16.162389
20
-0.834798
0
VERTEX
8
L3
10
16.151793
20
-0.81726
0
VERTEX
8
L3
10
16.145999
20
-0.797606
0
VERTEX
8
L3
10
16.145389
20
-0.777125
0
VERTEX
8
L3
10
16.15
20
-0.757161
0
VERTEX
8
L3
10
16.15
20
-0.325
0
VERTEX
8
L3
10
16.147444
20
-0.305589
0
VERTEX
8
L3
10
16.139952
20
-0.2875
0
VERTEX
8
L3
10
16.128033
20
-0.271967
0
VERTEX
8
L3
10
16.1125
20
-0.260048
0
VERTEX
8
L3
10
16.094411
20
-0.252556
0
VERTEX
8
L3
10
16.075
20
-0.25
0
VERTEX
8
L3
10
15.425
20
-0.25
0
VERTEX
8
L3
10
15.405588999999999
20
-0.252556
0
VERTEX
8
L3
10
15.3875
20
-0.260048
0
VERTEX
8
L3
10
15.371967
20
-0.271967
0
VERTEX
8
L3
10
15.360048
20
-0.2875
0
VERTEX
8
L3
10
15.352556
20
-0.305589
0
VERTEX
8
L3
10
15.35
20
-0.325
0
SEQEND
0
POLYLINE
8
V3
66
1
70
1
0
VERTEX
8
V3
10
16.185
20
0.785
0
VERTEX
8
V3
10
16.186363
20
0.795353
0
VERTEX
8
V3
10
16.190359
20
0.805
0
VERTEX
8
V3
10
16.196716
20
0.813284
0
VERTEX
8
V3
10
16.205
20
0.819641
0
VERTEX
8
V3
10
16.214647
20
0.823637
0
VERTEX
8
V3
10
16.225
20
0.825
0
VERTEX
8
V3
10
16.235353
20
0.823637
0
VERTEX
8
V3
10
16.245
20
0.819641
0
VERTEX
8
V3
10
16.253284
20
0.813284
0
VERTEX
8
V3
10
16.259641
20
0.805
0
VERTEX
8
V3
10
16.263637
20
0.795353
0
VERTEX
8
V3
10
16.265
20
0.785
0
VERTEX
8
V3
10
16.263637
20
0.774647
0
VERTEX
8
V3
10
16.259641
20
0.765
0
VERTEX
8
V3
10
16.253284
20
0.756716
0
VERTEX
8
V3
10
16.245
20
0.750359
0
VERTEX
8
V3
10
16.235353
20
0.746363
0
VERTEX
8
V3
10
16.225
20
0.745
0
VERTEX
8
V3
10
16.214647
20
0.746363
0
VERTEX
8
V3
10
16.205
20
0.750359
0
VERTEX
8
V3
10
16.196716
20
0.756716
0
VERTEX
8
V3
10
16.190359
20
0.765
0
VERTEX
8
V3
10
16.186363
20
0.774647
0
SEQEND
0
POLYLINE
8
V3
66
1
70
1
0
VERTEX
8
V3
10
16.185
20
-0.785
0
VERTEX
8
V3
10
16.186363
20
-0.774647
0
VERTEX
8
V3
10
16.190359
20
-0.765
0
VERTEX
8
V3
10
16.196716
20
-0.756716
0
VERTEX
8
V3
10
16.205
20
-0.750359
0
VERTEX
8
V3
10
16.214647
20
-0.746363
0
VERTEX
8
V3
10
16.225
20
-0.745
0
VERTEX
8
V3
10
16.235353
20
-0.746363
0
VERTEX
8
V3
10
16.245
20
-0.750359
0
VERTEX
8
V3
10
16.253284
20
-0.756716
0
VERTEX
8
V3
10
16.259641
20
-0.765
0
VERTEX
8
V3
10
16.263637
20
-0.774647
0
VERTEX
8
V3
10
16.265
20
-0.785
0
VERTEX
8
V3
10
16.263637
20
-0.795353
0
VERTEX
8
V3
10
16.259641
20
-0.805
0
VERTEX
8
V3
10
16.253284
20
-0.813284
0
VERTEX
8
V3
10
16.245
20
-0.819641
0
VERTEX
8
V3
10
16.235353
20
-0.823637
0
VERTEX
8
V3
10
16.225
20
-0.825
0
VERTEX
8
V3
10
16.214647
20
-0.823637
0
VERTEX
8
V3
10
16.205
20
-0.819641
0
VERTEX
8
V3
10
16.196716
20
-0.813284
0
VERTEX
8
V3
10
16.190359
20
-0.805
0
VERTEX
8
V3
10
16.186363
20
-0.795353
0
SEQEND
0
POLYLINE
8
L4
66
1
70
1
0
VERTEX
8
L4
10
18.447161
20
-0.71
0
VERTEX
8
L4
10
18.467125
20
-0.705389
0
VERTEX
8
L4
10
18.487606
20
-0.705999
0
VERTEX
8
L4
10
18.50726
20
-0.711793
0
VERTEX
8
L4
10
18.524798
20
-0.722389
0
VERTEX
8
L4
10
18.539069
20
-0.737091
0
VERTEX
8
L4
10
18.549137
20
-0.754937
0
VERTEX
8
L4
10
18.554341
20
-0.774755
0
VERTEX
8
L4
10
18.554341
20
-0.795245
0
VERTEX
8
L4
10
18.549137
20
-0.815063
0
VERTEX
8
L4
10
18.539069
20
-0.832909
0
VERTEX
8
L4
10
18.524798
20
-0.847611
0
VERTEX
8
L4
10
18.50726
20
-0.858207
0
VERTEX
8
L4
10
18.487606
20
-0.864001
0
VERTEX
8
L4
10
18.467125
20
-0.864611
0
VERTEX
8
L4
10
18.447161
20
-0.86
0
VERTEX
8
L4
10
17.675
20
-0.86
0
VERTEX
8
L4
10
17.616766
20
-0.852333
0
VERTEX
8
L4
10
17.5625
20
-0.829856
0
VERTEX
8
L4
10
17.515901
20
-0.794099
0
VERTEX
8
L4
10
17.480144
20
-0.7475
0
VERTEX
8
L4
10
17.457667
20
-0.693234
0
VERTEX
8
L4
10
17.45
20
-0.635
0
VERTEX
8
L4
10
17.45
20
0.635
0
VERTEX
8
L4
10
17.457667
20
0.693234
0
VERTEX
8
L4
10
17.480144
20
0.7475
0
VERTEX
8
L4
10
17.515901
20
0.794099
0
VERTEX
8
L4
10
17.5625
20
0.829856
0
VERTEX
8
L4
10
17.616766
20
0.852333
0
VERTEX
8
L4
10
17.675
20
0.86
0
VERTEX
8
L4
10
18.447161
20
0.86
0
VERTEX
8
L4
10
18.467125
20
0.864611
0
VERTEX
8
L4
10
18.487606
20
0.864001
0
VERTEX
8
L4
10
18.50726
20
0.858207
0
VERTEX
8
L4
10
18.524798
20
0.847611
0
VERTEX
8
L4
10
18.539069
20
0.832909
0
VERTEX
8
L4
10
18.549137
20
0.815063
0
VERTEX
8
L4
10
18.554341
20
0.795245
0
VERTEX
8
L4
10
18.554341
20
0.774755
0
VERTEX
8
L4
10
18.549137
20
0.754937
0
VERTEX
8
L4
10
18.539069
20
0.737091
0
VERTEX
8
L4
10
18.524798
20
0.722389
0
VERTEX
8
L4
10
18.50726
20
0.711793
0
VERTEX
8
L4
10
18.487606
20
0.705999
0
VERTEX
8
L4
10
18.467125
20
0.705389
0
VERTEX
8
L4
10
18.447161
20
0.71
0
VERTEX
8
L4
10
17.675
20
0.71
0
VERTEX
8
L4
10
17.655589
20
0.707444
0
VERTEX
8
L4
10
17.6375
20
0.699952
0
VERTEX
8
L4
10
17.621967
20
0.688033
0
VERTEX
8
L4
10
17.610048
20
0.6725
0
VERTEX
8
L4
10
17.602556
20
0.654411
0
VERTEX
8
L4
10
17.6
20
0.635
0
VERTEX
8
L4
10
17.6
20
0.243301
0
VERTEX
8
L4
10
17.615
20
0.239282
0
VERTEX
8
L4
10
17.644282
20
0.21
0
VERTEX
8
L4
10
17.655
20
0.17
0
VERTEX
8
L4
10
17.644282
20
0.13
0
VERTEX
8
L4
10
17.615
20
0.100718
0
VERTEX
8
L4
10
17.6
20
0.0966987
0
VERTEX
8
L4
10
17.6
20
-0.635
0
VERTEX
8
L4
10
17.602556
20
-0.654411
0
VERTEX
8
L4
10
17.610048
20
-0.6725
0
VERTEX
8
L4
10
17.621967
20
-0.688033
0
VERTEX
8
L4
10
17.6375
20
-0.699952
0
VERTEX
8
L4
10
17.655589
20
-0.707444
0
VERTEX
8
L4
10
17.675
20
-0.71
0
SEQEND
0
POLYLINE
8
Mark
66
1
70
1
0
VERTEX
8
Mark
10
20.425
20
-0.8
0
VERTEX
8
Mark
10
20.075
20
-0.8
0
VERTEX
8
Mark
10
20.075
20
-0.35
0
VERTEX
8
Mark
10
20.425
20
-0.35
0
SEQEND
0
TEXT
8
0
10
-0.75
20
-1.7762499999999999
40
0.5075
1
C1-V4
0
TEXT
8
0
10
1.5
20
-1.7762499999999999
40
0.5075
1
C2-V5
0
TEXT
8
0
10
3.75
20
-1.7762499999999999
40
0.5075
1
C3
0
TEXT
8
0
10
6.0
20
-1.7762499999999999
40
0.5075
1
G-V5
0
TEXT
8
0
10
8.25
20
-1.7762499999999999
40
0.5075
1
H1-V4
0
TEXT
8
0
10
10.5
20
-1.7762499999999999
40
0.5075
1
L1-V1
0
TEXT
8
0
10
12.75
20
-1.7762499999999999
40
0.5075
1
L2-V2
0
TEXT
8
0
10
15.0
20
-1.7762499999999999
40
0.5075
1
L3-V3
0
TEXT
8
0
10
17.25
20
-1.7762499999999999
40
0.5075
1
L4-V4
0
TEXT
8
0
10
19.5
20
-1.7762499999999999
40
0.5075
1
Mark
0
ENDSEC
0
EOF
