0
SECTION
2
HEADER
9
$ACADVER
1
AC1006
9
$INSBASE
10
0.0
20
0.0
30
0.0
9
$EXTMIN
10
-104.25365853658536
20
-104.25365853658536
9
$EXTMAX
10
104.25365853658536
20
116.93658536585366
0
ENDSEC
0
SECTION
2
TABLES
0
TABLE
2
LTYPE
70
1
0
LTYPE
2
CONTINUOUS
70
64
3
Solid line
72
65
73
0
40
0.0
0
ENDTAB
0
TABLE
2
LAYER
70
3
0
LAYER
2
0
70
0
62
255
6
continuous
0
LAYER
2
0
70
0
62
7
6
continuous
0
LAYER
2
L4
70
0
62
7
6
continuous
0
ENDTAB
0
TABLE
2
STYLE
70
2
0
STYLE
2
STANDARD
70
0
40
0
41
1
50
0
71
0
42
1
3
ARIAL.TTF
4

0
STYLE
2
STANDARD
70
0
40
0
41
1
50
0
71
0
42
1
3
ARIAL.TTF
4

0
ENDTAB
0
TABLE
2
VIEW
70
1
0
VIEW
2
Normal
70
0
40
1
10
0.5
20
0.5
41
1
11
0
21
0
31
1
12
0
22
0
32
0
42
50
43
0
44
0
50
0
71
0
0
ENDTAB
0
ENDSEC
0
SECTION
2
BLOCKS
0
BLOCK
8
0
2
cutlineendpoint
70
0
10
0
20
0
30
0
3
cutlineendpoint
0
POLYLINE
8
0
66
1
70
1
40
0.04
41
0.04
0
VERTEX
8
0
10
-0.02
20
0
30
0
42
1.0
0
VERTEX
8
0
10
0.02
20
0
30
0
42
1.0
0
SEQEND
0
ENDBLK
0
BLOCK
8
L4
2
LDI_XFB44-1600-011_L4_B1
70
0
10
0
20
0
30
0
3
LDI_XFB44-1600-011_L4_B1
0
POLYLINE
8
L4
66
1
70
1
0
VERTEX
8
L4
10
-56.9105925700877
20
-55.60975609756098
0
VERTEX
8
L4
10
-56.9105925700877
20
-54.99999999999999
0
VERTEX
8
L4
10
-57.37556282476063
20
-54.99999999999999
0
VERTEX
8
L4
10
-57.37556282476063
20
-56.15853658536585
0
VERTEX
8
L4
10
-57.42682926829268
20
-56.15853658536585
0
VERTEX
8
L4
10
-57.42682926829268
20
-56.40243902439024
0
VERTEX
8
L4
10
-57.278001849150876
20
-56.40243902439024
0
VERTEX
8
L4
10
-57.278001849150876
20
-55.097560975609746
0
VERTEX
8
L4
10
-57.00815354569746
20
-55.097560975609746
0
VERTEX
8
L4
10
-57.00815354569746
20
-55.487804878048784
0
VERTEX
8
L4
10
-57.0325437895999
20
-55.487804878048784
0
VERTEX
8
L4
10
-57.0325437895999
20
-55.60975609756098
0
VERTEX
8
L4
10
-56.9105925700877
20
-55.60975609756098
0
SEQEND
0
POLYLINE
8
L4
66
1
70
1
0
VERTEX
8
L4
10
-54.60949505592032
20
-55.60975609756097
0
VERTEX
8
L4
10
-54.60949505592032
20
-55.48780487804877
0
VERTEX
8
L4
10
-54.63388529982276
20
-55.48780487804877
0
VERTEX
8
L4
10
-54.63388529982276
20
-55.097560975609746
0
VERTEX
8
L4
10
-54.4676955329547
20
-55.097560975609746
0
VERTEX
8
L4
10
-54.4676955329547
20
-55.765771944543005
0
VERTEX
8
L4
10
-54.59871398011781
20
-55.765771944543005
0
VERTEX
8
L4
10
-54.59871398011781
20
-56.40243902439024
0
VERTEX
8
L4
10
-54.47676276060561
20
-56.40243902439024
0
VERTEX
8
L4
10
-54.47676276060561
20
-55.863332920152764
0
VERTEX
8
L4
10
-54.37013455734494
20
-55.863332920152764
0
VERTEX
8
L4
10
-54.37013455734494
20
-54.99999999999999
0
VERTEX
8
L4
10
-54.73144627543252
20
-54.99999999999999
0
VERTEX
8
L4
10
-54.73144627543252
20
-55.60975609756097
0
VERTEX
8
L4
10
-54.60949505592032
20
-55.60975609756097
0
SEQEND
0
POLYLINE
8
L4
66
1
70
1
0
VERTEX
8
L4
10
-55.95462627874195
20
-58.10975609756099
0
VERTEX
8
L4
10
-56.35054241321166
20
-58.10975609756099
0
VERTEX
8
L4
10
-56.35054241321166
20
-56.902439024390254
0
VERTEX
8
L4
10
-56.326152169309225
20
-56.902439024390254
0
VERTEX
8
L4
10
-56.326152169309225
20
-56.78048780487806
0
VERTEX
8
L4
10
-56.44810338882142
20
-56.78048780487806
0
VERTEX
8
L4
10
-56.44810338882142
20
-58.20731707317074
0
VERTEX
8
L4
10
-55.85706530313219
20
-58.20731707317074
0
VERTEX
8
L4
10
-55.857065303132174
20
-56.50000000000001
0
VERTEX
8
L4
10
-56.62079821500406
20
-56.50000000000001
0
VERTEX
8
L4
10
-56.62079821500406
20
-56.28048780487806
0
VERTEX
8
L4
10
-56.74274943451625
20
-56.28048780487806
0
VERTEX
8
L4
10
-56.74274943451625
20
-56.50000000000001
0
VERTEX
8
L4
10
-57.17339130038503
20
-56.50000000000001
0
VERTEX
8
L4
10
-57.17339130038503
20
-57.68292682926829
0
VERTEX
8
L4
10
-56.620798215004065
20
-57.68292682926829
0
VERTEX
8
L4
10
-56.62079821500406
20
-57.07317073170733
0
VERTEX
8
L4
10
-56.74274943451625
20
-57.07317073170733
0
VERTEX
8
L4
10
-56.74274943451625
20
-57.19512195121952
0
VERTEX
8
L4
10
-56.71835919061381
20
-57.19512195121952
0
VERTEX
8
L4
10
-56.718359190613825
20
-57.58536585365854
0
VERTEX
8
L4
10
-57.075830324775275
20
-57.58536585365854
0
VERTEX
8
L4
10
-57.075830324775275
20
-56.59756097560977
0
VERTEX
8
L4
10
-55.95462627874195
20
-56.59756097560977
0
VERTEX
8
L4
10
-55.95462627874195
20
-58.10975609756099
0
SEQEND
0
POLYLINE
8
L4
66
1
70
1
0
VERTEX
8
L4
10
-55.44255490056266
20
-55.60975609756097
0
VERTEX
8
L4
10
-55.44255490056266
20
-55.48780487804877
0
VERTEX
8
L4
10
-55.4669451444651
20
-55.48780487804877
0
VERTEX
8
L4
10
-55.4669451444651
20
-55.097560975609746
0
VERTEX
8
L4
10
-55.09343830442632
20
-55.097560975609746
0
VERTEX
8
L4
10
-55.09343830442632
20
-56.00967438356739
0
VERTEX
8
L4
10
-55.49274943451625
20
-56.00967438356739
0
VERTEX
8
L4
10
-55.49274943451625
20
-56.40243902439024
0
VERTEX
8
L4
10
-55.37079821500405
20
-56.40243902439024
0
VERTEX
8
L4
10
-55.37079821500405
20
-56.10723535917715
0
VERTEX
8
L4
10
-54.99587732881657
20
-56.10723535917715
0
VERTEX
8
L4
10
-54.99587732881657
20
-54.99999999999999
0
VERTEX
8
L4
10
-55.56450612007486
20
-54.99999999999999
0
VERTEX
8
L4
10
-55.56450612007486
20
-55.60975609756097
0
VERTEX
8
L4
10
-55.44255490056266
20
-55.60975609756097
0
SEQEND
0
POLYLINE
8
L4
66
1
70
1
0
VERTEX
8
L4
10
-55.69244717051393
20
-55.60975609756098
0
VERTEX
8
L4
10
-55.69244717051393
20
-54.99999999999999
0
VERTEX
8
L4
10
-56.69693861338666
20
-54.99999999999999
0
VERTEX
8
L4
10
-56.69693861338668
20
-56.10723535917715
0
VERTEX
8
L4
10
-56.169578702808934
20
-56.10723535917715
0
VERTEX
8
L4
10
-56.169578702808934
20
-56.402439024390254
0
VERTEX
8
L4
10
-56.047627483296736
20
-56.402439024390254
0
VERTEX
8
L4
10
-56.047627483296736
20
-56.00967438356739
0
VERTEX
8
L4
10
-56.59937763777692
20
-56.00967438356739
0
VERTEX
8
L4
10
-56.59937763777691
20
-55.097560975609746
0
VERTEX
8
L4
10
-55.79000814612369
20
-55.097560975609746
0
VERTEX
8
L4
10
-55.79000814612369
20
-55.487804878048784
0
VERTEX
8
L4
10
-55.81439839002613
20
-55.487804878048784
0
VERTEX
8
L4
10
-55.81439839002613
20
-55.60975609756098
0
VERTEX
8
L4
10
-55.69244717051393
20
-55.60975609756098
0
SEQEND
0
POLYLINE
8
L4
66
1
70
1
0
VERTEX
8
L4
10
-54.62733951448784
20
-57.19512195121952
0
VERTEX
8
L4
10
-54.602949270585405
20
-57.19512195121952
0
VERTEX
8
L4
10
-54.602949270585405
20
-57.609756097560975
0
VERTEX
8
L4
10
-54.89620272994839
20
-57.609756097560975
0
VERTEX
8
L4
10
-54.89620272994839
20
-56.673252445700896
0
VERTEX
8
L4
10
-54.82432373621544
20
-56.673252445700896
0
VERTEX
8
L4
10
-54.82432373621544
20
-56.28048780487806
0
VERTEX
8
L4
10
-54.94627495572764
20
-56.28048780487804
0
VERTEX
8
L4
10
-54.94627495572764
20
-56.575691470091144
0
VERTEX
8
L4
10
-55.760930745100005
20
-56.575691470091144
0
VERTEX
8
L4
10
-55.760930745100005
20
-57.804878048780495
0
VERTEX
8
L4
10
-55.29864175433864
20
-57.804878048780495
0
VERTEX
8
L4
10
-55.29864175433864
20
-56.85617927496919
0
VERTEX
8
L4
10
-55.42059297385083
20
-56.85617927496919
0
VERTEX
8
L4
10
-55.42059297385083
20
-56.97813049448139
0
VERTEX
8
L4
10
-55.39620272994839
20
-56.97813049448139
0
VERTEX
8
L4
10
-55.39620272994839
20
-57.707317073170735
0
VERTEX
8
L4
10
-55.663369769490245
20
-57.707317073170735
0
VERTEX
8
L4
10
-55.663369769490245
20
-56.673252445700896
0
VERTEX
8
L4
10
-54.99376370555815
20
-56.673252445700896
0
VERTEX
8
L4
10
-54.99376370555815
20
-57.707317073170735
0
VERTEX
8
L4
10
-54.50538829497565
20
-57.707317073170735
0
VERTEX
8
L4
10
-54.50538829497565
20
-57.07317073170733
0
VERTEX
8
L4
10
-54.62733951448784
20
-57.07317073170733
0
VERTEX
8
L4
10
-54.62733951448784
20
-57.19512195121952
0
SEQEND
0
POLYLINE
8
L4
66
1
70
1
0
VERTEX
8
L4
10
-54.24794401527814
20
-57.19512195121951
0
VERTEX
8
L4
10
-54.24794401527814
20
-57.073170731707314
0
VERTEX
8
L4
10
-54.369895234790334
20
-57.073170731707314
0
VERTEX
8
L4
10
-54.369895234790334
20
-57.68292682926829
0
VERTEX
8
L4
10
-53.84394937036131
20
-57.68292682926829
0
VERTEX
8
L4
10
-53.84394937036131
20
-56.52439024390244
0
VERTEX
8
L4
10
-53.79268292682926
20
-56.52439024390244
0
VERTEX
8
L4
10
-53.79268292682926
20
-56.28048780487804
0
VERTEX
8
L4
10
-53.94151034597106
20
-56.28048780487804
0
VERTEX
8
L4
10
-53.94151034597106
20
-57.58536585365854
0
VERTEX
8
L4
10
-54.272334259180575
20
-57.58536585365854
0
VERTEX
8
L4
10
-54.272334259180575
20
-57.19512195121951
0
VERTEX
8
L4
10
-54.24794401527814
20
-57.19512195121951
0
SEQEND
0
POLYLINE
8
L4
66
1
70
1
0
VERTEX
8
L4
10
-51.05693403350234
20
-55.60975609756098
0
VERTEX
8
L4
10
-51.05693403350234
20
-54.99999999999999
0
VERTEX
8
L4
10
-51.521904288175264
20
-54.99999999999999
0
VERTEX
8
L4
10
-51.521904288175264
20
-56.15853658536585
0
VERTEX
8
L4
10
-51.573170731707314
20
-56.15853658536585
0
VERTEX
8
L4
10
-51.573170731707314
20
-56.40243902439024
0
VERTEX
8
L4
10
-51.42434331256551
20
-56.40243902439024
0
VERTEX
8
L4
10
-51.42434331256551
20
-55.097560975609746
0
VERTEX
8
L4
10
-51.1544950091121
20
-55.097560975609746
0
VERTEX
8
L4
10
-51.1544950091121
20
-55.487804878048784
0
VERTEX
8
L4
10
-51.178885253014535
20
-55.487804878048784
0
VERTEX
8
L4
10
-51.178885253014535
20
-55.60975609756098
0
VERTEX
8
L4
10
-51.05693403350234
20
-55.60975609756098
0
SEQEND
0
POLYLINE
8
L4
66
1
70
1
0
VERTEX
8
L4
10
-48.755836519334956
20
-55.60975609756097
0
VERTEX
8
L4
10
-48.755836519334956
20
-55.48780487804877
0
VERTEX
8
L4
10
-48.780226763237394
20
-55.48780487804877
0
VERTEX
8
L4
10
-48.780226763237394
20
-55.097560975609746
0
VERTEX
8
L4
10
-48.614036996369336
20
-55.097560975609746
0
VERTEX
8
L4
10
-48.614036996369336
20
-55.765771944543005
0
VERTEX
8
L4
10
-48.74505544353244
20
-55.765771944543005
0
VERTEX
8
L4
10
-48.74505544353244
20
-56.40243902439024
0
VERTEX
8
L4
10
-48.623104224020246
20
-56.40243902439024
0
VERTEX
8
L4
10
-48.623104224020246
20
-55.863332920152764
0
VERTEX
8
L4
10
-48.516476020759576
20
-55.863332920152764
0
VERTEX
8
L4
10
-48.516476020759576
20
-54.99999999999999
0
VERTEX
8
L4
10
-48.877787738847154
20
-54.99999999999999
0
VERTEX
8
L4
10
-48.877787738847154
20
-55.60975609756097
0
VERTEX
8
L4
10
-48.755836519334956
20
-55.60975609756097
0
SEQEND
0
POLYLINE
8
L4
66
1
70
1
0
VERTEX
8
L4
10
-50.100967742156584
20
-58.10975609756099
0
VERTEX
8
L4
10
-50.4968838766263
20
-58.10975609756099
0
VERTEX
8
L4
10
-50.4968838766263
20
-56.902439024390254
0
VERTEX
8
L4
10
-50.47249363272386
20
-56.902439024390254
0
VERTEX
8
L4
10
-50.47249363272386
20
-56.78048780487806
0
VERTEX
8
L4
10
-50.59444485223606
20
-56.78048780487806
0
VERTEX
8
L4
10
-50.59444485223606
20
-58.20731707317074
0
VERTEX
8
L4
10
-50.003406766546824
20
-58.20731707317074
0
VERTEX
8
L4
10
-50.00340676654681
20
-56.50000000000001
0
VERTEX
8
L4
10
-50.767139678418694
20
-56.50000000000001
0
VERTEX
8
L4
10
-50.767139678418694
20
-56.28048780487806
0
VERTEX
8
L4
10
-50.889090897930885
20
-56.28048780487806
0
VERTEX
8
L4
10
-50.889090897930885
20
-56.50000000000001
0
VERTEX
8
L4
10
-51.319732763799664
20
-56.50000000000001
0
VERTEX
8
L4
10
-51.319732763799664
20
-57.68292682926829
0
VERTEX
8
L4
10
-50.7671396784187
20
-57.68292682926829
0
VERTEX
8
L4
10
-50.767139678418694
20
-57.07317073170733
0
VERTEX
8
L4
10
-50.889090897930885
20
-57.07317073170733
0
VERTEX
8
L4
10
-50.889090897930885
20
-57.19512195121952
0
VERTEX
8
L4
10
-50.86470065402845
20
-57.19512195121952
0
VERTEX
8
L4
10
-50.86470065402846
20
-57.58536585365854
0
VERTEX
8
L4
10
-51.22217178818991
20
-57.58536585365854
0
VERTEX
8
L4
10
-51.22217178818991
20
-56.59756097560977
0
VERTEX
8
L4
10
-50.100967742156584
20
-56.59756097560977
0
VERTEX
8
L4
10
-50.100967742156584
20
-58.10975609756099
0
SEQEND
0
POLYLINE
8
L4
66
1
70
1
0
VERTEX
8
L4
10
-49.5888963639773
20
-55.60975609756097
0
VERTEX
8
L4
10
-49.5888963639773
20
-55.48780487804877
0
VERTEX
8
L4
10
-49.613286607879736
20
-55.48780487804877
0
VERTEX
8
L4
10
-49.613286607879736
20
-55.097560975609746
0
VERTEX
8
L4
10
-49.23977976784096
20
-55.097560975609746
0
VERTEX
8
L4
10
-49.23977976784096
20
-56.00967438356739
0
VERTEX
8
L4
10
-49.639090897930885
20
-56.00967438356739
0
VERTEX
8
L4
10
-49.639090897930885
20
-56.40243902439024
0
VERTEX
8
L4
10
-49.51713967841869
20
-56.40243902439024
0
VERTEX
8
L4
10
-49.51713967841869
20
-56.10723535917715
0
VERTEX
8
L4
10
-49.142218792231205
20
-56.10723535917715
0
VERTEX
8
L4
10
-49.142218792231205
20
-54.99999999999999
0
VERTEX
8
L4
10
-49.710847583489496
20
-54.99999999999999
0
VERTEX
8
L4
10
-49.710847583489496
20
-55.60975609756097
0
VERTEX
8
L4
10
-49.5888963639773
20
-55.60975609756097
0
SEQEND
0
POLYLINE
8
L4
66
1
70
1
0
VERTEX
8
L4
10
-49.838788633928566
20
-55.60975609756098
0
VERTEX
8
L4
10
-49.838788633928566
20
-54.99999999999999
0
VERTEX
8
L4
10
-50.8432800768013
20
-54.99999999999999
0
VERTEX
8
L4
10
-50.843280076801314
20
-56.10723535917715
0
VERTEX
8
L4
10
-50.31592016622357
20
-56.10723535917715
0
VERTEX
8
L4
10
-50.31592016622357
20
-56.402439024390254
0
VERTEX
8
L4
10
-50.19396894671137
20
-56.402439024390254
0
VERTEX
8
L4
10
-50.19396894671137
20
-56.00967438356739
0
VERTEX
8
L4
10
-50.745719101191554
20
-56.00967438356739
0
VERTEX
8
L4
10
-50.74571910119155
20
-55.097560975609746
0
VERTEX
8
L4
10
-49.936349609538325
20
-55.097560975609746
0
VERTEX
8
L4
10
-49.936349609538325
20
-55.487804878048784
0
VERTEX
8
L4
10
-49.960739853440764
20
-55.487804878048784
0
VERTEX
8
L4
10
-49.960739853440764
20
-55.60975609756098
0
VERTEX
8
L4
10
-49.838788633928566
20
-55.60975609756098
0
SEQEND
0
POLYLINE
8
L4
66
1
70
1
0
VERTEX
8
L4
10
-48.77368097790248
20
-57.19512195121952
0
VERTEX
8
L4
10
-48.74929073400004
20
-57.19512195121952
0
VERTEX
8
L4
10
-48.74929073400004
20
-57.609756097560975
0
VERTEX
8
L4
10
-49.04254419336303
20
-57.609756097560975
0
VERTEX
8
L4
10
-49.04254419336303
20
-56.673252445700896
0
VERTEX
8
L4
10
-48.970665199630076
20
-56.673252445700896
0
VERTEX
8
L4
10
-48.970665199630076
20
-56.28048780487806
0
VERTEX
8
L4
10
-49.092616419142274
20
-56.28048780487804
0
VERTEX
8
L4
10
-49.092616419142274
20
-56.575691470091144
0
VERTEX
8
L4
10
-49.90727220851464
20
-56.575691470091144
0
VERTEX
8
L4
10
-49.90727220851464
20
-57.804878048780495
0
VERTEX
8
L4
10
-49.444983217753276
20
-57.804878048780495
0
VERTEX
8
L4
10
-49.444983217753276
20
-56.85617927496919
0
VERTEX
8
L4
10
-49.56693443726547
20
-56.85617927496919
0
VERTEX
8
L4
10
-49.56693443726547
20
-56.97813049448139
0
VERTEX
8
L4
10
-49.54254419336303
20
-56.97813049448139
0
VERTEX
8
L4
10
-49.54254419336303
20
-57.707317073170735
0
VERTEX
8
L4
10
-49.80971123290488
20
-57.707317073170735
0
VERTEX
8
L4
10
-49.80971123290488
20
-56.673252445700896
0
VERTEX
8
L4
10
-49.14010516897279
20
-56.673252445700896
0
VERTEX
8
L4
10
-49.14010516897279
20
-57.707317073170735
0
VERTEX
8
L4
10
-48.65172975839029
20
-57.707317073170735
0
VERTEX
8
L4
10
-48.65172975839029
20
-57.07317073170733
0
VERTEX
8
L4
10
-48.77368097790248
20
-57.07317073170733
0
VERTEX
8
L4
10
-48.77368097790248
20
-57.19512195121952
0
SEQEND
0
POLYLINE
8
L4
66
1
70
1
0
VERTEX
8
L4
10
-48.39428547869277
20
-57.19512195121951
0
VERTEX
8
L4
10
-48.39428547869277
20
-57.073170731707314
0
VERTEX
8
L4
10
-48.51623669820497
20
-57.073170731707314
0
VERTEX
8
L4
10
-48.51623669820497
20
-57.68292682926829
0
VERTEX
8
L4
10
-47.990290833775944
20
-57.68292682926829
0
VERTEX
8
L4
10
-47.990290833775944
20
-56.52439024390244
0
VERTEX
8
L4
10
-47.939024390243894
20
-56.52439024390244
0
VERTEX
8
L4
10
-47.939024390243894
20
-56.28048780487804
0
VERTEX
8
L4
10
-48.0878518093857
20
-56.28048780487804
0
VERTEX
8
L4
10
-48.0878518093857
20
-57.58536585365854
0
VERTEX
8
L4
10
-48.41867572259521
20
-57.58536585365854
0
VERTEX
8
L4
10
-48.41867572259521
20
-57.19512195121951
0
VERTEX
8
L4
10
-48.39428547869277
20
-57.19512195121951
0
SEQEND
0
POLYLINE
8
L4
66
1
70
1
0
VERTEX
8
L4
10
-45.20327549691697
20
-55.60975609756098
0
VERTEX
8
L4
10
-45.20327549691697
20
-54.99999999999999
0
VERTEX
8
L4
10
-45.66824575158989
20
-54.99999999999999
0
VERTEX
8
L4
10
-45.66824575158989
20
-56.15853658536585
0
VERTEX
8
L4
10
-45.71951219512195
20
-56.15853658536585
0
VERTEX
8
L4
10
-45.71951219512195
20
-56.40243902439024
0
VERTEX
8
L4
10
-45.57068477598014
20
-56.40243902439024
0
VERTEX
8
L4
10
-45.57068477598014
20
-55.097560975609746
0
VERTEX
8
L4
10
-45.300836472526726
20
-55.097560975609746
0
VERTEX
8
L4
10
-45.300836472526726
20
-55.487804878048784
0
VERTEX
8
L4
10
-45.32522671642916
20
-55.487804878048784
0
VERTEX
8
L4
10
-45.32522671642916
20
-55.60975609756098
0
VERTEX
8
L4
10
-45.20327549691697
20
-55.60975609756098
0
SEQEND
0
POLYLINE
8
L4
66
1
70
1
0
VERTEX
8
L4
10
-42.90217798274959
20
-55.60975609756097
0
VERTEX
8
L4
10
-42.90217798274959
20
-55.48780487804877
0
VERTEX
8
L4
10
-42.92656822665202
20
-55.48780487804877
0
VERTEX
8
L4
10
-42.92656822665202
20
-55.097560975609746
0
VERTEX
8
L4
10
-42.760378459783965
20
-55.097560975609746
0
VERTEX
8
L4
10
-42.760378459783965
20
-55.765771944543005
0
VERTEX
8
L4
10
-42.89139690694708
20
-55.765771944543005
0
VERTEX
8
L4
10
-42.89139690694708
20
-56.40243902439024
0
VERTEX
8
L4
10
-42.76944568743488
20
-56.40243902439024
0
VERTEX
8
L4
10
-42.76944568743488
20
-55.863332920152764
0
VERTEX
8
L4
10
-42.66281748417421
20
-55.863332920152764
0
VERTEX
8
L4
10
-42.66281748417421
20
-54.99999999999999
0
VERTEX
8
L4
10
-43.024129202261776
20
-54.99999999999999
0
VERTEX
8
L4
10
-43.024129202261776
20
-55.60975609756097
0
VERTEX
8
L4
10
-42.90217798274959
20
-55.60975609756097
0
SEQEND
0
POLYLINE
8
L4
66
1
70
1
0
VERTEX
8
L4
10
-44.24730920557121
20
-58.10975609756099
0
VERTEX
8
L4
10
-44.64322534004093
20
-58.10975609756099
0
VERTEX
8
L4
10
-44.64322534004093
20
-56.902439024390254
0
VERTEX
8
L4
10
-44.6188350961385
20
-56.902439024390254
0
VERTEX
8
L4
10
-44.6188350961385
20
-56.78048780487806
0
VERTEX
8
L4
10
-44.74078631565068
20
-56.78048780487806
0
VERTEX
8
L4
10
-44.74078631565068
20
-58.20731707317074
0
VERTEX
8
L4
10
-44.14974822996146
20
-58.20731707317074
0
VERTEX
8
L4
10
-44.149748229961446
20
-56.50000000000001
0
VERTEX
8
L4
10
-44.913481141833316
20
-56.50000000000001
0
VERTEX
8
L4
10
-44.913481141833316
20
-56.28048780487806
0
VERTEX
8
L4
10
-45.035432361345514
20
-56.28048780487806
0
VERTEX
8
L4
10
-45.035432361345514
20
-56.50000000000001
0
VERTEX
8
L4
10
-45.46607422721429
20
-56.50000000000001
0
VERTEX
8
L4
10
-45.46607422721429
20
-57.68292682926829
0
VERTEX
8
L4
10
-44.91348114183333
20
-57.68292682926829
0
VERTEX
8
L4
10
-44.913481141833316
20
-57.07317073170733
0
VERTEX
8
L4
10
-45.035432361345514
20
-57.07317073170733
0
VERTEX
8
L4
10
-45.035432361345514
20
-57.19512195121952
0
VERTEX
8
L4
10
-45.01104211744308
20
-57.19512195121952
0
VERTEX
8
L4
10
-45.01104211744308
20
-57.58536585365854
0
VERTEX
8
L4
10
-45.36851325160454
20
-57.58536585365854
0
VERTEX
8
L4
10
-45.36851325160454
20
-56.59756097560977
0
VERTEX
8
L4
10
-44.24730920557121
20
-56.59756097560977
0
VERTEX
8
L4
10
-44.24730920557121
20
-58.10975609756099
0
SEQEND
0
POLYLINE
8
L4
66
1
70
1
0
VERTEX
8
L4
10
-43.73523782739193
20
-55.60975609756097
0
VERTEX
8
L4
10
-43.73523782739193
20
-55.48780487804877
0
VERTEX
8
L4
10
-43.75962807129437
20
-55.48780487804877
0
VERTEX
8
L4
10
-43.75962807129437
20
-55.097560975609746
0
VERTEX
8
L4
10
-43.386121231255586
20
-55.097560975609746
0
VERTEX
8
L4
10
-43.386121231255586
20
-56.00967438356739
0
VERTEX
8
L4
10
-43.785432361345514
20
-56.00967438356739
0
VERTEX
8
L4
10
-43.785432361345514
20
-56.40243902439024
0
VERTEX
8
L4
10
-43.663481141833316
20
-56.40243902439024
0
VERTEX
8
L4
10
-43.663481141833316
20
-56.10723535917715
0
VERTEX
8
L4
10
-43.288560255645834
20
-56.10723535917715
0
VERTEX
8
L4
10
-43.288560255645834
20
-54.99999999999999
0
VERTEX
8
L4
10
-43.857189046904125
20
-54.99999999999999
0
VERTEX
8
L4
10
-43.857189046904125
20
-55.60975609756097
0
VERTEX
8
L4
10
-43.73523782739193
20
-55.60975609756097
0
SEQEND
0
POLYLINE
8
L4
66
1
70
1
0
VERTEX
8
L4
10
-43.9851300973432
20
-55.60975609756098
0
VERTEX
8
L4
10
-43.9851300973432
20
-54.99999999999999
0
VERTEX
8
L4
10
-44.989621540215936
20
-54.99999999999999
0
VERTEX
8
L4
10
-44.989621540215936
20
-56.10723535917715
0
VERTEX
8
L4
10
-44.46226162963819
20
-56.10723535917715
0
VERTEX
8
L4
10
-44.46226162963819
20
-56.402439024390254
0
VERTEX
8
L4
10
-44.34031041012601
20
-56.402439024390254
0
VERTEX
8
L4
10
-44.34031041012601
20
-56.00967438356739
0
VERTEX
8
L4
10
-44.89206056460618
20
-56.00967438356739
0
VERTEX
8
L4
10
-44.89206056460617
20
-55.097560975609746
0
VERTEX
8
L4
10
-44.082691072952954
20
-55.097560975609746
0
VERTEX
8
L4
10
-44.082691072952954
20
-55.487804878048784
0
VERTEX
8
L4
10
-44.1070813168554
20
-55.487804878048784
0
VERTEX
8
L4
10
-44.1070813168554
20
-55.60975609756098
0
VERTEX
8
L4
10
-43.9851300973432
20
-55.60975609756098
0
SEQEND
0
POLYLINE
8
L4
66
1
70
1
0
VERTEX
8
L4
10
-42.920022441317116
20
-57.19512195121952
0
VERTEX
8
L4
10
-42.89563219741467
20
-57.19512195121952
0
VERTEX
8
L4
10
-42.89563219741467
20
-57.609756097560975
0
VERTEX
8
L4
10
-43.18888565677766
20
-57.609756097560975
0
VERTEX
8
L4
10
-43.18888565677766
20
-56.673252445700896
0
VERTEX
8
L4
10
-43.117006663044705
20
-56.673252445700896
0
VERTEX
8
L4
10
-43.117006663044705
20
-56.28048780487806
0
VERTEX
8
L4
10
-43.2389578825569
20
-56.28048780487804
0
VERTEX
8
L4
10
-43.2389578825569
20
-56.575691470091144
0
VERTEX
8
L4
10
-44.05361367192927
20
-56.575691470091144
0
VERTEX
8
L4
10
-44.05361367192927
20
-57.804878048780495
0
VERTEX
8
L4
10
-43.591324681167904
20
-57.804878048780495
0
VERTEX
8
L4
10
-43.591324681167904
20
-56.85617927496919
0
VERTEX
8
L4
10
-43.7132759006801
20
-56.85617927496919
0
VERTEX
8
L4
10
-43.7132759006801
20
-56.97813049448139
0
VERTEX
8
L4
10
-43.68888565677766
20
-56.97813049448139
0
VERTEX
8
L4
10
-43.68888565677766
20
-57.707317073170735
0
VERTEX
8
L4
10
-43.95605269631952
20
-57.707317073170735
0
VERTEX
8
L4
10
-43.95605269631952
20
-56.673252445700896
0
VERTEX
8
L4
10
-43.28644663238741
20
-56.673252445700896
0
VERTEX
8
L4
10
-43.28644663238741
20
-57.707317073170735
0
VERTEX
8
L4
10
-42.79807122180492
20
-57.707317073170735
0
VERTEX
8
L4
10
-42.79807122180492
20
-57.07317073170733
0
VERTEX
8
L4
10
-42.920022441317116
20
-57.07317073170733
0
VERTEX
8
L4
10
-42.920022441317116
20
-57.19512195121952
0
SEQEND
0
POLYLINE
8
L4
66
1
70
1
0
VERTEX
8
L4
10
-42.54062694210741
20
-57.19512195121951
0
VERTEX
8
L4
10
-42.54062694210741
20
-57.073170731707314
0
VERTEX
8
L4
10
-42.66257816161959
20
-57.073170731707314
0
VERTEX
8
L4
10
-42.66257816161959
20
-57.68292682926829
0
VERTEX
8
L4
10
-42.13663229719057
20
-57.68292682926829
0
VERTEX
8
L4
10
-42.13663229719057
20
-56.52439024390244
0
VERTEX
8
L4
10
-42.08536585365853
20
-56.52439024390244
0
VERTEX
8
L4
10
-42.08536585365853
20
-56.28048780487804
0
VERTEX
8
L4
10
-42.234193272800326
20
-56.28048780487804
0
VERTEX
8
L4
10
-42.234193272800326
20
-57.58536585365854
0
VERTEX
8
L4
10
-42.56501718600984
20
-57.58536585365854
0
VERTEX
8
L4
10
-42.56501718600984
20
-57.19512195121951
0
VERTEX
8
L4
10
-42.54062694210741
20
-57.19512195121951
0
SEQEND
0
POLYLINE
8
L4
66
1
70
1
0
VERTEX
8
L4
10
-39.349616960331616
20
-55.60975609756098
0
VERTEX
8
L4
10
-39.349616960331616
20
-54.99999999999999
0
VERTEX
8
L4
10
-39.814587215004536
20
-54.99999999999999
0
VERTEX
8
L4
10
-39.814587215004536
20
-56.15853658536585
0
VERTEX
8
L4
10
-39.865853658536594
20
-56.15853658536585
0
VERTEX
8
L4
10
-39.865853658536594
20
-56.40243902439024
0
VERTEX
8
L4
10
-39.717026239394784
20
-56.40243902439024
0
VERTEX
8
L4
10
-39.717026239394784
20
-55.097560975609746
0
VERTEX
8
L4
10
-39.44717793594137
20
-55.097560975609746
0
VERTEX
8
L4
10
-39.44717793594137
20
-55.487804878048784
0
VERTEX
8
L4
10
-39.4715681798438
20
-55.487804878048784
0
VERTEX
8
L4
10
-39.4715681798438
20
-55.60975609756098
0
VERTEX
8
L4
10
-39.349616960331616
20
-55.60975609756098
0
SEQEND
0
POLYLINE
8
L4
66
1
70
1
0
VERTEX
8
L4
10
-37.048519446164235
20
-55.60975609756097
0
VERTEX
8
L4
10
-37.048519446164235
20
-55.48780487804877
0
VERTEX
8
L4
10
-37.072909690066666
20
-55.48780487804877
0
VERTEX
8
L4
10
-37.072909690066666
20
-55.097560975609746
0
VERTEX
8
L4
10
-36.90671992319861
20
-55.097560975609746
0
VERTEX
8
L4
10
-36.90671992319861
20
-55.765771944543005
0
VERTEX
8
L4
10
-37.03773837036172
20
-55.765771944543005
0
VERTEX
8
L4
10
-37.03773837036172
20
-56.40243902439024
0
VERTEX
8
L4
10
-36.915787150849525
20
-56.40243902439024
0
VERTEX
8
L4
10
-36.915787150849525
20
-55.863332920152764
0
VERTEX
8
L4
10
-36.809158947588855
20
-55.863332920152764
0
VERTEX
8
L4
10
-36.809158947588855
20
-54.99999999999999
0
VERTEX
8
L4
10
-37.17047066567642
20
-54.99999999999999
0
VERTEX
8
L4
10
-37.17047066567642
20
-55.60975609756097
0
VERTEX
8
L4
10
-37.048519446164235
20
-55.60975609756097
0
SEQEND
0
POLYLINE
8
L4
66
1
70
1
0
VERTEX
8
L4
10
-38.393650668985856
20
-58.10975609756099
0
VERTEX
8
L4
10
-38.78956680345557
20
-58.10975609756099
0
VERTEX
8
L4
10
-38.78956680345557
20
-56.902439024390254
0
VERTEX
8
L4
10
-38.76517655955314
20
-56.902439024390254
0
VERTEX
8
L4
10
-38.76517655955314
20
-56.78048780487806
0
VERTEX
8
L4
10
-38.887127779065324
20
-56.78048780487806
0
VERTEX
8
L4
10
-38.887127779065324
20
-58.20731707317074
0
VERTEX
8
L4
10
-38.2960896933761
20
-58.20731707317074
0
VERTEX
8
L4
10
-38.29608969337609
20
-56.50000000000001
0
VERTEX
8
L4
10
-39.05982260524796
20
-56.50000000000001
0
VERTEX
8
L4
10
-39.05982260524796
20
-56.28048780487806
0
VERTEX
8
L4
10
-39.18177382476016
20
-56.28048780487806
0
VERTEX
8
L4
10
-39.18177382476016
20
-56.50000000000001
0
VERTEX
8
L4
10
-39.612415690628936
20
-56.50000000000001
0
VERTEX
8
L4
10
-39.612415690628936
20
-57.68292682926829
0
VERTEX
8
L4
10
-39.05982260524797
20
-57.68292682926829
0
VERTEX
8
L4
10
-39.05982260524796
20
-57.07317073170733
0
VERTEX
8
L4
10
-39.18177382476016
20
-57.07317073170733
0
VERTEX
8
L4
10
-39.18177382476016
20
-57.19512195121952
0
VERTEX
8
L4
10
-39.157383580857726
20
-57.19512195121952
0
VERTEX
8
L4
10
-39.157383580857726
20
-57.58536585365854
0
VERTEX
8
L4
10
-39.51485471501918
20
-57.58536585365854
0
VERTEX
8
L4
10
-39.51485471501918
20
-56.59756097560977
0
VERTEX
8
L4
10
-38.393650668985856
20
-56.59756097560977
0
VERTEX
8
L4
10
-38.393650668985856
20
-58.10975609756099
0
SEQEND
0
POLYLINE
8
L4
66
1
70
1
0
VERTEX
8
L4
10
-37.88157929080657
20
-55.60975609756097
0
VERTEX
8
L4
10
-37.88157929080657
20
-55.48780487804877
0
VERTEX
8
L4
10
-37.905969534709016
20
-55.48780487804877
0
VERTEX
8
L4
10
-37.905969534709016
20
-55.097560975609746
0
VERTEX
8
L4
10
-37.53246269467023
20
-55.097560975609746
0
VERTEX
8
L4
10
-37.53246269467023
20
-56.00967438356739
0
VERTEX
8
L4
10
-37.93177382476016
20
-56.00967438356739
0
VERTEX
8
L4
10
-37.93177382476016
20
-56.40243902439024
0
VERTEX
8
L4
10
-37.80982260524796
20
-56.40243902439024
0
VERTEX
8
L4
10
-37.80982260524796
20
-56.10723535917715
0
VERTEX
8
L4
10
-37.43490171906048
20
-56.10723535917715
0
VERTEX
8
L4
10
-37.43490171906048
20
-54.99999999999999
0
VERTEX
8
L4
10
-38.00353051031877
20
-54.99999999999999
0
VERTEX
8
L4
10
-38.00353051031877
20
-55.60975609756097
0
VERTEX
8
L4
10
-37.88157929080657
20
-55.60975609756097
0
SEQEND
0
POLYLINE
8
L4
66
1
70
1
0
VERTEX
8
L4
10
-38.131471560757845
20
-55.60975609756098
0
VERTEX
8
L4
10
-38.131471560757845
20
-54.99999999999999
0
VERTEX
8
L4
10
-39.13596300363058
20
-54.99999999999999
0
VERTEX
8
L4
10
-39.13596300363058
20
-56.10723535917715
0
VERTEX
8
L4
10
-38.608603093052835
20
-56.10723535917715
0
VERTEX
8
L4
10
-38.608603093052835
20
-56.402439024390254
0
VERTEX
8
L4
10
-38.48665187354065
20
-56.402439024390254
0
VERTEX
8
L4
10
-38.48665187354065
20
-56.00967438356739
0
VERTEX
8
L4
10
-39.038402028020826
20
-56.00967438356739
0
VERTEX
8
L4
10
-39.03840202802081
20
-55.097560975609746
0
VERTEX
8
L4
10
-38.2290325363676
20
-55.097560975609746
0
VERTEX
8
L4
10
-38.2290325363676
20
-55.487804878048784
0
VERTEX
8
L4
10
-38.25342278027004
20
-55.487804878048784
0
VERTEX
8
L4
10
-38.25342278027004
20
-55.60975609756098
0
VERTEX
8
L4
10
-38.131471560757845
20
-55.60975609756098
0
SEQEND
0
POLYLINE
8
L4
66
1
70
1
0
VERTEX
8
L4
10
-37.06636390473176
20
-57.19512195121952
0
VERTEX
8
L4
10
-37.04197366082931
20
-57.19512195121952
0
VERTEX
8
L4
10
-37.04197366082931
20
-57.609756097560975
0
VERTEX
8
L4
10
-37.3352271201923
20
-57.609756097560975
0
VERTEX
8
L4
10
-37.3352271201923
20
-56.673252445700896
0
VERTEX
8
L4
10
-37.26334812645935
20
-56.673252445700896
0
VERTEX
8
L4
10
-37.26334812645935
20
-56.28048780487806
0
VERTEX
8
L4
10
-37.385299345971546
20
-56.28048780487804
0
VERTEX
8
L4
10
-37.385299345971546
20
-56.575691470091144
0
VERTEX
8
L4
10
-38.19995513534391
20
-56.575691470091144
0
VERTEX
8
L4
10
-38.19995513534391
20
-57.804878048780495
0
VERTEX
8
L4
10
-37.73766614458255
20
-57.804878048780495
0
VERTEX
8
L4
10
-37.73766614458255
20
-56.85617927496919
0
VERTEX
8
L4
10
-37.859617364094746
20
-56.85617927496919
0
VERTEX
8
L4
10
-37.859617364094746
20
-56.97813049448139
0
VERTEX
8
L4
10
-37.8352271201923
20
-56.97813049448139
0
VERTEX
8
L4
10
-37.8352271201923
20
-57.707317073170735
0
VERTEX
8
L4
10
-38.10239415973416
20
-57.707317073170735
0
VERTEX
8
L4
10
-38.10239415973416
20
-56.673252445700896
0
VERTEX
8
L4
10
-37.43278809580205
20
-56.673252445700896
0
VERTEX
8
L4
10
-37.43278809580205
20
-57.707317073170735
0
VERTEX
8
L4
10
-36.94441268521956
20
-57.707317073170735
0
VERTEX
8
L4
10
-36.94441268521956
20
-57.07317073170733
0
VERTEX
8
L4
10
-37.06636390473176
20
-57.07317073170733
0
VERTEX
8
L4
10
-37.06636390473176
20
-57.19512195121952
0
SEQEND
0
POLYLINE
8
L4
66
1
70
1
0
VERTEX
8
L4
10
-36.68696840552205
20
-57.19512195121951
0
VERTEX
8
L4
10
-36.68696840552205
20
-57.073170731707314
0
VERTEX
8
L4
10
-36.808919625034235
20
-57.073170731707314
0
VERTEX
8
L4
10
-36.808919625034235
20
-57.68292682926829
0
VERTEX
8
L4
10
-36.282973760605216
20
-57.68292682926829
0
VERTEX
8
L4
10
-36.282973760605216
20
-56.52439024390244
0
VERTEX
8
L4
10
-36.23170731707317
20
-56.52439024390244
0
VERTEX
8
L4
10
-36.23170731707317
20
-56.28048780487804
0
VERTEX
8
L4
10
-36.38053473621497
20
-56.28048780487804
0
VERTEX
8
L4
10
-36.38053473621497
20
-57.58536585365854
0
VERTEX
8
L4
10
-36.71135864942448
20
-57.58536585365854
0
VERTEX
8
L4
10
-36.71135864942448
20
-57.19512195121951
0
VERTEX
8
L4
10
-36.68696840552205
20
-57.19512195121951
0
SEQEND
0
POLYLINE
8
L4
66
1
70
1
0
VERTEX
8
L4
10
-33.495958423746245
20
-55.60975609756098
0
VERTEX
8
L4
10
-33.495958423746245
20
-54.99999999999999
0
VERTEX
8
L4
10
-33.960928678419165
20
-54.99999999999999
0
VERTEX
8
L4
10
-33.960928678419165
20
-56.15853658536585
0
VERTEX
8
L4
10
-34.01219512195122
20
-56.15853658536585
0
VERTEX
8
L4
10
-34.01219512195122
20
-56.40243902439024
0
VERTEX
8
L4
10
-33.86336770280941
20
-56.40243902439024
0
VERTEX
8
L4
10
-33.86336770280941
20
-55.097560975609746
0
VERTEX
8
L4
10
-33.593519399356
20
-55.097560975609746
0
VERTEX
8
L4
10
-33.593519399356
20
-55.487804878048784
0
VERTEX
8
L4
10
-33.61790964325843
20
-55.487804878048784
0
VERTEX
8
L4
10
-33.61790964325843
20
-55.60975609756098
0
VERTEX
8
L4
10
-33.495958423746245
20
-55.60975609756098
0
SEQEND
0
POLYLINE
8
L4
66
1
70
1
0
VERTEX
8
L4
10
-31.194860909578864
20
-55.60975609756097
0
VERTEX
8
L4
10
-31.194860909578864
20
-55.48780487804877
0
VERTEX
8
L4
10
-31.219251153481295
20
-55.48780487804877
0
VERTEX
8
L4
10
-31.219251153481295
20
-55.097560975609746
0
VERTEX
8
L4
10
-31.053061386613237
20
-55.097560975609746
0
VERTEX
8
L4
10
-31.053061386613237
20
-55.765771944543005
0
VERTEX
8
L4
10
-31.18407983377635
20
-55.765771944543005
0
VERTEX
8
L4
10
-31.18407983377635
20
-56.40243902439024
0
VERTEX
8
L4
10
-31.062128614264154
20
-56.40243902439024
0
VERTEX
8
L4
10
-31.062128614264154
20
-55.863332920152764
0
VERTEX
8
L4
10
-30.955500411003484
20
-55.863332920152764
0
VERTEX
8
L4
10
-30.955500411003484
20
-54.99999999999999
0
VERTEX
8
L4
10
-31.316812129091048
20
-54.99999999999999
0
VERTEX
8
L4
10
-31.316812129091048
20
-55.60975609756097
0
VERTEX
8
L4
10
-31.194860909578864
20
-55.60975609756097
0
SEQEND
0
POLYLINE
8
L4
66
1
70
1
0
VERTEX
8
L4
10
-32.539992132400485
20
-58.10975609756099
0
VERTEX
8
L4
10
-32.9359082668702
20
-58.10975609756099
0
VERTEX
8
L4
10
-32.9359082668702
20
-56.902439024390254
0
VERTEX
8
L4
10
-32.91151802296777
20
-56.902439024390254
0
VERTEX
8
L4
10
-32.91151802296777
20
-56.78048780487806
0
VERTEX
8
L4
10
-33.03346924247995
20
-56.78048780487806
0
VERTEX
8
L4
10
-33.03346924247995
20
-58.20731707317074
0
VERTEX
8
L4
10
-32.44243115679073
20
-58.20731707317074
0
VERTEX
8
L4
10
-32.44243115679072
20
-56.50000000000001
0
VERTEX
8
L4
10
-33.20616406866259
20
-56.50000000000001
0
VERTEX
8
L4
10
-33.20616406866259
20
-56.28048780487806
0
VERTEX
8
L4
10
-33.328115288174786
20
-56.28048780487806
0
VERTEX
8
L4
10
-33.328115288174786
20
-56.50000000000001
0
VERTEX
8
L4
10
-33.758757154043565
20
-56.50000000000001
0
VERTEX
8
L4
10
-33.758757154043565
20
-57.68292682926829
0
VERTEX
8
L4
10
-33.2061640686626
20
-57.68292682926829
0
VERTEX
8
L4
10
-33.20616406866259
20
-57.07317073170733
0
VERTEX
8
L4
10
-33.328115288174786
20
-57.07317073170733
0
VERTEX
8
L4
10
-33.328115288174786
20
-57.19512195121952
0
VERTEX
8
L4
10
-33.303725044272355
20
-57.19512195121952
0
VERTEX
8
L4
10
-33.303725044272355
20
-57.58536585365854
0
VERTEX
8
L4
10
-33.66119617843381
20
-57.58536585365854
0
VERTEX
8
L4
10
-33.66119617843381
20
-56.59756097560977
0
VERTEX
8
L4
10
-32.539992132400485
20
-56.59756097560977
0
VERTEX
8
L4
10
-32.539992132400485
20
-58.10975609756099
0
SEQEND
0
POLYLINE
8
L4
66
1
70
1
0
VERTEX
8
L4
10
-32.0279207542212
20
-55.60975609756097
0
VERTEX
8
L4
10
-32.0279207542212
20
-55.48780487804877
0
VERTEX
8
L4
10
-32.052310998123644
20
-55.48780487804877
0
VERTEX
8
L4
10
-32.052310998123644
20
-55.097560975609746
0
VERTEX
8
L4
10
-31.67880415808486
20
-55.097560975609746
0
VERTEX
8
L4
10
-31.67880415808486
20
-56.00967438356739
0
VERTEX
8
L4
10
-32.078115288174786
20
-56.00967438356739
0
VERTEX
8
L4
10
-32.078115288174786
20
-56.40243902439024
0
VERTEX
8
L4
10
-31.956164068662588
20
-56.40243902439024
0
VERTEX
8
L4
10
-31.956164068662588
20
-56.10723535917715
0
VERTEX
8
L4
10
-31.581243182475106
20
-56.10723535917715
0
VERTEX
8
L4
10
-31.581243182475106
20
-54.99999999999999
0
VERTEX
8
L4
10
-32.1498719737334
20
-54.99999999999999
0
VERTEX
8
L4
10
-32.1498719737334
20
-55.60975609756097
0
VERTEX
8
L4
10
-32.0279207542212
20
-55.60975609756097
0
SEQEND
0
POLYLINE
8
L4
66
1
70
1
0
VERTEX
8
L4
10
-32.277813024172474
20
-55.60975609756098
0
VERTEX
8
L4
10
-32.277813024172474
20
-54.99999999999999
0
VERTEX
8
L4
10
-33.28230446704521
20
-54.99999999999999
0
VERTEX
8
L4
10
-33.28230446704521
20
-56.10723535917715
0
VERTEX
8
L4
10
-32.754944556467464
20
-56.10723535917715
0
VERTEX
8
L4
10
-32.754944556467464
20
-56.402439024390254
0
VERTEX
8
L4
10
-32.63299333695528
20
-56.402439024390254
0
VERTEX
8
L4
10
-32.63299333695528
20
-56.00967438356739
0
VERTEX
8
L4
10
-33.184743491435455
20
-56.00967438356739
0
VERTEX
8
L4
10
-33.18474349143544
20
-55.097560975609746
0
VERTEX
8
L4
10
-32.37537399978223
20
-55.097560975609746
0
VERTEX
8
L4
10
-32.37537399978223
20
-55.487804878048784
0
VERTEX
8
L4
10
-32.39976424368467
20
-55.487804878048784
0
VERTEX
8
L4
10
-32.39976424368467
20
-55.60975609756098
0
VERTEX
8
L4
10
-32.277813024172474
20
-55.60975609756098
0
SEQEND
0
POLYLINE
8
L4
66
1
70
1
0
VERTEX
8
L4
10
-31.212705368146388
20
-57.19512195121952
0
VERTEX
8
L4
10
-31.188315124243942
20
-57.19512195121952
0
VERTEX
8
L4
10
-31.188315124243942
20
-57.609756097560975
0
VERTEX
8
L4
10
-31.48156858360693
20
-57.609756097560975
0
VERTEX
8
L4
10
-31.48156858360693
20
-56.673252445700896
0
VERTEX
8
L4
10
-31.409689589873977
20
-56.673252445700896
0
VERTEX
8
L4
10
-31.409689589873977
20
-56.28048780487806
0
VERTEX
8
L4
10
-31.531640809386175
20
-56.28048780487804
0
VERTEX
8
L4
10
-31.531640809386175
20
-56.575691470091144
0
VERTEX
8
L4
10
-32.34629659875854
20
-56.575691470091144
0
VERTEX
8
L4
10
-32.34629659875854
20
-57.804878048780495
0
VERTEX
8
L4
10
-31.884007607997177
20
-57.804878048780495
0
VERTEX
8
L4
10
-31.884007607997177
20
-56.85617927496919
0
VERTEX
8
L4
10
-32.005958827509374
20
-56.85617927496919
0
VERTEX
8
L4
10
-32.005958827509374
20
-56.97813049448139
0
VERTEX
8
L4
10
-31.98156858360693
20
-56.97813049448139
0
VERTEX
8
L4
10
-31.98156858360693
20
-57.707317073170735
0
VERTEX
8
L4
10
-32.24873562314879
20
-57.707317073170735
0
VERTEX
8
L4
10
-32.24873562314879
20
-56.673252445700896
0
VERTEX
8
L4
10
-31.579129559216682
20
-56.673252445700896
0
VERTEX
8
L4
10
-31.579129559216682
20
-57.707317073170735
0
VERTEX
8
L4
10
-31.09075414863419
20
-57.707317073170735
0
VERTEX
8
L4
10
-31.09075414863419
20
-57.07317073170733
0
VERTEX
8
L4
10
-31.212705368146388
20
-57.07317073170733
0
VERTEX
8
L4
10
-31.212705368146388
20
-57.19512195121952
0
SEQEND
0
POLYLINE
8
L4
66
1
70
1
0
VERTEX
8
L4
10
-30.83330986893668
20
-57.19512195121951
0
VERTEX
8
L4
10
-30.83330986893668
20
-57.073170731707314
0
VERTEX
8
L4
10
-30.955261088448864
20
-57.073170731707314
0
VERTEX
8
L4
10
-30.955261088448864
20
-57.68292682926829
0
VERTEX
8
L4
10
-30.429315224019845
20
-57.68292682926829
0
VERTEX
8
L4
10
-30.429315224019845
20
-56.52439024390244
0
VERTEX
8
L4
10
-30.378048780487802
20
-56.52439024390244
0
VERTEX
8
L4
10
-30.378048780487802
20
-56.28048780487804
0
VERTEX
8
L4
10
-30.526876199629598
20
-56.28048780487804
0
VERTEX
8
L4
10
-30.526876199629598
20
-57.58536585365854
0
VERTEX
8
L4
10
-30.85770011283911
20
-57.58536585365854
0
VERTEX
8
L4
10
-30.85770011283911
20
-57.19512195121951
0
VERTEX
8
L4
10
-30.83330986893668
20
-57.19512195121951
0
SEQEND
0
POLYLINE
8
L4
66
1
70
1
0
VERTEX
8
L4
10
-27.642299887160874
20
-55.60975609756098
0
VERTEX
8
L4
10
-27.642299887160874
20
-54.99999999999999
0
VERTEX
8
L4
10
-28.107270141833794
20
-54.99999999999999
0
VERTEX
8
L4
10
-28.107270141833794
20
-56.15853658536585
0
VERTEX
8
L4
10
-28.15853658536585
20
-56.15853658536585
0
VERTEX
8
L4
10
-28.15853658536585
20
-56.40243902439024
0
VERTEX
8
L4
10
-28.00970916622404
20
-56.40243902439024
0
VERTEX
8
L4
10
-28.00970916622404
20
-55.097560975609746
0
VERTEX
8
L4
10
-27.739860862770627
20
-55.097560975609746
0
VERTEX
8
L4
10
-27.739860862770627
20
-55.487804878048784
0
VERTEX
8
L4
10
-27.764251106673058
20
-55.487804878048784
0
VERTEX
8
L4
10
-27.764251106673058
20
-55.60975609756098
0
VERTEX
8
L4
10
-27.642299887160874
20
-55.60975609756098
0
SEQEND
0
POLYLINE
8
L4
66
1
70
1
0
VERTEX
8
L4
10
-25.341202372993493
20
-55.60975609756097
0
VERTEX
8
L4
10
-25.341202372993493
20
-55.48780487804877
0
VERTEX
8
L4
10
-25.365592616895924
20
-55.48780487804877
0
VERTEX
8
L4
10
-25.365592616895924
20
-55.097560975609746
0
VERTEX
8
L4
10
-25.199402850027866
20
-55.097560975609746
0
VERTEX
8
L4
10
-25.199402850027866
20
-55.765771944543005
0
VERTEX
8
L4
10
-25.33042129719098
20
-55.765771944543005
0
VERTEX
8
L4
10
-25.33042129719098
20
-56.40243902439024
0
VERTEX
8
L4
10
-25.208470077678783
20
-56.40243902439024
0
VERTEX
8
L4
10
-25.208470077678783
20
-55.863332920152764
0
VERTEX
8
L4
10
-25.101841874418113
20
-55.863332920152764
0
VERTEX
8
L4
10
-25.101841874418113
20
-54.99999999999999
0
VERTEX
8
L4
10
-25.463153592505677
20
-54.99999999999999
0
VERTEX
8
L4
10
-25.463153592505677
20
-55.60975609756097
0
VERTEX
8
L4
10
-25.341202372993493
20
-55.60975609756097
0
SEQEND
0
POLYLINE
8
L4
66
1
70
1
0
VERTEX
8
L4
10
-26.686333595815114
20
-58.10975609756099
0
VERTEX
8
L4
10
-27.08224973028483
20
-58.10975609756099
0
VERTEX
8
L4
10
-27.08224973028483
20
-56.902439024390254
0
VERTEX
8
L4
10
-27.057859486382398
20
-56.902439024390254
0
VERTEX
8
L4
10
-27.057859486382398
20
-56.78048780487806
0
VERTEX
8
L4
10
-27.17981070589458
20
-56.78048780487806
0
VERTEX
8
L4
10
-27.17981070589458
20
-58.20731707317074
0
VERTEX
8
L4
10
-26.58877262020536
20
-58.20731707317074
0
VERTEX
8
L4
10
-26.588772620205347
20
-56.50000000000001
0
VERTEX
8
L4
10
-27.352505532077217
20
-56.50000000000001
0
VERTEX
8
L4
10
-27.352505532077217
20
-56.28048780487806
0
VERTEX
8
L4
10
-27.474456751589415
20
-56.28048780487806
0
VERTEX
8
L4
10
-27.474456751589415
20
-56.50000000000001
0
VERTEX
8
L4
10
-27.905098617458194
20
-56.50000000000001
0
VERTEX
8
L4
10
-27.905098617458194
20
-57.68292682926829
0
VERTEX
8
L4
10
-27.35250553207723
20
-57.68292682926829
0
VERTEX
8
L4
10
-27.352505532077217
20
-57.07317073170733
0
VERTEX
8
L4
10
-27.474456751589415
20
-57.07317073170733
0
VERTEX
8
L4
10
-27.474456751589415
20
-57.19512195121952
0
VERTEX
8
L4
10
-27.450066507686984
20
-57.19512195121952
0
VERTEX
8
L4
10
-27.450066507686984
20
-57.58536585365854
0
VERTEX
8
L4
10
-27.80753764184844
20
-57.58536585365854
0
VERTEX
8
L4
10
-27.80753764184844
20
-56.59756097560977
0
VERTEX
8
L4
10
-26.686333595815114
20
-56.59756097560977
0
VERTEX
8
L4
10
-26.686333595815114
20
-58.10975609756099
0
SEQEND
0
POLYLINE
8
L4
66
1
70
1
0
VERTEX
8
L4
10
-26.174262217635828
20
-55.60975609756097
0
VERTEX
8
L4
10
-26.174262217635828
20
-55.48780487804877
0
VERTEX
8
L4
10
-26.198652461538273
20
-55.48780487804877
0
VERTEX
8
L4
10
-26.198652461538273
20
-55.097560975609746
0
VERTEX
8
L4
10
-25.825145621499487
20
-55.097560975609746
0
VERTEX
8
L4
10
-25.825145621499487
20
-56.00967438356739
0
VERTEX
8
L4
10
-26.224456751589415
20
-56.00967438356739
0
VERTEX
8
L4
10
-26.224456751589415
20
-56.40243902439024
0
VERTEX
8
L4
10
-26.102505532077217
20
-56.40243902439024
0
VERTEX
8
L4
10
-26.102505532077217
20
-56.10723535917715
0
VERTEX
8
L4
10
-25.727584645889735
20
-56.10723535917715
0
VERTEX
8
L4
10
-25.727584645889735
20
-54.99999999999999
0
VERTEX
8
L4
10
-26.296213437148026
20
-54.99999999999999
0
VERTEX
8
L4
10
-26.296213437148026
20
-55.60975609756097
0
VERTEX
8
L4
10
-26.174262217635828
20
-55.60975609756097
0
SEQEND
0
POLYLINE
8
L4
66
1
70
1
0
VERTEX
8
L4
10
-26.424154487587103
20
-55.60975609756098
0
VERTEX
8
L4
10
-26.424154487587103
20
-54.99999999999999
0
VERTEX
8
L4
10
-27.428645930459837
20
-54.99999999999999
0
VERTEX
8
L4
10
-27.428645930459837
20
-56.10723535917715
0
VERTEX
8
L4
10
-26.901286019882093
20
-56.10723535917715
0
VERTEX
8
L4
10
-26.901286019882093
20
-56.402439024390254
0
VERTEX
8
L4
10
-26.77933480036991
20
-56.402439024390254
0
VERTEX
8
L4
10
-26.77933480036991
20
-56.00967438356739
0
VERTEX
8
L4
10
-27.331084954850084
20
-56.00967438356739
0
VERTEX
8
L4
10
-27.33108495485007
20
-55.097560975609746
0
VERTEX
8
L4
10
-26.521715463196855
20
-55.097560975609746
0
VERTEX
8
L4
10
-26.521715463196855
20
-55.487804878048784
0
VERTEX
8
L4
10
-26.5461057070993
20
-55.487804878048784
0
VERTEX
8
L4
10
-26.5461057070993
20
-55.60975609756098
0
VERTEX
8
L4
10
-26.424154487587103
20
-55.60975609756098
0
SEQEND
0
POLYLINE
8
L4
66
1
70
1
0
VERTEX
8
L4
10
-25.359046831561017
20
-57.19512195121952
0
VERTEX
8
L4
10
-25.33465658765857
20
-57.19512195121952
0
VERTEX
8
L4
10
-25.33465658765857
20
-57.609756097560975
0
VERTEX
8
L4
10
-25.627910047021558
20
-57.609756097560975
0
VERTEX
8
L4
10
-25.627910047021558
20
-56.673252445700896
0
VERTEX
8
L4
10
-25.556031053288606
20
-56.673252445700896
0
VERTEX
8
L4
10
-25.556031053288606
20
-56.28048780487806
0
VERTEX
8
L4
10
-25.677982272800804
20
-56.28048780487804
0
VERTEX
8
L4
10
-25.677982272800804
20
-56.575691470091144
0
VERTEX
8
L4
10
-26.49263806217317
20
-56.575691470091144
0
VERTEX
8
L4
10
-26.49263806217317
20
-57.804878048780495
0
VERTEX
8
L4
10
-26.030349071411806
20
-57.804878048780495
0
VERTEX
8
L4
10
-26.030349071411806
20
-56.85617927496919
0
VERTEX
8
L4
10
-26.152300290924003
20
-56.85617927496919
0
VERTEX
8
L4
10
-26.152300290924003
20
-56.97813049448139
0
VERTEX
8
L4
10
-26.127910047021558
20
-56.97813049448139
0
VERTEX
8
L4
10
-26.127910047021558
20
-57.707317073170735
0
VERTEX
8
L4
10
-26.39507708656342
20
-57.707317073170735
0
VERTEX
8
L4
10
-26.39507708656342
20
-56.673252445700896
0
VERTEX
8
L4
10
-25.72547102263131
20
-56.673252445700896
0
VERTEX
8
L4
10
-25.72547102263131
20
-57.707317073170735
0
VERTEX
8
L4
10
-25.23709561204882
20
-57.707317073170735
0
VERTEX
8
L4
10
-25.23709561204882
20
-57.07317073170733
0
VERTEX
8
L4
10
-25.359046831561017
20
-57.07317073170733
0
VERTEX
8
L4
10
-25.359046831561017
20
-57.19512195121952
0
SEQEND
0
POLYLINE
8
L4
66
1
70
1
0
VERTEX
8
L4
10
-24.97965133235131
20
-57.19512195121951
0
VERTEX
8
L4
10
-24.97965133235131
20
-57.073170731707314
0
VERTEX
8
L4
10
-25.101602551863493
20
-57.073170731707314
0
VERTEX
8
L4
10
-25.101602551863493
20
-57.68292682926829
0
VERTEX
8
L4
10
-24.575656687434474
20
-57.68292682926829
0
VERTEX
8
L4
10
-24.575656687434474
20
-56.52439024390244
0
VERTEX
8
L4
10
-24.52439024390243
20
-56.52439024390244
0
VERTEX
8
L4
10
-24.52439024390243
20
-56.28048780487804
0
VERTEX
8
L4
10
-24.673217663044227
20
-56.28048780487804
0
VERTEX
8
L4
10
-24.673217663044227
20
-57.58536585365854
0
VERTEX
8
L4
10
-25.00404157625374
20
-57.58536585365854
0
VERTEX
8
L4
10
-25.00404157625374
20
-57.19512195121951
0
VERTEX
8
L4
10
-24.97965133235131
20
-57.19512195121951
0
SEQEND
0
POLYLINE
8
L4
66
1
70
1
0
VERTEX
8
L4
10
-21.788641350575517
20
-55.60975609756098
0
VERTEX
8
L4
10
-21.788641350575517
20
-54.99999999999999
0
VERTEX
8
L4
10
-22.253611605248437
20
-54.99999999999999
0
VERTEX
8
L4
10
-22.253611605248437
20
-56.15853658536585
0
VERTEX
8
L4
10
-22.304878048780495
20
-56.15853658536585
0
VERTEX
8
L4
10
-22.304878048780495
20
-56.40243902439024
0
VERTEX
8
L4
10
-22.156050629638685
20
-56.40243902439024
0
VERTEX
8
L4
10
-22.156050629638685
20
-55.097560975609746
0
VERTEX
8
L4
10
-21.88620232618527
20
-55.097560975609746
0
VERTEX
8
L4
10
-21.88620232618527
20
-55.487804878048784
0
VERTEX
8
L4
10
-21.9105925700877
20
-55.487804878048784
0
VERTEX
8
L4
10
-21.9105925700877
20
-55.60975609756098
0
VERTEX
8
L4
10
-21.788641350575517
20
-55.60975609756098
0
SEQEND
0
POLYLINE
8
L4
66
1
70
1
0
VERTEX
8
L4
10
-19.487543836408136
20
-55.60975609756097
0
VERTEX
8
L4
10
-19.487543836408136
20
-55.48780487804877
0
VERTEX
8
L4
10
-19.511934080310567
20
-55.48780487804877
0
VERTEX
8
L4
10
-19.511934080310567
20
-55.097560975609746
0
VERTEX
8
L4
10
-19.34574431344251
20
-55.097560975609746
0
VERTEX
8
L4
10
-19.34574431344251
20
-55.765771944543005
0
VERTEX
8
L4
10
-19.476762760605624
20
-55.765771944543005
0
VERTEX
8
L4
10
-19.476762760605624
20
-56.40243902439024
0
VERTEX
8
L4
10
-19.354811541093426
20
-56.40243902439024
0
VERTEX
8
L4
10
-19.354811541093426
20
-55.863332920152764
0
VERTEX
8
L4
10
-19.248183337832756
20
-55.863332920152764
0
VERTEX
8
L4
10
-19.248183337832756
20
-54.99999999999999
0
VERTEX
8
L4
10
-19.60949505592032
20
-54.99999999999999
0
VERTEX
8
L4
10
-19.60949505592032
20
-55.60975609756097
0
VERTEX
8
L4
10
-19.487543836408136
20
-55.60975609756097
0
SEQEND
0
POLYLINE
8
L4
66
1
70
1
0
VERTEX
8
L4
10
-20.832675059229757
20
-58.10975609756099
0
VERTEX
8
L4
10
-21.228591193699472
20
-58.10975609756099
0
VERTEX
8
L4
10
-21.228591193699472
20
-56.902439024390254
0
VERTEX
8
L4
10
-21.20420094979704
20
-56.902439024390254
0
VERTEX
8
L4
10
-21.20420094979704
20
-56.78048780487806
0
VERTEX
8
L4
10
-21.326152169309225
20
-56.78048780487806
0
VERTEX
8
L4
10
-21.326152169309225
20
-58.20731707317074
0
VERTEX
8
L4
10
-20.735114083620005
20
-58.20731707317074
0
VERTEX
8
L4
10
-20.73511408361999
20
-56.50000000000001
0
VERTEX
8
L4
10
-21.49884699549186
20
-56.50000000000001
0
VERTEX
8
L4
10
-21.49884699549186
20
-56.28048780487806
0
VERTEX
8
L4
10
-21.620798215004058
20
-56.28048780487806
0
VERTEX
8
L4
10
-21.620798215004058
20
-56.50000000000001
0
VERTEX
8
L4
10
-22.051440080872837
20
-56.50000000000001
0
VERTEX
8
L4
10
-22.051440080872837
20
-57.68292682926829
0
VERTEX
8
L4
10
-21.498846995491874
20
-57.68292682926829
0
VERTEX
8
L4
10
-21.49884699549186
20
-57.07317073170733
0
VERTEX
8
L4
10
-21.620798215004058
20
-57.07317073170733
0
VERTEX
8
L4
10
-21.620798215004058
20
-57.19512195121952
0
VERTEX
8
L4
10
-21.596407971101627
20
-57.19512195121952
0
VERTEX
8
L4
10
-21.596407971101627
20
-57.58536585365854
0
VERTEX
8
L4
10
-21.953879105263084
20
-57.58536585365854
0
VERTEX
8
L4
10
-21.953879105263084
20
-56.59756097560977
0
VERTEX
8
L4
10
-20.832675059229757
20
-56.59756097560977
0
VERTEX
8
L4
10
-20.832675059229757
20
-58.10975609756099
0
SEQEND
0
POLYLINE
8
L4
66
1
70
1
0
VERTEX
8
L4
10
-20.32060368105047
20
-55.60975609756097
0
VERTEX
8
L4
10
-20.32060368105047
20
-55.48780487804877
0
VERTEX
8
L4
10
-20.344993924952917
20
-55.48780487804877
0
VERTEX
8
L4
10
-20.344993924952917
20
-55.097560975609746
0
VERTEX
8
L4
10
-19.97148708491413
20
-55.097560975609746
0
VERTEX
8
L4
10
-19.97148708491413
20
-56.00967438356739
0
VERTEX
8
L4
10
-20.370798215004058
20
-56.00967438356739
0
VERTEX
8
L4
10
-20.370798215004058
20
-56.40243902439024
0
VERTEX
8
L4
10
-20.24884699549186
20
-56.40243902439024
0
VERTEX
8
L4
10
-20.24884699549186
20
-56.10723535917715
0
VERTEX
8
L4
10
-19.873926109304378
20
-56.10723535917715
0
VERTEX
8
L4
10
-19.873926109304378
20
-54.99999999999999
0
VERTEX
8
L4
10
-20.44255490056267
20
-54.99999999999999
0
VERTEX
8
L4
10
-20.44255490056267
20
-55.60975609756097
0
VERTEX
8
L4
10
-20.32060368105047
20
-55.60975609756097
0
SEQEND
0
POLYLINE
8
L4
66
1
70
1
0
VERTEX
8
L4
10
-20.570495951001746
20
-55.60975609756098
0
VERTEX
8
L4
10
-20.570495951001746
20
-54.99999999999999
0
VERTEX
8
L4
10
-21.57498739387448
20
-54.99999999999999
0
VERTEX
8
L4
10
-21.57498739387448
20
-56.10723535917715
0
VERTEX
8
L4
10
-21.047627483296736
20
-56.10723535917715
0
VERTEX
8
L4
10
-21.047627483296736
20
-56.402439024390254
0
VERTEX
8
L4
10
-20.925676263784553
20
-56.402439024390254
0
VERTEX
8
L4
10
-20.925676263784553
20
-56.00967438356739
0
VERTEX
8
L4
10
-21.477426418264727
20
-56.00967438356739
0
VERTEX
8
L4
10
-21.477426418264713
20
-55.097560975609746
0
VERTEX
8
L4
10
-20.6680569266115
20
-55.097560975609746
0
VERTEX
8
L4
10
-20.6680569266115
20
-55.487804878048784
0
VERTEX
8
L4
10
-20.692447170513944
20
-55.487804878048784
0
VERTEX
8
L4
10
-20.692447170513944
20
-55.60975609756098
0
VERTEX
8
L4
10
-20.570495951001746
20
-55.60975609756098
0
SEQEND
0
POLYLINE
8
L4
66
1
70
1
0
VERTEX
8
L4
10
-19.50538829497566
20
-57.19512195121952
0
VERTEX
8
L4
10
-19.480998051073215
20
-57.19512195121952
0
VERTEX
8
L4
10
-19.480998051073215
20
-57.609756097560975
0
VERTEX
8
L4
10
-19.7742515104362
20
-57.609756097560975
0
VERTEX
8
L4
10
-19.7742515104362
20
-56.673252445700896
0
VERTEX
8
L4
10
-19.70237251670325
20
-56.673252445700896
0
VERTEX
8
L4
10
-19.70237251670325
20
-56.28048780487806
0
VERTEX
8
L4
10
-19.824323736215447
20
-56.28048780487804
0
VERTEX
8
L4
10
-19.824323736215447
20
-56.575691470091144
0
VERTEX
8
L4
10
-20.638979525587814
20
-56.575691470091144
0
VERTEX
8
L4
10
-20.638979525587814
20
-57.804878048780495
0
VERTEX
8
L4
10
-20.17669053482645
20
-57.804878048780495
0
VERTEX
8
L4
10
-20.17669053482645
20
-56.85617927496919
0
VERTEX
8
L4
10
-20.298641754338647
20
-56.85617927496919
0
VERTEX
8
L4
10
-20.298641754338647
20
-56.97813049448139
0
VERTEX
8
L4
10
-20.2742515104362
20
-56.97813049448139
0
VERTEX
8
L4
10
-20.2742515104362
20
-57.707317073170735
0
VERTEX
8
L4
10
-20.54141854997806
20
-57.707317073170735
0
VERTEX
8
L4
10
-20.54141854997806
20
-56.673252445700896
0
VERTEX
8
L4
10
-19.871812486045954
20
-56.673252445700896
0
VERTEX
8
L4
10
-19.871812486045954
20
-57.707317073170735
0
VERTEX
8
L4
10
-19.383437075463462
20
-57.707317073170735
0
VERTEX
8
L4
10
-19.383437075463462
20
-57.07317073170733
0
VERTEX
8
L4
10
-19.50538829497566
20
-57.07317073170733
0
VERTEX
8
L4
10
-19.50538829497566
20
-57.19512195121952
0
SEQEND
0
POLYLINE
8
L4
66
1
70
1
0
VERTEX
8
L4
10
-19.125992795765953
20
-57.19512195121951
0
VERTEX
8
L4
10
-19.125992795765953
20
-57.073170731707314
0
VERTEX
8
L4
10
-19.247944015278136
20
-57.073170731707314
0
VERTEX
8
L4
10
-19.247944015278136
20
-57.68292682926829
0
VERTEX
8
L4
10
-18.721998150849117
20
-57.68292682926829
0
VERTEX
8
L4
10
-18.721998150849117
20
-56.52439024390244
0
VERTEX
8
L4
10
-18.670731707317074
20
-56.52439024390244
0
VERTEX
8
L4
10
-18.670731707317074
20
-56.28048780487804
0
VERTEX
8
L4
10
-18.81955912645887
20
-56.28048780487804
0
VERTEX
8
L4
10
-18.81955912645887
20
-57.58536585365854
0
VERTEX
8
L4
10
-19.150383039668384
20
-57.58536585365854
0
VERTEX
8
L4
10
-19.150383039668384
20
-57.19512195121951
0
VERTEX
8
L4
10
-19.125992795765953
20
-57.19512195121951
0
SEQEND
0
POLYLINE
8
L4
66
1
70
1
0
VERTEX
8
L4
10
-15.934982813990146
20
-55.60975609756098
0
VERTEX
8
L4
10
-15.934982813990146
20
-54.99999999999999
0
VERTEX
8
L4
10
-16.399953068663066
20
-54.99999999999999
0
VERTEX
8
L4
10
-16.399953068663066
20
-56.15853658536585
0
VERTEX
8
L4
10
-16.451219512195124
20
-56.15853658536585
0
VERTEX
8
L4
10
-16.451219512195124
20
-56.40243902439024
0
VERTEX
8
L4
10
-16.302392093053314
20
-56.40243902439024
0
VERTEX
8
L4
10
-16.302392093053314
20
-55.097560975609746
0
VERTEX
8
L4
10
-16.0325437895999
20
-55.097560975609746
0
VERTEX
8
L4
10
-16.0325437895999
20
-55.487804878048784
0
VERTEX
8
L4
10
-16.05693403350233
20
-55.487804878048784
0
VERTEX
8
L4
10
-16.05693403350233
20
-55.60975609756098
0
VERTEX
8
L4
10
-15.934982813990146
20
-55.60975609756098
0
SEQEND
0
POLYLINE
8
L4
66
1
70
1
0
VERTEX
8
L4
10
-13.633885299822765
20
-55.60975609756097
0
VERTEX
8
L4
10
-13.633885299822765
20
-55.48780487804877
0
VERTEX
8
L4
10
-13.658275543725196
20
-55.48780487804877
0
VERTEX
8
L4
10
-13.658275543725196
20
-55.097560975609746
0
VERTEX
8
L4
10
-13.492085776857138
20
-55.097560975609746
0
VERTEX
8
L4
10
-13.492085776857138
20
-55.765771944543005
0
VERTEX
8
L4
10
-13.623104224020253
20
-55.765771944543005
0
VERTEX
8
L4
10
-13.623104224020253
20
-56.40243902439024
0
VERTEX
8
L4
10
-13.501153004508055
20
-56.40243902439024
0
VERTEX
8
L4
10
-13.501153004508055
20
-55.863332920152764
0
VERTEX
8
L4
10
-13.394524801247385
20
-55.863332920152764
0
VERTEX
8
L4
10
-13.394524801247385
20
-54.99999999999999
0
VERTEX
8
L4
10
-13.755836519334949
20
-54.99999999999999
0
VERTEX
8
L4
10
-13.755836519334949
20
-55.60975609756097
0
VERTEX
8
L4
10
-13.633885299822765
20
-55.60975609756097
0
SEQEND
0
POLYLINE
8
L4
66
1
70
1
0
VERTEX
8
L4
10
-14.979016522644386
20
-58.10975609756099
0
VERTEX
8
L4
10
-15.374932657114101
20
-58.10975609756099
0
VERTEX
8
L4
10
-15.374932657114101
20
-56.902439024390254
0
VERTEX
8
L4
10
-15.35054241321167
20
-56.902439024390254
0
VERTEX
8
L4
10
-15.35054241321167
20
-56.78048780487806
0
VERTEX
8
L4
10
-15.472493632723854
20
-56.78048780487806
0
VERTEX
8
L4
10
-15.472493632723854
20
-58.20731707317074
0
VERTEX
8
L4
10
-14.881455547034633
20
-58.20731707317074
0
VERTEX
8
L4
10
-14.88145554703462
20
-56.50000000000001
0
VERTEX
8
L4
10
-15.645188458906489
20
-56.50000000000001
0
VERTEX
8
L4
10
-15.645188458906489
20
-56.28048780487806
0
VERTEX
8
L4
10
-15.767139678418687
20
-56.28048780487806
0
VERTEX
8
L4
10
-15.767139678418687
20
-56.50000000000001
0
VERTEX
8
L4
10
-16.197781544287466
20
-56.50000000000001
0
VERTEX
8
L4
10
-16.197781544287466
20
-57.68292682926829
0
VERTEX
8
L4
10
-15.645188458906503
20
-57.68292682926829
0
VERTEX
8
L4
10
-15.645188458906489
20
-57.07317073170733
0
VERTEX
8
L4
10
-15.767139678418687
20
-57.07317073170733
0
VERTEX
8
L4
10
-15.767139678418687
20
-57.19512195121952
0
VERTEX
8
L4
10
-15.742749434516256
20
-57.19512195121952
0
VERTEX
8
L4
10
-15.742749434516256
20
-57.58536585365854
0
VERTEX
8
L4
10
-16.100220568677713
20
-57.58536585365854
0
VERTEX
8
L4
10
-16.100220568677713
20
-56.59756097560977
0
VERTEX
8
L4
10
-14.979016522644386
20
-56.59756097560977
0
VERTEX
8
L4
10
-14.979016522644386
20
-58.10975609756099
0
SEQEND
0
POLYLINE
8
L4
66
1
70
1
0
VERTEX
8
L4
10
-14.4669451444651
20
-55.60975609756097
0
VERTEX
8
L4
10
-14.4669451444651
20
-55.48780487804877
0
VERTEX
8
L4
10
-14.491335388367546
20
-55.48780487804877
0
VERTEX
8
L4
10
-14.491335388367546
20
-55.097560975609746
0
VERTEX
8
L4
10
-14.11782854832876
20
-55.097560975609746
0
VERTEX
8
L4
10
-14.11782854832876
20
-56.00967438356739
0
VERTEX
8
L4
10
-14.517139678418687
20
-56.00967438356739
0
VERTEX
8
L4
10
-14.517139678418687
20
-56.40243902439024
0
VERTEX
8
L4
10
-14.395188458906489
20
-56.40243902439024
0
VERTEX
8
L4
10
-14.395188458906489
20
-56.10723535917715
0
VERTEX
8
L4
10
-14.020267572719007
20
-56.10723535917715
0
VERTEX
8
L4
10
-14.020267572719007
20
-54.99999999999999
0
VERTEX
8
L4
10
-14.588896363977298
20
-54.99999999999999
0
VERTEX
8
L4
10
-14.588896363977298
20
-55.60975609756097
0
VERTEX
8
L4
10
-14.4669451444651
20
-55.60975609756097
0
SEQEND
0
POLYLINE
8
L4
66
1
70
1
0
VERTEX
8
L4
10
-14.716837414416375
20
-55.60975609756098
0
VERTEX
8
L4
10
-14.716837414416375
20
-54.99999999999999
0
VERTEX
8
L4
10
-15.721328857289109
20
-54.99999999999999
0
VERTEX
8
L4
10
-15.721328857289109
20
-56.10723535917715
0
VERTEX
8
L4
10
-15.193968946711365
20
-56.10723535917715
0
VERTEX
8
L4
10
-15.193968946711365
20
-56.402439024390254
0
VERTEX
8
L4
10
-15.072017727199182
20
-56.402439024390254
0
VERTEX
8
L4
10
-15.072017727199182
20
-56.00967438356739
0
VERTEX
8
L4
10
-15.623767881679356
20
-56.00967438356739
0
VERTEX
8
L4
10
-15.623767881679342
20
-55.097560975609746
0
VERTEX
8
L4
10
-14.814398390026128
20
-55.097560975609746
0
VERTEX
8
L4
10
-14.814398390026128
20
-55.487804878048784
0
VERTEX
8
L4
10
-14.838788633928573
20
-55.487804878048784
0
VERTEX
8
L4
10
-14.838788633928573
20
-55.60975609756098
0
VERTEX
8
L4
10
-14.716837414416375
20
-55.60975609756098
0
SEQEND
0
POLYLINE
8
L4
66
1
70
1
0
VERTEX
8
L4
10
-13.651729758390289
20
-57.19512195121952
0
VERTEX
8
L4
10
-13.627339514487844
20
-57.19512195121952
0
VERTEX
8
L4
10
-13.627339514487844
20
-57.609756097560975
0
VERTEX
8
L4
10
-13.92059297385083
20
-57.609756097560975
0
VERTEX
8
L4
10
-13.92059297385083
20
-56.673252445700896
0
VERTEX
8
L4
10
-13.848713980117878
20
-56.673252445700896
0
VERTEX
8
L4
10
-13.848713980117878
20
-56.28048780487806
0
VERTEX
8
L4
10
-13.970665199630076
20
-56.28048780487804
0
VERTEX
8
L4
10
-13.970665199630076
20
-56.575691470091144
0
VERTEX
8
L4
10
-14.785320989002443
20
-56.575691470091144
0
VERTEX
8
L4
10
-14.785320989002443
20
-57.804878048780495
0
VERTEX
8
L4
10
-14.323031998241078
20
-57.804878048780495
0
VERTEX
8
L4
10
-14.323031998241078
20
-56.85617927496919
0
VERTEX
8
L4
10
-14.444983217753276
20
-56.85617927496919
0
VERTEX
8
L4
10
-14.444983217753276
20
-56.97813049448139
0
VERTEX
8
L4
10
-14.42059297385083
20
-56.97813049448139
0
VERTEX
8
L4
10
-14.42059297385083
20
-57.707317073170735
0
VERTEX
8
L4
10
-14.68776001339269
20
-57.707317073170735
0
VERTEX
8
L4
10
-14.68776001339269
20
-56.673252445700896
0
VERTEX
8
L4
10
-14.018153949460583
20
-56.673252445700896
0
VERTEX
8
L4
10
-14.018153949460583
20
-57.707317073170735
0
VERTEX
8
L4
10
-13.529778538878091
20
-57.707317073170735
0
VERTEX
8
L4
10
-13.529778538878091
20
-57.07317073170733
0
VERTEX
8
L4
10
-13.651729758390289
20
-57.07317073170733
0
VERTEX
8
L4
10
-13.651729758390289
20
-57.19512195121952
0
SEQEND
0
POLYLINE
8
L4
66
1
70
1
0
VERTEX
8
L4
10
-13.272334259180582
20
-57.19512195121951
0
VERTEX
8
L4
10
-13.272334259180582
20
-57.073170731707314
0
VERTEX
8
L4
10
-13.394285478692765
20
-57.073170731707314
0
VERTEX
8
L4
10
-13.394285478692765
20
-57.68292682926829
0
VERTEX
8
L4
10
-12.868339614263746
20
-57.68292682926829
0
VERTEX
8
L4
10
-12.868339614263746
20
-56.52439024390244
0
VERTEX
8
L4
10
-12.817073170731703
20
-56.52439024390244
0
VERTEX
8
L4
10
-12.817073170731703
20
-56.28048780487804
0
VERTEX
8
L4
10
-12.965900589873499
20
-56.28048780487804
0
VERTEX
8
L4
10
-12.965900589873499
20
-57.58536585365854
0
VERTEX
8
L4
10
-13.296724503083013
20
-57.58536585365854
0
VERTEX
8
L4
10
-13.296724503083013
20
-57.19512195121951
0
VERTEX
8
L4
10
-13.272334259180582
20
-57.19512195121951
0
SEQEND
0
POLYLINE
8
L4
66
1
70
1
0
VERTEX
8
L4
10
-10.081324277404775
20
-55.60975609756098
0
VERTEX
8
L4
10
-10.081324277404775
20
-54.99999999999999
0
VERTEX
8
L4
10
-10.546294532077695
20
-54.99999999999999
0
VERTEX
8
L4
10
-10.546294532077695
20
-56.15853658536585
0
VERTEX
8
L4
10
-10.597560975609753
20
-56.15853658536585
0
VERTEX
8
L4
10
-10.597560975609753
20
-56.40243902439024
0
VERTEX
8
L4
10
-10.448733556467943
20
-56.40243902439024
0
VERTEX
8
L4
10
-10.448733556467943
20
-55.097560975609746
0
VERTEX
8
L4
10
-10.178885253014528
20
-55.097560975609746
0
VERTEX
8
L4
10
-10.178885253014528
20
-55.487804878048784
0
VERTEX
8
L4
10
-10.203275496916959
20
-55.487804878048784
0
VERTEX
8
L4
10
-10.203275496916959
20
-55.60975609756098
0
VERTEX
8
L4
10
-10.081324277404775
20
-55.60975609756098
0
SEQEND
0
POLYLINE
8
L4
66
1
70
1
0
VERTEX
8
L4
10
-7.780226763237394
20
-55.60975609756097
0
VERTEX
8
L4
10
-7.780226763237394
20
-55.48780487804877
0
VERTEX
8
L4
10
-7.804617007139825
20
-55.48780487804877
0
VERTEX
8
L4
10
-7.804617007139825
20
-55.097560975609746
0
VERTEX
8
L4
10
-7.638427240271767
20
-55.097560975609746
0
VERTEX
8
L4
10
-7.638427240271767
20
-55.765771944543005
0
VERTEX
8
L4
10
-7.769445687434882
20
-55.765771944543005
0
VERTEX
8
L4
10
-7.769445687434882
20
-56.40243902439024
0
VERTEX
8
L4
10
-7.647494467922684
20
-56.40243902439024
0
VERTEX
8
L4
10
-7.647494467922684
20
-55.863332920152764
0
VERTEX
8
L4
10
-7.540866264662014
20
-55.863332920152764
0
VERTEX
8
L4
10
-7.540866264662014
20
-54.99999999999999
0
VERTEX
8
L4
10
-7.902177982749578
20
-54.99999999999999
0
VERTEX
8
L4
10
-7.902177982749578
20
-55.60975609756097
0
VERTEX
8
L4
10
-7.780226763237394
20
-55.60975609756097
0
SEQEND
0
POLYLINE
8
L4
66
1
70
1
0
VERTEX
8
L4
10
-9.125357986059015
20
-58.10975609756099
0
VERTEX
8
L4
10
-9.52127412052873
20
-58.10975609756099
0
VERTEX
8
L4
10
-9.52127412052873
20
-56.902439024390254
0
VERTEX
8
L4
10
-9.496883876626299
20
-56.902439024390254
0
VERTEX
8
L4
10
-9.496883876626299
20
-56.78048780487806
0
VERTEX
8
L4
10
-9.618835096138483
20
-56.78048780487806
0
VERTEX
8
L4
10
-9.618835096138483
20
-58.20731707317074
0
VERTEX
8
L4
10
-9.027797010449262
20
-58.20731707317074
0
VERTEX
8
L4
10
-9.027797010449248
20
-56.50000000000001
0
VERTEX
8
L4
10
-9.791529922321118
20
-56.50000000000001
0
VERTEX
8
L4
10
-9.791529922321118
20
-56.28048780487806
0
VERTEX
8
L4
10
-9.913481141833316
20
-56.28048780487806
0
VERTEX
8
L4
10
-9.913481141833316
20
-56.50000000000001
0
VERTEX
8
L4
10
-10.344123007702095
20
-56.50000000000001
0
VERTEX
8
L4
10
-10.344123007702095
20
-57.68292682926829
0
VERTEX
8
L4
10
-9.791529922321132
20
-57.68292682926829
0
VERTEX
8
L4
10
-9.791529922321118
20
-57.07317073170733
0
VERTEX
8
L4
10
-9.913481141833316
20
-57.07317073170733
0
VERTEX
8
L4
10
-9.913481141833316
20
-57.19512195121952
0
VERTEX
8
L4
10
-9.889090897930885
20
-57.19512195121952
0
VERTEX
8
L4
10
-9.889090897930885
20
-57.58536585365854
0
VERTEX
8
L4
10
-10.246562032092342
20
-57.58536585365854
0
VERTEX
8
L4
10
-10.246562032092342
20
-56.59756097560977
0
VERTEX
8
L4
10
-9.125357986059015
20
-56.59756097560977
0
VERTEX
8
L4
10
-9.125357986059015
20
-58.10975609756099
0
SEQEND
0
POLYLINE
8
L4
66
1
70
1
0
VERTEX
8
L4
10
-8.61328660787973
20
-55.60975609756097
0
VERTEX
8
L4
10
-8.61328660787973
20
-55.48780487804877
0
VERTEX
8
L4
10
-8.637676851782174
20
-55.48780487804877
0
VERTEX
8
L4
10
-8.637676851782174
20
-55.097560975609746
0
VERTEX
8
L4
10
-8.264170011743388
20
-55.097560975609746
0
VERTEX
8
L4
10
-8.264170011743388
20
-56.00967438356739
0
VERTEX
8
L4
10
-8.663481141833316
20
-56.00967438356739
0
VERTEX
8
L4
10
-8.663481141833316
20
-56.40243902439024
0
VERTEX
8
L4
10
-8.541529922321118
20
-56.40243902439024
0
VERTEX
8
L4
10
-8.541529922321118
20
-56.10723535917715
0
VERTEX
8
L4
10
-8.166609036133636
20
-56.10723535917715
0
VERTEX
8
L4
10
-8.166609036133636
20
-54.99999999999999
0
VERTEX
8
L4
10
-8.735237827391927
20
-54.99999999999999
0
VERTEX
8
L4
10
-8.735237827391927
20
-55.60975609756097
0
VERTEX
8
L4
10
-8.61328660787973
20
-55.60975609756097
0
SEQEND
0
POLYLINE
8
L4
66
1
70
1
0
VERTEX
8
L4
10
-8.863178877831004
20
-55.60975609756098
0
VERTEX
8
L4
10
-8.863178877831004
20
-54.99999999999999
0
VERTEX
8
L4
10
-9.867670320703738
20
-54.99999999999999
0
VERTEX
8
L4
10
-9.867670320703738
20
-56.10723535917715
0
VERTEX
8
L4
10
-9.340310410125994
20
-56.10723535917715
0
VERTEX
8
L4
10
-9.340310410125994
20
-56.402439024390254
0
VERTEX
8
L4
10
-9.21835919061381
20
-56.402439024390254
0
VERTEX
8
L4
10
-9.21835919061381
20
-56.00967438356739
0
VERTEX
8
L4
10
-9.770109345093985
20
-56.00967438356739
0
VERTEX
8
L4
10
-9.77010934509397
20
-55.097560975609746
0
VERTEX
8
L4
10
-8.960739853440757
20
-55.097560975609746
0
VERTEX
8
L4
10
-8.960739853440757
20
-55.487804878048784
0
VERTEX
8
L4
10
-8.985130097343202
20
-55.487804878048784
0
VERTEX
8
L4
10
-8.985130097343202
20
-55.60975609756098
0
VERTEX
8
L4
10
-8.863178877831004
20
-55.60975609756098
0
SEQEND
0
POLYLINE
8
L4
66
1
70
1
0
VERTEX
8
L4
10
-7.798071221804918
20
-57.19512195121952
0
VERTEX
8
L4
10
-7.7736809779024725
20
-57.19512195121952
0
VERTEX
8
L4
10
-7.7736809779024725
20
-57.609756097560975
0
VERTEX
8
L4
10
-8.06693443726546
20
-57.609756097560975
0
VERTEX
8
L4
10
-8.06693443726546
20
-56.673252445700896
0
VERTEX
8
L4
10
-7.995055443532507
20
-56.673252445700896
0
VERTEX
8
L4
10
-7.995055443532507
20
-56.28048780487806
0
VERTEX
8
L4
10
-8.117006663044705
20
-56.28048780487804
0
VERTEX
8
L4
10
-8.117006663044705
20
-56.575691470091144
0
VERTEX
8
L4
10
-8.931662452417072
20
-56.575691470091144
0
VERTEX
8
L4
10
-8.931662452417072
20
-57.804878048780495
0
VERTEX
8
L4
10
-8.469373461655707
20
-57.804878048780495
0
VERTEX
8
L4
10
-8.469373461655707
20
-56.85617927496919
0
VERTEX
8
L4
10
-8.591324681167904
20
-56.85617927496919
0
VERTEX
8
L4
10
-8.591324681167904
20
-56.97813049448139
0
VERTEX
8
L4
10
-8.56693443726546
20
-56.97813049448139
0
VERTEX
8
L4
10
-8.56693443726546
20
-57.707317073170735
0
VERTEX
8
L4
10
-8.83410147680732
20
-57.707317073170735
0
VERTEX
8
L4
10
-8.83410147680732
20
-56.673252445700896
0
VERTEX
8
L4
10
-8.164495412875212
20
-56.673252445700896
0
VERTEX
8
L4
10
-8.164495412875212
20
-57.707317073170735
0
VERTEX
8
L4
10
-7.67612000229272
20
-57.707317073170735
0
VERTEX
8
L4
10
-7.67612000229272
20
-57.07317073170733
0
VERTEX
8
L4
10
-7.798071221804918
20
-57.07317073170733
0
VERTEX
8
L4
10
-7.798071221804918
20
-57.19512195121952
0
SEQEND
0
POLYLINE
8
L4
66
1
70
1
0
VERTEX
8
L4
10
-7.418675722595211
20
-57.19512195121951
0
VERTEX
8
L4
10
-7.418675722595211
20
-57.073170731707314
0
VERTEX
8
L4
10
-7.540626942107394
20
-57.073170731707314
0
VERTEX
8
L4
10
-7.540626942107394
20
-57.68292682926829
0
VERTEX
8
L4
10
-7.014681077678375
20
-57.68292682926829
0
VERTEX
8
L4
10
-7.014681077678375
20
-56.52439024390244
0
VERTEX
8
L4
10
-6.963414634146332
20
-56.52439024390244
0
VERTEX
8
L4
10
-6.963414634146332
20
-56.28048780487804
0
VERTEX
8
L4
10
-7.112242053288128
20
-56.28048780487804
0
VERTEX
8
L4
10
-7.112242053288128
20
-57.58536585365854
0
VERTEX
8
L4
10
-7.443065966497642
20
-57.58536585365854
0
VERTEX
8
L4
10
-7.443065966497642
20
-57.19512195121951
0
VERTEX
8
L4
10
-7.418675722595211
20
-57.19512195121951
0
SEQEND
0
POLYLINE
8
L4
66
1
70
1
0
VERTEX
8
L4
10
-4.227665740819418
20
-55.60975609756098
0
VERTEX
8
L4
10
-4.227665740819418
20
-54.99999999999999
0
VERTEX
8
L4
10
-4.6926359954923385
20
-54.99999999999999
0
VERTEX
8
L4
10
-4.6926359954923385
20
-56.15853658536585
0
VERTEX
8
L4
10
-4.743902439024396
20
-56.15853658536585
0
VERTEX
8
L4
10
-4.743902439024396
20
-56.40243902439024
0
VERTEX
8
L4
10
-4.595075019882586
20
-56.40243902439024
0
VERTEX
8
L4
10
-4.595075019882586
20
-55.097560975609746
0
VERTEX
8
L4
10
-4.325226716429171
20
-55.097560975609746
0
VERTEX
8
L4
10
-4.325226716429171
20
-55.487804878048784
0
VERTEX
8
L4
10
-4.349616960331602
20
-55.487804878048784
0
VERTEX
8
L4
10
-4.349616960331602
20
-55.60975609756098
0
VERTEX
8
L4
10
-4.227665740819418
20
-55.60975609756098
0
SEQEND
0
POLYLINE
8
L4
66
1
70
1
0
VERTEX
8
L4
10
-1.9265682266520372
20
-55.60975609756097
0
VERTEX
8
L4
10
-1.9265682266520372
20
-55.48780487804877
0
VERTEX
8
L4
10
-1.9509584705544682
20
-55.48780487804877
0
VERTEX
8
L4
10
-1.9509584705544682
20
-55.097560975609746
0
VERTEX
8
L4
10
-1.7847687036864102
20
-55.097560975609746
0
VERTEX
8
L4
10
-1.7847687036864102
20
-55.765771944543005
0
VERTEX
8
L4
10
-1.9157871508495248
20
-55.765771944543005
0
VERTEX
8
L4
10
-1.9157871508495248
20
-56.40243902439024
0
VERTEX
8
L4
10
-1.7938359313373269
20
-56.40243902439024
0
VERTEX
8
L4
10
-1.7938359313373269
20
-55.863332920152764
0
VERTEX
8
L4
10
-1.6872077280766575
20
-55.863332920152764
0
VERTEX
8
L4
10
-1.6872077280766575
20
-54.99999999999999
0
VERTEX
8
L4
10
-2.048519446164221
20
-54.99999999999999
0
VERTEX
8
L4
10
-2.048519446164221
20
-55.60975609756097
0
VERTEX
8
L4
10
-1.9265682266520372
20
-55.60975609756097
0
SEQEND
0
POLYLINE
8
L4
66
1
70
1
0
VERTEX
8
L4
10
-3.271699449473658
20
-58.10975609756099
0
VERTEX
8
L4
10
-3.6676155839433733
20
-58.10975609756099
0
VERTEX
8
L4
10
-3.6676155839433733
20
-56.902439024390254
0
VERTEX
8
L4
10
-3.6432253400409422
20
-56.902439024390254
0
VERTEX
8
L4
10
-3.6432253400409422
20
-56.78048780487806
0
VERTEX
8
L4
10
-3.765176559553126
20
-56.78048780487806
0
VERTEX
8
L4
10
-3.765176559553126
20
-58.20731707317074
0
VERTEX
8
L4
10
-3.1741384738639056
20
-58.20731707317074
0
VERTEX
8
L4
10
-3.1741384738638914
20
-56.50000000000001
0
VERTEX
8
L4
10
-3.937871385735761
20
-56.50000000000001
0
VERTEX
8
L4
10
-3.937871385735761
20
-56.28048780487806
0
VERTEX
8
L4
10
-4.059822605247959
20
-56.28048780487806
0
VERTEX
8
L4
10
-4.059822605247959
20
-56.50000000000001
0
VERTEX
8
L4
10
-4.490464471116738
20
-56.50000000000001
0
VERTEX
8
L4
10
-4.490464471116738
20
-57.68292682926829
0
VERTEX
8
L4
10
-3.937871385735775
20
-57.68292682926829
0
VERTEX
8
L4
10
-3.937871385735761
20
-57.07317073170733
0
VERTEX
8
L4
10
-4.059822605247959
20
-57.07317073170733
0
VERTEX
8
L4
10
-4.059822605247959
20
-57.19512195121952
0
VERTEX
8
L4
10
-4.035432361345528
20
-57.19512195121952
0
VERTEX
8
L4
10
-4.035432361345528
20
-57.58536585365854
0
VERTEX
8
L4
10
-4.392903495506985
20
-57.58536585365854
0
VERTEX
8
L4
10
-4.392903495506985
20
-56.59756097560977
0
VERTEX
8
L4
10
-3.271699449473658
20
-56.59756097560977
0
VERTEX
8
L4
10
-3.271699449473658
20
-58.10975609756099
0
SEQEND
0
POLYLINE
8
L4
66
1
70
1
0
VERTEX
8
L4
10
-2.7596280712943724
20
-55.60975609756097
0
VERTEX
8
L4
10
-2.7596280712943724
20
-55.48780487804877
0
VERTEX
8
L4
10
-2.7840183151968176
20
-55.48780487804877
0
VERTEX
8
L4
10
-2.7840183151968176
20
-55.097560975609746
0
VERTEX
8
L4
10
-2.4105114751580317
20
-55.097560975609746
0
VERTEX
8
L4
10
-2.4105114751580317
20
-56.00967438356739
0
VERTEX
8
L4
10
-2.809822605247959
20
-56.00967438356739
0
VERTEX
8
L4
10
-2.809822605247959
20
-56.40243902439024
0
VERTEX
8
L4
10
-2.687871385735761
20
-56.40243902439024
0
VERTEX
8
L4
10
-2.687871385735761
20
-56.10723535917715
0
VERTEX
8
L4
10
-2.312950499548279
20
-56.10723535917715
0
VERTEX
8
L4
10
-2.312950499548279
20
-54.99999999999999
0
VERTEX
8
L4
10
-2.8815792908065703
20
-54.99999999999999
0
VERTEX
8
L4
10
-2.8815792908065703
20
-55.60975609756097
0
VERTEX
8
L4
10
-2.7596280712943724
20
-55.60975609756097
0
SEQEND
0
POLYLINE
8
L4
66
1
70
1
0
VERTEX
8
L4
10
-3.009520341245647
20
-55.60975609756098
0
VERTEX
8
L4
10
-3.009520341245647
20
-54.99999999999999
0
VERTEX
8
L4
10
-4.014011784118381
20
-54.99999999999999
0
VERTEX
8
L4
10
-4.014011784118381
20
-56.10723535917715
0
VERTEX
8
L4
10
-3.4866518735406373
20
-56.10723535917715
0
VERTEX
8
L4
10
-3.4866518735406373
20
-56.402439024390254
0
VERTEX
8
L4
10
-3.3647006540284536
20
-56.402439024390254
0
VERTEX
8
L4
10
-3.3647006540284536
20
-56.00967438356739
0
VERTEX
8
L4
10
-3.9164508085086283
20
-56.00967438356739
0
VERTEX
8
L4
10
-3.916450808508614
20
-55.097560975609746
0
VERTEX
8
L4
10
-3.1070813168553997
20
-55.097560975609746
0
VERTEX
8
L4
10
-3.1070813168553997
20
-55.487804878048784
0
VERTEX
8
L4
10
-3.131471560757845
20
-55.487804878048784
0
VERTEX
8
L4
10
-3.131471560757845
20
-55.60975609756098
0
VERTEX
8
L4
10
-3.009520341245647
20
-55.60975609756098
0
SEQEND
0
POLYLINE
8
L4
66
1
70
1
0
VERTEX
8
L4
10
-1.944412685219561
20
-57.19512195121952
0
VERTEX
8
L4
10
-1.9200224413171156
20
-57.19512195121952
0
VERTEX
8
L4
10
-1.9200224413171156
20
-57.609756097560975
0
VERTEX
8
L4
10
-2.2132759006801024
20
-57.609756097560975
0
VERTEX
8
L4
10
-2.2132759006801024
20
-56.673252445700896
0
VERTEX
8
L4
10
-2.1413969069471506
20
-56.673252445700896
0
VERTEX
8
L4
10
-2.1413969069471506
20
-56.28048780487806
0
VERTEX
8
L4
10
-2.2633481264593485
20
-56.28048780487804
0
VERTEX
8
L4
10
-2.2633481264593485
20
-56.575691470091144
0
VERTEX
8
L4
10
-3.078003915831715
20
-56.575691470091144
0
VERTEX
8
L4
10
-3.078003915831715
20
-57.804878048780495
0
VERTEX
8
L4
10
-2.6157149250703498
20
-57.804878048780495
0
VERTEX
8
L4
10
-2.6157149250703498
20
-56.85617927496919
0
VERTEX
8
L4
10
-2.7376661445825476
20
-56.85617927496919
0
VERTEX
8
L4
10
-2.7376661445825476
20
-56.97813049448139
0
VERTEX
8
L4
10
-2.7132759006801024
20
-56.97813049448139
0
VERTEX
8
L4
10
-2.7132759006801024
20
-57.707317073170735
0
VERTEX
8
L4
10
-2.9804429402219625
20
-57.707317073170735
0
VERTEX
8
L4
10
-2.9804429402219625
20
-56.673252445700896
0
VERTEX
8
L4
10
-2.310836876289855
20
-56.673252445700896
0
VERTEX
8
L4
10
-2.310836876289855
20
-57.707317073170735
0
VERTEX
8
L4
10
-1.822461465707363
20
-57.707317073170735
0
VERTEX
8
L4
10
-1.822461465707363
20
-57.07317073170733
0
VERTEX
8
L4
10
-1.944412685219561
20
-57.07317073170733
0
VERTEX
8
L4
10
-1.944412685219561
20
-57.19512195121952
0
SEQEND
0
POLYLINE
8
L4
66
1
70
1
0
VERTEX
8
L4
10
-1.5650171860098538
20
-57.19512195121951
0
VERTEX
8
L4
10
-1.5650171860098538
20
-57.073170731707314
0
VERTEX
8
L4
10
-1.6869684055220375
20
-57.073170731707314
0
VERTEX
8
L4
10
-1.6869684055220375
20
-57.68292682926829
0
VERTEX
8
L4
10
-1.1610225410930184
20
-57.68292682926829
0
VERTEX
8
L4
10
-1.1610225410930184
20
-56.52439024390244
0
VERTEX
8
L4
10
-1.1097560975609753
20
-56.52439024390244
0
VERTEX
8
L4
10
-1.1097560975609753
20
-56.28048780487804
0
VERTEX
8
L4
10
-1.258583516702771
20
-56.28048780487804
0
VERTEX
8
L4
10
-1.258583516702771
20
-57.58536585365854
0
VERTEX
8
L4
10
-1.589407429912285
20
-57.58536585365854
0
VERTEX
8
L4
10
-1.589407429912285
20
-57.19512195121951
0
VERTEX
8
L4
10
-1.5650171860098538
20
-57.19512195121951
0
SEQEND
0
POLYLINE
8
L4
66
1
70
1
0
VERTEX
8
L4
10
1.6259927957659528
20
-55.60975609756098
0
VERTEX
8
L4
10
1.6259927957659528
20
-54.99999999999999
0
VERTEX
8
L4
10
1.1610225410930326
20
-54.99999999999999
0
VERTEX
8
L4
10
1.1610225410930326
20
-56.15853658536585
0
VERTEX
8
L4
10
1.1097560975609753
20
-56.15853658536585
0
VERTEX
8
L4
10
1.1097560975609753
20
-56.40243902439024
0
VERTEX
8
L4
10
1.2585835167027852
20
-56.40243902439024
0
VERTEX
8
L4
10
1.2585835167027852
20
-55.097560975609746
0
VERTEX
8
L4
10
1.5284318201562002
20
-55.097560975609746
0
VERTEX
8
L4
10
1.5284318201562002
20
-55.487804878048784
0
VERTEX
8
L4
10
1.504041576253769
20
-55.487804878048784
0
VERTEX
8
L4
10
1.504041576253769
20
-55.60975609756098
0
VERTEX
8
L4
10
1.6259927957659528
20
-55.60975609756098
0
SEQEND
0
POLYLINE
8
L4
66
1
70
1
0
VERTEX
8
L4
10
3.927090309933334
20
-55.60975609756097
0
VERTEX
8
L4
10
3.927090309933334
20
-55.48780487804877
0
VERTEX
8
L4
10
3.902700066030903
20
-55.48780487804877
0
VERTEX
8
L4
10
3.902700066030903
20
-55.097560975609746
0
VERTEX
8
L4
10
4.068889832898961
20
-55.097560975609746
0
VERTEX
8
L4
10
4.068889832898961
20
-55.765771944543005
0
VERTEX
8
L4
10
3.9378713857358463
20
-55.765771944543005
0
VERTEX
8
L4
10
3.9378713857358463
20
-56.40243902439024
0
VERTEX
8
L4
10
4.059822605248044
20
-56.40243902439024
0
VERTEX
8
L4
10
4.059822605248044
20
-55.863332920152764
0
VERTEX
8
L4
10
4.1664508085087135
20
-55.863332920152764
0
VERTEX
8
L4
10
4.1664508085087135
20
-54.99999999999999
0
VERTEX
8
L4
10
3.80513909042115
20
-54.99999999999999
0
VERTEX
8
L4
10
3.80513909042115
20
-55.60975609756097
0
VERTEX
8
L4
10
3.927090309933334
20
-55.60975609756097
0
SEQEND
0
POLYLINE
8
L4
66
1
70
1
0
VERTEX
8
L4
10
2.581959087111713
20
-58.10975609756099
0
VERTEX
8
L4
10
2.1860429526419978
20
-58.10975609756099
0
VERTEX
8
L4
10
2.1860429526419978
20
-56.902439024390254
0
VERTEX
8
L4
10
2.210433196544429
20
-56.902439024390254
0
VERTEX
8
L4
10
2.210433196544429
20
-56.78048780487806
0
VERTEX
8
L4
10
2.088481977032245
20
-56.78048780487806
0
VERTEX
8
L4
10
2.088481977032245
20
-58.20731707317074
0
VERTEX
8
L4
10
2.6795200627214655
20
-58.20731707317074
0
VERTEX
8
L4
10
2.6795200627214797
20
-56.50000000000001
0
VERTEX
8
L4
10
1.91578715084961
20
-56.50000000000001
0
VERTEX
8
L4
10
1.91578715084961
20
-56.28048780487806
0
VERTEX
8
L4
10
1.7938359313374121
20
-56.28048780487806
0
VERTEX
8
L4
10
1.7938359313374121
20
-56.50000000000001
0
VERTEX
8
L4
10
1.3631940654686332
20
-56.50000000000001
0
VERTEX
8
L4
10
1.3631940654686332
20
-57.68292682926829
0
VERTEX
8
L4
10
1.9157871508495958
20
-57.68292682926829
0
VERTEX
8
L4
10
1.91578715084961
20
-57.07317073170733
0
VERTEX
8
L4
10
1.7938359313374121
20
-57.07317073170733
0
VERTEX
8
L4
10
1.7938359313374121
20
-57.19512195121952
0
VERTEX
8
L4
10
1.8182261752398432
20
-57.19512195121952
0
VERTEX
8
L4
10
1.8182261752398432
20
-57.58536585365854
0
VERTEX
8
L4
10
1.4607550410783858
20
-57.58536585365854
0
VERTEX
8
L4
10
1.4607550410783858
20
-56.59756097560977
0
VERTEX
8
L4
10
2.581959087111713
20
-56.59756097560977
0
VERTEX
8
L4
10
2.581959087111713
20
-58.10975609756099
0
SEQEND
0
POLYLINE
8
L4
66
1
70
1
0
VERTEX
8
L4
10
3.0940304652909987
20
-55.60975609756097
0
VERTEX
8
L4
10
3.0940304652909987
20
-55.48780487804877
0
VERTEX
8
L4
10
3.0696402213885534
20
-55.48780487804877
0
VERTEX
8
L4
10
3.0696402213885534
20
-55.097560975609746
0
VERTEX
8
L4
10
3.4431470614273394
20
-55.097560975609746
0
VERTEX
8
L4
10
3.4431470614273394
20
-56.00967438356739
0
VERTEX
8
L4
10
3.043835931337412
20
-56.00967438356739
0
VERTEX
8
L4
10
3.043835931337412
20
-56.40243902439024
0
VERTEX
8
L4
10
3.16578715084961
20
-56.40243902439024
0
VERTEX
8
L4
10
3.16578715084961
20
-56.10723535917715
0
VERTEX
8
L4
10
3.540708037037092
20
-56.10723535917715
0
VERTEX
8
L4
10
3.540708037037092
20
-54.99999999999999
0
VERTEX
8
L4
10
2.972079245778801
20
-54.99999999999999
0
VERTEX
8
L4
10
2.972079245778801
20
-55.60975609756097
0
VERTEX
8
L4
10
3.0940304652909987
20
-55.60975609756097
0
SEQEND
0
POLYLINE
8
L4
66
1
70
1
0
VERTEX
8
L4
10
2.844138195339724
20
-55.60975609756098
0
VERTEX
8
L4
10
2.844138195339724
20
-54.99999999999999
0
VERTEX
8
L4
10
1.8396467524669902
20
-54.99999999999999
0
VERTEX
8
L4
10
1.8396467524669902
20
-56.10723535917715
0
VERTEX
8
L4
10
2.3670066630447337
20
-56.10723535917715
0
VERTEX
8
L4
10
2.3670066630447337
20
-56.402439024390254
0
VERTEX
8
L4
10
2.4889578825569174
20
-56.402439024390254
0
VERTEX
8
L4
10
2.4889578825569174
20
-56.00967438356739
0
VERTEX
8
L4
10
1.9372077280767428
20
-56.00967438356739
0
VERTEX
8
L4
10
1.937207728076757
20
-55.097560975609746
0
VERTEX
8
L4
10
2.7465772197299714
20
-55.097560975609746
0
VERTEX
8
L4
10
2.7465772197299714
20
-55.487804878048784
0
VERTEX
8
L4
10
2.722186975827526
20
-55.487804878048784
0
VERTEX
8
L4
10
2.722186975827526
20
-55.60975609756098
0
VERTEX
8
L4
10
2.844138195339724
20
-55.60975609756098
0
SEQEND
0
POLYLINE
8
L4
66
1
70
1
0
VERTEX
8
L4
10
3.90924585136581
20
-57.19512195121952
0
VERTEX
8
L4
10
3.9336360952682554
20
-57.19512195121952
0
VERTEX
8
L4
10
3.9336360952682554
20
-57.609756097560975
0
VERTEX
8
L4
10
3.6403826359052687
20
-57.609756097560975
0
VERTEX
8
L4
10
3.6403826359052687
20
-56.673252445700896
0
VERTEX
8
L4
10
3.7122616296382205
20
-56.673252445700896
0
VERTEX
8
L4
10
3.7122616296382205
20
-56.28048780487806
0
VERTEX
8
L4
10
3.5903104101260226
20
-56.28048780487804
0
VERTEX
8
L4
10
3.5903104101260226
20
-56.575691470091144
0
VERTEX
8
L4
10
2.775654620753656
20
-56.575691470091144
0
VERTEX
8
L4
10
2.775654620753656
20
-57.804878048780495
0
VERTEX
8
L4
10
3.2379436115150213
20
-57.804878048780495
0
VERTEX
8
L4
10
3.2379436115150213
20
-56.85617927496919
0
VERTEX
8
L4
10
3.1159923920028234
20
-56.85617927496919
0
VERTEX
8
L4
10
3.1159923920028234
20
-56.97813049448139
0
VERTEX
8
L4
10
3.1403826359052687
20
-56.97813049448139
0
VERTEX
8
L4
10
3.1403826359052687
20
-57.707317073170735
0
VERTEX
8
L4
10
2.8732155963634085
20
-57.707317073170735
0
VERTEX
8
L4
10
2.8732155963634085
20
-56.673252445700896
0
VERTEX
8
L4
10
3.542821660295516
20
-56.673252445700896
0
VERTEX
8
L4
10
3.542821660295516
20
-57.707317073170735
0
VERTEX
8
L4
10
4.031197070878008
20
-57.707317073170735
0
VERTEX
8
L4
10
4.031197070878008
20
-57.07317073170733
0
VERTEX
8
L4
10
3.90924585136581
20
-57.07317073170733
0
VERTEX
8
L4
10
3.90924585136581
20
-57.19512195121952
0
SEQEND
0
POLYLINE
8
L4
66
1
70
1
0
VERTEX
8
L4
10
4.288641350575517
20
-57.19512195121951
0
VERTEX
8
L4
10
4.288641350575517
20
-57.073170731707314
0
VERTEX
8
L4
10
4.1666901310633335
20
-57.073170731707314
0
VERTEX
8
L4
10
4.1666901310633335
20
-57.68292682926829
0
VERTEX
8
L4
10
4.692635995492353
20
-57.68292682926829
0
VERTEX
8
L4
10
4.692635995492353
20
-56.52439024390244
0
VERTEX
8
L4
10
4.743902439024396
20
-56.52439024390244
0
VERTEX
8
L4
10
4.743902439024396
20
-56.28048780487804
0
VERTEX
8
L4
10
4.5950750198826
20
-56.28048780487804
0
VERTEX
8
L4
10
4.5950750198826
20
-57.58536585365854
0
VERTEX
8
L4
10
4.264251106673086
20
-57.58536585365854
0
VERTEX
8
L4
10
4.264251106673086
20
-57.19512195121951
0
VERTEX
8
L4
10
4.288641350575517
20
-57.19512195121951
0
SEQEND
0
POLYLINE
8
L4
66
1
70
1
0
VERTEX
8
L4
10
7.47965133235131
20
-55.60975609756098
0
VERTEX
8
L4
10
7.47965133235131
20
-54.99999999999999
0
VERTEX
8
L4
10
7.014681077678389
20
-54.99999999999999
0
VERTEX
8
L4
10
7.014681077678389
20
-56.15853658536585
0
VERTEX
8
L4
10
6.963414634146332
20
-56.15853658536585
0
VERTEX
8
L4
10
6.963414634146332
20
-56.40243902439024
0
VERTEX
8
L4
10
7.112242053288142
20
-56.40243902439024
0
VERTEX
8
L4
10
7.112242053288142
20
-55.097560975609746
0
VERTEX
8
L4
10
7.382090356741557
20
-55.097560975609746
0
VERTEX
8
L4
10
7.382090356741557
20
-55.487804878048784
0
VERTEX
8
L4
10
7.357700112839126
20
-55.487804878048784
0
VERTEX
8
L4
10
7.357700112839126
20
-55.60975609756098
0
VERTEX
8
L4
10
7.47965133235131
20
-55.60975609756098
0
SEQEND
0
POLYLINE
8
L4
66
1
70
1
0
VERTEX
8
L4
10
9.78074884651869
20
-55.60975609756097
0
VERTEX
8
L4
10
9.78074884651869
20
-55.48780487804877
0
VERTEX
8
L4
10
9.75635860261626
20
-55.48780487804877
0
VERTEX
8
L4
10
9.75635860261626
20
-55.097560975609746
0
VERTEX
8
L4
10
9.922548369484318
20
-55.097560975609746
0
VERTEX
8
L4
10
9.922548369484318
20
-55.765771944543005
0
VERTEX
8
L4
10
9.791529922321203
20
-55.765771944543005
0
VERTEX
8
L4
10
9.791529922321203
20
-56.40243902439024
0
VERTEX
8
L4
10
9.913481141833401
20
-56.40243902439024
0
VERTEX
8
L4
10
9.913481141833401
20
-55.863332920152764
0
VERTEX
8
L4
10
10.02010934509407
20
-55.863332920152764
0
VERTEX
8
L4
10
10.02010934509407
20
-54.99999999999999
0
VERTEX
8
L4
10
9.658797627006507
20
-54.99999999999999
0
VERTEX
8
L4
10
9.658797627006507
20
-55.60975609756097
0
VERTEX
8
L4
10
9.78074884651869
20
-55.60975609756097
0
SEQEND
0
POLYLINE
8
L4
66
1
70
1
0
VERTEX
8
L4
10
8.43561762369707
20
-58.10975609756099
0
VERTEX
8
L4
10
8.039701489227355
20
-58.10975609756099
0
VERTEX
8
L4
10
8.039701489227355
20
-56.902439024390254
0
VERTEX
8
L4
10
8.064091733129786
20
-56.902439024390254
0
VERTEX
8
L4
10
8.064091733129786
20
-56.78048780487806
0
VERTEX
8
L4
10
7.942140513617602
20
-56.78048780487806
0
VERTEX
8
L4
10
7.942140513617602
20
-58.20731707317074
0
VERTEX
8
L4
10
8.533178599306822
20
-58.20731707317074
0
VERTEX
8
L4
10
8.533178599306837
20
-56.50000000000001
0
VERTEX
8
L4
10
7.769445687434967
20
-56.50000000000001
0
VERTEX
8
L4
10
7.769445687434967
20
-56.28048780487806
0
VERTEX
8
L4
10
7.647494467922769
20
-56.28048780487806
0
VERTEX
8
L4
10
7.647494467922769
20
-56.50000000000001
0
VERTEX
8
L4
10
7.21685260205399
20
-56.50000000000001
0
VERTEX
8
L4
10
7.21685260205399
20
-57.68292682926829
0
VERTEX
8
L4
10
7.769445687434953
20
-57.68292682926829
0
VERTEX
8
L4
10
7.769445687434967
20
-57.07317073170733
0
VERTEX
8
L4
10
7.647494467922769
20
-57.07317073170733
0
VERTEX
8
L4
10
7.647494467922769
20
-57.19512195121952
0
VERTEX
8
L4
10
7.6718847118252
20
-57.19512195121952
0
VERTEX
8
L4
10
7.6718847118252
20
-57.58536585365854
0
VERTEX
8
L4
10
7.314413577663743
20
-57.58536585365854
0
VERTEX
8
L4
10
7.314413577663743
20
-56.59756097560977
0
VERTEX
8
L4
10
8.43561762369707
20
-56.59756097560977
0
VERTEX
8
L4
10
8.43561762369707
20
-58.10975609756099
0
SEQEND
0
POLYLINE
8
L4
66
1
70
1
0
VERTEX
8
L4
10
8.947689001876356
20
-55.60975609756097
0
VERTEX
8
L4
10
8.947689001876356
20
-55.48780487804877
0
VERTEX
8
L4
10
8.92329875797391
20
-55.48780487804877
0
VERTEX
8
L4
10
8.92329875797391
20
-55.097560975609746
0
VERTEX
8
L4
10
9.296805598012696
20
-55.097560975609746
0
VERTEX
8
L4
10
9.296805598012696
20
-56.00967438356739
0
VERTEX
8
L4
10
8.897494467922769
20
-56.00967438356739
0
VERTEX
8
L4
10
8.897494467922769
20
-56.40243902439024
0
VERTEX
8
L4
10
9.019445687434967
20
-56.40243902439024
0
VERTEX
8
L4
10
9.019445687434967
20
-56.10723535917715
0
VERTEX
8
L4
10
9.394366573622449
20
-56.10723535917715
0
VERTEX
8
L4
10
9.394366573622449
20
-54.99999999999999
0
VERTEX
8
L4
10
8.825737782364158
20
-54.99999999999999
0
VERTEX
8
L4
10
8.825737782364158
20
-55.60975609756097
0
VERTEX
8
L4
10
8.947689001876356
20
-55.60975609756097
0
SEQEND
0
POLYLINE
8
L4
66
1
70
1
0
VERTEX
8
L4
10
8.69779673192508
20
-55.60975609756098
0
VERTEX
8
L4
10
8.69779673192508
20
-54.99999999999999
0
VERTEX
8
L4
10
7.693305289052347
20
-54.99999999999999
0
VERTEX
8
L4
10
7.693305289052347
20
-56.10723535917715
0
VERTEX
8
L4
10
8.22066519963009
20
-56.10723535917715
0
VERTEX
8
L4
10
8.22066519963009
20
-56.402439024390254
0
VERTEX
8
L4
10
8.342616419142274
20
-56.402439024390254
0
VERTEX
8
L4
10
8.342616419142274
20
-56.00967438356739
0
VERTEX
8
L4
10
7.7908662646621
20
-56.00967438356739
0
VERTEX
8
L4
10
7.790866264662114
20
-55.097560975609746
0
VERTEX
8
L4
10
8.600235756315328
20
-55.097560975609746
0
VERTEX
8
L4
10
8.600235756315328
20
-55.487804878048784
0
VERTEX
8
L4
10
8.575845512412883
20
-55.487804878048784
0
VERTEX
8
L4
10
8.575845512412883
20
-55.60975609756098
0
VERTEX
8
L4
10
8.69779673192508
20
-55.60975609756098
0
SEQEND
0
POLYLINE
8
L4
66
1
70
1
0
VERTEX
8
L4
10
9.762904387951167
20
-57.19512195121952
0
VERTEX
8
L4
10
9.787294631853612
20
-57.19512195121952
0
VERTEX
8
L4
10
9.787294631853612
20
-57.609756097560975
0
VERTEX
8
L4
10
9.494041172490626
20
-57.609756097560975
0
VERTEX
8
L4
10
9.494041172490626
20
-56.673252445700896
0
VERTEX
8
L4
10
9.565920166223577
20
-56.673252445700896
0
VERTEX
8
L4
10
9.565920166223577
20
-56.28048780487806
0
VERTEX
8
L4
10
9.44396894671138
20
-56.28048780487804
0
VERTEX
8
L4
10
9.44396894671138
20
-56.575691470091144
0
VERTEX
8
L4
10
8.629313157339013
20
-56.575691470091144
0
VERTEX
8
L4
10
8.629313157339013
20
-57.804878048780495
0
VERTEX
8
L4
10
9.091602148100378
20
-57.804878048780495
0
VERTEX
8
L4
10
9.091602148100378
20
-56.85617927496919
0
VERTEX
8
L4
10
8.96965092858818
20
-56.85617927496919
0
VERTEX
8
L4
10
8.96965092858818
20
-56.97813049448139
0
VERTEX
8
L4
10
8.994041172490626
20
-56.97813049448139
0
VERTEX
8
L4
10
8.994041172490626
20
-57.707317073170735
0
VERTEX
8
L4
10
8.726874132948765
20
-57.707317073170735
0
VERTEX
8
L4
10
8.726874132948765
20
-56.673252445700896
0
VERTEX
8
L4
10
9.396480196880873
20
-56.673252445700896
0
VERTEX
8
L4
10
9.396480196880873
20
-57.707317073170735
0
VERTEX
8
L4
10
9.884855607463365
20
-57.707317073170735
0
VERTEX
8
L4
10
9.884855607463365
20
-57.07317073170733
0
VERTEX
8
L4
10
9.762904387951167
20
-57.07317073170733
0
VERTEX
8
L4
10
9.762904387951167
20
-57.19512195121952
0
SEQEND
0
POLYLINE
8
L4
66
1
70
1
0
VERTEX
8
L4
10
10.142299887160874
20
-57.19512195121951
0
VERTEX
8
L4
10
10.142299887160874
20
-57.073170731707314
0
VERTEX
8
L4
10
10.02034866764869
20
-57.073170731707314
0
VERTEX
8
L4
10
10.02034866764869
20
-57.68292682926829
0
VERTEX
8
L4
10
10.54629453207771
20
-57.68292682926829
0
VERTEX
8
L4
10
10.54629453207771
20
-56.52439024390244
0
VERTEX
8
L4
10
10.597560975609753
20
-56.52439024390244
0
VERTEX
8
L4
10
10.597560975609753
20
-56.28048780487804
0
VERTEX
8
L4
10
10.448733556467957
20
-56.28048780487804
0
VERTEX
8
L4
10
10.448733556467957
20
-57.58536585365854
0
VERTEX
8
L4
10
10.117909643258443
20
-57.58536585365854
0
VERTEX
8
L4
10
10.117909643258443
20
-57.19512195121951
0
VERTEX
8
L4
10
10.142299887160874
20
-57.19512195121951
0
SEQEND
0
POLYLINE
8
L4
66
1
70
1
0
VERTEX
8
L4
10
13.33330986893668
20
-55.60975609756098
0
VERTEX
8
L4
10
13.33330986893668
20
-54.99999999999999
0
VERTEX
8
L4
10
12.86833961426376
20
-54.99999999999999
0
VERTEX
8
L4
10
12.86833961426376
20
-56.15853658536585
0
VERTEX
8
L4
10
12.817073170731703
20
-56.15853658536585
0
VERTEX
8
L4
10
12.817073170731703
20
-56.40243902439024
0
VERTEX
8
L4
10
12.965900589873513
20
-56.40243902439024
0
VERTEX
8
L4
10
12.965900589873513
20
-55.097560975609746
0
VERTEX
8
L4
10
13.235748893326928
20
-55.097560975609746
0
VERTEX
8
L4
10
13.235748893326928
20
-55.487804878048784
0
VERTEX
8
L4
10
13.211358649424497
20
-55.487804878048784
0
VERTEX
8
L4
10
13.211358649424497
20
-55.60975609756098
0
VERTEX
8
L4
10
13.33330986893668
20
-55.60975609756098
0
SEQEND
0
POLYLINE
8
L4
66
1
70
1
0
VERTEX
8
L4
10
15.634407383104062
20
-55.60975609756097
0
VERTEX
8
L4
10
15.634407383104062
20
-55.48780487804877
0
VERTEX
8
L4
10
15.61001713920163
20
-55.48780487804877
0
VERTEX
8
L4
10
15.61001713920163
20
-55.097560975609746
0
VERTEX
8
L4
10
15.776206906069689
20
-55.097560975609746
0
VERTEX
8
L4
10
15.776206906069689
20
-55.765771944543005
0
VERTEX
8
L4
10
15.645188458906574
20
-55.765771944543005
0
VERTEX
8
L4
10
15.645188458906574
20
-56.40243902439024
0
VERTEX
8
L4
10
15.767139678418772
20
-56.40243902439024
0
VERTEX
8
L4
10
15.767139678418772
20
-55.863332920152764
0
VERTEX
8
L4
10
15.873767881679441
20
-55.863332920152764
0
VERTEX
8
L4
10
15.873767881679441
20
-54.99999999999999
0
VERTEX
8
L4
10
15.512456163591878
20
-54.99999999999999
0
VERTEX
8
L4
10
15.512456163591878
20
-55.60975609756097
0
VERTEX
8
L4
10
15.634407383104062
20
-55.60975609756097
0
SEQEND
0
POLYLINE
8
L4
66
1
70
1
0
VERTEX
8
L4
10
14.28927616028244
20
-58.10975609756099
0
VERTEX
8
L4
10
13.893360025812726
20
-58.10975609756099
0
VERTEX
8
L4
10
13.893360025812726
20
-56.902439024390254
0
VERTEX
8
L4
10
13.917750269715157
20
-56.902439024390254
0
VERTEX
8
L4
10
13.917750269715157
20
-56.78048780487806
0
VERTEX
8
L4
10
13.795799050202973
20
-56.78048780487806
0
VERTEX
8
L4
10
13.795799050202973
20
-58.20731707317074
0
VERTEX
8
L4
10
14.386837135892193
20
-58.20731707317074
0
VERTEX
8
L4
10
14.386837135892208
20
-56.50000000000001
0
VERTEX
8
L4
10
13.623104224020338
20
-56.50000000000001
0
VERTEX
8
L4
10
13.623104224020338
20
-56.28048780487806
0
VERTEX
8
L4
10
13.50115300450814
20
-56.28048780487806
0
VERTEX
8
L4
10
13.50115300450814
20
-56.50000000000001
0
VERTEX
8
L4
10
13.070511138639361
20
-56.50000000000001
0
VERTEX
8
L4
10
13.070511138639361
20
-57.68292682926829
0
VERTEX
8
L4
10
13.623104224020324
20
-57.68292682926829
0
VERTEX
8
L4
10
13.623104224020338
20
-57.07317073170733
0
VERTEX
8
L4
10
13.50115300450814
20
-57.07317073170733
0
VERTEX
8
L4
10
13.50115300450814
20
-57.19512195121952
0
VERTEX
8
L4
10
13.525543248410571
20
-57.19512195121952
0
VERTEX
8
L4
10
13.525543248410571
20
-57.58536585365854
0
VERTEX
8
L4
10
13.168072114249114
20
-57.58536585365854
0
VERTEX
8
L4
10
13.168072114249114
20
-56.59756097560977
0
VERTEX
8
L4
10
14.28927616028244
20
-56.59756097560977
0
VERTEX
8
L4
10
14.28927616028244
20
-58.10975609756099
0
SEQEND
0
POLYLINE
8
L4
66
1
70
1
0
VERTEX
8
L4
10
14.801347538461727
20
-55.60975609756097
0
VERTEX
8
L4
10
14.801347538461727
20
-55.48780487804877
0
VERTEX
8
L4
10
14.776957294559281
20
-55.48780487804877
0
VERTEX
8
L4
10
14.776957294559281
20
-55.097560975609746
0
VERTEX
8
L4
10
15.150464134598067
20
-55.097560975609746
0
VERTEX
8
L4
10
15.150464134598067
20
-56.00967438356739
0
VERTEX
8
L4
10
14.75115300450814
20
-56.00967438356739
0
VERTEX
8
L4
10
14.75115300450814
20
-56.40243902439024
0
VERTEX
8
L4
10
14.873104224020338
20
-56.40243902439024
0
VERTEX
8
L4
10
14.873104224020338
20
-56.10723535917715
0
VERTEX
8
L4
10
15.24802511020782
20
-56.10723535917715
0
VERTEX
8
L4
10
15.24802511020782
20
-54.99999999999999
0
VERTEX
8
L4
10
14.679396318949529
20
-54.99999999999999
0
VERTEX
8
L4
10
14.679396318949529
20
-55.60975609756097
0
VERTEX
8
L4
10
14.801347538461727
20
-55.60975609756097
0
SEQEND
0
POLYLINE
8
L4
66
1
70
1
0
VERTEX
8
L4
10
14.551455268510452
20
-55.60975609756098
0
VERTEX
8
L4
10
14.551455268510452
20
-54.99999999999999
0
VERTEX
8
L4
10
13.546963825637718
20
-54.99999999999999
0
VERTEX
8
L4
10
13.546963825637718
20
-56.10723535917715
0
VERTEX
8
L4
10
14.074323736215462
20
-56.10723535917715
0
VERTEX
8
L4
10
14.074323736215462
20
-56.402439024390254
0
VERTEX
8
L4
10
14.196274955727645
20
-56.402439024390254
0
VERTEX
8
L4
10
14.196274955727645
20
-56.00967438356739
0
VERTEX
8
L4
10
13.64452480124747
20
-56.00967438356739
0
VERTEX
8
L4
10
13.644524801247485
20
-55.097560975609746
0
VERTEX
8
L4
10
14.4538942929007
20
-55.097560975609746
0
VERTEX
8
L4
10
14.4538942929007
20
-55.487804878048784
0
VERTEX
8
L4
10
14.429504048998254
20
-55.487804878048784
0
VERTEX
8
L4
10
14.429504048998254
20
-55.60975609756098
0
VERTEX
8
L4
10
14.551455268510452
20
-55.60975609756098
0
SEQEND
0
POLYLINE
8
L4
66
1
70
1
0
VERTEX
8
L4
10
15.616562924536538
20
-57.19512195121952
0
VERTEX
8
L4
10
15.640953168438983
20
-57.19512195121952
0
VERTEX
8
L4
10
15.640953168438983
20
-57.609756097560975
0
VERTEX
8
L4
10
15.347699709075997
20
-57.609756097560975
0
VERTEX
8
L4
10
15.347699709075997
20
-56.673252445700896
0
VERTEX
8
L4
10
15.419578702808948
20
-56.673252445700896
0
VERTEX
8
L4
10
15.419578702808948
20
-56.28048780487806
0
VERTEX
8
L4
10
15.29762748329675
20
-56.28048780487804
0
VERTEX
8
L4
10
15.29762748329675
20
-56.575691470091144
0
VERTEX
8
L4
10
14.482971693924384
20
-56.575691470091144
0
VERTEX
8
L4
10
14.482971693924384
20
-57.804878048780495
0
VERTEX
8
L4
10
14.94526068468575
20
-57.804878048780495
0
VERTEX
8
L4
10
14.94526068468575
20
-56.85617927496919
0
VERTEX
8
L4
10
14.823309465173551
20
-56.85617927496919
0
VERTEX
8
L4
10
14.823309465173551
20
-56.97813049448139
0
VERTEX
8
L4
10
14.847699709075997
20
-56.97813049448139
0
VERTEX
8
L4
10
14.847699709075997
20
-57.707317073170735
0
VERTEX
8
L4
10
14.580532669534136
20
-57.707317073170735
0
VERTEX
8
L4
10
14.580532669534136
20
-56.673252445700896
0
VERTEX
8
L4
10
15.250138733466244
20
-56.673252445700896
0
VERTEX
8
L4
10
15.250138733466244
20
-57.707317073170735
0
VERTEX
8
L4
10
15.738514144048736
20
-57.707317073170735
0
VERTEX
8
L4
10
15.738514144048736
20
-57.07317073170733
0
VERTEX
8
L4
10
15.616562924536538
20
-57.07317073170733
0
VERTEX
8
L4
10
15.616562924536538
20
-57.19512195121952
0
SEQEND
0
POLYLINE
8
L4
66
1
70
1
0
VERTEX
8
L4
10
15.995958423746245
20
-57.19512195121951
0
VERTEX
8
L4
10
15.995958423746245
20
-57.073170731707314
0
VERTEX
8
L4
10
15.874007204234061
20
-57.073170731707314
0
VERTEX
8
L4
10
15.874007204234061
20
-57.68292682926829
0
VERTEX
8
L4
10
16.39995306866308
20
-57.68292682926829
0
VERTEX
8
L4
10
16.39995306866308
20
-56.52439024390244
0
VERTEX
8
L4
10
16.451219512195124
20
-56.52439024390244
0
VERTEX
8
L4
10
16.451219512195124
20
-56.28048780487804
0
VERTEX
8
L4
10
16.302392093053328
20
-56.28048780487804
0
VERTEX
8
L4
10
16.302392093053328
20
-57.58536585365854
0
VERTEX
8
L4
10
15.971568179843814
20
-57.58536585365854
0
VERTEX
8
L4
10
15.971568179843814
20
-57.19512195121951
0
VERTEX
8
L4
10
15.995958423746245
20
-57.19512195121951
0
SEQEND
0
POLYLINE
8
L4
66
1
70
1
0
VERTEX
8
L4
10
19.18696840552205
20
-55.60975609756098
0
VERTEX
8
L4
10
19.18696840552205
20
-54.99999999999999
0
VERTEX
8
L4
10
18.721998150849103
20
-54.99999999999999
0
VERTEX
8
L4
10
18.721998150849103
20
-56.15853658536585
0
VERTEX
8
L4
10
18.670731707317074
20
-56.15853658536585
0
VERTEX
8
L4
10
18.670731707317074
20
-56.40243902439024
0
VERTEX
8
L4
10
18.819559126458884
20
-56.40243902439024
0
VERTEX
8
L4
10
18.819559126458884
20
-55.097560975609746
0
VERTEX
8
L4
10
19.0894074299123
20
-55.097560975609746
0
VERTEX
8
L4
10
19.0894074299123
20
-55.487804878048784
0
VERTEX
8
L4
10
19.065017186009854
20
-55.487804878048784
0
VERTEX
8
L4
10
19.065017186009854
20
-55.60975609756098
0
VERTEX
8
L4
10
19.18696840552205
20
-55.60975609756098
0
SEQEND
0
POLYLINE
8
L4
66
1
70
1
0
VERTEX
8
L4
10
21.48806591968942
20
-55.60975609756097
0
VERTEX
8
L4
10
21.48806591968942
20
-55.48780487804877
0
VERTEX
8
L4
10
21.463675675786973
20
-55.48780487804877
0
VERTEX
8
L4
10
21.463675675786973
20
-55.097560975609746
0
VERTEX
8
L4
10
21.62986544265506
20
-55.097560975609746
0
VERTEX
8
L4
10
21.62986544265506
20
-55.765771944543005
0
VERTEX
8
L4
10
21.498846995491945
20
-55.765771944543005
0
VERTEX
8
L4
10
21.498846995491945
20
-56.40243902439024
0
VERTEX
8
L4
10
21.620798215004143
20
-56.40243902439024
0
VERTEX
8
L4
10
21.620798215004143
20
-55.863332920152764
0
VERTEX
8
L4
10
21.727426418264812
20
-55.863332920152764
0
VERTEX
8
L4
10
21.727426418264812
20
-54.99999999999999
0
VERTEX
8
L4
10
21.36611470017722
20
-54.99999999999999
0
VERTEX
8
L4
10
21.36611470017722
20
-55.60975609756097
0
VERTEX
8
L4
10
21.48806591968942
20
-55.60975609756097
0
SEQEND
0
POLYLINE
8
L4
66
1
70
1
0
VERTEX
8
L4
10
20.142934696867812
20
-58.10975609756099
0
VERTEX
8
L4
10
19.747018562398083
20
-58.10975609756099
0
VERTEX
8
L4
10
19.747018562398083
20
-56.902439024390254
0
VERTEX
8
L4
10
19.771408806300528
20
-56.902439024390254
0
VERTEX
8
L4
10
19.771408806300528
20
-56.78048780487806
0
VERTEX
8
L4
10
19.64945758678833
20
-56.78048780487806
0
VERTEX
8
L4
10
19.64945758678833
20
-58.20731707317074
0
VERTEX
8
L4
10
20.240495672477564
20
-58.20731707317074
0
VERTEX
8
L4
10
20.240495672477564
20
-56.50000000000001
0
VERTEX
8
L4
10
19.476762760605695
20
-56.50000000000001
0
VERTEX
8
L4
10
19.476762760605695
20
-56.28048780487806
0
VERTEX
8
L4
10
19.354811541093497
20
-56.28048780487806
0
VERTEX
8
L4
10
19.354811541093497
20
-56.50000000000001
0
VERTEX
8
L4
10
18.924169675224718
20
-56.50000000000001
0
VERTEX
8
L4
10
18.924169675224718
20
-57.68292682926829
0
VERTEX
8
L4
10
19.476762760605666
20
-57.68292682926829
0
VERTEX
8
L4
10
19.476762760605695
20
-57.07317073170733
0
VERTEX
8
L4
10
19.354811541093497
20
-57.07317073170733
0
VERTEX
8
L4
10
19.354811541093497
20
-57.19512195121952
0
VERTEX
8
L4
10
19.379201784995942
20
-57.19512195121952
0
VERTEX
8
L4
10
19.379201784995914
20
-57.58536585365854
0
VERTEX
8
L4
10
19.02173065083447
20
-57.58536585365854
0
VERTEX
8
L4
10
19.02173065083447
20
-56.59756097560977
0
VERTEX
8
L4
10
20.142934696867812
20
-56.59756097560977
0
VERTEX
8
L4
10
20.142934696867812
20
-58.10975609756099
0
SEQEND
0
POLYLINE
8
L4
66
1
70
1
0
VERTEX
8
L4
10
20.65500607504707
20
-55.60975609756097
0
VERTEX
8
L4
10
20.65500607504707
20
-55.48780487804877
0
VERTEX
8
L4
10
20.630615831144652
20
-55.48780487804877
0
VERTEX
8
L4
10
20.630615831144652
20
-55.097560975609746
0
VERTEX
8
L4
10
21.004122671183424
20
-55.097560975609746
0
VERTEX
8
L4
10
21.004122671183424
20
-56.00967438356739
0
VERTEX
8
L4
10
20.604811541093497
20
-56.00967438356739
0
VERTEX
8
L4
10
20.604811541093497
20
-56.40243902439024
0
VERTEX
8
L4
10
20.726762760605695
20
-56.40243902439024
0
VERTEX
8
L4
10
20.726762760605695
20
-56.10723535917715
0
VERTEX
8
L4
10
21.101683646793177
20
-56.10723535917715
0
VERTEX
8
L4
10
21.101683646793177
20
-54.99999999999999
0
VERTEX
8
L4
10
20.5330548555349
20
-54.99999999999999
0
VERTEX
8
L4
10
20.5330548555349
20
-55.60975609756097
0
VERTEX
8
L4
10
20.65500607504707
20
-55.60975609756097
0
SEQEND
0
POLYLINE
8
L4
66
1
70
1
0
VERTEX
8
L4
10
20.40511380509581
20
-55.60975609756098
0
VERTEX
8
L4
10
20.40511380509581
20
-54.99999999999999
0
VERTEX
8
L4
10
19.400622362223075
20
-54.99999999999999
0
VERTEX
8
L4
10
19.400622362223075
20
-56.10723535917715
0
VERTEX
8
L4
10
19.927982272800804
20
-56.10723535917715
0
VERTEX
8
L4
10
19.927982272800804
20
-56.402439024390254
0
VERTEX
8
L4
10
20.049933492313002
20
-56.402439024390254
0
VERTEX
8
L4
10
20.049933492313002
20
-56.00967438356739
0
VERTEX
8
L4
10
19.498183337832828
20
-56.00967438356739
0
VERTEX
8
L4
10
19.498183337832828
20
-55.097560975609746
0
VERTEX
8
L4
10
20.307552829486056
20
-55.097560975609746
0
VERTEX
8
L4
10
20.307552829486056
20
-55.487804878048784
0
VERTEX
8
L4
10
20.28316258558361
20
-55.487804878048784
0
VERTEX
8
L4
10
20.28316258558361
20
-55.60975609756098
0
VERTEX
8
L4
10
20.40511380509581
20
-55.60975609756098
0
SEQEND
0
POLYLINE
8
L4
66
1
70
1
0
VERTEX
8
L4
10
21.47022146112191
20
-57.19512195121952
0
VERTEX
8
L4
10
21.494611705024326
20
-57.19512195121952
0
VERTEX
8
L4
10
21.494611705024326
20
-57.609756097560975
0
VERTEX
8
L4
10
21.201358245661353
20
-57.609756097560975
0
VERTEX
8
L4
10
21.201358245661353
20
-56.673252445700896
0
VERTEX
8
L4
10
21.273237239394305
20
-56.673252445700896
0
VERTEX
8
L4
10
21.273237239394305
20
-56.28048780487806
0
VERTEX
8
L4
10
21.151286019882107
20
-56.28048780487804
0
VERTEX
8
L4
10
21.151286019882107
20
-56.575691470091144
0
VERTEX
8
L4
10
20.336630230509755
20
-56.575691470091144
0
VERTEX
8
L4
10
20.336630230509755
20
-57.804878048780495
0
VERTEX
8
L4
10
20.798919221271106
20
-57.804878048780495
0
VERTEX
8
L4
10
20.798919221271106
20
-56.85617927496919
0
VERTEX
8
L4
10
20.676968001758908
20
-56.85617927496919
0
VERTEX
8
L4
10
20.676968001758908
20
-56.97813049448139
0
VERTEX
8
L4
10
20.701358245661353
20
-56.97813049448139
0
VERTEX
8
L4
10
20.701358245661353
20
-57.707317073170735
0
VERTEX
8
L4
10
20.434191206119507
20
-57.707317073170735
0
VERTEX
8
L4
10
20.434191206119507
20
-56.673252445700896
0
VERTEX
8
L4
10
21.1037972700516
20
-56.673252445700896
0
VERTEX
8
L4
10
21.1037972700516
20
-57.707317073170735
0
VERTEX
8
L4
10
21.592172680634107
20
-57.707317073170735
0
VERTEX
8
L4
10
21.592172680634107
20
-57.07317073170733
0
VERTEX
8
L4
10
21.47022146112191
20
-57.07317073170733
0
VERTEX
8
L4
10
21.47022146112191
20
-57.19512195121952
0
SEQEND
0
POLYLINE
8
L4
66
1
70
1
0
VERTEX
8
L4
10
21.849616960331602
20
-57.19512195121951
0
VERTEX
8
L4
10
21.849616960331602
20
-57.073170731707314
0
VERTEX
8
L4
10
21.727665740819404
20
-57.073170731707314
0
VERTEX
8
L4
10
21.727665740819404
20
-57.68292682926829
0
VERTEX
8
L4
10
22.253611605248423
20
-57.68292682926829
0
VERTEX
8
L4
10
22.253611605248423
20
-56.52439024390244
0
VERTEX
8
L4
10
22.30487804878048
20
-56.52439024390244
0
VERTEX
8
L4
10
22.30487804878048
20
-56.28048780487804
0
VERTEX
8
L4
10
22.15605062963867
20
-56.28048780487804
0
VERTEX
8
L4
10
22.15605062963867
20
-57.58536585365854
0
VERTEX
8
L4
10
21.825226716429157
20
-57.58536585365854
0
VERTEX
8
L4
10
21.825226716429157
20
-57.19512195121951
0
VERTEX
8
L4
10
21.849616960331602
20
-57.19512195121951
0
SEQEND
0
POLYLINE
8
L4
66
1
70
1
0
VERTEX
8
L4
10
25.040626942107437
20
-55.60975609756098
0
VERTEX
8
L4
10
25.040626942107437
20
-54.99999999999999
0
VERTEX
8
L4
10
24.57565668743449
20
-54.99999999999999
0
VERTEX
8
L4
10
24.57565668743449
20
-56.15853658536585
0
VERTEX
8
L4
10
24.52439024390246
20
-56.15853658536585
0
VERTEX
8
L4
10
24.52439024390246
20
-56.40243902439024
0
VERTEX
8
L4
10
24.67321766304427
20
-56.40243902439024
0
VERTEX
8
L4
10
24.67321766304427
20
-55.097560975609746
0
VERTEX
8
L4
10
24.943065966497684
20
-55.097560975609746
0
VERTEX
8
L4
10
24.943065966497684
20
-55.487804878048784
0
VERTEX
8
L4
10
24.91867572259524
20
-55.487804878048784
0
VERTEX
8
L4
10
24.91867572259524
20
-55.60975609756098
0
VERTEX
8
L4
10
25.040626942107437
20
-55.60975609756098
0
SEQEND
0
POLYLINE
8
L4
66
1
70
1
0
VERTEX
8
L4
10
27.341724456274804
20
-55.60975609756097
0
VERTEX
8
L4
10
27.341724456274804
20
-55.48780487804877
0
VERTEX
8
L4
10
27.31733421237236
20
-55.48780487804877
0
VERTEX
8
L4
10
27.31733421237236
20
-55.097560975609746
0
VERTEX
8
L4
10
27.483523979240445
20
-55.097560975609746
0
VERTEX
8
L4
10
27.483523979240445
20
-55.765771944543005
0
VERTEX
8
L4
10
27.35250553207733
20
-55.765771944543005
0
VERTEX
8
L4
10
27.35250553207733
20
-56.40243902439024
0
VERTEX
8
L4
10
27.47445675158953
20
-56.40243902439024
0
VERTEX
8
L4
10
27.47445675158953
20
-55.863332920152764
0
VERTEX
8
L4
10
27.581084954850198
20
-55.863332920152764
0
VERTEX
8
L4
10
27.581084954850198
20
-54.99999999999999
0
VERTEX
8
L4
10
27.219773236762606
20
-54.99999999999999
0
VERTEX
8
L4
10
27.219773236762606
20
-55.60975609756097
0
VERTEX
8
L4
10
27.341724456274804
20
-55.60975609756097
0
SEQEND
0
POLYLINE
8
L4
66
1
70
1
0
VERTEX
8
L4
10
25.996593233453197
20
-58.10975609756099
0
VERTEX
8
L4
10
25.600677098983468
20
-58.10975609756099
0
VERTEX
8
L4
10
25.600677098983468
20
-56.902439024390254
0
VERTEX
8
L4
10
25.625067342885913
20
-56.902439024390254
0
VERTEX
8
L4
10
25.625067342885913
20
-56.78048780487806
0
VERTEX
8
L4
10
25.503116123373715
20
-56.78048780487806
0
VERTEX
8
L4
10
25.503116123373715
20
-58.20731707317074
0
VERTEX
8
L4
10
26.09415420906295
20
-58.20731707317074
0
VERTEX
8
L4
10
26.09415420906295
20
-56.50000000000001
0
VERTEX
8
L4
10
25.33042129719108
20
-56.50000000000001
0
VERTEX
8
L4
10
25.33042129719108
20
-56.28048780487806
0
VERTEX
8
L4
10
25.208470077678882
20
-56.28048780487806
0
VERTEX
8
L4
10
25.208470077678882
20
-56.50000000000001
0
VERTEX
8
L4
10
24.777828211810103
20
-56.50000000000001
0
VERTEX
8
L4
10
24.777828211810103
20
-57.68292682926829
0
VERTEX
8
L4
10
25.33042129719105
20
-57.68292682926829
0
VERTEX
8
L4
10
25.33042129719108
20
-57.07317073170733
0
VERTEX
8
L4
10
25.208470077678882
20
-57.07317073170733
0
VERTEX
8
L4
10
25.208470077678882
20
-57.19512195121952
0
VERTEX
8
L4
10
25.232860321581327
20
-57.19512195121952
0
VERTEX
8
L4
10
25.2328603215813
20
-57.58536585365854
0
VERTEX
8
L4
10
24.875389187419856
20
-57.58536585365854
0
VERTEX
8
L4
10
24.875389187419856
20
-56.59756097560977
0
VERTEX
8
L4
10
25.996593233453197
20
-56.59756097560977
0
VERTEX
8
L4
10
25.996593233453197
20
-58.10975609756099
0
SEQEND
0
POLYLINE
8
L4
66
1
70
1
0
VERTEX
8
L4
10
26.508664611632454
20
-55.60975609756097
0
VERTEX
8
L4
10
26.508664611632454
20
-55.48780487804877
0
VERTEX
8
L4
10
26.484274367730038
20
-55.48780487804877
0
VERTEX
8
L4
10
26.484274367730038
20
-55.097560975609746
0
VERTEX
8
L4
10
26.85778120776881
20
-55.097560975609746
0
VERTEX
8
L4
10
26.85778120776881
20
-56.00967438356739
0
VERTEX
8
L4
10
26.458470077678882
20
-56.00967438356739
0
VERTEX
8
L4
10
26.458470077678882
20
-56.40243902439024
0
VERTEX
8
L4
10
26.58042129719108
20
-56.40243902439024
0
VERTEX
8
L4
10
26.58042129719108
20
-56.10723535917715
0
VERTEX
8
L4
10
26.955342183378562
20
-56.10723535917715
0
VERTEX
8
L4
10
26.955342183378562
20
-54.99999999999999
0
VERTEX
8
L4
10
26.386713392120285
20
-54.99999999999999
0
VERTEX
8
L4
10
26.386713392120285
20
-55.60975609756097
0
VERTEX
8
L4
10
26.508664611632454
20
-55.60975609756097
0
SEQEND
0
POLYLINE
8
L4
66
1
70
1
0
VERTEX
8
L4
10
26.258772341681194
20
-55.60975609756098
0
VERTEX
8
L4
10
26.258772341681194
20
-54.99999999999999
0
VERTEX
8
L4
10
25.25428089880846
20
-54.99999999999999
0
VERTEX
8
L4
10
25.25428089880846
20
-56.10723535917715
0
VERTEX
8
L4
10
25.78164080938619
20
-56.10723535917715
0
VERTEX
8
L4
10
25.78164080938619
20
-56.402439024390254
0
VERTEX
8
L4
10
25.903592028898387
20
-56.402439024390254
0
VERTEX
8
L4
10
25.903592028898387
20
-56.00967438356739
0
VERTEX
8
L4
10
25.351841874418213
20
-56.00967438356739
0
VERTEX
8
L4
10
25.351841874418213
20
-55.097560975609746
0
VERTEX
8
L4
10
26.16121136607144
20
-55.097560975609746
0
VERTEX
8
L4
10
26.16121136607144
20
-55.487804878048784
0
VERTEX
8
L4
10
26.136821122168996
20
-55.487804878048784
0
VERTEX
8
L4
10
26.136821122168996
20
-55.60975609756098
0
VERTEX
8
L4
10
26.258772341681194
20
-55.60975609756098
0
SEQEND
0
POLYLINE
8
L4
66
1
70
1
0
VERTEX
8
L4
10
27.323879997707294
20
-57.19512195121952
0
VERTEX
8
L4
10
27.34827024160971
20
-57.19512195121952
0
VERTEX
8
L4
10
27.34827024160971
20
-57.609756097560975
0
VERTEX
8
L4
10
27.05501678224674
20
-57.609756097560975
0
VERTEX
8
L4
10
27.05501678224674
20
-56.673252445700896
0
VERTEX
8
L4
10
27.12689577597969
20
-56.673252445700896
0
VERTEX
8
L4
10
27.12689577597969
20
-56.28048780487806
0
VERTEX
8
L4
10
27.004944556467493
20
-56.28048780487804
0
VERTEX
8
L4
10
27.004944556467493
20
-56.575691470091144
0
VERTEX
8
L4
10
26.19028876709514
20
-56.575691470091144
0
VERTEX
8
L4
10
26.19028876709514
20
-57.804878048780495
0
VERTEX
8
L4
10
26.65257775785649
20
-57.804878048780495
0
VERTEX
8
L4
10
26.65257775785649
20
-56.85617927496919
0
VERTEX
8
L4
10
26.530626538344293
20
-56.85617927496919
0
VERTEX
8
L4
10
26.530626538344293
20
-56.97813049448139
0
VERTEX
8
L4
10
26.55501678224674
20
-56.97813049448139
0
VERTEX
8
L4
10
26.55501678224674
20
-57.707317073170735
0
VERTEX
8
L4
10
26.287849742704893
20
-57.707317073170735
0
VERTEX
8
L4
10
26.287849742704893
20
-56.673252445700896
0
VERTEX
8
L4
10
26.957455806636986
20
-56.673252445700896
0
VERTEX
8
L4
10
26.957455806636986
20
-57.707317073170735
0
VERTEX
8
L4
10
27.445831217219492
20
-57.707317073170735
0
VERTEX
8
L4
10
27.445831217219492
20
-57.07317073170733
0
VERTEX
8
L4
10
27.323879997707294
20
-57.07317073170733
0
VERTEX
8
L4
10
27.323879997707294
20
-57.19512195121952
0
SEQEND
0
POLYLINE
8
L4
66
1
70
1
0
VERTEX
8
L4
10
27.703275496916987
20
-57.19512195121951
0
VERTEX
8
L4
10
27.703275496916987
20
-57.073170731707314
0
VERTEX
8
L4
10
27.58132427740479
20
-57.073170731707314
0
VERTEX
8
L4
10
27.58132427740479
20
-57.68292682926829
0
VERTEX
8
L4
10
28.10727014183381
20
-57.68292682926829
0
VERTEX
8
L4
10
28.10727014183381
20
-56.52439024390244
0
VERTEX
8
L4
10
28.158536585365866
20
-56.52439024390244
0
VERTEX
8
L4
10
28.158536585365866
20
-56.28048780487804
0
VERTEX
8
L4
10
28.009709166224056
20
-56.28048780487804
0
VERTEX
8
L4
10
28.009709166224056
20
-57.58536585365854
0
VERTEX
8
L4
10
27.678885253014542
20
-57.58536585365854
0
VERTEX
8
L4
10
27.678885253014542
20
-57.19512195121951
0
VERTEX
8
L4
10
27.703275496916987
20
-57.19512195121951
0
SEQEND
0
POLYLINE
8
L4
66
1
70
1
0
VERTEX
8
L4
10
30.894285478692765
20
-55.60975609756098
0
VERTEX
8
L4
10
30.894285478692765
20
-54.99999999999999
0
VERTEX
8
L4
10
30.429315224019817
20
-54.99999999999999
0
VERTEX
8
L4
10
30.429315224019817
20
-56.15853658536585
0
VERTEX
8
L4
10
30.378048780487788
20
-56.15853658536585
0
VERTEX
8
L4
10
30.378048780487788
20
-56.40243902439024
0
VERTEX
8
L4
10
30.526876199629598
20
-56.40243902439024
0
VERTEX
8
L4
10
30.526876199629598
20
-55.097560975609746
0
VERTEX
8
L4
10
30.796724503083013
20
-55.097560975609746
0
VERTEX
8
L4
10
30.796724503083013
20
-55.487804878048784
0
VERTEX
8
L4
10
30.772334259180568
20
-55.487804878048784
0
VERTEX
8
L4
10
30.772334259180568
20
-55.60975609756098
0
VERTEX
8
L4
10
30.894285478692765
20
-55.60975609756098
0
SEQEND
0
POLYLINE
8
L4
66
1
70
1
0
VERTEX
8
L4
10
33.19538299286013
20
-55.60975609756097
0
VERTEX
8
L4
10
33.19538299286013
20
-55.48780487804877
0
VERTEX
8
L4
10
33.17099274895769
20
-55.48780487804877
0
VERTEX
8
L4
10
33.17099274895769
20
-55.097560975609746
0
VERTEX
8
L4
10
33.33718251582577
20
-55.097560975609746
0
VERTEX
8
L4
10
33.33718251582577
20
-55.765771944543005
0
VERTEX
8
L4
10
33.20616406866266
20
-55.765771944543005
0
VERTEX
8
L4
10
33.20616406866266
20
-56.40243902439024
0
VERTEX
8
L4
10
33.32811528817486
20
-56.40243902439024
0
VERTEX
8
L4
10
33.32811528817486
20
-55.863332920152764
0
VERTEX
8
L4
10
33.434743491435526
20
-55.863332920152764
0
VERTEX
8
L4
10
33.434743491435526
20
-54.99999999999999
0
VERTEX
8
L4
10
33.073431773347934
20
-54.99999999999999
0
VERTEX
8
L4
10
33.073431773347934
20
-55.60975609756097
0
VERTEX
8
L4
10
33.19538299286013
20
-55.60975609756097
0
SEQEND
0
POLYLINE
8
L4
66
1
70
1
0
VERTEX
8
L4
10
31.850251770038525
20
-58.10975609756099
0
VERTEX
8
L4
10
31.454335635568796
20
-58.10975609756099
0
VERTEX
8
L4
10
31.454335635568796
20
-56.902439024390254
0
VERTEX
8
L4
10
31.47872587947124
20
-56.902439024390254
0
VERTEX
8
L4
10
31.47872587947124
20
-56.78048780487806
0
VERTEX
8
L4
10
31.356774659959044
20
-56.78048780487806
0
VERTEX
8
L4
10
31.356774659959044
20
-58.20731707317074
0
VERTEX
8
L4
10
31.947812745648278
20
-58.20731707317074
0
VERTEX
8
L4
10
31.947812745648278
20
-56.50000000000001
0
VERTEX
8
L4
10
31.18407983377641
20
-56.50000000000001
0
VERTEX
8
L4
10
31.18407983377641
20
-56.28048780487806
0
VERTEX
8
L4
10
31.06212861426421
20
-56.28048780487806
0
VERTEX
8
L4
10
31.06212861426421
20
-56.50000000000001
0
VERTEX
8
L4
10
30.63148674839543
20
-56.50000000000001
0
VERTEX
8
L4
10
30.63148674839543
20
-57.68292682926829
0
VERTEX
8
L4
10
31.18407983377638
20
-57.68292682926829
0
VERTEX
8
L4
10
31.18407983377641
20
-57.07317073170733
0
VERTEX
8
L4
10
31.06212861426421
20
-57.07317073170733
0
VERTEX
8
L4
10
31.06212861426421
20
-57.19512195121952
0
VERTEX
8
L4
10
31.086518858166656
20
-57.19512195121952
0
VERTEX
8
L4
10
31.086518858166627
20
-57.58536585365854
0
VERTEX
8
L4
10
30.729047724005184
20
-57.58536585365854
0
VERTEX
8
L4
10
30.729047724005184
20
-56.59756097560977
0
VERTEX
8
L4
10
31.850251770038525
20
-56.59756097560977
0
VERTEX
8
L4
10
31.850251770038525
20
-58.10975609756099
0
SEQEND
0
POLYLINE
8
L4
66
1
70
1
0
VERTEX
8
L4
10
32.36232314821778
20
-55.60975609756097
0
VERTEX
8
L4
10
32.36232314821778
20
-55.48780487804877
0
VERTEX
8
L4
10
32.337932904315366
20
-55.48780487804877
0
VERTEX
8
L4
10
32.337932904315366
20
-55.097560975609746
0
VERTEX
8
L4
10
32.71143974435414
20
-55.097560975609746
0
VERTEX
8
L4
10
32.71143974435414
20
-56.00967438356739
0
VERTEX
8
L4
10
32.31212861426421
20
-56.00967438356739
0
VERTEX
8
L4
10
32.31212861426421
20
-56.40243902439024
0
VERTEX
8
L4
10
32.43407983377641
20
-56.40243902439024
0
VERTEX
8
L4
10
32.43407983377641
20
-56.10723535917715
0
VERTEX
8
L4
10
32.80900071996389
20
-56.10723535917715
0
VERTEX
8
L4
10
32.80900071996389
20
-54.99999999999999
0
VERTEX
8
L4
10
32.24037192870561
20
-54.99999999999999
0
VERTEX
8
L4
10
32.24037192870561
20
-55.60975609756097
0
VERTEX
8
L4
10
32.36232314821778
20
-55.60975609756097
0
SEQEND
0
POLYLINE
8
L4
66
1
70
1
0
VERTEX
8
L4
10
32.11243087826652
20
-55.60975609756098
0
VERTEX
8
L4
10
32.11243087826652
20
-54.99999999999999
0
VERTEX
8
L4
10
31.10793943539379
20
-54.99999999999999
0
VERTEX
8
L4
10
31.10793943539379
20
-56.10723535917715
0
VERTEX
8
L4
10
31.635299345971518
20
-56.10723535917715
0
VERTEX
8
L4
10
31.635299345971518
20
-56.402439024390254
0
VERTEX
8
L4
10
31.757250565483716
20
-56.402439024390254
0
VERTEX
8
L4
10
31.757250565483716
20
-56.00967438356739
0
VERTEX
8
L4
10
31.20550041100354
20
-56.00967438356739
0
VERTEX
8
L4
10
31.20550041100354
20
-55.097560975609746
0
VERTEX
8
L4
10
32.01486990265677
20
-55.097560975609746
0
VERTEX
8
L4
10
32.01486990265677
20
-55.487804878048784
0
VERTEX
8
L4
10
31.990479658754325
20
-55.487804878048784
0
VERTEX
8
L4
10
31.990479658754325
20
-55.60975609756098
0
VERTEX
8
L4
10
32.11243087826652
20
-55.60975609756098
0
SEQEND
0
POLYLINE
8
L4
66
1
70
1
0
VERTEX
8
L4
10
33.17753853429262
20
-57.19512195121952
0
VERTEX
8
L4
10
33.20192877819504
20
-57.19512195121952
0
VERTEX
8
L4
10
33.20192877819504
20
-57.609756097560975
0
VERTEX
8
L4
10
32.90867531883207
20
-57.609756097560975
0
VERTEX
8
L4
10
32.90867531883207
20
-56.673252445700896
0
VERTEX
8
L4
10
32.98055431256502
20
-56.673252445700896
0
VERTEX
8
L4
10
32.98055431256502
20
-56.28048780487806
0
VERTEX
8
L4
10
32.85860309305282
20
-56.28048780487804
0
VERTEX
8
L4
10
32.85860309305282
20
-56.575691470091144
0
VERTEX
8
L4
10
32.04394730368047
20
-56.575691470091144
0
VERTEX
8
L4
10
32.04394730368047
20
-57.804878048780495
0
VERTEX
8
L4
10
32.50623629444182
20
-57.804878048780495
0
VERTEX
8
L4
10
32.50623629444182
20
-56.85617927496919
0
VERTEX
8
L4
10
32.38428507492962
20
-56.85617927496919
0
VERTEX
8
L4
10
32.38428507492962
20
-56.97813049448139
0
VERTEX
8
L4
10
32.40867531883207
20
-56.97813049448139
0
VERTEX
8
L4
10
32.40867531883207
20
-57.707317073170735
0
VERTEX
8
L4
10
32.14150827929022
20
-57.707317073170735
0
VERTEX
8
L4
10
32.14150827929022
20
-56.673252445700896
0
VERTEX
8
L4
10
32.811114343222314
20
-56.673252445700896
0
VERTEX
8
L4
10
32.811114343222314
20
-57.707317073170735
0
VERTEX
8
L4
10
33.29948975380482
20
-57.707317073170735
0
VERTEX
8
L4
10
33.29948975380482
20
-57.07317073170733
0
VERTEX
8
L4
10
33.17753853429262
20
-57.07317073170733
0
VERTEX
8
L4
10
33.17753853429262
20
-57.19512195121952
0
SEQEND
0
POLYLINE
8
L4
66
1
70
1
0
VERTEX
8
L4
10
33.556934033502316
20
-57.19512195121951
0
VERTEX
8
L4
10
33.556934033502316
20
-57.073170731707314
0
VERTEX
8
L4
10
33.43498281399012
20
-57.073170731707314
0
VERTEX
8
L4
10
33.43498281399012
20
-57.68292682926829
0
VERTEX
8
L4
10
33.96092867841914
20
-57.68292682926829
0
VERTEX
8
L4
10
33.96092867841914
20
-56.52439024390244
0
VERTEX
8
L4
10
34.012195121951194
20
-56.52439024390244
0
VERTEX
8
L4
10
34.012195121951194
20
-56.28048780487804
0
VERTEX
8
L4
10
33.863367702809384
20
-56.28048780487804
0
VERTEX
8
L4
10
33.863367702809384
20
-57.58536585365854
0
VERTEX
8
L4
10
33.53254378959987
20
-57.58536585365854
0
VERTEX
8
L4
10
33.53254378959987
20
-57.19512195121951
0
VERTEX
8
L4
10
33.556934033502316
20
-57.19512195121951
0
SEQEND
0
POLYLINE
8
L4
66
1
70
1
0
VERTEX
8
L4
10
36.74794401527815
20
-55.60975609756098
0
VERTEX
8
L4
10
36.74794401527815
20
-54.99999999999999
0
VERTEX
8
L4
10
36.2829737606052
20
-54.99999999999999
0
VERTEX
8
L4
10
36.2829737606052
20
-56.15853658536585
0
VERTEX
8
L4
10
36.23170731707317
20
-56.15853658536585
0
VERTEX
8
L4
10
36.23170731707317
20
-56.40243902439024
0
VERTEX
8
L4
10
36.38053473621498
20
-56.40243902439024
0
VERTEX
8
L4
10
36.38053473621498
20
-55.097560975609746
0
VERTEX
8
L4
10
36.6503830396684
20
-55.097560975609746
0
VERTEX
8
L4
10
36.6503830396684
20
-55.487804878048784
0
VERTEX
8
L4
10
36.62599279576595
20
-55.487804878048784
0
VERTEX
8
L4
10
36.62599279576595
20
-55.60975609756098
0
VERTEX
8
L4
10
36.74794401527815
20
-55.60975609756098
0
SEQEND
0
POLYLINE
8
L4
66
1
70
1
0
VERTEX
8
L4
10
39.04904152944552
20
-55.60975609756097
0
VERTEX
8
L4
10
39.04904152944552
20
-55.48780487804877
0
VERTEX
8
L4
10
39.02465128554307
20
-55.48780487804877
0
VERTEX
8
L4
10
39.02465128554307
20
-55.097560975609746
0
VERTEX
8
L4
10
39.19084105241116
20
-55.097560975609746
0
VERTEX
8
L4
10
39.19084105241116
20
-55.765771944543005
0
VERTEX
8
L4
10
39.059822605248044
20
-55.765771944543005
0
VERTEX
8
L4
10
39.059822605248044
20
-56.40243902439024
0
VERTEX
8
L4
10
39.18177382476024
20
-56.40243902439024
0
VERTEX
8
L4
10
39.18177382476024
20
-55.863332920152764
0
VERTEX
8
L4
10
39.28840202802091
20
-55.863332920152764
0
VERTEX
8
L4
10
39.28840202802091
20
-54.99999999999999
0
VERTEX
8
L4
10
38.92709030993332
20
-54.99999999999999
0
VERTEX
8
L4
10
38.92709030993332
20
-55.60975609756097
0
VERTEX
8
L4
10
39.04904152944552
20
-55.60975609756097
0
SEQEND
0
POLYLINE
8
L4
66
1
70
1
0
VERTEX
8
L4
10
37.70391030662391
20
-58.10975609756099
0
VERTEX
8
L4
10
37.30799417215418
20
-58.10975609756099
0
VERTEX
8
L4
10
37.30799417215418
20
-56.902439024390254
0
VERTEX
8
L4
10
37.33238441605663
20
-56.902439024390254
0
VERTEX
8
L4
10
37.33238441605663
20
-56.78048780487806
0
VERTEX
8
L4
10
37.21043319654443
20
-56.78048780487806
0
VERTEX
8
L4
10
37.21043319654443
20
-58.20731707317074
0
VERTEX
8
L4
10
37.80147128223366
20
-58.20731707317074
0
VERTEX
8
L4
10
37.80147128223366
20
-56.50000000000001
0
VERTEX
8
L4
10
37.037738370361794
20
-56.50000000000001
0
VERTEX
8
L4
10
37.037738370361794
20
-56.28048780487806
0
VERTEX
8
L4
10
36.915787150849596
20
-56.28048780487806
0
VERTEX
8
L4
10
36.915787150849596
20
-56.50000000000001
0
VERTEX
8
L4
10
36.48514528498082
20
-56.50000000000001
0
VERTEX
8
L4
10
36.48514528498082
20
-57.68292682926829
0
VERTEX
8
L4
10
37.037738370361765
20
-57.68292682926829
0
VERTEX
8
L4
10
37.037738370361794
20
-57.07317073170733
0
VERTEX
8
L4
10
36.915787150849596
20
-57.07317073170733
0
VERTEX
8
L4
10
36.915787150849596
20
-57.19512195121952
0
VERTEX
8
L4
10
36.94017739475204
20
-57.19512195121952
0
VERTEX
8
L4
10
36.94017739475201
20
-57.58536585365854
0
VERTEX
8
L4
10
36.58270626059057
20
-57.58536585365854
0
VERTEX
8
L4
10
36.58270626059057
20
-56.59756097560977
0
VERTEX
8
L4
10
37.70391030662391
20
-56.59756097560977
0
VERTEX
8
L4
10
37.70391030662391
20
-58.10975609756099
0
SEQEND
0
POLYLINE
8
L4
66
1
70
1
0
VERTEX
8
L4
10
38.21598168480317
20
-55.60975609756097
0
VERTEX
8
L4
10
38.21598168480317
20
-55.48780487804877
0
VERTEX
8
L4
10
38.19159144090075
20
-55.48780487804877
0
VERTEX
8
L4
10
38.19159144090075
20
-55.097560975609746
0
VERTEX
8
L4
10
38.56509828093952
20
-55.097560975609746
0
VERTEX
8
L4
10
38.56509828093952
20
-56.00967438356739
0
VERTEX
8
L4
10
38.165787150849596
20
-56.00967438356739
0
VERTEX
8
L4
10
38.165787150849596
20
-56.40243902439024
0
VERTEX
8
L4
10
38.287738370361794
20
-56.40243902439024
0
VERTEX
8
L4
10
38.287738370361794
20
-56.10723535917715
0
VERTEX
8
L4
10
38.662659256549276
20
-56.10723535917715
0
VERTEX
8
L4
10
38.662659256549276
20
-54.99999999999999
0
VERTEX
8
L4
10
38.094030465291
20
-54.99999999999999
0
VERTEX
8
L4
10
38.094030465291
20
-55.60975609756097
0
VERTEX
8
L4
10
38.21598168480317
20
-55.60975609756097
0
SEQEND
0
POLYLINE
8
L4
66
1
70
1
0
VERTEX
8
L4
10
37.96608941485191
20
-55.60975609756098
0
VERTEX
8
L4
10
37.96608941485191
20
-54.99999999999999
0
VERTEX
8
L4
10
36.961597971979174
20
-54.99999999999999
0
VERTEX
8
L4
10
36.961597971979174
20
-56.10723535917715
0
VERTEX
8
L4
10
37.4889578825569
20
-56.10723535917715
0
VERTEX
8
L4
10
37.4889578825569
20
-56.402439024390254
0
VERTEX
8
L4
10
37.6109091020691
20
-56.402439024390254
0
VERTEX
8
L4
10
37.6109091020691
20
-56.00967438356739
0
VERTEX
8
L4
10
37.05915894758893
20
-56.00967438356739
0
VERTEX
8
L4
10
37.05915894758893
20
-55.097560975609746
0
VERTEX
8
L4
10
37.868528439242155
20
-55.097560975609746
0
VERTEX
8
L4
10
37.868528439242155
20
-55.487804878048784
0
VERTEX
8
L4
10
37.84413819533971
20
-55.487804878048784
0
VERTEX
8
L4
10
37.84413819533971
20
-55.60975609756098
0
VERTEX
8
L4
10
37.96608941485191
20
-55.60975609756098
0
SEQEND
0
POLYLINE
8
L4
66
1
70
1
0
VERTEX
8
L4
10
39.03119707087801
20
-57.19512195121952
0
VERTEX
8
L4
10
39.055587314780425
20
-57.19512195121952
0
VERTEX
8
L4
10
39.055587314780425
20
-57.609756097560975
0
VERTEX
8
L4
10
38.76233385541745
20
-57.609756097560975
0
VERTEX
8
L4
10
38.76233385541745
20
-56.673252445700896
0
VERTEX
8
L4
10
38.834212849150404
20
-56.673252445700896
0
VERTEX
8
L4
10
38.834212849150404
20
-56.28048780487806
0
VERTEX
8
L4
10
38.712261629638206
20
-56.28048780487804
0
VERTEX
8
L4
10
38.712261629638206
20
-56.575691470091144
0
VERTEX
8
L4
10
37.897605840265854
20
-56.575691470091144
0
VERTEX
8
L4
10
37.897605840265854
20
-57.804878048780495
0
VERTEX
8
L4
10
38.359894831027205
20
-57.804878048780495
0
VERTEX
8
L4
10
38.359894831027205
20
-56.85617927496919
0
VERTEX
8
L4
10
38.23794361151501
20
-56.85617927496919
0
VERTEX
8
L4
10
38.23794361151501
20
-56.97813049448139
0
VERTEX
8
L4
10
38.26233385541745
20
-56.97813049448139
0
VERTEX
8
L4
10
38.26233385541745
20
-57.707317073170735
0
VERTEX
8
L4
10
37.995166815875606
20
-57.707317073170735
0
VERTEX
8
L4
10
37.995166815875606
20
-56.673252445700896
0
VERTEX
8
L4
10
38.6647728798077
20
-56.673252445700896
0
VERTEX
8
L4
10
38.6647728798077
20
-57.707317073170735
0
VERTEX
8
L4
10
39.153148290390206
20
-57.707317073170735
0
VERTEX
8
L4
10
39.153148290390206
20
-57.07317073170733
0
VERTEX
8
L4
10
39.03119707087801
20
-57.07317073170733
0
VERTEX
8
L4
10
39.03119707087801
20
-57.19512195121952
0
SEQEND
0
POLYLINE
8
L4
66
1
70
1
0
VERTEX
8
L4
10
39.4105925700877
20
-57.19512195121951
0
VERTEX
8
L4
10
39.4105925700877
20
-57.073170731707314
0
VERTEX
8
L4
10
39.2886413505755
20
-57.073170731707314
0
VERTEX
8
L4
10
39.2886413505755
20
-57.68292682926829
0
VERTEX
8
L4
10
39.81458721500452
20
-57.68292682926829
0
VERTEX
8
L4
10
39.81458721500452
20
-56.52439024390244
0
VERTEX
8
L4
10
39.86585365853658
20
-56.52439024390244
0
VERTEX
8
L4
10
39.86585365853658
20
-56.28048780487804
0
VERTEX
8
L4
10
39.71702623939477
20
-56.28048780487804
0
VERTEX
8
L4
10
39.71702623939477
20
-57.58536585365854
0
VERTEX
8
L4
10
39.386202326185256
20
-57.58536585365854
0
VERTEX
8
L4
10
39.386202326185256
20
-57.19512195121951
0
VERTEX
8
L4
10
39.4105925700877
20
-57.19512195121951
0
SEQEND
0
POLYLINE
8
L4
66
1
70
1
0
VERTEX
8
L4
10
42.601602551863536
20
-55.60975609756098
0
VERTEX
8
L4
10
42.601602551863536
20
-54.99999999999999
0
VERTEX
8
L4
10
42.13663229719059
20
-54.99999999999999
0
VERTEX
8
L4
10
42.13663229719059
20
-56.15853658536585
0
VERTEX
8
L4
10
42.08536585365856
20
-56.15853658536585
0
VERTEX
8
L4
10
42.08536585365856
20
-56.40243902439024
0
VERTEX
8
L4
10
42.23419327280037
20
-56.40243902439024
0
VERTEX
8
L4
10
42.23419327280037
20
-55.097560975609746
0
VERTEX
8
L4
10
42.50404157625378
20
-55.097560975609746
0
VERTEX
8
L4
10
42.50404157625378
20
-55.487804878048784
0
VERTEX
8
L4
10
42.47965133235134
20
-55.487804878048784
0
VERTEX
8
L4
10
42.47965133235134
20
-55.60975609756098
0
VERTEX
8
L4
10
42.601602551863536
20
-55.60975609756098
0
SEQEND
0
POLYLINE
8
L4
66
1
70
1
0
VERTEX
8
L4
10
44.9027000660309
20
-55.60975609756097
0
VERTEX
8
L4
10
44.9027000660309
20
-55.48780487804877
0
VERTEX
8
L4
10
44.87830982212846
20
-55.48780487804877
0
VERTEX
8
L4
10
44.87830982212846
20
-55.097560975609746
0
VERTEX
8
L4
10
45.044499588996544
20
-55.097560975609746
0
VERTEX
8
L4
10
45.044499588996544
20
-55.765771944543005
0
VERTEX
8
L4
10
44.91348114183343
20
-55.765771944543005
0
VERTEX
8
L4
10
44.91348114183343
20
-56.40243902439024
0
VERTEX
8
L4
10
45.03543236134563
20
-56.40243902439024
0
VERTEX
8
L4
10
45.03543236134563
20
-55.863332920152764
0
VERTEX
8
L4
10
45.1420605646063
20
-55.863332920152764
0
VERTEX
8
L4
10
45.1420605646063
20
-54.99999999999999
0
VERTEX
8
L4
10
44.780748846518705
20
-54.99999999999999
0
VERTEX
8
L4
10
44.780748846518705
20
-55.60975609756097
0
VERTEX
8
L4
10
44.9027000660309
20
-55.60975609756097
0
SEQEND
0
POLYLINE
8
L4
66
1
70
1
0
VERTEX
8
L4
10
43.557568843209296
20
-58.10975609756099
0
VERTEX
8
L4
10
43.16165270873957
20
-58.10975609756099
0
VERTEX
8
L4
10
43.16165270873957
20
-56.902439024390254
0
VERTEX
8
L4
10
43.18604295264201
20
-56.902439024390254
0
VERTEX
8
L4
10
43.18604295264201
20
-56.78048780487806
0
VERTEX
8
L4
10
43.064091733129814
20
-56.78048780487806
0
VERTEX
8
L4
10
43.064091733129814
20
-58.20731707317074
0
VERTEX
8
L4
10
43.65512981881905
20
-58.20731707317074
0
VERTEX
8
L4
10
43.65512981881905
20
-56.50000000000001
0
VERTEX
8
L4
10
42.89139690694718
20
-56.50000000000001
0
VERTEX
8
L4
10
42.89139690694718
20
-56.28048780487806
0
VERTEX
8
L4
10
42.76944568743498
20
-56.28048780487806
0
VERTEX
8
L4
10
42.76944568743498
20
-56.50000000000001
0
VERTEX
8
L4
10
42.3388038215662
20
-56.50000000000001
0
VERTEX
8
L4
10
42.3388038215662
20
-57.68292682926829
0
VERTEX
8
L4
10
42.89139690694715
20
-57.68292682926829
0
VERTEX
8
L4
10
42.89139690694718
20
-57.07317073170733
0
VERTEX
8
L4
10
42.76944568743498
20
-57.07317073170733
0
VERTEX
8
L4
10
42.76944568743498
20
-57.19512195121952
0
VERTEX
8
L4
10
42.793835931337426
20
-57.19512195121952
0
VERTEX
8
L4
10
42.7938359313374
20
-57.58536585365854
0
VERTEX
8
L4
10
42.436364797175955
20
-57.58536585365854
0
VERTEX
8
L4
10
42.436364797175955
20
-56.59756097560977
0
VERTEX
8
L4
10
43.557568843209296
20
-56.59756097560977
0
VERTEX
8
L4
10
43.557568843209296
20
-58.10975609756099
0
SEQEND
0
POLYLINE
8
L4
66
1
70
1
0
VERTEX
8
L4
10
44.06964022138855
20
-55.60975609756097
0
VERTEX
8
L4
10
44.06964022138855
20
-55.48780487804877
0
VERTEX
8
L4
10
44.04524997748614
20
-55.48780487804877
0
VERTEX
8
L4
10
44.04524997748614
20
-55.097560975609746
0
VERTEX
8
L4
10
44.41875681752491
20
-55.097560975609746
0
VERTEX
8
L4
10
44.41875681752491
20
-56.00967438356739
0
VERTEX
8
L4
10
44.01944568743498
20
-56.00967438356739
0
VERTEX
8
L4
10
44.01944568743498
20
-56.40243902439024
0
VERTEX
8
L4
10
44.14139690694718
20
-56.40243902439024
0
VERTEX
8
L4
10
44.14139690694718
20
-56.10723535917715
0
VERTEX
8
L4
10
44.51631779313466
20
-56.10723535917715
0
VERTEX
8
L4
10
44.51631779313466
20
-54.99999999999999
0
VERTEX
8
L4
10
43.947689001876384
20
-54.99999999999999
0
VERTEX
8
L4
10
43.947689001876384
20
-55.60975609756097
0
VERTEX
8
L4
10
44.06964022138855
20
-55.60975609756097
0
SEQEND
0
POLYLINE
8
L4
66
1
70
1
0
VERTEX
8
L4
10
43.81974795143729
20
-55.60975609756098
0
VERTEX
8
L4
10
43.81974795143729
20
-54.99999999999999
0
VERTEX
8
L4
10
42.81525650856456
20
-54.99999999999999
0
VERTEX
8
L4
10
42.81525650856456
20
-56.10723535917715
0
VERTEX
8
L4
10
43.34261641914229
20
-56.10723535917715
0
VERTEX
8
L4
10
43.34261641914229
20
-56.402439024390254
0
VERTEX
8
L4
10
43.464567638654486
20
-56.402439024390254
0
VERTEX
8
L4
10
43.464567638654486
20
-56.00967438356739
0
VERTEX
8
L4
10
42.91281748417431
20
-56.00967438356739
0
VERTEX
8
L4
10
42.91281748417431
20
-55.097560975609746
0
VERTEX
8
L4
10
43.72218697582754
20
-55.097560975609746
0
VERTEX
8
L4
10
43.72218697582754
20
-55.487804878048784
0
VERTEX
8
L4
10
43.697796731925095
20
-55.487804878048784
0
VERTEX
8
L4
10
43.697796731925095
20
-55.60975609756098
0
VERTEX
8
L4
10
43.81974795143729
20
-55.60975609756098
0
SEQEND
0
POLYLINE
8
L4
66
1
70
1
0
VERTEX
8
L4
10
44.88485560746339
20
-57.19512195121952
0
VERTEX
8
L4
10
44.90924585136581
20
-57.19512195121952
0
VERTEX
8
L4
10
44.90924585136581
20
-57.609756097560975
0
VERTEX
8
L4
10
44.61599239200284
20
-57.609756097560975
0
VERTEX
8
L4
10
44.61599239200284
20
-56.673252445700896
0
VERTEX
8
L4
10
44.68787138573579
20
-56.673252445700896
0
VERTEX
8
L4
10
44.68787138573579
20
-56.28048780487806
0
VERTEX
8
L4
10
44.56592016622359
20
-56.28048780487804
0
VERTEX
8
L4
10
44.56592016622359
20
-56.575691470091144
0
VERTEX
8
L4
10
43.75126437685124
20
-56.575691470091144
0
VERTEX
8
L4
10
43.75126437685124
20
-57.804878048780495
0
VERTEX
8
L4
10
44.21355336761259
20
-57.804878048780495
0
VERTEX
8
L4
10
44.21355336761259
20
-56.85617927496919
0
VERTEX
8
L4
10
44.09160214810039
20
-56.85617927496919
0
VERTEX
8
L4
10
44.09160214810039
20
-56.97813049448139
0
VERTEX
8
L4
10
44.11599239200284
20
-56.97813049448139
0
VERTEX
8
L4
10
44.11599239200284
20
-57.707317073170735
0
VERTEX
8
L4
10
43.84882535246099
20
-57.707317073170735
0
VERTEX
8
L4
10
43.84882535246099
20
-56.673252445700896
0
VERTEX
8
L4
10
44.518431416393085
20
-56.673252445700896
0
VERTEX
8
L4
10
44.518431416393085
20
-57.707317073170735
0
VERTEX
8
L4
10
45.00680682697559
20
-57.707317073170735
0
VERTEX
8
L4
10
45.00680682697559
20
-57.07317073170733
0
VERTEX
8
L4
10
44.88485560746339
20
-57.07317073170733
0
VERTEX
8
L4
10
44.88485560746339
20
-57.19512195121952
0
SEQEND
0
POLYLINE
8
L4
66
1
70
1
0
VERTEX
8
L4
10
45.264251106673086
20
-57.19512195121951
0
VERTEX
8
L4
10
45.264251106673086
20
-57.073170731707314
0
VERTEX
8
L4
10
45.14229988716089
20
-57.073170731707314
0
VERTEX
8
L4
10
45.14229988716089
20
-57.68292682926829
0
VERTEX
8
L4
10
45.66824575158991
20
-57.68292682926829
0
VERTEX
8
L4
10
45.66824575158991
20
-56.52439024390244
0
VERTEX
8
L4
10
45.719512195121965
20
-56.52439024390244
0
VERTEX
8
L4
10
45.719512195121965
20
-56.28048780487804
0
VERTEX
8
L4
10
45.570684775980155
20
-56.28048780487804
0
VERTEX
8
L4
10
45.570684775980155
20
-57.58536585365854
0
VERTEX
8
L4
10
45.23986086277064
20
-57.58536585365854
0
VERTEX
8
L4
10
45.23986086277064
20
-57.19512195121951
0
VERTEX
8
L4
10
45.264251106673086
20
-57.19512195121951
0
SEQEND
0
POLYLINE
8
L4
66
1
70
1
0
VERTEX
8
L4
10
48.45526108844889
20
-55.60975609756098
0
VERTEX
8
L4
10
48.45526108844889
20
-54.99999999999999
0
VERTEX
8
L4
10
47.990290833775944
20
-54.99999999999999
0
VERTEX
8
L4
10
47.990290833775944
20
-56.15853658536585
0
VERTEX
8
L4
10
47.939024390243915
20
-56.15853658536585
0
VERTEX
8
L4
10
47.939024390243915
20
-56.40243902439024
0
VERTEX
8
L4
10
48.087851809385725
20
-56.40243902439024
0
VERTEX
8
L4
10
48.087851809385725
20
-55.097560975609746
0
VERTEX
8
L4
10
48.35770011283914
20
-55.097560975609746
0
VERTEX
8
L4
10
48.35770011283914
20
-55.487804878048784
0
VERTEX
8
L4
10
48.333309868936695
20
-55.487804878048784
0
VERTEX
8
L4
10
48.333309868936695
20
-55.60975609756098
0
VERTEX
8
L4
10
48.45526108844889
20
-55.60975609756098
0
SEQEND
0
POLYLINE
8
L4
66
1
70
1
0
VERTEX
8
L4
10
50.75635860261626
20
-55.60975609756097
0
VERTEX
8
L4
10
50.75635860261626
20
-55.48780487804877
0
VERTEX
8
L4
10
50.731968358713814
20
-55.48780487804877
0
VERTEX
8
L4
10
50.731968358713814
20
-55.097560975609746
0
VERTEX
8
L4
10
50.8981581255819
20
-55.097560975609746
0
VERTEX
8
L4
10
50.8981581255819
20
-55.765771944543005
0
VERTEX
8
L4
10
50.767139678418786
20
-55.765771944543005
0
VERTEX
8
L4
10
50.767139678418786
20
-56.40243902439024
0
VERTEX
8
L4
10
50.889090897930984
20
-56.40243902439024
0
VERTEX
8
L4
10
50.889090897930984
20
-55.863332920152764
0
VERTEX
8
L4
10
50.99571910119165
20
-55.863332920152764
0
VERTEX
8
L4
10
50.99571910119165
20
-54.99999999999999
0
VERTEX
8
L4
10
50.63440738310406
20
-54.99999999999999
0
VERTEX
8
L4
10
50.63440738310406
20
-55.60975609756097
0
VERTEX
8
L4
10
50.75635860261626
20
-55.60975609756097
0
SEQEND
0
POLYLINE
8
L4
66
1
70
1
0
VERTEX
8
L4
10
49.41122737979465
20
-58.10975609756099
0
VERTEX
8
L4
10
49.015311245324924
20
-58.10975609756099
0
VERTEX
8
L4
10
49.015311245324924
20
-56.902439024390254
0
VERTEX
8
L4
10
49.03970148922737
20
-56.902439024390254
0
VERTEX
8
L4
10
49.03970148922737
20
-56.78048780487806
0
VERTEX
8
L4
10
48.91775026971517
20
-56.78048780487806
0
VERTEX
8
L4
10
48.91775026971517
20
-58.20731707317074
0
VERTEX
8
L4
10
49.508788355404405
20
-58.20731707317074
0
VERTEX
8
L4
10
49.508788355404405
20
-56.50000000000001
0
VERTEX
8
L4
10
48.745055443532536
20
-56.50000000000001
0
VERTEX
8
L4
10
48.745055443532536
20
-56.28048780487806
0
VERTEX
8
L4
10
48.62310422402034
20
-56.28048780487806
0
VERTEX
8
L4
10
48.62310422402034
20
-56.50000000000001
0
VERTEX
8
L4
10
48.19246235815156
20
-56.50000000000001
0
VERTEX
8
L4
10
48.19246235815156
20
-57.68292682926829
0
VERTEX
8
L4
10
48.74505544353251
20
-57.68292682926829
0
VERTEX
8
L4
10
48.745055443532536
20
-57.07317073170733
0
VERTEX
8
L4
10
48.62310422402034
20
-57.07317073170733
0
VERTEX
8
L4
10
48.62310422402034
20
-57.19512195121952
0
VERTEX
8
L4
10
48.64749446792278
20
-57.19512195121952
0
VERTEX
8
L4
10
48.647494467922755
20
-57.58536585365854
0
VERTEX
8
L4
10
48.29002333376131
20
-57.58536585365854
0
VERTEX
8
L4
10
48.29002333376131
20
-56.59756097560977
0
VERTEX
8
L4
10
49.41122737979465
20
-56.59756097560977
0
VERTEX
8
L4
10
49.41122737979465
20
-58.10975609756099
0
SEQEND
0
POLYLINE
8
L4
66
1
70
1
0
VERTEX
8
L4
10
49.92329875797391
20
-55.60975609756097
0
VERTEX
8
L4
10
49.92329875797391
20
-55.48780487804877
0
VERTEX
8
L4
10
49.89890851407149
20
-55.48780487804877
0
VERTEX
8
L4
10
49.89890851407149
20
-55.097560975609746
0
VERTEX
8
L4
10
50.272415354110265
20
-55.097560975609746
0
VERTEX
8
L4
10
50.272415354110265
20
-56.00967438356739
0
VERTEX
8
L4
10
49.87310422402034
20
-56.00967438356739
0
VERTEX
8
L4
10
49.87310422402034
20
-56.40243902439024
0
VERTEX
8
L4
10
49.995055443532536
20
-56.40243902439024
0
VERTEX
8
L4
10
49.995055443532536
20
-56.10723535917715
0
VERTEX
8
L4
10
50.36997632972002
20
-56.10723535917715
0
VERTEX
8
L4
10
50.36997632972002
20
-54.99999999999999
0
VERTEX
8
L4
10
49.80134753846174
20
-54.99999999999999
0
VERTEX
8
L4
10
49.80134753846174
20
-55.60975609756097
0
VERTEX
8
L4
10
49.92329875797391
20
-55.60975609756097
0
SEQEND
0
POLYLINE
8
L4
66
1
70
1
0
VERTEX
8
L4
10
49.67340648802265
20
-55.60975609756098
0
VERTEX
8
L4
10
49.67340648802265
20
-54.99999999999999
0
VERTEX
8
L4
10
48.668915045149916
20
-54.99999999999999
0
VERTEX
8
L4
10
48.668915045149916
20
-56.10723535917715
0
VERTEX
8
L4
10
49.196274955727645
20
-56.10723535917715
0
VERTEX
8
L4
10
49.196274955727645
20
-56.402439024390254
0
VERTEX
8
L4
10
49.31822617523984
20
-56.402439024390254
0
VERTEX
8
L4
10
49.31822617523984
20
-56.00967438356739
0
VERTEX
8
L4
10
48.76647602075967
20
-56.00967438356739
0
VERTEX
8
L4
10
48.76647602075967
20
-55.097560975609746
0
VERTEX
8
L4
10
49.5758455124129
20
-55.097560975609746
0
VERTEX
8
L4
10
49.5758455124129
20
-55.487804878048784
0
VERTEX
8
L4
10
49.55145526851045
20
-55.487804878048784
0
VERTEX
8
L4
10
49.55145526851045
20
-55.60975609756098
0
VERTEX
8
L4
10
49.67340648802265
20
-55.60975609756098
0
SEQEND
0
POLYLINE
8
L4
66
1
70
1
0
VERTEX
8
L4
10
50.73851414404875
20
-57.19512195121952
0
VERTEX
8
L4
10
50.76290438795117
20
-57.19512195121952
0
VERTEX
8
L4
10
50.76290438795117
20
-57.609756097560975
0
VERTEX
8
L4
10
50.469650928588194
20
-57.609756097560975
0
VERTEX
8
L4
10
50.469650928588194
20
-56.673252445700896
0
VERTEX
8
L4
10
50.541529922321146
20
-56.673252445700896
0
VERTEX
8
L4
10
50.541529922321146
20
-56.28048780487806
0
VERTEX
8
L4
10
50.41957870280895
20
-56.28048780487804
0
VERTEX
8
L4
10
50.41957870280895
20
-56.575691470091144
0
VERTEX
8
L4
10
49.604922913436596
20
-56.575691470091144
0
VERTEX
8
L4
10
49.604922913436596
20
-57.804878048780495
0
VERTEX
8
L4
10
50.06721190419795
20
-57.804878048780495
0
VERTEX
8
L4
10
50.06721190419795
20
-56.85617927496919
0
VERTEX
8
L4
10
49.94526068468575
20
-56.85617927496919
0
VERTEX
8
L4
10
49.94526068468575
20
-56.97813049448139
0
VERTEX
8
L4
10
49.969650928588194
20
-56.97813049448139
0
VERTEX
8
L4
10
49.969650928588194
20
-57.707317073170735
0
VERTEX
8
L4
10
49.70248388904635
20
-57.707317073170735
0
VERTEX
8
L4
10
49.70248388904635
20
-56.673252445700896
0
VERTEX
8
L4
10
50.37208995297844
20
-56.673252445700896
0
VERTEX
8
L4
10
50.37208995297844
20
-57.707317073170735
0
VERTEX
8
L4
10
50.86046536356095
20
-57.707317073170735
0
VERTEX
8
L4
10
50.86046536356095
20
-57.07317073170733
0
VERTEX
8
L4
10
50.73851414404875
20
-57.07317073170733
0
VERTEX
8
L4
10
50.73851414404875
20
-57.19512195121952
0
SEQEND
0
POLYLINE
8
L4
66
1
70
1
0
VERTEX
8
L4
10
51.11790964325844
20
-57.19512195121951
0
VERTEX
8
L4
10
51.11790964325844
20
-57.073170731707314
0
VERTEX
8
L4
10
50.995958423746245
20
-57.073170731707314
0
VERTEX
8
L4
10
50.995958423746245
20
-57.68292682926829
0
VERTEX
8
L4
10
51.521904288175264
20
-57.68292682926829
0
VERTEX
8
L4
10
51.521904288175264
20
-56.52439024390244
0
VERTEX
8
L4
10
51.57317073170732
20
-56.52439024390244
0
VERTEX
8
L4
10
51.57317073170732
20
-56.28048780487804
0
VERTEX
8
L4
10
51.42434331256551
20
-56.28048780487804
0
VERTEX
8
L4
10
51.42434331256551
20
-57.58536585365854
0
VERTEX
8
L4
10
51.093519399356
20
-57.58536585365854
0
VERTEX
8
L4
10
51.093519399356
20
-57.19512195121951
0
VERTEX
8
L4
10
51.11790964325844
20
-57.19512195121951
0
SEQEND
0
POLYLINE
8
L4
66
1
70
1
0
VERTEX
8
L4
10
54.30891962503425
20
-55.60975609756098
0
VERTEX
8
L4
10
54.30891962503425
20
-54.99999999999999
0
VERTEX
8
L4
10
53.8439493703613
20
-54.99999999999999
0
VERTEX
8
L4
10
53.8439493703613
20
-56.15853658536585
0
VERTEX
8
L4
10
53.79268292682927
20
-56.15853658536585
0
VERTEX
8
L4
10
53.79268292682927
20
-56.40243902439024
0
VERTEX
8
L4
10
53.94151034597108
20
-56.40243902439024
0
VERTEX
8
L4
10
53.94151034597108
20
-55.097560975609746
0
VERTEX
8
L4
10
54.2113586494245
20
-55.097560975609746
0
VERTEX
8
L4
10
54.2113586494245
20
-55.487804878048784
0
VERTEX
8
L4
10
54.18696840552205
20
-55.487804878048784
0
VERTEX
8
L4
10
54.18696840552205
20
-55.60975609756098
0
VERTEX
8
L4
10
54.30891962503425
20
-55.60975609756098
0
SEQEND
0
POLYLINE
8
L4
66
1
70
1
0
VERTEX
8
L4
10
56.61001713920162
20
-55.60975609756097
0
VERTEX
8
L4
10
56.61001713920162
20
-55.48780487804877
0
VERTEX
8
L4
10
56.58562689529917
20
-55.48780487804877
0
VERTEX
8
L4
10
56.58562689529917
20
-55.097560975609746
0
VERTEX
8
L4
10
56.75181666216726
20
-55.097560975609746
0
VERTEX
8
L4
10
56.75181666216726
20
-55.765771944543005
0
VERTEX
8
L4
10
56.62079821500414
20
-55.765771944543005
0
VERTEX
8
L4
10
56.62079821500414
20
-56.40243902439024
0
VERTEX
8
L4
10
56.74274943451634
20
-56.40243902439024
0
VERTEX
8
L4
10
56.74274943451634
20
-55.863332920152764
0
VERTEX
8
L4
10
56.84937763777701
20
-55.863332920152764
0
VERTEX
8
L4
10
56.84937763777701
20
-54.99999999999999
0
VERTEX
8
L4
10
56.48806591968942
20
-54.99999999999999
0
VERTEX
8
L4
10
56.48806591968942
20
-55.60975609756097
0
VERTEX
8
L4
10
56.61001713920162
20
-55.60975609756097
0
SEQEND
0
POLYLINE
8
L4
66
1
70
1
0
VERTEX
8
L4
10
55.26488591638001
20
-58.10975609756099
0
VERTEX
8
L4
10
54.86896978191028
20
-58.10975609756099
0
VERTEX
8
L4
10
54.86896978191028
20
-56.902439024390254
0
VERTEX
8
L4
10
54.893360025812726
20
-56.902439024390254
0
VERTEX
8
L4
10
54.893360025812726
20
-56.78048780487806
0
VERTEX
8
L4
10
54.77140880630053
20
-56.78048780487806
0
VERTEX
8
L4
10
54.77140880630053
20
-58.20731707317074
0
VERTEX
8
L4
10
55.36244689198976
20
-58.20731707317074
0
VERTEX
8
L4
10
55.36244689198976
20
-56.50000000000001
0
VERTEX
8
L4
10
54.59871398011789
20
-56.50000000000001
0
VERTEX
8
L4
10
54.59871398011789
20
-56.28048780487806
0
VERTEX
8
L4
10
54.476762760605695
20
-56.28048780487806
0
VERTEX
8
L4
10
54.476762760605695
20
-56.50000000000001
0
VERTEX
8
L4
10
54.046120894736916
20
-56.50000000000001
0
VERTEX
8
L4
10
54.046120894736916
20
-57.68292682926829
0
VERTEX
8
L4
10
54.598713980117864
20
-57.68292682926829
0
VERTEX
8
L4
10
54.59871398011789
20
-57.07317073170733
0
VERTEX
8
L4
10
54.476762760605695
20
-57.07317073170733
0
VERTEX
8
L4
10
54.476762760605695
20
-57.19512195121952
0
VERTEX
8
L4
10
54.50115300450814
20
-57.19512195121952
0
VERTEX
8
L4
10
54.50115300450811
20
-57.58536585365854
0
VERTEX
8
L4
10
54.14368187034667
20
-57.58536585365854
0
VERTEX
8
L4
10
54.14368187034667
20
-56.59756097560977
0
VERTEX
8
L4
10
55.26488591638001
20
-56.59756097560977
0
VERTEX
8
L4
10
55.26488591638001
20
-58.10975609756099
0
SEQEND
0
POLYLINE
8
L4
66
1
70
1
0
VERTEX
8
L4
10
55.77695729455927
20
-55.60975609756097
0
VERTEX
8
L4
10
55.77695729455927
20
-55.48780487804877
0
VERTEX
8
L4
10
55.75256705065685
20
-55.48780487804877
0
VERTEX
8
L4
10
55.75256705065685
20
-55.097560975609746
0
VERTEX
8
L4
10
56.12607389069562
20
-55.097560975609746
0
VERTEX
8
L4
10
56.12607389069562
20
-56.00967438356739
0
VERTEX
8
L4
10
55.726762760605695
20
-56.00967438356739
0
VERTEX
8
L4
10
55.726762760605695
20
-56.40243902439024
0
VERTEX
8
L4
10
55.84871398011789
20
-56.40243902439024
0
VERTEX
8
L4
10
55.84871398011789
20
-56.10723535917715
0
VERTEX
8
L4
10
56.223634866305375
20
-56.10723535917715
0
VERTEX
8
L4
10
56.223634866305375
20
-54.99999999999999
0
VERTEX
8
L4
10
55.6550060750471
20
-54.99999999999999
0
VERTEX
8
L4
10
55.6550060750471
20
-55.60975609756097
0
VERTEX
8
L4
10
55.77695729455927
20
-55.60975609756097
0
SEQEND
0
POLYLINE
8
L4
66
1
70
1
0
VERTEX
8
L4
10
55.52706502460801
20
-55.60975609756098
0
VERTEX
8
L4
10
55.52706502460801
20
-54.99999999999999
0
VERTEX
8
L4
10
54.52257358173527
20
-54.99999999999999
0
VERTEX
8
L4
10
54.52257358173527
20
-56.10723535917715
0
VERTEX
8
L4
10
55.049933492313
20
-56.10723535917715
0
VERTEX
8
L4
10
55.049933492313
20
-56.402439024390254
0
VERTEX
8
L4
10
55.1718847118252
20
-56.402439024390254
0
VERTEX
8
L4
10
55.1718847118252
20
-56.00967438356739
0
VERTEX
8
L4
10
54.620134557345025
20
-56.00967438356739
0
VERTEX
8
L4
10
54.620134557345025
20
-55.097560975609746
0
VERTEX
8
L4
10
55.429504048998254
20
-55.097560975609746
0
VERTEX
8
L4
10
55.429504048998254
20
-55.487804878048784
0
VERTEX
8
L4
10
55.40511380509581
20
-55.487804878048784
0
VERTEX
8
L4
10
55.40511380509581
20
-55.60975609756098
0
VERTEX
8
L4
10
55.52706502460801
20
-55.60975609756098
0
SEQEND
0
POLYLINE
8
L4
66
1
70
1
0
VERTEX
8
L4
10
56.59217268063411
20
-57.19512195121952
0
VERTEX
8
L4
10
56.616562924536524
20
-57.19512195121952
0
VERTEX
8
L4
10
56.616562924536524
20
-57.609756097560975
0
VERTEX
8
L4
10
56.32330946517355
20
-57.609756097560975
0
VERTEX
8
L4
10
56.32330946517355
20
-56.673252445700896
0
VERTEX
8
L4
10
56.3951884589065
20
-56.673252445700896
0
VERTEX
8
L4
10
56.3951884589065
20
-56.28048780487806
0
VERTEX
8
L4
10
56.273237239394305
20
-56.28048780487804
0
VERTEX
8
L4
10
56.273237239394305
20
-56.575691470091144
0
VERTEX
8
L4
10
55.45858145002195
20
-56.575691470091144
0
VERTEX
8
L4
10
55.45858145002195
20
-57.804878048780495
0
VERTEX
8
L4
10
55.920870440783304
20
-57.804878048780495
0
VERTEX
8
L4
10
55.920870440783304
20
-56.85617927496919
0
VERTEX
8
L4
10
55.798919221271106
20
-56.85617927496919
0
VERTEX
8
L4
10
55.798919221271106
20
-56.97813049448139
0
VERTEX
8
L4
10
55.82330946517355
20
-56.97813049448139
0
VERTEX
8
L4
10
55.82330946517355
20
-57.707317073170735
0
VERTEX
8
L4
10
55.556142425631705
20
-57.707317073170735
0
VERTEX
8
L4
10
55.556142425631705
20
-56.673252445700896
0
VERTEX
8
L4
10
56.2257484895638
20
-56.673252445700896
0
VERTEX
8
L4
10
56.2257484895638
20
-57.707317073170735
0
VERTEX
8
L4
10
56.714123900146305
20
-57.707317073170735
0
VERTEX
8
L4
10
56.714123900146305
20
-57.07317073170733
0
VERTEX
8
L4
10
56.59217268063411
20
-57.07317073170733
0
VERTEX
8
L4
10
56.59217268063411
20
-57.19512195121952
0
SEQEND
0
POLYLINE
8
L4
66
1
70
1
0
VERTEX
8
L4
10
56.9715681798438
20
-57.19512195121951
0
VERTEX
8
L4
10
56.9715681798438
20
-57.073170731707314
0
VERTEX
8
L4
10
56.8496169603316
20
-57.073170731707314
0
VERTEX
8
L4
10
56.8496169603316
20
-57.68292682926829
0
VERTEX
8
L4
10
57.37556282476062
20
-57.68292682926829
0
VERTEX
8
L4
10
57.37556282476062
20
-56.52439024390244
0
VERTEX
8
L4
10
57.42682926829268
20
-56.52439024390244
0
VERTEX
8
L4
10
57.42682926829268
20
-56.28048780487804
0
VERTEX
8
L4
10
57.27800184915087
20
-56.28048780487804
0
VERTEX
8
L4
10
57.27800184915087
20
-57.58536585365854
0
VERTEX
8
L4
10
56.947177935941355
20
-57.58536585365854
0
VERTEX
8
L4
10
56.947177935941355
20
-57.19512195121951
0
VERTEX
8
L4
10
56.9715681798438
20
-57.19512195121951
0
SEQEND
0
ENDBLK
0
ENDSEC
0
SECTION
2
ENTITIES
0
INSERT
2
LDI_XFB44-1600-011_L4_B1
8
L4
10
0
20
0.0
30
0
0
INSERT
2
LDI_XFB44-1600-011_L4_B1
8
L4
10
0
20
5.121951219512195
30
0
0
INSERT
2
LDI_XFB44-1600-011_L4_B1
8
L4
10
0
20
10.24390243902439
30
0
0
INSERT
2
LDI_XFB44-1600-011_L4_B1
8
L4
10
0
20
15.365853658536587
30
0
0
INSERT
2
LDI_XFB44-1600-011_L4_B1
8
L4
10
0
20
20.48780487804878
30
0
0
INSERT
2
LDI_XFB44-1600-011_L4_B1
8
L4
10
0
20
25.609756097560975
30
0
0
INSERT
2
LDI_XFB44-1600-011_L4_B1
8
L4
10
0
20
30.731707317073173
30
0
0
INSERT
2
LDI_XFB44-1600-011_L4_B1
8
L4
10
0
20
35.853658536585364
30
0
0
INSERT
2
LDI_XFB44-1600-011_L4_B1
8
L4
10
0
20
40.97560975609756
30
0
0
INSERT
2
LDI_XFB44-1600-011_L4_B1
8
L4
10
0
20
46.09756097560976
30
0
0
INSERT
2
LDI_XFB44-1600-011_L4_B1
8
L4
10
0
20
51.21951219512195
30
0
0
INSERT
2
LDI_XFB44-1600-011_L4_B1
8
L4
10
0
20
56.34146341463415
30
0
0
INSERT
2
LDI_XFB44-1600-011_L4_B1
8
L4
10
0
20
61.463414634146346
30
0
0
INSERT
2
LDI_XFB44-1600-011_L4_B1
8
L4
10
0
20
66.58536585365854
30
0
0
INSERT
2
LDI_XFB44-1600-011_L4_B1
8
L4
10
0
20
71.70731707317073
30
0
0
INSERT
2
LDI_XFB44-1600-011_L4_B1
8
L4
10
0
20
76.82926829268293
30
0
0
INSERT
2
LDI_XFB44-1600-011_L4_B1
8
L4
10
0
20
81.95121951219512
30
0
0
INSERT
2
LDI_XFB44-1600-011_L4_B1
8
L4
10
0
20
87.07317073170732
30
0
0
INSERT
2
LDI_XFB44-1600-011_L4_B1
8
L4
10
0
20
92.19512195121952
30
0
0
INSERT
2
LDI_XFB44-1600-011_L4_B1
8
L4
10
0
20
97.3170731707317
30
0
0
INSERT
2
LDI_XFB44-1600-011_L4_B1
8
L4
10
0
20
102.4390243902439
30
0
0
INSERT
2
LDI_XFB44-1600-011_L4_B1
8
L4
10
0
20
107.5609756097561
30
0
0
INSERT
2
LDI_XFB44-1600-011_L4_B1
8
L4
10
0
20
112.6829268292683
30
0
0
POLYLINE
8
L4
66
1
70
1
40
0.1
41
0.1
0
VERTEX
8
L4
10
-61.5
20
-61.2
42
1.0
0
VERTEX
8
L4
10
-60.900000000000006
20
-61.2
42
1.0
0
SEQEND
0
POLYLINE
8
L4
66
1
70
1
40
0.1
41
0.1
0
VERTEX
8
L4
10
-61.5
20
61.2
42
1.0
0
VERTEX
8
L4
10
-60.900000000000006
20
61.2
42
1.0
0
SEQEND
0
POLYLINE
8
L4
66
1
70
1
40
0.1
41
0.1
0
VERTEX
8
L4
10
60.90000000000002
20
-61.2
42
1.0
0
VERTEX
8
L4
10
61.499999999999986
20
-61.2
42
1.0
0
SEQEND
0
POLYLINE
8
L4
66
1
70
1
40
0.1
41
0.1
0
VERTEX
8
L4
10
60.90000000000002
20
61.2
42
1.0
0
VERTEX
8
L4
10
61.499999999999986
20
61.2
42
1.0
0
SEQEND
0
POLYLINE
8
L4
66
1
70
1
0
VERTEX
8
L4
10
-64.46966991411009
20
-64.46966991411009
40
0.08
41
0.08
0
VERTEX
8
L4
10
-65.53033008588991
20
-65.53033008588991
40
0.08
41
0.08
0
SEQEND
0
POLYLINE
8
L4
66
1
70
1
0
VERTEX
8
L4
10
-64.46966991411009
20
-65.53033008588991
40
0.08
41
0.08
0
VERTEX
8
L4
10
-65.53033008588991
20
-64.46966991411009
40
0.08
41
0.08
0
SEQEND
0
POLYLINE
8
L4
66
1
70
1
0
VERTEX
8
L4
10
-64.46966991411009
20
65.53033008588993
40
0.08
41
0.08
0
VERTEX
8
L4
10
-65.53033008588991
20
64.4696699141101
40
0.08
41
0.08
0
SEQEND
0
POLYLINE
8
L4
66
1
70
1
0
VERTEX
8
L4
10
-64.46966991411009
20
64.4696699141101
40
0.08
41
0.08
0
VERTEX
8
L4
10
-65.53033008588991
20
65.53033008588993
40
0.08
41
0.08
0
SEQEND
0
POLYLINE
8
L4
66
1
70
1
0
VERTEX
8
L4
10
65.53033008588993
20
65.53033008588993
40
0.08
41
0.08
0
VERTEX
8
L4
10
64.4696699141101
20
64.4696699141101
40
0.08
41
0.08
0
SEQEND
0
POLYLINE
8
L4
66
1
70
1
0
VERTEX
8
L4
10
65.53033008588993
20
64.4696699141101
40
0.08
41
0.08
0
VERTEX
8
L4
10
64.4696699141101
20
65.53033008588993
40
0.08
41
0.08
0
SEQEND
0
POLYLINE
8
L4
66
1
70
1
0
VERTEX
8
L4
10
65.74999999999999
20
-65.0
40
0.08
41
0.08
0
VERTEX
8
L4
10
64.24999999999999
20
-65.0
40
0.08
41
0.08
0
SEQEND
0
POLYLINE
8
L4
66
1
70
1
0
VERTEX
8
L4
10
64.99999999999999
20
-64.25
40
0.08
41
0.08
0
VERTEX
8
L4
10
64.99999999999999
20
-65.75
40
0.08
41
0.08
0
SEQEND
0
POLYLINE
8
L4
66
1
70
1
0
VERTEX
8
L4
10
-58.536585365853654
20
-61.2
40
0.08
41
0.08
0
VERTEX
8
L4
10
-58.536585365853654
20
-64.2
40
0.08
41
0.08
0
SEQEND
0
POLYLINE
8
L4
66
1
70
1
0
VERTEX
8
L4
10
-58.536585365853654
20
61.2
40
0.08
41
0.08
0
VERTEX
8
L4
10
-58.536585365853654
20
64.2
40
0.08
41
0.08
0
SEQEND
0
POLYLINE
8
L4
66
1
70
1
0
VERTEX
8
L4
10
-52.68292682926829
20
-61.2
40
0.08
41
0.08
0
VERTEX
8
L4
10
-52.68292682926829
20
-64.2
40
0.08
41
0.08
0
SEQEND
0
POLYLINE
8
L4
66
1
70
1
0
VERTEX
8
L4
10
-52.68292682926829
20
61.2
40
0.08
41
0.08
0
VERTEX
8
L4
10
-52.68292682926829
20
64.2
40
0.08
41
0.08
0
SEQEND
0
POLYLINE
8
L4
66
1
70
1
0
VERTEX
8
L4
10
-46.829268292682926
20
-61.2
40
0.08
41
0.08
0
VERTEX
8
L4
10
-46.829268292682926
20
-64.2
40
0.08
41
0.08
0
SEQEND
0
POLYLINE
8
L4
66
1
70
1
0
VERTEX
8
L4
10
-46.829268292682926
20
61.2
40
0.08
41
0.08
0
VERTEX
8
L4
10
-46.829268292682926
20
64.2
40
0.08
41
0.08
0
SEQEND
0
POLYLINE
8
L4
66
1
70
1
0
VERTEX
8
L4
10
-40.975609756097555
20
-61.2
40
0.08
41
0.08
0
VERTEX
8
L4
10
-40.975609756097555
20
-64.2
40
0.08
41
0.08
0
SEQEND
0
POLYLINE
8
L4
66
1
70
1
0
VERTEX
8
L4
10
-40.975609756097555
20
61.2
40
0.08
41
0.08
0
VERTEX
8
L4
10
-40.975609756097555
20
64.2
40
0.08
41
0.08
0
SEQEND
0
POLYLINE
8
L4
66
1
70
1
0
VERTEX
8
L4
10
-35.121951219512184
20
-61.2
40
0.08
41
0.08
0
VERTEX
8
L4
10
-35.121951219512184
20
-64.2
40
0.08
41
0.08
0
SEQEND
0
POLYLINE
8
L4
66
1
70
1
0
VERTEX
8
L4
10
-35.121951219512184
20
61.2
40
0.08
41
0.08
0
VERTEX
8
L4
10
-35.121951219512184
20
64.2
40
0.08
41
0.08
0
SEQEND
0
POLYLINE
8
L4
66
1
70
1
0
VERTEX
8
L4
10
-29.268292682926827
20
-61.2
40
0.08
41
0.08
0
VERTEX
8
L4
10
-29.268292682926827
20
-64.2
40
0.08
41
0.08
0
SEQEND
0
POLYLINE
8
L4
66
1
70
1
0
VERTEX
8
L4
10
-29.268292682926827
20
61.2
40
0.08
41
0.08
0
VERTEX
8
L4
10
-29.268292682926827
20
64.2
40
0.08
41
0.08
0
SEQEND
0
POLYLINE
8
L4
66
1
70
1
0
VERTEX
8
L4
10
-23.414634146341456
20
-61.2
40
0.08
41
0.08
0
VERTEX
8
L4
10
-23.414634146341456
20
-64.2
40
0.08
41
0.08
0
SEQEND
0
POLYLINE
8
L4
66
1
70
1
0
VERTEX
8
L4
10
-23.414634146341456
20
61.2
40
0.08
41
0.08
0
VERTEX
8
L4
10
-23.414634146341456
20
64.2
40
0.08
41
0.08
0
SEQEND
0
POLYLINE
8
L4
66
1
70
1
0
VERTEX
8
L4
10
-17.560975609756085
20
-61.2
40
0.08
41
0.08
0
VERTEX
8
L4
10
-17.560975609756085
20
-64.2
40
0.08
41
0.08
0
SEQEND
0
POLYLINE
8
L4
66
1
70
1
0
VERTEX
8
L4
10
-17.560975609756085
20
61.2
40
0.08
41
0.08
0
VERTEX
8
L4
10
-17.560975609756085
20
64.2
40
0.08
41
0.08
0
SEQEND
0
POLYLINE
8
L4
66
1
70
1
0
VERTEX
8
L4
10
-11.707317073170728
20
-61.2
40
0.08
41
0.08
0
VERTEX
8
L4
10
-11.707317073170728
20
-64.2
40
0.08
41
0.08
0
SEQEND
0
POLYLINE
8
L4
66
1
70
1
0
VERTEX
8
L4
10
-11.707317073170728
20
61.2
40
0.08
41
0.08
0
VERTEX
8
L4
10
-11.707317073170728
20
64.2
40
0.08
41
0.08
0
SEQEND
0
POLYLINE
8
L4
66
1
70
1
0
VERTEX
8
L4
10
-5.853658536585371
20
-61.2
40
0.08
41
0.08
0
VERTEX
8
L4
10
-5.853658536585371
20
-64.2
40
0.08
41
0.08
0
SEQEND
0
POLYLINE
8
L4
66
1
70
1
0
VERTEX
8
L4
10
-5.853658536585371
20
61.2
40
0.08
41
0.08
0
VERTEX
8
L4
10
-5.853658536585371
20
64.2
40
0.08
41
0.08
0
SEQEND
0
POLYLINE
8
L4
66
1
70
1
0
VERTEX
8
L4
10
0.0
20
-61.2
40
0.08
41
0.08
0
VERTEX
8
L4
10
0.0
20
-64.2
40
0.08
41
0.08
0
SEQEND
0
POLYLINE
8
L4
66
1
70
1
0
VERTEX
8
L4
10
0.0
20
61.2
40
0.08
41
0.08
0
VERTEX
8
L4
10
0.0
20
64.2
40
0.08
41
0.08
0
SEQEND
0
POLYLINE
8
L4
66
1
70
1
0
VERTEX
8
L4
10
5.853658536585371
20
-61.2
40
0.08
41
0.08
0
VERTEX
8
L4
10
5.853658536585371
20
-64.2
40
0.08
41
0.08
0
SEQEND
0
POLYLINE
8
L4
66
1
70
1
0
VERTEX
8
L4
10
5.853658536585371
20
61.2
40
0.08
41
0.08
0
VERTEX
8
L4
10
5.853658536585371
20
64.2
40
0.08
41
0.08
0
SEQEND
0
POLYLINE
8
L4
66
1
70
1
0
VERTEX
8
L4
10
11.707317073170742
20
-61.2
40
0.08
41
0.08
0
VERTEX
8
L4
10
11.707317073170742
20
-64.2
40
0.08
41
0.08
0
SEQEND
0
POLYLINE
8
L4
66
1
70
1
0
VERTEX
8
L4
10
11.707317073170742
20
61.2
40
0.08
41
0.08
0
VERTEX
8
L4
10
11.707317073170742
20
64.2
40
0.08
41
0.08
0
SEQEND
0
POLYLINE
8
L4
66
1
70
1
0
VERTEX
8
L4
10
17.560975609756085
20
-61.2
40
0.08
41
0.08
0
VERTEX
8
L4
10
17.560975609756085
20
-64.2
40
0.08
41
0.08
0
SEQEND
0
POLYLINE
8
L4
66
1
70
1
0
VERTEX
8
L4
10
17.560975609756085
20
61.2
40
0.08
41
0.08
0
VERTEX
8
L4
10
17.560975609756085
20
64.2
40
0.08
41
0.08
0
SEQEND
0
POLYLINE
8
L4
66
1
70
1
0
VERTEX
8
L4
10
23.41463414634147
20
-61.2
40
0.08
41
0.08
0
VERTEX
8
L4
10
23.41463414634147
20
-64.2
40
0.08
41
0.08
0
SEQEND
0
POLYLINE
8
L4
66
1
70
1
0
VERTEX
8
L4
10
23.41463414634147
20
61.2
40
0.08
41
0.08
0
VERTEX
8
L4
10
23.41463414634147
20
64.2
40
0.08
41
0.08
0
SEQEND
0
POLYLINE
8
L4
66
1
70
1
0
VERTEX
8
L4
10
29.268292682926827
20
-61.2
40
0.08
41
0.08
0
VERTEX
8
L4
10
29.268292682926827
20
-64.2
40
0.08
41
0.08
0
SEQEND
0
POLYLINE
8
L4
66
1
70
1
0
VERTEX
8
L4
10
29.268292682926827
20
61.2
40
0.08
41
0.08
0
VERTEX
8
L4
10
29.268292682926827
20
64.2
40
0.08
41
0.08
0
SEQEND
0
POLYLINE
8
L4
66
1
70
1
0
VERTEX
8
L4
10
35.121951219512184
20
-61.2
40
0.08
41
0.08
0
VERTEX
8
L4
10
35.121951219512184
20
-64.2
40
0.08
41
0.08
0
SEQEND
0
POLYLINE
8
L4
66
1
70
1
0
VERTEX
8
L4
10
35.121951219512184
20
61.2
40
0.08
41
0.08
0
VERTEX
8
L4
10
35.121951219512184
20
64.2
40
0.08
41
0.08
0
SEQEND
0
POLYLINE
8
L4
66
1
70
1
0
VERTEX
8
L4
10
40.97560975609757
20
-61.2
40
0.08
41
0.08
0
VERTEX
8
L4
10
40.97560975609757
20
-64.2
40
0.08
41
0.08
0
SEQEND
0
POLYLINE
8
L4
66
1
70
1
0
VERTEX
8
L4
10
40.97560975609757
20
61.2
40
0.08
41
0.08
0
VERTEX
8
L4
10
40.97560975609757
20
64.2
40
0.08
41
0.08
0
SEQEND
0
POLYLINE
8
L4
66
1
70
1
0
VERTEX
8
L4
10
46.829268292682926
20
-61.2
40
0.08
41
0.08
0
VERTEX
8
L4
10
46.829268292682926
20
-64.2
40
0.08
41
0.08
0
SEQEND
0
POLYLINE
8
L4
66
1
70
1
0
VERTEX
8
L4
10
46.829268292682926
20
61.2
40
0.08
41
0.08
0
VERTEX
8
L4
10
46.829268292682926
20
64.2
40
0.08
41
0.08
0
SEQEND
0
POLYLINE
8
L4
66
1
70
1
0
VERTEX
8
L4
10
52.68292682926828
20
-61.2
40
0.08
41
0.08
0
VERTEX
8
L4
10
52.68292682926828
20
-64.2
40
0.08
41
0.08
0
SEQEND
0
POLYLINE
8
L4
66
1
70
1
0
VERTEX
8
L4
10
52.68292682926828
20
61.2
40
0.08
41
0.08
0
VERTEX
8
L4
10
52.68292682926828
20
64.2
40
0.08
41
0.08
0
SEQEND
0
POLYLINE
8
L4
66
1
70
1
0
VERTEX
8
L4
10
58.53658536585367
20
-61.2
40
0.08
41
0.08
0
VERTEX
8
L4
10
58.53658536585367
20
-64.2
40
0.08
41
0.08
0
SEQEND
0
POLYLINE
8
L4
66
1
70
1
0
VERTEX
8
L4
10
58.53658536585367
20
61.2
40
0.08
41
0.08
0
VERTEX
8
L4
10
58.53658536585367
20
64.2
40
0.08
41
0.08
0
SEQEND
0
POLYLINE
8
L4
66
1
70
1
0
VERTEX
8
L4
10
-61.2
20
-58.90243902439025
40
0.08
41
0.08
0
VERTEX
8
L4
10
-64.2
20
-58.90243902439025
40
0.08
41
0.08
0
SEQEND
0
POLYLINE
8
L4
66
1
70
1
0
VERTEX
8
L4
10
61.2
20
-58.90243902439025
40
0.08
41
0.08
0
VERTEX
8
L4
10
64.2
20
-58.90243902439025
40
0.08
41
0.08
0
SEQEND
0
POLYLINE
8
L4
66
1
70
1
0
VERTEX
8
L4
10
-61.2
20
-53.78048780487805
40
0.08
41
0.08
0
VERTEX
8
L4
10
-64.2
20
-53.78048780487805
40
0.08
41
0.08
0
SEQEND
0
POLYLINE
8
L4
66
1
70
1
0
VERTEX
8
L4
10
61.2
20
-53.78048780487805
40
0.08
41
0.08
0
VERTEX
8
L4
10
64.2
20
-53.78048780487805
40
0.08
41
0.08
0
SEQEND
0
POLYLINE
8
L4
66
1
70
1
0
VERTEX
8
L4
10
-61.2
20
-48.65853658536586
40
0.08
41
0.08
0
VERTEX
8
L4
10
-64.2
20
-48.65853658536586
40
0.08
41
0.08
0
SEQEND
0
POLYLINE
8
L4
66
1
70
1
0
VERTEX
8
L4
10
61.2
20
-48.65853658536586
40
0.08
41
0.08
0
VERTEX
8
L4
10
64.2
20
-48.65853658536586
40
0.08
41
0.08
0
SEQEND
0
POLYLINE
8
L4
66
1
70
1
0
VERTEX
8
L4
10
-61.2
20
-43.53658536585367
40
0.08
41
0.08
0
VERTEX
8
L4
10
-64.2
20
-43.53658536585367
40
0.08
41
0.08
0
SEQEND
0
POLYLINE
8
L4
66
1
70
1
0
VERTEX
8
L4
10
61.2
20
-43.53658536585367
40
0.08
41
0.08
0
VERTEX
8
L4
10
64.2
20
-43.53658536585367
40
0.08
41
0.08
0
SEQEND
0
POLYLINE
8
L4
66
1
70
1
0
VERTEX
8
L4
10
-61.2
20
-38.41463414634147
40
0.08
41
0.08
0
VERTEX
8
L4
10
-64.2
20
-38.41463414634147
40
0.08
41
0.08
0
SEQEND
0
POLYLINE
8
L4
66
1
70
1
0
VERTEX
8
L4
10
61.2
20
-38.41463414634147
40
0.08
41
0.08
0
VERTEX
8
L4
10
64.2
20
-38.41463414634147
40
0.08
41
0.08
0
SEQEND
0
POLYLINE
8
L4
66
1
70
1
0
VERTEX
8
L4
10
-61.2
20
-33.29268292682927
40
0.08
41
0.08
0
VERTEX
8
L4
10
-64.2
20
-33.29268292682927
40
0.08
41
0.08
0
SEQEND
0
POLYLINE
8
L4
66
1
70
1
0
VERTEX
8
L4
10
61.2
20
-33.29268292682927
40
0.08
41
0.08
0
VERTEX
8
L4
10
64.2
20
-33.29268292682927
40
0.08
41
0.08
0
SEQEND
0
POLYLINE
8
L4
66
1
70
1
0
VERTEX
8
L4
10
-61.2
20
-28.170731707317074
40
0.08
41
0.08
0
VERTEX
8
L4
10
-64.2
20
-28.170731707317074
40
0.08
41
0.08
0
SEQEND
0
POLYLINE
8
L4
66
1
70
1
0
VERTEX
8
L4
10
61.2
20
-28.170731707317074
40
0.08
41
0.08
0
VERTEX
8
L4
10
64.2
20
-28.170731707317074
40
0.08
41
0.08
0
SEQEND
0
POLYLINE
8
L4
66
1
70
1
0
VERTEX
8
L4
10
-61.2
20
-23.048780487804876
40
0.08
41
0.08
0
VERTEX
8
L4
10
-64.2
20
-23.048780487804876
40
0.08
41
0.08
0
SEQEND
0
POLYLINE
8
L4
66
1
70
1
0
VERTEX
8
L4
10
61.2
20
-23.048780487804876
40
0.08
41
0.08
0
VERTEX
8
L4
10
64.2
20
-23.048780487804876
40
0.08
41
0.08
0
SEQEND
0
POLYLINE
8
L4
66
1
70
1
0
VERTEX
8
L4
10
-61.2
20
-17.92682926829268
40
0.08
41
0.08
0
VERTEX
8
L4
10
-64.2
20
-17.92682926829268
40
0.08
41
0.08
0
SEQEND
0
POLYLINE
8
L4
66
1
70
1
0
VERTEX
8
L4
10
61.2
20
-17.92682926829268
40
0.08
41
0.08
0
VERTEX
8
L4
10
64.2
20
-17.92682926829268
40
0.08
41
0.08
0
SEQEND
0
POLYLINE
8
L4
66
1
70
1
0
VERTEX
8
L4
10
-61.2
20
-12.80487804878048
40
0.08
41
0.08
0
VERTEX
8
L4
10
-64.2
20
-12.80487804878048
40
0.08
41
0.08
0
SEQEND
0
POLYLINE
8
L4
66
1
70
1
0
VERTEX
8
L4
10
61.2
20
-12.80487804878048
40
0.08
41
0.08
0
VERTEX
8
L4
10
64.2
20
-12.80487804878048
40
0.08
41
0.08
0
SEQEND
0
POLYLINE
8
L4
66
1
70
1
0
VERTEX
8
L4
10
-61.2
20
-7.682926829268297
40
0.08
41
0.08
0
VERTEX
8
L4
10
-64.2
20
-7.682926829268297
40
0.08
41
0.08
0
SEQEND
0
POLYLINE
8
L4
66
1
70
1
0
VERTEX
8
L4
10
61.2
20
-7.682926829268297
40
0.08
41
0.08
0
VERTEX
8
L4
10
64.2
20
-7.682926829268297
40
0.08
41
0.08
0
SEQEND
0
POLYLINE
8
L4
66
1
70
1
0
VERTEX
8
L4
10
-61.2
20
-2.560975609756099
40
0.08
41
0.08
0
VERTEX
8
L4
10
-64.2
20
-2.560975609756099
40
0.08
41
0.08
0
SEQEND
0
POLYLINE
8
L4
66
1
70
1
0
VERTEX
8
L4
10
61.2
20
-2.560975609756099
40
0.08
41
0.08
0
VERTEX
8
L4
10
64.2
20
-2.560975609756099
40
0.08
41
0.08
0
SEQEND
0
POLYLINE
8
L4
66
1
70
1
0
VERTEX
8
L4
10
-61.2
20
2.560975609756099
40
0.08
41
0.08
0
VERTEX
8
L4
10
-64.2
20
2.560975609756099
40
0.08
41
0.08
0
SEQEND
0
POLYLINE
8
L4
66
1
70
1
0
VERTEX
8
L4
10
61.2
20
2.560975609756099
40
0.08
41
0.08
0
VERTEX
8
L4
10
64.2
20
2.560975609756099
40
0.08
41
0.08
0
SEQEND
0
POLYLINE
8
L4
66
1
70
1
0
VERTEX
8
L4
10
-61.2
20
7.682926829268297
40
0.08
41
0.08
0
VERTEX
8
L4
10
-64.2
20
7.682926829268297
40
0.08
41
0.08
0
SEQEND
0
POLYLINE
8
L4
66
1
70
1
0
VERTEX
8
L4
10
61.2
20
7.682926829268297
40
0.08
41
0.08
0
VERTEX
8
L4
10
64.2
20
7.682926829268297
40
0.08
41
0.08
0
SEQEND
0
POLYLINE
8
L4
66
1
70
1
0
VERTEX
8
L4
10
-61.2
20
12.80487804878048
40
0.08
41
0.08
0
VERTEX
8
L4
10
-64.2
20
12.80487804878048
40
0.08
41
0.08
0
SEQEND
0
POLYLINE
8
L4
66
1
70
1
0
VERTEX
8
L4
10
61.2
20
12.80487804878048
40
0.08
41
0.08
0
VERTEX
8
L4
10
64.2
20
12.80487804878048
40
0.08
41
0.08
0
SEQEND
0
POLYLINE
8
L4
66
1
70
1
0
VERTEX
8
L4
10
-61.2
20
17.92682926829268
40
0.08
41
0.08
0
VERTEX
8
L4
10
-64.2
20
17.92682926829268
40
0.08
41
0.08
0
SEQEND
0
POLYLINE
8
L4
66
1
70
1
0
VERTEX
8
L4
10
61.2
20
17.92682926829268
40
0.08
41
0.08
0
VERTEX
8
L4
10
64.2
20
17.92682926829268
40
0.08
41
0.08
0
SEQEND
0
POLYLINE
8
L4
66
1
70
1
0
VERTEX
8
L4
10
-61.2
20
23.048780487804876
40
0.08
41
0.08
0
VERTEX
8
L4
10
-64.2
20
23.048780487804876
40
0.08
41
0.08
0
SEQEND
0
POLYLINE
8
L4
66
1
70
1
0
VERTEX
8
L4
10
61.2
20
23.048780487804876
40
0.08
41
0.08
0
VERTEX
8
L4
10
64.2
20
23.048780487804876
40
0.08
41
0.08
0
SEQEND
0
POLYLINE
8
L4
66
1
70
1
0
VERTEX
8
L4
10
-61.2
20
28.170731707317074
40
0.08
41
0.08
0
VERTEX
8
L4
10
-64.2
20
28.170731707317074
40
0.08
41
0.08
0
SEQEND
0
POLYLINE
8
L4
66
1
70
1
0
VERTEX
8
L4
10
61.2
20
28.170731707317074
40
0.08
41
0.08
0
VERTEX
8
L4
10
64.2
20
28.170731707317074
40
0.08
41
0.08
0
SEQEND
0
POLYLINE
8
L4
66
1
70
1
0
VERTEX
8
L4
10
-61.2
20
33.29268292682927
40
0.08
41
0.08
0
VERTEX
8
L4
10
-64.2
20
33.29268292682927
40
0.08
41
0.08
0
SEQEND
0
POLYLINE
8
L4
66
1
70
1
0
VERTEX
8
L4
10
61.2
20
33.29268292682927
40
0.08
41
0.08
0
VERTEX
8
L4
10
64.2
20
33.29268292682927
40
0.08
41
0.08
0
SEQEND
0
POLYLINE
8
L4
66
1
70
1
0
VERTEX
8
L4
10
-61.2
20
38.41463414634147
40
0.08
41
0.08
0
VERTEX
8
L4
10
-64.2
20
38.41463414634147
40
0.08
41
0.08
0
SEQEND
0
POLYLINE
8
L4
66
1
70
1
0
VERTEX
8
L4
10
61.2
20
38.41463414634147
40
0.08
41
0.08
0
VERTEX
8
L4
10
64.2
20
38.41463414634147
40
0.08
41
0.08
0
SEQEND
0
POLYLINE
8
L4
66
1
70
1
0
VERTEX
8
L4
10
-61.2
20
43.53658536585367
40
0.08
41
0.08
0
VERTEX
8
L4
10
-64.2
20
43.53658536585367
40
0.08
41
0.08
0
SEQEND
0
POLYLINE
8
L4
66
1
70
1
0
VERTEX
8
L4
10
61.2
20
43.53658536585367
40
0.08
41
0.08
0
VERTEX
8
L4
10
64.2
20
43.53658536585367
40
0.08
41
0.08
0
SEQEND
0
POLYLINE
8
L4
66
1
70
1
0
VERTEX
8
L4
10
-61.2
20
48.658536585365866
40
0.08
41
0.08
0
VERTEX
8
L4
10
-64.2
20
48.658536585365866
40
0.08
41
0.08
0
SEQEND
0
POLYLINE
8
L4
66
1
70
1
0
VERTEX
8
L4
10
61.2
20
48.658536585365866
40
0.08
41
0.08
0
VERTEX
8
L4
10
64.2
20
48.658536585365866
40
0.08
41
0.08
0
SEQEND
0
POLYLINE
8
L4
66
1
70
1
0
VERTEX
8
L4
10
-61.2
20
53.780487804878064
40
0.08
41
0.08
0
VERTEX
8
L4
10
-64.2
20
53.780487804878064
40
0.08
41
0.08
0
SEQEND
0
POLYLINE
8
L4
66
1
70
1
0
VERTEX
8
L4
10
61.2
20
53.780487804878064
40
0.08
41
0.08
0
VERTEX
8
L4
10
64.2
20
53.780487804878064
40
0.08
41
0.08
0
SEQEND
0
POLYLINE
8
L4
66
1
70
1
0
VERTEX
8
L4
10
-61.2
20
58.90243902439026
40
0.08
41
0.08
0
VERTEX
8
L4
10
-64.2
20
58.90243902439026
40
0.08
41
0.08
0
SEQEND
0
POLYLINE
8
L4
66
1
70
1
0
VERTEX
8
L4
10
61.2
20
58.90243902439026
40
0.08
41
0.08
0
VERTEX
8
L4
10
64.2
20
58.90243902439026
40
0.08
41
0.08
0
SEQEND
0
INSERT
2
cutlineendpoint
8
L4
10
-64.46966991411009
20
-64.46966991411009
0
INSERT
2
cutlineendpoint
8
L4
10
-65.53033008588991
20
-65.53033008588991
0
INSERT
2
cutlineendpoint
8
L4
10
-64.46966991411009
20
-65.53033008588991
0
INSERT
2
cutlineendpoint
8
L4
10
-65.53033008588991
20
-64.46966991411009
0
INSERT
2
cutlineendpoint
8
L4
10
-64.46966991411009
20
65.53033008588993
0
INSERT
2
cutlineendpoint
8
L4
10
-65.53033008588991
20
64.4696699141101
0
INSERT
2
cutlineendpoint
8
L4
10
-64.46966991411009
20
64.4696699141101
0
INSERT
2
cutlineendpoint
8
L4
10
-65.53033008588991
20
65.53033008588993
0
INSERT
2
cutlineendpoint
8
L4
10
65.53033008588993
20
65.53033008588993
0
INSERT
2
cutlineendpoint
8
L4
10
64.4696699141101
20
64.4696699141101
0
INSERT
2
cutlineendpoint
8
L4
10
65.53033008588993
20
64.4696699141101
0
INSERT
2
cutlineendpoint
8
L4
10
64.4696699141101
20
65.53033008588993
0
INSERT
2
cutlineendpoint
8
L4
10
65.74999999999999
20
-65.0
0
INSERT
2
cutlineendpoint
8
L4
10
64.24999999999999
20
-65.0
0
INSERT
2
cutlineendpoint
8
L4
10
64.99999999999999
20
-64.25
0
INSERT
2
cutlineendpoint
8
L4
10
64.99999999999999
20
-65.75
0
INSERT
2
cutlineendpoint
8
L4
10
-58.536585365853654
20
-61.2
0
INSERT
2
cutlineendpoint
8
L4
10
-58.536585365853654
20
61.2
0
INSERT
2
cutlineendpoint
8
L4
10
-58.536585365853654
20
-64.2
0
INSERT
2
cutlineendpoint
8
L4
10
-58.536585365853654
20
64.2
0
INSERT
2
cutlineendpoint
8
L4
10
-52.68292682926829
20
-61.2
0
INSERT
2
cutlineendpoint
8
L4
10
-52.68292682926829
20
61.2
0
INSERT
2
cutlineendpoint
8
L4
10
-52.68292682926829
20
-64.2
0
INSERT
2
cutlineendpoint
8
L4
10
-52.68292682926829
20
64.2
0
INSERT
2
cutlineendpoint
8
L4
10
-46.829268292682926
20
-61.2
0
INSERT
2
cutlineendpoint
8
L4
10
-46.829268292682926
20
61.2
0
INSERT
2
cutlineendpoint
8
L4
10
-46.829268292682926
20
-64.2
0
INSERT
2
cutlineendpoint
8
L4
10
-46.829268292682926
20
64.2
0
INSERT
2
cutlineendpoint
8
L4
10
-40.975609756097555
20
-61.2
0
INSERT
2
cutlineendpoint
8
L4
10
-40.975609756097555
20
61.2
0
INSERT
2
cutlineendpoint
8
L4
10
-40.975609756097555
20
-64.2
0
INSERT
2
cutlineendpoint
8
L4
10
-40.975609756097555
20
64.2
0
INSERT
2
cutlineendpoint
8
L4
10
-35.121951219512184
20
-61.2
0
INSERT
2
cutlineendpoint
8
L4
10
-35.121951219512184
20
61.2
0
INSERT
2
cutlineendpoint
8
L4
10
-35.121951219512184
20
-64.2
0
INSERT
2
cutlineendpoint
8
L4
10
-35.121951219512184
20
64.2
0
INSERT
2
cutlineendpoint
8
L4
10
-29.268292682926827
20
-61.2
0
INSERT
2
cutlineendpoint
8
L4
10
-29.268292682926827
20
61.2
0
INSERT
2
cutlineendpoint
8
L4
10
-29.268292682926827
20
-64.2
0
INSERT
2
cutlineendpoint
8
L4
10
-29.268292682926827
20
64.2
0
INSERT
2
cutlineendpoint
8
L4
10
-23.414634146341456
20
-61.2
0
INSERT
2
cutlineendpoint
8
L4
10
-23.414634146341456
20
61.2
0
INSERT
2
cutlineendpoint
8
L4
10
-23.414634146341456
20
-64.2
0
INSERT
2
cutlineendpoint
8
L4
10
-23.414634146341456
20
64.2
0
INSERT
2
cutlineendpoint
8
L4
10
-17.560975609756085
20
-61.2
0
INSERT
2
cutlineendpoint
8
L4
10
-17.560975609756085
20
61.2
0
INSERT
2
cutlineendpoint
8
L4
10
-17.560975609756085
20
-64.2
0
INSERT
2
cutlineendpoint
8
L4
10
-17.560975609756085
20
64.2
0
INSERT
2
cutlineendpoint
8
L4
10
-11.707317073170728
20
-61.2
0
INSERT
2
cutlineendpoint
8
L4
10
-11.707317073170728
20
61.2
0
INSERT
2
cutlineendpoint
8
L4
10
-11.707317073170728
20
-64.2
0
INSERT
2
cutlineendpoint
8
L4
10
-11.707317073170728
20
64.2
0
INSERT
2
cutlineendpoint
8
L4
10
-5.853658536585371
20
-61.2
0
INSERT
2
cutlineendpoint
8
L4
10
-5.853658536585371
20
61.2
0
INSERT
2
cutlineendpoint
8
L4
10
-5.853658536585371
20
-64.2
0
INSERT
2
cutlineendpoint
8
L4
10
-5.853658536585371
20
64.2
0
INSERT
2
cutlineendpoint
8
L4
10
0.0
20
-61.2
0
INSERT
2
cutlineendpoint
8
L4
10
0.0
20
61.2
0
INSERT
2
cutlineendpoint
8
L4
10
0.0
20
-64.2
0
INSERT
2
cutlineendpoint
8
L4
10
0.0
20
64.2
0
INSERT
2
cutlineendpoint
8
L4
10
5.853658536585371
20
-61.2
0
INSERT
2
cutlineendpoint
8
L4
10
5.853658536585371
20
61.2
0
INSERT
2
cutlineendpoint
8
L4
10
5.853658536585371
20
-64.2
0
INSERT
2
cutlineendpoint
8
L4
10
5.853658536585371
20
64.2
0
INSERT
2
cutlineendpoint
8
L4
10
11.707317073170742
20
-61.2
0
INSERT
2
cutlineendpoint
8
L4
10
11.707317073170742
20
61.2
0
INSERT
2
cutlineendpoint
8
L4
10
11.707317073170742
20
-64.2
0
INSERT
2
cutlineendpoint
8
L4
10
11.707317073170742
20
64.2
0
INSERT
2
cutlineendpoint
8
L4
10
17.560975609756085
20
-61.2
0
INSERT
2
cutlineendpoint
8
L4
10
17.560975609756085
20
61.2
0
INSERT
2
cutlineendpoint
8
L4
10
17.560975609756085
20
-64.2
0
INSERT
2
cutlineendpoint
8
L4
10
17.560975609756085
20
64.2
0
INSERT
2
cutlineendpoint
8
L4
10
23.41463414634147
20
-61.2
0
INSERT
2
cutlineendpoint
8
L4
10
23.41463414634147
20
61.2
0
INSERT
2
cutlineendpoint
8
L4
10
23.41463414634147
20
-64.2
0
INSERT
2
cutlineendpoint
8
L4
10
23.41463414634147
20
64.2
0
INSERT
2
cutlineendpoint
8
L4
10
29.268292682926827
20
-61.2
0
INSERT
2
cutlineendpoint
8
L4
10
29.268292682926827
20
61.2
0
INSERT
2
cutlineendpoint
8
L4
10
29.268292682926827
20
-64.2
0
INSERT
2
cutlineendpoint
8
L4
10
29.268292682926827
20
64.2
0
INSERT
2
cutlineendpoint
8
L4
10
35.121951219512184
20
-61.2
0
INSERT
2
cutlineendpoint
8
L4
10
35.121951219512184
20
61.2
0
INSERT
2
cutlineendpoint
8
L4
10
35.121951219512184
20
-64.2
0
INSERT
2
cutlineendpoint
8
L4
10
35.121951219512184
20
64.2
0
INSERT
2
cutlineendpoint
8
L4
10
40.97560975609757
20
-61.2
0
INSERT
2
cutlineendpoint
8
L4
10
40.97560975609757
20
61.2
0
INSERT
2
cutlineendpoint
8
L4
10
40.97560975609757
20
-64.2
0
INSERT
2
cutlineendpoint
8
L4
10
40.97560975609757
20
64.2
0
INSERT
2
cutlineendpoint
8
L4
10
46.829268292682926
20
-61.2
0
INSERT
2
cutlineendpoint
8
L4
10
46.829268292682926
20
61.2
0
INSERT
2
cutlineendpoint
8
L4
10
46.829268292682926
20
-64.2
0
INSERT
2
cutlineendpoint
8
L4
10
46.829268292682926
20
64.2
0
INSERT
2
cutlineendpoint
8
L4
10
52.68292682926828
20
-61.2
0
INSERT
2
cutlineendpoint
8
L4
10
52.68292682926828
20
61.2
0
INSERT
2
cutlineendpoint
8
L4
10
52.68292682926828
20
-64.2
0
INSERT
2
cutlineendpoint
8
L4
10
52.68292682926828
20
64.2
0
INSERT
2
cutlineendpoint
8
L4
10
58.53658536585367
20
-61.2
0
INSERT
2
cutlineendpoint
8
L4
10
58.53658536585367
20
61.2
0
INSERT
2
cutlineendpoint
8
L4
10
58.53658536585367
20
-64.2
0
INSERT
2
cutlineendpoint
8
L4
10
58.53658536585367
20
64.2
0
INSERT
2
cutlineendpoint
8
L4
10
-61.2
20
-58.90243902439025
0
INSERT
2
cutlineendpoint
8
L4
10
61.2
20
-58.90243902439025
0
INSERT
2
cutlineendpoint
8
L4
10
-64.2
20
-58.90243902439025
0
INSERT
2
cutlineendpoint
8
L4
10
64.2
20
-58.90243902439025
0
INSERT
2
cutlineendpoint
8
L4
10
-61.2
20
-53.78048780487805
0
INSERT
2
cutlineendpoint
8
L4
10
61.2
20
-53.78048780487805
0
INSERT
2
cutlineendpoint
8
L4
10
-64.2
20
-53.78048780487805
0
INSERT
2
cutlineendpoint
8
L4
10
64.2
20
-53.78048780487805
0
INSERT
2
cutlineendpoint
8
L4
10
-61.2
20
-48.65853658536586
0
INSERT
2
cutlineendpoint
8
L4
10
61.2
20
-48.65853658536586
0
INSERT
2
cutlineendpoint
8
L4
10
-64.2
20
-48.65853658536586
0
INSERT
2
cutlineendpoint
8
L4
10
64.2
20
-48.65853658536586
0
INSERT
2
cutlineendpoint
8
L4
10
-61.2
20
-43.53658536585367
0
INSERT
2
cutlineendpoint
8
L4
10
61.2
20
-43.53658536585367
0
INSERT
2
cutlineendpoint
8
L4
10
-64.2
20
-43.53658536585367
0
INSERT
2
cutlineendpoint
8
L4
10
64.2
20
-43.53658536585367
0
INSERT
2
cutlineendpoint
8
L4
10
-61.2
20
-38.41463414634147
0
INSERT
2
cutlineendpoint
8
L4
10
61.2
20
-38.41463414634147
0
INSERT
2
cutlineendpoint
8
L4
10
-64.2
20
-38.41463414634147
0
INSERT
2
cutlineendpoint
8
L4
10
64.2
20
-38.41463414634147
0
INSERT
2
cutlineendpoint
8
L4
10
-61.2
20
-33.29268292682927
0
INSERT
2
cutlineendpoint
8
L4
10
61.2
20
-33.29268292682927
0
INSERT
2
cutlineendpoint
8
L4
10
-64.2
20
-33.29268292682927
0
INSERT
2
cutlineendpoint
8
L4
10
64.2
20
-33.29268292682927
0
INSERT
2
cutlineendpoint
8
L4
10
-61.2
20
-28.170731707317074
0
INSERT
2
cutlineendpoint
8
L4
10
61.2
20
-28.170731707317074
0
INSERT
2
cutlineendpoint
8
L4
10
-64.2
20
-28.170731707317074
0
INSERT
2
cutlineendpoint
8
L4
10
64.2
20
-28.170731707317074
0
INSERT
2
cutlineendpoint
8
L4
10
-61.2
20
-23.048780487804876
0
INSERT
2
cutlineendpoint
8
L4
10
61.2
20
-23.048780487804876
0
INSERT
2
cutlineendpoint
8
L4
10
-64.2
20
-23.048780487804876
0
INSERT
2
cutlineendpoint
8
L4
10
64.2
20
-23.048780487804876
0
INSERT
2
cutlineendpoint
8
L4
10
-61.2
20
-17.92682926829268
0
INSERT
2
cutlineendpoint
8
L4
10
61.2
20
-17.92682926829268
0
INSERT
2
cutlineendpoint
8
L4
10
-64.2
20
-17.92682926829268
0
INSERT
2
cutlineendpoint
8
L4
10
64.2
20
-17.92682926829268
0
INSERT
2
cutlineendpoint
8
L4
10
-61.2
20
-12.80487804878048
0
INSERT
2
cutlineendpoint
8
L4
10
61.2
20
-12.80487804878048
0
INSERT
2
cutlineendpoint
8
L4
10
-64.2
20
-12.80487804878048
0
INSERT
2
cutlineendpoint
8
L4
10
64.2
20
-12.80487804878048
0
INSERT
2
cutlineendpoint
8
L4
10
-61.2
20
-7.682926829268297
0
INSERT
2
cutlineendpoint
8
L4
10
61.2
20
-7.682926829268297
0
INSERT
2
cutlineendpoint
8
L4
10
-64.2
20
-7.682926829268297
0
INSERT
2
cutlineendpoint
8
L4
10
64.2
20
-7.682926829268297
0
INSERT
2
cutlineendpoint
8
L4
10
-61.2
20
-2.560975609756099
0
INSERT
2
cutlineendpoint
8
L4
10
61.2
20
-2.560975609756099
0
INSERT
2
cutlineendpoint
8
L4
10
-64.2
20
-2.560975609756099
0
INSERT
2
cutlineendpoint
8
L4
10
64.2
20
-2.560975609756099
0
INSERT
2
cutlineendpoint
8
L4
10
-61.2
20
2.560975609756099
0
INSERT
2
cutlineendpoint
8
L4
10
61.2
20
2.560975609756099
0
INSERT
2
cutlineendpoint
8
L4
10
-64.2
20
2.560975609756099
0
INSERT
2
cutlineendpoint
8
L4
10
64.2
20
2.560975609756099
0
INSERT
2
cutlineendpoint
8
L4
10
-61.2
20
7.682926829268297
0
INSERT
2
cutlineendpoint
8
L4
10
61.2
20
7.682926829268297
0
INSERT
2
cutlineendpoint
8
L4
10
-64.2
20
7.682926829268297
0
INSERT
2
cutlineendpoint
8
L4
10
64.2
20
7.682926829268297
0
INSERT
2
cutlineendpoint
8
L4
10
-61.2
20
12.80487804878048
0
INSERT
2
cutlineendpoint
8
L4
10
61.2
20
12.80487804878048
0
INSERT
2
cutlineendpoint
8
L4
10
-64.2
20
12.80487804878048
0
INSERT
2
cutlineendpoint
8
L4
10
64.2
20
12.80487804878048
0
INSERT
2
cutlineendpoint
8
L4
10
-61.2
20
17.92682926829268
0
INSERT
2
cutlineendpoint
8
L4
10
61.2
20
17.92682926829268
0
INSERT
2
cutlineendpoint
8
L4
10
-64.2
20
17.92682926829268
0
INSERT
2
cutlineendpoint
8
L4
10
64.2
20
17.92682926829268
0
INSERT
2
cutlineendpoint
8
L4
10
-61.2
20
23.048780487804876
0
INSERT
2
cutlineendpoint
8
L4
10
61.2
20
23.048780487804876
0
INSERT
2
cutlineendpoint
8
L4
10
-64.2
20
23.048780487804876
0
INSERT
2
cutlineendpoint
8
L4
10
64.2
20
23.048780487804876
0
INSERT
2
cutlineendpoint
8
L4
10
-61.2
20
28.170731707317074
0
INSERT
2
cutlineendpoint
8
L4
10
61.2
20
28.170731707317074
0
INSERT
2
cutlineendpoint
8
L4
10
-64.2
20
28.170731707317074
0
INSERT
2
cutlineendpoint
8
L4
10
64.2
20
28.170731707317074
0
INSERT
2
cutlineendpoint
8
L4
10
-61.2
20
33.29268292682927
0
INSERT
2
cutlineendpoint
8
L4
10
61.2
20
33.29268292682927
0
INSERT
2
cutlineendpoint
8
L4
10
-64.2
20
33.29268292682927
0
INSERT
2
cutlineendpoint
8
L4
10
64.2
20
33.29268292682927
0
INSERT
2
cutlineendpoint
8
L4
10
-61.2
20
38.41463414634147
0
INSERT
2
cutlineendpoint
8
L4
10
61.2
20
38.41463414634147
0
INSERT
2
cutlineendpoint
8
L4
10
-64.2
20
38.41463414634147
0
INSERT
2
cutlineendpoint
8
L4
10
64.2
20
38.41463414634147
0
INSERT
2
cutlineendpoint
8
L4
10
-61.2
20
43.53658536585367
0
INSERT
2
cutlineendpoint
8
L4
10
61.2
20
43.53658536585367
0
INSERT
2
cutlineendpoint
8
L4
10
-64.2
20
43.53658536585367
0
INSERT
2
cutlineendpoint
8
L4
10
64.2
20
43.53658536585367
0
INSERT
2
cutlineendpoint
8
L4
10
-61.2
20
48.658536585365866
0
INSERT
2
cutlineendpoint
8
L4
10
61.2
20
48.658536585365866
0
INSERT
2
cutlineendpoint
8
L4
10
-64.2
20
48.658536585365866
0
INSERT
2
cutlineendpoint
8
L4
10
64.2
20
48.658536585365866
0
INSERT
2
cutlineendpoint
8
L4
10
-61.2
20
53.780487804878064
0
INSERT
2
cutlineendpoint
8
L4
10
61.2
20
53.780487804878064
0
INSERT
2
cutlineendpoint
8
L4
10
-64.2
20
53.780487804878064
0
INSERT
2
cutlineendpoint
8
L4
10
64.2
20
53.780487804878064
0
INSERT
2
cutlineendpoint
8
L4
10
-61.2
20
58.90243902439026
0
INSERT
2
cutlineendpoint
8
L4
10
61.2
20
58.90243902439026
0
INSERT
2
cutlineendpoint
8
L4
10
-64.2
20
58.90243902439026
0
INSERT
2
cutlineendpoint
8
L4
10
64.2
20
58.90243902439026
0
TEXT
8
L4
10
-10.5
20
69.7
40
1.5
1
XFB44-1600-011-L4
0
POLYLINE
8
L4
66
1
70
1
0
VERTEX
8
L4
10
-100.0
20
100.0
30
0
40
1
41
1
0
VERTEX
8
L4
10
100.0
20
100.0
30
0
40
1
41
1
0
VERTEX
8
L4
10
100.0
20
-100.0
30
0
40
1
41
1
0
VERTEX
8
L4
10
-100.0
20
-100.0
30
0
40
1
41
1
0
SEQEND
0
ENDSEC
0
EOF
