0
SECTION
2
HEADER
9
$ACADVER
1
AC1006
9
$INSBASE
10
0.0
20
0.0
30
0.0
9
$EXTMIN
10
-104.25365853658536
20
-104.25365853658536
9
$EXTMAX
10
104.25365853658536
20
116.93658536585366
0
ENDSEC
0
SECTION
2
TABLES
0
TABLE
2
LTYPE
70
1
0
LTYPE
2
CONTINUOUS
70
64
3
Solid line
72
65
73
0
40
0.0
0
ENDTAB
0
TABLE
2
LAYER
70
3
0
LAYER
2
0
70
0
62
255
6
continuous
0
LAYER
2
0
70
0
62
7
6
continuous
0
LAYER
2
P1
70
0
62
7
6
continuous
0
ENDTAB
0
TABLE
2
STYLE
70
2
0
STYLE
2
STANDARD
70
0
40
0
41
1
50
0
71
0
42
1
3
ARIAL.TTF
4

0
STYLE
2
STANDARD
70
0
40
0
41
1
50
0
71
0
42
1
3
ARIAL.TTF
4

0
ENDTAB
0
TABLE
2
VIEW
70
1
0
VIEW
2
Normal
70
0
40
1
10
0.5
20
0.5
41
1
11
0
21
0
31
1
12
0
22
0
32
0
42
50
43
0
44
0
50
0
71
0
0
ENDTAB
0
ENDSEC
0
SECTION
2
BLOCKS
0
BLOCK
8
0
2
cutlineendpoint
70
0
10
0
20
0
30
0
3
cutlineendpoint
0
POLYLINE
8
0
66
1
70
1
40
0.04
41
0.04
0
VERTEX
8
0
10
-0.02
20
0
30
0
42
1.0
0
VERTEX
8
0
10
0.02
20
0
30
0
42
1.0
0
SEQEND
0
ENDBLK
0
BLOCK
8
P1
2
LDI_XFB44-1600-011_P1_B1
70
0
10
0
20
0
30
0
3
LDI_XFB44-1600-011_P1_B1
0
CIRCLE
8
P1
10
-57.078744895240206
20
-55.05570206409033
40
0.04535
0
CIRCLE
8
P1
10
-54.56234337037264
20
-55.06624915542185
40
0.04535
0
CIRCLE
8
P1
10
-56.74318396921808
20
-57.61788617886179
40
0.04535
0
CIRCLE
8
P1
10
-55.39927138412053
20
-55.065040650406495
40
0.04535
0
CIRCLE
8
P1
10
-56.08011169078839
20
-55.05570206409033
40
0.04535
0
CIRCLE
8
P1
10
-54.67354062012816
20
-57.62722476517795
40
0.04535
0
CIRCLE
8
P1
10
-54.20079232973047
20
-57.62722476517795
40
0.04535
0
CIRCLE
8
P1
10
-51.22508635865484
20
-55.05570206409033
40
0.04535
0
CIRCLE
8
P1
10
-48.70868483378728
20
-55.06624915542185
40
0.04535
0
CIRCLE
8
P1
10
-50.889525432632716
20
-57.61788617886179
40
0.04535
0
CIRCLE
8
P1
10
-49.54561284753516
20
-55.065040650406495
40
0.04535
0
CIRCLE
8
P1
10
-50.22645315420302
20
-55.05570206409033
40
0.04535
0
CIRCLE
8
P1
10
-48.81988208354279
20
-57.62722476517795
40
0.04535
0
CIRCLE
8
P1
10
-48.3471337931451
20
-57.62722476517795
40
0.04535
0
CIRCLE
8
P1
10
-45.371427822069464
20
-55.05570206409033
40
0.04535
0
CIRCLE
8
P1
10
-42.8550262972019
20
-55.06624915542185
40
0.04535
0
CIRCLE
8
P1
10
-45.03586689604735
20
-57.61788617886179
40
0.04535
0
CIRCLE
8
P1
10
-43.6919543109498
20
-55.065040650406495
40
0.04535
0
CIRCLE
8
P1
10
-44.37279461761766
20
-55.05570206409033
40
0.04535
0
CIRCLE
8
P1
10
-42.96622354695741
20
-57.62722476517795
40
0.04535
0
CIRCLE
8
P1
10
-42.493475256559705
20
-57.62722476517795
40
0.04535
0
CIRCLE
8
P1
10
-39.51776928548412
20
-55.05570206409033
40
0.04535
0
CIRCLE
8
P1
10
-37.00136776061653
20
-55.06624915542185
40
0.04535
0
CIRCLE
8
P1
10
-39.18220835946198
20
-57.61788617886179
40
0.04535
0
CIRCLE
8
P1
10
-37.838295774364425
20
-55.065040650406495
40
0.04535
0
CIRCLE
8
P1
10
-38.5191360810323
20
-55.05570206409033
40
0.04535
0
CIRCLE
8
P1
10
-37.112565010372066
20
-57.62722476517795
40
0.04535
0
CIRCLE
8
P1
10
-36.63981671997438
20
-57.62722476517795
40
0.04535
0
CIRCLE
8
P1
10
-33.66411074889875
20
-55.05570206409033
40
0.04535
0
CIRCLE
8
P1
10
-31.14770922403119
20
-55.06624915542185
40
0.04535
0
CIRCLE
8
P1
10
-33.32854982287661
20
-57.61788617886179
40
0.04535
0
CIRCLE
8
P1
10
-31.98463723777907
20
-55.065040650406495
40
0.04535
0
CIRCLE
8
P1
10
-32.665477544446944
20
-55.05570206409033
40
0.04535
0
CIRCLE
8
P1
10
-31.258906473786695
20
-57.62722476517795
40
0.04535
0
CIRCLE
8
P1
10
-30.786158183389006
20
-57.62722476517795
40
0.04535
0
CIRCLE
8
P1
10
-27.81045221231338
20
-55.05570206409033
40
0.04535
0
CIRCLE
8
P1
10
-25.294050687445818
20
-55.06624915542185
40
0.04535
0
CIRCLE
8
P1
10
-27.474891286291253
20
-57.61788617886179
40
0.04535
0
CIRCLE
8
P1
10
-26.130978701193698
20
-55.065040650406495
40
0.04535
0
CIRCLE
8
P1
10
-26.81181900786156
20
-55.05570206409033
40
0.04535
0
CIRCLE
8
P1
10
-25.405247937201324
20
-57.62722476517795
40
0.04535
0
CIRCLE
8
P1
10
-24.93249964680362
20
-57.62722476517795
40
0.04535
0
CIRCLE
8
P1
10
-21.956793675728022
20
-55.05570206409033
40
0.04535
0
CIRCLE
8
P1
10
-19.440392150860447
20
-55.06624915542185
40
0.04535
0
CIRCLE
8
P1
10
-21.621232749705882
20
-57.61788617886179
40
0.04535
0
CIRCLE
8
P1
10
-20.277320164608327
20
-55.065040650406495
40
0.04535
0
CIRCLE
8
P1
10
-20.958160471276187
20
-55.05570206409033
40
0.04535
0
CIRCLE
8
P1
10
-19.551589400615953
20
-57.62722476517795
40
0.04535
0
CIRCLE
8
P1
10
-19.078841110218264
20
-57.62722476517795
40
0.04535
0
CIRCLE
8
P1
10
-16.103135139142637
20
-55.05570206409033
40
0.04535
0
CIRCLE
8
P1
10
-13.586733614275076
20
-55.06624915542185
40
0.04535
0
CIRCLE
8
P1
10
-15.767574213120511
20
-57.61788617886179
40
0.04535
0
CIRCLE
8
P1
10
-14.42366162802297
20
-55.065040650406495
40
0.04535
0
CIRCLE
8
P1
10
-15.104501934690816
20
-55.05570206409033
40
0.04535
0
CIRCLE
8
P1
10
-13.697930864030596
20
-57.62722476517795
40
0.04535
0
CIRCLE
8
P1
10
-13.225182573632893
20
-57.62722476517795
40
0.04535
0
CIRCLE
8
P1
10
-10.249476602557266
20
-55.05570206409033
40
0.04535
0
CIRCLE
8
P1
10
-7.733075077689705
20
-55.06624915542185
40
0.04535
0
CIRCLE
8
P1
10
-9.913915676535154
20
-57.61788617886179
40
0.04535
0
CIRCLE
8
P1
10
-8.570003091437599
20
-55.065040650406495
40
0.04535
0
CIRCLE
8
P1
10
-9.250843398105445
20
-55.05570206409033
40
0.04535
0
CIRCLE
8
P1
10
-7.844272327445211
20
-57.62722476517795
40
0.04535
0
CIRCLE
8
P1
10
-7.3715240370475215
20
-57.62722476517795
40
0.04535
0
CIRCLE
8
P1
10
-4.395818065971923
20
-55.05570206409033
40
0.04535
0
CIRCLE
8
P1
10
-1.8794165411043338
20
-55.06624915542185
40
0.04535
0
CIRCLE
8
P1
10
-4.060257139949812
20
-57.61788617886179
40
0.04535
0
CIRCLE
8
P1
10
-2.716344554852242
20
-55.065040650406495
40
0.04535
0
CIRCLE
8
P1
10
-3.3971848615201026
20
-55.05570206409033
40
0.04535
0
CIRCLE
8
P1
10
-1.990613790859868
20
-57.62722476517795
40
0.04535
0
CIRCLE
8
P1
10
-1.5178655004621788
20
-57.62722476517795
40
0.04535
0
CIRCLE
8
P1
10
1.4578404706134478
20
-55.05570206409033
40
0.04535
0
CIRCLE
8
P1
10
3.974241995481023
20
-55.06624915542185
40
0.04535
0
CIRCLE
8
P1
10
1.7934013966355877
20
-57.61788617886179
40
0.04535
0
CIRCLE
8
P1
10
3.1373139817331293
20
-55.065040650406495
40
0.04535
0
CIRCLE
8
P1
10
2.4564736750652543
20
-55.05570206409033
40
0.04535
0
CIRCLE
8
P1
10
3.8630447457255173
20
-57.62722476517795
40
0.04535
0
CIRCLE
8
P1
10
4.335793036123192
20
-57.62722476517795
40
0.04535
0
CIRCLE
8
P1
10
7.311499007198805
20
-55.05570206409033
40
0.04535
0
CIRCLE
8
P1
10
9.827900532066394
20
-55.06624915542185
40
0.04535
0
CIRCLE
8
P1
10
7.64705993322093
20
-57.61788617886179
40
0.04535
0
CIRCLE
8
P1
10
8.9909725183185
20
-55.065040650406495
40
0.04535
0
CIRCLE
8
P1
10
8.310132211650611
20
-55.05570206409033
40
0.04535
0
CIRCLE
8
P1
10
9.71670328231086
20
-57.62722476517795
40
0.04535
0
CIRCLE
8
P1
10
10.189451572708563
20
-57.62722476517795
40
0.04535
0
CIRCLE
8
P1
10
13.165157543784176
20
-55.05570206409033
40
0.04535
0
CIRCLE
8
P1
10
15.681559068651765
20
-55.06624915542185
40
0.04535
0
CIRCLE
8
P1
10
13.500718469806301
20
-57.61788617886179
40
0.04535
0
CIRCLE
8
P1
10
14.844631054903871
20
-55.065040650406495
40
0.04535
0
CIRCLE
8
P1
10
14.163790748235996
20
-55.05570206409033
40
0.04535
0
CIRCLE
8
P1
10
15.570361818896231
20
-57.62722476517795
40
0.04535
0
CIRCLE
8
P1
10
16.043110109293934
20
-57.62722476517795
40
0.04535
0
CIRCLE
8
P1
10
19.01881608036952
20
-55.05570206409033
40
0.04535
0
CIRCLE
8
P1
10
21.535217605237094
20
-55.06624915542185
40
0.04535
0
CIRCLE
8
P1
10
19.35437700639166
20
-57.61788617886179
40
0.04535
0
CIRCLE
8
P1
10
20.6982895914892
20
-55.065040650406495
40
0.04535
0
CIRCLE
8
P1
10
20.017449284821353
20
-55.05570206409033
40
0.04535
0
CIRCLE
8
P1
10
21.424020355481574
20
-57.62722476517795
40
0.04535
0
CIRCLE
8
P1
10
21.896768645879277
20
-57.62722476517795
40
0.04535
0
CIRCLE
8
P1
10
24.872474616954932
20
-55.05570206409033
40
0.04535
0
CIRCLE
8
P1
10
27.38887614182248
20
-55.06624915542185
40
0.04535
0
CIRCLE
8
P1
10
25.208035542977044
20
-57.61788617886179
40
0.04535
0
CIRCLE
8
P1
10
26.551948128074585
20
-55.065040650406495
40
0.04535
0
CIRCLE
8
P1
10
25.87110782140674
20
-55.05570206409033
40
0.04535
0
CIRCLE
8
P1
10
27.277678892066987
20
-57.62722476517795
40
0.04535
0
CIRCLE
8
P1
10
27.750427182464662
20
-57.62722476517795
40
0.04535
0
CIRCLE
8
P1
10
30.72613315354026
20
-55.05570206409033
40
0.04535
0
CIRCLE
8
P1
10
33.24253467840781
20
-55.06624915542185
40
0.04535
0
CIRCLE
8
P1
10
31.061694079562372
20
-57.61788617886179
40
0.04535
0
CIRCLE
8
P1
10
32.40560666465991
20
-55.065040650406495
40
0.04535
0
CIRCLE
8
P1
10
31.724766357992067
20
-55.05570206409033
40
0.04535
0
CIRCLE
8
P1
10
33.131337428652316
20
-57.62722476517795
40
0.04535
0
CIRCLE
8
P1
10
33.60408571905002
20
-57.62722476517795
40
0.04535
0
CIRCLE
8
P1
10
36.579791690125646
20
-55.05570206409033
40
0.04535
0
CIRCLE
8
P1
10
39.09619321499322
20
-55.06624915542185
40
0.04535
0
CIRCLE
8
P1
10
36.91535261614776
20
-57.61788617886179
40
0.04535
0
CIRCLE
8
P1
10
38.25926520124533
20
-55.065040650406495
40
0.04535
0
CIRCLE
8
P1
10
37.57842489457745
20
-55.05570206409033
40
0.04535
0
CIRCLE
8
P1
10
38.9849959652377
20
-57.62722476517795
40
0.04535
0
CIRCLE
8
P1
10
39.457744255635376
20
-57.62722476517795
40
0.04535
0
CIRCLE
8
P1
10
42.43345022671103
20
-55.05570206409033
40
0.04535
0
CIRCLE
8
P1
10
44.94985175157858
20
-55.06624915542185
40
0.04535
0
CIRCLE
8
P1
10
42.76901115273314
20
-57.61788617886179
40
0.04535
0
CIRCLE
8
P1
10
44.112923737830684
20
-55.065040650406495
40
0.04535
0
CIRCLE
8
P1
10
43.432083431162866
20
-55.05570206409033
40
0.04535
0
CIRCLE
8
P1
10
44.838654501823086
20
-57.62722476517795
40
0.04535
0
CIRCLE
8
P1
10
45.31140279222076
20
-57.62722476517795
40
0.04535
0
CIRCLE
8
P1
10
48.28710876329639
20
-55.05570206409033
40
0.04535
0
CIRCLE
8
P1
10
50.80351028816396
20
-55.06624915542185
40
0.04535
0
CIRCLE
8
P1
10
48.6226696893185
20
-57.61788617886179
40
0.04535
0
CIRCLE
8
P1
10
49.96658227441607
20
-55.065040650406495
40
0.04535
0
CIRCLE
8
P1
10
49.285741967748166
20
-55.05570206409033
40
0.04535
0
CIRCLE
8
P1
10
50.692313038408415
20
-57.62722476517795
40
0.04535
0
CIRCLE
8
P1
10
51.16506132880612
20
-57.62722476517795
40
0.04535
0
CIRCLE
8
P1
10
54.140767299881745
20
-55.05570206409033
40
0.04535
0
CIRCLE
8
P1
10
56.65716882474932
20
-55.06624915542185
40
0.04535
0
CIRCLE
8
P1
10
54.476328225903856
20
-57.61788617886179
40
0.04535
0
CIRCLE
8
P1
10
55.8202408110014
20
-55.065040650406495
40
0.04535
0
CIRCLE
8
P1
10
55.13940050433355
20
-55.05570206409033
40
0.04535
0
CIRCLE
8
P1
10
56.54597157499377
20
-57.62722476517795
40
0.04535
0
CIRCLE
8
P1
10
57.018719865391446
20
-57.62722476517795
40
0.04535
0
ENDBLK
0
ENDSEC
0
SECTION
2
ENTITIES
0
INSERT
2
LDI_XFB44-1600-011_P1_B1
8
P1
10
0
20
0.0
30
0
0
INSERT
2
LDI_XFB44-1600-011_P1_B1
8
P1
10
0
20
5.121951219512195
30
0
0
INSERT
2
LDI_XFB44-1600-011_P1_B1
8
P1
10
0
20
10.24390243902439
30
0
0
INSERT
2
LDI_XFB44-1600-011_P1_B1
8
P1
10
0
20
15.365853658536587
30
0
0
INSERT
2
LDI_XFB44-1600-011_P1_B1
8
P1
10
0
20
20.48780487804878
30
0
0
INSERT
2
LDI_XFB44-1600-011_P1_B1
8
P1
10
0
20
25.609756097560975
30
0
0
INSERT
2
LDI_XFB44-1600-011_P1_B1
8
P1
10
0
20
30.731707317073173
30
0
0
INSERT
2
LDI_XFB44-1600-011_P1_B1
8
P1
10
0
20
35.853658536585364
30
0
0
INSERT
2
LDI_XFB44-1600-011_P1_B1
8
P1
10
0
20
40.97560975609756
30
0
0
INSERT
2
LDI_XFB44-1600-011_P1_B1
8
P1
10
0
20
46.09756097560976
30
0
0
INSERT
2
LDI_XFB44-1600-011_P1_B1
8
P1
10
0
20
51.21951219512195
30
0
0
INSERT
2
LDI_XFB44-1600-011_P1_B1
8
P1
10
0
20
56.34146341463415
30
0
0
INSERT
2
LDI_XFB44-1600-011_P1_B1
8
P1
10
0
20
61.463414634146346
30
0
0
INSERT
2
LDI_XFB44-1600-011_P1_B1
8
P1
10
0
20
66.58536585365854
30
0
0
INSERT
2
LDI_XFB44-1600-011_P1_B1
8
P1
10
0
20
71.70731707317073
30
0
0
INSERT
2
LDI_XFB44-1600-011_P1_B1
8
P1
10
0
20
76.82926829268293
30
0
0
INSERT
2
LDI_XFB44-1600-011_P1_B1
8
P1
10
0
20
81.95121951219512
30
0
0
INSERT
2
LDI_XFB44-1600-011_P1_B1
8
P1
10
0
20
87.07317073170732
30
0
0
INSERT
2
LDI_XFB44-1600-011_P1_B1
8
P1
10
0
20
92.19512195121952
30
0
0
INSERT
2
LDI_XFB44-1600-011_P1_B1
8
P1
10
0
20
97.3170731707317
30
0
0
INSERT
2
LDI_XFB44-1600-011_P1_B1
8
P1
10
0
20
102.4390243902439
30
0
0
INSERT
2
LDI_XFB44-1600-011_P1_B1
8
P1
10
0
20
107.5609756097561
30
0
0
INSERT
2
LDI_XFB44-1600-011_P1_B1
8
P1
10
0
20
112.6829268292683
30
0
0
POLYLINE
8
P1
66
1
70
1
40
0.1
41
0.1
0
VERTEX
8
P1
10
-61.5
20
-61.2
42
1.0
0
VERTEX
8
P1
10
-60.900000000000006
20
-61.2
42
1.0
0
SEQEND
0
POLYLINE
8
P1
66
1
70
1
40
0.1
41
0.1
0
VERTEX
8
P1
10
-61.5
20
61.2
42
1.0
0
VERTEX
8
P1
10
-60.900000000000006
20
61.2
42
1.0
0
SEQEND
0
POLYLINE
8
P1
66
1
70
1
40
0.1
41
0.1
0
VERTEX
8
P1
10
60.90000000000002
20
-61.2
42
1.0
0
VERTEX
8
P1
10
61.499999999999986
20
-61.2
42
1.0
0
SEQEND
0
POLYLINE
8
P1
66
1
70
1
40
0.1
41
0.1
0
VERTEX
8
P1
10
60.90000000000002
20
61.2
42
1.0
0
VERTEX
8
P1
10
61.499999999999986
20
61.2
42
1.0
0
SEQEND
0
TEXT
8
P1
10
-10.5
20
66.7
40
1.5
1
XFB44-1600-011-P1
0
POLYLINE
8
P1
66
1
70
1
0
VERTEX
8
P1
10
-100.0
20
100.0
30
0
40
1
41
1
0
VERTEX
8
P1
10
100.0
20
100.0
30
0
40
1
41
1
0
VERTEX
8
P1
10
100.0
20
-100.0
30
0
40
1
41
1
0
VERTEX
8
P1
10
-100.0
20
-100.0
30
0
40
1
41
1
0
SEQEND
0
ENDSEC
0
EOF
