0
SECTION
2
HEADER
9
$ACADVER
1
AC1006
9
$INSBASE
10
0.0
20
0.0
30
0.0
9
$EXTMIN
10
-104.25365853658536
20
-104.25365853658536
9
$EXTMAX
10
104.25365853658536
20
116.93658536585366
0
ENDSEC
0
SECTION
2
TABLES
0
TABLE
2
LTYPE
70
1
0
LTYPE
2
CONTINUOUS
70
64
3
Solid line
72
65
73
0
40
0.0
0
ENDTAB
0
TABLE
2
LAYER
70
3
0
LAYER
2
0
70
0
62
255
6
continuous
0
LAYER
2
0
70
0
62
7
6
continuous
0
LAYER
2
G1
70
0
62
7
6
continuous
0
ENDTAB
0
TABLE
2
STYLE
70
2
0
STYLE
2
STANDARD
70
0
40
0
41
1
50
0
71
0
42
1
3
ARIAL.TTF
4

0
STYLE
2
STANDARD
70
0
40
0
41
1
50
0
71
0
42
1
3
ARIAL.TTF
4

0
ENDTAB
0
TABLE
2
VIEW
70
1
0
VIEW
2
Normal
70
0
40
1
10
0.5
20
0.5
41
1
11
0
21
0
31
1
12
0
22
0
32
0
42
50
43
0
44
0
50
0
71
0
0
ENDTAB
0
ENDSEC
0
SECTION
2
BLOCKS
0
BLOCK
8
0
2
cutlineendpoint
70
0
10
0
20
0
30
0
3
cutlineendpoint
0
POLYLINE
8
0
66
1
70
1
40
0.04
41
0.04
0
VERTEX
8
0
10
-0.02
20
0
30
0
42
1.0
0
VERTEX
8
0
10
0.02
20
0
30
0
42
1.0
0
SEQEND
0
ENDBLK
0
BLOCK
8
G1
2
LDI_XFB44-1600-011_G1_B1
70
0
10
0
20
0
30
0
3
LDI_XFB44-1600-011_G1_B1
0
POLYLINE
8
G1
66
1
70
1
0
VERTEX
8
G1
10
-57.92682926829267
20
-58.98243902439068
0
VERTEX
8
G1
10
-53.29268292682925
20
-58.98243902439068
0
VERTEX
8
G1
10
-53.29268292682925
20
-56.914634146341456
0
VERTEX
8
G1
10
-54.15853658536584
20
-56.914634146341456
0
VERTEX
8
G1
10
-54.15853658536584
20
-56.21951219512195
0
VERTEX
8
G1
10
-54.36585365853657
20
-56.21951219512195
0
VERTEX
8
G1
10
-54.36585365853657
20
-55.536585365853654
0
VERTEX
8
G1
10
-53.29268292682925
20
-55.536585365853654
0
VERTEX
8
G1
10
-53.29268292682925
20
-53.70048780487762
0
VERTEX
8
G1
10
-57.92682926829267
20
-53.70048780487762
0
VERTEX
8
G1
10
-57.92682926829267
20
-55.71951219512195
0
VERTEX
8
G1
10
-57.097560975609746
20
-55.71951219512195
0
VERTEX
8
G1
10
-57.097560975609746
20
-56.8170731707317
0
VERTEX
8
G1
10
-57.92682926829267
20
-56.8170731707317
0
VERTEX
8
G1
10
-57.92682926829267
20
-58.98243902439068
0
SEQEND
0
POLYLINE
8
G1
66
1
70
1
0
VERTEX
8
G1
10
-52.07317073170731
20
-58.98243902439068
0
VERTEX
8
G1
10
-47.43902439024389
20
-58.98243902439068
0
VERTEX
8
G1
10
-47.43902439024389
20
-56.914634146341456
0
VERTEX
8
G1
10
-48.30487804878047
20
-56.914634146341456
0
VERTEX
8
G1
10
-48.30487804878047
20
-56.21951219512195
0
VERTEX
8
G1
10
-48.51219512195121
20
-56.21951219512195
0
VERTEX
8
G1
10
-48.51219512195121
20
-55.536585365853654
0
VERTEX
8
G1
10
-47.43902439024389
20
-55.536585365853654
0
VERTEX
8
G1
10
-47.43902439024389
20
-53.70048780487762
0
VERTEX
8
G1
10
-52.07317073170731
20
-53.70048780487762
0
VERTEX
8
G1
10
-52.07317073170731
20
-55.71951219512195
0
VERTEX
8
G1
10
-51.24390243902438
20
-55.71951219512195
0
VERTEX
8
G1
10
-51.24390243902438
20
-56.8170731707317
0
VERTEX
8
G1
10
-52.07317073170731
20
-56.8170731707317
0
VERTEX
8
G1
10
-52.07317073170731
20
-58.98243902439068
0
SEQEND
0
POLYLINE
8
G1
66
1
70
1
0
VERTEX
8
G1
10
-46.219512195121936
20
-58.98243902439068
0
VERTEX
8
G1
10
-41.585365853658516
20
-58.98243902439068
0
VERTEX
8
G1
10
-41.585365853658516
20
-56.914634146341456
0
VERTEX
8
G1
10
-42.45121951219511
20
-56.914634146341456
0
VERTEX
8
G1
10
-42.45121951219511
20
-56.21951219512195
0
VERTEX
8
G1
10
-42.65853658536584
20
-56.21951219512195
0
VERTEX
8
G1
10
-42.65853658536584
20
-55.536585365853654
0
VERTEX
8
G1
10
-41.585365853658516
20
-55.536585365853654
0
VERTEX
8
G1
10
-41.585365853658516
20
-53.70048780487762
0
VERTEX
8
G1
10
-46.219512195121936
20
-53.70048780487762
0
VERTEX
8
G1
10
-46.219512195121936
20
-55.71951219512195
0
VERTEX
8
G1
10
-45.39024390243901
20
-55.71951219512195
0
VERTEX
8
G1
10
-45.39024390243901
20
-56.8170731707317
0
VERTEX
8
G1
10
-46.219512195121936
20
-56.8170731707317
0
VERTEX
8
G1
10
-46.219512195121936
20
-58.98243902439068
0
SEQEND
0
POLYLINE
8
G1
66
1
70
1
0
VERTEX
8
G1
10
-40.36585365853658
20
-58.98243902439068
0
VERTEX
8
G1
10
-35.73170731707316
20
-58.98243902439068
0
VERTEX
8
G1
10
-35.73170731707316
20
-56.914634146341456
0
VERTEX
8
G1
10
-36.59756097560975
20
-56.914634146341456
0
VERTEX
8
G1
10
-36.59756097560975
20
-56.21951219512195
0
VERTEX
8
G1
10
-36.80487804878048
20
-56.21951219512195
0
VERTEX
8
G1
10
-36.80487804878048
20
-55.536585365853654
0
VERTEX
8
G1
10
-35.73170731707316
20
-55.536585365853654
0
VERTEX
8
G1
10
-35.73170731707316
20
-53.70048780487762
0
VERTEX
8
G1
10
-40.36585365853658
20
-53.70048780487762
0
VERTEX
8
G1
10
-40.36585365853658
20
-55.71951219512195
0
VERTEX
8
G1
10
-39.536585365853654
20
-55.71951219512195
0
VERTEX
8
G1
10
-39.536585365853654
20
-56.8170731707317
0
VERTEX
8
G1
10
-40.36585365853658
20
-56.8170731707317
0
VERTEX
8
G1
10
-40.36585365853658
20
-58.98243902439068
0
SEQEND
0
POLYLINE
8
G1
66
1
70
1
0
VERTEX
8
G1
10
-34.51219512195121
20
-58.98243902439068
0
VERTEX
8
G1
10
-29.878048780487788
20
-58.98243902439068
0
VERTEX
8
G1
10
-29.878048780487788
20
-56.914634146341456
0
VERTEX
8
G1
10
-30.74390243902438
20
-56.914634146341456
0
VERTEX
8
G1
10
-30.74390243902438
20
-56.21951219512195
0
VERTEX
8
G1
10
-30.95121951219511
20
-56.21951219512195
0
VERTEX
8
G1
10
-30.95121951219511
20
-55.536585365853654
0
VERTEX
8
G1
10
-29.878048780487788
20
-55.536585365853654
0
VERTEX
8
G1
10
-29.878048780487788
20
-53.70048780487762
0
VERTEX
8
G1
10
-34.51219512195121
20
-53.70048780487762
0
VERTEX
8
G1
10
-34.51219512195121
20
-55.71951219512195
0
VERTEX
8
G1
10
-33.68292682926828
20
-55.71951219512195
0
VERTEX
8
G1
10
-33.68292682926828
20
-56.8170731707317
0
VERTEX
8
G1
10
-34.51219512195121
20
-56.8170731707317
0
VERTEX
8
G1
10
-34.51219512195121
20
-58.98243902439068
0
SEQEND
0
POLYLINE
8
G1
66
1
70
1
0
VERTEX
8
G1
10
-28.658536585365837
20
-58.98243902439068
0
VERTEX
8
G1
10
-24.024390243902417
20
-58.98243902439068
0
VERTEX
8
G1
10
-24.024390243902417
20
-56.914634146341456
0
VERTEX
8
G1
10
-24.89024390243901
20
-56.914634146341456
0
VERTEX
8
G1
10
-24.89024390243901
20
-56.21951219512195
0
VERTEX
8
G1
10
-25.09756097560974
20
-56.21951219512195
0
VERTEX
8
G1
10
-25.09756097560974
20
-55.536585365853654
0
VERTEX
8
G1
10
-24.024390243902417
20
-55.536585365853654
0
VERTEX
8
G1
10
-24.024390243902417
20
-53.70048780487762
0
VERTEX
8
G1
10
-28.658536585365837
20
-53.70048780487762
0
VERTEX
8
G1
10
-28.658536585365837
20
-55.71951219512195
0
VERTEX
8
G1
10
-27.82926829268291
20
-55.71951219512195
0
VERTEX
8
G1
10
-27.82926829268291
20
-56.8170731707317
0
VERTEX
8
G1
10
-28.658536585365837
20
-56.8170731707317
0
VERTEX
8
G1
10
-28.658536585365837
20
-58.98243902439068
0
SEQEND
0
POLYLINE
8
G1
66
1
70
1
0
VERTEX
8
G1
10
-22.80487804878048
20
-58.98243902439068
0
VERTEX
8
G1
10
-18.17073170731706
20
-58.98243902439068
0
VERTEX
8
G1
10
-18.17073170731706
20
-56.914634146341456
0
VERTEX
8
G1
10
-19.036585365853654
20
-56.914634146341456
0
VERTEX
8
G1
10
-19.036585365853654
20
-56.21951219512195
0
VERTEX
8
G1
10
-19.24390243902438
20
-56.21951219512195
0
VERTEX
8
G1
10
-19.24390243902438
20
-55.536585365853654
0
VERTEX
8
G1
10
-18.17073170731706
20
-55.536585365853654
0
VERTEX
8
G1
10
-18.17073170731706
20
-53.70048780487762
0
VERTEX
8
G1
10
-22.80487804878048
20
-53.70048780487762
0
VERTEX
8
G1
10
-22.80487804878048
20
-55.71951219512195
0
VERTEX
8
G1
10
-21.975609756097555
20
-55.71951219512195
0
VERTEX
8
G1
10
-21.975609756097555
20
-56.8170731707317
0
VERTEX
8
G1
10
-22.80487804878048
20
-56.8170731707317
0
VERTEX
8
G1
10
-22.80487804878048
20
-58.98243902439068
0
SEQEND
0
POLYLINE
8
G1
66
1
70
1
0
VERTEX
8
G1
10
-16.95121951219511
20
-58.98243902439068
0
VERTEX
8
G1
10
-12.317073170731689
20
-58.98243902439068
0
VERTEX
8
G1
10
-12.317073170731689
20
-56.914634146341456
0
VERTEX
8
G1
10
-13.182926829268283
20
-56.914634146341456
0
VERTEX
8
G1
10
-13.182926829268283
20
-56.21951219512195
0
VERTEX
8
G1
10
-13.39024390243901
20
-56.21951219512195
0
VERTEX
8
G1
10
-13.39024390243901
20
-55.536585365853654
0
VERTEX
8
G1
10
-12.317073170731689
20
-55.536585365853654
0
VERTEX
8
G1
10
-12.317073170731689
20
-53.70048780487762
0
VERTEX
8
G1
10
-16.95121951219511
20
-53.70048780487762
0
VERTEX
8
G1
10
-16.95121951219511
20
-55.71951219512195
0
VERTEX
8
G1
10
-16.121951219512184
20
-55.71951219512195
0
VERTEX
8
G1
10
-16.121951219512184
20
-56.8170731707317
0
VERTEX
8
G1
10
-16.95121951219511
20
-56.8170731707317
0
VERTEX
8
G1
10
-16.95121951219511
20
-58.98243902439068
0
SEQEND
0
POLYLINE
8
G1
66
1
70
1
0
VERTEX
8
G1
10
-11.097560975609738
20
-58.98243902439068
0
VERTEX
8
G1
10
-6.463414634146318
20
-58.98243902439068
0
VERTEX
8
G1
10
-6.463414634146318
20
-56.914634146341456
0
VERTEX
8
G1
10
-7.329268292682912
20
-56.914634146341456
0
VERTEX
8
G1
10
-7.329268292682912
20
-56.21951219512195
0
VERTEX
8
G1
10
-7.5365853658536395
20
-56.21951219512195
0
VERTEX
8
G1
10
-7.5365853658536395
20
-55.536585365853654
0
VERTEX
8
G1
10
-6.463414634146318
20
-55.536585365853654
0
VERTEX
8
G1
10
-6.463414634146318
20
-53.70048780487762
0
VERTEX
8
G1
10
-11.097560975609738
20
-53.70048780487762
0
VERTEX
8
G1
10
-11.097560975609738
20
-55.71951219512195
0
VERTEX
8
G1
10
-10.268292682926813
20
-55.71951219512195
0
VERTEX
8
G1
10
-10.268292682926813
20
-56.8170731707317
0
VERTEX
8
G1
10
-11.097560975609738
20
-56.8170731707317
0
VERTEX
8
G1
10
-11.097560975609738
20
-58.98243902439068
0
SEQEND
0
POLYLINE
8
G1
66
1
70
1
0
VERTEX
8
G1
10
-5.243902439024382
20
-58.98243902439068
0
VERTEX
8
G1
10
-0.609756097560961
20
-58.98243902439068
0
VERTEX
8
G1
10
-0.609756097560961
20
-56.914634146341456
0
VERTEX
8
G1
10
-1.4756097560975547
20
-56.914634146341456
0
VERTEX
8
G1
10
-1.4756097560975547
20
-56.21951219512195
0
VERTEX
8
G1
10
-1.6829268292682826
20
-56.21951219512195
0
VERTEX
8
G1
10
-1.6829268292682826
20
-55.536585365853654
0
VERTEX
8
G1
10
-0.609756097560961
20
-55.536585365853654
0
VERTEX
8
G1
10
-0.609756097560961
20
-53.70048780487762
0
VERTEX
8
G1
10
-5.243902439024382
20
-53.70048780487762
0
VERTEX
8
G1
10
-5.243902439024382
20
-55.71951219512195
0
VERTEX
8
G1
10
-4.414634146341456
20
-55.71951219512195
0
VERTEX
8
G1
10
-4.414634146341456
20
-56.8170731707317
0
VERTEX
8
G1
10
-5.243902439024382
20
-56.8170731707317
0
VERTEX
8
G1
10
-5.243902439024382
20
-58.98243902439068
0
SEQEND
0
POLYLINE
8
G1
66
1
70
1
0
VERTEX
8
G1
10
0.6097560975609895
20
-58.98243902439068
0
VERTEX
8
G1
10
5.24390243902441
20
-58.98243902439068
0
VERTEX
8
G1
10
5.24390243902441
20
-56.914634146341456
0
VERTEX
8
G1
10
4.378048780487816
20
-56.914634146341456
0
VERTEX
8
G1
10
4.378048780487816
20
-56.21951219512195
0
VERTEX
8
G1
10
4.170731707317088
20
-56.21951219512195
0
VERTEX
8
G1
10
4.170731707317088
20
-55.536585365853654
0
VERTEX
8
G1
10
5.24390243902441
20
-55.536585365853654
0
VERTEX
8
G1
10
5.24390243902441
20
-53.70048780487762
0
VERTEX
8
G1
10
0.6097560975609895
20
-53.70048780487762
0
VERTEX
8
G1
10
0.6097560975609895
20
-55.71951219512195
0
VERTEX
8
G1
10
1.4390243902439153
20
-55.71951219512195
0
VERTEX
8
G1
10
1.4390243902439153
20
-56.8170731707317
0
VERTEX
8
G1
10
0.6097560975609895
20
-56.8170731707317
0
VERTEX
8
G1
10
0.6097560975609895
20
-58.98243902439068
0
SEQEND
0
POLYLINE
8
G1
66
1
70
1
0
VERTEX
8
G1
10
6.463414634146346
20
-58.98243902439068
0
VERTEX
8
G1
10
11.097560975609767
20
-58.98243902439068
0
VERTEX
8
G1
10
11.097560975609767
20
-56.914634146341456
0
VERTEX
8
G1
10
10.231707317073173
20
-56.914634146341456
0
VERTEX
8
G1
10
10.231707317073173
20
-56.21951219512195
0
VERTEX
8
G1
10
10.024390243902445
20
-56.21951219512195
0
VERTEX
8
G1
10
10.024390243902445
20
-55.536585365853654
0
VERTEX
8
G1
10
11.097560975609767
20
-55.536585365853654
0
VERTEX
8
G1
10
11.097560975609767
20
-53.70048780487762
0
VERTEX
8
G1
10
6.463414634146346
20
-53.70048780487762
0
VERTEX
8
G1
10
6.463414634146346
20
-55.71951219512195
0
VERTEX
8
G1
10
7.292682926829272
20
-55.71951219512195
0
VERTEX
8
G1
10
7.292682926829272
20
-56.8170731707317
0
VERTEX
8
G1
10
6.463414634146346
20
-56.8170731707317
0
VERTEX
8
G1
10
6.463414634146346
20
-58.98243902439068
0
SEQEND
0
POLYLINE
8
G1
66
1
70
1
0
VERTEX
8
G1
10
12.317073170731717
20
-58.98243902439068
0
VERTEX
8
G1
10
16.951219512195124
20
-58.98243902439068
0
VERTEX
8
G1
10
16.951219512195124
20
-56.914634146341456
0
VERTEX
8
G1
10
16.085365853658544
20
-56.914634146341456
0
VERTEX
8
G1
10
16.085365853658544
20
-56.21951219512195
0
VERTEX
8
G1
10
15.878048780487816
20
-56.21951219512195
0
VERTEX
8
G1
10
15.878048780487816
20
-55.536585365853654
0
VERTEX
8
G1
10
16.951219512195124
20
-55.536585365853654
0
VERTEX
8
G1
10
16.951219512195124
20
-53.70048780487762
0
VERTEX
8
G1
10
12.317073170731717
20
-53.70048780487762
0
VERTEX
8
G1
10
12.317073170731717
20
-55.71951219512195
0
VERTEX
8
G1
10
13.146341463414643
20
-55.71951219512195
0
VERTEX
8
G1
10
13.146341463414643
20
-56.8170731707317
0
VERTEX
8
G1
10
12.317073170731717
20
-56.8170731707317
0
VERTEX
8
G1
10
12.317073170731717
20
-58.98243902439068
0
SEQEND
0
POLYLINE
8
G1
66
1
70
1
0
VERTEX
8
G1
10
18.170731707317074
20
-58.98243902439068
0
VERTEX
8
G1
10
22.80487804878048
20
-58.98243902439068
0
VERTEX
8
G1
10
22.80487804878048
20
-56.914634146341456
0
VERTEX
8
G1
10
21.939024390243915
20
-56.914634146341456
0
VERTEX
8
G1
10
21.939024390243915
20
-56.21951219512195
0
VERTEX
8
G1
10
21.731707317073173
20
-56.21951219512195
0
VERTEX
8
G1
10
21.731707317073173
20
-55.536585365853654
0
VERTEX
8
G1
10
22.80487804878048
20
-55.536585365853654
0
VERTEX
8
G1
10
22.80487804878048
20
-53.70048780487762
0
VERTEX
8
G1
10
18.170731707317074
20
-53.70048780487762
0
VERTEX
8
G1
10
18.170731707317074
20
-55.71951219512195
0
VERTEX
8
G1
10
18.999999999999986
20
-55.71951219512195
0
VERTEX
8
G1
10
18.999999999999986
20
-56.8170731707317
0
VERTEX
8
G1
10
18.170731707317074
20
-56.8170731707317
0
VERTEX
8
G1
10
18.170731707317074
20
-58.98243902439068
0
SEQEND
0
POLYLINE
8
G1
66
1
70
1
0
VERTEX
8
G1
10
24.02439024390246
20
-58.98243902439068
0
VERTEX
8
G1
10
28.658536585365866
20
-58.98243902439068
0
VERTEX
8
G1
10
28.658536585365866
20
-56.914634146341456
0
VERTEX
8
G1
10
27.7926829268293
20
-56.914634146341456
0
VERTEX
8
G1
10
27.7926829268293
20
-56.21951219512195
0
VERTEX
8
G1
10
27.58536585365856
20
-56.21951219512195
0
VERTEX
8
G1
10
27.58536585365856
20
-55.536585365853654
0
VERTEX
8
G1
10
28.658536585365866
20
-55.536585365853654
0
VERTEX
8
G1
10
28.658536585365866
20
-53.70048780487762
0
VERTEX
8
G1
10
24.02439024390246
20
-53.70048780487762
0
VERTEX
8
G1
10
24.02439024390246
20
-55.71951219512195
0
VERTEX
8
G1
10
24.85365853658537
20
-55.71951219512195
0
VERTEX
8
G1
10
24.85365853658537
20
-56.8170731707317
0
VERTEX
8
G1
10
24.02439024390246
20
-56.8170731707317
0
VERTEX
8
G1
10
24.02439024390246
20
-58.98243902439068
0
SEQEND
0
POLYLINE
8
G1
66
1
70
1
0
VERTEX
8
G1
10
29.878048780487788
20
-58.98243902439068
0
VERTEX
8
G1
10
34.512195121951194
20
-58.98243902439068
0
VERTEX
8
G1
10
34.512195121951194
20
-56.914634146341456
0
VERTEX
8
G1
10
33.64634146341463
20
-56.914634146341456
0
VERTEX
8
G1
10
33.64634146341463
20
-56.21951219512195
0
VERTEX
8
G1
10
33.43902439024389
20
-56.21951219512195
0
VERTEX
8
G1
10
33.43902439024389
20
-55.536585365853654
0
VERTEX
8
G1
10
34.512195121951194
20
-55.536585365853654
0
VERTEX
8
G1
10
34.512195121951194
20
-53.70048780487762
0
VERTEX
8
G1
10
29.878048780487788
20
-53.70048780487762
0
VERTEX
8
G1
10
29.878048780487788
20
-55.71951219512195
0
VERTEX
8
G1
10
30.7073170731707
20
-55.71951219512195
0
VERTEX
8
G1
10
30.7073170731707
20
-56.8170731707317
0
VERTEX
8
G1
10
29.878048780487788
20
-56.8170731707317
0
VERTEX
8
G1
10
29.878048780487788
20
-58.98243902439068
0
SEQEND
0
POLYLINE
8
G1
66
1
70
1
0
VERTEX
8
G1
10
35.73170731707317
20
-58.98243902439068
0
VERTEX
8
G1
10
40.36585365853658
20
-58.98243902439068
0
VERTEX
8
G1
10
40.36585365853658
20
-56.914634146341456
0
VERTEX
8
G1
10
39.500000000000014
20
-56.914634146341456
0
VERTEX
8
G1
10
39.500000000000014
20
-56.21951219512195
0
VERTEX
8
G1
10
39.29268292682927
20
-56.21951219512195
0
VERTEX
8
G1
10
39.29268292682927
20
-55.536585365853654
0
VERTEX
8
G1
10
40.36585365853658
20
-55.536585365853654
0
VERTEX
8
G1
10
40.36585365853658
20
-53.70048780487762
0
VERTEX
8
G1
10
35.73170731707317
20
-53.70048780487762
0
VERTEX
8
G1
10
35.73170731707317
20
-55.71951219512195
0
VERTEX
8
G1
10
36.560975609756085
20
-55.71951219512195
0
VERTEX
8
G1
10
36.560975609756085
20
-56.8170731707317
0
VERTEX
8
G1
10
35.73170731707317
20
-56.8170731707317
0
VERTEX
8
G1
10
35.73170731707317
20
-58.98243902439068
0
SEQEND
0
POLYLINE
8
G1
66
1
70
1
0
VERTEX
8
G1
10
41.58536585365856
20
-58.98243902439068
0
VERTEX
8
G1
10
46.219512195121965
20
-58.98243902439068
0
VERTEX
8
G1
10
46.219512195121965
20
-56.914634146341456
0
VERTEX
8
G1
10
45.3536585365854
20
-56.914634146341456
0
VERTEX
8
G1
10
45.3536585365854
20
-56.21951219512195
0
VERTEX
8
G1
10
45.14634146341466
20
-56.21951219512195
0
VERTEX
8
G1
10
45.14634146341466
20
-55.536585365853654
0
VERTEX
8
G1
10
46.219512195121965
20
-55.536585365853654
0
VERTEX
8
G1
10
46.219512195121965
20
-53.70048780487762
0
VERTEX
8
G1
10
41.58536585365856
20
-53.70048780487762
0
VERTEX
8
G1
10
41.58536585365856
20
-55.71951219512195
0
VERTEX
8
G1
10
42.41463414634147
20
-55.71951219512195
0
VERTEX
8
G1
10
42.41463414634147
20
-56.8170731707317
0
VERTEX
8
G1
10
41.58536585365856
20
-56.8170731707317
0
VERTEX
8
G1
10
41.58536585365856
20
-58.98243902439068
0
SEQEND
0
POLYLINE
8
G1
66
1
70
1
0
VERTEX
8
G1
10
47.439024390243915
20
-58.98243902439068
0
VERTEX
8
G1
10
52.07317073170732
20
-58.98243902439068
0
VERTEX
8
G1
10
52.07317073170732
20
-56.914634146341456
0
VERTEX
8
G1
10
51.207317073170756
20
-56.914634146341456
0
VERTEX
8
G1
10
51.207317073170756
20
-56.21951219512195
0
VERTEX
8
G1
10
51.000000000000014
20
-56.21951219512195
0
VERTEX
8
G1
10
51.000000000000014
20
-55.536585365853654
0
VERTEX
8
G1
10
52.07317073170732
20
-55.536585365853654
0
VERTEX
8
G1
10
52.07317073170732
20
-53.70048780487762
0
VERTEX
8
G1
10
47.439024390243915
20
-53.70048780487762
0
VERTEX
8
G1
10
47.439024390243915
20
-55.71951219512195
0
VERTEX
8
G1
10
48.26829268292683
20
-55.71951219512195
0
VERTEX
8
G1
10
48.26829268292683
20
-56.8170731707317
0
VERTEX
8
G1
10
47.439024390243915
20
-56.8170731707317
0
VERTEX
8
G1
10
47.439024390243915
20
-58.98243902439068
0
SEQEND
0
POLYLINE
8
G1
66
1
70
1
0
VERTEX
8
G1
10
53.29268292682927
20
-58.98243902439068
0
VERTEX
8
G1
10
57.92682926829268
20
-58.98243902439068
0
VERTEX
8
G1
10
57.92682926829268
20
-56.914634146341456
0
VERTEX
8
G1
10
57.06097560975611
20
-56.914634146341456
0
VERTEX
8
G1
10
57.06097560975611
20
-56.21951219512195
0
VERTEX
8
G1
10
56.85365853658537
20
-56.21951219512195
0
VERTEX
8
G1
10
56.85365853658537
20
-55.536585365853654
0
VERTEX
8
G1
10
57.92682926829268
20
-55.536585365853654
0
VERTEX
8
G1
10
57.92682926829268
20
-53.70048780487762
0
VERTEX
8
G1
10
53.29268292682927
20
-53.70048780487762
0
VERTEX
8
G1
10
53.29268292682927
20
-55.71951219512195
0
VERTEX
8
G1
10
54.121951219512184
20
-55.71951219512195
0
VERTEX
8
G1
10
54.121951219512184
20
-56.8170731707317
0
VERTEX
8
G1
10
53.29268292682927
20
-56.8170731707317
0
VERTEX
8
G1
10
53.29268292682927
20
-58.98243902439068
0
SEQEND
0
ENDBLK
0
ENDSEC
0
SECTION
2
ENTITIES
0
INSERT
2
LDI_XFB44-1600-011_G1_B1
8
G1
10
0
20
0.0
30
0
0
INSERT
2
LDI_XFB44-1600-011_G1_B1
8
G1
10
0
20
5.121951219512195
30
0
0
INSERT
2
LDI_XFB44-1600-011_G1_B1
8
G1
10
0
20
10.24390243902439
30
0
0
INSERT
2
LDI_XFB44-1600-011_G1_B1
8
G1
10
0
20
15.365853658536587
30
0
0
INSERT
2
LDI_XFB44-1600-011_G1_B1
8
G1
10
0
20
20.48780487804878
30
0
0
INSERT
2
LDI_XFB44-1600-011_G1_B1
8
G1
10
0
20
25.609756097560975
30
0
0
INSERT
2
LDI_XFB44-1600-011_G1_B1
8
G1
10
0
20
30.731707317073173
30
0
0
INSERT
2
LDI_XFB44-1600-011_G1_B1
8
G1
10
0
20
35.853658536585364
30
0
0
INSERT
2
LDI_XFB44-1600-011_G1_B1
8
G1
10
0
20
40.97560975609756
30
0
0
INSERT
2
LDI_XFB44-1600-011_G1_B1
8
G1
10
0
20
46.09756097560976
30
0
0
INSERT
2
LDI_XFB44-1600-011_G1_B1
8
G1
10
0
20
51.21951219512195
30
0
0
INSERT
2
LDI_XFB44-1600-011_G1_B1
8
G1
10
0
20
56.34146341463415
30
0
0
INSERT
2
LDI_XFB44-1600-011_G1_B1
8
G1
10
0
20
61.463414634146346
30
0
0
INSERT
2
LDI_XFB44-1600-011_G1_B1
8
G1
10
0
20
66.58536585365854
30
0
0
INSERT
2
LDI_XFB44-1600-011_G1_B1
8
G1
10
0
20
71.70731707317073
30
0
0
INSERT
2
LDI_XFB44-1600-011_G1_B1
8
G1
10
0
20
76.82926829268293
30
0
0
INSERT
2
LDI_XFB44-1600-011_G1_B1
8
G1
10
0
20
81.95121951219512
30
0
0
INSERT
2
LDI_XFB44-1600-011_G1_B1
8
G1
10
0
20
87.07317073170732
30
0
0
INSERT
2
LDI_XFB44-1600-011_G1_B1
8
G1
10
0
20
92.19512195121952
30
0
0
INSERT
2
LDI_XFB44-1600-011_G1_B1
8
G1
10
0
20
97.3170731707317
30
0
0
INSERT
2
LDI_XFB44-1600-011_G1_B1
8
G1
10
0
20
102.4390243902439
30
0
0
INSERT
2
LDI_XFB44-1600-011_G1_B1
8
G1
10
0
20
107.5609756097561
30
0
0
INSERT
2
LDI_XFB44-1600-011_G1_B1
8
G1
10
0
20
112.6829268292683
30
0
0
POLYLINE
8
G1
66
1
70
1
40
0.1
41
0.1
0
VERTEX
8
G1
10
-61.5
20
-61.2
42
1.0
0
VERTEX
8
G1
10
-60.900000000000006
20
-61.2
42
1.0
0
SEQEND
0
POLYLINE
8
G1
66
1
70
1
40
0.1
41
0.1
0
VERTEX
8
G1
10
-61.5
20
61.2
42
1.0
0
VERTEX
8
G1
10
-60.900000000000006
20
61.2
42
1.0
0
SEQEND
0
POLYLINE
8
G1
66
1
70
1
40
0.1
41
0.1
0
VERTEX
8
G1
10
60.90000000000002
20
-61.2
42
1.0
0
VERTEX
8
G1
10
61.499999999999986
20
-61.2
42
1.0
0
SEQEND
0
POLYLINE
8
G1
66
1
70
1
40
0.1
41
0.1
0
VERTEX
8
G1
10
60.90000000000002
20
61.2
42
1.0
0
VERTEX
8
G1
10
61.499999999999986
20
61.2
42
1.0
0
SEQEND
0
POLYLINE
8
G1
66
1
70
1
0
VERTEX
8
G1
10
-64.46966991411009
20
-64.46966991411009
40
0.08
41
0.08
0
VERTEX
8
G1
10
-65.53033008588991
20
-65.53033008588991
40
0.08
41
0.08
0
SEQEND
0
POLYLINE
8
G1
66
1
70
1
0
VERTEX
8
G1
10
-64.46966991411009
20
-65.53033008588991
40
0.08
41
0.08
0
VERTEX
8
G1
10
-65.53033008588991
20
-64.46966991411009
40
0.08
41
0.08
0
SEQEND
0
POLYLINE
8
G1
66
1
70
1
0
VERTEX
8
G1
10
-64.46966991411009
20
65.53033008588993
40
0.08
41
0.08
0
VERTEX
8
G1
10
-65.53033008588991
20
64.4696699141101
40
0.08
41
0.08
0
SEQEND
0
POLYLINE
8
G1
66
1
70
1
0
VERTEX
8
G1
10
-64.46966991411009
20
64.4696699141101
40
0.08
41
0.08
0
VERTEX
8
G1
10
-65.53033008588991
20
65.53033008588993
40
0.08
41
0.08
0
SEQEND
0
POLYLINE
8
G1
66
1
70
1
0
VERTEX
8
G1
10
65.53033008588993
20
65.53033008588993
40
0.08
41
0.08
0
VERTEX
8
G1
10
64.4696699141101
20
64.4696699141101
40
0.08
41
0.08
0
SEQEND
0
POLYLINE
8
G1
66
1
70
1
0
VERTEX
8
G1
10
65.53033008588993
20
64.4696699141101
40
0.08
41
0.08
0
VERTEX
8
G1
10
64.4696699141101
20
65.53033008588993
40
0.08
41
0.08
0
SEQEND
0
POLYLINE
8
G1
66
1
70
1
0
VERTEX
8
G1
10
65.74999999999999
20
-65.0
40
0.08
41
0.08
0
VERTEX
8
G1
10
64.24999999999999
20
-65.0
40
0.08
41
0.08
0
SEQEND
0
POLYLINE
8
G1
66
1
70
1
0
VERTEX
8
G1
10
64.99999999999999
20
-64.25
40
0.08
41
0.08
0
VERTEX
8
G1
10
64.99999999999999
20
-65.75
40
0.08
41
0.08
0
SEQEND
0
POLYLINE
8
G1
66
1
70
1
0
VERTEX
8
G1
10
-58.536585365853654
20
-61.2
40
0.08
41
0.08
0
VERTEX
8
G1
10
-58.536585365853654
20
-64.2
40
0.08
41
0.08
0
SEQEND
0
POLYLINE
8
G1
66
1
70
1
0
VERTEX
8
G1
10
-58.536585365853654
20
61.2
40
0.08
41
0.08
0
VERTEX
8
G1
10
-58.536585365853654
20
64.2
40
0.08
41
0.08
0
SEQEND
0
POLYLINE
8
G1
66
1
70
1
0
VERTEX
8
G1
10
-52.68292682926829
20
-61.2
40
0.08
41
0.08
0
VERTEX
8
G1
10
-52.68292682926829
20
-64.2
40
0.08
41
0.08
0
SEQEND
0
POLYLINE
8
G1
66
1
70
1
0
VERTEX
8
G1
10
-52.68292682926829
20
61.2
40
0.08
41
0.08
0
VERTEX
8
G1
10
-52.68292682926829
20
64.2
40
0.08
41
0.08
0
SEQEND
0
POLYLINE
8
G1
66
1
70
1
0
VERTEX
8
G1
10
-46.829268292682926
20
-61.2
40
0.08
41
0.08
0
VERTEX
8
G1
10
-46.829268292682926
20
-64.2
40
0.08
41
0.08
0
SEQEND
0
POLYLINE
8
G1
66
1
70
1
0
VERTEX
8
G1
10
-46.829268292682926
20
61.2
40
0.08
41
0.08
0
VERTEX
8
G1
10
-46.829268292682926
20
64.2
40
0.08
41
0.08
0
SEQEND
0
POLYLINE
8
G1
66
1
70
1
0
VERTEX
8
G1
10
-40.975609756097555
20
-61.2
40
0.08
41
0.08
0
VERTEX
8
G1
10
-40.975609756097555
20
-64.2
40
0.08
41
0.08
0
SEQEND
0
POLYLINE
8
G1
66
1
70
1
0
VERTEX
8
G1
10
-40.975609756097555
20
61.2
40
0.08
41
0.08
0
VERTEX
8
G1
10
-40.975609756097555
20
64.2
40
0.08
41
0.08
0
SEQEND
0
POLYLINE
8
G1
66
1
70
1
0
VERTEX
8
G1
10
-35.121951219512184
20
-61.2
40
0.08
41
0.08
0
VERTEX
8
G1
10
-35.121951219512184
20
-64.2
40
0.08
41
0.08
0
SEQEND
0
POLYLINE
8
G1
66
1
70
1
0
VERTEX
8
G1
10
-35.121951219512184
20
61.2
40
0.08
41
0.08
0
VERTEX
8
G1
10
-35.121951219512184
20
64.2
40
0.08
41
0.08
0
SEQEND
0
POLYLINE
8
G1
66
1
70
1
0
VERTEX
8
G1
10
-29.268292682926827
20
-61.2
40
0.08
41
0.08
0
VERTEX
8
G1
10
-29.268292682926827
20
-64.2
40
0.08
41
0.08
0
SEQEND
0
POLYLINE
8
G1
66
1
70
1
0
VERTEX
8
G1
10
-29.268292682926827
20
61.2
40
0.08
41
0.08
0
VERTEX
8
G1
10
-29.268292682926827
20
64.2
40
0.08
41
0.08
0
SEQEND
0
POLYLINE
8
G1
66
1
70
1
0
VERTEX
8
G1
10
-23.414634146341456
20
-61.2
40
0.08
41
0.08
0
VERTEX
8
G1
10
-23.414634146341456
20
-64.2
40
0.08
41
0.08
0
SEQEND
0
POLYLINE
8
G1
66
1
70
1
0
VERTEX
8
G1
10
-23.414634146341456
20
61.2
40
0.08
41
0.08
0
VERTEX
8
G1
10
-23.414634146341456
20
64.2
40
0.08
41
0.08
0
SEQEND
0
POLYLINE
8
G1
66
1
70
1
0
VERTEX
8
G1
10
-17.560975609756085
20
-61.2
40
0.08
41
0.08
0
VERTEX
8
G1
10
-17.560975609756085
20
-64.2
40
0.08
41
0.08
0
SEQEND
0
POLYLINE
8
G1
66
1
70
1
0
VERTEX
8
G1
10
-17.560975609756085
20
61.2
40
0.08
41
0.08
0
VERTEX
8
G1
10
-17.560975609756085
20
64.2
40
0.08
41
0.08
0
SEQEND
0
POLYLINE
8
G1
66
1
70
1
0
VERTEX
8
G1
10
-11.707317073170728
20
-61.2
40
0.08
41
0.08
0
VERTEX
8
G1
10
-11.707317073170728
20
-64.2
40
0.08
41
0.08
0
SEQEND
0
POLYLINE
8
G1
66
1
70
1
0
VERTEX
8
G1
10
-11.707317073170728
20
61.2
40
0.08
41
0.08
0
VERTEX
8
G1
10
-11.707317073170728
20
64.2
40
0.08
41
0.08
0
SEQEND
0
POLYLINE
8
G1
66
1
70
1
0
VERTEX
8
G1
10
-5.853658536585371
20
-61.2
40
0.08
41
0.08
0
VERTEX
8
G1
10
-5.853658536585371
20
-64.2
40
0.08
41
0.08
0
SEQEND
0
POLYLINE
8
G1
66
1
70
1
0
VERTEX
8
G1
10
-5.853658536585371
20
61.2
40
0.08
41
0.08
0
VERTEX
8
G1
10
-5.853658536585371
20
64.2
40
0.08
41
0.08
0
SEQEND
0
POLYLINE
8
G1
66
1
70
1
0
VERTEX
8
G1
10
0.0
20
-61.2
40
0.08
41
0.08
0
VERTEX
8
G1
10
0.0
20
-64.2
40
0.08
41
0.08
0
SEQEND
0
POLYLINE
8
G1
66
1
70
1
0
VERTEX
8
G1
10
0.0
20
61.2
40
0.08
41
0.08
0
VERTEX
8
G1
10
0.0
20
64.2
40
0.08
41
0.08
0
SEQEND
0
POLYLINE
8
G1
66
1
70
1
0
VERTEX
8
G1
10
5.853658536585371
20
-61.2
40
0.08
41
0.08
0
VERTEX
8
G1
10
5.853658536585371
20
-64.2
40
0.08
41
0.08
0
SEQEND
0
POLYLINE
8
G1
66
1
70
1
0
VERTEX
8
G1
10
5.853658536585371
20
61.2
40
0.08
41
0.08
0
VERTEX
8
G1
10
5.853658536585371
20
64.2
40
0.08
41
0.08
0
SEQEND
0
POLYLINE
8
G1
66
1
70
1
0
VERTEX
8
G1
10
11.707317073170742
20
-61.2
40
0.08
41
0.08
0
VERTEX
8
G1
10
11.707317073170742
20
-64.2
40
0.08
41
0.08
0
SEQEND
0
POLYLINE
8
G1
66
1
70
1
0
VERTEX
8
G1
10
11.707317073170742
20
61.2
40
0.08
41
0.08
0
VERTEX
8
G1
10
11.707317073170742
20
64.2
40
0.08
41
0.08
0
SEQEND
0
POLYLINE
8
G1
66
1
70
1
0
VERTEX
8
G1
10
17.560975609756085
20
-61.2
40
0.08
41
0.08
0
VERTEX
8
G1
10
17.560975609756085
20
-64.2
40
0.08
41
0.08
0
SEQEND
0
POLYLINE
8
G1
66
1
70
1
0
VERTEX
8
G1
10
17.560975609756085
20
61.2
40
0.08
41
0.08
0
VERTEX
8
G1
10
17.560975609756085
20
64.2
40
0.08
41
0.08
0
SEQEND
0
POLYLINE
8
G1
66
1
70
1
0
VERTEX
8
G1
10
23.41463414634147
20
-61.2
40
0.08
41
0.08
0
VERTEX
8
G1
10
23.41463414634147
20
-64.2
40
0.08
41
0.08
0
SEQEND
0
POLYLINE
8
G1
66
1
70
1
0
VERTEX
8
G1
10
23.41463414634147
20
61.2
40
0.08
41
0.08
0
VERTEX
8
G1
10
23.41463414634147
20
64.2
40
0.08
41
0.08
0
SEQEND
0
POLYLINE
8
G1
66
1
70
1
0
VERTEX
8
G1
10
29.268292682926827
20
-61.2
40
0.08
41
0.08
0
VERTEX
8
G1
10
29.268292682926827
20
-64.2
40
0.08
41
0.08
0
SEQEND
0
POLYLINE
8
G1
66
1
70
1
0
VERTEX
8
G1
10
29.268292682926827
20
61.2
40
0.08
41
0.08
0
VERTEX
8
G1
10
29.268292682926827
20
64.2
40
0.08
41
0.08
0
SEQEND
0
POLYLINE
8
G1
66
1
70
1
0
VERTEX
8
G1
10
35.121951219512184
20
-61.2
40
0.08
41
0.08
0
VERTEX
8
G1
10
35.121951219512184
20
-64.2
40
0.08
41
0.08
0
SEQEND
0
POLYLINE
8
G1
66
1
70
1
0
VERTEX
8
G1
10
35.121951219512184
20
61.2
40
0.08
41
0.08
0
VERTEX
8
G1
10
35.121951219512184
20
64.2
40
0.08
41
0.08
0
SEQEND
0
POLYLINE
8
G1
66
1
70
1
0
VERTEX
8
G1
10
40.97560975609757
20
-61.2
40
0.08
41
0.08
0
VERTEX
8
G1
10
40.97560975609757
20
-64.2
40
0.08
41
0.08
0
SEQEND
0
POLYLINE
8
G1
66
1
70
1
0
VERTEX
8
G1
10
40.97560975609757
20
61.2
40
0.08
41
0.08
0
VERTEX
8
G1
10
40.97560975609757
20
64.2
40
0.08
41
0.08
0
SEQEND
0
POLYLINE
8
G1
66
1
70
1
0
VERTEX
8
G1
10
46.829268292682926
20
-61.2
40
0.08
41
0.08
0
VERTEX
8
G1
10
46.829268292682926
20
-64.2
40
0.08
41
0.08
0
SEQEND
0
POLYLINE
8
G1
66
1
70
1
0
VERTEX
8
G1
10
46.829268292682926
20
61.2
40
0.08
41
0.08
0
VERTEX
8
G1
10
46.829268292682926
20
64.2
40
0.08
41
0.08
0
SEQEND
0
POLYLINE
8
G1
66
1
70
1
0
VERTEX
8
G1
10
52.68292682926828
20
-61.2
40
0.08
41
0.08
0
VERTEX
8
G1
10
52.68292682926828
20
-64.2
40
0.08
41
0.08
0
SEQEND
0
POLYLINE
8
G1
66
1
70
1
0
VERTEX
8
G1
10
52.68292682926828
20
61.2
40
0.08
41
0.08
0
VERTEX
8
G1
10
52.68292682926828
20
64.2
40
0.08
41
0.08
0
SEQEND
0
POLYLINE
8
G1
66
1
70
1
0
VERTEX
8
G1
10
58.53658536585367
20
-61.2
40
0.08
41
0.08
0
VERTEX
8
G1
10
58.53658536585367
20
-64.2
40
0.08
41
0.08
0
SEQEND
0
POLYLINE
8
G1
66
1
70
1
0
VERTEX
8
G1
10
58.53658536585367
20
61.2
40
0.08
41
0.08
0
VERTEX
8
G1
10
58.53658536585367
20
64.2
40
0.08
41
0.08
0
SEQEND
0
POLYLINE
8
G1
66
1
70
1
0
VERTEX
8
G1
10
-61.2
20
-58.90243902439025
40
0.08
41
0.08
0
VERTEX
8
G1
10
-64.2
20
-58.90243902439025
40
0.08
41
0.08
0
SEQEND
0
POLYLINE
8
G1
66
1
70
1
0
VERTEX
8
G1
10
61.2
20
-58.90243902439025
40
0.08
41
0.08
0
VERTEX
8
G1
10
64.2
20
-58.90243902439025
40
0.08
41
0.08
0
SEQEND
0
POLYLINE
8
G1
66
1
70
1
0
VERTEX
8
G1
10
-61.2
20
-53.78048780487805
40
0.08
41
0.08
0
VERTEX
8
G1
10
-64.2
20
-53.78048780487805
40
0.08
41
0.08
0
SEQEND
0
POLYLINE
8
G1
66
1
70
1
0
VERTEX
8
G1
10
61.2
20
-53.78048780487805
40
0.08
41
0.08
0
VERTEX
8
G1
10
64.2
20
-53.78048780487805
40
0.08
41
0.08
0
SEQEND
0
POLYLINE
8
G1
66
1
70
1
0
VERTEX
8
G1
10
-61.2
20
-48.65853658536586
40
0.08
41
0.08
0
VERTEX
8
G1
10
-64.2
20
-48.65853658536586
40
0.08
41
0.08
0
SEQEND
0
POLYLINE
8
G1
66
1
70
1
0
VERTEX
8
G1
10
61.2
20
-48.65853658536586
40
0.08
41
0.08
0
VERTEX
8
G1
10
64.2
20
-48.65853658536586
40
0.08
41
0.08
0
SEQEND
0
POLYLINE
8
G1
66
1
70
1
0
VERTEX
8
G1
10
-61.2
20
-43.53658536585367
40
0.08
41
0.08
0
VERTEX
8
G1
10
-64.2
20
-43.53658536585367
40
0.08
41
0.08
0
SEQEND
0
POLYLINE
8
G1
66
1
70
1
0
VERTEX
8
G1
10
61.2
20
-43.53658536585367
40
0.08
41
0.08
0
VERTEX
8
G1
10
64.2
20
-43.53658536585367
40
0.08
41
0.08
0
SEQEND
0
POLYLINE
8
G1
66
1
70
1
0
VERTEX
8
G1
10
-61.2
20
-38.41463414634147
40
0.08
41
0.08
0
VERTEX
8
G1
10
-64.2
20
-38.41463414634147
40
0.08
41
0.08
0
SEQEND
0
POLYLINE
8
G1
66
1
70
1
0
VERTEX
8
G1
10
61.2
20
-38.41463414634147
40
0.08
41
0.08
0
VERTEX
8
G1
10
64.2
20
-38.41463414634147
40
0.08
41
0.08
0
SEQEND
0
POLYLINE
8
G1
66
1
70
1
0
VERTEX
8
G1
10
-61.2
20
-33.29268292682927
40
0.08
41
0.08
0
VERTEX
8
G1
10
-64.2
20
-33.29268292682927
40
0.08
41
0.08
0
SEQEND
0
POLYLINE
8
G1
66
1
70
1
0
VERTEX
8
G1
10
61.2
20
-33.29268292682927
40
0.08
41
0.08
0
VERTEX
8
G1
10
64.2
20
-33.29268292682927
40
0.08
41
0.08
0
SEQEND
0
POLYLINE
8
G1
66
1
70
1
0
VERTEX
8
G1
10
-61.2
20
-28.170731707317074
40
0.08
41
0.08
0
VERTEX
8
G1
10
-64.2
20
-28.170731707317074
40
0.08
41
0.08
0
SEQEND
0
POLYLINE
8
G1
66
1
70
1
0
VERTEX
8
G1
10
61.2
20
-28.170731707317074
40
0.08
41
0.08
0
VERTEX
8
G1
10
64.2
20
-28.170731707317074
40
0.08
41
0.08
0
SEQEND
0
POLYLINE
8
G1
66
1
70
1
0
VERTEX
8
G1
10
-61.2
20
-23.048780487804876
40
0.08
41
0.08
0
VERTEX
8
G1
10
-64.2
20
-23.048780487804876
40
0.08
41
0.08
0
SEQEND
0
POLYLINE
8
G1
66
1
70
1
0
VERTEX
8
G1
10
61.2
20
-23.048780487804876
40
0.08
41
0.08
0
VERTEX
8
G1
10
64.2
20
-23.048780487804876
40
0.08
41
0.08
0
SEQEND
0
POLYLINE
8
G1
66
1
70
1
0
VERTEX
8
G1
10
-61.2
20
-17.92682926829268
40
0.08
41
0.08
0
VERTEX
8
G1
10
-64.2
20
-17.92682926829268
40
0.08
41
0.08
0
SEQEND
0
POLYLINE
8
G1
66
1
70
1
0
VERTEX
8
G1
10
61.2
20
-17.92682926829268
40
0.08
41
0.08
0
VERTEX
8
G1
10
64.2
20
-17.92682926829268
40
0.08
41
0.08
0
SEQEND
0
POLYLINE
8
G1
66
1
70
1
0
VERTEX
8
G1
10
-61.2
20
-12.80487804878048
40
0.08
41
0.08
0
VERTEX
8
G1
10
-64.2
20
-12.80487804878048
40
0.08
41
0.08
0
SEQEND
0
POLYLINE
8
G1
66
1
70
1
0
VERTEX
8
G1
10
61.2
20
-12.80487804878048
40
0.08
41
0.08
0
VERTEX
8
G1
10
64.2
20
-12.80487804878048
40
0.08
41
0.08
0
SEQEND
0
POLYLINE
8
G1
66
1
70
1
0
VERTEX
8
G1
10
-61.2
20
-7.682926829268297
40
0.08
41
0.08
0
VERTEX
8
G1
10
-64.2
20
-7.682926829268297
40
0.08
41
0.08
0
SEQEND
0
POLYLINE
8
G1
66
1
70
1
0
VERTEX
8
G1
10
61.2
20
-7.682926829268297
40
0.08
41
0.08
0
VERTEX
8
G1
10
64.2
20
-7.682926829268297
40
0.08
41
0.08
0
SEQEND
0
POLYLINE
8
G1
66
1
70
1
0
VERTEX
8
G1
10
-61.2
20
-2.560975609756099
40
0.08
41
0.08
0
VERTEX
8
G1
10
-64.2
20
-2.560975609756099
40
0.08
41
0.08
0
SEQEND
0
POLYLINE
8
G1
66
1
70
1
0
VERTEX
8
G1
10
61.2
20
-2.560975609756099
40
0.08
41
0.08
0
VERTEX
8
G1
10
64.2
20
-2.560975609756099
40
0.08
41
0.08
0
SEQEND
0
POLYLINE
8
G1
66
1
70
1
0
VERTEX
8
G1
10
-61.2
20
2.560975609756099
40
0.08
41
0.08
0
VERTEX
8
G1
10
-64.2
20
2.560975609756099
40
0.08
41
0.08
0
SEQEND
0
POLYLINE
8
G1
66
1
70
1
0
VERTEX
8
G1
10
61.2
20
2.560975609756099
40
0.08
41
0.08
0
VERTEX
8
G1
10
64.2
20
2.560975609756099
40
0.08
41
0.08
0
SEQEND
0
POLYLINE
8
G1
66
1
70
1
0
VERTEX
8
G1
10
-61.2
20
7.682926829268297
40
0.08
41
0.08
0
VERTEX
8
G1
10
-64.2
20
7.682926829268297
40
0.08
41
0.08
0
SEQEND
0
POLYLINE
8
G1
66
1
70
1
0
VERTEX
8
G1
10
61.2
20
7.682926829268297
40
0.08
41
0.08
0
VERTEX
8
G1
10
64.2
20
7.682926829268297
40
0.08
41
0.08
0
SEQEND
0
POLYLINE
8
G1
66
1
70
1
0
VERTEX
8
G1
10
-61.2
20
12.80487804878048
40
0.08
41
0.08
0
VERTEX
8
G1
10
-64.2
20
12.80487804878048
40
0.08
41
0.08
0
SEQEND
0
POLYLINE
8
G1
66
1
70
1
0
VERTEX
8
G1
10
61.2
20
12.80487804878048
40
0.08
41
0.08
0
VERTEX
8
G1
10
64.2
20
12.80487804878048
40
0.08
41
0.08
0
SEQEND
0
POLYLINE
8
G1
66
1
70
1
0
VERTEX
8
G1
10
-61.2
20
17.92682926829268
40
0.08
41
0.08
0
VERTEX
8
G1
10
-64.2
20
17.92682926829268
40
0.08
41
0.08
0
SEQEND
0
POLYLINE
8
G1
66
1
70
1
0
VERTEX
8
G1
10
61.2
20
17.92682926829268
40
0.08
41
0.08
0
VERTEX
8
G1
10
64.2
20
17.92682926829268
40
0.08
41
0.08
0
SEQEND
0
POLYLINE
8
G1
66
1
70
1
0
VERTEX
8
G1
10
-61.2
20
23.048780487804876
40
0.08
41
0.08
0
VERTEX
8
G1
10
-64.2
20
23.048780487804876
40
0.08
41
0.08
0
SEQEND
0
POLYLINE
8
G1
66
1
70
1
0
VERTEX
8
G1
10
61.2
20
23.048780487804876
40
0.08
41
0.08
0
VERTEX
8
G1
10
64.2
20
23.048780487804876
40
0.08
41
0.08
0
SEQEND
0
POLYLINE
8
G1
66
1
70
1
0
VERTEX
8
G1
10
-61.2
20
28.170731707317074
40
0.08
41
0.08
0
VERTEX
8
G1
10
-64.2
20
28.170731707317074
40
0.08
41
0.08
0
SEQEND
0
POLYLINE
8
G1
66
1
70
1
0
VERTEX
8
G1
10
61.2
20
28.170731707317074
40
0.08
41
0.08
0
VERTEX
8
G1
10
64.2
20
28.170731707317074
40
0.08
41
0.08
0
SEQEND
0
POLYLINE
8
G1
66
1
70
1
0
VERTEX
8
G1
10
-61.2
20
33.29268292682927
40
0.08
41
0.08
0
VERTEX
8
G1
10
-64.2
20
33.29268292682927
40
0.08
41
0.08
0
SEQEND
0
POLYLINE
8
G1
66
1
70
1
0
VERTEX
8
G1
10
61.2
20
33.29268292682927
40
0.08
41
0.08
0
VERTEX
8
G1
10
64.2
20
33.29268292682927
40
0.08
41
0.08
0
SEQEND
0
POLYLINE
8
G1
66
1
70
1
0
VERTEX
8
G1
10
-61.2
20
38.41463414634147
40
0.08
41
0.08
0
VERTEX
8
G1
10
-64.2
20
38.41463414634147
40
0.08
41
0.08
0
SEQEND
0
POLYLINE
8
G1
66
1
70
1
0
VERTEX
8
G1
10
61.2
20
38.41463414634147
40
0.08
41
0.08
0
VERTEX
8
G1
10
64.2
20
38.41463414634147
40
0.08
41
0.08
0
SEQEND
0
POLYLINE
8
G1
66
1
70
1
0
VERTEX
8
G1
10
-61.2
20
43.53658536585367
40
0.08
41
0.08
0
VERTEX
8
G1
10
-64.2
20
43.53658536585367
40
0.08
41
0.08
0
SEQEND
0
POLYLINE
8
G1
66
1
70
1
0
VERTEX
8
G1
10
61.2
20
43.53658536585367
40
0.08
41
0.08
0
VERTEX
8
G1
10
64.2
20
43.53658536585367
40
0.08
41
0.08
0
SEQEND
0
POLYLINE
8
G1
66
1
70
1
0
VERTEX
8
G1
10
-61.2
20
48.658536585365866
40
0.08
41
0.08
0
VERTEX
8
G1
10
-64.2
20
48.658536585365866
40
0.08
41
0.08
0
SEQEND
0
POLYLINE
8
G1
66
1
70
1
0
VERTEX
8
G1
10
61.2
20
48.658536585365866
40
0.08
41
0.08
0
VERTEX
8
G1
10
64.2
20
48.658536585365866
40
0.08
41
0.08
0
SEQEND
0
POLYLINE
8
G1
66
1
70
1
0
VERTEX
8
G1
10
-61.2
20
53.780487804878064
40
0.08
41
0.08
0
VERTEX
8
G1
10
-64.2
20
53.780487804878064
40
0.08
41
0.08
0
SEQEND
0
POLYLINE
8
G1
66
1
70
1
0
VERTEX
8
G1
10
61.2
20
53.780487804878064
40
0.08
41
0.08
0
VERTEX
8
G1
10
64.2
20
53.780487804878064
40
0.08
41
0.08
0
SEQEND
0
POLYLINE
8
G1
66
1
70
1
0
VERTEX
8
G1
10
-61.2
20
58.90243902439026
40
0.08
41
0.08
0
VERTEX
8
G1
10
-64.2
20
58.90243902439026
40
0.08
41
0.08
0
SEQEND
0
POLYLINE
8
G1
66
1
70
1
0
VERTEX
8
G1
10
61.2
20
58.90243902439026
40
0.08
41
0.08
0
VERTEX
8
G1
10
64.2
20
58.90243902439026
40
0.08
41
0.08
0
SEQEND
0
INSERT
2
cutlineendpoint
8
G1
10
-64.46966991411009
20
-64.46966991411009
0
INSERT
2
cutlineendpoint
8
G1
10
-65.53033008588991
20
-65.53033008588991
0
INSERT
2
cutlineendpoint
8
G1
10
-64.46966991411009
20
-65.53033008588991
0
INSERT
2
cutlineendpoint
8
G1
10
-65.53033008588991
20
-64.46966991411009
0
INSERT
2
cutlineendpoint
8
G1
10
-64.46966991411009
20
65.53033008588993
0
INSERT
2
cutlineendpoint
8
G1
10
-65.53033008588991
20
64.4696699141101
0
INSERT
2
cutlineendpoint
8
G1
10
-64.46966991411009
20
64.4696699141101
0
INSERT
2
cutlineendpoint
8
G1
10
-65.53033008588991
20
65.53033008588993
0
INSERT
2
cutlineendpoint
8
G1
10
65.53033008588993
20
65.53033008588993
0
INSERT
2
cutlineendpoint
8
G1
10
64.4696699141101
20
64.4696699141101
0
INSERT
2
cutlineendpoint
8
G1
10
65.53033008588993
20
64.4696699141101
0
INSERT
2
cutlineendpoint
8
G1
10
64.4696699141101
20
65.53033008588993
0
INSERT
2
cutlineendpoint
8
G1
10
65.74999999999999
20
-65.0
0
INSERT
2
cutlineendpoint
8
G1
10
64.24999999999999
20
-65.0
0
INSERT
2
cutlineendpoint
8
G1
10
64.99999999999999
20
-64.25
0
INSERT
2
cutlineendpoint
8
G1
10
64.99999999999999
20
-65.75
0
INSERT
2
cutlineendpoint
8
G1
10
-58.536585365853654
20
-61.2
0
INSERT
2
cutlineendpoint
8
G1
10
-58.536585365853654
20
61.2
0
INSERT
2
cutlineendpoint
8
G1
10
-58.536585365853654
20
-64.2
0
INSERT
2
cutlineendpoint
8
G1
10
-58.536585365853654
20
64.2
0
INSERT
2
cutlineendpoint
8
G1
10
-52.68292682926829
20
-61.2
0
INSERT
2
cutlineendpoint
8
G1
10
-52.68292682926829
20
61.2
0
INSERT
2
cutlineendpoint
8
G1
10
-52.68292682926829
20
-64.2
0
INSERT
2
cutlineendpoint
8
G1
10
-52.68292682926829
20
64.2
0
INSERT
2
cutlineendpoint
8
G1
10
-46.829268292682926
20
-61.2
0
INSERT
2
cutlineendpoint
8
G1
10
-46.829268292682926
20
61.2
0
INSERT
2
cutlineendpoint
8
G1
10
-46.829268292682926
20
-64.2
0
INSERT
2
cutlineendpoint
8
G1
10
-46.829268292682926
20
64.2
0
INSERT
2
cutlineendpoint
8
G1
10
-40.975609756097555
20
-61.2
0
INSERT
2
cutlineendpoint
8
G1
10
-40.975609756097555
20
61.2
0
INSERT
2
cutlineendpoint
8
G1
10
-40.975609756097555
20
-64.2
0
INSERT
2
cutlineendpoint
8
G1
10
-40.975609756097555
20
64.2
0
INSERT
2
cutlineendpoint
8
G1
10
-35.121951219512184
20
-61.2
0
INSERT
2
cutlineendpoint
8
G1
10
-35.121951219512184
20
61.2
0
INSERT
2
cutlineendpoint
8
G1
10
-35.121951219512184
20
-64.2
0
INSERT
2
cutlineendpoint
8
G1
10
-35.121951219512184
20
64.2
0
INSERT
2
cutlineendpoint
8
G1
10
-29.268292682926827
20
-61.2
0
INSERT
2
cutlineendpoint
8
G1
10
-29.268292682926827
20
61.2
0
INSERT
2
cutlineendpoint
8
G1
10
-29.268292682926827
20
-64.2
0
INSERT
2
cutlineendpoint
8
G1
10
-29.268292682926827
20
64.2
0
INSERT
2
cutlineendpoint
8
G1
10
-23.414634146341456
20
-61.2
0
INSERT
2
cutlineendpoint
8
G1
10
-23.414634146341456
20
61.2
0
INSERT
2
cutlineendpoint
8
G1
10
-23.414634146341456
20
-64.2
0
INSERT
2
cutlineendpoint
8
G1
10
-23.414634146341456
20
64.2
0
INSERT
2
cutlineendpoint
8
G1
10
-17.560975609756085
20
-61.2
0
INSERT
2
cutlineendpoint
8
G1
10
-17.560975609756085
20
61.2
0
INSERT
2
cutlineendpoint
8
G1
10
-17.560975609756085
20
-64.2
0
INSERT
2
cutlineendpoint
8
G1
10
-17.560975609756085
20
64.2
0
INSERT
2
cutlineendpoint
8
G1
10
-11.707317073170728
20
-61.2
0
INSERT
2
cutlineendpoint
8
G1
10
-11.707317073170728
20
61.2
0
INSERT
2
cutlineendpoint
8
G1
10
-11.707317073170728
20
-64.2
0
INSERT
2
cutlineendpoint
8
G1
10
-11.707317073170728
20
64.2
0
INSERT
2
cutlineendpoint
8
G1
10
-5.853658536585371
20
-61.2
0
INSERT
2
cutlineendpoint
8
G1
10
-5.853658536585371
20
61.2
0
INSERT
2
cutlineendpoint
8
G1
10
-5.853658536585371
20
-64.2
0
INSERT
2
cutlineendpoint
8
G1
10
-5.853658536585371
20
64.2
0
INSERT
2
cutlineendpoint
8
G1
10
0.0
20
-61.2
0
INSERT
2
cutlineendpoint
8
G1
10
0.0
20
61.2
0
INSERT
2
cutlineendpoint
8
G1
10
0.0
20
-64.2
0
INSERT
2
cutlineendpoint
8
G1
10
0.0
20
64.2
0
INSERT
2
cutlineendpoint
8
G1
10
5.853658536585371
20
-61.2
0
INSERT
2
cutlineendpoint
8
G1
10
5.853658536585371
20
61.2
0
INSERT
2
cutlineendpoint
8
G1
10
5.853658536585371
20
-64.2
0
INSERT
2
cutlineendpoint
8
G1
10
5.853658536585371
20
64.2
0
INSERT
2
cutlineendpoint
8
G1
10
11.707317073170742
20
-61.2
0
INSERT
2
cutlineendpoint
8
G1
10
11.707317073170742
20
61.2
0
INSERT
2
cutlineendpoint
8
G1
10
11.707317073170742
20
-64.2
0
INSERT
2
cutlineendpoint
8
G1
10
11.707317073170742
20
64.2
0
INSERT
2
cutlineendpoint
8
G1
10
17.560975609756085
20
-61.2
0
INSERT
2
cutlineendpoint
8
G1
10
17.560975609756085
20
61.2
0
INSERT
2
cutlineendpoint
8
G1
10
17.560975609756085
20
-64.2
0
INSERT
2
cutlineendpoint
8
G1
10
17.560975609756085
20
64.2
0
INSERT
2
cutlineendpoint
8
G1
10
23.41463414634147
20
-61.2
0
INSERT
2
cutlineendpoint
8
G1
10
23.41463414634147
20
61.2
0
INSERT
2
cutlineendpoint
8
G1
10
23.41463414634147
20
-64.2
0
INSERT
2
cutlineendpoint
8
G1
10
23.41463414634147
20
64.2
0
INSERT
2
cutlineendpoint
8
G1
10
29.268292682926827
20
-61.2
0
INSERT
2
cutlineendpoint
8
G1
10
29.268292682926827
20
61.2
0
INSERT
2
cutlineendpoint
8
G1
10
29.268292682926827
20
-64.2
0
INSERT
2
cutlineendpoint
8
G1
10
29.268292682926827
20
64.2
0
INSERT
2
cutlineendpoint
8
G1
10
35.121951219512184
20
-61.2
0
INSERT
2
cutlineendpoint
8
G1
10
35.121951219512184
20
61.2
0
INSERT
2
cutlineendpoint
8
G1
10
35.121951219512184
20
-64.2
0
INSERT
2
cutlineendpoint
8
G1
10
35.121951219512184
20
64.2
0
INSERT
2
cutlineendpoint
8
G1
10
40.97560975609757
20
-61.2
0
INSERT
2
cutlineendpoint
8
G1
10
40.97560975609757
20
61.2
0
INSERT
2
cutlineendpoint
8
G1
10
40.97560975609757
20
-64.2
0
INSERT
2
cutlineendpoint
8
G1
10
40.97560975609757
20
64.2
0
INSERT
2
cutlineendpoint
8
G1
10
46.829268292682926
20
-61.2
0
INSERT
2
cutlineendpoint
8
G1
10
46.829268292682926
20
61.2
0
INSERT
2
cutlineendpoint
8
G1
10
46.829268292682926
20
-64.2
0
INSERT
2
cutlineendpoint
8
G1
10
46.829268292682926
20
64.2
0
INSERT
2
cutlineendpoint
8
G1
10
52.68292682926828
20
-61.2
0
INSERT
2
cutlineendpoint
8
G1
10
52.68292682926828
20
61.2
0
INSERT
2
cutlineendpoint
8
G1
10
52.68292682926828
20
-64.2
0
INSERT
2
cutlineendpoint
8
G1
10
52.68292682926828
20
64.2
0
INSERT
2
cutlineendpoint
8
G1
10
58.53658536585367
20
-61.2
0
INSERT
2
cutlineendpoint
8
G1
10
58.53658536585367
20
61.2
0
INSERT
2
cutlineendpoint
8
G1
10
58.53658536585367
20
-64.2
0
INSERT
2
cutlineendpoint
8
G1
10
58.53658536585367
20
64.2
0
INSERT
2
cutlineendpoint
8
G1
10
-61.2
20
-58.90243902439025
0
INSERT
2
cutlineendpoint
8
G1
10
61.2
20
-58.90243902439025
0
INSERT
2
cutlineendpoint
8
G1
10
-64.2
20
-58.90243902439025
0
INSERT
2
cutlineendpoint
8
G1
10
64.2
20
-58.90243902439025
0
INSERT
2
cutlineendpoint
8
G1
10
-61.2
20
-53.78048780487805
0
INSERT
2
cutlineendpoint
8
G1
10
61.2
20
-53.78048780487805
0
INSERT
2
cutlineendpoint
8
G1
10
-64.2
20
-53.78048780487805
0
INSERT
2
cutlineendpoint
8
G1
10
64.2
20
-53.78048780487805
0
INSERT
2
cutlineendpoint
8
G1
10
-61.2
20
-48.65853658536586
0
INSERT
2
cutlineendpoint
8
G1
10
61.2
20
-48.65853658536586
0
INSERT
2
cutlineendpoint
8
G1
10
-64.2
20
-48.65853658536586
0
INSERT
2
cutlineendpoint
8
G1
10
64.2
20
-48.65853658536586
0
INSERT
2
cutlineendpoint
8
G1
10
-61.2
20
-43.53658536585367
0
INSERT
2
cutlineendpoint
8
G1
10
61.2
20
-43.53658536585367
0
INSERT
2
cutlineendpoint
8
G1
10
-64.2
20
-43.53658536585367
0
INSERT
2
cutlineendpoint
8
G1
10
64.2
20
-43.53658536585367
0
INSERT
2
cutlineendpoint
8
G1
10
-61.2
20
-38.41463414634147
0
INSERT
2
cutlineendpoint
8
G1
10
61.2
20
-38.41463414634147
0
INSERT
2
cutlineendpoint
8
G1
10
-64.2
20
-38.41463414634147
0
INSERT
2
cutlineendpoint
8
G1
10
64.2
20
-38.41463414634147
0
INSERT
2
cutlineendpoint
8
G1
10
-61.2
20
-33.29268292682927
0
INSERT
2
cutlineendpoint
8
G1
10
61.2
20
-33.29268292682927
0
INSERT
2
cutlineendpoint
8
G1
10
-64.2
20
-33.29268292682927
0
INSERT
2
cutlineendpoint
8
G1
10
64.2
20
-33.29268292682927
0
INSERT
2
cutlineendpoint
8
G1
10
-61.2
20
-28.170731707317074
0
INSERT
2
cutlineendpoint
8
G1
10
61.2
20
-28.170731707317074
0
INSERT
2
cutlineendpoint
8
G1
10
-64.2
20
-28.170731707317074
0
INSERT
2
cutlineendpoint
8
G1
10
64.2
20
-28.170731707317074
0
INSERT
2
cutlineendpoint
8
G1
10
-61.2
20
-23.048780487804876
0
INSERT
2
cutlineendpoint
8
G1
10
61.2
20
-23.048780487804876
0
INSERT
2
cutlineendpoint
8
G1
10
-64.2
20
-23.048780487804876
0
INSERT
2
cutlineendpoint
8
G1
10
64.2
20
-23.048780487804876
0
INSERT
2
cutlineendpoint
8
G1
10
-61.2
20
-17.92682926829268
0
INSERT
2
cutlineendpoint
8
G1
10
61.2
20
-17.92682926829268
0
INSERT
2
cutlineendpoint
8
G1
10
-64.2
20
-17.92682926829268
0
INSERT
2
cutlineendpoint
8
G1
10
64.2
20
-17.92682926829268
0
INSERT
2
cutlineendpoint
8
G1
10
-61.2
20
-12.80487804878048
0
INSERT
2
cutlineendpoint
8
G1
10
61.2
20
-12.80487804878048
0
INSERT
2
cutlineendpoint
8
G1
10
-64.2
20
-12.80487804878048
0
INSERT
2
cutlineendpoint
8
G1
10
64.2
20
-12.80487804878048
0
INSERT
2
cutlineendpoint
8
G1
10
-61.2
20
-7.682926829268297
0
INSERT
2
cutlineendpoint
8
G1
10
61.2
20
-7.682926829268297
0
INSERT
2
cutlineendpoint
8
G1
10
-64.2
20
-7.682926829268297
0
INSERT
2
cutlineendpoint
8
G1
10
64.2
20
-7.682926829268297
0
INSERT
2
cutlineendpoint
8
G1
10
-61.2
20
-2.560975609756099
0
INSERT
2
cutlineendpoint
8
G1
10
61.2
20
-2.560975609756099
0
INSERT
2
cutlineendpoint
8
G1
10
-64.2
20
-2.560975609756099
0
INSERT
2
cutlineendpoint
8
G1
10
64.2
20
-2.560975609756099
0
INSERT
2
cutlineendpoint
8
G1
10
-61.2
20
2.560975609756099
0
INSERT
2
cutlineendpoint
8
G1
10
61.2
20
2.560975609756099
0
INSERT
2
cutlineendpoint
8
G1
10
-64.2
20
2.560975609756099
0
INSERT
2
cutlineendpoint
8
G1
10
64.2
20
2.560975609756099
0
INSERT
2
cutlineendpoint
8
G1
10
-61.2
20
7.682926829268297
0
INSERT
2
cutlineendpoint
8
G1
10
61.2
20
7.682926829268297
0
INSERT
2
cutlineendpoint
8
G1
10
-64.2
20
7.682926829268297
0
INSERT
2
cutlineendpoint
8
G1
10
64.2
20
7.682926829268297
0
INSERT
2
cutlineendpoint
8
G1
10
-61.2
20
12.80487804878048
0
INSERT
2
cutlineendpoint
8
G1
10
61.2
20
12.80487804878048
0
INSERT
2
cutlineendpoint
8
G1
10
-64.2
20
12.80487804878048
0
INSERT
2
cutlineendpoint
8
G1
10
64.2
20
12.80487804878048
0
INSERT
2
cutlineendpoint
8
G1
10
-61.2
20
17.92682926829268
0
INSERT
2
cutlineendpoint
8
G1
10
61.2
20
17.92682926829268
0
INSERT
2
cutlineendpoint
8
G1
10
-64.2
20
17.92682926829268
0
INSERT
2
cutlineendpoint
8
G1
10
64.2
20
17.92682926829268
0
INSERT
2
cutlineendpoint
8
G1
10
-61.2
20
23.048780487804876
0
INSERT
2
cutlineendpoint
8
G1
10
61.2
20
23.048780487804876
0
INSERT
2
cutlineendpoint
8
G1
10
-64.2
20
23.048780487804876
0
INSERT
2
cutlineendpoint
8
G1
10
64.2
20
23.048780487804876
0
INSERT
2
cutlineendpoint
8
G1
10
-61.2
20
28.170731707317074
0
INSERT
2
cutlineendpoint
8
G1
10
61.2
20
28.170731707317074
0
INSERT
2
cutlineendpoint
8
G1
10
-64.2
20
28.170731707317074
0
INSERT
2
cutlineendpoint
8
G1
10
64.2
20
28.170731707317074
0
INSERT
2
cutlineendpoint
8
G1
10
-61.2
20
33.29268292682927
0
INSERT
2
cutlineendpoint
8
G1
10
61.2
20
33.29268292682927
0
INSERT
2
cutlineendpoint
8
G1
10
-64.2
20
33.29268292682927
0
INSERT
2
cutlineendpoint
8
G1
10
64.2
20
33.29268292682927
0
INSERT
2
cutlineendpoint
8
G1
10
-61.2
20
38.41463414634147
0
INSERT
2
cutlineendpoint
8
G1
10
61.2
20
38.41463414634147
0
INSERT
2
cutlineendpoint
8
G1
10
-64.2
20
38.41463414634147
0
INSERT
2
cutlineendpoint
8
G1
10
64.2
20
38.41463414634147
0
INSERT
2
cutlineendpoint
8
G1
10
-61.2
20
43.53658536585367
0
INSERT
2
cutlineendpoint
8
G1
10
61.2
20
43.53658536585367
0
INSERT
2
cutlineendpoint
8
G1
10
-64.2
20
43.53658536585367
0
INSERT
2
cutlineendpoint
8
G1
10
64.2
20
43.53658536585367
0
INSERT
2
cutlineendpoint
8
G1
10
-61.2
20
48.658536585365866
0
INSERT
2
cutlineendpoint
8
G1
10
61.2
20
48.658536585365866
0
INSERT
2
cutlineendpoint
8
G1
10
-64.2
20
48.658536585365866
0
INSERT
2
cutlineendpoint
8
G1
10
64.2
20
48.658536585365866
0
INSERT
2
cutlineendpoint
8
G1
10
-61.2
20
53.780487804878064
0
INSERT
2
cutlineendpoint
8
G1
10
61.2
20
53.780487804878064
0
INSERT
2
cutlineendpoint
8
G1
10
-64.2
20
53.780487804878064
0
INSERT
2
cutlineendpoint
8
G1
10
64.2
20
53.780487804878064
0
INSERT
2
cutlineendpoint
8
G1
10
-61.2
20
58.90243902439026
0
INSERT
2
cutlineendpoint
8
G1
10
61.2
20
58.90243902439026
0
INSERT
2
cutlineendpoint
8
G1
10
-64.2
20
58.90243902439026
0
INSERT
2
cutlineendpoint
8
G1
10
64.2
20
58.90243902439026
0
TEXT
8
G1
10
-10.5
20
69.7
40
1.5
1
XFB44-1600-011-G1
0
POLYLINE
8
G1
66
1
70
1
0
VERTEX
8
G1
10
-100.0
20
100.0
30
0
40
1
41
1
0
VERTEX
8
G1
10
100.0
20
100.0
30
0
40
1
41
1
0
VERTEX
8
G1
10
100.0
20
-100.0
30
0
40
1
41
1
0
VERTEX
8
G1
10
-100.0
20
-100.0
30
0
40
1
41
1
0
SEQEND
0
ENDSEC
0
EOF
