0
SECTION
2
HEADER
9
$ACADVER
1
AC1006
9
$INSBASE
10
0.0
20
0.0
30
0.0
9
$EXTMIN
10
-104.25365853658536
20
-104.25365853658536
9
$EXTMAX
10
104.25365853658536
20
116.93658536585366
0
ENDSEC
0
SECTION
2
TABLES
0
TABLE
2
LTYPE
70
1
0
LTYPE
2
CONTINUOUS
70
64
3
Solid line
72
65
73
0
40
0.0
0
ENDTAB
0
TABLE
2
LAYER
70
3
0
LAYER
2
0
70
0
62
255
6
continuous
0
LAYER
2
0
70
0
62
7
6
continuous
0
LAYER
2
L1
70
0
62
7
6
continuous
0
ENDTAB
0
TABLE
2
STYLE
70
2
0
STYLE
2
STANDARD
70
0
40
0
41
1
50
0
71
0
42
1
3
ARIAL.TTF
4

0
STYLE
2
STANDARD
70
0
40
0
41
1
50
0
71
0
42
1
3
ARIAL.TTF
4

0
ENDTAB
0
TABLE
2
VIEW
70
1
0
VIEW
2
Normal
70
0
40
1
10
0.5
20
0.5
41
1
11
0
21
0
31
1
12
0
22
0
32
0
42
50
43
0
44
0
50
0
71
0
0
ENDTAB
0
ENDSEC
0
SECTION
2
BLOCKS
0
BLOCK
8
0
2
cutlineendpoint
70
0
10
0
20
0
30
0
3
cutlineendpoint
0
POLYLINE
8
0
66
1
70
1
40
0.04
41
0.04
0
VERTEX
8
0
10
-0.02
20
0
30
0
42
1.0
0
VERTEX
8
0
10
0.02
20
0
30
0
42
1.0
0
SEQEND
0
ENDBLK
0
BLOCK
8
L1
2
LDI_XFB44-1600-011_L1_B1
70
0
10
0
20
0
30
0
3
LDI_XFB44-1600-011_L1_B1
0
POLYLINE
8
L1
66
1
70
1
0
VERTEX
8
L1
10
-57.10975609756096
20
-55.02439024390243
0
VERTEX
8
L1
10
-57.12668209618566
20
-55.056698000173284
0
VERTEX
8
L1
10
-57.1158055510475
20
-55.09151152212321
0
VERTEX
8
L1
10
-57.08349779477665
20
-55.10843752074792
0
VERTEX
8
L1
10
-57.048684272826726
20
-55.097560975609746
0
VERTEX
8
L1
10
-57.03175827420202
20
-55.06525321933889
0
VERTEX
8
L1
10
-57.042634819340186
20
-55.030439697388964
0
VERTEX
8
L1
10
-57.07494257561104
20
-55.01351369876427
0
VERTEX
8
L1
10
-57.10975609756096
20
-55.02439024390243
0
SEQEND
0
POLYLINE
8
L1
66
1
70
1
0
VERTEX
8
L1
10
-54.23180353205122
20
-57.65853658536585
0
VERTEX
8
L1
10
-54.1969900101013
20
-57.66941313050401
0
VERTEX
8
L1
10
-54.16468225383044
20
-57.65248713187932
0
VERTEX
8
L1
10
-54.15380570869228
20
-57.61767360992939
0
VERTEX
8
L1
10
-54.170731707316975
20
-57.58536585365854
0
VERTEX
8
L1
10
-54.2055452292669
20
-57.57448930852038
0
VERTEX
8
L1
10
-54.23785298553776
20
-57.59141530714507
0
VERTEX
8
L1
10
-54.248729530675924
20
-57.626228829095
0
VERTEX
8
L1
10
-54.23180353205122
20
-57.65853658536585
0
SEQEND
0
POLYLINE
8
L1
66
1
70
1
0
VERTEX
8
L1
10
-56.11112289310915
20
-55.02439024390243
0
VERTEX
8
L1
10
-56.128048891733854
20
-55.0566980001733
0
VERTEX
8
L1
10
-56.11717234659569
20
-55.09151152212321
0
VERTEX
8
L1
10
-56.084864590324834
20
-55.10843752074792
0
VERTEX
8
L1
10
-56.050051068374906
20
-55.097560975609746
0
VERTEX
8
L1
10
-56.03312506975021
20
-55.06525321933889
0
VERTEX
8
L1
10
-56.044001614888366
20
-55.030439697388964
0
VERTEX
8
L1
10
-56.07630937115923
20
-55.01351369876427
0
VERTEX
8
L1
10
-56.11112289310915
20
-55.02439024390243
0
SEQEND
0
POLYLINE
8
L1
66
1
70
1
0
VERTEX
8
L1
10
-57.37428576992985
20
-56.37677172565703
0
VERTEX
8
L1
10
-57.33897745890697
20
-56.3913969069472
0
VERTEX
8
L1
10
-57.30366914788409
20
-56.37677172565703
0
VERTEX
8
L1
10
-57.289043966593916
20
-56.341463414634156
0
VERTEX
8
L1
10
-57.30366914788408
20
-56.30615510361126
0
VERTEX
8
L1
10
-57.33897745890697
20
-56.291529922321104
0
VERTEX
8
L1
10
-57.37428576992985
20
-56.30615510361126
0
VERTEX
8
L1
10
-57.38891095122002
20
-56.341463414634156
0
VERTEX
8
L1
10
-57.37428576992985
20
-56.37677172565703
0
SEQEND
0
POLYLINE
8
L1
66
1
70
1
0
VERTEX
8
L1
10
-56.158536585365844
20
-56.341463414634156
0
VERTEX
8
L1
10
-56.14391140407569
20
-56.37677172565703
0
VERTEX
8
L1
10
-56.10860309305279
20
-56.3913969069472
0
VERTEX
8
L1
10
-56.07329478202992
20
-56.37677172565703
0
VERTEX
8
L1
10
-56.05866960073975
20
-56.341463414634156
0
VERTEX
8
L1
10
-56.07329478202992
20
-56.30615510361126
0
VERTEX
8
L1
10
-56.10860309305279
20
-56.291529922321104
0
VERTEX
8
L1
10
-56.14391140407569
20
-56.30615510361126
0
VERTEX
8
L1
10
-56.158536585365844
20
-56.341463414634156
0
SEQEND
0
POLYLINE
8
L1
66
1
70
1
0
VERTEX
8
L1
10
-53.84522642519209
20
-56.30615510361126
0
VERTEX
8
L1
10
-53.88053473621496
20
-56.291529922321104
0
VERTEX
8
L1
10
-53.91584304723786
20
-56.30615510361126
0
VERTEX
8
L1
10
-53.930468228528014
20
-56.341463414634156
0
VERTEX
8
L1
10
-53.91584304723784
20
-56.37677172565703
0
VERTEX
8
L1
10
-53.88053473621496
20
-56.3913969069472
0
VERTEX
8
L1
10
-53.84522642519209
20
-56.37677172565703
0
VERTEX
8
L1
10
-53.83060124390192
20
-56.341463414634156
0
VERTEX
8
L1
10
-53.84522642519209
20
-56.30615510361126
0
SEQEND
0
POLYLINE
8
L1
66
1
70
1
0
VERTEX
8
L1
10
-56.73551348048337
20
-57.57448930852038
0
VERTEX
8
L1
10
-56.7703270024333
20
-57.58536585365854
0
VERTEX
8
L1
10
-56.78725300105799
20
-57.61767360992939
0
VERTEX
8
L1
10
-56.77637645591984
20
-57.65248713187932
0
VERTEX
8
L1
10
-56.74406869964897
20
-57.669413130504026
0
VERTEX
8
L1
10
-56.70925517769905
20
-57.65853658536585
0
VERTEX
8
L1
10
-56.69232917907435
20
-57.626228829095
0
VERTEX
8
L1
10
-56.703205724212516
20
-57.59141530714507
0
VERTEX
8
L1
10
-56.73551348048337
20
-57.57448930852038
0
SEQEND
0
POLYLINE
8
L1
66
1
70
1
0
VERTEX
8
L1
10
-54.47676276060568
20
-56.28048780487804
0
VERTEX
8
L1
10
-54.59871398011789
20
-56.28048780487804
0
VERTEX
8
L1
10
-54.59871398011789
20
-56.40243902439024
0
VERTEX
8
L1
10
-54.47676276060568
20
-56.40243902439024
0
VERTEX
8
L1
10
-54.47676276060568
20
-56.28048780487804
0
SEQEND
0
POLYLINE
8
L1
66
1
70
1
0
VERTEX
8
L1
10
-54.5933545726934
20
-55.097560975609746
0
VERTEX
8
L1
10
-54.55854105074348
20
-55.108437520747906
0
VERTEX
8
L1
10
-54.526233294472625
20
-55.09151152212321
0
VERTEX
8
L1
10
-54.51535674933446
20
-55.056698000173284
0
VERTEX
8
L1
10
-54.532282747959165
20
-55.02439024390243
0
VERTEX
8
L1
10
-54.56709626990907
20
-55.01351369876427
0
VERTEX
8
L1
10
-54.59940402617994
20
-55.030439697388964
0
VERTEX
8
L1
10
-54.6102805713181
20
-55.06525321933889
0
VERTEX
8
L1
10
-54.5933545726934
20
-55.097560975609746
0
SEQEND
0
POLYLINE
8
L1
66
1
70
1
0
VERTEX
8
L1
10
-54.82432373621544
20
-56.28048780487804
0
VERTEX
8
L1
10
-54.94627495572765
20
-56.28048780487804
0
VERTEX
8
L1
10
-54.94627495572765
20
-56.40243902439024
0
VERTEX
8
L1
10
-54.82432373621544
20
-56.40243902439024
0
VERTEX
8
L1
10
-54.82432373621544
20
-56.28048780487804
0
SEQEND
0
POLYLINE
8
L1
66
1
70
1
0
VERTEX
8
L1
10
-55.39160089538582
20
-55.108437520747906
0
VERTEX
8
L1
10
-55.35929313911497
20
-55.09151152212321
0
VERTEX
8
L1
10
-55.34841659397679
20
-55.056698000173284
0
VERTEX
8
L1
10
-55.3653425926015
20
-55.02439024390243
0
VERTEX
8
L1
10
-55.40015611455143
20
-55.01351369876427
0
VERTEX
8
L1
10
-55.43246387082228
20
-55.030439697388964
0
VERTEX
8
L1
10
-55.44334041596044
20
-55.06525321933889
0
VERTEX
8
L1
10
-55.42641441733575
20
-55.097560975609746
0
VERTEX
8
L1
10
-55.39160089538582
20
-55.108437520747906
0
SEQEND
0
POLYLINE
8
L1
66
1
70
1
0
VERTEX
8
L1
10
-55.49274943451625
20
-56.795203665213094
0
VERTEX
8
L1
10
-55.39620272994839
20
-56.795203665213094
0
VERTEX
8
L1
10
-55.39620272994839
20
-57.40495976277407
0
VERTEX
8
L1
10
-55.42059297385083
20
-57.40495976277407
0
VERTEX
8
L1
10
-55.42059297385083
20
-57.52691098228627
0
VERTEX
8
L1
10
-55.29864175433863
20
-57.52691098228627
0
VERTEX
8
L1
10
-55.29864175433863
20
-56.69764268960334
0
VERTEX
8
L1
10
-55.37079821500405
20
-56.69764268960334
0
VERTEX
8
L1
10
-55.37079821500405
20
-56.28048780487804
0
VERTEX
8
L1
10
-55.492749434516256
20
-56.28048780487804
0
VERTEX
8
L1
10
-55.49274943451625
20
-56.795203665213094
0
SEQEND
0
POLYLINE
8
L1
66
1
70
1
0
VERTEX
8
L1
10
-54.70455182244891
20
-57.65853658536585
0
VERTEX
8
L1
10
-54.66973830049899
20
-57.66941313050401
0
VERTEX
8
L1
10
-54.63743054422814
20
-57.65248713187932
0
VERTEX
8
L1
10
-54.626553999089964
20
-57.61767360992939
0
VERTEX
8
L1
10
-54.64347999771467
20
-57.58536585365854
0
VERTEX
8
L1
10
-54.6782935196646
20
-57.57448930852038
0
VERTEX
8
L1
10
-54.71060127593545
20
-57.59141530714507
0
VERTEX
8
L1
10
-54.72147782107361
20
-57.626228829095
0
VERTEX
8
L1
10
-54.70455182244891
20
-57.65853658536585
0
SEQEND
0
POLYLINE
8
L1
66
1
70
1
0
VERTEX
8
L1
10
-56.74274943451626
20
-56.40243902439024
0
VERTEX
8
L1
10
-56.62079821500405
20
-56.40243902439024
0
VERTEX
8
L1
10
-56.62079821500405
20
-56.28048780487804
0
VERTEX
8
L1
10
-56.74274943451626
20
-56.28048780487804
0
VERTEX
8
L1
10
-56.74274943451626
20
-56.40243902439024
0
SEQEND
0
POLYLINE
8
L1
66
1
70
1
0
VERTEX
8
L1
10
-51.2560975609756
20
-55.02439024390243
0
VERTEX
8
L1
10
-51.2730235596003
20
-55.056698000173284
0
VERTEX
8
L1
10
-51.26214701446214
20
-55.09151152212321
0
VERTEX
8
L1
10
-51.229839258191284
20
-55.10843752074792
0
VERTEX
8
L1
10
-51.19502573624136
20
-55.097560975609746
0
VERTEX
8
L1
10
-51.178099737616655
20
-55.06525321933889
0
VERTEX
8
L1
10
-51.18897628275482
20
-55.030439697388964
0
VERTEX
8
L1
10
-51.221284039025676
20
-55.01351369876427
0
VERTEX
8
L1
10
-51.2560975609756
20
-55.02439024390243
0
SEQEND
0
POLYLINE
8
L1
66
1
70
1
0
VERTEX
8
L1
10
-48.37814499546585
20
-57.65853658536585
0
VERTEX
8
L1
10
-48.34333147351594
20
-57.66941313050401
0
VERTEX
8
L1
10
-48.31102371724508
20
-57.65248713187932
0
VERTEX
8
L1
10
-48.30014717210692
20
-57.61767360992939
0
VERTEX
8
L1
10
-48.31707317073161
20
-57.58536585365854
0
VERTEX
8
L1
10
-48.35188669268154
20
-57.57448930852038
0
VERTEX
8
L1
10
-48.38419444895239
20
-57.59141530714507
0
VERTEX
8
L1
10
-48.39507099409056
20
-57.626228829095
0
VERTEX
8
L1
10
-48.37814499546585
20
-57.65853658536585
0
SEQEND
0
POLYLINE
8
L1
66
1
70
1
0
VERTEX
8
L1
10
-50.25746435652378
20
-55.02439024390243
0
VERTEX
8
L1
10
-50.27439035514849
20
-55.0566980001733
0
VERTEX
8
L1
10
-50.26351381001032
20
-55.09151152212321
0
VERTEX
8
L1
10
-50.23120605373947
20
-55.10843752074792
0
VERTEX
8
L1
10
-50.19639253178954
20
-55.097560975609746
0
VERTEX
8
L1
10
-50.17946653316485
20
-55.06525321933889
0
VERTEX
8
L1
10
-50.190343078303
20
-55.030439697388964
0
VERTEX
8
L1
10
-50.22265083457387
20
-55.01351369876427
0
VERTEX
8
L1
10
-50.25746435652378
20
-55.02439024390243
0
SEQEND
0
POLYLINE
8
L1
66
1
70
1
0
VERTEX
8
L1
10
-51.520627233344484
20
-56.37677172565703
0
VERTEX
8
L1
10
-51.4853189223216
20
-56.3913969069472
0
VERTEX
8
L1
10
-51.45001061129872
20
-56.37677172565703
0
VERTEX
8
L1
10
-51.43538543000855
20
-56.341463414634156
0
VERTEX
8
L1
10
-51.450010611298715
20
-56.30615510361126
0
VERTEX
8
L1
10
-51.4853189223216
20
-56.291529922321104
0
VERTEX
8
L1
10
-51.520627233344484
20
-56.30615510361126
0
VERTEX
8
L1
10
-51.535252414634655
20
-56.341463414634156
0
VERTEX
8
L1
10
-51.520627233344484
20
-56.37677172565703
0
SEQEND
0
POLYLINE
8
L1
66
1
70
1
0
VERTEX
8
L1
10
-50.30487804878048
20
-56.341463414634156
0
VERTEX
8
L1
10
-50.290252867490324
20
-56.37677172565703
0
VERTEX
8
L1
10
-50.25494455646743
20
-56.3913969069472
0
VERTEX
8
L1
10
-50.219636245444555
20
-56.37677172565703
0
VERTEX
8
L1
10
-50.205011064154384
20
-56.341463414634156
0
VERTEX
8
L1
10
-50.219636245444555
20
-56.30615510361126
0
VERTEX
8
L1
10
-50.25494455646743
20
-56.291529922321104
0
VERTEX
8
L1
10
-50.290252867490324
20
-56.30615510361126
0
VERTEX
8
L1
10
-50.30487804878048
20
-56.341463414634156
0
SEQEND
0
POLYLINE
8
L1
66
1
70
1
0
VERTEX
8
L1
10
-47.991567888606724
20
-56.30615510361126
0
VERTEX
8
L1
10
-48.0268761996296
20
-56.291529922321104
0
VERTEX
8
L1
10
-48.06218451065249
20
-56.30615510361126
0
VERTEX
8
L1
10
-48.07680969194265
20
-56.341463414634156
0
VERTEX
8
L1
10
-48.06218451065248
20
-56.37677172565703
0
VERTEX
8
L1
10
-48.0268761996296
20
-56.3913969069472
0
VERTEX
8
L1
10
-47.991567888606724
20
-56.37677172565703
0
VERTEX
8
L1
10
-47.97694270731655
20
-56.341463414634156
0
VERTEX
8
L1
10
-47.991567888606724
20
-56.30615510361126
0
SEQEND
0
POLYLINE
8
L1
66
1
70
1
0
VERTEX
8
L1
10
-50.881854943898006
20
-57.57448930852038
0
VERTEX
8
L1
10
-50.916668465847934
20
-57.58536585365854
0
VERTEX
8
L1
10
-50.93359446447263
20
-57.61767360992939
0
VERTEX
8
L1
10
-50.922717919334474
20
-57.65248713187932
0
VERTEX
8
L1
10
-50.890410163063606
20
-57.669413130504026
0
VERTEX
8
L1
10
-50.855596641113685
20
-57.65853658536585
0
VERTEX
8
L1
10
-50.83867064248898
20
-57.626228829095
0
VERTEX
8
L1
10
-50.84954718762715
20
-57.59141530714507
0
VERTEX
8
L1
10
-50.881854943898006
20
-57.57448930852038
0
SEQEND
0
POLYLINE
8
L1
66
1
70
1
0
VERTEX
8
L1
10
-48.62310422402032
20
-56.28048780487804
0
VERTEX
8
L1
10
-48.74505544353253
20
-56.28048780487804
0
VERTEX
8
L1
10
-48.74505544353253
20
-56.40243902439024
0
VERTEX
8
L1
10
-48.62310422402032
20
-56.40243902439024
0
VERTEX
8
L1
10
-48.62310422402032
20
-56.28048780487804
0
SEQEND
0
POLYLINE
8
L1
66
1
70
1
0
VERTEX
8
L1
10
-48.739696036108036
20
-55.097560975609746
0
VERTEX
8
L1
10
-48.704882514158115
20
-55.108437520747906
0
VERTEX
8
L1
10
-48.67257475788726
20
-55.09151152212321
0
VERTEX
8
L1
10
-48.661698212749094
20
-55.056698000173284
0
VERTEX
8
L1
10
-48.6786242113738
20
-55.02439024390243
0
VERTEX
8
L1
10
-48.71343773332371
20
-55.01351369876427
0
VERTEX
8
L1
10
-48.745745489594576
20
-55.030439697388964
0
VERTEX
8
L1
10
-48.756622034732736
20
-55.06525321933889
0
VERTEX
8
L1
10
-48.739696036108036
20
-55.097560975609746
0
SEQEND
0
POLYLINE
8
L1
66
1
70
1
0
VERTEX
8
L1
10
-48.970665199630076
20
-56.28048780487804
0
VERTEX
8
L1
10
-49.09261641914229
20
-56.28048780487804
0
VERTEX
8
L1
10
-49.09261641914229
20
-56.40243902439024
0
VERTEX
8
L1
10
-48.970665199630076
20
-56.40243902439024
0
VERTEX
8
L1
10
-48.970665199630076
20
-56.28048780487804
0
SEQEND
0
POLYLINE
8
L1
66
1
70
1
0
VERTEX
8
L1
10
-49.53794235880046
20
-55.108437520747906
0
VERTEX
8
L1
10
-49.505634602529604
20
-55.09151152212321
0
VERTEX
8
L1
10
-49.49475805739143
20
-55.056698000173284
0
VERTEX
8
L1
10
-49.511684056016136
20
-55.02439024390243
0
VERTEX
8
L1
10
-49.546497577966065
20
-55.01351369876427
0
VERTEX
8
L1
10
-49.57880533423692
20
-55.030439697388964
0
VERTEX
8
L1
10
-49.58968187937508
20
-55.06525321933889
0
VERTEX
8
L1
10
-49.572755880750385
20
-55.097560975609746
0
VERTEX
8
L1
10
-49.53794235880046
20
-55.108437520747906
0
SEQEND
0
POLYLINE
8
L1
66
1
70
1
0
VERTEX
8
L1
10
-49.639090897930885
20
-56.795203665213094
0
VERTEX
8
L1
10
-49.54254419336303
20
-56.795203665213094
0
VERTEX
8
L1
10
-49.54254419336303
20
-57.40495976277407
0
VERTEX
8
L1
10
-49.566934437265466
20
-57.40495976277407
0
VERTEX
8
L1
10
-49.566934437265466
20
-57.52691098228627
0
VERTEX
8
L1
10
-49.44498321775327
20
-57.52691098228627
0
VERTEX
8
L1
10
-49.44498321775327
20
-56.69764268960334
0
VERTEX
8
L1
10
-49.51713967841869
20
-56.69764268960334
0
VERTEX
8
L1
10
-49.51713967841869
20
-56.28048780487804
0
VERTEX
8
L1
10
-49.63909089793089
20
-56.28048780487804
0
VERTEX
8
L1
10
-49.639090897930885
20
-56.795203665213094
0
SEQEND
0
POLYLINE
8
L1
66
1
70
1
0
VERTEX
8
L1
10
-48.85089328586355
20
-57.65853658536585
0
VERTEX
8
L1
10
-48.81607976391363
20
-57.66941313050401
0
VERTEX
8
L1
10
-48.783772007642774
20
-57.65248713187932
0
VERTEX
8
L1
10
-48.7728954625046
20
-57.61767360992939
0
VERTEX
8
L1
10
-48.78982146112931
20
-57.58536585365854
0
VERTEX
8
L1
10
-48.824634983079235
20
-57.57448930852038
0
VERTEX
8
L1
10
-48.85694273935009
20
-57.59141530714507
0
VERTEX
8
L1
10
-48.86781928448825
20
-57.626228829095
0
VERTEX
8
L1
10
-48.85089328586355
20
-57.65853658536585
0
SEQEND
0
POLYLINE
8
L1
66
1
70
1
0
VERTEX
8
L1
10
-50.8890908979309
20
-56.40243902439024
0
VERTEX
8
L1
10
-50.76713967841869
20
-56.40243902439024
0
VERTEX
8
L1
10
-50.76713967841869
20
-56.28048780487804
0
VERTEX
8
L1
10
-50.8890908979309
20
-56.28048780487804
0
VERTEX
8
L1
10
-50.8890908979309
20
-56.40243902439024
0
SEQEND
0
POLYLINE
8
L1
66
1
70
1
0
VERTEX
8
L1
10
-45.40243902439023
20
-55.02439024390243
0
VERTEX
8
L1
10
-45.41936502301493
20
-55.056698000173284
0
VERTEX
8
L1
10
-45.40848847787677
20
-55.09151152212321
0
VERTEX
8
L1
10
-45.37618072160592
20
-55.10843752074792
0
VERTEX
8
L1
10
-45.34136719965599
20
-55.097560975609746
0
VERTEX
8
L1
10
-45.32444120103128
20
-55.06525321933889
0
VERTEX
8
L1
10
-45.33531774616945
20
-55.030439697388964
0
VERTEX
8
L1
10
-45.367625502440305
20
-55.01351369876427
0
VERTEX
8
L1
10
-45.40243902439023
20
-55.02439024390243
0
SEQEND
0
POLYLINE
8
L1
66
1
70
1
0
VERTEX
8
L1
10
-42.52448645888049
20
-57.65853658536585
0
VERTEX
8
L1
10
-42.489672936930575
20
-57.66941313050401
0
VERTEX
8
L1
10
-42.45736518065971
20
-57.65248713187932
0
VERTEX
8
L1
10
-42.44648863552155
20
-57.61767360992939
0
VERTEX
8
L1
10
-42.46341463414625
20
-57.58536585365854
0
VERTEX
8
L1
10
-42.498228156096175
20
-57.57448930852038
0
VERTEX
8
L1
10
-42.53053591236703
20
-57.59141530714507
0
VERTEX
8
L1
10
-42.54141245750519
20
-57.626228829095
0
VERTEX
8
L1
10
-42.52448645888049
20
-57.65853658536585
0
SEQEND
0
POLYLINE
8
L1
66
1
70
1
0
VERTEX
8
L1
10
-44.40380581993841
20
-55.02439024390243
0
VERTEX
8
L1
10
-44.42073181856313
20
-55.0566980001733
0
VERTEX
8
L1
10
-44.40985527342495
20
-55.09151152212321
0
VERTEX
8
L1
10
-44.3775475171541
20
-55.10843752074792
0
VERTEX
8
L1
10
-44.34273399520417
20
-55.097560975609746
0
VERTEX
8
L1
10
-44.32580799657947
20
-55.06525321933889
0
VERTEX
8
L1
10
-44.33668454171763
20
-55.030439697388964
0
VERTEX
8
L1
10
-44.3689922979885
20
-55.01351369876427
0
VERTEX
8
L1
10
-44.40380581993841
20
-55.02439024390243
0
SEQEND
0
POLYLINE
8
L1
66
1
70
1
0
VERTEX
8
L1
10
-45.66696869675911
20
-56.37677172565703
0
VERTEX
8
L1
10
-45.63166038573624
20
-56.3913969069472
0
VERTEX
8
L1
10
-45.59635207471335
20
-56.37677172565703
0
VERTEX
8
L1
10
-45.58172689342318
20
-56.341463414634156
0
VERTEX
8
L1
10
-45.59635207471334
20
-56.30615510361126
0
VERTEX
8
L1
10
-45.63166038573624
20
-56.291529922321104
0
VERTEX
8
L1
10
-45.66696869675911
20
-56.30615510361126
0
VERTEX
8
L1
10
-45.681593878049284
20
-56.341463414634156
0
VERTEX
8
L1
10
-45.66696869675911
20
-56.37677172565703
0
SEQEND
0
POLYLINE
8
L1
66
1
70
1
0
VERTEX
8
L1
10
-44.45121951219511
20
-56.341463414634156
0
VERTEX
8
L1
10
-44.43659433090495
20
-56.37677172565703
0
VERTEX
8
L1
10
-44.401286019882065
20
-56.3913969069472
0
VERTEX
8
L1
10
-44.36597770885918
20
-56.37677172565703
0
VERTEX
8
L1
10
-44.351352527569006
20
-56.341463414634156
0
VERTEX
8
L1
10
-44.36597770885918
20
-56.30615510361126
0
VERTEX
8
L1
10
-44.401286019882065
20
-56.291529922321104
0
VERTEX
8
L1
10
-44.43659433090495
20
-56.30615510361126
0
VERTEX
8
L1
10
-44.45121951219511
20
-56.341463414634156
0
SEQEND
0
POLYLINE
8
L1
66
1
70
1
0
VERTEX
8
L1
10
-42.13790935202135
20
-56.30615510361126
0
VERTEX
8
L1
10
-42.17321766304423
20
-56.291529922321104
0
VERTEX
8
L1
10
-42.208525974067115
20
-56.30615510361126
0
VERTEX
8
L1
10
-42.223151155357286
20
-56.341463414634156
0
VERTEX
8
L1
10
-42.2085259740671
20
-56.37677172565703
0
VERTEX
8
L1
10
-42.17321766304423
20
-56.3913969069472
0
VERTEX
8
L1
10
-42.13790935202135
20
-56.37677172565703
0
VERTEX
8
L1
10
-42.12328417073118
20
-56.341463414634156
0
VERTEX
8
L1
10
-42.13790935202135
20
-56.30615510361126
0
SEQEND
0
POLYLINE
8
L1
66
1
70
1
0
VERTEX
8
L1
10
-45.028196407312635
20
-57.57448930852038
0
VERTEX
8
L1
10
-45.06300992926256
20
-57.58536585365854
0
VERTEX
8
L1
10
-45.07993592788725
20
-57.61767360992939
0
VERTEX
8
L1
10
-45.0690593827491
20
-57.65248713187932
0
VERTEX
8
L1
10
-45.036751626478235
20
-57.669413130504026
0
VERTEX
8
L1
10
-45.00193810452832
20
-57.65853658536585
0
VERTEX
8
L1
10
-44.98501210590361
20
-57.626228829095
0
VERTEX
8
L1
10
-44.99588865104178
20
-57.59141530714507
0
VERTEX
8
L1
10
-45.028196407312635
20
-57.57448930852038
0
SEQEND
0
POLYLINE
8
L1
66
1
70
1
0
VERTEX
8
L1
10
-42.76944568743495
20
-56.28048780487804
0
VERTEX
8
L1
10
-42.891396906947165
20
-56.28048780487804
0
VERTEX
8
L1
10
-42.891396906947165
20
-56.40243902439024
0
VERTEX
8
L1
10
-42.76944568743495
20
-56.40243902439024
0
VERTEX
8
L1
10
-42.76944568743495
20
-56.28048780487804
0
SEQEND
0
POLYLINE
8
L1
66
1
70
1
0
VERTEX
8
L1
10
-42.88603749952267
20
-55.097560975609746
0
VERTEX
8
L1
10
-42.851223977572744
20
-55.108437520747906
0
VERTEX
8
L1
10
-42.81891622130189
20
-55.09151152212321
0
VERTEX
8
L1
10
-42.808039676163716
20
-55.056698000173284
0
VERTEX
8
L1
10
-42.82496567478843
20
-55.02439024390243
0
VERTEX
8
L1
10
-42.859779196738344
20
-55.01351369876427
0
VERTEX
8
L1
10
-42.89208695300921
20
-55.030439697388964
0
VERTEX
8
L1
10
-42.90296349814737
20
-55.06525321933889
0
VERTEX
8
L1
10
-42.88603749952267
20
-55.097560975609746
0
SEQEND
0
POLYLINE
8
L1
66
1
70
1
0
VERTEX
8
L1
10
-43.117006663044705
20
-56.28048780487804
0
VERTEX
8
L1
10
-43.23895788255692
20
-56.28048780487804
0
VERTEX
8
L1
10
-43.23895788255692
20
-56.40243902439024
0
VERTEX
8
L1
10
-43.117006663044705
20
-56.40243902439024
0
VERTEX
8
L1
10
-43.117006663044705
20
-56.28048780487804
0
SEQEND
0
POLYLINE
8
L1
66
1
70
1
0
VERTEX
8
L1
10
-43.68428382221508
20
-55.108437520747906
0
VERTEX
8
L1
10
-43.651976065944226
20
-55.09151152212321
0
VERTEX
8
L1
10
-43.641099520806065
20
-55.056698000173284
0
VERTEX
8
L1
10
-43.658025519430765
20
-55.02439024390243
0
VERTEX
8
L1
10
-43.692839041380694
20
-55.01351369876427
0
VERTEX
8
L1
10
-43.72514679765155
20
-55.030439697388964
0
VERTEX
8
L1
10
-43.73602334278971
20
-55.06525321933889
0
VERTEX
8
L1
10
-43.71909734416501
20
-55.097560975609746
0
VERTEX
8
L1
10
-43.68428382221508
20
-55.108437520747906
0
SEQEND
0
POLYLINE
8
L1
66
1
70
1
0
VERTEX
8
L1
10
-43.785432361345514
20
-56.795203665213094
0
VERTEX
8
L1
10
-43.68888565677766
20
-56.795203665213094
0
VERTEX
8
L1
10
-43.68888565677766
20
-57.40495976277407
0
VERTEX
8
L1
10
-43.7132759006801
20
-57.40495976277407
0
VERTEX
8
L1
10
-43.7132759006801
20
-57.52691098228627
0
VERTEX
8
L1
10
-43.591324681167904
20
-57.52691098228627
0
VERTEX
8
L1
10
-43.591324681167904
20
-56.69764268960334
0
VERTEX
8
L1
10
-43.663481141833316
20
-56.69764268960334
0
VERTEX
8
L1
10
-43.663481141833316
20
-56.28048780487804
0
VERTEX
8
L1
10
-43.78543236134553
20
-56.28048780487804
0
VERTEX
8
L1
10
-43.785432361345514
20
-56.795203665213094
0
SEQEND
0
POLYLINE
8
L1
66
1
70
1
0
VERTEX
8
L1
10
-42.99723474927818
20
-57.65853658536585
0
VERTEX
8
L1
10
-42.962421227328264
20
-57.66941313050401
0
VERTEX
8
L1
10
-42.930113471057396
20
-57.65248713187932
0
VERTEX
8
L1
10
-42.919236925919236
20
-57.61767360992939
0
VERTEX
8
L1
10
-42.936162924543936
20
-57.58536585365854
0
VERTEX
8
L1
10
-42.970976446493864
20
-57.57448930852038
0
VERTEX
8
L1
10
-43.00328420276472
20
-57.59141530714507
0
VERTEX
8
L1
10
-43.01416074790288
20
-57.626228829095
0
VERTEX
8
L1
10
-42.99723474927818
20
-57.65853658536585
0
SEQEND
0
POLYLINE
8
L1
66
1
70
1
0
VERTEX
8
L1
10
-45.03543236134553
20
-56.40243902439024
0
VERTEX
8
L1
10
-44.913481141833316
20
-56.40243902439024
0
VERTEX
8
L1
10
-44.913481141833316
20
-56.28048780487804
0
VERTEX
8
L1
10
-45.03543236134553
20
-56.28048780487804
0
VERTEX
8
L1
10
-45.03543236134553
20
-56.40243902439024
0
SEQEND
0
POLYLINE
8
L1
66
1
70
1
0
VERTEX
8
L1
10
-39.548780487804876
20
-55.02439024390243
0
VERTEX
8
L1
10
-39.565706486429576
20
-55.056698000173284
0
VERTEX
8
L1
10
-39.554829941291416
20
-55.09151152212321
0
VERTEX
8
L1
10
-39.52252218502056
20
-55.10843752074792
0
VERTEX
8
L1
10
-39.487708663070634
20
-55.097560975609746
0
VERTEX
8
L1
10
-39.47078266444592
20
-55.06525321933889
0
VERTEX
8
L1
10
-39.481659209584095
20
-55.030439697388964
0
VERTEX
8
L1
10
-39.51396696585495
20
-55.01351369876427
0
VERTEX
8
L1
10
-39.548780487804876
20
-55.02439024390243
0
SEQEND
0
POLYLINE
8
L1
66
1
70
1
0
VERTEX
8
L1
10
-36.67082792229513
20
-57.65853658536585
0
VERTEX
8
L1
10
-36.63601440034522
20
-57.66941313050401
0
VERTEX
8
L1
10
-36.60370664407435
20
-57.65248713187932
0
VERTEX
8
L1
10
-36.59283009893619
20
-57.61767360992939
0
VERTEX
8
L1
10
-36.60975609756089
20
-57.58536585365854
0
VERTEX
8
L1
10
-36.64456961951082
20
-57.57448930852038
0
VERTEX
8
L1
10
-36.67687737578167
20
-57.59141530714507
0
VERTEX
8
L1
10
-36.68775392091983
20
-57.626228829095
0
VERTEX
8
L1
10
-36.67082792229513
20
-57.65853658536585
0
SEQEND
0
POLYLINE
8
L1
66
1
70
1
0
VERTEX
8
L1
10
-38.550147283353056
20
-55.02439024390243
0
VERTEX
8
L1
10
-38.56707328197777
20
-55.0566980001733
0
VERTEX
8
L1
10
-38.556196736839595
20
-55.09151152212321
0
VERTEX
8
L1
10
-38.52388898056874
20
-55.10843752074792
0
VERTEX
8
L1
10
-38.489075458618814
20
-55.097560975609746
0
VERTEX
8
L1
10
-38.472149459994114
20
-55.06525321933889
0
VERTEX
8
L1
10
-38.483026005132274
20
-55.030439697388964
0
VERTEX
8
L1
10
-38.51533376140314
20
-55.01351369876427
0
VERTEX
8
L1
10
-38.550147283353056
20
-55.02439024390243
0
SEQEND
0
POLYLINE
8
L1
66
1
70
1
0
VERTEX
8
L1
10
-39.81331016017376
20
-56.37677172565703
0
VERTEX
8
L1
10
-39.77800184915088
20
-56.3913969069472
0
VERTEX
8
L1
10
-39.742693538127995
20
-56.37677172565703
0
VERTEX
8
L1
10
-39.728068356837824
20
-56.341463414634156
0
VERTEX
8
L1
10
-39.74269353812798
20
-56.30615510361126
0
VERTEX
8
L1
10
-39.77800184915088
20
-56.291529922321104
0
VERTEX
8
L1
10
-39.81331016017376
20
-56.30615510361126
0
VERTEX
8
L1
10
-39.82793534146393
20
-56.341463414634156
0
VERTEX
8
L1
10
-39.81331016017376
20
-56.37677172565703
0
SEQEND
0
POLYLINE
8
L1
66
1
70
1
0
VERTEX
8
L1
10
-38.59756097560975
20
-56.341463414634156
0
VERTEX
8
L1
10
-38.582935794319596
20
-56.37677172565703
0
VERTEX
8
L1
10
-38.54762748329671
20
-56.3913969069472
0
VERTEX
8
L1
10
-38.51231917227382
20
-56.37677172565703
0
VERTEX
8
L1
10
-38.49769399098365
20
-56.341463414634156
0
VERTEX
8
L1
10
-38.51231917227382
20
-56.30615510361126
0
VERTEX
8
L1
10
-38.54762748329671
20
-56.291529922321104
0
VERTEX
8
L1
10
-38.582935794319596
20
-56.30615510361126
0
VERTEX
8
L1
10
-38.59756097560975
20
-56.341463414634156
0
SEQEND
0
POLYLINE
8
L1
66
1
70
1
0
VERTEX
8
L1
10
-36.284250815435996
20
-56.30615510361126
0
VERTEX
8
L1
10
-36.31955912645887
20
-56.291529922321104
0
VERTEX
8
L1
10
-36.35486743748176
20
-56.30615510361126
0
VERTEX
8
L1
10
-36.36949261877193
20
-56.341463414634156
0
VERTEX
8
L1
10
-36.354867437481744
20
-56.37677172565703
0
VERTEX
8
L1
10
-36.31955912645887
20
-56.3913969069472
0
VERTEX
8
L1
10
-36.284250815435996
20
-56.37677172565703
0
VERTEX
8
L1
10
-36.269625634145825
20
-56.341463414634156
0
VERTEX
8
L1
10
-36.284250815435996
20
-56.30615510361126
0
SEQEND
0
POLYLINE
8
L1
66
1
70
1
0
VERTEX
8
L1
10
-39.17453787072728
20
-57.57448930852038
0
VERTEX
8
L1
10
-39.209351392677206
20
-57.58536585365854
0
VERTEX
8
L1
10
-39.22627739130189
20
-57.61767360992939
0
VERTEX
8
L1
10
-39.215400846163746
20
-57.65248713187932
0
VERTEX
8
L1
10
-39.18309308989288
20
-57.669413130504026
0
VERTEX
8
L1
10
-39.148279567942964
20
-57.65853658536585
0
VERTEX
8
L1
10
-39.13135356931825
20
-57.626228829095
0
VERTEX
8
L1
10
-39.142230114456424
20
-57.59141530714507
0
VERTEX
8
L1
10
-39.17453787072728
20
-57.57448930852038
0
SEQEND
0
POLYLINE
8
L1
66
1
70
1
0
VERTEX
8
L1
10
-36.915787150849596
20
-56.28048780487804
0
VERTEX
8
L1
10
-37.03773837036181
20
-56.28048780487804
0
VERTEX
8
L1
10
-37.03773837036181
20
-56.40243902439024
0
VERTEX
8
L1
10
-36.915787150849596
20
-56.40243902439024
0
VERTEX
8
L1
10
-36.915787150849596
20
-56.28048780487804
0
SEQEND
0
POLYLINE
8
L1
66
1
70
1
0
VERTEX
8
L1
10
-37.032378962937315
20
-55.097560975609746
0
VERTEX
8
L1
10
-36.99756544098739
20
-55.108437520747906
0
VERTEX
8
L1
10
-36.96525768471653
20
-55.09151152212321
0
VERTEX
8
L1
10
-36.95438113957836
20
-55.056698000173284
0
VERTEX
8
L1
10
-36.97130713820307
20
-55.02439024390243
0
VERTEX
8
L1
10
-37.00612066015299
20
-55.01351369876427
0
VERTEX
8
L1
10
-37.038428416423855
20
-55.030439697388964
0
VERTEX
8
L1
10
-37.049304961562015
20
-55.06525321933889
0
VERTEX
8
L1
10
-37.032378962937315
20
-55.097560975609746
0
SEQEND
0
POLYLINE
8
L1
66
1
70
1
0
VERTEX
8
L1
10
-37.26334812645935
20
-56.28048780487804
0
VERTEX
8
L1
10
-37.38529934597156
20
-56.28048780487804
0
VERTEX
8
L1
10
-37.38529934597156
20
-56.40243902439024
0
VERTEX
8
L1
10
-37.26334812645935
20
-56.40243902439024
0
VERTEX
8
L1
10
-37.26334812645935
20
-56.28048780487804
0
SEQEND
0
POLYLINE
8
L1
66
1
70
1
0
VERTEX
8
L1
10
-37.83062528562972
20
-55.108437520747906
0
VERTEX
8
L1
10
-37.79831752935887
20
-55.09151152212321
0
VERTEX
8
L1
10
-37.78744098422071
20
-55.056698000173284
0
VERTEX
8
L1
10
-37.80436698284541
20
-55.02439024390243
0
VERTEX
8
L1
10
-37.83918050479534
20
-55.01351369876427
0
VERTEX
8
L1
10
-37.87148826106619
20
-55.030439697388964
0
VERTEX
8
L1
10
-37.88236480620435
20
-55.06525321933889
0
VERTEX
8
L1
10
-37.86543880757965
20
-55.097560975609746
0
VERTEX
8
L1
10
-37.83062528562972
20
-55.108437520747906
0
SEQEND
0
POLYLINE
8
L1
66
1
70
1
0
VERTEX
8
L1
10
-37.93177382476016
20
-56.795203665213094
0
VERTEX
8
L1
10
-37.8352271201923
20
-56.795203665213094
0
VERTEX
8
L1
10
-37.8352271201923
20
-57.40495976277407
0
VERTEX
8
L1
10
-37.859617364094746
20
-57.40495976277407
0
VERTEX
8
L1
10
-37.859617364094746
20
-57.52691098228627
0
VERTEX
8
L1
10
-37.73766614458255
20
-57.52691098228627
0
VERTEX
8
L1
10
-37.73766614458255
20
-56.69764268960334
0
VERTEX
8
L1
10
-37.80982260524796
20
-56.69764268960334
0
VERTEX
8
L1
10
-37.80982260524796
20
-56.28048780487804
0
VERTEX
8
L1
10
-37.93177382476017
20
-56.28048780487804
0
VERTEX
8
L1
10
-37.93177382476016
20
-56.795203665213094
0
SEQEND
0
POLYLINE
8
L1
66
1
70
1
0
VERTEX
8
L1
10
-37.14357621269282
20
-57.65853658536585
0
VERTEX
8
L1
10
-37.10876269074291
20
-57.66941313050401
0
VERTEX
8
L1
10
-37.07645493447204
20
-57.65248713187932
0
VERTEX
8
L1
10
-37.06557838933388
20
-57.61767360992939
0
VERTEX
8
L1
10
-37.08250438795858
20
-57.58536585365854
0
VERTEX
8
L1
10
-37.11731790990851
20
-57.57448930852038
0
VERTEX
8
L1
10
-37.14962566617936
20
-57.59141530714507
0
VERTEX
8
L1
10
-37.16050221131752
20
-57.626228829095
0
VERTEX
8
L1
10
-37.14357621269282
20
-57.65853658536585
0
SEQEND
0
POLYLINE
8
L1
66
1
70
1
0
VERTEX
8
L1
10
-39.18177382476017
20
-56.40243902439024
0
VERTEX
8
L1
10
-39.05982260524796
20
-56.40243902439024
0
VERTEX
8
L1
10
-39.05982260524796
20
-56.28048780487804
0
VERTEX
8
L1
10
-39.18177382476017
20
-56.28048780487804
0
VERTEX
8
L1
10
-39.18177382476017
20
-56.40243902439024
0
SEQEND
0
POLYLINE
8
L1
66
1
70
1
0
VERTEX
8
L1
10
-33.695121951219505
20
-55.02439024390243
0
VERTEX
8
L1
10
-33.712047949844205
20
-55.056698000173284
0
VERTEX
8
L1
10
-33.701171404706045
20
-55.09151152212321
0
VERTEX
8
L1
10
-33.66886364843519
20
-55.10843752074792
0
VERTEX
8
L1
10
-33.63405012648526
20
-55.097560975609746
0
VERTEX
8
L1
10
-33.61712412786055
20
-55.06525321933889
0
VERTEX
8
L1
10
-33.62800067299872
20
-55.030439697388964
0
VERTEX
8
L1
10
-33.66030842926958
20
-55.01351369876427
0
VERTEX
8
L1
10
-33.695121951219505
20
-55.02439024390243
0
SEQEND
0
POLYLINE
8
L1
66
1
70
1
0
VERTEX
8
L1
10
-30.81716938570976
20
-57.65853658536585
0
VERTEX
8
L1
10
-30.782355863759847
20
-57.66941313050401
0
VERTEX
8
L1
10
-30.75004810748898
20
-57.65248713187932
0
VERTEX
8
L1
10
-30.73917156235082
20
-57.61767360992939
0
VERTEX
8
L1
10
-30.75609756097552
20
-57.58536585365854
0
VERTEX
8
L1
10
-30.790911082925433
20
-57.57448930852038
0
VERTEX
8
L1
10
-30.8232188391963
20
-57.59141530714507
0
VERTEX
8
L1
10
-30.83409538433446
20
-57.626228829095
0
VERTEX
8
L1
10
-30.81716938570976
20
-57.65853658536585
0
SEQEND
0
POLYLINE
8
L1
66
1
70
1
0
VERTEX
8
L1
10
-32.696488746767685
20
-55.02439024390243
0
VERTEX
8
L1
10
-32.7134147453924
20
-55.0566980001733
0
VERTEX
8
L1
10
-32.702538200254224
20
-55.09151152212321
0
VERTEX
8
L1
10
-32.67023044398337
20
-55.10843752074792
0
VERTEX
8
L1
10
-32.63541692203344
20
-55.097560975609746
0
VERTEX
8
L1
10
-32.61849092340874
20
-55.06525321933889
0
VERTEX
8
L1
10
-32.6293674685469
20
-55.030439697388964
0
VERTEX
8
L1
10
-32.66167522481777
20
-55.01351369876427
0
VERTEX
8
L1
10
-32.696488746767685
20
-55.02439024390243
0
SEQEND
0
POLYLINE
8
L1
66
1
70
1
0
VERTEX
8
L1
10
-33.959651623588385
20
-56.37677172565703
0
VERTEX
8
L1
10
-33.92434331256551
20
-56.3913969069472
0
VERTEX
8
L1
10
-33.889035001542624
20
-56.37677172565703
0
VERTEX
8
L1
10
-33.87440982025245
20
-56.341463414634156
0
VERTEX
8
L1
10
-33.88903500154261
20
-56.30615510361126
0
VERTEX
8
L1
10
-33.92434331256551
20
-56.291529922321104
0
VERTEX
8
L1
10
-33.959651623588385
20
-56.30615510361126
0
VERTEX
8
L1
10
-33.974276804878556
20
-56.341463414634156
0
VERTEX
8
L1
10
-33.959651623588385
20
-56.37677172565703
0
SEQEND
0
POLYLINE
8
L1
66
1
70
1
0
VERTEX
8
L1
10
-32.74390243902438
20
-56.341463414634156
0
VERTEX
8
L1
10
-32.729277257734225
20
-56.37677172565703
0
VERTEX
8
L1
10
-32.69396894671134
20
-56.3913969069472
0
VERTEX
8
L1
10
-32.65866063568845
20
-56.37677172565703
0
VERTEX
8
L1
10
-32.64403545439828
20
-56.341463414634156
0
VERTEX
8
L1
10
-32.65866063568845
20
-56.30615510361126
0
VERTEX
8
L1
10
-32.69396894671134
20
-56.291529922321104
0
VERTEX
8
L1
10
-32.729277257734225
20
-56.30615510361126
0
VERTEX
8
L1
10
-32.74390243902438
20
-56.341463414634156
0
SEQEND
0
POLYLINE
8
L1
66
1
70
1
0
VERTEX
8
L1
10
-30.430592278850625
20
-56.30615510361126
0
VERTEX
8
L1
10
-30.4659005898735
20
-56.291529922321104
0
VERTEX
8
L1
10
-30.501208900896387
20
-56.30615510361126
0
VERTEX
8
L1
10
-30.515834082186558
20
-56.341463414634156
0
VERTEX
8
L1
10
-30.501208900896373
20
-56.37677172565703
0
VERTEX
8
L1
10
-30.4659005898735
20
-56.3913969069472
0
VERTEX
8
L1
10
-30.430592278850625
20
-56.37677172565703
0
VERTEX
8
L1
10
-30.415967097560454
20
-56.341463414634156
0
VERTEX
8
L1
10
-30.430592278850625
20
-56.30615510361126
0
SEQEND
0
POLYLINE
8
L1
66
1
70
1
0
VERTEX
8
L1
10
-33.32087933414191
20
-57.57448930852038
0
VERTEX
8
L1
10
-33.355692856091835
20
-57.58536585365854
0
VERTEX
8
L1
10
-33.37261885471652
20
-57.61767360992939
0
VERTEX
8
L1
10
-33.361742309578375
20
-57.65248713187932
0
VERTEX
8
L1
10
-33.32943455330751
20
-57.669413130504026
0
VERTEX
8
L1
10
-33.29462103135759
20
-57.65853658536585
0
VERTEX
8
L1
10
-33.27769503273288
20
-57.626228829095
0
VERTEX
8
L1
10
-33.28857157787105
20
-57.59141530714507
0
VERTEX
8
L1
10
-33.32087933414191
20
-57.57448930852038
0
SEQEND
0
POLYLINE
8
L1
66
1
70
1
0
VERTEX
8
L1
10
-31.062128614264225
20
-56.28048780487804
0
VERTEX
8
L1
10
-31.184079833776437
20
-56.28048780487804
0
VERTEX
8
L1
10
-31.184079833776437
20
-56.40243902439024
0
VERTEX
8
L1
10
-31.062128614264225
20
-56.40243902439024
0
VERTEX
8
L1
10
-31.062128614264225
20
-56.28048780487804
0
SEQEND
0
POLYLINE
8
L1
66
1
70
1
0
VERTEX
8
L1
10
-31.178720426351944
20
-55.097560975609746
0
VERTEX
8
L1
10
-31.143906904402016
20
-55.108437520747906
0
VERTEX
8
L1
10
-31.111599148131162
20
-55.09151152212321
0
VERTEX
8
L1
10
-31.100722602992988
20
-55.056698000173284
0
VERTEX
8
L1
10
-31.117648601617702
20
-55.02439024390243
0
VERTEX
8
L1
10
-31.152462123567616
20
-55.01351369876427
0
VERTEX
8
L1
10
-31.184769879838484
20
-55.030439697388964
0
VERTEX
8
L1
10
-31.195646424976644
20
-55.06525321933889
0
VERTEX
8
L1
10
-31.178720426351944
20
-55.097560975609746
0
SEQEND
0
POLYLINE
8
L1
66
1
70
1
0
VERTEX
8
L1
10
-31.409689589873977
20
-56.28048780487804
0
VERTEX
8
L1
10
-31.53164080938619
20
-56.28048780487804
0
VERTEX
8
L1
10
-31.53164080938619
20
-56.40243902439024
0
VERTEX
8
L1
10
-31.409689589873977
20
-56.40243902439024
0
VERTEX
8
L1
10
-31.409689589873977
20
-56.28048780487804
0
SEQEND
0
POLYLINE
8
L1
66
1
70
1
0
VERTEX
8
L1
10
-31.97696674904435
20
-55.108437520747906
0
VERTEX
8
L1
10
-31.944658992773498
20
-55.09151152212321
0
VERTEX
8
L1
10
-31.933782447635338
20
-55.056698000173284
0
VERTEX
8
L1
10
-31.950708446260037
20
-55.02439024390243
0
VERTEX
8
L1
10
-31.985521968209966
20
-55.01351369876427
0
VERTEX
8
L1
10
-32.01782972448082
20
-55.030439697388964
0
VERTEX
8
L1
10
-32.02870626961898
20
-55.06525321933889
0
VERTEX
8
L1
10
-32.01178027099428
20
-55.097560975609746
0
VERTEX
8
L1
10
-31.97696674904435
20
-55.108437520747906
0
SEQEND
0
POLYLINE
8
L1
66
1
70
1
0
VERTEX
8
L1
10
-32.078115288174786
20
-56.795203665213094
0
VERTEX
8
L1
10
-31.98156858360693
20
-56.795203665213094
0
VERTEX
8
L1
10
-31.98156858360693
20
-57.40495976277407
0
VERTEX
8
L1
10
-32.005958827509374
20
-57.40495976277407
0
VERTEX
8
L1
10
-32.005958827509374
20
-57.52691098228627
0
VERTEX
8
L1
10
-31.884007607997177
20
-57.52691098228627
0
VERTEX
8
L1
10
-31.884007607997177
20
-56.69764268960334
0
VERTEX
8
L1
10
-31.956164068662588
20
-56.69764268960334
0
VERTEX
8
L1
10
-31.956164068662588
20
-56.28048780487804
0
VERTEX
8
L1
10
-32.0781152881748
20
-56.28048780487804
0
VERTEX
8
L1
10
-32.078115288174786
20
-56.795203665213094
0
SEQEND
0
POLYLINE
8
L1
66
1
70
1
0
VERTEX
8
L1
10
-31.28991767610745
20
-57.65853658536585
0
VERTEX
8
L1
10
-31.255104154157536
20
-57.66941313050401
0
VERTEX
8
L1
10
-31.22279639788667
20
-57.65248713187932
0
VERTEX
8
L1
10
-31.211919852748508
20
-57.61767360992939
0
VERTEX
8
L1
10
-31.228845851373208
20
-57.58536585365854
0
VERTEX
8
L1
10
-31.263659373323136
20
-57.57448930852038
0
VERTEX
8
L1
10
-31.29596712959399
20
-57.59141530714507
0
VERTEX
8
L1
10
-31.30684367473215
20
-57.626228829095
0
VERTEX
8
L1
10
-31.28991767610745
20
-57.65853658536585
0
SEQEND
0
POLYLINE
8
L1
66
1
70
1
0
VERTEX
8
L1
10
-33.3281152881748
20
-56.40243902439024
0
VERTEX
8
L1
10
-33.20616406866259
20
-56.40243902439024
0
VERTEX
8
L1
10
-33.20616406866259
20
-56.28048780487804
0
VERTEX
8
L1
10
-33.3281152881748
20
-56.28048780487804
0
VERTEX
8
L1
10
-33.3281152881748
20
-56.40243902439024
0
SEQEND
0
POLYLINE
8
L1
66
1
70
1
0
VERTEX
8
L1
10
-27.841463414634134
20
-55.02439024390243
0
VERTEX
8
L1
10
-27.858389413258834
20
-55.056698000173284
0
VERTEX
8
L1
10
-27.847512868120674
20
-55.09151152212321
0
VERTEX
8
L1
10
-27.81520511184982
20
-55.10843752074792
0
VERTEX
8
L1
10
-27.780391589899892
20
-55.097560975609746
0
VERTEX
8
L1
10
-27.763465591275178
20
-55.06525321933889
0
VERTEX
8
L1
10
-27.774342136413352
20
-55.030439697388964
0
VERTEX
8
L1
10
-27.806649892684206
20
-55.01351369876427
0
VERTEX
8
L1
10
-27.841463414634134
20
-55.02439024390243
0
SEQEND
0
POLYLINE
8
L1
66
1
70
1
0
VERTEX
8
L1
10
-24.96351084912439
20
-57.65853658536585
0
VERTEX
8
L1
10
-24.928697327174476
20
-57.66941313050401
0
VERTEX
8
L1
10
-24.896389570903608
20
-57.65248713187932
0
VERTEX
8
L1
10
-24.885513025765448
20
-57.61767360992939
0
VERTEX
8
L1
10
-24.902439024390148
20
-57.58536585365854
0
VERTEX
8
L1
10
-24.937252546340076
20
-57.57448930852038
0
VERTEX
8
L1
10
-24.96956030261093
20
-57.59141530714507
0
VERTEX
8
L1
10
-24.98043684774909
20
-57.626228829095
0
VERTEX
8
L1
10
-24.96351084912439
20
-57.65853658536585
0
SEQEND
0
POLYLINE
8
L1
66
1
70
1
0
VERTEX
8
L1
10
-26.842830210182314
20
-55.02439024390243
0
VERTEX
8
L1
10
-26.859756208807028
20
-55.0566980001733
0
VERTEX
8
L1
10
-26.848879663668853
20
-55.09151152212321
0
VERTEX
8
L1
10
-26.816571907398
20
-55.10843752074792
0
VERTEX
8
L1
10
-26.78175838544807
20
-55.097560975609746
0
VERTEX
8
L1
10
-26.76483238682337
20
-55.06525321933889
0
VERTEX
8
L1
10
-26.775708931961532
20
-55.030439697388964
0
VERTEX
8
L1
10
-26.8080166882324
20
-55.01351369876427
0
VERTEX
8
L1
10
-26.842830210182314
20
-55.02439024390243
0
SEQEND
0
POLYLINE
8
L1
66
1
70
1
0
VERTEX
8
L1
10
-28.105993087003014
20
-56.37677172565703
0
VERTEX
8
L1
10
-28.07068477598014
20
-56.3913969069472
0
VERTEX
8
L1
10
-28.035376464957253
20
-56.37677172565703
0
VERTEX
8
L1
10
-28.02075128366708
20
-56.341463414634156
0
VERTEX
8
L1
10
-28.03537646495724
20
-56.30615510361126
0
VERTEX
8
L1
10
-28.07068477598014
20
-56.291529922321104
0
VERTEX
8
L1
10
-28.105993087003014
20
-56.30615510361126
0
VERTEX
8
L1
10
-28.120618268293185
20
-56.341463414634156
0
VERTEX
8
L1
10
-28.105993087003014
20
-56.37677172565703
0
SEQEND
0
POLYLINE
8
L1
66
1
70
1
0
VERTEX
8
L1
10
-26.89024390243901
20
-56.341463414634156
0
VERTEX
8
L1
10
-26.875618721148854
20
-56.37677172565703
0
VERTEX
8
L1
10
-26.840310410125966
20
-56.3913969069472
0
VERTEX
8
L1
10
-26.805002099103078
20
-56.37677172565703
0
VERTEX
8
L1
10
-26.790376917812907
20
-56.341463414634156
0
VERTEX
8
L1
10
-26.805002099103078
20
-56.30615510361126
0
VERTEX
8
L1
10
-26.840310410125966
20
-56.291529922321104
0
VERTEX
8
L1
10
-26.875618721148854
20
-56.30615510361126
0
VERTEX
8
L1
10
-26.89024390243901
20
-56.341463414634156
0
SEQEND
0
POLYLINE
8
L1
66
1
70
1
0
VERTEX
8
L1
10
-24.576933742265254
20
-56.30615510361126
0
VERTEX
8
L1
10
-24.612242053288128
20
-56.291529922321104
0
VERTEX
8
L1
10
-24.647550364311016
20
-56.30615510361126
0
VERTEX
8
L1
10
-24.662175545601187
20
-56.341463414634156
0
VERTEX
8
L1
10
-24.647550364311
20
-56.37677172565703
0
VERTEX
8
L1
10
-24.612242053288128
20
-56.3913969069472
0
VERTEX
8
L1
10
-24.576933742265254
20
-56.37677172565703
0
VERTEX
8
L1
10
-24.562308560975083
20
-56.341463414634156
0
VERTEX
8
L1
10
-24.576933742265254
20
-56.30615510361126
0
SEQEND
0
POLYLINE
8
L1
66
1
70
1
0
VERTEX
8
L1
10
-27.467220797556536
20
-57.57448930852038
0
VERTEX
8
L1
10
-27.502034319506464
20
-57.58536585365854
0
VERTEX
8
L1
10
-27.51896031813115
20
-57.61767360992939
0
VERTEX
8
L1
10
-27.508083772993004
20
-57.65248713187932
0
VERTEX
8
L1
10
-27.475776016722136
20
-57.669413130504026
0
VERTEX
8
L1
10
-27.440962494772222
20
-57.65853658536585
0
VERTEX
8
L1
10
-27.424036496147508
20
-57.626228829095
0
VERTEX
8
L1
10
-27.434913041285682
20
-57.59141530714507
0
VERTEX
8
L1
10
-27.467220797556536
20
-57.57448930852038
0
SEQEND
0
POLYLINE
8
L1
66
1
70
1
0
VERTEX
8
L1
10
-25.208470077678854
20
-56.28048780487804
0
VERTEX
8
L1
10
-25.330421297191066
20
-56.28048780487804
0
VERTEX
8
L1
10
-25.330421297191066
20
-56.40243902439024
0
VERTEX
8
L1
10
-25.208470077678854
20
-56.40243902439024
0
VERTEX
8
L1
10
-25.208470077678854
20
-56.28048780487804
0
SEQEND
0
POLYLINE
8
L1
66
1
70
1
0
VERTEX
8
L1
10
-25.325061889766573
20
-55.097560975609746
0
VERTEX
8
L1
10
-25.290248367816645
20
-55.108437520747906
0
VERTEX
8
L1
10
-25.25794061154579
20
-55.09151152212321
0
VERTEX
8
L1
10
-25.247064066407617
20
-55.056698000173284
0
VERTEX
8
L1
10
-25.26399006503233
20
-55.02439024390243
0
VERTEX
8
L1
10
-25.298803586982245
20
-55.01351369876427
0
VERTEX
8
L1
10
-25.331111343253113
20
-55.030439697388964
0
VERTEX
8
L1
10
-25.341987888391273
20
-55.06525321933889
0
VERTEX
8
L1
10
-25.325061889766573
20
-55.097560975609746
0
SEQEND
0
POLYLINE
8
L1
66
1
70
1
0
VERTEX
8
L1
10
-25.556031053288606
20
-56.28048780487804
0
VERTEX
8
L1
10
-25.67798227280082
20
-56.28048780487804
0
VERTEX
8
L1
10
-25.67798227280082
20
-56.40243902439024
0
VERTEX
8
L1
10
-25.556031053288606
20
-56.40243902439024
0
VERTEX
8
L1
10
-25.556031053288606
20
-56.28048780487804
0
SEQEND
0
POLYLINE
8
L1
66
1
70
1
0
VERTEX
8
L1
10
-26.12330821245898
20
-55.108437520747906
0
VERTEX
8
L1
10
-26.091000456188127
20
-55.09151152212321
0
VERTEX
8
L1
10
-26.080123911049967
20
-55.056698000173284
0
VERTEX
8
L1
10
-26.097049909674666
20
-55.02439024390243
0
VERTEX
8
L1
10
-26.131863431624595
20
-55.01351369876427
0
VERTEX
8
L1
10
-26.164171187895448
20
-55.030439697388964
0
VERTEX
8
L1
10
-26.175047733033608
20
-55.06525321933889
0
VERTEX
8
L1
10
-26.15812173440891
20
-55.097560975609746
0
VERTEX
8
L1
10
-26.12330821245898
20
-55.108437520747906
0
SEQEND
0
POLYLINE
8
L1
66
1
70
1
0
VERTEX
8
L1
10
-26.224456751589415
20
-56.795203665213094
0
VERTEX
8
L1
10
-26.127910047021558
20
-56.795203665213094
0
VERTEX
8
L1
10
-26.127910047021558
20
-57.40495976277407
0
VERTEX
8
L1
10
-26.152300290924003
20
-57.40495976277407
0
VERTEX
8
L1
10
-26.152300290924003
20
-57.52691098228627
0
VERTEX
8
L1
10
-26.030349071411806
20
-57.52691098228627
0
VERTEX
8
L1
10
-26.030349071411806
20
-56.69764268960334
0
VERTEX
8
L1
10
-26.102505532077217
20
-56.69764268960334
0
VERTEX
8
L1
10
-26.102505532077217
20
-56.28048780487804
0
VERTEX
8
L1
10
-26.22445675158943
20
-56.28048780487804
0
VERTEX
8
L1
10
-26.224456751589415
20
-56.795203665213094
0
SEQEND
0
POLYLINE
8
L1
66
1
70
1
0
VERTEX
8
L1
10
-25.43625913952208
20
-57.65853658536585
0
VERTEX
8
L1
10
-25.401445617572165
20
-57.66941313050401
0
VERTEX
8
L1
10
-25.369137861301297
20
-57.65248713187932
0
VERTEX
8
L1
10
-25.358261316163137
20
-57.61767360992939
0
VERTEX
8
L1
10
-25.375187314787837
20
-57.58536585365854
0
VERTEX
8
L1
10
-25.410000836737765
20
-57.57448930852038
0
VERTEX
8
L1
10
-25.44230859300862
20
-57.59141530714507
0
VERTEX
8
L1
10
-25.45318513814678
20
-57.626228829095
0
VERTEX
8
L1
10
-25.43625913952208
20
-57.65853658536585
0
SEQEND
0
POLYLINE
8
L1
66
1
70
1
0
VERTEX
8
L1
10
-27.47445675158943
20
-56.40243902439024
0
VERTEX
8
L1
10
-27.352505532077217
20
-56.40243902439024
0
VERTEX
8
L1
10
-27.352505532077217
20
-56.28048780487804
0
VERTEX
8
L1
10
-27.47445675158943
20
-56.28048780487804
0
VERTEX
8
L1
10
-27.47445675158943
20
-56.40243902439024
0
SEQEND
0
POLYLINE
8
L1
66
1
70
1
0
VERTEX
8
L1
10
-21.987804878048777
20
-55.02439024390243
0
VERTEX
8
L1
10
-22.004730876673477
20
-55.056698000173284
0
VERTEX
8
L1
10
-21.993854331535317
20
-55.09151152212321
0
VERTEX
8
L1
10
-21.961546575264464
20
-55.10843752074792
0
VERTEX
8
L1
10
-21.926733053314535
20
-55.097560975609746
0
VERTEX
8
L1
10
-21.90980705468982
20
-55.06525321933889
0
VERTEX
8
L1
10
-21.920683599827996
20
-55.030439697388964
0
VERTEX
8
L1
10
-21.95299135609885
20
-55.01351369876427
0
VERTEX
8
L1
10
-21.987804878048777
20
-55.02439024390243
0
SEQEND
0
POLYLINE
8
L1
66
1
70
1
0
VERTEX
8
L1
10
-19.109852312539033
20
-57.65853658536585
0
VERTEX
8
L1
10
-19.07503879058912
20
-57.66941313050401
0
VERTEX
8
L1
10
-19.04273103431825
20
-57.65248713187932
0
VERTEX
8
L1
10
-19.03185448918009
20
-57.61767360992939
0
VERTEX
8
L1
10
-19.04878048780479
20
-57.58536585365854
0
VERTEX
8
L1
10
-19.08359400975472
20
-57.57448930852038
0
VERTEX
8
L1
10
-19.115901766025573
20
-57.59141530714507
0
VERTEX
8
L1
10
-19.126778311163733
20
-57.626228829095
0
VERTEX
8
L1
10
-19.109852312539033
20
-57.65853658536585
0
SEQEND
0
POLYLINE
8
L1
66
1
70
1
0
VERTEX
8
L1
10
-20.989171673596957
20
-55.02439024390243
0
VERTEX
8
L1
10
-21.00609767222167
20
-55.0566980001733
0
VERTEX
8
L1
10
-20.995221127083497
20
-55.09151152212321
0
VERTEX
8
L1
10
-20.962913370812643
20
-55.10843752074792
0
VERTEX
8
L1
10
-20.928099848862715
20
-55.097560975609746
0
VERTEX
8
L1
10
-20.911173850238015
20
-55.06525321933889
0
VERTEX
8
L1
10
-20.922050395376175
20
-55.030439697388964
0
VERTEX
8
L1
10
-20.954358151647043
20
-55.01351369876427
0
VERTEX
8
L1
10
-20.989171673596957
20
-55.02439024390243
0
SEQEND
0
POLYLINE
8
L1
66
1
70
1
0
VERTEX
8
L1
10
-22.252334550417658
20
-56.37677172565703
0
VERTEX
8
L1
10
-22.217026239394784
20
-56.3913969069472
0
VERTEX
8
L1
10
-22.181717928371896
20
-56.37677172565703
0
VERTEX
8
L1
10
-22.167092747081725
20
-56.341463414634156
0
VERTEX
8
L1
10
-22.18171792837188
20
-56.30615510361126
0
VERTEX
8
L1
10
-22.217026239394784
20
-56.291529922321104
0
VERTEX
8
L1
10
-22.252334550417658
20
-56.30615510361126
0
VERTEX
8
L1
10
-22.26695973170783
20
-56.341463414634156
0
VERTEX
8
L1
10
-22.252334550417658
20
-56.37677172565703
0
SEQEND
0
POLYLINE
8
L1
66
1
70
1
0
VERTEX
8
L1
10
-21.036585365853654
20
-56.341463414634156
0
VERTEX
8
L1
10
-21.021960184563497
20
-56.37677172565703
0
VERTEX
8
L1
10
-20.98665187354061
20
-56.3913969069472
0
VERTEX
8
L1
10
-20.95134356251772
20
-56.37677172565703
0
VERTEX
8
L1
10
-20.93671838122755
20
-56.341463414634156
0
VERTEX
8
L1
10
-20.95134356251772
20
-56.30615510361126
0
VERTEX
8
L1
10
-20.98665187354061
20
-56.291529922321104
0
VERTEX
8
L1
10
-21.021960184563497
20
-56.30615510361126
0
VERTEX
8
L1
10
-21.036585365853654
20
-56.341463414634156
0
SEQEND
0
POLYLINE
8
L1
66
1
70
1
0
VERTEX
8
L1
10
-18.723275205679897
20
-56.30615510361126
0
VERTEX
8
L1
10
-18.75858351670277
20
-56.291529922321104
0
VERTEX
8
L1
10
-18.79389182772566
20
-56.30615510361126
0
VERTEX
8
L1
10
-18.80851700901583
20
-56.341463414634156
0
VERTEX
8
L1
10
-18.793891827725645
20
-56.37677172565703
0
VERTEX
8
L1
10
-18.75858351670277
20
-56.3913969069472
0
VERTEX
8
L1
10
-18.723275205679897
20
-56.37677172565703
0
VERTEX
8
L1
10
-18.708650024389726
20
-56.341463414634156
0
VERTEX
8
L1
10
-18.723275205679897
20
-56.30615510361126
0
SEQEND
0
POLYLINE
8
L1
66
1
70
1
0
VERTEX
8
L1
10
-21.61356226097118
20
-57.57448930852038
0
VERTEX
8
L1
10
-21.648375782921107
20
-57.58536585365854
0
VERTEX
8
L1
10
-21.665301781545793
20
-57.61767360992939
0
VERTEX
8
L1
10
-21.654425236407647
20
-57.65248713187932
0
VERTEX
8
L1
10
-21.62211748013678
20
-57.669413130504026
0
VERTEX
8
L1
10
-21.587303958186865
20
-57.65853658536585
0
VERTEX
8
L1
10
-21.57037795956215
20
-57.626228829095
0
VERTEX
8
L1
10
-21.581254504700325
20
-57.59141530714507
0
VERTEX
8
L1
10
-21.61356226097118
20
-57.57448930852038
0
SEQEND
0
POLYLINE
8
L1
66
1
70
1
0
VERTEX
8
L1
10
-19.354811541093497
20
-56.28048780487804
0
VERTEX
8
L1
10
-19.47676276060571
20
-56.28048780487804
0
VERTEX
8
L1
10
-19.47676276060571
20
-56.40243902439024
0
VERTEX
8
L1
10
-19.354811541093497
20
-56.40243902439024
0
VERTEX
8
L1
10
-19.354811541093497
20
-56.28048780487804
0
SEQEND
0
POLYLINE
8
L1
66
1
70
1
0
VERTEX
8
L1
10
-19.471403353181216
20
-55.097560975609746
0
VERTEX
8
L1
10
-19.436589831231288
20
-55.108437520747906
0
VERTEX
8
L1
10
-19.404282074960435
20
-55.09151152212321
0
VERTEX
8
L1
10
-19.39340552982226
20
-55.056698000173284
0
VERTEX
8
L1
10
-19.410331528446974
20
-55.02439024390243
0
VERTEX
8
L1
10
-19.44514505039689
20
-55.01351369876427
0
VERTEX
8
L1
10
-19.477452806667756
20
-55.030439697388964
0
VERTEX
8
L1
10
-19.488329351805916
20
-55.06525321933889
0
VERTEX
8
L1
10
-19.471403353181216
20
-55.097560975609746
0
SEQEND
0
POLYLINE
8
L1
66
1
70
1
0
VERTEX
8
L1
10
-19.70237251670325
20
-56.28048780487804
0
VERTEX
8
L1
10
-19.82432373621546
20
-56.28048780487804
0
VERTEX
8
L1
10
-19.82432373621546
20
-56.40243902439024
0
VERTEX
8
L1
10
-19.70237251670325
20
-56.40243902439024
0
VERTEX
8
L1
10
-19.70237251670325
20
-56.28048780487804
0
SEQEND
0
POLYLINE
8
L1
66
1
70
1
0
VERTEX
8
L1
10
-20.269649675873623
20
-55.108437520747906
0
VERTEX
8
L1
10
-20.23734191960277
20
-55.09151152212321
0
VERTEX
8
L1
10
-20.22646537446461
20
-55.056698000173284
0
VERTEX
8
L1
10
-20.24339137308931
20
-55.02439024390243
0
VERTEX
8
L1
10
-20.278204895039238
20
-55.01351369876427
0
VERTEX
8
L1
10
-20.31051265131009
20
-55.030439697388964
0
VERTEX
8
L1
10
-20.32138919644825
20
-55.06525321933889
0
VERTEX
8
L1
10
-20.30446319782355
20
-55.097560975609746
0
VERTEX
8
L1
10
-20.269649675873623
20
-55.108437520747906
0
SEQEND
0
POLYLINE
8
L1
66
1
70
1
0
VERTEX
8
L1
10
-20.370798215004058
20
-56.795203665213094
0
VERTEX
8
L1
10
-20.2742515104362
20
-56.795203665213094
0
VERTEX
8
L1
10
-20.2742515104362
20
-57.40495976277407
0
VERTEX
8
L1
10
-20.298641754338647
20
-57.40495976277407
0
VERTEX
8
L1
10
-20.298641754338647
20
-57.52691098228627
0
VERTEX
8
L1
10
-20.17669053482645
20
-57.52691098228627
0
VERTEX
8
L1
10
-20.17669053482645
20
-56.69764268960334
0
VERTEX
8
L1
10
-20.24884699549186
20
-56.69764268960334
0
VERTEX
8
L1
10
-20.24884699549186
20
-56.28048780487804
0
VERTEX
8
L1
10
-20.370798215004072
20
-56.28048780487804
0
VERTEX
8
L1
10
-20.370798215004058
20
-56.795203665213094
0
SEQEND
0
POLYLINE
8
L1
66
1
70
1
0
VERTEX
8
L1
10
-19.582600602936722
20
-57.65853658536585
0
VERTEX
8
L1
10
-19.547787080986808
20
-57.66941313050401
0
VERTEX
8
L1
10
-19.51547932471594
20
-57.65248713187932
0
VERTEX
8
L1
10
-19.50460277957778
20
-57.61767360992939
0
VERTEX
8
L1
10
-19.52152877820248
20
-57.58536585365854
0
VERTEX
8
L1
10
-19.55634230015241
20
-57.57448930852038
0
VERTEX
8
L1
10
-19.588650056423262
20
-57.59141530714507
0
VERTEX
8
L1
10
-19.599526601561422
20
-57.626228829095
0
VERTEX
8
L1
10
-19.582600602936722
20
-57.65853658536585
0
SEQEND
0
POLYLINE
8
L1
66
1
70
1
0
VERTEX
8
L1
10
-21.620798215004072
20
-56.40243902439024
0
VERTEX
8
L1
10
-21.49884699549186
20
-56.40243902439024
0
VERTEX
8
L1
10
-21.49884699549186
20
-56.28048780487804
0
VERTEX
8
L1
10
-21.620798215004072
20
-56.28048780487804
0
VERTEX
8
L1
10
-21.620798215004072
20
-56.40243902439024
0
SEQEND
0
POLYLINE
8
L1
66
1
70
1
0
VERTEX
8
L1
10
-16.134146341463406
20
-55.02439024390243
0
VERTEX
8
L1
10
-16.151072340088106
20
-55.056698000173284
0
VERTEX
8
L1
10
-16.140195794949946
20
-55.09151152212321
0
VERTEX
8
L1
10
-16.107888038679093
20
-55.10843752074792
0
VERTEX
8
L1
10
-16.073074516729164
20
-55.097560975609746
0
VERTEX
8
L1
10
-16.05614851810445
20
-55.06525321933889
0
VERTEX
8
L1
10
-16.067025063242625
20
-55.030439697388964
0
VERTEX
8
L1
10
-16.099332819513478
20
-55.01351369876427
0
VERTEX
8
L1
10
-16.134146341463406
20
-55.02439024390243
0
SEQEND
0
POLYLINE
8
L1
66
1
70
1
0
VERTEX
8
L1
10
-13.256193775953662
20
-57.65853658536585
0
VERTEX
8
L1
10
-13.221380254003748
20
-57.66941313050401
0
VERTEX
8
L1
10
-13.18907249773288
20
-57.65248713187932
0
VERTEX
8
L1
10
-13.17819595259472
20
-57.61767360992939
0
VERTEX
8
L1
10
-13.19512195121942
20
-57.58536585365854
0
VERTEX
8
L1
10
-13.229935473169334
20
-57.57448930852038
0
VERTEX
8
L1
10
-13.262243229440202
20
-57.59141530714507
0
VERTEX
8
L1
10
-13.273119774578362
20
-57.626228829095
0
VERTEX
8
L1
10
-13.256193775953662
20
-57.65853658536585
0
SEQEND
0
POLYLINE
8
L1
66
1
70
1
0
VERTEX
8
L1
10
-15.135513137011586
20
-55.02439024390243
0
VERTEX
8
L1
10
-15.1524391356363
20
-55.0566980001733
0
VERTEX
8
L1
10
-15.141562590498125
20
-55.09151152212321
0
VERTEX
8
L1
10
-15.109254834227272
20
-55.10843752074792
0
VERTEX
8
L1
10
-15.074441312277344
20
-55.097560975609746
0
VERTEX
8
L1
10
-15.057515313652644
20
-55.06525321933889
0
VERTEX
8
L1
10
-15.068391858790804
20
-55.030439697388964
0
VERTEX
8
L1
10
-15.100699615061671
20
-55.01351369876427
0
VERTEX
8
L1
10
-15.135513137011586
20
-55.02439024390243
0
SEQEND
0
POLYLINE
8
L1
66
1
70
1
0
VERTEX
8
L1
10
-16.398676013832286
20
-56.37677172565703
0
VERTEX
8
L1
10
-16.363367702809413
20
-56.3913969069472
0
VERTEX
8
L1
10
-16.328059391786525
20
-56.37677172565703
0
VERTEX
8
L1
10
-16.313434210496354
20
-56.341463414634156
0
VERTEX
8
L1
10
-16.32805939178651
20
-56.30615510361126
0
VERTEX
8
L1
10
-16.363367702809413
20
-56.291529922321104
0
VERTEX
8
L1
10
-16.398676013832286
20
-56.30615510361126
0
VERTEX
8
L1
10
-16.413301195122457
20
-56.341463414634156
0
VERTEX
8
L1
10
-16.398676013832286
20
-56.37677172565703
0
SEQEND
0
POLYLINE
8
L1
66
1
70
1
0
VERTEX
8
L1
10
-15.182926829268283
20
-56.341463414634156
0
VERTEX
8
L1
10
-15.168301647978126
20
-56.37677172565703
0
VERTEX
8
L1
10
-15.132993336955238
20
-56.3913969069472
0
VERTEX
8
L1
10
-15.09768502593235
20
-56.37677172565703
0
VERTEX
8
L1
10
-15.083059844642179
20
-56.341463414634156
0
VERTEX
8
L1
10
-15.09768502593235
20
-56.30615510361126
0
VERTEX
8
L1
10
-15.132993336955238
20
-56.291529922321104
0
VERTEX
8
L1
10
-15.168301647978126
20
-56.30615510361126
0
VERTEX
8
L1
10
-15.182926829268283
20
-56.341463414634156
0
SEQEND
0
POLYLINE
8
L1
66
1
70
1
0
VERTEX
8
L1
10
-12.869616669094526
20
-56.30615510361126
0
VERTEX
8
L1
10
-12.9049249801174
20
-56.291529922321104
0
VERTEX
8
L1
10
-12.940233291140288
20
-56.30615510361126
0
VERTEX
8
L1
10
-12.954858472430459
20
-56.341463414634156
0
VERTEX
8
L1
10
-12.940233291140274
20
-56.37677172565703
0
VERTEX
8
L1
10
-12.9049249801174
20
-56.3913969069472
0
VERTEX
8
L1
10
-12.869616669094526
20
-56.37677172565703
0
VERTEX
8
L1
10
-12.854991487804355
20
-56.341463414634156
0
VERTEX
8
L1
10
-12.869616669094526
20
-56.30615510361126
0
SEQEND
0
POLYLINE
8
L1
66
1
70
1
0
VERTEX
8
L1
10
-15.759903724385808
20
-57.57448930852038
0
VERTEX
8
L1
10
-15.794717246335736
20
-57.58536585365854
0
VERTEX
8
L1
10
-15.811643244960422
20
-57.61767360992939
0
VERTEX
8
L1
10
-15.800766699822276
20
-57.65248713187932
0
VERTEX
8
L1
10
-15.768458943551408
20
-57.669413130504026
0
VERTEX
8
L1
10
-15.733645421601494
20
-57.65853658536585
0
VERTEX
8
L1
10
-15.71671942297678
20
-57.626228829095
0
VERTEX
8
L1
10
-15.727595968114954
20
-57.59141530714507
0
VERTEX
8
L1
10
-15.759903724385808
20
-57.57448930852038
0
SEQEND
0
POLYLINE
8
L1
66
1
70
1
0
VERTEX
8
L1
10
-13.501153004508126
20
-56.28048780487804
0
VERTEX
8
L1
10
-13.623104224020338
20
-56.28048780487804
0
VERTEX
8
L1
10
-13.623104224020338
20
-56.40243902439024
0
VERTEX
8
L1
10
-13.501153004508126
20
-56.40243902439024
0
VERTEX
8
L1
10
-13.501153004508126
20
-56.28048780487804
0
SEQEND
0
POLYLINE
8
L1
66
1
70
1
0
VERTEX
8
L1
10
-13.617744816595845
20
-55.097560975609746
0
VERTEX
8
L1
10
-13.582931294645917
20
-55.108437520747906
0
VERTEX
8
L1
10
-13.550623538375064
20
-55.09151152212321
0
VERTEX
8
L1
10
-13.53974699323689
20
-55.056698000173284
0
VERTEX
8
L1
10
-13.556672991861603
20
-55.02439024390243
0
VERTEX
8
L1
10
-13.591486513811518
20
-55.01351369876427
0
VERTEX
8
L1
10
-13.623794270082385
20
-55.030439697388964
0
VERTEX
8
L1
10
-13.634670815220545
20
-55.06525321933889
0
VERTEX
8
L1
10
-13.617744816595845
20
-55.097560975609746
0
SEQEND
0
POLYLINE
8
L1
66
1
70
1
0
VERTEX
8
L1
10
-13.848713980117878
20
-56.28048780487804
0
VERTEX
8
L1
10
-13.97066519963009
20
-56.28048780487804
0
VERTEX
8
L1
10
-13.97066519963009
20
-56.40243902439024
0
VERTEX
8
L1
10
-13.848713980117878
20
-56.40243902439024
0
VERTEX
8
L1
10
-13.848713980117878
20
-56.28048780487804
0
SEQEND
0
POLYLINE
8
L1
66
1
70
1
0
VERTEX
8
L1
10
-14.415991139288252
20
-55.108437520747906
0
VERTEX
8
L1
10
-14.383683383017399
20
-55.09151152212321
0
VERTEX
8
L1
10
-14.372806837879239
20
-55.056698000173284
0
VERTEX
8
L1
10
-14.389732836503939
20
-55.02439024390243
0
VERTEX
8
L1
10
-14.424546358453867
20
-55.01351369876427
0
VERTEX
8
L1
10
-14.45685411472472
20
-55.030439697388964
0
VERTEX
8
L1
10
-14.46773065986288
20
-55.06525321933889
0
VERTEX
8
L1
10
-14.45080466123818
20
-55.097560975609746
0
VERTEX
8
L1
10
-14.415991139288252
20
-55.108437520747906
0
SEQEND
0
POLYLINE
8
L1
66
1
70
1
0
VERTEX
8
L1
10
-14.517139678418687
20
-56.795203665213094
0
VERTEX
8
L1
10
-14.42059297385083
20
-56.795203665213094
0
VERTEX
8
L1
10
-14.42059297385083
20
-57.40495976277407
0
VERTEX
8
L1
10
-14.444983217753276
20
-57.40495976277407
0
VERTEX
8
L1
10
-14.444983217753276
20
-57.52691098228627
0
VERTEX
8
L1
10
-14.323031998241078
20
-57.52691098228627
0
VERTEX
8
L1
10
-14.323031998241078
20
-56.69764268960334
0
VERTEX
8
L1
10
-14.395188458906489
20
-56.69764268960334
0
VERTEX
8
L1
10
-14.395188458906489
20
-56.28048780487804
0
VERTEX
8
L1
10
-14.517139678418701
20
-56.28048780487804
0
VERTEX
8
L1
10
-14.517139678418687
20
-56.795203665213094
0
SEQEND
0
POLYLINE
8
L1
66
1
70
1
0
VERTEX
8
L1
10
-13.728942066351351
20
-57.65853658536585
0
VERTEX
8
L1
10
-13.694128544401437
20
-57.66941313050401
0
VERTEX
8
L1
10
-13.66182078813057
20
-57.65248713187932
0
VERTEX
8
L1
10
-13.65094424299241
20
-57.61767360992939
0
VERTEX
8
L1
10
-13.66787024161711
20
-57.58536585365854
0
VERTEX
8
L1
10
-13.702683763567038
20
-57.57448930852038
0
VERTEX
8
L1
10
-13.734991519837891
20
-57.59141530714507
0
VERTEX
8
L1
10
-13.745868064976051
20
-57.626228829095
0
VERTEX
8
L1
10
-13.728942066351351
20
-57.65853658536585
0
SEQEND
0
POLYLINE
8
L1
66
1
70
1
0
VERTEX
8
L1
10
-15.767139678418701
20
-56.40243902439024
0
VERTEX
8
L1
10
-15.645188458906489
20
-56.40243902439024
0
VERTEX
8
L1
10
-15.645188458906489
20
-56.28048780487804
0
VERTEX
8
L1
10
-15.767139678418701
20
-56.28048780487804
0
VERTEX
8
L1
10
-15.767139678418701
20
-56.40243902439024
0
SEQEND
0
POLYLINE
8
L1
66
1
70
1
0
VERTEX
8
L1
10
-10.280487804878035
20
-55.02439024390243
0
VERTEX
8
L1
10
-10.297413803502735
20
-55.056698000173284
0
VERTEX
8
L1
10
-10.286537258364575
20
-55.09151152212321
0
VERTEX
8
L1
10
-10.254229502093722
20
-55.10843752074792
0
VERTEX
8
L1
10
-10.219415980143793
20
-55.097560975609746
0
VERTEX
8
L1
10
-10.20248998151908
20
-55.06525321933889
0
VERTEX
8
L1
10
-10.213366526657254
20
-55.030439697388964
0
VERTEX
8
L1
10
-10.245674282928107
20
-55.01351369876427
0
VERTEX
8
L1
10
-10.280487804878035
20
-55.02439024390243
0
SEQEND
0
POLYLINE
8
L1
66
1
70
1
0
VERTEX
8
L1
10
-7.402535239368291
20
-57.65853658536585
0
VERTEX
8
L1
10
-7.367721717418377
20
-57.66941313050401
0
VERTEX
8
L1
10
-7.335413961147509
20
-57.65248713187932
0
VERTEX
8
L1
10
-7.324537416009349
20
-57.61767360992939
0
VERTEX
8
L1
10
-7.341463414634049
20
-57.58536585365854
0
VERTEX
8
L1
10
-7.376276936583977
20
-57.57448930852038
0
VERTEX
8
L1
10
-7.408584692854831
20
-57.59141530714507
0
VERTEX
8
L1
10
-7.419461237992991
20
-57.626228829095
0
VERTEX
8
L1
10
-7.402535239368291
20
-57.65853658536585
0
SEQEND
0
POLYLINE
8
L1
66
1
70
1
0
VERTEX
8
L1
10
-9.281854600426215
20
-55.02439024390243
0
VERTEX
8
L1
10
-9.298780599050929
20
-55.0566980001733
0
VERTEX
8
L1
10
-9.287904053912754
20
-55.09151152212321
0
VERTEX
8
L1
10
-9.255596297641901
20
-55.10843752074792
0
VERTEX
8
L1
10
-9.220782775691973
20
-55.097560975609746
0
VERTEX
8
L1
10
-9.203856777067273
20
-55.06525321933889
0
VERTEX
8
L1
10
-9.214733322205433
20
-55.030439697388964
0
VERTEX
8
L1
10
-9.2470410784763
20
-55.01351369876427
0
VERTEX
8
L1
10
-9.281854600426215
20
-55.02439024390243
0
SEQEND
0
POLYLINE
8
L1
66
1
70
1
0
VERTEX
8
L1
10
-10.545017477246915
20
-56.37677172565703
0
VERTEX
8
L1
10
-10.509709166224042
20
-56.3913969069472
0
VERTEX
8
L1
10
-10.474400855201154
20
-56.37677172565703
0
VERTEX
8
L1
10
-10.459775673910983
20
-56.341463414634156
0
VERTEX
8
L1
10
-10.47440085520114
20
-56.30615510361126
0
VERTEX
8
L1
10
-10.509709166224042
20
-56.291529922321104
0
VERTEX
8
L1
10
-10.545017477246915
20
-56.30615510361126
0
VERTEX
8
L1
10
-10.559642658537086
20
-56.341463414634156
0
VERTEX
8
L1
10
-10.545017477246915
20
-56.37677172565703
0
SEQEND
0
POLYLINE
8
L1
66
1
70
1
0
VERTEX
8
L1
10
-9.329268292682912
20
-56.341463414634156
0
VERTEX
8
L1
10
-9.314643111392755
20
-56.37677172565703
0
VERTEX
8
L1
10
-9.279334800369867
20
-56.3913969069472
0
VERTEX
8
L1
10
-9.244026489346979
20
-56.37677172565703
0
VERTEX
8
L1
10
-9.229401308056808
20
-56.341463414634156
0
VERTEX
8
L1
10
-9.244026489346979
20
-56.30615510361126
0
VERTEX
8
L1
10
-9.279334800369867
20
-56.291529922321104
0
VERTEX
8
L1
10
-9.314643111392755
20
-56.30615510361126
0
VERTEX
8
L1
10
-9.329268292682912
20
-56.341463414634156
0
SEQEND
0
POLYLINE
8
L1
66
1
70
1
0
VERTEX
8
L1
10
-7.015958132509155
20
-56.30615510361126
0
VERTEX
8
L1
10
-7.051266443532029
20
-56.291529922321104
0
VERTEX
8
L1
10
-7.086574754554917
20
-56.30615510361126
0
VERTEX
8
L1
10
-7.101199935845088
20
-56.341463414634156
0
VERTEX
8
L1
10
-7.086574754554903
20
-56.37677172565703
0
VERTEX
8
L1
10
-7.051266443532029
20
-56.3913969069472
0
VERTEX
8
L1
10
-7.015958132509155
20
-56.37677172565703
0
VERTEX
8
L1
10
-7.001332951218984
20
-56.341463414634156
0
VERTEX
8
L1
10
-7.015958132509155
20
-56.30615510361126
0
SEQEND
0
POLYLINE
8
L1
66
1
70
1
0
VERTEX
8
L1
10
-9.906245187800437
20
-57.57448930852038
0
VERTEX
8
L1
10
-9.941058709750365
20
-57.58536585365854
0
VERTEX
8
L1
10
-9.95798470837505
20
-57.61767360992939
0
VERTEX
8
L1
10
-9.947108163236905
20
-57.65248713187932
0
VERTEX
8
L1
10
-9.914800406966037
20
-57.669413130504026
0
VERTEX
8
L1
10
-9.879986885016123
20
-57.65853658536585
0
VERTEX
8
L1
10
-9.863060886391409
20
-57.626228829095
0
VERTEX
8
L1
10
-9.873937431529583
20
-57.59141530714507
0
VERTEX
8
L1
10
-9.906245187800437
20
-57.57448930852038
0
SEQEND
0
POLYLINE
8
L1
66
1
70
1
0
VERTEX
8
L1
10
-7.647494467922755
20
-56.28048780487804
0
VERTEX
8
L1
10
-7.769445687434967
20
-56.28048780487804
0
VERTEX
8
L1
10
-7.769445687434967
20
-56.40243902439024
0
VERTEX
8
L1
10
-7.647494467922755
20
-56.40243902439024
0
VERTEX
8
L1
10
-7.647494467922755
20
-56.28048780487804
0
SEQEND
0
POLYLINE
8
L1
66
1
70
1
0
VERTEX
8
L1
10
-7.764086280010474
20
-55.097560975609746
0
VERTEX
8
L1
10
-7.729272758060546
20
-55.108437520747906
0
VERTEX
8
L1
10
-7.6969650017896925
20
-55.09151152212321
0
VERTEX
8
L1
10
-7.686088456651518
20
-55.056698000173284
0
VERTEX
8
L1
10
-7.703014455276232
20
-55.02439024390243
0
VERTEX
8
L1
10
-7.7378279772261465
20
-55.01351369876427
0
VERTEX
8
L1
10
-7.770135733497014
20
-55.030439697388964
0
VERTEX
8
L1
10
-7.781012278635174
20
-55.06525321933889
0
VERTEX
8
L1
10
-7.764086280010474
20
-55.097560975609746
0
SEQEND
0
POLYLINE
8
L1
66
1
70
1
0
VERTEX
8
L1
10
-7.995055443532507
20
-56.28048780487804
0
VERTEX
8
L1
10
-8.11700666304472
20
-56.28048780487804
0
VERTEX
8
L1
10
-8.11700666304472
20
-56.40243902439024
0
VERTEX
8
L1
10
-7.995055443532507
20
-56.40243902439024
0
VERTEX
8
L1
10
-7.995055443532507
20
-56.28048780487804
0
SEQEND
0
POLYLINE
8
L1
66
1
70
1
0
VERTEX
8
L1
10
-8.562332602702881
20
-55.108437520747906
0
VERTEX
8
L1
10
-8.530024846432028
20
-55.09151152212321
0
VERTEX
8
L1
10
-8.519148301293868
20
-55.056698000173284
0
VERTEX
8
L1
10
-8.536074299918567
20
-55.02439024390243
0
VERTEX
8
L1
10
-8.570887821868496
20
-55.01351369876427
0
VERTEX
8
L1
10
-8.60319557813935
20
-55.030439697388964
0
VERTEX
8
L1
10
-8.61407212327751
20
-55.06525321933889
0
VERTEX
8
L1
10
-8.59714612465281
20
-55.097560975609746
0
VERTEX
8
L1
10
-8.562332602702881
20
-55.108437520747906
0
SEQEND
0
POLYLINE
8
L1
66
1
70
1
0
VERTEX
8
L1
10
-8.663481141833316
20
-56.795203665213094
0
VERTEX
8
L1
10
-8.56693443726546
20
-56.795203665213094
0
VERTEX
8
L1
10
-8.56693443726546
20
-57.40495976277407
0
VERTEX
8
L1
10
-8.591324681167904
20
-57.40495976277407
0
VERTEX
8
L1
10
-8.591324681167904
20
-57.52691098228627
0
VERTEX
8
L1
10
-8.469373461655707
20
-57.52691098228627
0
VERTEX
8
L1
10
-8.469373461655707
20
-56.69764268960334
0
VERTEX
8
L1
10
-8.541529922321118
20
-56.69764268960334
0
VERTEX
8
L1
10
-8.541529922321118
20
-56.28048780487804
0
VERTEX
8
L1
10
-8.66348114183333
20
-56.28048780487804
0
VERTEX
8
L1
10
-8.663481141833316
20
-56.795203665213094
0
SEQEND
0
POLYLINE
8
L1
66
1
70
1
0
VERTEX
8
L1
10
-7.87528352976598
20
-57.65853658536585
0
VERTEX
8
L1
10
-7.840470007816066
20
-57.66941313050401
0
VERTEX
8
L1
10
-7.808162251545198
20
-57.65248713187932
0
VERTEX
8
L1
10
-7.797285706407038
20
-57.61767360992939
0
VERTEX
8
L1
10
-7.814211705031738
20
-57.58536585365854
0
VERTEX
8
L1
10
-7.8490252269816665
20
-57.57448930852038
0
VERTEX
8
L1
10
-7.88133298325252
20
-57.59141530714507
0
VERTEX
8
L1
10
-7.89220952839068
20
-57.626228829095
0
VERTEX
8
L1
10
-7.87528352976598
20
-57.65853658536585
0
SEQEND
0
POLYLINE
8
L1
66
1
70
1
0
VERTEX
8
L1
10
-9.91348114183333
20
-56.40243902439024
0
VERTEX
8
L1
10
-9.791529922321118
20
-56.40243902439024
0
VERTEX
8
L1
10
-9.791529922321118
20
-56.28048780487804
0
VERTEX
8
L1
10
-9.91348114183333
20
-56.28048780487804
0
VERTEX
8
L1
10
-9.91348114183333
20
-56.40243902439024
0
SEQEND
0
POLYLINE
8
L1
66
1
70
1
0
VERTEX
8
L1
10
-4.426829268292678
20
-55.02439024390243
0
VERTEX
8
L1
10
-4.443755266917378
20
-55.056698000173284
0
VERTEX
8
L1
10
-4.432878721779218
20
-55.09151152212321
0
VERTEX
8
L1
10
-4.400570965508365
20
-55.10843752074792
0
VERTEX
8
L1
10
-4.3657574435584365
20
-55.097560975609746
0
VERTEX
8
L1
10
-4.348831444933722
20
-55.06525321933889
0
VERTEX
8
L1
10
-4.359707990071897
20
-55.030439697388964
0
VERTEX
8
L1
10
-4.39201574634275
20
-55.01351369876427
0
VERTEX
8
L1
10
-4.426829268292678
20
-55.02439024390243
0
SEQEND
0
POLYLINE
8
L1
66
1
70
1
0
VERTEX
8
L1
10
-1.548876702782934
20
-57.65853658536585
0
VERTEX
8
L1
10
-1.5140631808330198
20
-57.66941313050401
0
VERTEX
8
L1
10
-1.4817554245621523
20
-57.65248713187932
0
VERTEX
8
L1
10
-1.4708788794239922
20
-57.61767360992939
0
VERTEX
8
L1
10
-1.487804878048692
20
-57.58536585365854
0
VERTEX
8
L1
10
-1.5226183999986205
20
-57.57448930852038
0
VERTEX
8
L1
10
-1.5549261562694738
20
-57.59141530714507
0
VERTEX
8
L1
10
-1.565802701407634
20
-57.626228829095
0
VERTEX
8
L1
10
-1.548876702782934
20
-57.65853658536585
0
SEQEND
0
POLYLINE
8
L1
66
1
70
1
0
VERTEX
8
L1
10
-3.4281960638408577
20
-55.02439024390243
0
VERTEX
8
L1
10
-3.445122062465572
20
-55.0566980001733
0
VERTEX
8
L1
10
-3.4342455173273976
20
-55.09151152212321
0
VERTEX
8
L1
10
-3.401937761056544
20
-55.10843752074792
0
VERTEX
8
L1
10
-3.367124239106616
20
-55.097560975609746
0
VERTEX
8
L1
10
-3.350198240481916
20
-55.06525321933889
0
VERTEX
8
L1
10
-3.361074785620076
20
-55.030439697388964
0
VERTEX
8
L1
10
-3.3933825418909436
20
-55.01351369876427
0
VERTEX
8
L1
10
-3.4281960638408577
20
-55.02439024390243
0
SEQEND
0
POLYLINE
8
L1
66
1
70
1
0
VERTEX
8
L1
10
-4.691358940661559
20
-56.37677172565703
0
VERTEX
8
L1
10
-4.656050629638685
20
-56.3913969069472
0
VERTEX
8
L1
10
-4.620742318615797
20
-56.37677172565703
0
VERTEX
8
L1
10
-4.606117137325626
20
-56.341463414634156
0
VERTEX
8
L1
10
-4.6207423186157826
20
-56.30615510361126
0
VERTEX
8
L1
10
-4.656050629638685
20
-56.291529922321104
0
VERTEX
8
L1
10
-4.691358940661559
20
-56.30615510361126
0
VERTEX
8
L1
10
-4.7059841219517295
20
-56.341463414634156
0
VERTEX
8
L1
10
-4.691358940661559
20
-56.37677172565703
0
SEQEND
0
POLYLINE
8
L1
66
1
70
1
0
VERTEX
8
L1
10
-3.4756097560975547
20
-56.341463414634156
0
VERTEX
8
L1
10
-3.460984574807398
20
-56.37677172565703
0
VERTEX
8
L1
10
-3.42567626378451
20
-56.3913969069472
0
VERTEX
8
L1
10
-3.390367952761622
20
-56.37677172565703
0
VERTEX
8
L1
10
-3.375742771471451
20
-56.341463414634156
0
VERTEX
8
L1
10
-3.390367952761622
20
-56.30615510361126
0
VERTEX
8
L1
10
-3.42567626378451
20
-56.291529922321104
0
VERTEX
8
L1
10
-3.460984574807398
20
-56.30615510361126
0
VERTEX
8
L1
10
-3.4756097560975547
20
-56.341463414634156
0
SEQEND
0
POLYLINE
8
L1
66
1
70
1
0
VERTEX
8
L1
10
-1.1622995959237983
20
-56.30615510361126
0
VERTEX
8
L1
10
-1.197607906946672
20
-56.291529922321104
0
VERTEX
8
L1
10
-1.23291621796956
20
-56.30615510361126
0
VERTEX
8
L1
10
-1.247541399259731
20
-56.341463414634156
0
VERTEX
8
L1
10
-1.2329162179695459
20
-56.37677172565703
0
VERTEX
8
L1
10
-1.197607906946672
20
-56.3913969069472
0
VERTEX
8
L1
10
-1.1622995959237983
20
-56.37677172565703
0
VERTEX
8
L1
10
-1.1476744146336273
20
-56.341463414634156
0
VERTEX
8
L1
10
-1.1622995959237983
20
-56.30615510361126
0
SEQEND
0
POLYLINE
8
L1
66
1
70
1
0
VERTEX
8
L1
10
-4.05258665121508
20
-57.57448930852038
0
VERTEX
8
L1
10
-4.087400173165008
20
-57.58536585365854
0
VERTEX
8
L1
10
-4.104326171789694
20
-57.61767360992939
0
VERTEX
8
L1
10
-4.093449626651548
20
-57.65248713187932
0
VERTEX
8
L1
10
-4.0611418703806805
20
-57.669413130504026
0
VERTEX
8
L1
10
-4.026328348430766
20
-57.65853658536585
0
VERTEX
8
L1
10
-4.009402349806052
20
-57.626228829095
0
VERTEX
8
L1
10
-4.0202788949442265
20
-57.59141530714507
0
VERTEX
8
L1
10
-4.05258665121508
20
-57.57448930852038
0
SEQEND
0
POLYLINE
8
L1
66
1
70
1
0
VERTEX
8
L1
10
-1.793835931337398
20
-56.28048780487804
0
VERTEX
8
L1
10
-1.91578715084961
20
-56.28048780487804
0
VERTEX
8
L1
10
-1.91578715084961
20
-56.40243902439024
0
VERTEX
8
L1
10
-1.793835931337398
20
-56.40243902439024
0
VERTEX
8
L1
10
-1.793835931337398
20
-56.28048780487804
0
SEQEND
0
POLYLINE
8
L1
66
1
70
1
0
VERTEX
8
L1
10
-1.9104277434251173
20
-55.097560975609746
0
VERTEX
8
L1
10
-1.875614221475189
20
-55.108437520747906
0
VERTEX
8
L1
10
-1.8433064652043356
20
-55.09151152212321
0
VERTEX
8
L1
10
-1.8324299200661613
20
-55.056698000173284
0
VERTEX
8
L1
10
-1.8493559186908755
20
-55.02439024390243
0
VERTEX
8
L1
10
-1.8841694406407896
20
-55.01351369876427
0
VERTEX
8
L1
10
-1.9164771969116572
20
-55.030439697388964
0
VERTEX
8
L1
10
-1.9273537420498172
20
-55.06525321933889
0
VERTEX
8
L1
10
-1.9104277434251173
20
-55.097560975609746
0
SEQEND
0
POLYLINE
8
L1
66
1
70
1
0
VERTEX
8
L1
10
-2.1413969069471506
20
-56.28048780487804
0
VERTEX
8
L1
10
-2.2633481264593627
20
-56.28048780487804
0
VERTEX
8
L1
10
-2.2633481264593627
20
-56.40243902439024
0
VERTEX
8
L1
10
-2.1413969069471506
20
-56.40243902439024
0
VERTEX
8
L1
10
-2.1413969069471506
20
-56.28048780487804
0
SEQEND
0
POLYLINE
8
L1
66
1
70
1
0
VERTEX
8
L1
10
-2.708674066117524
20
-55.108437520747906
0
VERTEX
8
L1
10
-2.676366309846671
20
-55.09151152212321
0
VERTEX
8
L1
10
-2.6654897647085107
20
-55.056698000173284
0
VERTEX
8
L1
10
-2.6824157633332106
20
-55.02439024390243
0
VERTEX
8
L1
10
-2.717229285283139
20
-55.01351369876427
0
VERTEX
8
L1
10
-2.7495370415539924
20
-55.030439697388964
0
VERTEX
8
L1
10
-2.7604135866921524
20
-55.06525321933889
0
VERTEX
8
L1
10
-2.7434875880674525
20
-55.097560975609746
0
VERTEX
8
L1
10
-2.708674066117524
20
-55.108437520747906
0
SEQEND
0
POLYLINE
8
L1
66
1
70
1
0
VERTEX
8
L1
10
-2.809822605247959
20
-56.795203665213094
0
VERTEX
8
L1
10
-2.7132759006801024
20
-56.795203665213094
0
VERTEX
8
L1
10
-2.7132759006801024
20
-57.40495976277407
0
VERTEX
8
L1
10
-2.7376661445825476
20
-57.40495976277407
0
VERTEX
8
L1
10
-2.7376661445825476
20
-57.52691098228627
0
VERTEX
8
L1
10
-2.6157149250703498
20
-57.52691098228627
0
VERTEX
8
L1
10
-2.6157149250703498
20
-56.69764268960334
0
VERTEX
8
L1
10
-2.687871385735761
20
-56.69764268960334
0
VERTEX
8
L1
10
-2.687871385735761
20
-56.28048780487804
0
VERTEX
8
L1
10
-2.809822605247973
20
-56.28048780487804
0
VERTEX
8
L1
10
-2.809822605247959
20
-56.795203665213094
0
SEQEND
0
POLYLINE
8
L1
66
1
70
1
0
VERTEX
8
L1
10
-2.021624993180623
20
-57.65853658536585
0
VERTEX
8
L1
10
-1.986811471230709
20
-57.66941313050401
0
VERTEX
8
L1
10
-1.9545037149598414
20
-57.65248713187932
0
VERTEX
8
L1
10
-1.9436271698216814
20
-57.61767360992939
0
VERTEX
8
L1
10
-1.9605531684463813
20
-57.58536585365854
0
VERTEX
8
L1
10
-1.9953666903963097
20
-57.57448930852038
0
VERTEX
8
L1
10
-2.027674446667163
20
-57.59141530714507
0
VERTEX
8
L1
10
-2.038550991805323
20
-57.626228829095
0
VERTEX
8
L1
10
-2.021624993180623
20
-57.65853658536585
0
SEQEND
0
POLYLINE
8
L1
66
1
70
1
0
VERTEX
8
L1
10
-4.059822605247973
20
-56.40243902439024
0
VERTEX
8
L1
10
-3.937871385735761
20
-56.40243902439024
0
VERTEX
8
L1
10
-3.937871385735761
20
-56.28048780487804
0
VERTEX
8
L1
10
-4.059822605247973
20
-56.28048780487804
0
VERTEX
8
L1
10
-4.059822605247973
20
-56.40243902439024
0
SEQEND
0
POLYLINE
8
L1
66
1
70
1
0
VERTEX
8
L1
10
1.4268292682926926
20
-55.02439024390243
0
VERTEX
8
L1
10
1.4099032696679927
20
-55.056698000173284
0
VERTEX
8
L1
10
1.4207798148061528
20
-55.09151152212321
0
VERTEX
8
L1
10
1.4530875710770061
20
-55.10843752074792
0
VERTEX
8
L1
10
1.4879010930269345
20
-55.097560975609746
0
VERTEX
8
L1
10
1.5048270916516486
20
-55.06525321933889
0
VERTEX
8
L1
10
1.4939505465134744
20
-55.030439697388964
0
VERTEX
8
L1
10
1.461642790242621
20
-55.01351369876427
0
VERTEX
8
L1
10
1.4268292682926926
20
-55.02439024390243
0
SEQEND
0
POLYLINE
8
L1
66
1
70
1
0
VERTEX
8
L1
10
4.304781833802437
20
-57.65853658536585
0
VERTEX
8
L1
10
4.339595355752351
20
-57.66941313050401
0
VERTEX
8
L1
10
4.371903112023219
20
-57.65248713187932
0
VERTEX
8
L1
10
4.382779657161379
20
-57.61767360992939
0
VERTEX
8
L1
10
4.365853658536679
20
-57.58536585365854
0
VERTEX
8
L1
10
4.331040136586765
20
-57.57448930852038
0
VERTEX
8
L1
10
4.298732380315897
20
-57.59141530714507
0
VERTEX
8
L1
10
4.287855835177737
20
-57.626228829095
0
VERTEX
8
L1
10
4.304781833802437
20
-57.65853658536585
0
SEQEND
0
POLYLINE
8
L1
66
1
70
1
0
VERTEX
8
L1
10
2.4254624727445133
20
-55.02439024390243
0
VERTEX
8
L1
10
2.408536474119799
20
-55.0566980001733
0
VERTEX
8
L1
10
2.4194130192579735
20
-55.09151152212321
0
VERTEX
8
L1
10
2.451720775528827
20
-55.10843752074792
0
VERTEX
8
L1
10
2.486534297478755
20
-55.097560975609746
0
VERTEX
8
L1
10
2.503460296103455
20
-55.06525321933889
0
VERTEX
8
L1
10
2.492583750965295
20
-55.030439697388964
0
VERTEX
8
L1
10
2.4602759946944275
20
-55.01351369876427
0
VERTEX
8
L1
10
2.4254624727445133
20
-55.02439024390243
0
SEQEND
0
POLYLINE
8
L1
66
1
70
1
0
VERTEX
8
L1
10
1.1622995959238125
20
-56.37677172565703
0
VERTEX
8
L1
10
1.1976079069466863
20
-56.3913969069472
0
VERTEX
8
L1
10
1.2329162179695743
20
-56.37677172565703
0
VERTEX
8
L1
10
1.2475413992597453
20
-56.341463414634156
0
VERTEX
8
L1
10
1.2329162179695885
20
-56.30615510361126
0
VERTEX
8
L1
10
1.1976079069466863
20
-56.291529922321104
0
VERTEX
8
L1
10
1.1622995959238125
20
-56.30615510361126
0
VERTEX
8
L1
10
1.1476744146336415
20
-56.341463414634156
0
VERTEX
8
L1
10
1.1622995959238125
20
-56.37677172565703
0
SEQEND
0
POLYLINE
8
L1
66
1
70
1
0
VERTEX
8
L1
10
2.3780487804878163
20
-56.341463414634156
0
VERTEX
8
L1
10
2.392673961777973
20
-56.37677172565703
0
VERTEX
8
L1
10
2.427982272800861
20
-56.3913969069472
0
VERTEX
8
L1
10
2.463290583823749
20
-56.37677172565703
0
VERTEX
8
L1
10
2.47791576511392
20
-56.341463414634156
0
VERTEX
8
L1
10
2.463290583823749
20
-56.30615510361126
0
VERTEX
8
L1
10
2.427982272800861
20
-56.291529922321104
0
VERTEX
8
L1
10
2.392673961777973
20
-56.30615510361126
0
VERTEX
8
L1
10
2.3780487804878163
20
-56.341463414634156
0
SEQEND
0
POLYLINE
8
L1
66
1
70
1
0
VERTEX
8
L1
10
4.691358940661573
20
-56.30615510361126
0
VERTEX
8
L1
10
4.656050629638699
20
-56.291529922321104
0
VERTEX
8
L1
10
4.620742318615811
20
-56.30615510361126
0
VERTEX
8
L1
10
4.60611713732564
20
-56.341463414634156
0
VERTEX
8
L1
10
4.620742318615825
20
-56.37677172565703
0
VERTEX
8
L1
10
4.656050629638699
20
-56.3913969069472
0
VERTEX
8
L1
10
4.691358940661573
20
-56.37677172565703
0
VERTEX
8
L1
10
4.705984121951744
20
-56.341463414634156
0
VERTEX
8
L1
10
4.691358940661573
20
-56.30615510361126
0
SEQEND
0
POLYLINE
8
L1
66
1
70
1
0
VERTEX
8
L1
10
1.8010718853702912
20
-57.57448930852038
0
VERTEX
8
L1
10
1.7662583634203628
20
-57.58536585365854
0
VERTEX
8
L1
10
1.749332364795677
20
-57.61767360992939
0
VERTEX
8
L1
10
1.760208909933823
20
-57.65248713187932
0
VERTEX
8
L1
10
1.7925166662046905
20
-57.669413130504026
0
VERTEX
8
L1
10
1.8273301881546047
20
-57.65853658536585
0
VERTEX
8
L1
10
1.8442561867793188
20
-57.626228829095
0
VERTEX
8
L1
10
1.8333796416411445
20
-57.59141530714507
0
VERTEX
8
L1
10
1.8010718853702912
20
-57.57448930852038
0
SEQEND
0
POLYLINE
8
L1
66
1
70
1
0
VERTEX
8
L1
10
4.059822605247973
20
-56.28048780487804
0
VERTEX
8
L1
10
3.937871385735761
20
-56.28048780487804
0
VERTEX
8
L1
10
3.937871385735761
20
-56.40243902439024
0
VERTEX
8
L1
10
4.059822605247973
20
-56.40243902439024
0
VERTEX
8
L1
10
4.059822605247973
20
-56.28048780487804
0
SEQEND
0
POLYLINE
8
L1
66
1
70
1
0
VERTEX
8
L1
10
3.9432307931602537
20
-55.097560975609746
0
VERTEX
8
L1
10
3.978044315110182
20
-55.108437520747906
0
VERTEX
8
L1
10
4.010352071381035
20
-55.09151152212321
0
VERTEX
8
L1
10
4.02122861651921
20
-55.056698000173284
0
VERTEX
8
L1
10
4.004302617894496
20
-55.02439024390243
0
VERTEX
8
L1
10
3.9694890959445814
20
-55.01351369876427
0
VERTEX
8
L1
10
3.937181339673714
20
-55.030439697388964
0
VERTEX
8
L1
10
3.926304794535554
20
-55.06525321933889
0
VERTEX
8
L1
10
3.9432307931602537
20
-55.097560975609746
0
SEQEND
0
POLYLINE
8
L1
66
1
70
1
0
VERTEX
8
L1
10
3.7122616296382205
20
-56.28048780487804
0
VERTEX
8
L1
10
3.5903104101260084
20
-56.28048780487804
0
VERTEX
8
L1
10
3.5903104101260084
20
-56.40243902439024
0
VERTEX
8
L1
10
3.7122616296382205
20
-56.40243902439024
0
VERTEX
8
L1
10
3.7122616296382205
20
-56.28048780487804
0
SEQEND
0
POLYLINE
8
L1
66
1
70
1
0
VERTEX
8
L1
10
3.144984470467847
20
-55.108437520747906
0
VERTEX
8
L1
10
3.1772922267387003
20
-55.09151152212321
0
VERTEX
8
L1
10
3.1881687718768603
20
-55.056698000173284
0
VERTEX
8
L1
10
3.1712427732521604
20
-55.02439024390243
0
VERTEX
8
L1
10
3.136429251302232
20
-55.01351369876427
0
VERTEX
8
L1
10
3.1041214950313787
20
-55.030439697388964
0
VERTEX
8
L1
10
3.0932449498932186
20
-55.06525321933889
0
VERTEX
8
L1
10
3.1101709485179185
20
-55.097560975609746
0
VERTEX
8
L1
10
3.144984470467847
20
-55.108437520747906
0
SEQEND
0
POLYLINE
8
L1
66
1
70
1
0
VERTEX
8
L1
10
3.043835931337412
20
-56.795203665213094
0
VERTEX
8
L1
10
3.1403826359052687
20
-56.795203665213094
0
VERTEX
8
L1
10
3.1403826359052687
20
-57.40495976277407
0
VERTEX
8
L1
10
3.1159923920028234
20
-57.40495976277407
0
VERTEX
8
L1
10
3.1159923920028234
20
-57.52691098228627
0
VERTEX
8
L1
10
3.2379436115150213
20
-57.52691098228627
0
VERTEX
8
L1
10
3.2379436115150213
20
-56.69764268960334
0
VERTEX
8
L1
10
3.16578715084961
20
-56.69764268960334
0
VERTEX
8
L1
10
3.16578715084961
20
-56.28048780487804
0
VERTEX
8
L1
10
3.043835931337398
20
-56.28048780487804
0
VERTEX
8
L1
10
3.043835931337412
20
-56.795203665213094
0
SEQEND
0
POLYLINE
8
L1
66
1
70
1
0
VERTEX
8
L1
10
3.832033543404748
20
-57.65853658536585
0
VERTEX
8
L1
10
3.866847065354662
20
-57.66941313050401
0
VERTEX
8
L1
10
3.8991548216255296
20
-57.65248713187932
0
VERTEX
8
L1
10
3.9100313667636897
20
-57.61767360992939
0
VERTEX
8
L1
10
3.8931053681389898
20
-57.58536585365854
0
VERTEX
8
L1
10
3.8582918461890614
20
-57.57448930852038
0
VERTEX
8
L1
10
3.825984089918208
20
-57.59141530714507
0
VERTEX
8
L1
10
3.815107544780048
20
-57.626228829095
0
VERTEX
8
L1
10
3.832033543404748
20
-57.65853658536585
0
SEQEND
0
POLYLINE
8
L1
66
1
70
1
0
VERTEX
8
L1
10
1.793835931337398
20
-56.40243902439024
0
VERTEX
8
L1
10
1.91578715084961
20
-56.40243902439024
0
VERTEX
8
L1
10
1.91578715084961
20
-56.28048780487804
0
VERTEX
8
L1
10
1.793835931337398
20
-56.28048780487804
0
VERTEX
8
L1
10
1.793835931337398
20
-56.40243902439024
0
SEQEND
0
POLYLINE
8
L1
66
1
70
1
0
VERTEX
8
L1
10
7.2804878048780495
20
-55.02439024390243
0
VERTEX
8
L1
10
7.26356180625335
20
-55.056698000173284
0
VERTEX
8
L1
10
7.27443835139151
20
-55.09151152212321
0
VERTEX
8
L1
10
7.306746107662363
20
-55.10843752074792
0
VERTEX
8
L1
10
7.341559629612291
20
-55.097560975609746
0
VERTEX
8
L1
10
7.3584856282370055
20
-55.06525321933889
0
VERTEX
8
L1
10
7.347609083098831
20
-55.030439697388964
0
VERTEX
8
L1
10
7.315301326827978
20
-55.01351369876427
0
VERTEX
8
L1
10
7.2804878048780495
20
-55.02439024390243
0
SEQEND
0
POLYLINE
8
L1
66
1
70
1
0
VERTEX
8
L1
10
10.158440370387794
20
-57.65853658536585
0
VERTEX
8
L1
10
10.193253892337708
20
-57.66941313050401
0
VERTEX
8
L1
10
10.225561648608576
20
-57.65248713187932
0
VERTEX
8
L1
10
10.236438193746736
20
-57.61767360992939
0
VERTEX
8
L1
10
10.219512195122036
20
-57.58536585365854
0
VERTEX
8
L1
10
10.184698673172122
20
-57.57448930852038
0
VERTEX
8
L1
10
10.152390916901254
20
-57.59141530714507
0
VERTEX
8
L1
10
10.141514371763094
20
-57.626228829095
0
VERTEX
8
L1
10
10.158440370387794
20
-57.65853658536585
0
SEQEND
0
POLYLINE
8
L1
66
1
70
1
0
VERTEX
8
L1
10
8.27912100932987
20
-55.02439024390243
0
VERTEX
8
L1
10
8.262195010705156
20
-55.0566980001733
0
VERTEX
8
L1
10
8.27307155584333
20
-55.09151152212321
0
VERTEX
8
L1
10
8.305379312114184
20
-55.10843752074792
0
VERTEX
8
L1
10
8.340192834064112
20
-55.097560975609746
0
VERTEX
8
L1
10
8.357118832688812
20
-55.06525321933889
0
VERTEX
8
L1
10
8.346242287550652
20
-55.030439697388964
0
VERTEX
8
L1
10
8.313934531279784
20
-55.01351369876427
0
VERTEX
8
L1
10
8.27912100932987
20
-55.02439024390243
0
SEQEND
0
POLYLINE
8
L1
66
1
70
1
0
VERTEX
8
L1
10
7.015958132509169
20
-56.37677172565703
0
VERTEX
8
L1
10
7.051266443532043
20
-56.3913969069472
0
VERTEX
8
L1
10
7.086574754554931
20
-56.37677172565703
0
VERTEX
8
L1
10
7.101199935845102
20
-56.341463414634156
0
VERTEX
8
L1
10
7.086574754554945
20
-56.30615510361126
0
VERTEX
8
L1
10
7.051266443532043
20
-56.291529922321104
0
VERTEX
8
L1
10
7.015958132509169
20
-56.30615510361126
0
VERTEX
8
L1
10
7.001332951218998
20
-56.341463414634156
0
VERTEX
8
L1
10
7.015958132509169
20
-56.37677172565703
0
SEQEND
0
POLYLINE
8
L1
66
1
70
1
0
VERTEX
8
L1
10
8.231707317073173
20
-56.341463414634156
0
VERTEX
8
L1
10
8.24633249836333
20
-56.37677172565703
0
VERTEX
8
L1
10
8.281640809386218
20
-56.3913969069472
0
VERTEX
8
L1
10
8.316949120409106
20
-56.37677172565703
0
VERTEX
8
L1
10
8.331574301699277
20
-56.341463414634156
0
VERTEX
8
L1
10
8.316949120409106
20
-56.30615510361126
0
VERTEX
8
L1
10
8.281640809386218
20
-56.291529922321104
0
VERTEX
8
L1
10
8.24633249836333
20
-56.30615510361126
0
VERTEX
8
L1
10
8.231707317073173
20
-56.341463414634156
0
SEQEND
0
POLYLINE
8
L1
66
1
70
1
0
VERTEX
8
L1
10
10.54501747724693
20
-56.30615510361126
0
VERTEX
8
L1
10
10.509709166224056
20
-56.291529922321104
0
VERTEX
8
L1
10
10.474400855201168
20
-56.30615510361126
0
VERTEX
8
L1
10
10.459775673910997
20
-56.341463414634156
0
VERTEX
8
L1
10
10.474400855201182
20
-56.37677172565703
0
VERTEX
8
L1
10
10.509709166224056
20
-56.3913969069472
0
VERTEX
8
L1
10
10.54501747724693
20
-56.37677172565703
0
VERTEX
8
L1
10
10.5596426585371
20
-56.341463414634156
0
VERTEX
8
L1
10
10.54501747724693
20
-56.30615510361126
0
SEQEND
0
POLYLINE
8
L1
66
1
70
1
0
VERTEX
8
L1
10
7.654730421955648
20
-57.57448930852038
0
VERTEX
8
L1
10
7.61991690000572
20
-57.58536585365854
0
VERTEX
8
L1
10
7.602990901381034
20
-57.61767360992939
0
VERTEX
8
L1
10
7.61386744651918
20
-57.65248713187932
0
VERTEX
8
L1
10
7.646175202790047
20
-57.669413130504026
0
VERTEX
8
L1
10
7.6809887247399615
20
-57.65853658536585
0
VERTEX
8
L1
10
7.697914723364676
20
-57.626228829095
0
VERTEX
8
L1
10
7.687038178226501
20
-57.59141530714507
0
VERTEX
8
L1
10
7.654730421955648
20
-57.57448930852038
0
SEQEND
0
POLYLINE
8
L1
66
1
70
1
0
VERTEX
8
L1
10
9.91348114183333
20
-56.28048780487804
0
VERTEX
8
L1
10
9.791529922321118
20
-56.28048780487804
0
VERTEX
8
L1
10
9.791529922321118
20
-56.40243902439024
0
VERTEX
8
L1
10
9.91348114183333
20
-56.40243902439024
0
VERTEX
8
L1
10
9.91348114183333
20
-56.28048780487804
0
SEQEND
0
POLYLINE
8
L1
66
1
70
1
0
VERTEX
8
L1
10
9.79688932974561
20
-55.097560975609746
0
VERTEX
8
L1
10
9.831702851695539
20
-55.108437520747906
0
VERTEX
8
L1
10
9.864010607966392
20
-55.09151152212321
0
VERTEX
8
L1
10
9.874887153104567
20
-55.056698000173284
0
VERTEX
8
L1
10
9.857961154479852
20
-55.02439024390243
0
VERTEX
8
L1
10
9.823147632529938
20
-55.01351369876427
0
VERTEX
8
L1
10
9.79083987625907
20
-55.030439697388964
0
VERTEX
8
L1
10
9.77996333112091
20
-55.06525321933889
0
VERTEX
8
L1
10
9.79688932974561
20
-55.097560975609746
0
SEQEND
0
POLYLINE
8
L1
66
1
70
1
0
VERTEX
8
L1
10
9.565920166223577
20
-56.28048780487804
0
VERTEX
8
L1
10
9.443968946711365
20
-56.28048780487804
0
VERTEX
8
L1
10
9.443968946711365
20
-56.40243902439024
0
VERTEX
8
L1
10
9.565920166223577
20
-56.40243902439024
0
VERTEX
8
L1
10
9.565920166223577
20
-56.28048780487804
0
SEQEND
0
POLYLINE
8
L1
66
1
70
1
0
VERTEX
8
L1
10
8.998643007053204
20
-55.108437520747906
0
VERTEX
8
L1
10
9.030950763324057
20
-55.09151152212321
0
VERTEX
8
L1
10
9.041827308462217
20
-55.056698000173284
0
VERTEX
8
L1
10
9.024901309837517
20
-55.02439024390243
0
VERTEX
8
L1
10
8.990087787887589
20
-55.01351369876427
0
VERTEX
8
L1
10
8.957780031616736
20
-55.030439697388964
0
VERTEX
8
L1
10
8.946903486478575
20
-55.06525321933889
0
VERTEX
8
L1
10
8.963829485103275
20
-55.097560975609746
0
VERTEX
8
L1
10
8.998643007053204
20
-55.108437520747906
0
SEQEND
0
POLYLINE
8
L1
66
1
70
1
0
VERTEX
8
L1
10
8.897494467922769
20
-56.795203665213094
0
VERTEX
8
L1
10
8.994041172490626
20
-56.795203665213094
0
VERTEX
8
L1
10
8.994041172490626
20
-57.40495976277407
0
VERTEX
8
L1
10
8.96965092858818
20
-57.40495976277407
0
VERTEX
8
L1
10
8.96965092858818
20
-57.52691098228627
0
VERTEX
8
L1
10
9.091602148100378
20
-57.52691098228627
0
VERTEX
8
L1
10
9.091602148100378
20
-56.69764268960334
0
VERTEX
8
L1
10
9.019445687434967
20
-56.69764268960334
0
VERTEX
8
L1
10
9.019445687434967
20
-56.28048780487804
0
VERTEX
8
L1
10
8.897494467922755
20
-56.28048780487804
0
VERTEX
8
L1
10
8.897494467922769
20
-56.795203665213094
0
SEQEND
0
POLYLINE
8
L1
66
1
70
1
0
VERTEX
8
L1
10
9.685692079990105
20
-57.65853658536585
0
VERTEX
8
L1
10
9.720505601940019
20
-57.66941313050401
0
VERTEX
8
L1
10
9.752813358210886
20
-57.65248713187932
0
VERTEX
8
L1
10
9.763689903349047
20
-57.61767360992939
0
VERTEX
8
L1
10
9.746763904724347
20
-57.58536585365854
0
VERTEX
8
L1
10
9.711950382774418
20
-57.57448930852038
0
VERTEX
8
L1
10
9.679642626503565
20
-57.59141530714507
0
VERTEX
8
L1
10
9.668766081365405
20
-57.626228829095
0
VERTEX
8
L1
10
9.685692079990105
20
-57.65853658536585
0
SEQEND
0
POLYLINE
8
L1
66
1
70
1
0
VERTEX
8
L1
10
7.647494467922755
20
-56.40243902439024
0
VERTEX
8
L1
10
7.769445687434967
20
-56.40243902439024
0
VERTEX
8
L1
10
7.769445687434967
20
-56.28048780487804
0
VERTEX
8
L1
10
7.647494467922755
20
-56.28048780487804
0
VERTEX
8
L1
10
7.647494467922755
20
-56.40243902439024
0
SEQEND
0
POLYLINE
8
L1
66
1
70
1
0
VERTEX
8
L1
10
13.13414634146342
20
-55.02439024390243
0
VERTEX
8
L1
10
13.11722034283872
20
-55.056698000173284
0
VERTEX
8
L1
10
13.12809688797688
20
-55.09151152212321
0
VERTEX
8
L1
10
13.160404644247734
20
-55.10843752074792
0
VERTEX
8
L1
10
13.195218166197662
20
-55.097560975609746
0
VERTEX
8
L1
10
13.212144164822377
20
-55.06525321933889
0
VERTEX
8
L1
10
13.201267619684202
20
-55.030439697388964
0
VERTEX
8
L1
10
13.168959863413349
20
-55.01351369876427
0
VERTEX
8
L1
10
13.13414634146342
20
-55.02439024390243
0
SEQEND
0
POLYLINE
8
L1
66
1
70
1
0
VERTEX
8
L1
10
16.012098906973165
20
-57.65853658536585
0
VERTEX
8
L1
10
16.04691242892308
20
-57.66941313050401
0
VERTEX
8
L1
10
16.079220185193947
20
-57.65248713187932
0
VERTEX
8
L1
10
16.090096730332107
20
-57.61767360992939
0
VERTEX
8
L1
10
16.073170731707407
20
-57.58536585365854
0
VERTEX
8
L1
10
16.03835720975748
20
-57.57448930852038
0
VERTEX
8
L1
10
16.006049453486625
20
-57.59141530714507
0
VERTEX
8
L1
10
15.995172908348465
20
-57.626228829095
0
VERTEX
8
L1
10
16.012098906973165
20
-57.65853658536585
0
SEQEND
0
POLYLINE
8
L1
66
1
70
1
0
VERTEX
8
L1
10
14.132779545915241
20
-55.02439024390243
0
VERTEX
8
L1
10
14.115853547290527
20
-55.0566980001733
0
VERTEX
8
L1
10
14.126730092428701
20
-55.09151152212321
0
VERTEX
8
L1
10
14.159037848699555
20
-55.10843752074792
0
VERTEX
8
L1
10
14.193851370649483
20
-55.097560975609746
0
VERTEX
8
L1
10
14.210777369274183
20
-55.06525321933889
0
VERTEX
8
L1
10
14.199900824136023
20
-55.030439697388964
0
VERTEX
8
L1
10
14.167593067865155
20
-55.01351369876427
0
VERTEX
8
L1
10
14.132779545915241
20
-55.02439024390243
0
SEQEND
0
POLYLINE
8
L1
66
1
70
1
0
VERTEX
8
L1
10
12.86961666909454
20
-56.37677172565703
0
VERTEX
8
L1
10
12.904924980117414
20
-56.3913969069472
0
VERTEX
8
L1
10
12.940233291140302
20
-56.37677172565703
0
VERTEX
8
L1
10
12.954858472430473
20
-56.341463414634156
0
VERTEX
8
L1
10
12.940233291140316
20
-56.30615510361126
0
VERTEX
8
L1
10
12.904924980117414
20
-56.291529922321104
0
VERTEX
8
L1
10
12.86961666909454
20
-56.30615510361126
0
VERTEX
8
L1
10
12.85499148780437
20
-56.341463414634156
0
VERTEX
8
L1
10
12.86961666909454
20
-56.37677172565703
0
SEQEND
0
POLYLINE
8
L1
66
1
70
1
0
VERTEX
8
L1
10
14.085365853658544
20
-56.341463414634156
0
VERTEX
8
L1
10
14.099991034948701
20
-56.37677172565703
0
VERTEX
8
L1
10
14.135299345971589
20
-56.3913969069472
0
VERTEX
8
L1
10
14.170607656994477
20
-56.37677172565703
0
VERTEX
8
L1
10
14.185232838284648
20
-56.341463414634156
0
VERTEX
8
L1
10
14.170607656994477
20
-56.30615510361126
0
VERTEX
8
L1
10
14.135299345971589
20
-56.291529922321104
0
VERTEX
8
L1
10
14.099991034948701
20
-56.30615510361126
0
VERTEX
8
L1
10
14.085365853658544
20
-56.341463414634156
0
SEQEND
0
POLYLINE
8
L1
66
1
70
1
0
VERTEX
8
L1
10
16.3986760138323
20
-56.30615510361126
0
VERTEX
8
L1
10
16.363367702809427
20
-56.291529922321104
0
VERTEX
8
L1
10
16.32805939178654
20
-56.30615510361126
0
VERTEX
8
L1
10
16.313434210496368
20
-56.341463414634156
0
VERTEX
8
L1
10
16.328059391786553
20
-56.37677172565703
0
VERTEX
8
L1
10
16.363367702809427
20
-56.3913969069472
0
VERTEX
8
L1
10
16.3986760138323
20
-56.37677172565703
0
VERTEX
8
L1
10
16.41330119512247
20
-56.341463414634156
0
VERTEX
8
L1
10
16.3986760138323
20
-56.30615510361126
0
SEQEND
0
POLYLINE
8
L1
66
1
70
1
0
VERTEX
8
L1
10
13.508388958541019
20
-57.57448930852038
0
VERTEX
8
L1
10
13.47357543659109
20
-57.58536585365854
0
VERTEX
8
L1
10
13.456649437966405
20
-57.61767360992939
0
VERTEX
8
L1
10
13.46752598310455
20
-57.65248713187932
0
VERTEX
8
L1
10
13.499833739375418
20
-57.669413130504026
0
VERTEX
8
L1
10
13.534647261325333
20
-57.65853658536585
0
VERTEX
8
L1
10
13.551573259950047
20
-57.626228829095
0
VERTEX
8
L1
10
13.540696714811872
20
-57.59141530714507
0
VERTEX
8
L1
10
13.508388958541019
20
-57.57448930852038
0
SEQEND
0
POLYLINE
8
L1
66
1
70
1
0
VERTEX
8
L1
10
15.767139678418701
20
-56.28048780487804
0
VERTEX
8
L1
10
15.645188458906489
20
-56.28048780487804
0
VERTEX
8
L1
10
15.645188458906489
20
-56.40243902439024
0
VERTEX
8
L1
10
15.767139678418701
20
-56.40243902439024
0
VERTEX
8
L1
10
15.767139678418701
20
-56.28048780487804
0
SEQEND
0
POLYLINE
8
L1
66
1
70
1
0
VERTEX
8
L1
10
15.650547866330982
20
-55.097560975609746
0
VERTEX
8
L1
10
15.68536138828091
20
-55.108437520747906
0
VERTEX
8
L1
10
15.717669144551763
20
-55.09151152212321
0
VERTEX
8
L1
10
15.728545689689938
20
-55.056698000173284
0
VERTEX
8
L1
10
15.711619691065223
20
-55.02439024390243
0
VERTEX
8
L1
10
15.67680616911531
20
-55.01351369876427
0
VERTEX
8
L1
10
15.644498412844442
20
-55.030439697388964
0
VERTEX
8
L1
10
15.633621867706282
20
-55.06525321933889
0
VERTEX
8
L1
10
15.650547866330982
20
-55.097560975609746
0
SEQEND
0
POLYLINE
8
L1
66
1
70
1
0
VERTEX
8
L1
10
15.419578702808948
20
-56.28048780487804
0
VERTEX
8
L1
10
15.297627483296736
20
-56.28048780487804
0
VERTEX
8
L1
10
15.297627483296736
20
-56.40243902439024
0
VERTEX
8
L1
10
15.419578702808948
20
-56.40243902439024
0
VERTEX
8
L1
10
15.419578702808948
20
-56.28048780487804
0
SEQEND
0
POLYLINE
8
L1
66
1
70
1
0
VERTEX
8
L1
10
14.852301543638575
20
-55.108437520747906
0
VERTEX
8
L1
10
14.884609299909428
20
-55.09151152212321
0
VERTEX
8
L1
10
14.895485845047588
20
-55.056698000173284
0
VERTEX
8
L1
10
14.878559846422888
20
-55.02439024390243
0
VERTEX
8
L1
10
14.84374632447296
20
-55.01351369876427
0
VERTEX
8
L1
10
14.811438568202107
20
-55.030439697388964
0
VERTEX
8
L1
10
14.800562023063947
20
-55.06525321933889
0
VERTEX
8
L1
10
14.817488021688646
20
-55.097560975609746
0
VERTEX
8
L1
10
14.852301543638575
20
-55.108437520747906
0
SEQEND
0
POLYLINE
8
L1
66
1
70
1
0
VERTEX
8
L1
10
14.75115300450814
20
-56.795203665213094
0
VERTEX
8
L1
10
14.847699709075997
20
-56.795203665213094
0
VERTEX
8
L1
10
14.847699709075997
20
-57.40495976277407
0
VERTEX
8
L1
10
14.823309465173551
20
-57.40495976277407
0
VERTEX
8
L1
10
14.823309465173551
20
-57.52691098228627
0
VERTEX
8
L1
10
14.94526068468575
20
-57.52691098228627
0
VERTEX
8
L1
10
14.94526068468575
20
-56.69764268960334
0
VERTEX
8
L1
10
14.873104224020338
20
-56.69764268960334
0
VERTEX
8
L1
10
14.873104224020338
20
-56.28048780487804
0
VERTEX
8
L1
10
14.751153004508126
20
-56.28048780487804
0
VERTEX
8
L1
10
14.75115300450814
20
-56.795203665213094
0
SEQEND
0
POLYLINE
8
L1
66
1
70
1
0
VERTEX
8
L1
10
15.539350616575476
20
-57.65853658536585
0
VERTEX
8
L1
10
15.57416413852539
20
-57.66941313050401
0
VERTEX
8
L1
10
15.606471894796258
20
-57.65248713187932
0
VERTEX
8
L1
10
15.617348439934418
20
-57.61767360992939
0
VERTEX
8
L1
10
15.600422441309718
20
-57.58536585365854
0
VERTEX
8
L1
10
15.56560891935979
20
-57.57448930852038
0
VERTEX
8
L1
10
15.533301163088936
20
-57.59141530714507
0
VERTEX
8
L1
10
15.522424617950776
20
-57.626228829095
0
VERTEX
8
L1
10
15.539350616575476
20
-57.65853658536585
0
SEQEND
0
POLYLINE
8
L1
66
1
70
1
0
VERTEX
8
L1
10
13.501153004508126
20
-56.40243902439024
0
VERTEX
8
L1
10
13.623104224020338
20
-56.40243902439024
0
VERTEX
8
L1
10
13.623104224020338
20
-56.28048780487804
0
VERTEX
8
L1
10
13.501153004508126
20
-56.28048780487804
0
VERTEX
8
L1
10
13.501153004508126
20
-56.40243902439024
0
SEQEND
0
POLYLINE
8
L1
66
1
70
1
0
VERTEX
8
L1
10
18.987804878048777
20
-55.02439024390243
0
VERTEX
8
L1
10
18.97087887942409
20
-55.056698000173284
0
VERTEX
8
L1
10
18.98175542456225
20
-55.09151152212321
0
VERTEX
8
L1
10
19.014063180833105
20
-55.10843752074792
0
VERTEX
8
L1
10
19.048876702783033
20
-55.097560975609746
0
VERTEX
8
L1
10
19.06580270140772
20
-55.06525321933889
0
VERTEX
8
L1
10
19.05492615626956
20
-55.030439697388964
0
VERTEX
8
L1
10
19.022618399998706
20
-55.01351369876427
0
VERTEX
8
L1
10
18.987804878048777
20
-55.02439024390243
0
SEQEND
0
POLYLINE
8
L1
66
1
70
1
0
VERTEX
8
L1
10
21.865757443558536
20
-57.65853658536585
0
VERTEX
8
L1
10
21.900570965508436
20
-57.66941313050401
0
VERTEX
8
L1
10
21.932878721779318
20
-57.65248713187932
0
VERTEX
8
L1
10
21.943755266917478
20
-57.61767360992939
0
VERTEX
8
L1
10
21.926829268292764
20
-57.58536585365854
0
VERTEX
8
L1
10
21.892015746342835
20
-57.57448930852038
0
VERTEX
8
L1
10
21.859707990071982
20
-57.59141530714507
0
VERTEX
8
L1
10
21.848831444933822
20
-57.626228829095
0
VERTEX
8
L1
10
21.865757443558536
20
-57.65853658536585
0
SEQEND
0
POLYLINE
8
L1
66
1
70
1
0
VERTEX
8
L1
10
19.986438082500584
20
-55.02439024390243
0
VERTEX
8
L1
10
19.969512083875898
20
-55.0566980001733
0
VERTEX
8
L1
10
19.980388629014058
20
-55.09151152212321
0
VERTEX
8
L1
10
20.01269638528491
20
-55.10843752074792
0
VERTEX
8
L1
10
20.04750990723484
20
-55.097560975609746
0
VERTEX
8
L1
10
20.064435905859526
20
-55.06525321933889
0
VERTEX
8
L1
10
20.053559360721366
20
-55.030439697388964
0
VERTEX
8
L1
10
20.021251604450512
20
-55.01351369876427
0
VERTEX
8
L1
10
19.986438082500584
20
-55.02439024390243
0
SEQEND
0
POLYLINE
8
L1
66
1
70
1
0
VERTEX
8
L1
10
18.72327520567991
20
-56.37677172565703
0
VERTEX
8
L1
10
18.758583516702785
20
-56.3913969069472
0
VERTEX
8
L1
10
18.79389182772566
20
-56.37677172565703
0
VERTEX
8
L1
10
18.80851700901583
20
-56.341463414634156
0
VERTEX
8
L1
10
18.79389182772566
20
-56.30615510361126
0
VERTEX
8
L1
10
18.758583516702785
20
-56.291529922321104
0
VERTEX
8
L1
10
18.72327520567991
20
-56.30615510361126
0
VERTEX
8
L1
10
18.70865002438974
20
-56.341463414634156
0
VERTEX
8
L1
10
18.72327520567991
20
-56.37677172565703
0
SEQEND
0
POLYLINE
8
L1
66
1
70
1
0
VERTEX
8
L1
10
19.939024390243887
20
-56.341463414634156
0
VERTEX
8
L1
10
19.953649571534058
20
-56.37677172565703
0
VERTEX
8
L1
10
19.98895788255696
20
-56.3913969069472
0
VERTEX
8
L1
10
20.024266193579834
20
-56.37677172565703
0
VERTEX
8
L1
10
20.038891374870005
20
-56.341463414634156
0
VERTEX
8
L1
10
20.024266193579834
20
-56.30615510361126
0
VERTEX
8
L1
10
19.98895788255696
20
-56.291529922321104
0
VERTEX
8
L1
10
19.953649571534058
20
-56.30615510361126
0
VERTEX
8
L1
10
19.939024390243887
20
-56.341463414634156
0
SEQEND
0
POLYLINE
8
L1
66
1
70
1
0
VERTEX
8
L1
10
22.25233455041767
20
-56.30615510361126
0
VERTEX
8
L1
10
22.21702623939477
20
-56.291529922321104
0
VERTEX
8
L1
10
22.181717928371896
20
-56.30615510361126
0
VERTEX
8
L1
10
22.167092747081725
20
-56.341463414634156
0
VERTEX
8
L1
10
22.181717928371896
20
-56.37677172565703
0
VERTEX
8
L1
10
22.21702623939477
20
-56.3913969069472
0
VERTEX
8
L1
10
22.25233455041767
20
-56.37677172565703
0
VERTEX
8
L1
10
22.266959731707814
20
-56.341463414634156
0
VERTEX
8
L1
10
22.25233455041767
20
-56.30615510361126
0
SEQEND
0
POLYLINE
8
L1
66
1
70
1
0
VERTEX
8
L1
10
19.36204749512639
20
-57.57448930852038
0
VERTEX
8
L1
10
19.32723397317646
20
-57.58536585365854
0
VERTEX
8
L1
10
19.310307974551748
20
-57.61767360992939
0
VERTEX
8
L1
10
19.321184519689908
20
-57.65248713187932
0
VERTEX
8
L1
10
19.35349227596079
20
-57.669413130504026
0
VERTEX
8
L1
10
19.38830579791069
20
-57.65853658536585
0
VERTEX
8
L1
10
19.405231796535404
20
-57.626228829095
0
VERTEX
8
L1
10
19.394355251397243
20
-57.59141530714507
0
VERTEX
8
L1
10
19.36204749512639
20
-57.57448930852038
0
SEQEND
0
POLYLINE
8
L1
66
1
70
1
0
VERTEX
8
L1
10
21.620798215004058
20
-56.28048780487804
0
VERTEX
8
L1
10
21.49884699549186
20
-56.28048780487804
0
VERTEX
8
L1
10
21.49884699549186
20
-56.40243902439024
0
VERTEX
8
L1
10
21.620798215004058
20
-56.40243902439024
0
VERTEX
8
L1
10
21.620798215004058
20
-56.28048780487804
0
SEQEND
0
POLYLINE
8
L1
66
1
70
1
0
VERTEX
8
L1
10
21.504206402916353
20
-55.097560975609746
0
VERTEX
8
L1
10
21.539019924866253
20
-55.108437520747906
0
VERTEX
8
L1
10
21.571327681137134
20
-55.09151152212321
0
VERTEX
8
L1
10
21.582204226275294
20
-55.056698000173284
0
VERTEX
8
L1
10
21.56527822765058
20
-55.02439024390243
0
VERTEX
8
L1
10
21.53046470570068
20
-55.01351369876427
0
VERTEX
8
L1
10
21.4981569494298
20
-55.030439697388964
0
VERTEX
8
L1
10
21.48728040429164
20
-55.06525321933889
0
VERTEX
8
L1
10
21.504206402916353
20
-55.097560975609746
0
SEQEND
0
POLYLINE
8
L1
66
1
70
1
0
VERTEX
8
L1
10
21.273237239394305
20
-56.28048780487804
0
VERTEX
8
L1
10
21.151286019882107
20
-56.28048780487804
0
VERTEX
8
L1
10
21.151286019882107
20
-56.40243902439024
0
VERTEX
8
L1
10
21.273237239394305
20
-56.40243902439024
0
VERTEX
8
L1
10
21.273237239394305
20
-56.28048780487804
0
SEQEND
0
POLYLINE
8
L1
66
1
70
1
0
VERTEX
8
L1
10
20.70596008022393
20
-55.108437520747906
0
VERTEX
8
L1
10
20.738267836494785
20
-55.09151152212321
0
VERTEX
8
L1
10
20.749144381632945
20
-55.056698000173284
0
VERTEX
8
L1
10
20.73221838300823
20
-55.02439024390243
0
VERTEX
8
L1
10
20.697404861058303
20
-55.01351369876427
0
VERTEX
8
L1
10
20.665097104787478
20
-55.030439697388964
0
VERTEX
8
L1
10
20.654220559649318
20
-55.06525321933889
0
VERTEX
8
L1
10
20.671146558274003
20
-55.097560975609746
0
VERTEX
8
L1
10
20.70596008022393
20
-55.108437520747906
0
SEQEND
0
POLYLINE
8
L1
66
1
70
1
0
VERTEX
8
L1
10
20.604811541093497
20
-56.795203665213094
0
VERTEX
8
L1
10
20.701358245661353
20
-56.795203665213094
0
VERTEX
8
L1
10
20.701358245661353
20
-57.40495976277407
0
VERTEX
8
L1
10
20.676968001758908
20
-57.40495976277407
0
VERTEX
8
L1
10
20.676968001758908
20
-57.52691098228627
0
VERTEX
8
L1
10
20.798919221271106
20
-57.52691098228627
0
VERTEX
8
L1
10
20.798919221271106
20
-56.69764268960334
0
VERTEX
8
L1
10
20.726762760605695
20
-56.69764268960334
0
VERTEX
8
L1
10
20.726762760605695
20
-56.28048780487804
0
VERTEX
8
L1
10
20.604811541093497
20
-56.28048780487804
0
VERTEX
8
L1
10
20.604811541093497
20
-56.795203665213094
0
SEQEND
0
POLYLINE
8
L1
66
1
70
1
0
VERTEX
8
L1
10
21.393009153160833
20
-57.65853658536585
0
VERTEX
8
L1
10
21.42782267511076
20
-57.66941313050401
0
VERTEX
8
L1
10
21.460130431381614
20
-57.65248713187932
0
VERTEX
8
L1
10
21.471006976519774
20
-57.61767360992939
0
VERTEX
8
L1
10
21.45408097789509
20
-57.58536585365854
0
VERTEX
8
L1
10
21.41926745594516
20
-57.57448930852038
0
VERTEX
8
L1
10
21.38695969967428
20
-57.59141530714507
0
VERTEX
8
L1
10
21.37608315453612
20
-57.626228829095
0
VERTEX
8
L1
10
21.393009153160833
20
-57.65853658536585
0
SEQEND
0
POLYLINE
8
L1
66
1
70
1
0
VERTEX
8
L1
10
19.354811541093497
20
-56.40243902439024
0
VERTEX
8
L1
10
19.476762760605695
20
-56.40243902439024
0
VERTEX
8
L1
10
19.476762760605695
20
-56.28048780487804
0
VERTEX
8
L1
10
19.354811541093497
20
-56.28048780487804
0
VERTEX
8
L1
10
19.354811541093497
20
-56.40243902439024
0
SEQEND
0
POLYLINE
8
L1
66
1
70
1
0
VERTEX
8
L1
10
24.841463414634163
20
-55.02439024390243
0
VERTEX
8
L1
10
24.824537416009477
20
-55.056698000173284
0
VERTEX
8
L1
10
24.835413961147637
20
-55.09151152212321
0
VERTEX
8
L1
10
24.86772171741849
20
-55.10843752074792
0
VERTEX
8
L1
10
24.90253523936842
20
-55.097560975609746
0
VERTEX
8
L1
10
24.919461237993104
20
-55.06525321933889
0
VERTEX
8
L1
10
24.908584692854944
20
-55.030439697388964
0
VERTEX
8
L1
10
24.87627693658409
20
-55.01351369876427
0
VERTEX
8
L1
10
24.841463414634163
20
-55.02439024390243
0
SEQEND
0
POLYLINE
8
L1
66
1
70
1
0
VERTEX
8
L1
10
27.71941598014392
20
-57.65853658536585
0
VERTEX
8
L1
10
27.75422950209382
20
-57.66941313050401
0
VERTEX
8
L1
10
27.786537258364703
20
-57.65248713187932
0
VERTEX
8
L1
10
27.797413803502863
20
-57.61767360992939
0
VERTEX
8
L1
10
27.78048780487815
20
-57.58536585365854
0
VERTEX
8
L1
10
27.74567428292822
20
-57.57448930852038
0
VERTEX
8
L1
10
27.713366526657367
20
-57.59141530714507
0
VERTEX
8
L1
10
27.702489981519207
20
-57.626228829095
0
VERTEX
8
L1
10
27.71941598014392
20
-57.65853658536585
0
SEQEND
0
POLYLINE
8
L1
66
1
70
1
0
VERTEX
8
L1
10
25.84009661908597
20
-55.02439024390243
0
VERTEX
8
L1
10
25.823170620461283
20
-55.0566980001733
0
VERTEX
8
L1
10
25.834047165599443
20
-55.09151152212321
0
VERTEX
8
L1
10
25.866354921870297
20
-55.10843752074792
0
VERTEX
8
L1
10
25.901168443820225
20
-55.097560975609746
0
VERTEX
8
L1
10
25.91809444244491
20
-55.06525321933889
0
VERTEX
8
L1
10
25.90721789730675
20
-55.030439697388964
0
VERTEX
8
L1
10
25.874910141035897
20
-55.01351369876427
0
VERTEX
8
L1
10
25.84009661908597
20
-55.02439024390243
0
SEQEND
0
POLYLINE
8
L1
66
1
70
1
0
VERTEX
8
L1
10
24.576933742265297
20
-56.37677172565703
0
VERTEX
8
L1
10
24.61224205328817
20
-56.3913969069472
0
VERTEX
8
L1
10
24.647550364311044
20
-56.37677172565703
0
VERTEX
8
L1
10
24.662175545601215
20
-56.341463414634156
0
VERTEX
8
L1
10
24.647550364311044
20
-56.30615510361126
0
VERTEX
8
L1
10
24.61224205328817
20
-56.291529922321104
0
VERTEX
8
L1
10
24.576933742265297
20
-56.30615510361126
0
VERTEX
8
L1
10
24.562308560975126
20
-56.341463414634156
0
VERTEX
8
L1
10
24.576933742265297
20
-56.37677172565703
0
SEQEND
0
POLYLINE
8
L1
66
1
70
1
0
VERTEX
8
L1
10
25.792682926829272
20
-56.341463414634156
0
VERTEX
8
L1
10
25.807308108119443
20
-56.37677172565703
0
VERTEX
8
L1
10
25.842616419142345
20
-56.3913969069472
0
VERTEX
8
L1
10
25.87792473016522
20
-56.37677172565703
0
VERTEX
8
L1
10
25.89254991145539
20
-56.341463414634156
0
VERTEX
8
L1
10
25.87792473016522
20
-56.30615510361126
0
VERTEX
8
L1
10
25.842616419142345
20
-56.291529922321104
0
VERTEX
8
L1
10
25.807308108119443
20
-56.30615510361126
0
VERTEX
8
L1
10
25.792682926829272
20
-56.341463414634156
0
SEQEND
0
POLYLINE
8
L1
66
1
70
1
0
VERTEX
8
L1
10
28.105993087003057
20
-56.30615510361126
0
VERTEX
8
L1
10
28.070684775980155
20
-56.291529922321104
0
VERTEX
8
L1
10
28.03537646495728
20
-56.30615510361126
0
VERTEX
8
L1
10
28.02075128366711
20
-56.341463414634156
0
VERTEX
8
L1
10
28.03537646495728
20
-56.37677172565703
0
VERTEX
8
L1
10
28.070684775980155
20
-56.3913969069472
0
VERTEX
8
L1
10
28.105993087003057
20
-56.37677172565703
0
VERTEX
8
L1
10
28.1206182682932
20
-56.341463414634156
0
VERTEX
8
L1
10
28.105993087003057
20
-56.30615510361126
0
SEQEND
0
POLYLINE
8
L1
66
1
70
1
0
VERTEX
8
L1
10
25.215706031711775
20
-57.57448930852038
0
VERTEX
8
L1
10
25.180892509761847
20
-57.58536585365854
0
VERTEX
8
L1
10
25.163966511137133
20
-57.61767360992939
0
VERTEX
8
L1
10
25.174843056275293
20
-57.65248713187932
0
VERTEX
8
L1
10
25.207150812546175
20
-57.669413130504026
0
VERTEX
8
L1
10
25.241964334496075
20
-57.65853658536585
0
VERTEX
8
L1
10
25.25889033312079
20
-57.626228829095
0
VERTEX
8
L1
10
25.24801378798263
20
-57.59141530714507
0
VERTEX
8
L1
10
25.215706031711775
20
-57.57448930852038
0
SEQEND
0
POLYLINE
8
L1
66
1
70
1
0
VERTEX
8
L1
10
27.474456751589443
20
-56.28048780487804
0
VERTEX
8
L1
10
27.352505532077245
20
-56.28048780487804
0
VERTEX
8
L1
10
27.352505532077245
20
-56.40243902439024
0
VERTEX
8
L1
10
27.474456751589443
20
-56.40243902439024
0
VERTEX
8
L1
10
27.474456751589443
20
-56.28048780487804
0
SEQEND
0
POLYLINE
8
L1
66
1
70
1
0
VERTEX
8
L1
10
27.357864939501738
20
-55.097560975609746
0
VERTEX
8
L1
10
27.392678461451638
20
-55.108437520747906
0
VERTEX
8
L1
10
27.42498621772252
20
-55.09151152212321
0
VERTEX
8
L1
10
27.43586276286068
20
-55.056698000173284
0
VERTEX
8
L1
10
27.418936764235966
20
-55.02439024390243
0
VERTEX
8
L1
10
27.384123242286066
20
-55.01351369876427
0
VERTEX
8
L1
10
27.351815486015184
20
-55.030439697388964
0
VERTEX
8
L1
10
27.340938940877024
20
-55.06525321933889
0
VERTEX
8
L1
10
27.357864939501738
20
-55.097560975609746
0
SEQEND
0
POLYLINE
8
L1
66
1
70
1
0
VERTEX
8
L1
10
27.12689577597969
20
-56.28048780487804
0
VERTEX
8
L1
10
27.004944556467493
20
-56.28048780487804
0
VERTEX
8
L1
10
27.004944556467493
20
-56.40243902439024
0
VERTEX
8
L1
10
27.12689577597969
20
-56.40243902439024
0
VERTEX
8
L1
10
27.12689577597969
20
-56.28048780487804
0
SEQEND
0
POLYLINE
8
L1
66
1
70
1
0
VERTEX
8
L1
10
26.559618616809317
20
-55.108437520747906
0
VERTEX
8
L1
10
26.59192637308017
20
-55.09151152212321
0
VERTEX
8
L1
10
26.60280291821833
20
-55.056698000173284
0
VERTEX
8
L1
10
26.585876919593616
20
-55.02439024390243
0
VERTEX
8
L1
10
26.551063397643688
20
-55.01351369876427
0
VERTEX
8
L1
10
26.518755641372863
20
-55.030439697388964
0
VERTEX
8
L1
10
26.507879096234703
20
-55.06525321933889
0
VERTEX
8
L1
10
26.52480509485939
20
-55.097560975609746
0
VERTEX
8
L1
10
26.559618616809317
20
-55.108437520747906
0
SEQEND
0
POLYLINE
8
L1
66
1
70
1
0
VERTEX
8
L1
10
26.458470077678882
20
-56.795203665213094
0
VERTEX
8
L1
10
26.55501678224674
20
-56.795203665213094
0
VERTEX
8
L1
10
26.55501678224674
20
-57.40495976277407
0
VERTEX
8
L1
10
26.530626538344293
20
-57.40495976277407
0
VERTEX
8
L1
10
26.530626538344293
20
-57.52691098228627
0
VERTEX
8
L1
10
26.65257775785649
20
-57.52691098228627
0
VERTEX
8
L1
10
26.65257775785649
20
-56.69764268960334
0
VERTEX
8
L1
10
26.58042129719108
20
-56.69764268960334
0
VERTEX
8
L1
10
26.58042129719108
20
-56.28048780487804
0
VERTEX
8
L1
10
26.458470077678882
20
-56.28048780487804
0
VERTEX
8
L1
10
26.458470077678882
20
-56.795203665213094
0
SEQEND
0
POLYLINE
8
L1
66
1
70
1
0
VERTEX
8
L1
10
27.246667689746218
20
-57.65853658536585
0
VERTEX
8
L1
10
27.281481211696146
20
-57.66941313050401
0
VERTEX
8
L1
10
27.313788967967
20
-57.65248713187932
0
VERTEX
8
L1
10
27.32466551310516
20
-57.61767360992939
0
VERTEX
8
L1
10
27.307739514480474
20
-57.58536585365854
0
VERTEX
8
L1
10
27.272925992530546
20
-57.57448930852038
0
VERTEX
8
L1
10
27.240618236259664
20
-57.59141530714507
0
VERTEX
8
L1
10
27.229741691121504
20
-57.626228829095
0
VERTEX
8
L1
10
27.246667689746218
20
-57.65853658536585
0
SEQEND
0
POLYLINE
8
L1
66
1
70
1
0
VERTEX
8
L1
10
25.208470077678882
20
-56.40243902439024
0
VERTEX
8
L1
10
25.33042129719108
20
-56.40243902439024
0
VERTEX
8
L1
10
25.33042129719108
20
-56.28048780487804
0
VERTEX
8
L1
10
25.208470077678882
20
-56.28048780487804
0
VERTEX
8
L1
10
25.208470077678882
20
-56.40243902439024
0
SEQEND
0
POLYLINE
8
L1
66
1
70
1
0
VERTEX
8
L1
10
30.69512195121949
20
-55.02439024390243
0
VERTEX
8
L1
10
30.678195952594805
20
-55.056698000173284
0
VERTEX
8
L1
10
30.689072497732965
20
-55.09151152212321
0
VERTEX
8
L1
10
30.72138025400382
20
-55.10843752074792
0
VERTEX
8
L1
10
30.756193775953747
20
-55.097560975609746
0
VERTEX
8
L1
10
30.773119774578433
20
-55.06525321933889
0
VERTEX
8
L1
10
30.762243229440273
20
-55.030439697388964
0
VERTEX
8
L1
10
30.72993547316942
20
-55.01351369876427
0
VERTEX
8
L1
10
30.69512195121949
20
-55.02439024390243
0
SEQEND
0
POLYLINE
8
L1
66
1
70
1
0
VERTEX
8
L1
10
33.57307451672925
20
-57.65853658536585
0
VERTEX
8
L1
10
33.60788803867915
20
-57.66941313050401
0
VERTEX
8
L1
10
33.64019579495003
20
-57.65248713187932
0
VERTEX
8
L1
10
33.65107234008819
20
-57.61767360992939
0
VERTEX
8
L1
10
33.63414634146348
20
-57.58536585365854
0
VERTEX
8
L1
10
33.59933281951355
20
-57.57448930852038
0
VERTEX
8
L1
10
33.567025063242696
20
-57.59141530714507
0
VERTEX
8
L1
10
33.556148518104536
20
-57.626228829095
0
VERTEX
8
L1
10
33.57307451672925
20
-57.65853658536585
0
SEQEND
0
POLYLINE
8
L1
66
1
70
1
0
VERTEX
8
L1
10
31.693755155671298
20
-55.02439024390243
0
VERTEX
8
L1
10
31.676829157046612
20
-55.0566980001733
0
VERTEX
8
L1
10
31.687705702184772
20
-55.09151152212321
0
VERTEX
8
L1
10
31.720013458455625
20
-55.10843752074792
0
VERTEX
8
L1
10
31.754826980405554
20
-55.097560975609746
0
VERTEX
8
L1
10
31.77175297903024
20
-55.06525321933889
0
VERTEX
8
L1
10
31.76087643389208
20
-55.030439697388964
0
VERTEX
8
L1
10
31.728568677621226
20
-55.01351369876427
0
VERTEX
8
L1
10
31.693755155671298
20
-55.02439024390243
0
SEQEND
0
POLYLINE
8
L1
66
1
70
1
0
VERTEX
8
L1
10
30.430592278850625
20
-56.37677172565703
0
VERTEX
8
L1
10
30.4659005898735
20
-56.3913969069472
0
VERTEX
8
L1
10
30.501208900896373
20
-56.37677172565703
0
VERTEX
8
L1
10
30.515834082186544
20
-56.341463414634156
0
VERTEX
8
L1
10
30.501208900896373
20
-56.30615510361126
0
VERTEX
8
L1
10
30.4659005898735
20
-56.291529922321104
0
VERTEX
8
L1
10
30.430592278850625
20
-56.30615510361126
0
VERTEX
8
L1
10
30.415967097560454
20
-56.341463414634156
0
VERTEX
8
L1
10
30.430592278850625
20
-56.37677172565703
0
SEQEND
0
POLYLINE
8
L1
66
1
70
1
0
VERTEX
8
L1
10
31.6463414634146
20
-56.341463414634156
0
VERTEX
8
L1
10
31.66096664470477
20
-56.37677172565703
0
VERTEX
8
L1
10
31.696274955727674
20
-56.3913969069472
0
VERTEX
8
L1
10
31.731583266750548
20
-56.37677172565703
0
VERTEX
8
L1
10
31.74620844804072
20
-56.341463414634156
0
VERTEX
8
L1
10
31.731583266750548
20
-56.30615510361126
0
VERTEX
8
L1
10
31.696274955727674
20
-56.291529922321104
0
VERTEX
8
L1
10
31.66096664470477
20
-56.30615510361126
0
VERTEX
8
L1
10
31.6463414634146
20
-56.341463414634156
0
SEQEND
0
POLYLINE
8
L1
66
1
70
1
0
VERTEX
8
L1
10
33.959651623588385
20
-56.30615510361126
0
VERTEX
8
L1
10
33.92434331256548
20
-56.291529922321104
0
VERTEX
8
L1
10
33.88903500154261
20
-56.30615510361126
0
VERTEX
8
L1
10
33.87440982025244
20
-56.341463414634156
0
VERTEX
8
L1
10
33.88903500154261
20
-56.37677172565703
0
VERTEX
8
L1
10
33.92434331256548
20
-56.3913969069472
0
VERTEX
8
L1
10
33.959651623588385
20
-56.37677172565703
0
VERTEX
8
L1
10
33.97427680487853
20
-56.341463414634156
0
VERTEX
8
L1
10
33.959651623588385
20
-56.30615510361126
0
SEQEND
0
POLYLINE
8
L1
66
1
70
1
0
VERTEX
8
L1
10
31.069364568297104
20
-57.57448930852038
0
VERTEX
8
L1
10
31.034551046347175
20
-57.58536585365854
0
VERTEX
8
L1
10
31.01762504772246
20
-57.61767360992939
0
VERTEX
8
L1
10
31.02850159286062
20
-57.65248713187932
0
VERTEX
8
L1
10
31.060809349131503
20
-57.669413130504026
0
VERTEX
8
L1
10
31.095622871081403
20
-57.65853658536585
0
VERTEX
8
L1
10
31.112548869706117
20
-57.626228829095
0
VERTEX
8
L1
10
31.101672324567957
20
-57.59141530714507
0
VERTEX
8
L1
10
31.069364568297104
20
-57.57448930852038
0
SEQEND
0
POLYLINE
8
L1
66
1
70
1
0
VERTEX
8
L1
10
33.32811528817477
20
-56.28048780487804
0
VERTEX
8
L1
10
33.206164068662574
20
-56.28048780487804
0
VERTEX
8
L1
10
33.206164068662574
20
-56.40243902439024
0
VERTEX
8
L1
10
33.32811528817477
20
-56.40243902439024
0
VERTEX
8
L1
10
33.32811528817477
20
-56.28048780487804
0
SEQEND
0
POLYLINE
8
L1
66
1
70
1
0
VERTEX
8
L1
10
33.211523476087066
20
-55.097560975609746
0
VERTEX
8
L1
10
33.246336998036966
20
-55.108437520747906
0
VERTEX
8
L1
10
33.27864475430785
20
-55.09151152212321
0
VERTEX
8
L1
10
33.28952129944601
20
-55.056698000173284
0
VERTEX
8
L1
10
33.272595300821294
20
-55.02439024390243
0
VERTEX
8
L1
10
33.237781778871394
20
-55.01351369876427
0
VERTEX
8
L1
10
33.20547402260051
20
-55.030439697388964
0
VERTEX
8
L1
10
33.19459747746235
20
-55.06525321933889
0
VERTEX
8
L1
10
33.211523476087066
20
-55.097560975609746
0
SEQEND
0
POLYLINE
8
L1
66
1
70
1
0
VERTEX
8
L1
10
32.98055431256502
20
-56.28048780487804
0
VERTEX
8
L1
10
32.85860309305282
20
-56.28048780487804
0
VERTEX
8
L1
10
32.85860309305282
20
-56.40243902439024
0
VERTEX
8
L1
10
32.98055431256502
20
-56.40243902439024
0
VERTEX
8
L1
10
32.98055431256502
20
-56.28048780487804
0
SEQEND
0
POLYLINE
8
L1
66
1
70
1
0
VERTEX
8
L1
10
32.413277153394645
20
-55.108437520747906
0
VERTEX
8
L1
10
32.4455849096655
20
-55.09151152212321
0
VERTEX
8
L1
10
32.45646145480366
20
-55.056698000173284
0
VERTEX
8
L1
10
32.439535456178945
20
-55.02439024390243
0
VERTEX
8
L1
10
32.404721934229016
20
-55.01351369876427
0
VERTEX
8
L1
10
32.37241417795819
20
-55.030439697388964
0
VERTEX
8
L1
10
32.36153763282003
20
-55.06525321933889
0
VERTEX
8
L1
10
32.37846363144472
20
-55.097560975609746
0
VERTEX
8
L1
10
32.413277153394645
20
-55.108437520747906
0
SEQEND
0
POLYLINE
8
L1
66
1
70
1
0
VERTEX
8
L1
10
32.31212861426421
20
-56.795203665213094
0
VERTEX
8
L1
10
32.40867531883207
20
-56.795203665213094
0
VERTEX
8
L1
10
32.40867531883207
20
-57.40495976277407
0
VERTEX
8
L1
10
32.38428507492962
20
-57.40495976277407
0
VERTEX
8
L1
10
32.38428507492962
20
-57.52691098228627
0
VERTEX
8
L1
10
32.50623629444182
20
-57.52691098228627
0
VERTEX
8
L1
10
32.50623629444182
20
-56.69764268960334
0
VERTEX
8
L1
10
32.43407983377641
20
-56.69764268960334
0
VERTEX
8
L1
10
32.43407983377641
20
-56.28048780487804
0
VERTEX
8
L1
10
32.31212861426421
20
-56.28048780487804
0
VERTEX
8
L1
10
32.31212861426421
20
-56.795203665213094
0
SEQEND
0
POLYLINE
8
L1
66
1
70
1
0
VERTEX
8
L1
10
33.100326226331546
20
-57.65853658536585
0
VERTEX
8
L1
10
33.135139748281475
20
-57.66941313050401
0
VERTEX
8
L1
10
33.16744750455233
20
-57.65248713187932
0
VERTEX
8
L1
10
33.17832404969049
20
-57.61767360992939
0
VERTEX
8
L1
10
33.1613980510658
20
-57.58536585365854
0
VERTEX
8
L1
10
33.126584529115874
20
-57.57448930852038
0
VERTEX
8
L1
10
33.09427677284499
20
-57.59141530714507
0
VERTEX
8
L1
10
33.08340022770683
20
-57.626228829095
0
VERTEX
8
L1
10
33.100326226331546
20
-57.65853658536585
0
SEQEND
0
POLYLINE
8
L1
66
1
70
1
0
VERTEX
8
L1
10
31.06212861426421
20
-56.40243902439024
0
VERTEX
8
L1
10
31.18407983377641
20
-56.40243902439024
0
VERTEX
8
L1
10
31.18407983377641
20
-56.28048780487804
0
VERTEX
8
L1
10
31.06212861426421
20
-56.28048780487804
0
VERTEX
8
L1
10
31.06212861426421
20
-56.40243902439024
0
SEQEND
0
POLYLINE
8
L1
66
1
70
1
0
VERTEX
8
L1
10
36.548780487804876
20
-55.02439024390243
0
VERTEX
8
L1
10
36.53185448918019
20
-55.056698000173284
0
VERTEX
8
L1
10
36.54273103431835
20
-55.09151152212321
0
VERTEX
8
L1
10
36.575038790589204
20
-55.10843752074792
0
VERTEX
8
L1
10
36.60985231253913
20
-55.097560975609746
0
VERTEX
8
L1
10
36.62677831116382
20
-55.06525321933889
0
VERTEX
8
L1
10
36.61590176602566
20
-55.030439697388964
0
VERTEX
8
L1
10
36.583594009754805
20
-55.01351369876427
0
VERTEX
8
L1
10
36.548780487804876
20
-55.02439024390243
0
SEQEND
0
POLYLINE
8
L1
66
1
70
1
0
VERTEX
8
L1
10
39.426733053314635
20
-57.65853658536585
0
VERTEX
8
L1
10
39.461546575264535
20
-57.66941313050401
0
VERTEX
8
L1
10
39.49385433153542
20
-57.65248713187932
0
VERTEX
8
L1
10
39.50473087667358
20
-57.61767360992939
0
VERTEX
8
L1
10
39.48780487804886
20
-57.58536585365854
0
VERTEX
8
L1
10
39.452991356098934
20
-57.57448930852038
0
VERTEX
8
L1
10
39.42068359982808
20
-57.59141530714507
0
VERTEX
8
L1
10
39.40980705468992
20
-57.626228829095
0
VERTEX
8
L1
10
39.426733053314635
20
-57.65853658536585
0
SEQEND
0
POLYLINE
8
L1
66
1
70
1
0
VERTEX
8
L1
10
37.54741369225668
20
-55.02439024390243
0
VERTEX
8
L1
10
37.530487693632
20
-55.0566980001733
0
VERTEX
8
L1
10
37.54136423877016
20
-55.09151152212321
0
VERTEX
8
L1
10
37.57367199504101
20
-55.10843752074792
0
VERTEX
8
L1
10
37.60848551699094
20
-55.097560975609746
0
VERTEX
8
L1
10
37.625411515615625
20
-55.06525321933889
0
VERTEX
8
L1
10
37.614534970477465
20
-55.030439697388964
0
VERTEX
8
L1
10
37.58222721420661
20
-55.01351369876427
0
VERTEX
8
L1
10
37.54741369225668
20
-55.02439024390243
0
SEQEND
0
POLYLINE
8
L1
66
1
70
1
0
VERTEX
8
L1
10
36.28425081543601
20
-56.37677172565703
0
VERTEX
8
L1
10
36.319559126458884
20
-56.3913969069472
0
VERTEX
8
L1
10
36.35486743748176
20
-56.37677172565703
0
VERTEX
8
L1
10
36.36949261877193
20
-56.341463414634156
0
VERTEX
8
L1
10
36.35486743748176
20
-56.30615510361126
0
VERTEX
8
L1
10
36.319559126458884
20
-56.291529922321104
0
VERTEX
8
L1
10
36.28425081543601
20
-56.30615510361126
0
VERTEX
8
L1
10
36.26962563414584
20
-56.341463414634156
0
VERTEX
8
L1
10
36.28425081543601
20
-56.37677172565703
0
SEQEND
0
POLYLINE
8
L1
66
1
70
1
0
VERTEX
8
L1
10
37.499999999999986
20
-56.341463414634156
0
VERTEX
8
L1
10
37.51462518129016
20
-56.37677172565703
0
VERTEX
8
L1
10
37.54993349231306
20
-56.3913969069472
0
VERTEX
8
L1
10
37.58524180333593
20
-56.37677172565703
0
VERTEX
8
L1
10
37.599866984626104
20
-56.341463414634156
0
VERTEX
8
L1
10
37.58524180333593
20
-56.30615510361126
0
VERTEX
8
L1
10
37.54993349231306
20
-56.291529922321104
0
VERTEX
8
L1
10
37.51462518129016
20
-56.30615510361126
0
VERTEX
8
L1
10
37.499999999999986
20
-56.341463414634156
0
SEQEND
0
POLYLINE
8
L1
66
1
70
1
0
VERTEX
8
L1
10
39.81331016017377
20
-56.30615510361126
0
VERTEX
8
L1
10
39.77800184915087
20
-56.291529922321104
0
VERTEX
8
L1
10
39.742693538127995
20
-56.30615510361126
0
VERTEX
8
L1
10
39.728068356837824
20
-56.341463414634156
0
VERTEX
8
L1
10
39.742693538127995
20
-56.37677172565703
0
VERTEX
8
L1
10
39.77800184915087
20
-56.3913969069472
0
VERTEX
8
L1
10
39.81331016017377
20
-56.37677172565703
0
VERTEX
8
L1
10
39.82793534146391
20
-56.341463414634156
0
VERTEX
8
L1
10
39.81331016017377
20
-56.30615510361126
0
SEQEND
0
POLYLINE
8
L1
66
1
70
1
0
VERTEX
8
L1
10
36.92302310488249
20
-57.57448930852038
0
VERTEX
8
L1
10
36.88820958293256
20
-57.58536585365854
0
VERTEX
8
L1
10
36.87128358430785
20
-57.61767360992939
0
VERTEX
8
L1
10
36.88216012944601
20
-57.65248713187932
0
VERTEX
8
L1
10
36.91446788571689
20
-57.669413130504026
0
VERTEX
8
L1
10
36.94928140766679
20
-57.65853658536585
0
VERTEX
8
L1
10
36.9662074062915
20
-57.626228829095
0
VERTEX
8
L1
10
36.95533086115334
20
-57.59141530714507
0
VERTEX
8
L1
10
36.92302310488249
20
-57.57448930852038
0
SEQEND
0
POLYLINE
8
L1
66
1
70
1
0
VERTEX
8
L1
10
39.18177382476016
20
-56.28048780487804
0
VERTEX
8
L1
10
39.05982260524796
20
-56.28048780487804
0
VERTEX
8
L1
10
39.05982260524796
20
-56.40243902439024
0
VERTEX
8
L1
10
39.18177382476016
20
-56.40243902439024
0
VERTEX
8
L1
10
39.18177382476016
20
-56.28048780487804
0
SEQEND
0
POLYLINE
8
L1
66
1
70
1
0
VERTEX
8
L1
10
39.06518201267245
20
-55.097560975609746
0
VERTEX
8
L1
10
39.09999553462235
20
-55.108437520747906
0
VERTEX
8
L1
10
39.13230329089323
20
-55.09151152212321
0
VERTEX
8
L1
10
39.14317983603139
20
-55.056698000173284
0
VERTEX
8
L1
10
39.12625383740668
20
-55.02439024390243
0
VERTEX
8
L1
10
39.09144031545678
20
-55.01351369876427
0
VERTEX
8
L1
10
39.0591325591859
20
-55.030439697388964
0
VERTEX
8
L1
10
39.04825601404774
20
-55.06525321933889
0
VERTEX
8
L1
10
39.06518201267245
20
-55.097560975609746
0
SEQEND
0
POLYLINE
8
L1
66
1
70
1
0
VERTEX
8
L1
10
38.834212849150404
20
-56.28048780487804
0
VERTEX
8
L1
10
38.712261629638206
20
-56.28048780487804
0
VERTEX
8
L1
10
38.712261629638206
20
-56.40243902439024
0
VERTEX
8
L1
10
38.834212849150404
20
-56.40243902439024
0
VERTEX
8
L1
10
38.834212849150404
20
-56.28048780487804
0
SEQEND
0
POLYLINE
8
L1
66
1
70
1
0
VERTEX
8
L1
10
38.26693568998003
20
-55.108437520747906
0
VERTEX
8
L1
10
38.299243446250884
20
-55.09151152212321
0
VERTEX
8
L1
10
38.310119991389044
20
-55.056698000173284
0
VERTEX
8
L1
10
38.29319399276433
20
-55.02439024390243
0
VERTEX
8
L1
10
38.2583804708144
20
-55.01351369876427
0
VERTEX
8
L1
10
38.22607271454358
20
-55.030439697388964
0
VERTEX
8
L1
10
38.21519616940542
20
-55.06525321933889
0
VERTEX
8
L1
10
38.2321221680301
20
-55.097560975609746
0
VERTEX
8
L1
10
38.26693568998003
20
-55.108437520747906
0
SEQEND
0
POLYLINE
8
L1
66
1
70
1
0
VERTEX
8
L1
10
38.165787150849596
20
-56.795203665213094
0
VERTEX
8
L1
10
38.26233385541745
20
-56.795203665213094
0
VERTEX
8
L1
10
38.26233385541745
20
-57.40495976277407
0
VERTEX
8
L1
10
38.23794361151501
20
-57.40495976277407
0
VERTEX
8
L1
10
38.23794361151501
20
-57.52691098228627
0
VERTEX
8
L1
10
38.359894831027205
20
-57.52691098228627
0
VERTEX
8
L1
10
38.359894831027205
20
-56.69764268960334
0
VERTEX
8
L1
10
38.287738370361794
20
-56.69764268960334
0
VERTEX
8
L1
10
38.287738370361794
20
-56.28048780487804
0
VERTEX
8
L1
10
38.165787150849596
20
-56.28048780487804
0
VERTEX
8
L1
10
38.165787150849596
20
-56.795203665213094
0
SEQEND
0
POLYLINE
8
L1
66
1
70
1
0
VERTEX
8
L1
10
38.95398476291693
20
-57.65853658536585
0
VERTEX
8
L1
10
38.98879828486686
20
-57.66941313050401
0
VERTEX
8
L1
10
39.02110604113771
20
-57.65248713187932
0
VERTEX
8
L1
10
39.03198258627587
20
-57.61767360992939
0
VERTEX
8
L1
10
39.01505658765119
20
-57.58536585365854
0
VERTEX
8
L1
10
38.98024306570126
20
-57.57448930852038
0
VERTEX
8
L1
10
38.94793530943038
20
-57.59141530714507
0
VERTEX
8
L1
10
38.93705876429222
20
-57.626228829095
0
VERTEX
8
L1
10
38.95398476291693
20
-57.65853658536585
0
SEQEND
0
POLYLINE
8
L1
66
1
70
1
0
VERTEX
8
L1
10
36.915787150849596
20
-56.40243902439024
0
VERTEX
8
L1
10
37.037738370361794
20
-56.40243902439024
0
VERTEX
8
L1
10
37.037738370361794
20
-56.28048780487804
0
VERTEX
8
L1
10
36.915787150849596
20
-56.28048780487804
0
VERTEX
8
L1
10
36.915787150849596
20
-56.40243902439024
0
SEQEND
0
POLYLINE
8
L1
66
1
70
1
0
VERTEX
8
L1
10
42.40243902439026
20
-55.02439024390243
0
VERTEX
8
L1
10
42.385513025765576
20
-55.056698000173284
0
VERTEX
8
L1
10
42.396389570903736
20
-55.09151152212321
0
VERTEX
8
L1
10
42.42869732717459
20
-55.10843752074792
0
VERTEX
8
L1
10
42.46351084912452
20
-55.097560975609746
0
VERTEX
8
L1
10
42.4804368477492
20
-55.06525321933889
0
VERTEX
8
L1
10
42.46956030261104
20
-55.030439697388964
0
VERTEX
8
L1
10
42.43725254634019
20
-55.01351369876427
0
VERTEX
8
L1
10
42.40243902439026
20
-55.02439024390243
0
SEQEND
0
POLYLINE
8
L1
66
1
70
1
0
VERTEX
8
L1
10
45.28039158990002
20
-57.65853658536585
0
VERTEX
8
L1
10
45.31520511184992
20
-57.66941313050401
0
VERTEX
8
L1
10
45.3475128681208
20
-57.65248713187932
0
VERTEX
8
L1
10
45.35838941325896
20
-57.61767360992939
0
VERTEX
8
L1
10
45.34146341463425
20
-57.58536585365854
0
VERTEX
8
L1
10
45.30664989268432
20
-57.57448930852038
0
VERTEX
8
L1
10
45.274342136413466
20
-57.59141530714507
0
VERTEX
8
L1
10
45.263465591275306
20
-57.626228829095
0
VERTEX
8
L1
10
45.28039158990002
20
-57.65853658536585
0
SEQEND
0
POLYLINE
8
L1
66
1
70
1
0
VERTEX
8
L1
10
43.40107222884207
20
-55.02439024390243
0
VERTEX
8
L1
10
43.38414623021738
20
-55.0566980001733
0
VERTEX
8
L1
10
43.39502277535554
20
-55.09151152212321
0
VERTEX
8
L1
10
43.427330531626396
20
-55.10843752074792
0
VERTEX
8
L1
10
43.462144053576324
20
-55.097560975609746
0
VERTEX
8
L1
10
43.47907005220101
20
-55.06525321933889
0
VERTEX
8
L1
10
43.46819350706285
20
-55.030439697388964
0
VERTEX
8
L1
10
43.435885750791996
20
-55.01351369876427
0
VERTEX
8
L1
10
43.40107222884207
20
-55.02439024390243
0
SEQEND
0
POLYLINE
8
L1
66
1
70
1
0
VERTEX
8
L1
10
42.137909352021396
20
-56.37677172565703
0
VERTEX
8
L1
10
42.17321766304427
20
-56.3913969069472
0
VERTEX
8
L1
10
42.20852597406714
20
-56.37677172565703
0
VERTEX
8
L1
10
42.223151155357314
20
-56.341463414634156
0
VERTEX
8
L1
10
42.20852597406714
20
-56.30615510361126
0
VERTEX
8
L1
10
42.17321766304427
20
-56.291529922321104
0
VERTEX
8
L1
10
42.137909352021396
20
-56.30615510361126
0
VERTEX
8
L1
10
42.123284170731225
20
-56.341463414634156
0
VERTEX
8
L1
10
42.137909352021396
20
-56.37677172565703
0
SEQEND
0
POLYLINE
8
L1
66
1
70
1
0
VERTEX
8
L1
10
43.35365853658537
20
-56.341463414634156
0
VERTEX
8
L1
10
43.36828371787554
20
-56.37677172565703
0
VERTEX
8
L1
10
43.403592028898444
20
-56.3913969069472
0
VERTEX
8
L1
10
43.43890033992132
20
-56.37677172565703
0
VERTEX
8
L1
10
43.45352552121149
20
-56.341463414634156
0
VERTEX
8
L1
10
43.43890033992132
20
-56.30615510361126
0
VERTEX
8
L1
10
43.403592028898444
20
-56.291529922321104
0
VERTEX
8
L1
10
43.36828371787554
20
-56.30615510361126
0
VERTEX
8
L1
10
43.35365853658537
20
-56.341463414634156
0
SEQEND
0
POLYLINE
8
L1
66
1
70
1
0
VERTEX
8
L1
10
45.666968696759156
20
-56.30615510361126
0
VERTEX
8
L1
10
45.631660385736254
20
-56.291529922321104
0
VERTEX
8
L1
10
45.59635207471338
20
-56.30615510361126
0
VERTEX
8
L1
10
45.58172689342321
20
-56.341463414634156
0
VERTEX
8
L1
10
45.59635207471338
20
-56.37677172565703
0
VERTEX
8
L1
10
45.631660385736254
20
-56.3913969069472
0
VERTEX
8
L1
10
45.666968696759156
20
-56.37677172565703
0
VERTEX
8
L1
10
45.6815938780493
20
-56.341463414634156
0
VERTEX
8
L1
10
45.666968696759156
20
-56.30615510361126
0
SEQEND
0
POLYLINE
8
L1
66
1
70
1
0
VERTEX
8
L1
10
42.776681641467874
20
-57.57448930852038
0
VERTEX
8
L1
10
42.741868119517946
20
-57.58536585365854
0
VERTEX
8
L1
10
42.72494212089323
20
-57.61767360992939
0
VERTEX
8
L1
10
42.73581866603139
20
-57.65248713187932
0
VERTEX
8
L1
10
42.768126422302274
20
-57.669413130504026
0
VERTEX
8
L1
10
42.802939944252174
20
-57.65853658536585
0
VERTEX
8
L1
10
42.81986594287689
20
-57.626228829095
0
VERTEX
8
L1
10
42.80898939773873
20
-57.59141530714507
0
VERTEX
8
L1
10
42.776681641467874
20
-57.57448930852038
0
SEQEND
0
POLYLINE
8
L1
66
1
70
1
0
VERTEX
8
L1
10
45.03543236134554
20
-56.28048780487804
0
VERTEX
8
L1
10
44.913481141833344
20
-56.28048780487804
0
VERTEX
8
L1
10
44.913481141833344
20
-56.40243902439024
0
VERTEX
8
L1
10
45.03543236134554
20
-56.40243902439024
0
VERTEX
8
L1
10
45.03543236134554
20
-56.28048780487804
0
SEQEND
0
POLYLINE
8
L1
66
1
70
1
0
VERTEX
8
L1
10
44.91884054925784
20
-55.097560975609746
0
VERTEX
8
L1
10
44.95365407120774
20
-55.108437520747906
0
VERTEX
8
L1
10
44.98596182747862
20
-55.09151152212321
0
VERTEX
8
L1
10
44.99683837261678
20
-55.056698000173284
0
VERTEX
8
L1
10
44.979912373992065
20
-55.02439024390243
0
VERTEX
8
L1
10
44.945098852042165
20
-55.01351369876427
0
VERTEX
8
L1
10
44.91279109577128
20
-55.030439697388964
0
VERTEX
8
L1
10
44.90191455063312
20
-55.06525321933889
0
VERTEX
8
L1
10
44.91884054925784
20
-55.097560975609746
0
SEQEND
0
POLYLINE
8
L1
66
1
70
1
0
VERTEX
8
L1
10
44.68787138573579
20
-56.28048780487804
0
VERTEX
8
L1
10
44.56592016622359
20
-56.28048780487804
0
VERTEX
8
L1
10
44.56592016622359
20
-56.40243902439024
0
VERTEX
8
L1
10
44.68787138573579
20
-56.40243902439024
0
VERTEX
8
L1
10
44.68787138573579
20
-56.28048780487804
0
SEQEND
0
POLYLINE
8
L1
66
1
70
1
0
VERTEX
8
L1
10
44.120594226565416
20
-55.108437520747906
0
VERTEX
8
L1
10
44.15290198283627
20
-55.09151152212321
0
VERTEX
8
L1
10
44.16377852797443
20
-55.056698000173284
0
VERTEX
8
L1
10
44.146852529349715
20
-55.02439024390243
0
VERTEX
8
L1
10
44.11203900739979
20
-55.01351369876427
0
VERTEX
8
L1
10
44.07973125112896
20
-55.030439697388964
0
VERTEX
8
L1
10
44.0688547059908
20
-55.06525321933889
0
VERTEX
8
L1
10
44.08578070461549
20
-55.097560975609746
0
VERTEX
8
L1
10
44.120594226565416
20
-55.108437520747906
0
SEQEND
0
POLYLINE
8
L1
66
1
70
1
0
VERTEX
8
L1
10
44.01944568743498
20
-56.795203665213094
0
VERTEX
8
L1
10
44.11599239200284
20
-56.795203665213094
0
VERTEX
8
L1
10
44.11599239200284
20
-57.40495976277407
0
VERTEX
8
L1
10
44.09160214810039
20
-57.40495976277407
0
VERTEX
8
L1
10
44.09160214810039
20
-57.52691098228627
0
VERTEX
8
L1
10
44.21355336761259
20
-57.52691098228627
0
VERTEX
8
L1
10
44.21355336761259
20
-56.69764268960334
0
VERTEX
8
L1
10
44.14139690694718
20
-56.69764268960334
0
VERTEX
8
L1
10
44.14139690694718
20
-56.28048780487804
0
VERTEX
8
L1
10
44.01944568743498
20
-56.28048780487804
0
VERTEX
8
L1
10
44.01944568743498
20
-56.795203665213094
0
SEQEND
0
POLYLINE
8
L1
66
1
70
1
0
VERTEX
8
L1
10
44.80764329950232
20
-57.65853658536585
0
VERTEX
8
L1
10
44.842456821452245
20
-57.66941313050401
0
VERTEX
8
L1
10
44.8747645777231
20
-57.65248713187932
0
VERTEX
8
L1
10
44.88564112286126
20
-57.61767360992939
0
VERTEX
8
L1
10
44.86871512423657
20
-57.58536585365854
0
VERTEX
8
L1
10
44.833901602286645
20
-57.57448930852038
0
VERTEX
8
L1
10
44.80159384601576
20
-57.59141530714507
0
VERTEX
8
L1
10
44.7907173008776
20
-57.626228829095
0
VERTEX
8
L1
10
44.80764329950232
20
-57.65853658536585
0
SEQEND
0
POLYLINE
8
L1
66
1
70
1
0
VERTEX
8
L1
10
42.76944568743498
20
-56.40243902439024
0
VERTEX
8
L1
10
42.89139690694718
20
-56.40243902439024
0
VERTEX
8
L1
10
42.89139690694718
20
-56.28048780487804
0
VERTEX
8
L1
10
42.76944568743498
20
-56.28048780487804
0
VERTEX
8
L1
10
42.76944568743498
20
-56.40243902439024
0
SEQEND
0
POLYLINE
8
L1
66
1
70
1
0
VERTEX
8
L1
10
48.25609756097562
20
-55.02439024390243
0
VERTEX
8
L1
10
48.23917156235093
20
-55.056698000173284
0
VERTEX
8
L1
10
48.25004810748909
20
-55.09151152212321
0
VERTEX
8
L1
10
48.282355863759946
20
-55.10843752074792
0
VERTEX
8
L1
10
48.317169385709875
20
-55.097560975609746
0
VERTEX
8
L1
10
48.33409538433456
20
-55.06525321933889
0
VERTEX
8
L1
10
48.3232188391964
20
-55.030439697388964
0
VERTEX
8
L1
10
48.29091108292555
20
-55.01351369876427
0
VERTEX
8
L1
10
48.25609756097562
20
-55.02439024390243
0
SEQEND
0
POLYLINE
8
L1
66
1
70
1
0
VERTEX
8
L1
10
51.13405012648538
20
-57.65853658536585
0
VERTEX
8
L1
10
51.16886364843528
20
-57.66941313050401
0
VERTEX
8
L1
10
51.20117140470616
20
-57.65248713187932
0
VERTEX
8
L1
10
51.21204794984432
20
-57.61767360992939
0
VERTEX
8
L1
10
51.195121951219605
20
-57.58536585365854
0
VERTEX
8
L1
10
51.160308429269676
20
-57.57448930852038
0
VERTEX
8
L1
10
51.12800067299882
20
-57.59141530714507
0
VERTEX
8
L1
10
51.11712412786066
20
-57.626228829095
0
VERTEX
8
L1
10
51.13405012648538
20
-57.65853658536585
0
SEQEND
0
POLYLINE
8
L1
66
1
70
1
0
VERTEX
8
L1
10
49.254730765427425
20
-55.02439024390243
0
VERTEX
8
L1
10
49.23780476680274
20
-55.0566980001733
0
VERTEX
8
L1
10
49.2486813119409
20
-55.09151152212321
0
VERTEX
8
L1
10
49.28098906821175
20
-55.10843752074792
0
VERTEX
8
L1
10
49.31580259016168
20
-55.097560975609746
0
VERTEX
8
L1
10
49.33272858878637
20
-55.06525321933889
0
VERTEX
8
L1
10
49.32185204364821
20
-55.030439697388964
0
VERTEX
8
L1
10
49.28954428737735
20
-55.01351369876427
0
VERTEX
8
L1
10
49.254730765427425
20
-55.02439024390243
0
SEQEND
0
POLYLINE
8
L1
66
1
70
1
0
VERTEX
8
L1
10
47.99156788860675
20
-56.37677172565703
0
VERTEX
8
L1
10
48.026876199629626
20
-56.3913969069472
0
VERTEX
8
L1
10
48.0621845106525
20
-56.37677172565703
0
VERTEX
8
L1
10
48.07680969194267
20
-56.341463414634156
0
VERTEX
8
L1
10
48.0621845106525
20
-56.30615510361126
0
VERTEX
8
L1
10
48.026876199629626
20
-56.291529922321104
0
VERTEX
8
L1
10
47.99156788860675
20
-56.30615510361126
0
VERTEX
8
L1
10
47.97694270731658
20
-56.341463414634156
0
VERTEX
8
L1
10
47.99156788860675
20
-56.37677172565703
0
SEQEND
0
POLYLINE
8
L1
66
1
70
1
0
VERTEX
8
L1
10
49.20731707317073
20
-56.341463414634156
0
VERTEX
8
L1
10
49.2219422544609
20
-56.37677172565703
0
VERTEX
8
L1
10
49.2572505654838
20
-56.3913969069472
0
VERTEX
8
L1
10
49.292558876506675
20
-56.37677172565703
0
VERTEX
8
L1
10
49.307184057796846
20
-56.341463414634156
0
VERTEX
8
L1
10
49.292558876506675
20
-56.30615510361126
0
VERTEX
8
L1
10
49.2572505654838
20
-56.291529922321104
0
VERTEX
8
L1
10
49.2219422544609
20
-56.30615510361126
0
VERTEX
8
L1
10
49.20731707317073
20
-56.341463414634156
0
SEQEND
0
POLYLINE
8
L1
66
1
70
1
0
VERTEX
8
L1
10
51.52062723334451
20
-56.30615510361126
0
VERTEX
8
L1
10
51.48531892232161
20
-56.291529922321104
0
VERTEX
8
L1
10
51.45001061129874
20
-56.30615510361126
0
VERTEX
8
L1
10
51.435385430008566
20
-56.341463414634156
0
VERTEX
8
L1
10
51.45001061129874
20
-56.37677172565703
0
VERTEX
8
L1
10
51.48531892232161
20
-56.3913969069472
0
VERTEX
8
L1
10
51.52062723334451
20
-56.37677172565703
0
VERTEX
8
L1
10
51.535252414634655
20
-56.341463414634156
0
VERTEX
8
L1
10
51.52062723334451
20
-56.30615510361126
0
SEQEND
0
POLYLINE
8
L1
66
1
70
1
0
VERTEX
8
L1
10
48.63034017805323
20
-57.57448930852038
0
VERTEX
8
L1
10
48.5955266561033
20
-57.58536585365854
0
VERTEX
8
L1
10
48.57860065747859
20
-57.61767360992939
0
VERTEX
8
L1
10
48.58947720261675
20
-57.65248713187932
0
VERTEX
8
L1
10
48.62178495888763
20
-57.669413130504026
0
VERTEX
8
L1
10
48.65659848083753
20
-57.65853658536585
0
VERTEX
8
L1
10
48.673524479462245
20
-57.626228829095
0
VERTEX
8
L1
10
48.662647934324085
20
-57.59141530714507
0
VERTEX
8
L1
10
48.63034017805323
20
-57.57448930852038
0
SEQEND
0
POLYLINE
8
L1
66
1
70
1
0
VERTEX
8
L1
10
50.8890908979309
20
-56.28048780487804
0
VERTEX
8
L1
10
50.7671396784187
20
-56.28048780487804
0
VERTEX
8
L1
10
50.7671396784187
20
-56.40243902439024
0
VERTEX
8
L1
10
50.8890908979309
20
-56.40243902439024
0
VERTEX
8
L1
10
50.8890908979309
20
-56.28048780487804
0
SEQEND
0
POLYLINE
8
L1
66
1
70
1
0
VERTEX
8
L1
10
50.772499085843194
20
-55.097560975609746
0
VERTEX
8
L1
10
50.807312607793094
20
-55.108437520747906
0
VERTEX
8
L1
10
50.839620364063975
20
-55.09151152212321
0
VERTEX
8
L1
10
50.850496909202135
20
-55.056698000173284
0
VERTEX
8
L1
10
50.83357091057742
20
-55.02439024390243
0
VERTEX
8
L1
10
50.79875738862752
20
-55.01351369876427
0
VERTEX
8
L1
10
50.76644963235664
20
-55.030439697388964
0
VERTEX
8
L1
10
50.75557308721848
20
-55.06525321933889
0
VERTEX
8
L1
10
50.772499085843194
20
-55.097560975609746
0
SEQEND
0
POLYLINE
8
L1
66
1
70
1
0
VERTEX
8
L1
10
50.541529922321146
20
-56.28048780487804
0
VERTEX
8
L1
10
50.41957870280895
20
-56.28048780487804
0
VERTEX
8
L1
10
50.41957870280895
20
-56.40243902439024
0
VERTEX
8
L1
10
50.541529922321146
20
-56.40243902439024
0
VERTEX
8
L1
10
50.541529922321146
20
-56.28048780487804
0
SEQEND
0
POLYLINE
8
L1
66
1
70
1
0
VERTEX
8
L1
10
49.97425276315077
20
-55.108437520747906
0
VERTEX
8
L1
10
50.006560519421626
20
-55.09151152212321
0
VERTEX
8
L1
10
50.017437064559786
20
-55.056698000173284
0
VERTEX
8
L1
10
50.00051106593507
20
-55.02439024390243
0
VERTEX
8
L1
10
49.965697543985144
20
-55.01351369876427
0
VERTEX
8
L1
10
49.93338978771432
20
-55.030439697388964
0
VERTEX
8
L1
10
49.92251324257616
20
-55.06525321933889
0
VERTEX
8
L1
10
49.939439241200844
20
-55.097560975609746
0
VERTEX
8
L1
10
49.97425276315077
20
-55.108437520747906
0
SEQEND
0
POLYLINE
8
L1
66
1
70
1
0
VERTEX
8
L1
10
49.87310422402034
20
-56.795203665213094
0
VERTEX
8
L1
10
49.969650928588194
20
-56.795203665213094
0
VERTEX
8
L1
10
49.969650928588194
20
-57.40495976277407
0
VERTEX
8
L1
10
49.94526068468575
20
-57.40495976277407
0
VERTEX
8
L1
10
49.94526068468575
20
-57.52691098228627
0
VERTEX
8
L1
10
50.06721190419795
20
-57.52691098228627
0
VERTEX
8
L1
10
50.06721190419795
20
-56.69764268960334
0
VERTEX
8
L1
10
49.995055443532536
20
-56.69764268960334
0
VERTEX
8
L1
10
49.995055443532536
20
-56.28048780487804
0
VERTEX
8
L1
10
49.87310422402034
20
-56.28048780487804
0
VERTEX
8
L1
10
49.87310422402034
20
-56.795203665213094
0
SEQEND
0
POLYLINE
8
L1
66
1
70
1
0
VERTEX
8
L1
10
50.661301836087674
20
-57.65853658536585
0
VERTEX
8
L1
10
50.6961153580376
20
-57.66941313050401
0
VERTEX
8
L1
10
50.728423114308455
20
-57.65248713187932
0
VERTEX
8
L1
10
50.739299659446615
20
-57.61767360992939
0
VERTEX
8
L1
10
50.72237366082193
20
-57.58536585365854
0
VERTEX
8
L1
10
50.687560138872
20
-57.57448930852038
0
VERTEX
8
L1
10
50.65525238260112
20
-57.59141530714507
0
VERTEX
8
L1
10
50.64437583746296
20
-57.626228829095
0
VERTEX
8
L1
10
50.661301836087674
20
-57.65853658536585
0
SEQEND
0
POLYLINE
8
L1
66
1
70
1
0
VERTEX
8
L1
10
48.62310422402034
20
-56.40243902439024
0
VERTEX
8
L1
10
48.745055443532536
20
-56.40243902439024
0
VERTEX
8
L1
10
48.745055443532536
20
-56.28048780487804
0
VERTEX
8
L1
10
48.62310422402034
20
-56.28048780487804
0
VERTEX
8
L1
10
48.62310422402034
20
-56.40243902439024
0
SEQEND
0
POLYLINE
8
L1
66
1
70
1
0
VERTEX
8
L1
10
54.109756097560975
20
-55.02439024390243
0
VERTEX
8
L1
10
54.09283009893629
20
-55.056698000173284
0
VERTEX
8
L1
10
54.10370664407445
20
-55.09151152212321
0
VERTEX
8
L1
10
54.1360144003453
20
-55.10843752074792
0
VERTEX
8
L1
10
54.17082792229523
20
-55.097560975609746
0
VERTEX
8
L1
10
54.18775392091992
20
-55.06525321933889
0
VERTEX
8
L1
10
54.17687737578176
20
-55.030439697388964
0
VERTEX
8
L1
10
54.144569619510904
20
-55.01351369876427
0
VERTEX
8
L1
10
54.109756097560975
20
-55.02439024390243
0
SEQEND
0
POLYLINE
8
L1
66
1
70
1
0
VERTEX
8
L1
10
56.987708663070734
20
-57.65853658536585
0
VERTEX
8
L1
10
57.022522185020634
20
-57.66941313050401
0
VERTEX
8
L1
10
57.054829941291516
20
-57.65248713187932
0
VERTEX
8
L1
10
57.065706486429676
20
-57.61767360992939
0
VERTEX
8
L1
10
57.04878048780496
20
-57.58536585365854
0
VERTEX
8
L1
10
57.01396696585503
20
-57.57448930852038
0
VERTEX
8
L1
10
56.98165920958418
20
-57.59141530714507
0
VERTEX
8
L1
10
56.97078266444602
20
-57.626228829095
0
VERTEX
8
L1
10
56.987708663070734
20
-57.65853658536585
0
SEQEND
0
POLYLINE
8
L1
66
1
70
1
0
VERTEX
8
L1
10
55.10838930201278
20
-55.02439024390243
0
VERTEX
8
L1
10
55.091463303388096
20
-55.0566980001733
0
VERTEX
8
L1
10
55.102339848526256
20
-55.09151152212321
0
VERTEX
8
L1
10
55.13464760479711
20
-55.10843752074792
0
VERTEX
8
L1
10
55.16946112674704
20
-55.097560975609746
0
VERTEX
8
L1
10
55.18638712537172
20
-55.06525321933889
0
VERTEX
8
L1
10
55.17551058023356
20
-55.030439697388964
0
VERTEX
8
L1
10
55.14320282396271
20
-55.01351369876427
0
VERTEX
8
L1
10
55.10838930201278
20
-55.02439024390243
0
SEQEND
0
POLYLINE
8
L1
66
1
70
1
0
VERTEX
8
L1
10
53.84522642519211
20
-56.37677172565703
0
VERTEX
8
L1
10
53.88053473621498
20
-56.3913969069472
0
VERTEX
8
L1
10
53.91584304723786
20
-56.37677172565703
0
VERTEX
8
L1
10
53.93046822852803
20
-56.341463414634156
0
VERTEX
8
L1
10
53.91584304723786
20
-56.30615510361126
0
VERTEX
8
L1
10
53.88053473621498
20
-56.291529922321104
0
VERTEX
8
L1
10
53.84522642519211
20
-56.30615510361126
0
VERTEX
8
L1
10
53.83060124390194
20
-56.341463414634156
0
VERTEX
8
L1
10
53.84522642519211
20
-56.37677172565703
0
SEQEND
0
POLYLINE
8
L1
66
1
70
1
0
VERTEX
8
L1
10
55.060975609756085
20
-56.341463414634156
0
VERTEX
8
L1
10
55.075600791046256
20
-56.37677172565703
0
VERTEX
8
L1
10
55.11090910206916
20
-56.3913969069472
0
VERTEX
8
L1
10
55.14621741309203
20
-56.37677172565703
0
VERTEX
8
L1
10
55.1608425943822
20
-56.341463414634156
0
VERTEX
8
L1
10
55.14621741309203
20
-56.30615510361126
0
VERTEX
8
L1
10
55.11090910206916
20
-56.291529922321104
0
VERTEX
8
L1
10
55.075600791046256
20
-56.30615510361126
0
VERTEX
8
L1
10
55.060975609756085
20
-56.341463414634156
0
SEQEND
0
POLYLINE
8
L1
66
1
70
1
0
VERTEX
8
L1
10
57.37428576992987
20
-56.30615510361126
0
VERTEX
8
L1
10
57.33897745890697
20
-56.291529922321104
0
VERTEX
8
L1
10
57.303669147884094
20
-56.30615510361126
0
VERTEX
8
L1
10
57.28904396659392
20
-56.341463414634156
0
VERTEX
8
L1
10
57.303669147884094
20
-56.37677172565703
0
VERTEX
8
L1
10
57.33897745890697
20
-56.3913969069472
0
VERTEX
8
L1
10
57.37428576992987
20
-56.37677172565703
0
VERTEX
8
L1
10
57.38891095122001
20
-56.341463414634156
0
VERTEX
8
L1
10
57.37428576992987
20
-56.30615510361126
0
SEQEND
0
POLYLINE
8
L1
66
1
70
1
0
VERTEX
8
L1
10
54.48399871463859
20
-57.57448930852038
0
VERTEX
8
L1
10
54.44918519268866
20
-57.58536585365854
0
VERTEX
8
L1
10
54.432259194063946
20
-57.61767360992939
0
VERTEX
8
L1
10
54.443135739202106
20
-57.65248713187932
0
VERTEX
8
L1
10
54.47544349547299
20
-57.669413130504026
0
VERTEX
8
L1
10
54.51025701742289
20
-57.65853658536585
0
VERTEX
8
L1
10
54.5271830160476
20
-57.626228829095
0
VERTEX
8
L1
10
54.51630647090944
20
-57.59141530714507
0
VERTEX
8
L1
10
54.48399871463859
20
-57.57448930852038
0
SEQEND
0
POLYLINE
8
L1
66
1
70
1
0
VERTEX
8
L1
10
56.742749434516256
20
-56.28048780487804
0
VERTEX
8
L1
10
56.62079821500406
20
-56.28048780487804
0
VERTEX
8
L1
10
56.62079821500406
20
-56.40243902439024
0
VERTEX
8
L1
10
56.742749434516256
20
-56.40243902439024
0
VERTEX
8
L1
10
56.742749434516256
20
-56.28048780487804
0
SEQEND
0
POLYLINE
8
L1
66
1
70
1
0
VERTEX
8
L1
10
56.62615762242855
20
-55.097560975609746
0
VERTEX
8
L1
10
56.66097114437845
20
-55.108437520747906
0
VERTEX
8
L1
10
56.69327890064933
20
-55.09151152212321
0
VERTEX
8
L1
10
56.70415544578749
20
-55.056698000173284
0
VERTEX
8
L1
10
56.68722944716278
20
-55.02439024390243
0
VERTEX
8
L1
10
56.65241592521288
20
-55.01351369876427
0
VERTEX
8
L1
10
56.620108168942
20
-55.030439697388964
0
VERTEX
8
L1
10
56.609231623803836
20
-55.06525321933889
0
VERTEX
8
L1
10
56.62615762242855
20
-55.097560975609746
0
SEQEND
0
POLYLINE
8
L1
66
1
70
1
0
VERTEX
8
L1
10
56.3951884589065
20
-56.28048780487804
0
VERTEX
8
L1
10
56.273237239394305
20
-56.28048780487804
0
VERTEX
8
L1
10
56.273237239394305
20
-56.40243902439024
0
VERTEX
8
L1
10
56.3951884589065
20
-56.40243902439024
0
VERTEX
8
L1
10
56.3951884589065
20
-56.28048780487804
0
SEQEND
0
POLYLINE
8
L1
66
1
70
1
0
VERTEX
8
L1
10
55.82791129973613
20
-55.108437520747906
0
VERTEX
8
L1
10
55.86021905600698
20
-55.09151152212321
0
VERTEX
8
L1
10
55.87109560114514
20
-55.056698000173284
0
VERTEX
8
L1
10
55.85416960252043
20
-55.02439024390243
0
VERTEX
8
L1
10
55.8193560805705
20
-55.01351369876427
0
VERTEX
8
L1
10
55.787048324299676
20
-55.030439697388964
0
VERTEX
8
L1
10
55.776171779161515
20
-55.06525321933889
0
VERTEX
8
L1
10
55.7930977777862
20
-55.097560975609746
0
VERTEX
8
L1
10
55.82791129973613
20
-55.108437520747906
0
SEQEND
0
POLYLINE
8
L1
66
1
70
1
0
VERTEX
8
L1
10
55.726762760605695
20
-56.795203665213094
0
VERTEX
8
L1
10
55.82330946517355
20
-56.795203665213094
0
VERTEX
8
L1
10
55.82330946517355
20
-57.40495976277407
0
VERTEX
8
L1
10
55.798919221271106
20
-57.40495976277407
0
VERTEX
8
L1
10
55.798919221271106
20
-57.52691098228627
0
VERTEX
8
L1
10
55.920870440783304
20
-57.52691098228627
0
VERTEX
8
L1
10
55.920870440783304
20
-56.69764268960334
0
VERTEX
8
L1
10
55.84871398011789
20
-56.69764268960334
0
VERTEX
8
L1
10
55.84871398011789
20
-56.28048780487804
0
VERTEX
8
L1
10
55.726762760605695
20
-56.28048780487804
0
VERTEX
8
L1
10
55.726762760605695
20
-56.795203665213094
0
SEQEND
0
POLYLINE
8
L1
66
1
70
1
0
VERTEX
8
L1
10
56.51496037267303
20
-57.65853658536585
0
VERTEX
8
L1
10
56.54977389462296
20
-57.66941313050401
0
VERTEX
8
L1
10
56.58208165089381
20
-57.65248713187932
0
VERTEX
8
L1
10
56.59295819603197
20
-57.61767360992939
0
VERTEX
8
L1
10
56.57603219740729
20
-57.58536585365854
0
VERTEX
8
L1
10
56.54121867545736
20
-57.57448930852038
0
VERTEX
8
L1
10
56.50891091918648
20
-57.59141530714507
0
VERTEX
8
L1
10
56.498034374048316
20
-57.626228829095
0
VERTEX
8
L1
10
56.51496037267303
20
-57.65853658536585
0
SEQEND
0
POLYLINE
8
L1
66
1
70
1
0
VERTEX
8
L1
10
54.476762760605695
20
-56.40243902439024
0
VERTEX
8
L1
10
54.59871398011789
20
-56.40243902439024
0
VERTEX
8
L1
10
54.59871398011789
20
-56.28048780487804
0
VERTEX
8
L1
10
54.476762760605695
20
-56.28048780487804
0
VERTEX
8
L1
10
54.476762760605695
20
-56.40243902439024
0
SEQEND
0
ENDBLK
0
ENDSEC
0
SECTION
2
ENTITIES
0
INSERT
2
LDI_XFB44-1600-011_L1_B1
8
L1
10
0
20
0.0
30
0
0
INSERT
2
LDI_XFB44-1600-011_L1_B1
8
L1
10
0
20
5.121951219512195
30
0
0
INSERT
2
LDI_XFB44-1600-011_L1_B1
8
L1
10
0
20
10.24390243902439
30
0
0
INSERT
2
LDI_XFB44-1600-011_L1_B1
8
L1
10
0
20
15.365853658536587
30
0
0
INSERT
2
LDI_XFB44-1600-011_L1_B1
8
L1
10
0
20
20.48780487804878
30
0
0
INSERT
2
LDI_XFB44-1600-011_L1_B1
8
L1
10
0
20
25.609756097560975
30
0
0
INSERT
2
LDI_XFB44-1600-011_L1_B1
8
L1
10
0
20
30.731707317073173
30
0
0
INSERT
2
LDI_XFB44-1600-011_L1_B1
8
L1
10
0
20
35.853658536585364
30
0
0
INSERT
2
LDI_XFB44-1600-011_L1_B1
8
L1
10
0
20
40.97560975609756
30
0
0
INSERT
2
LDI_XFB44-1600-011_L1_B1
8
L1
10
0
20
46.09756097560976
30
0
0
INSERT
2
LDI_XFB44-1600-011_L1_B1
8
L1
10
0
20
51.21951219512195
30
0
0
INSERT
2
LDI_XFB44-1600-011_L1_B1
8
L1
10
0
20
56.34146341463415
30
0
0
INSERT
2
LDI_XFB44-1600-011_L1_B1
8
L1
10
0
20
61.463414634146346
30
0
0
INSERT
2
LDI_XFB44-1600-011_L1_B1
8
L1
10
0
20
66.58536585365854
30
0
0
INSERT
2
LDI_XFB44-1600-011_L1_B1
8
L1
10
0
20
71.70731707317073
30
0
0
INSERT
2
LDI_XFB44-1600-011_L1_B1
8
L1
10
0
20
76.82926829268293
30
0
0
INSERT
2
LDI_XFB44-1600-011_L1_B1
8
L1
10
0
20
81.95121951219512
30
0
0
INSERT
2
LDI_XFB44-1600-011_L1_B1
8
L1
10
0
20
87.07317073170732
30
0
0
INSERT
2
LDI_XFB44-1600-011_L1_B1
8
L1
10
0
20
92.19512195121952
30
0
0
INSERT
2
LDI_XFB44-1600-011_L1_B1
8
L1
10
0
20
97.3170731707317
30
0
0
INSERT
2
LDI_XFB44-1600-011_L1_B1
8
L1
10
0
20
102.4390243902439
30
0
0
INSERT
2
LDI_XFB44-1600-011_L1_B1
8
L1
10
0
20
107.5609756097561
30
0
0
INSERT
2
LDI_XFB44-1600-011_L1_B1
8
L1
10
0
20
112.6829268292683
30
0
0
POLYLINE
8
L1
66
1
70
1
40
0.1
41
0.1
0
VERTEX
8
L1
10
-61.5
20
-61.2
42
1.0
0
VERTEX
8
L1
10
-60.900000000000006
20
-61.2
42
1.0
0
SEQEND
0
POLYLINE
8
L1
66
1
70
1
40
0.1
41
0.1
0
VERTEX
8
L1
10
-61.5
20
61.2
42
1.0
0
VERTEX
8
L1
10
-60.900000000000006
20
61.2
42
1.0
0
SEQEND
0
POLYLINE
8
L1
66
1
70
1
40
0.1
41
0.1
0
VERTEX
8
L1
10
60.90000000000002
20
-61.2
42
1.0
0
VERTEX
8
L1
10
61.499999999999986
20
-61.2
42
1.0
0
SEQEND
0
POLYLINE
8
L1
66
1
70
1
40
0.1
41
0.1
0
VERTEX
8
L1
10
60.90000000000002
20
61.2
42
1.0
0
VERTEX
8
L1
10
61.499999999999986
20
61.2
42
1.0
0
SEQEND
0
POLYLINE
8
L1
66
1
70
1
0
VERTEX
8
L1
10
-64.46966991411009
20
-64.46966991411009
40
0.08
41
0.08
0
VERTEX
8
L1
10
-65.53033008588991
20
-65.53033008588991
40
0.08
41
0.08
0
SEQEND
0
POLYLINE
8
L1
66
1
70
1
0
VERTEX
8
L1
10
-64.46966991411009
20
-65.53033008588991
40
0.08
41
0.08
0
VERTEX
8
L1
10
-65.53033008588991
20
-64.46966991411009
40
0.08
41
0.08
0
SEQEND
0
POLYLINE
8
L1
66
1
70
1
0
VERTEX
8
L1
10
-64.46966991411009
20
65.53033008588993
40
0.08
41
0.08
0
VERTEX
8
L1
10
-65.53033008588991
20
64.4696699141101
40
0.08
41
0.08
0
SEQEND
0
POLYLINE
8
L1
66
1
70
1
0
VERTEX
8
L1
10
-64.46966991411009
20
64.4696699141101
40
0.08
41
0.08
0
VERTEX
8
L1
10
-65.53033008588991
20
65.53033008588993
40
0.08
41
0.08
0
SEQEND
0
POLYLINE
8
L1
66
1
70
1
0
VERTEX
8
L1
10
65.53033008588993
20
65.53033008588993
40
0.08
41
0.08
0
VERTEX
8
L1
10
64.4696699141101
20
64.4696699141101
40
0.08
41
0.08
0
SEQEND
0
POLYLINE
8
L1
66
1
70
1
0
VERTEX
8
L1
10
65.53033008588993
20
64.4696699141101
40
0.08
41
0.08
0
VERTEX
8
L1
10
64.4696699141101
20
65.53033008588993
40
0.08
41
0.08
0
SEQEND
0
POLYLINE
8
L1
66
1
70
1
0
VERTEX
8
L1
10
65.74999999999999
20
-65.0
40
0.08
41
0.08
0
VERTEX
8
L1
10
64.24999999999999
20
-65.0
40
0.08
41
0.08
0
SEQEND
0
POLYLINE
8
L1
66
1
70
1
0
VERTEX
8
L1
10
64.99999999999999
20
-64.25
40
0.08
41
0.08
0
VERTEX
8
L1
10
64.99999999999999
20
-65.75
40
0.08
41
0.08
0
SEQEND
0
POLYLINE
8
L1
66
1
70
1
0
VERTEX
8
L1
10
-58.536585365853654
20
-61.2
40
0.08
41
0.08
0
VERTEX
8
L1
10
-58.536585365853654
20
-64.2
40
0.08
41
0.08
0
SEQEND
0
POLYLINE
8
L1
66
1
70
1
0
VERTEX
8
L1
10
-58.536585365853654
20
61.2
40
0.08
41
0.08
0
VERTEX
8
L1
10
-58.536585365853654
20
64.2
40
0.08
41
0.08
0
SEQEND
0
POLYLINE
8
L1
66
1
70
1
0
VERTEX
8
L1
10
-52.68292682926829
20
-61.2
40
0.08
41
0.08
0
VERTEX
8
L1
10
-52.68292682926829
20
-64.2
40
0.08
41
0.08
0
SEQEND
0
POLYLINE
8
L1
66
1
70
1
0
VERTEX
8
L1
10
-52.68292682926829
20
61.2
40
0.08
41
0.08
0
VERTEX
8
L1
10
-52.68292682926829
20
64.2
40
0.08
41
0.08
0
SEQEND
0
POLYLINE
8
L1
66
1
70
1
0
VERTEX
8
L1
10
-46.829268292682926
20
-61.2
40
0.08
41
0.08
0
VERTEX
8
L1
10
-46.829268292682926
20
-64.2
40
0.08
41
0.08
0
SEQEND
0
POLYLINE
8
L1
66
1
70
1
0
VERTEX
8
L1
10
-46.829268292682926
20
61.2
40
0.08
41
0.08
0
VERTEX
8
L1
10
-46.829268292682926
20
64.2
40
0.08
41
0.08
0
SEQEND
0
POLYLINE
8
L1
66
1
70
1
0
VERTEX
8
L1
10
-40.975609756097555
20
-61.2
40
0.08
41
0.08
0
VERTEX
8
L1
10
-40.975609756097555
20
-64.2
40
0.08
41
0.08
0
SEQEND
0
POLYLINE
8
L1
66
1
70
1
0
VERTEX
8
L1
10
-40.975609756097555
20
61.2
40
0.08
41
0.08
0
VERTEX
8
L1
10
-40.975609756097555
20
64.2
40
0.08
41
0.08
0
SEQEND
0
POLYLINE
8
L1
66
1
70
1
0
VERTEX
8
L1
10
-35.121951219512184
20
-61.2
40
0.08
41
0.08
0
VERTEX
8
L1
10
-35.121951219512184
20
-64.2
40
0.08
41
0.08
0
SEQEND
0
POLYLINE
8
L1
66
1
70
1
0
VERTEX
8
L1
10
-35.121951219512184
20
61.2
40
0.08
41
0.08
0
VERTEX
8
L1
10
-35.121951219512184
20
64.2
40
0.08
41
0.08
0
SEQEND
0
POLYLINE
8
L1
66
1
70
1
0
VERTEX
8
L1
10
-29.268292682926827
20
-61.2
40
0.08
41
0.08
0
VERTEX
8
L1
10
-29.268292682926827
20
-64.2
40
0.08
41
0.08
0
SEQEND
0
POLYLINE
8
L1
66
1
70
1
0
VERTEX
8
L1
10
-29.268292682926827
20
61.2
40
0.08
41
0.08
0
VERTEX
8
L1
10
-29.268292682926827
20
64.2
40
0.08
41
0.08
0
SEQEND
0
POLYLINE
8
L1
66
1
70
1
0
VERTEX
8
L1
10
-23.414634146341456
20
-61.2
40
0.08
41
0.08
0
VERTEX
8
L1
10
-23.414634146341456
20
-64.2
40
0.08
41
0.08
0
SEQEND
0
POLYLINE
8
L1
66
1
70
1
0
VERTEX
8
L1
10
-23.414634146341456
20
61.2
40
0.08
41
0.08
0
VERTEX
8
L1
10
-23.414634146341456
20
64.2
40
0.08
41
0.08
0
SEQEND
0
POLYLINE
8
L1
66
1
70
1
0
VERTEX
8
L1
10
-17.560975609756085
20
-61.2
40
0.08
41
0.08
0
VERTEX
8
L1
10
-17.560975609756085
20
-64.2
40
0.08
41
0.08
0
SEQEND
0
POLYLINE
8
L1
66
1
70
1
0
VERTEX
8
L1
10
-17.560975609756085
20
61.2
40
0.08
41
0.08
0
VERTEX
8
L1
10
-17.560975609756085
20
64.2
40
0.08
41
0.08
0
SEQEND
0
POLYLINE
8
L1
66
1
70
1
0
VERTEX
8
L1
10
-11.707317073170728
20
-61.2
40
0.08
41
0.08
0
VERTEX
8
L1
10
-11.707317073170728
20
-64.2
40
0.08
41
0.08
0
SEQEND
0
POLYLINE
8
L1
66
1
70
1
0
VERTEX
8
L1
10
-11.707317073170728
20
61.2
40
0.08
41
0.08
0
VERTEX
8
L1
10
-11.707317073170728
20
64.2
40
0.08
41
0.08
0
SEQEND
0
POLYLINE
8
L1
66
1
70
1
0
VERTEX
8
L1
10
-5.853658536585371
20
-61.2
40
0.08
41
0.08
0
VERTEX
8
L1
10
-5.853658536585371
20
-64.2
40
0.08
41
0.08
0
SEQEND
0
POLYLINE
8
L1
66
1
70
1
0
VERTEX
8
L1
10
-5.853658536585371
20
61.2
40
0.08
41
0.08
0
VERTEX
8
L1
10
-5.853658536585371
20
64.2
40
0.08
41
0.08
0
SEQEND
0
POLYLINE
8
L1
66
1
70
1
0
VERTEX
8
L1
10
0.0
20
-61.2
40
0.08
41
0.08
0
VERTEX
8
L1
10
0.0
20
-64.2
40
0.08
41
0.08
0
SEQEND
0
POLYLINE
8
L1
66
1
70
1
0
VERTEX
8
L1
10
0.0
20
61.2
40
0.08
41
0.08
0
VERTEX
8
L1
10
0.0
20
64.2
40
0.08
41
0.08
0
SEQEND
0
POLYLINE
8
L1
66
1
70
1
0
VERTEX
8
L1
10
5.853658536585371
20
-61.2
40
0.08
41
0.08
0
VERTEX
8
L1
10
5.853658536585371
20
-64.2
40
0.08
41
0.08
0
SEQEND
0
POLYLINE
8
L1
66
1
70
1
0
VERTEX
8
L1
10
5.853658536585371
20
61.2
40
0.08
41
0.08
0
VERTEX
8
L1
10
5.853658536585371
20
64.2
40
0.08
41
0.08
0
SEQEND
0
POLYLINE
8
L1
66
1
70
1
0
VERTEX
8
L1
10
11.707317073170742
20
-61.2
40
0.08
41
0.08
0
VERTEX
8
L1
10
11.707317073170742
20
-64.2
40
0.08
41
0.08
0
SEQEND
0
POLYLINE
8
L1
66
1
70
1
0
VERTEX
8
L1
10
11.707317073170742
20
61.2
40
0.08
41
0.08
0
VERTEX
8
L1
10
11.707317073170742
20
64.2
40
0.08
41
0.08
0
SEQEND
0
POLYLINE
8
L1
66
1
70
1
0
VERTEX
8
L1
10
17.560975609756085
20
-61.2
40
0.08
41
0.08
0
VERTEX
8
L1
10
17.560975609756085
20
-64.2
40
0.08
41
0.08
0
SEQEND
0
POLYLINE
8
L1
66
1
70
1
0
VERTEX
8
L1
10
17.560975609756085
20
61.2
40
0.08
41
0.08
0
VERTEX
8
L1
10
17.560975609756085
20
64.2
40
0.08
41
0.08
0
SEQEND
0
POLYLINE
8
L1
66
1
70
1
0
VERTEX
8
L1
10
23.41463414634147
20
-61.2
40
0.08
41
0.08
0
VERTEX
8
L1
10
23.41463414634147
20
-64.2
40
0.08
41
0.08
0
SEQEND
0
POLYLINE
8
L1
66
1
70
1
0
VERTEX
8
L1
10
23.41463414634147
20
61.2
40
0.08
41
0.08
0
VERTEX
8
L1
10
23.41463414634147
20
64.2
40
0.08
41
0.08
0
SEQEND
0
POLYLINE
8
L1
66
1
70
1
0
VERTEX
8
L1
10
29.268292682926827
20
-61.2
40
0.08
41
0.08
0
VERTEX
8
L1
10
29.268292682926827
20
-64.2
40
0.08
41
0.08
0
SEQEND
0
POLYLINE
8
L1
66
1
70
1
0
VERTEX
8
L1
10
29.268292682926827
20
61.2
40
0.08
41
0.08
0
VERTEX
8
L1
10
29.268292682926827
20
64.2
40
0.08
41
0.08
0
SEQEND
0
POLYLINE
8
L1
66
1
70
1
0
VERTEX
8
L1
10
35.121951219512184
20
-61.2
40
0.08
41
0.08
0
VERTEX
8
L1
10
35.121951219512184
20
-64.2
40
0.08
41
0.08
0
SEQEND
0
POLYLINE
8
L1
66
1
70
1
0
VERTEX
8
L1
10
35.121951219512184
20
61.2
40
0.08
41
0.08
0
VERTEX
8
L1
10
35.121951219512184
20
64.2
40
0.08
41
0.08
0
SEQEND
0
POLYLINE
8
L1
66
1
70
1
0
VERTEX
8
L1
10
40.97560975609757
20
-61.2
40
0.08
41
0.08
0
VERTEX
8
L1
10
40.97560975609757
20
-64.2
40
0.08
41
0.08
0
SEQEND
0
POLYLINE
8
L1
66
1
70
1
0
VERTEX
8
L1
10
40.97560975609757
20
61.2
40
0.08
41
0.08
0
VERTEX
8
L1
10
40.97560975609757
20
64.2
40
0.08
41
0.08
0
SEQEND
0
POLYLINE
8
L1
66
1
70
1
0
VERTEX
8
L1
10
46.829268292682926
20
-61.2
40
0.08
41
0.08
0
VERTEX
8
L1
10
46.829268292682926
20
-64.2
40
0.08
41
0.08
0
SEQEND
0
POLYLINE
8
L1
66
1
70
1
0
VERTEX
8
L1
10
46.829268292682926
20
61.2
40
0.08
41
0.08
0
VERTEX
8
L1
10
46.829268292682926
20
64.2
40
0.08
41
0.08
0
SEQEND
0
POLYLINE
8
L1
66
1
70
1
0
VERTEX
8
L1
10
52.68292682926828
20
-61.2
40
0.08
41
0.08
0
VERTEX
8
L1
10
52.68292682926828
20
-64.2
40
0.08
41
0.08
0
SEQEND
0
POLYLINE
8
L1
66
1
70
1
0
VERTEX
8
L1
10
52.68292682926828
20
61.2
40
0.08
41
0.08
0
VERTEX
8
L1
10
52.68292682926828
20
64.2
40
0.08
41
0.08
0
SEQEND
0
POLYLINE
8
L1
66
1
70
1
0
VERTEX
8
L1
10
58.53658536585367
20
-61.2
40
0.08
41
0.08
0
VERTEX
8
L1
10
58.53658536585367
20
-64.2
40
0.08
41
0.08
0
SEQEND
0
POLYLINE
8
L1
66
1
70
1
0
VERTEX
8
L1
10
58.53658536585367
20
61.2
40
0.08
41
0.08
0
VERTEX
8
L1
10
58.53658536585367
20
64.2
40
0.08
41
0.08
0
SEQEND
0
POLYLINE
8
L1
66
1
70
1
0
VERTEX
8
L1
10
-61.2
20
-58.90243902439025
40
0.08
41
0.08
0
VERTEX
8
L1
10
-64.2
20
-58.90243902439025
40
0.08
41
0.08
0
SEQEND
0
POLYLINE
8
L1
66
1
70
1
0
VERTEX
8
L1
10
61.2
20
-58.90243902439025
40
0.08
41
0.08
0
VERTEX
8
L1
10
64.2
20
-58.90243902439025
40
0.08
41
0.08
0
SEQEND
0
POLYLINE
8
L1
66
1
70
1
0
VERTEX
8
L1
10
-61.2
20
-53.78048780487805
40
0.08
41
0.08
0
VERTEX
8
L1
10
-64.2
20
-53.78048780487805
40
0.08
41
0.08
0
SEQEND
0
POLYLINE
8
L1
66
1
70
1
0
VERTEX
8
L1
10
61.2
20
-53.78048780487805
40
0.08
41
0.08
0
VERTEX
8
L1
10
64.2
20
-53.78048780487805
40
0.08
41
0.08
0
SEQEND
0
POLYLINE
8
L1
66
1
70
1
0
VERTEX
8
L1
10
-61.2
20
-48.65853658536586
40
0.08
41
0.08
0
VERTEX
8
L1
10
-64.2
20
-48.65853658536586
40
0.08
41
0.08
0
SEQEND
0
POLYLINE
8
L1
66
1
70
1
0
VERTEX
8
L1
10
61.2
20
-48.65853658536586
40
0.08
41
0.08
0
VERTEX
8
L1
10
64.2
20
-48.65853658536586
40
0.08
41
0.08
0
SEQEND
0
POLYLINE
8
L1
66
1
70
1
0
VERTEX
8
L1
10
-61.2
20
-43.53658536585367
40
0.08
41
0.08
0
VERTEX
8
L1
10
-64.2
20
-43.53658536585367
40
0.08
41
0.08
0
SEQEND
0
POLYLINE
8
L1
66
1
70
1
0
VERTEX
8
L1
10
61.2
20
-43.53658536585367
40
0.08
41
0.08
0
VERTEX
8
L1
10
64.2
20
-43.53658536585367
40
0.08
41
0.08
0
SEQEND
0
POLYLINE
8
L1
66
1
70
1
0
VERTEX
8
L1
10
-61.2
20
-38.41463414634147
40
0.08
41
0.08
0
VERTEX
8
L1
10
-64.2
20
-38.41463414634147
40
0.08
41
0.08
0
SEQEND
0
POLYLINE
8
L1
66
1
70
1
0
VERTEX
8
L1
10
61.2
20
-38.41463414634147
40
0.08
41
0.08
0
VERTEX
8
L1
10
64.2
20
-38.41463414634147
40
0.08
41
0.08
0
SEQEND
0
POLYLINE
8
L1
66
1
70
1
0
VERTEX
8
L1
10
-61.2
20
-33.29268292682927
40
0.08
41
0.08
0
VERTEX
8
L1
10
-64.2
20
-33.29268292682927
40
0.08
41
0.08
0
SEQEND
0
POLYLINE
8
L1
66
1
70
1
0
VERTEX
8
L1
10
61.2
20
-33.29268292682927
40
0.08
41
0.08
0
VERTEX
8
L1
10
64.2
20
-33.29268292682927
40
0.08
41
0.08
0
SEQEND
0
POLYLINE
8
L1
66
1
70
1
0
VERTEX
8
L1
10
-61.2
20
-28.170731707317074
40
0.08
41
0.08
0
VERTEX
8
L1
10
-64.2
20
-28.170731707317074
40
0.08
41
0.08
0
SEQEND
0
POLYLINE
8
L1
66
1
70
1
0
VERTEX
8
L1
10
61.2
20
-28.170731707317074
40
0.08
41
0.08
0
VERTEX
8
L1
10
64.2
20
-28.170731707317074
40
0.08
41
0.08
0
SEQEND
0
POLYLINE
8
L1
66
1
70
1
0
VERTEX
8
L1
10
-61.2
20
-23.048780487804876
40
0.08
41
0.08
0
VERTEX
8
L1
10
-64.2
20
-23.048780487804876
40
0.08
41
0.08
0
SEQEND
0
POLYLINE
8
L1
66
1
70
1
0
VERTEX
8
L1
10
61.2
20
-23.048780487804876
40
0.08
41
0.08
0
VERTEX
8
L1
10
64.2
20
-23.048780487804876
40
0.08
41
0.08
0
SEQEND
0
POLYLINE
8
L1
66
1
70
1
0
VERTEX
8
L1
10
-61.2
20
-17.92682926829268
40
0.08
41
0.08
0
VERTEX
8
L1
10
-64.2
20
-17.92682926829268
40
0.08
41
0.08
0
SEQEND
0
POLYLINE
8
L1
66
1
70
1
0
VERTEX
8
L1
10
61.2
20
-17.92682926829268
40
0.08
41
0.08
0
VERTEX
8
L1
10
64.2
20
-17.92682926829268
40
0.08
41
0.08
0
SEQEND
0
POLYLINE
8
L1
66
1
70
1
0
VERTEX
8
L1
10
-61.2
20
-12.80487804878048
40
0.08
41
0.08
0
VERTEX
8
L1
10
-64.2
20
-12.80487804878048
40
0.08
41
0.08
0
SEQEND
0
POLYLINE
8
L1
66
1
70
1
0
VERTEX
8
L1
10
61.2
20
-12.80487804878048
40
0.08
41
0.08
0
VERTEX
8
L1
10
64.2
20
-12.80487804878048
40
0.08
41
0.08
0
SEQEND
0
POLYLINE
8
L1
66
1
70
1
0
VERTEX
8
L1
10
-61.2
20
-7.682926829268297
40
0.08
41
0.08
0
VERTEX
8
L1
10
-64.2
20
-7.682926829268297
40
0.08
41
0.08
0
SEQEND
0
POLYLINE
8
L1
66
1
70
1
0
VERTEX
8
L1
10
61.2
20
-7.682926829268297
40
0.08
41
0.08
0
VERTEX
8
L1
10
64.2
20
-7.682926829268297
40
0.08
41
0.08
0
SEQEND
0
POLYLINE
8
L1
66
1
70
1
0
VERTEX
8
L1
10
-61.2
20
-2.560975609756099
40
0.08
41
0.08
0
VERTEX
8
L1
10
-64.2
20
-2.560975609756099
40
0.08
41
0.08
0
SEQEND
0
POLYLINE
8
L1
66
1
70
1
0
VERTEX
8
L1
10
61.2
20
-2.560975609756099
40
0.08
41
0.08
0
VERTEX
8
L1
10
64.2
20
-2.560975609756099
40
0.08
41
0.08
0
SEQEND
0
POLYLINE
8
L1
66
1
70
1
0
VERTEX
8
L1
10
-61.2
20
2.560975609756099
40
0.08
41
0.08
0
VERTEX
8
L1
10
-64.2
20
2.560975609756099
40
0.08
41
0.08
0
SEQEND
0
POLYLINE
8
L1
66
1
70
1
0
VERTEX
8
L1
10
61.2
20
2.560975609756099
40
0.08
41
0.08
0
VERTEX
8
L1
10
64.2
20
2.560975609756099
40
0.08
41
0.08
0
SEQEND
0
POLYLINE
8
L1
66
1
70
1
0
VERTEX
8
L1
10
-61.2
20
7.682926829268297
40
0.08
41
0.08
0
VERTEX
8
L1
10
-64.2
20
7.682926829268297
40
0.08
41
0.08
0
SEQEND
0
POLYLINE
8
L1
66
1
70
1
0
VERTEX
8
L1
10
61.2
20
7.682926829268297
40
0.08
41
0.08
0
VERTEX
8
L1
10
64.2
20
7.682926829268297
40
0.08
41
0.08
0
SEQEND
0
POLYLINE
8
L1
66
1
70
1
0
VERTEX
8
L1
10
-61.2
20
12.80487804878048
40
0.08
41
0.08
0
VERTEX
8
L1
10
-64.2
20
12.80487804878048
40
0.08
41
0.08
0
SEQEND
0
POLYLINE
8
L1
66
1
70
1
0
VERTEX
8
L1
10
61.2
20
12.80487804878048
40
0.08
41
0.08
0
VERTEX
8
L1
10
64.2
20
12.80487804878048
40
0.08
41
0.08
0
SEQEND
0
POLYLINE
8
L1
66
1
70
1
0
VERTEX
8
L1
10
-61.2
20
17.92682926829268
40
0.08
41
0.08
0
VERTEX
8
L1
10
-64.2
20
17.92682926829268
40
0.08
41
0.08
0
SEQEND
0
POLYLINE
8
L1
66
1
70
1
0
VERTEX
8
L1
10
61.2
20
17.92682926829268
40
0.08
41
0.08
0
VERTEX
8
L1
10
64.2
20
17.92682926829268
40
0.08
41
0.08
0
SEQEND
0
POLYLINE
8
L1
66
1
70
1
0
VERTEX
8
L1
10
-61.2
20
23.048780487804876
40
0.08
41
0.08
0
VERTEX
8
L1
10
-64.2
20
23.048780487804876
40
0.08
41
0.08
0
SEQEND
0
POLYLINE
8
L1
66
1
70
1
0
VERTEX
8
L1
10
61.2
20
23.048780487804876
40
0.08
41
0.08
0
VERTEX
8
L1
10
64.2
20
23.048780487804876
40
0.08
41
0.08
0
SEQEND
0
POLYLINE
8
L1
66
1
70
1
0
VERTEX
8
L1
10
-61.2
20
28.170731707317074
40
0.08
41
0.08
0
VERTEX
8
L1
10
-64.2
20
28.170731707317074
40
0.08
41
0.08
0
SEQEND
0
POLYLINE
8
L1
66
1
70
1
0
VERTEX
8
L1
10
61.2
20
28.170731707317074
40
0.08
41
0.08
0
VERTEX
8
L1
10
64.2
20
28.170731707317074
40
0.08
41
0.08
0
SEQEND
0
POLYLINE
8
L1
66
1
70
1
0
VERTEX
8
L1
10
-61.2
20
33.29268292682927
40
0.08
41
0.08
0
VERTEX
8
L1
10
-64.2
20
33.29268292682927
40
0.08
41
0.08
0
SEQEND
0
POLYLINE
8
L1
66
1
70
1
0
VERTEX
8
L1
10
61.2
20
33.29268292682927
40
0.08
41
0.08
0
VERTEX
8
L1
10
64.2
20
33.29268292682927
40
0.08
41
0.08
0
SEQEND
0
POLYLINE
8
L1
66
1
70
1
0
VERTEX
8
L1
10
-61.2
20
38.41463414634147
40
0.08
41
0.08
0
VERTEX
8
L1
10
-64.2
20
38.41463414634147
40
0.08
41
0.08
0
SEQEND
0
POLYLINE
8
L1
66
1
70
1
0
VERTEX
8
L1
10
61.2
20
38.41463414634147
40
0.08
41
0.08
0
VERTEX
8
L1
10
64.2
20
38.41463414634147
40
0.08
41
0.08
0
SEQEND
0
POLYLINE
8
L1
66
1
70
1
0
VERTEX
8
L1
10
-61.2
20
43.53658536585367
40
0.08
41
0.08
0
VERTEX
8
L1
10
-64.2
20
43.53658536585367
40
0.08
41
0.08
0
SEQEND
0
POLYLINE
8
L1
66
1
70
1
0
VERTEX
8
L1
10
61.2
20
43.53658536585367
40
0.08
41
0.08
0
VERTEX
8
L1
10
64.2
20
43.53658536585367
40
0.08
41
0.08
0
SEQEND
0
POLYLINE
8
L1
66
1
70
1
0
VERTEX
8
L1
10
-61.2
20
48.658536585365866
40
0.08
41
0.08
0
VERTEX
8
L1
10
-64.2
20
48.658536585365866
40
0.08
41
0.08
0
SEQEND
0
POLYLINE
8
L1
66
1
70
1
0
VERTEX
8
L1
10
61.2
20
48.658536585365866
40
0.08
41
0.08
0
VERTEX
8
L1
10
64.2
20
48.658536585365866
40
0.08
41
0.08
0
SEQEND
0
POLYLINE
8
L1
66
1
70
1
0
VERTEX
8
L1
10
-61.2
20
53.780487804878064
40
0.08
41
0.08
0
VERTEX
8
L1
10
-64.2
20
53.780487804878064
40
0.08
41
0.08
0
SEQEND
0
POLYLINE
8
L1
66
1
70
1
0
VERTEX
8
L1
10
61.2
20
53.780487804878064
40
0.08
41
0.08
0
VERTEX
8
L1
10
64.2
20
53.780487804878064
40
0.08
41
0.08
0
SEQEND
0
POLYLINE
8
L1
66
1
70
1
0
VERTEX
8
L1
10
-61.2
20
58.90243902439026
40
0.08
41
0.08
0
VERTEX
8
L1
10
-64.2
20
58.90243902439026
40
0.08
41
0.08
0
SEQEND
0
POLYLINE
8
L1
66
1
70
1
0
VERTEX
8
L1
10
61.2
20
58.90243902439026
40
0.08
41
0.08
0
VERTEX
8
L1
10
64.2
20
58.90243902439026
40
0.08
41
0.08
0
SEQEND
0
INSERT
2
cutlineendpoint
8
L1
10
-64.46966991411009
20
-64.46966991411009
0
INSERT
2
cutlineendpoint
8
L1
10
-65.53033008588991
20
-65.53033008588991
0
INSERT
2
cutlineendpoint
8
L1
10
-64.46966991411009
20
-65.53033008588991
0
INSERT
2
cutlineendpoint
8
L1
10
-65.53033008588991
20
-64.46966991411009
0
INSERT
2
cutlineendpoint
8
L1
10
-64.46966991411009
20
65.53033008588993
0
INSERT
2
cutlineendpoint
8
L1
10
-65.53033008588991
20
64.4696699141101
0
INSERT
2
cutlineendpoint
8
L1
10
-64.46966991411009
20
64.4696699141101
0
INSERT
2
cutlineendpoint
8
L1
10
-65.53033008588991
20
65.53033008588993
0
INSERT
2
cutlineendpoint
8
L1
10
65.53033008588993
20
65.53033008588993
0
INSERT
2
cutlineendpoint
8
L1
10
64.4696699141101
20
64.4696699141101
0
INSERT
2
cutlineendpoint
8
L1
10
65.53033008588993
20
64.4696699141101
0
INSERT
2
cutlineendpoint
8
L1
10
64.4696699141101
20
65.53033008588993
0
INSERT
2
cutlineendpoint
8
L1
10
65.74999999999999
20
-65.0
0
INSERT
2
cutlineendpoint
8
L1
10
64.24999999999999
20
-65.0
0
INSERT
2
cutlineendpoint
8
L1
10
64.99999999999999
20
-64.25
0
INSERT
2
cutlineendpoint
8
L1
10
64.99999999999999
20
-65.75
0
INSERT
2
cutlineendpoint
8
L1
10
-58.536585365853654
20
-61.2
0
INSERT
2
cutlineendpoint
8
L1
10
-58.536585365853654
20
61.2
0
INSERT
2
cutlineendpoint
8
L1
10
-58.536585365853654
20
-64.2
0
INSERT
2
cutlineendpoint
8
L1
10
-58.536585365853654
20
64.2
0
INSERT
2
cutlineendpoint
8
L1
10
-52.68292682926829
20
-61.2
0
INSERT
2
cutlineendpoint
8
L1
10
-52.68292682926829
20
61.2
0
INSERT
2
cutlineendpoint
8
L1
10
-52.68292682926829
20
-64.2
0
INSERT
2
cutlineendpoint
8
L1
10
-52.68292682926829
20
64.2
0
INSERT
2
cutlineendpoint
8
L1
10
-46.829268292682926
20
-61.2
0
INSERT
2
cutlineendpoint
8
L1
10
-46.829268292682926
20
61.2
0
INSERT
2
cutlineendpoint
8
L1
10
-46.829268292682926
20
-64.2
0
INSERT
2
cutlineendpoint
8
L1
10
-46.829268292682926
20
64.2
0
INSERT
2
cutlineendpoint
8
L1
10
-40.975609756097555
20
-61.2
0
INSERT
2
cutlineendpoint
8
L1
10
-40.975609756097555
20
61.2
0
INSERT
2
cutlineendpoint
8
L1
10
-40.975609756097555
20
-64.2
0
INSERT
2
cutlineendpoint
8
L1
10
-40.975609756097555
20
64.2
0
INSERT
2
cutlineendpoint
8
L1
10
-35.121951219512184
20
-61.2
0
INSERT
2
cutlineendpoint
8
L1
10
-35.121951219512184
20
61.2
0
INSERT
2
cutlineendpoint
8
L1
10
-35.121951219512184
20
-64.2
0
INSERT
2
cutlineendpoint
8
L1
10
-35.121951219512184
20
64.2
0
INSERT
2
cutlineendpoint
8
L1
10
-29.268292682926827
20
-61.2
0
INSERT
2
cutlineendpoint
8
L1
10
-29.268292682926827
20
61.2
0
INSERT
2
cutlineendpoint
8
L1
10
-29.268292682926827
20
-64.2
0
INSERT
2
cutlineendpoint
8
L1
10
-29.268292682926827
20
64.2
0
INSERT
2
cutlineendpoint
8
L1
10
-23.414634146341456
20
-61.2
0
INSERT
2
cutlineendpoint
8
L1
10
-23.414634146341456
20
61.2
0
INSERT
2
cutlineendpoint
8
L1
10
-23.414634146341456
20
-64.2
0
INSERT
2
cutlineendpoint
8
L1
10
-23.414634146341456
20
64.2
0
INSERT
2
cutlineendpoint
8
L1
10
-17.560975609756085
20
-61.2
0
INSERT
2
cutlineendpoint
8
L1
10
-17.560975609756085
20
61.2
0
INSERT
2
cutlineendpoint
8
L1
10
-17.560975609756085
20
-64.2
0
INSERT
2
cutlineendpoint
8
L1
10
-17.560975609756085
20
64.2
0
INSERT
2
cutlineendpoint
8
L1
10
-11.707317073170728
20
-61.2
0
INSERT
2
cutlineendpoint
8
L1
10
-11.707317073170728
20
61.2
0
INSERT
2
cutlineendpoint
8
L1
10
-11.707317073170728
20
-64.2
0
INSERT
2
cutlineendpoint
8
L1
10
-11.707317073170728
20
64.2
0
INSERT
2
cutlineendpoint
8
L1
10
-5.853658536585371
20
-61.2
0
INSERT
2
cutlineendpoint
8
L1
10
-5.853658536585371
20
61.2
0
INSERT
2
cutlineendpoint
8
L1
10
-5.853658536585371
20
-64.2
0
INSERT
2
cutlineendpoint
8
L1
10
-5.853658536585371
20
64.2
0
INSERT
2
cutlineendpoint
8
L1
10
0.0
20
-61.2
0
INSERT
2
cutlineendpoint
8
L1
10
0.0
20
61.2
0
INSERT
2
cutlineendpoint
8
L1
10
0.0
20
-64.2
0
INSERT
2
cutlineendpoint
8
L1
10
0.0
20
64.2
0
INSERT
2
cutlineendpoint
8
L1
10
5.853658536585371
20
-61.2
0
INSERT
2
cutlineendpoint
8
L1
10
5.853658536585371
20
61.2
0
INSERT
2
cutlineendpoint
8
L1
10
5.853658536585371
20
-64.2
0
INSERT
2
cutlineendpoint
8
L1
10
5.853658536585371
20
64.2
0
INSERT
2
cutlineendpoint
8
L1
10
11.707317073170742
20
-61.2
0
INSERT
2
cutlineendpoint
8
L1
10
11.707317073170742
20
61.2
0
INSERT
2
cutlineendpoint
8
L1
10
11.707317073170742
20
-64.2
0
INSERT
2
cutlineendpoint
8
L1
10
11.707317073170742
20
64.2
0
INSERT
2
cutlineendpoint
8
L1
10
17.560975609756085
20
-61.2
0
INSERT
2
cutlineendpoint
8
L1
10
17.560975609756085
20
61.2
0
INSERT
2
cutlineendpoint
8
L1
10
17.560975609756085
20
-64.2
0
INSERT
2
cutlineendpoint
8
L1
10
17.560975609756085
20
64.2
0
INSERT
2
cutlineendpoint
8
L1
10
23.41463414634147
20
-61.2
0
INSERT
2
cutlineendpoint
8
L1
10
23.41463414634147
20
61.2
0
INSERT
2
cutlineendpoint
8
L1
10
23.41463414634147
20
-64.2
0
INSERT
2
cutlineendpoint
8
L1
10
23.41463414634147
20
64.2
0
INSERT
2
cutlineendpoint
8
L1
10
29.268292682926827
20
-61.2
0
INSERT
2
cutlineendpoint
8
L1
10
29.268292682926827
20
61.2
0
INSERT
2
cutlineendpoint
8
L1
10
29.268292682926827
20
-64.2
0
INSERT
2
cutlineendpoint
8
L1
10
29.268292682926827
20
64.2
0
INSERT
2
cutlineendpoint
8
L1
10
35.121951219512184
20
-61.2
0
INSERT
2
cutlineendpoint
8
L1
10
35.121951219512184
20
61.2
0
INSERT
2
cutlineendpoint
8
L1
10
35.121951219512184
20
-64.2
0
INSERT
2
cutlineendpoint
8
L1
10
35.121951219512184
20
64.2
0
INSERT
2
cutlineendpoint
8
L1
10
40.97560975609757
20
-61.2
0
INSERT
2
cutlineendpoint
8
L1
10
40.97560975609757
20
61.2
0
INSERT
2
cutlineendpoint
8
L1
10
40.97560975609757
20
-64.2
0
INSERT
2
cutlineendpoint
8
L1
10
40.97560975609757
20
64.2
0
INSERT
2
cutlineendpoint
8
L1
10
46.829268292682926
20
-61.2
0
INSERT
2
cutlineendpoint
8
L1
10
46.829268292682926
20
61.2
0
INSERT
2
cutlineendpoint
8
L1
10
46.829268292682926
20
-64.2
0
INSERT
2
cutlineendpoint
8
L1
10
46.829268292682926
20
64.2
0
INSERT
2
cutlineendpoint
8
L1
10
52.68292682926828
20
-61.2
0
INSERT
2
cutlineendpoint
8
L1
10
52.68292682926828
20
61.2
0
INSERT
2
cutlineendpoint
8
L1
10
52.68292682926828
20
-64.2
0
INSERT
2
cutlineendpoint
8
L1
10
52.68292682926828
20
64.2
0
INSERT
2
cutlineendpoint
8
L1
10
58.53658536585367
20
-61.2
0
INSERT
2
cutlineendpoint
8
L1
10
58.53658536585367
20
61.2
0
INSERT
2
cutlineendpoint
8
L1
10
58.53658536585367
20
-64.2
0
INSERT
2
cutlineendpoint
8
L1
10
58.53658536585367
20
64.2
0
INSERT
2
cutlineendpoint
8
L1
10
-61.2
20
-58.90243902439025
0
INSERT
2
cutlineendpoint
8
L1
10
61.2
20
-58.90243902439025
0
INSERT
2
cutlineendpoint
8
L1
10
-64.2
20
-58.90243902439025
0
INSERT
2
cutlineendpoint
8
L1
10
64.2
20
-58.90243902439025
0
INSERT
2
cutlineendpoint
8
L1
10
-61.2
20
-53.78048780487805
0
INSERT
2
cutlineendpoint
8
L1
10
61.2
20
-53.78048780487805
0
INSERT
2
cutlineendpoint
8
L1
10
-64.2
20
-53.78048780487805
0
INSERT
2
cutlineendpoint
8
L1
10
64.2
20
-53.78048780487805
0
INSERT
2
cutlineendpoint
8
L1
10
-61.2
20
-48.65853658536586
0
INSERT
2
cutlineendpoint
8
L1
10
61.2
20
-48.65853658536586
0
INSERT
2
cutlineendpoint
8
L1
10
-64.2
20
-48.65853658536586
0
INSERT
2
cutlineendpoint
8
L1
10
64.2
20
-48.65853658536586
0
INSERT
2
cutlineendpoint
8
L1
10
-61.2
20
-43.53658536585367
0
INSERT
2
cutlineendpoint
8
L1
10
61.2
20
-43.53658536585367
0
INSERT
2
cutlineendpoint
8
L1
10
-64.2
20
-43.53658536585367
0
INSERT
2
cutlineendpoint
8
L1
10
64.2
20
-43.53658536585367
0
INSERT
2
cutlineendpoint
8
L1
10
-61.2
20
-38.41463414634147
0
INSERT
2
cutlineendpoint
8
L1
10
61.2
20
-38.41463414634147
0
INSERT
2
cutlineendpoint
8
L1
10
-64.2
20
-38.41463414634147
0
INSERT
2
cutlineendpoint
8
L1
10
64.2
20
-38.41463414634147
0
INSERT
2
cutlineendpoint
8
L1
10
-61.2
20
-33.29268292682927
0
INSERT
2
cutlineendpoint
8
L1
10
61.2
20
-33.29268292682927
0
INSERT
2
cutlineendpoint
8
L1
10
-64.2
20
-33.29268292682927
0
INSERT
2
cutlineendpoint
8
L1
10
64.2
20
-33.29268292682927
0
INSERT
2
cutlineendpoint
8
L1
10
-61.2
20
-28.170731707317074
0
INSERT
2
cutlineendpoint
8
L1
10
61.2
20
-28.170731707317074
0
INSERT
2
cutlineendpoint
8
L1
10
-64.2
20
-28.170731707317074
0
INSERT
2
cutlineendpoint
8
L1
10
64.2
20
-28.170731707317074
0
INSERT
2
cutlineendpoint
8
L1
10
-61.2
20
-23.048780487804876
0
INSERT
2
cutlineendpoint
8
L1
10
61.2
20
-23.048780487804876
0
INSERT
2
cutlineendpoint
8
L1
10
-64.2
20
-23.048780487804876
0
INSERT
2
cutlineendpoint
8
L1
10
64.2
20
-23.048780487804876
0
INSERT
2
cutlineendpoint
8
L1
10
-61.2
20
-17.92682926829268
0
INSERT
2
cutlineendpoint
8
L1
10
61.2
20
-17.92682926829268
0
INSERT
2
cutlineendpoint
8
L1
10
-64.2
20
-17.92682926829268
0
INSERT
2
cutlineendpoint
8
L1
10
64.2
20
-17.92682926829268
0
INSERT
2
cutlineendpoint
8
L1
10
-61.2
20
-12.80487804878048
0
INSERT
2
cutlineendpoint
8
L1
10
61.2
20
-12.80487804878048
0
INSERT
2
cutlineendpoint
8
L1
10
-64.2
20
-12.80487804878048
0
INSERT
2
cutlineendpoint
8
L1
10
64.2
20
-12.80487804878048
0
INSERT
2
cutlineendpoint
8
L1
10
-61.2
20
-7.682926829268297
0
INSERT
2
cutlineendpoint
8
L1
10
61.2
20
-7.682926829268297
0
INSERT
2
cutlineendpoint
8
L1
10
-64.2
20
-7.682926829268297
0
INSERT
2
cutlineendpoint
8
L1
10
64.2
20
-7.682926829268297
0
INSERT
2
cutlineendpoint
8
L1
10
-61.2
20
-2.560975609756099
0
INSERT
2
cutlineendpoint
8
L1
10
61.2
20
-2.560975609756099
0
INSERT
2
cutlineendpoint
8
L1
10
-64.2
20
-2.560975609756099
0
INSERT
2
cutlineendpoint
8
L1
10
64.2
20
-2.560975609756099
0
INSERT
2
cutlineendpoint
8
L1
10
-61.2
20
2.560975609756099
0
INSERT
2
cutlineendpoint
8
L1
10
61.2
20
2.560975609756099
0
INSERT
2
cutlineendpoint
8
L1
10
-64.2
20
2.560975609756099
0
INSERT
2
cutlineendpoint
8
L1
10
64.2
20
2.560975609756099
0
INSERT
2
cutlineendpoint
8
L1
10
-61.2
20
7.682926829268297
0
INSERT
2
cutlineendpoint
8
L1
10
61.2
20
7.682926829268297
0
INSERT
2
cutlineendpoint
8
L1
10
-64.2
20
7.682926829268297
0
INSERT
2
cutlineendpoint
8
L1
10
64.2
20
7.682926829268297
0
INSERT
2
cutlineendpoint
8
L1
10
-61.2
20
12.80487804878048
0
INSERT
2
cutlineendpoint
8
L1
10
61.2
20
12.80487804878048
0
INSERT
2
cutlineendpoint
8
L1
10
-64.2
20
12.80487804878048
0
INSERT
2
cutlineendpoint
8
L1
10
64.2
20
12.80487804878048
0
INSERT
2
cutlineendpoint
8
L1
10
-61.2
20
17.92682926829268
0
INSERT
2
cutlineendpoint
8
L1
10
61.2
20
17.92682926829268
0
INSERT
2
cutlineendpoint
8
L1
10
-64.2
20
17.92682926829268
0
INSERT
2
cutlineendpoint
8
L1
10
64.2
20
17.92682926829268
0
INSERT
2
cutlineendpoint
8
L1
10
-61.2
20
23.048780487804876
0
INSERT
2
cutlineendpoint
8
L1
10
61.2
20
23.048780487804876
0
INSERT
2
cutlineendpoint
8
L1
10
-64.2
20
23.048780487804876
0
INSERT
2
cutlineendpoint
8
L1
10
64.2
20
23.048780487804876
0
INSERT
2
cutlineendpoint
8
L1
10
-61.2
20
28.170731707317074
0
INSERT
2
cutlineendpoint
8
L1
10
61.2
20
28.170731707317074
0
INSERT
2
cutlineendpoint
8
L1
10
-64.2
20
28.170731707317074
0
INSERT
2
cutlineendpoint
8
L1
10
64.2
20
28.170731707317074
0
INSERT
2
cutlineendpoint
8
L1
10
-61.2
20
33.29268292682927
0
INSERT
2
cutlineendpoint
8
L1
10
61.2
20
33.29268292682927
0
INSERT
2
cutlineendpoint
8
L1
10
-64.2
20
33.29268292682927
0
INSERT
2
cutlineendpoint
8
L1
10
64.2
20
33.29268292682927
0
INSERT
2
cutlineendpoint
8
L1
10
-61.2
20
38.41463414634147
0
INSERT
2
cutlineendpoint
8
L1
10
61.2
20
38.41463414634147
0
INSERT
2
cutlineendpoint
8
L1
10
-64.2
20
38.41463414634147
0
INSERT
2
cutlineendpoint
8
L1
10
64.2
20
38.41463414634147
0
INSERT
2
cutlineendpoint
8
L1
10
-61.2
20
43.53658536585367
0
INSERT
2
cutlineendpoint
8
L1
10
61.2
20
43.53658536585367
0
INSERT
2
cutlineendpoint
8
L1
10
-64.2
20
43.53658536585367
0
INSERT
2
cutlineendpoint
8
L1
10
64.2
20
43.53658536585367
0
INSERT
2
cutlineendpoint
8
L1
10
-61.2
20
48.658536585365866
0
INSERT
2
cutlineendpoint
8
L1
10
61.2
20
48.658536585365866
0
INSERT
2
cutlineendpoint
8
L1
10
-64.2
20
48.658536585365866
0
INSERT
2
cutlineendpoint
8
L1
10
64.2
20
48.658536585365866
0
INSERT
2
cutlineendpoint
8
L1
10
-61.2
20
53.780487804878064
0
INSERT
2
cutlineendpoint
8
L1
10
61.2
20
53.780487804878064
0
INSERT
2
cutlineendpoint
8
L1
10
-64.2
20
53.780487804878064
0
INSERT
2
cutlineendpoint
8
L1
10
64.2
20
53.780487804878064
0
INSERT
2
cutlineendpoint
8
L1
10
-61.2
20
58.90243902439026
0
INSERT
2
cutlineendpoint
8
L1
10
61.2
20
58.90243902439026
0
INSERT
2
cutlineendpoint
8
L1
10
-64.2
20
58.90243902439026
0
INSERT
2
cutlineendpoint
8
L1
10
64.2
20
58.90243902439026
0
TEXT
8
L1
10
-10.5
20
69.7
40
1.5
1
XFB44-1600-011-L1
0
POLYLINE
8
L1
66
1
70
1
0
VERTEX
8
L1
10
-100.0
20
100.0
30
0
40
1
41
1
0
VERTEX
8
L1
10
100.0
20
100.0
30
0
40
1
41
1
0
VERTEX
8
L1
10
100.0
20
-100.0
30
0
40
1
41
1
0
VERTEX
8
L1
10
-100.0
20
-100.0
30
0
40
1
41
1
0
SEQEND
0
ENDSEC
0
EOF
