0
SECTION
2
HEADER
9
$ACADVER
1
AC1006
9
$INSBASE
10
0.0
20
0.0
30
0.0
9
$EXTMIN
10
-104.25365853658536
20
-104.25365853658536
9
$EXTMAX
10
104.25365853658536
20
116.93658536585366
0
ENDSEC
0
SECTION
2
TABLES
0
TABLE
2
LTYPE
70
1
0
LTYPE
2
CONTINUOUS
70
64
3
Solid line
72
65
73
0
40
0.0
0
ENDTAB
0
TABLE
2
LAYER
70
3
0
LAYER
2
0
70
0
62
255
6
continuous
0
LAYER
2
0
70
0
62
7
6
continuous
0
LAYER
2
C1
70
0
62
7
6
continuous
0
ENDTAB
0
TABLE
2
STYLE
70
2
0
STYLE
2
STANDARD
70
0
40
0
41
1
50
0
71
0
42
1
3
ARIAL.TTF
4

0
STYLE
2
STANDARD
70
0
40
0
41
1
50
0
71
0
42
1
3
ARIAL.TTF
4

0
ENDTAB
0
TABLE
2
VIEW
70
1
0
VIEW
2
Normal
70
0
40
1
10
0.5
20
0.5
41
1
11
0
21
0
31
1
12
0
22
0
32
0
42
50
43
0
44
0
50
0
71
0
0
ENDTAB
0
ENDSEC
0
SECTION
2
BLOCKS
0
BLOCK
8
0
2
cutlineendpoint
70
0
10
0
20
0
30
0
3
cutlineendpoint
0
POLYLINE
8
0
66
1
70
1
40
0.04
41
0.04
0
VERTEX
8
0
10
-0.02
20
0
30
0
42
1.0
0
VERTEX
8
0
10
0.02
20
0
30
0
42
1.0
0
SEQEND
0
ENDBLK
0
BLOCK
8
C1
2
LDI_XFB44-1600-011_C1_B1
70
0
10
0
20
0
30
0
3
LDI_XFB44-1600-011_C1_B1
0
POLYLINE
8
C1
66
1
70
1
0
VERTEX
8
C1
10
-54.82432373621545
20
-56.28048780487804
0
VERTEX
8
C1
10
-54.94627495572764
20
-56.28048780487804
0
VERTEX
8
C1
10
-54.94627495572764
20
-56.3780487804878
0
VERTEX
8
C1
10
-55.25725056548373
20
-56.3780487804878
0
VERTEX
8
C1
10
-55.25725056548373
20
-57.41335780424331
0
VERTEX
8
C1
10
-54.48895788255691
20
-57.41335780424331
0
VERTEX
8
C1
10
-54.48895788255691
20
-56.49999999999999
0
VERTEX
8
C1
10
-54.82432373621545
20
-56.49999999999999
0
VERTEX
8
C1
10
-54.82432373621545
20
-56.28048780487804
0
SEQEND
0
POLYLINE
8
C1
66
1
70
1
0
VERTEX
8
C1
10
-55.334902895212565
20
-54.99999999999999
0
VERTEX
8
C1
10
-55.45685411472476
20
-54.99999999999999
0
VERTEX
8
C1
10
-55.45685411472476
20
-55.12195121951219
0
VERTEX
8
C1
10
-55.334902895212565
20
-55.12195121951219
0
VERTEX
8
C1
10
-55.334902895212565
20
-54.99999999999999
0
SEQEND
0
POLYLINE
8
C1
66
1
70
1
0
VERTEX
8
C1
10
-54.50184305057022
20
-54.99999999999999
0
VERTEX
8
C1
10
-54.62379427008242
20
-54.99999999999999
0
VERTEX
8
C1
10
-54.62379427008242
20
-55.12195121951219
0
VERTEX
8
C1
10
-54.50184305057022
20
-55.12195121951219
0
VERTEX
8
C1
10
-54.50184305057022
20
-54.99999999999999
0
SEQEND
0
POLYLINE
8
C1
66
1
70
1
0
VERTEX
8
C1
10
-56.141562590498175
20
-54.99999999999999
0
VERTEX
8
C1
10
-56.141562590498175
20
-55.121951219512205
0
VERTEX
8
C1
10
-56.01961137098598
20
-55.121951219512205
0
VERTEX
8
C1
10
-56.01961137098598
20
-54.99999999999999
0
VERTEX
8
C1
10
-56.141562590498175
20
-54.99999999999999
0
SEQEND
0
POLYLINE
8
C1
66
1
70
1
0
VERTEX
8
C1
10
-56.678815480310114
20
-57.56097560975609
0
VERTEX
8
C1
10
-56.80076669982231
20
-57.56097560975609
0
VERTEX
8
C1
10
-56.80076669982231
20
-57.68292682926829
0
VERTEX
8
C1
10
-56.678815480310114
20
-57.68292682926829
0
VERTEX
8
C1
10
-56.678815480310114
20
-57.56097560975609
0
SEQEND
0
POLYLINE
8
C1
66
1
70
1
0
VERTEX
8
C1
10
-57.140195794949975
20
-55.12195121951219
0
VERTEX
8
C1
10
-57.018244575437784
20
-55.12195121951219
0
VERTEX
8
C1
10
-57.018244575437784
20
-54.99999999999999
0
VERTEX
8
C1
10
-57.140195794949975
20
-54.99999999999999
0
VERTEX
8
C1
10
-57.140195794949975
20
-55.12195121951219
0
SEQEND
0
POLYLINE
8
C1
66
1
70
1
0
VERTEX
8
C1
10
-54.73499151983793
20
-57.68292682926829
0
VERTEX
8
C1
10
-54.613040300325736
20
-57.68292682926829
0
VERTEX
8
C1
10
-54.613040300325736
20
-57.56097560975609
0
VERTEX
8
C1
10
-54.73499151983793
20
-57.56097560975609
0
VERTEX
8
C1
10
-54.73499151983793
20
-57.68292682926829
0
SEQEND
0
POLYLINE
8
C1
66
1
70
1
0
VERTEX
8
C1
10
-56.254944556467464
20
-57.41335780424331
0
VERTEX
8
C1
10
-55.68177382476015
20
-57.41335780424331
0
VERTEX
8
C1
10
-55.68177382476015
20
-56.49999999999999
0
VERTEX
8
C1
10
-56.04762748329674
20
-56.49999999999999
0
VERTEX
8
C1
10
-56.04762748329674
20
-56.28048780487804
0
VERTEX
8
C1
10
-56.16957870280893
20
-56.28048780487804
0
VERTEX
8
C1
10
-56.16957870280893
20
-56.49999999999999
0
VERTEX
8
C1
10
-56.254944556467464
20
-56.49999999999999
0
VERTEX
8
C1
10
-56.254944556467464
20
-57.41335780424331
0
SEQEND
0
POLYLINE
8
C1
66
1
70
1
0
VERTEX
8
C1
10
-54.262243229440244
20
-57.68292682926829
0
VERTEX
8
C1
10
-54.140292009928054
20
-57.68292682926829
0
VERTEX
8
C1
10
-54.140292009928054
20
-57.56097560975609
0
VERTEX
8
C1
10
-54.262243229440244
20
-57.56097560975609
0
VERTEX
8
C1
10
-54.262243229440244
20
-57.68292682926829
0
SEQEND
0
POLYLINE
8
C1
66
1
70
1
0
VERTEX
8
C1
10
-56.74274943451624
20
-56.40243902439024
0
VERTEX
8
C1
10
-56.62079821500406
20
-56.40243902439024
0
VERTEX
8
C1
10
-56.62079821500406
20
-56.18292682926829
0
VERTEX
8
C1
10
-56.27933480036991
20
-56.18292682926829
0
VERTEX
8
C1
10
-56.27933480036991
20
-55.269569025024985
0
VERTEX
8
C1
10
-56.913481141833316
20
-55.269569025024985
0
VERTEX
8
C1
10
-56.913481141833316
20
-56.18292682926829
0
VERTEX
8
C1
10
-56.74274943451624
20
-56.18292682926829
0
VERTEX
8
C1
10
-56.74274943451624
20
-56.40243902439024
0
SEQEND
0
POLYLINE
8
C1
66
1
70
1
0
VERTEX
8
C1
10
-53.841463414634134
20
-56.52439024390244
0
VERTEX
8
C1
10
-52.6829268292688
20
-56.52439024390244
0
VERTEX
8
C1
10
-52.6829268292688
20
-56.28048780487804
0
VERTEX
8
C1
10
-54.26944568743496
20
-56.28048780487804
0
VERTEX
8
C1
10
-54.26944568743496
20
-57.41335780424331
0
VERTEX
8
C1
10
-53.841463414634134
20
-57.41335780424331
0
VERTEX
8
C1
10
-53.841463414634134
20
-56.52439024390244
0
SEQEND
0
POLYLINE
8
C1
66
1
70
1
0
VERTEX
8
C1
10
-57.70731707317072
20
-57.38896756034087
0
VERTEX
8
C1
10
-56.7560975609756
20
-57.38896756034087
0
VERTEX
8
C1
10
-56.7560975609756
20
-56.792682926829265
0
VERTEX
8
C1
10
-57.01104211744308
20
-56.792682926829265
0
VERTEX
8
C1
10
-57.01104211744308
20
-56.28048780487804
0
VERTEX
8
C1
10
-58.61658536585314
20
-56.28048780487804
0
VERTEX
8
C1
10
-58.61658536585314
20
-56.52439024390244
0
VERTEX
8
C1
10
-57.70731707317072
20
-56.52439024390244
0
VERTEX
8
C1
10
-57.70731707317072
20
-57.38896756034087
0
SEQEND
0
POLYLINE
8
C1
66
1
70
1
0
VERTEX
8
C1
10
-48.97066519963008
20
-56.28048780487804
0
VERTEX
8
C1
10
-49.092616419142274
20
-56.28048780487804
0
VERTEX
8
C1
10
-49.092616419142274
20
-56.3780487804878
0
VERTEX
8
C1
10
-49.403592028898366
20
-56.3780487804878
0
VERTEX
8
C1
10
-49.403592028898366
20
-57.41335780424331
0
VERTEX
8
C1
10
-48.635299345971546
20
-57.41335780424331
0
VERTEX
8
C1
10
-48.635299345971546
20
-56.49999999999999
0
VERTEX
8
C1
10
-48.97066519963008
20
-56.49999999999999
0
VERTEX
8
C1
10
-48.97066519963008
20
-56.28048780487804
0
SEQEND
0
POLYLINE
8
C1
66
1
70
1
0
VERTEX
8
C1
10
-49.4812443586272
20
-54.99999999999999
0
VERTEX
8
C1
10
-49.6031955781394
20
-54.99999999999999
0
VERTEX
8
C1
10
-49.6031955781394
20
-55.12195121951219
0
VERTEX
8
C1
10
-49.4812443586272
20
-55.12195121951219
0
VERTEX
8
C1
10
-49.4812443586272
20
-54.99999999999999
0
SEQEND
0
POLYLINE
8
C1
66
1
70
1
0
VERTEX
8
C1
10
-48.64818451398486
20
-54.99999999999999
0
VERTEX
8
C1
10
-48.77013573349706
20
-54.99999999999999
0
VERTEX
8
C1
10
-48.77013573349706
20
-55.12195121951219
0
VERTEX
8
C1
10
-48.64818451398486
20
-55.12195121951219
0
VERTEX
8
C1
10
-48.64818451398486
20
-54.99999999999999
0
SEQEND
0
POLYLINE
8
C1
66
1
70
1
0
VERTEX
8
C1
10
-50.28790405391281
20
-54.99999999999999
0
VERTEX
8
C1
10
-50.28790405391281
20
-55.121951219512205
0
VERTEX
8
C1
10
-50.16595283440061
20
-55.121951219512205
0
VERTEX
8
C1
10
-50.16595283440061
20
-54.99999999999999
0
VERTEX
8
C1
10
-50.28790405391281
20
-54.99999999999999
0
SEQEND
0
POLYLINE
8
C1
66
1
70
1
0
VERTEX
8
C1
10
-50.82515694372475
20
-57.56097560975609
0
VERTEX
8
C1
10
-50.94710816323695
20
-57.56097560975609
0
VERTEX
8
C1
10
-50.94710816323695
20
-57.68292682926829
0
VERTEX
8
C1
10
-50.82515694372475
20
-57.68292682926829
0
VERTEX
8
C1
10
-50.82515694372475
20
-57.56097560975609
0
SEQEND
0
POLYLINE
8
C1
66
1
70
1
0
VERTEX
8
C1
10
-51.28653725836461
20
-55.12195121951219
0
VERTEX
8
C1
10
-51.16458603885242
20
-55.12195121951219
0
VERTEX
8
C1
10
-51.16458603885242
20
-54.99999999999999
0
VERTEX
8
C1
10
-51.28653725836461
20
-54.99999999999999
0
VERTEX
8
C1
10
-51.28653725836461
20
-55.12195121951219
0
SEQEND
0
POLYLINE
8
C1
66
1
70
1
0
VERTEX
8
C1
10
-48.88133298325257
20
-57.68292682926829
0
VERTEX
8
C1
10
-48.75938176374037
20
-57.68292682926829
0
VERTEX
8
C1
10
-48.75938176374037
20
-57.56097560975609
0
VERTEX
8
C1
10
-48.88133298325257
20
-57.56097560975609
0
VERTEX
8
C1
10
-48.88133298325257
20
-57.68292682926829
0
SEQEND
0
POLYLINE
8
C1
66
1
70
1
0
VERTEX
8
C1
10
-50.4012860198821
20
-57.41335780424331
0
VERTEX
8
C1
10
-49.828115288174786
20
-57.41335780424331
0
VERTEX
8
C1
10
-49.828115288174786
20
-56.49999999999999
0
VERTEX
8
C1
10
-50.19396894671138
20
-56.49999999999999
0
VERTEX
8
C1
10
-50.19396894671138
20
-56.28048780487804
0
VERTEX
8
C1
10
-50.31592016622356
20
-56.28048780487804
0
VERTEX
8
C1
10
-50.31592016622356
20
-56.49999999999999
0
VERTEX
8
C1
10
-50.4012860198821
20
-56.49999999999999
0
VERTEX
8
C1
10
-50.4012860198821
20
-57.41335780424331
0
SEQEND
0
POLYLINE
8
C1
66
1
70
1
0
VERTEX
8
C1
10
-48.40858469285488
20
-57.68292682926829
0
VERTEX
8
C1
10
-48.28663347334269
20
-57.68292682926829
0
VERTEX
8
C1
10
-48.28663347334269
20
-57.56097560975609
0
VERTEX
8
C1
10
-48.40858469285488
20
-57.56097560975609
0
VERTEX
8
C1
10
-48.40858469285488
20
-57.68292682926829
0
SEQEND
0
POLYLINE
8
C1
66
1
70
1
0
VERTEX
8
C1
10
-50.88909089793088
20
-56.40243902439024
0
VERTEX
8
C1
10
-50.767139678418694
20
-56.40243902439024
0
VERTEX
8
C1
10
-50.767139678418694
20
-56.18292682926829
0
VERTEX
8
C1
10
-50.425676263784545
20
-56.18292682926829
0
VERTEX
8
C1
10
-50.425676263784545
20
-55.269569025024985
0
VERTEX
8
C1
10
-51.05982260524795
20
-55.269569025024985
0
VERTEX
8
C1
10
-51.05982260524795
20
-56.18292682926829
0
VERTEX
8
C1
10
-50.88909089793088
20
-56.18292682926829
0
VERTEX
8
C1
10
-50.88909089793088
20
-56.40243902439024
0
SEQEND
0
POLYLINE
8
C1
66
1
70
1
0
VERTEX
8
C1
10
-47.98780487804877
20
-56.52439024390244
0
VERTEX
8
C1
10
-46.82926829268344
20
-56.52439024390244
0
VERTEX
8
C1
10
-46.82926829268344
20
-56.28048780487804
0
VERTEX
8
C1
10
-48.415787150849596
20
-56.28048780487804
0
VERTEX
8
C1
10
-48.415787150849596
20
-57.41335780424331
0
VERTEX
8
C1
10
-47.98780487804877
20
-57.41335780424331
0
VERTEX
8
C1
10
-47.98780487804877
20
-56.52439024390244
0
SEQEND
0
POLYLINE
8
C1
66
1
70
1
0
VERTEX
8
C1
10
-51.85365853658536
20
-57.38896756034087
0
VERTEX
8
C1
10
-50.90243902439023
20
-57.38896756034087
0
VERTEX
8
C1
10
-50.90243902439023
20
-56.792682926829265
0
VERTEX
8
C1
10
-51.15738358085772
20
-56.792682926829265
0
VERTEX
8
C1
10
-51.15738358085772
20
-56.28048780487804
0
VERTEX
8
C1
10
-52.68292682926777
20
-56.28048780487804
0
VERTEX
8
C1
10
-52.68292682926777
20
-56.52439024390244
0
VERTEX
8
C1
10
-51.85365853658536
20
-56.52439024390244
0
VERTEX
8
C1
10
-51.85365853658536
20
-57.38896756034087
0
SEQEND
0
POLYLINE
8
C1
66
1
70
1
0
VERTEX
8
C1
10
-43.117006663044705
20
-56.28048780487804
0
VERTEX
8
C1
10
-43.2389578825569
20
-56.28048780487804
0
VERTEX
8
C1
10
-43.2389578825569
20
-56.3780487804878
0
VERTEX
8
C1
10
-43.549933492313
20
-56.3780487804878
0
VERTEX
8
C1
10
-43.549933492313
20
-57.41335780424331
0
VERTEX
8
C1
10
-42.781640809386175
20
-57.41335780424331
0
VERTEX
8
C1
10
-42.781640809386175
20
-56.49999999999999
0
VERTEX
8
C1
10
-43.117006663044705
20
-56.49999999999999
0
VERTEX
8
C1
10
-43.117006663044705
20
-56.28048780487804
0
SEQEND
0
POLYLINE
8
C1
66
1
70
1
0
VERTEX
8
C1
10
-43.62758582204184
20
-54.99999999999999
0
VERTEX
8
C1
10
-43.74953704155402
20
-54.99999999999999
0
VERTEX
8
C1
10
-43.74953704155402
20
-55.12195121951219
0
VERTEX
8
C1
10
-43.62758582204184
20
-55.12195121951219
0
VERTEX
8
C1
10
-43.62758582204184
20
-54.99999999999999
0
SEQEND
0
POLYLINE
8
C1
66
1
70
1
0
VERTEX
8
C1
10
-42.79452597739949
20
-54.99999999999999
0
VERTEX
8
C1
10
-42.916477196911686
20
-54.99999999999999
0
VERTEX
8
C1
10
-42.916477196911686
20
-55.12195121951219
0
VERTEX
8
C1
10
-42.79452597739949
20
-55.12195121951219
0
VERTEX
8
C1
10
-42.79452597739949
20
-54.99999999999999
0
SEQEND
0
POLYLINE
8
C1
66
1
70
1
0
VERTEX
8
C1
10
-44.43424551732744
20
-54.99999999999999
0
VERTEX
8
C1
10
-44.43424551732744
20
-55.121951219512205
0
VERTEX
8
C1
10
-44.31229429781524
20
-55.121951219512205
0
VERTEX
8
C1
10
-44.31229429781524
20
-54.99999999999999
0
VERTEX
8
C1
10
-44.43424551732744
20
-54.99999999999999
0
SEQEND
0
POLYLINE
8
C1
66
1
70
1
0
VERTEX
8
C1
10
-44.97149840713938
20
-57.56097560975609
0
VERTEX
8
C1
10
-45.09344962665158
20
-57.56097560975609
0
VERTEX
8
C1
10
-45.09344962665158
20
-57.68292682926829
0
VERTEX
8
C1
10
-44.97149840713938
20
-57.68292682926829
0
VERTEX
8
C1
10
-44.97149840713938
20
-57.56097560975609
0
SEQEND
0
POLYLINE
8
C1
66
1
70
1
0
VERTEX
8
C1
10
-45.43287872177925
20
-55.12195121951219
0
VERTEX
8
C1
10
-45.31092750226705
20
-55.12195121951219
0
VERTEX
8
C1
10
-45.31092750226705
20
-54.99999999999999
0
VERTEX
8
C1
10
-45.43287872177925
20
-54.99999999999999
0
VERTEX
8
C1
10
-45.43287872177925
20
-55.12195121951219
0
SEQEND
0
POLYLINE
8
C1
66
1
70
1
0
VERTEX
8
C1
10
-43.027674446667206
20
-57.68292682926829
0
VERTEX
8
C1
10
-42.90572322715501
20
-57.68292682926829
0
VERTEX
8
C1
10
-42.90572322715501
20
-57.56097560975609
0
VERTEX
8
C1
10
-43.027674446667206
20
-57.56097560975609
0
VERTEX
8
C1
10
-43.027674446667206
20
-57.68292682926829
0
SEQEND
0
POLYLINE
8
C1
66
1
70
1
0
VERTEX
8
C1
10
-44.547627483296736
20
-57.41335780424331
0
VERTEX
8
C1
10
-43.974456751589415
20
-57.41335780424331
0
VERTEX
8
C1
10
-43.974456751589415
20
-56.49999999999999
0
VERTEX
8
C1
10
-44.34031041012601
20
-56.49999999999999
0
VERTEX
8
C1
10
-44.34031041012601
20
-56.28048780487804
0
VERTEX
8
C1
10
-44.46226162963819
20
-56.28048780487804
0
VERTEX
8
C1
10
-44.46226162963819
20
-56.49999999999999
0
VERTEX
8
C1
10
-44.547627483296736
20
-56.49999999999999
0
VERTEX
8
C1
10
-44.547627483296736
20
-57.41335780424331
0
SEQEND
0
POLYLINE
8
C1
66
1
70
1
0
VERTEX
8
C1
10
-42.5549261562695
20
-57.68292682926829
0
VERTEX
8
C1
10
-42.43297493675732
20
-57.68292682926829
0
VERTEX
8
C1
10
-42.43297493675732
20
-57.56097560975609
0
VERTEX
8
C1
10
-42.5549261562695
20
-57.56097560975609
0
VERTEX
8
C1
10
-42.5549261562695
20
-57.68292682926829
0
SEQEND
0
POLYLINE
8
C1
66
1
70
1
0
VERTEX
8
C1
10
-45.035432361345514
20
-56.40243902439024
0
VERTEX
8
C1
10
-44.913481141833316
20
-56.40243902439024
0
VERTEX
8
C1
10
-44.913481141833316
20
-56.18292682926829
0
VERTEX
8
C1
10
-44.57201772719917
20
-56.18292682926829
0
VERTEX
8
C1
10
-44.57201772719917
20
-55.269569025024985
0
VERTEX
8
C1
10
-45.20616406866259
20
-55.269569025024985
0
VERTEX
8
C1
10
-45.20616406866259
20
-56.18292682926829
0
VERTEX
8
C1
10
-45.035432361345514
20
-56.18292682926829
0
VERTEX
8
C1
10
-45.035432361345514
20
-56.40243902439024
0
SEQEND
0
POLYLINE
8
C1
66
1
70
1
0
VERTEX
8
C1
10
-42.134146341463406
20
-56.52439024390244
0
VERTEX
8
C1
10
-40.975609756098066
20
-56.52439024390244
0
VERTEX
8
C1
10
-40.975609756098066
20
-56.28048780487804
0
VERTEX
8
C1
10
-42.562128614264225
20
-56.28048780487804
0
VERTEX
8
C1
10
-42.562128614264225
20
-57.41335780424331
0
VERTEX
8
C1
10
-42.134146341463406
20
-57.41335780424331
0
VERTEX
8
C1
10
-42.134146341463406
20
-56.52439024390244
0
SEQEND
0
POLYLINE
8
C1
66
1
70
1
0
VERTEX
8
C1
10
-45.999999999999986
20
-57.38896756034087
0
VERTEX
8
C1
10
-45.04878048780486
20
-57.38896756034087
0
VERTEX
8
C1
10
-45.04878048780486
20
-56.792682926829265
0
VERTEX
8
C1
10
-45.30372504427234
20
-56.792682926829265
0
VERTEX
8
C1
10
-45.30372504427234
20
-56.28048780487804
0
VERTEX
8
C1
10
-46.8292682926824
20
-56.28048780487804
0
VERTEX
8
C1
10
-46.8292682926824
20
-56.52439024390244
0
VERTEX
8
C1
10
-45.999999999999986
20
-56.52439024390244
0
VERTEX
8
C1
10
-45.999999999999986
20
-57.38896756034087
0
SEQEND
0
POLYLINE
8
C1
66
1
70
1
0
VERTEX
8
C1
10
-37.26334812645935
20
-56.28048780487804
0
VERTEX
8
C1
10
-37.385299345971546
20
-56.28048780487804
0
VERTEX
8
C1
10
-37.385299345971546
20
-56.3780487804878
0
VERTEX
8
C1
10
-37.696274955727645
20
-56.3780487804878
0
VERTEX
8
C1
10
-37.696274955727645
20
-57.41335780424331
0
VERTEX
8
C1
10
-36.92798227280082
20
-57.41335780424331
0
VERTEX
8
C1
10
-36.92798227280082
20
-56.49999999999999
0
VERTEX
8
C1
10
-37.26334812645935
20
-56.49999999999999
0
VERTEX
8
C1
10
-37.26334812645935
20
-56.28048780487804
0
SEQEND
0
POLYLINE
8
C1
66
1
70
1
0
VERTEX
8
C1
10
-37.77392728545648
20
-54.99999999999999
0
VERTEX
8
C1
10
-37.895878504968664
20
-54.99999999999999
0
VERTEX
8
C1
10
-37.895878504968664
20
-55.12195121951219
0
VERTEX
8
C1
10
-37.77392728545648
20
-55.12195121951219
0
VERTEX
8
C1
10
-37.77392728545648
20
-54.99999999999999
0
SEQEND
0
POLYLINE
8
C1
66
1
70
1
0
VERTEX
8
C1
10
-36.94086744081413
20
-54.99999999999999
0
VERTEX
8
C1
10
-37.06281866032633
20
-54.99999999999999
0
VERTEX
8
C1
10
-37.06281866032633
20
-55.12195121951219
0
VERTEX
8
C1
10
-36.94086744081413
20
-55.12195121951219
0
VERTEX
8
C1
10
-36.94086744081413
20
-54.99999999999999
0
SEQEND
0
POLYLINE
8
C1
66
1
70
1
0
VERTEX
8
C1
10
-38.58058698074208
20
-54.99999999999999
0
VERTEX
8
C1
10
-38.58058698074208
20
-55.121951219512205
0
VERTEX
8
C1
10
-38.458635761229885
20
-55.121951219512205
0
VERTEX
8
C1
10
-38.458635761229885
20
-54.99999999999999
0
VERTEX
8
C1
10
-38.58058698074208
20
-54.99999999999999
0
SEQEND
0
POLYLINE
8
C1
66
1
70
1
0
VERTEX
8
C1
10
-39.11783987055402
20
-57.56097560975609
0
VERTEX
8
C1
10
-39.23979109006622
20
-57.56097560975609
0
VERTEX
8
C1
10
-39.23979109006622
20
-57.68292682926829
0
VERTEX
8
C1
10
-39.11783987055402
20
-57.68292682926829
0
VERTEX
8
C1
10
-39.11783987055402
20
-57.56097560975609
0
SEQEND
0
POLYLINE
8
C1
66
1
70
1
0
VERTEX
8
C1
10
-39.57922018519389
20
-55.12195121951219
0
VERTEX
8
C1
10
-39.45726896568169
20
-55.12195121951219
0
VERTEX
8
C1
10
-39.45726896568169
20
-54.99999999999999
0
VERTEX
8
C1
10
-39.57922018519389
20
-54.99999999999999
0
VERTEX
8
C1
10
-39.57922018519389
20
-55.12195121951219
0
SEQEND
0
POLYLINE
8
C1
66
1
70
1
0
VERTEX
8
C1
10
-37.17401591008185
20
-57.68292682926829
0
VERTEX
8
C1
10
-37.05206469056965
20
-57.68292682926829
0
VERTEX
8
C1
10
-37.05206469056965
20
-57.56097560975609
0
VERTEX
8
C1
10
-37.17401591008185
20
-57.56097560975609
0
VERTEX
8
C1
10
-37.17401591008185
20
-57.68292682926829
0
SEQEND
0
POLYLINE
8
C1
66
1
70
1
0
VERTEX
8
C1
10
-38.69396894671138
20
-57.41335780424331
0
VERTEX
8
C1
10
-38.12079821500406
20
-57.41335780424331
0
VERTEX
8
C1
10
-38.12079821500406
20
-56.49999999999999
0
VERTEX
8
C1
10
-38.48665187354065
20
-56.49999999999999
0
VERTEX
8
C1
10
-38.48665187354065
20
-56.28048780487804
0
VERTEX
8
C1
10
-38.608603093052835
20
-56.28048780487804
0
VERTEX
8
C1
10
-38.608603093052835
20
-56.49999999999999
0
VERTEX
8
C1
10
-38.69396894671138
20
-56.49999999999999
0
VERTEX
8
C1
10
-38.69396894671138
20
-57.41335780424331
0
SEQEND
0
POLYLINE
8
C1
66
1
70
1
0
VERTEX
8
C1
10
-36.701267619684145
20
-57.68292682926829
0
VERTEX
8
C1
10
-36.57931640017196
20
-57.68292682926829
0
VERTEX
8
C1
10
-36.57931640017196
20
-57.56097560975609
0
VERTEX
8
C1
10
-36.701267619684145
20
-57.56097560975609
0
VERTEX
8
C1
10
-36.701267619684145
20
-57.68292682926829
0
SEQEND
0
POLYLINE
8
C1
66
1
70
1
0
VERTEX
8
C1
10
-39.18177382476016
20
-56.40243902439024
0
VERTEX
8
C1
10
-39.05982260524796
20
-56.40243902439024
0
VERTEX
8
C1
10
-39.05982260524796
20
-56.18292682926829
0
VERTEX
8
C1
10
-38.71835919061381
20
-56.18292682926829
0
VERTEX
8
C1
10
-38.71835919061381
20
-55.269569025024985
0
VERTEX
8
C1
10
-39.35250553207723
20
-55.269569025024985
0
VERTEX
8
C1
10
-39.35250553207723
20
-56.18292682926829
0
VERTEX
8
C1
10
-39.18177382476016
20
-56.18292682926829
0
VERTEX
8
C1
10
-39.18177382476016
20
-56.40243902439024
0
SEQEND
0
POLYLINE
8
C1
66
1
70
1
0
VERTEX
8
C1
10
-36.28048780487805
20
-56.52439024390244
0
VERTEX
8
C1
10
-35.12195121951271
20
-56.52439024390244
0
VERTEX
8
C1
10
-35.12195121951271
20
-56.28048780487804
0
VERTEX
8
C1
10
-36.70847007767887
20
-56.28048780487804
0
VERTEX
8
C1
10
-36.70847007767887
20
-57.41335780424331
0
VERTEX
8
C1
10
-36.28048780487805
20
-57.41335780424331
0
VERTEX
8
C1
10
-36.28048780487805
20
-56.52439024390244
0
SEQEND
0
POLYLINE
8
C1
66
1
70
1
0
VERTEX
8
C1
10
-40.14634146341463
20
-57.38896756034087
0
VERTEX
8
C1
10
-39.195121951219505
20
-57.38896756034087
0
VERTEX
8
C1
10
-39.195121951219505
20
-56.792682926829265
0
VERTEX
8
C1
10
-39.450066507686984
20
-56.792682926829265
0
VERTEX
8
C1
10
-39.450066507686984
20
-56.28048780487804
0
VERTEX
8
C1
10
-40.97560975609704
20
-56.28048780487804
0
VERTEX
8
C1
10
-40.97560975609704
20
-56.52439024390244
0
VERTEX
8
C1
10
-40.14634146341463
20
-56.52439024390244
0
VERTEX
8
C1
10
-40.14634146341463
20
-57.38896756034087
0
SEQEND
0
POLYLINE
8
C1
66
1
70
1
0
VERTEX
8
C1
10
-31.409689589873977
20
-56.28048780487804
0
VERTEX
8
C1
10
-31.531640809386175
20
-56.28048780487804
0
VERTEX
8
C1
10
-31.531640809386175
20
-56.3780487804878
0
VERTEX
8
C1
10
-31.842616419142274
20
-56.3780487804878
0
VERTEX
8
C1
10
-31.842616419142274
20
-57.41335780424331
0
VERTEX
8
C1
10
-31.074323736215447
20
-57.41335780424331
0
VERTEX
8
C1
10
-31.074323736215447
20
-56.49999999999999
0
VERTEX
8
C1
10
-31.409689589873977
20
-56.49999999999999
0
VERTEX
8
C1
10
-31.409689589873977
20
-56.28048780487804
0
SEQEND
0
POLYLINE
8
C1
66
1
70
1
0
VERTEX
8
C1
10
-31.92026874887111
20
-54.99999999999999
0
VERTEX
8
C1
10
-32.04221996838329
20
-54.99999999999999
0
VERTEX
8
C1
10
-32.04221996838329
20
-55.12195121951219
0
VERTEX
8
C1
10
-31.92026874887111
20
-55.12195121951219
0
VERTEX
8
C1
10
-31.92026874887111
20
-54.99999999999999
0
SEQEND
0
POLYLINE
8
C1
66
1
70
1
0
VERTEX
8
C1
10
-31.08720890422876
20
-54.99999999999999
0
VERTEX
8
C1
10
-31.209160123740958
20
-54.99999999999999
0
VERTEX
8
C1
10
-31.209160123740958
20
-55.12195121951219
0
VERTEX
8
C1
10
-31.08720890422876
20
-55.12195121951219
0
VERTEX
8
C1
10
-31.08720890422876
20
-54.99999999999999
0
SEQEND
0
POLYLINE
8
C1
66
1
70
1
0
VERTEX
8
C1
10
-32.72692844415671
20
-54.99999999999999
0
VERTEX
8
C1
10
-32.72692844415671
20
-55.121951219512205
0
VERTEX
8
C1
10
-32.604977224644514
20
-55.121951219512205
0
VERTEX
8
C1
10
-32.604977224644514
20
-54.99999999999999
0
VERTEX
8
C1
10
-32.72692844415671
20
-54.99999999999999
0
SEQEND
0
POLYLINE
8
C1
66
1
70
1
0
VERTEX
8
C1
10
-33.26418133396865
20
-57.56097560975609
0
VERTEX
8
C1
10
-33.38613255348085
20
-57.56097560975609
0
VERTEX
8
C1
10
-33.38613255348085
20
-57.68292682926829
0
VERTEX
8
C1
10
-33.26418133396865
20
-57.68292682926829
0
VERTEX
8
C1
10
-33.26418133396865
20
-57.56097560975609
0
SEQEND
0
POLYLINE
8
C1
66
1
70
1
0
VERTEX
8
C1
10
-33.72556164860852
20
-55.12195121951219
0
VERTEX
8
C1
10
-33.60361042909632
20
-55.12195121951219
0
VERTEX
8
C1
10
-33.60361042909632
20
-54.99999999999999
0
VERTEX
8
C1
10
-33.72556164860852
20
-54.99999999999999
0
VERTEX
8
C1
10
-33.72556164860852
20
-55.12195121951219
0
SEQEND
0
POLYLINE
8
C1
66
1
70
1
0
VERTEX
8
C1
10
-31.320357373496478
20
-57.68292682926829
0
VERTEX
8
C1
10
-31.19840615398428
20
-57.68292682926829
0
VERTEX
8
C1
10
-31.19840615398428
20
-57.56097560975609
0
VERTEX
8
C1
10
-31.320357373496478
20
-57.56097560975609
0
VERTEX
8
C1
10
-31.320357373496478
20
-57.68292682926829
0
SEQEND
0
POLYLINE
8
C1
66
1
70
1
0
VERTEX
8
C1
10
-32.84031041012601
20
-57.41335780424331
0
VERTEX
8
C1
10
-32.26713967841869
20
-57.41335780424331
0
VERTEX
8
C1
10
-32.26713967841869
20
-56.49999999999999
0
VERTEX
8
C1
10
-32.63299333695528
20
-56.49999999999999
0
VERTEX
8
C1
10
-32.63299333695528
20
-56.28048780487804
0
VERTEX
8
C1
10
-32.754944556467464
20
-56.28048780487804
0
VERTEX
8
C1
10
-32.754944556467464
20
-56.49999999999999
0
VERTEX
8
C1
10
-32.84031041012601
20
-56.49999999999999
0
VERTEX
8
C1
10
-32.84031041012601
20
-57.41335780424331
0
SEQEND
0
POLYLINE
8
C1
66
1
70
1
0
VERTEX
8
C1
10
-30.847609083098774
20
-57.68292682926829
0
VERTEX
8
C1
10
-30.72565786358659
20
-57.68292682926829
0
VERTEX
8
C1
10
-30.72565786358659
20
-57.56097560975609
0
VERTEX
8
C1
10
-30.847609083098774
20
-57.56097560975609
0
VERTEX
8
C1
10
-30.847609083098774
20
-57.68292682926829
0
SEQEND
0
POLYLINE
8
C1
66
1
70
1
0
VERTEX
8
C1
10
-33.328115288174786
20
-56.40243902439024
0
VERTEX
8
C1
10
-33.20616406866259
20
-56.40243902439024
0
VERTEX
8
C1
10
-33.20616406866259
20
-56.18292682926829
0
VERTEX
8
C1
10
-32.86470065402844
20
-56.18292682926829
0
VERTEX
8
C1
10
-32.86470065402844
20
-55.269569025024985
0
VERTEX
8
C1
10
-33.49884699549186
20
-55.269569025024985
0
VERTEX
8
C1
10
-33.49884699549186
20
-56.18292682926829
0
VERTEX
8
C1
10
-33.328115288174786
20
-56.18292682926829
0
VERTEX
8
C1
10
-33.328115288174786
20
-56.40243902439024
0
SEQEND
0
POLYLINE
8
C1
66
1
70
1
0
VERTEX
8
C1
10
-30.42682926829268
20
-56.52439024390244
0
VERTEX
8
C1
10
-29.26829268292734
20
-56.52439024390244
0
VERTEX
8
C1
10
-29.26829268292734
20
-56.28048780487804
0
VERTEX
8
C1
10
-30.854811541093497
20
-56.28048780487804
0
VERTEX
8
C1
10
-30.854811541093497
20
-57.41335780424331
0
VERTEX
8
C1
10
-30.42682926829268
20
-57.41335780424331
0
VERTEX
8
C1
10
-30.42682926829268
20
-56.52439024390244
0
SEQEND
0
POLYLINE
8
C1
66
1
70
1
0
VERTEX
8
C1
10
-34.29268292682926
20
-57.38896756034087
0
VERTEX
8
C1
10
-33.341463414634134
20
-57.38896756034087
0
VERTEX
8
C1
10
-33.341463414634134
20
-56.792682926829265
0
VERTEX
8
C1
10
-33.59640797110161
20
-56.792682926829265
0
VERTEX
8
C1
10
-33.59640797110161
20
-56.28048780487804
0
VERTEX
8
C1
10
-35.12195121951167
20
-56.28048780487804
0
VERTEX
8
C1
10
-35.12195121951167
20
-56.52439024390244
0
VERTEX
8
C1
10
-34.29268292682926
20
-56.52439024390244
0
VERTEX
8
C1
10
-34.29268292682926
20
-57.38896756034087
0
SEQEND
0
POLYLINE
8
C1
66
1
70
1
0
VERTEX
8
C1
10
-25.556031053288606
20
-56.28048780487804
0
VERTEX
8
C1
10
-25.677982272800804
20
-56.28048780487804
0
VERTEX
8
C1
10
-25.677982272800804
20
-56.3780487804878
0
VERTEX
8
C1
10
-25.988957882556903
20
-56.3780487804878
0
VERTEX
8
C1
10
-25.988957882556903
20
-57.41335780424331
0
VERTEX
8
C1
10
-25.220665199630076
20
-57.41335780424331
0
VERTEX
8
C1
10
-25.220665199630076
20
-56.49999999999999
0
VERTEX
8
C1
10
-25.556031053288606
20
-56.49999999999999
0
VERTEX
8
C1
10
-25.556031053288606
20
-56.28048780487804
0
SEQEND
0
POLYLINE
8
C1
66
1
70
1
0
VERTEX
8
C1
10
-26.066610212285738
20
-54.99999999999999
0
VERTEX
8
C1
10
-26.188561431797922
20
-54.99999999999999
0
VERTEX
8
C1
10
-26.188561431797922
20
-55.12195121951219
0
VERTEX
8
C1
10
-26.066610212285738
20
-55.12195121951219
0
VERTEX
8
C1
10
-26.066610212285738
20
-54.99999999999999
0
SEQEND
0
POLYLINE
8
C1
66
1
70
1
0
VERTEX
8
C1
10
-25.23355036764339
20
-54.99999999999999
0
VERTEX
8
C1
10
-25.355501587155587
20
-54.99999999999999
0
VERTEX
8
C1
10
-25.355501587155587
20
-55.12195121951219
0
VERTEX
8
C1
10
-25.23355036764339
20
-55.12195121951219
0
VERTEX
8
C1
10
-25.23355036764339
20
-54.99999999999999
0
SEQEND
0
POLYLINE
8
C1
66
1
70
1
0
VERTEX
8
C1
10
-26.87326990757134
20
-54.99999999999999
0
VERTEX
8
C1
10
-26.87326990757134
20
-55.121951219512205
0
VERTEX
8
C1
10
-26.751318688059143
20
-55.121951219512205
0
VERTEX
8
C1
10
-26.751318688059143
20
-54.99999999999999
0
VERTEX
8
C1
10
-26.87326990757134
20
-54.99999999999999
0
SEQEND
0
POLYLINE
8
C1
66
1
70
1
0
VERTEX
8
C1
10
-27.41052279738328
20
-57.56097560975609
0
VERTEX
8
C1
10
-27.532474016895478
20
-57.56097560975609
0
VERTEX
8
C1
10
-27.532474016895478
20
-57.68292682926829
0
VERTEX
8
C1
10
-27.41052279738328
20
-57.68292682926829
0
VERTEX
8
C1
10
-27.41052279738328
20
-57.56097560975609
0
SEQEND
0
POLYLINE
8
C1
66
1
70
1
0
VERTEX
8
C1
10
-27.871903112023148
20
-55.12195121951219
0
VERTEX
8
C1
10
-27.74995189251095
20
-55.12195121951219
0
VERTEX
8
C1
10
-27.74995189251095
20
-54.99999999999999
0
VERTEX
8
C1
10
-27.871903112023148
20
-54.99999999999999
0
VERTEX
8
C1
10
-27.871903112023148
20
-55.12195121951219
0
SEQEND
0
POLYLINE
8
C1
66
1
70
1
0
VERTEX
8
C1
10
-25.466698836911107
20
-57.68292682926829
0
VERTEX
8
C1
10
-25.34474761739891
20
-57.68292682926829
0
VERTEX
8
C1
10
-25.34474761739891
20
-57.56097560975609
0
VERTEX
8
C1
10
-25.466698836911107
20
-57.56097560975609
0
VERTEX
8
C1
10
-25.466698836911107
20
-57.68292682926829
0
SEQEND
0
POLYLINE
8
C1
66
1
70
1
0
VERTEX
8
C1
10
-26.986651873540637
20
-57.41335780424331
0
VERTEX
8
C1
10
-26.413481141833316
20
-57.41335780424331
0
VERTEX
8
C1
10
-26.413481141833316
20
-56.49999999999999
0
VERTEX
8
C1
10
-26.77933480036991
20
-56.49999999999999
0
VERTEX
8
C1
10
-26.77933480036991
20
-56.28048780487804
0
VERTEX
8
C1
10
-26.901286019882093
20
-56.28048780487804
0
VERTEX
8
C1
10
-26.901286019882093
20
-56.49999999999999
0
VERTEX
8
C1
10
-26.986651873540637
20
-56.49999999999999
0
VERTEX
8
C1
10
-26.986651873540637
20
-57.41335780424331
0
SEQEND
0
POLYLINE
8
C1
66
1
70
1
0
VERTEX
8
C1
10
-24.993950546513403
20
-57.68292682926829
0
VERTEX
8
C1
10
-24.87199932700122
20
-57.68292682926829
0
VERTEX
8
C1
10
-24.87199932700122
20
-57.56097560975609
0
VERTEX
8
C1
10
-24.993950546513403
20
-57.56097560975609
0
VERTEX
8
C1
10
-24.993950546513403
20
-57.68292682926829
0
SEQEND
0
POLYLINE
8
C1
66
1
70
1
0
VERTEX
8
C1
10
-27.474456751589415
20
-56.40243902439024
0
VERTEX
8
C1
10
-27.352505532077217
20
-56.40243902439024
0
VERTEX
8
C1
10
-27.352505532077217
20
-56.18292682926829
0
VERTEX
8
C1
10
-27.01104211744307
20
-56.18292682926829
0
VERTEX
8
C1
10
-27.01104211744307
20
-55.269569025024985
0
VERTEX
8
C1
10
-27.64518845890649
20
-55.269569025024985
0
VERTEX
8
C1
10
-27.64518845890649
20
-56.18292682926829
0
VERTEX
8
C1
10
-27.474456751589415
20
-56.18292682926829
0
VERTEX
8
C1
10
-27.474456751589415
20
-56.40243902439024
0
SEQEND
0
POLYLINE
8
C1
66
1
70
1
0
VERTEX
8
C1
10
-24.573170731707307
20
-56.52439024390244
0
VERTEX
8
C1
10
-23.414634146341967
20
-56.52439024390244
0
VERTEX
8
C1
10
-23.414634146341967
20
-56.28048780487804
0
VERTEX
8
C1
10
-25.001153004508126
20
-56.28048780487804
0
VERTEX
8
C1
10
-25.001153004508126
20
-57.41335780424331
0
VERTEX
8
C1
10
-24.573170731707307
20
-57.41335780424331
0
VERTEX
8
C1
10
-24.573170731707307
20
-56.52439024390244
0
SEQEND
0
POLYLINE
8
C1
66
1
70
1
0
VERTEX
8
C1
10
-28.439024390243887
20
-57.38896756034087
0
VERTEX
8
C1
10
-27.487804878048763
20
-57.38896756034087
0
VERTEX
8
C1
10
-27.487804878048763
20
-56.792682926829265
0
VERTEX
8
C1
10
-27.74274943451624
20
-56.792682926829265
0
VERTEX
8
C1
10
-27.74274943451624
20
-56.28048780487804
0
VERTEX
8
C1
10
-29.2682926829263
20
-56.28048780487804
0
VERTEX
8
C1
10
-29.2682926829263
20
-56.52439024390244
0
VERTEX
8
C1
10
-28.439024390243887
20
-56.52439024390244
0
VERTEX
8
C1
10
-28.439024390243887
20
-57.38896756034087
0
SEQEND
0
POLYLINE
8
C1
66
1
70
1
0
VERTEX
8
C1
10
-19.70237251670325
20
-56.28048780487804
0
VERTEX
8
C1
10
-19.824323736215447
20
-56.28048780487804
0
VERTEX
8
C1
10
-19.824323736215447
20
-56.3780487804878
0
VERTEX
8
C1
10
-20.135299345971546
20
-56.3780487804878
0
VERTEX
8
C1
10
-20.135299345971546
20
-57.41335780424331
0
VERTEX
8
C1
10
-19.36700666304472
20
-57.41335780424331
0
VERTEX
8
C1
10
-19.36700666304472
20
-56.49999999999999
0
VERTEX
8
C1
10
-19.70237251670325
20
-56.49999999999999
0
VERTEX
8
C1
10
-19.70237251670325
20
-56.28048780487804
0
SEQEND
0
POLYLINE
8
C1
66
1
70
1
0
VERTEX
8
C1
10
-20.21295167570038
20
-54.99999999999999
0
VERTEX
8
C1
10
-20.334902895212565
20
-54.99999999999999
0
VERTEX
8
C1
10
-20.334902895212565
20
-55.12195121951219
0
VERTEX
8
C1
10
-20.21295167570038
20
-55.12195121951219
0
VERTEX
8
C1
10
-20.21295167570038
20
-54.99999999999999
0
SEQEND
0
POLYLINE
8
C1
66
1
70
1
0
VERTEX
8
C1
10
-19.379891831058032
20
-54.99999999999999
0
VERTEX
8
C1
10
-19.50184305057023
20
-54.99999999999999
0
VERTEX
8
C1
10
-19.50184305057023
20
-55.12195121951219
0
VERTEX
8
C1
10
-19.379891831058032
20
-55.12195121951219
0
VERTEX
8
C1
10
-19.379891831058032
20
-54.99999999999999
0
SEQEND
0
POLYLINE
8
C1
66
1
70
1
0
VERTEX
8
C1
10
-21.019611370985984
20
-54.99999999999999
0
VERTEX
8
C1
10
-21.019611370985984
20
-55.121951219512205
0
VERTEX
8
C1
10
-20.897660151473787
20
-55.121951219512205
0
VERTEX
8
C1
10
-20.897660151473787
20
-54.99999999999999
0
VERTEX
8
C1
10
-21.019611370985984
20
-54.99999999999999
0
SEQEND
0
POLYLINE
8
C1
66
1
70
1
0
VERTEX
8
C1
10
-21.556864260797923
20
-57.56097560975609
0
VERTEX
8
C1
10
-21.67881548031012
20
-57.56097560975609
0
VERTEX
8
C1
10
-21.67881548031012
20
-57.68292682926829
0
VERTEX
8
C1
10
-21.556864260797923
20
-57.68292682926829
0
VERTEX
8
C1
10
-21.556864260797923
20
-57.56097560975609
0
SEQEND
0
POLYLINE
8
C1
66
1
70
1
0
VERTEX
8
C1
10
-22.01824457543779
20
-55.12195121951219
0
VERTEX
8
C1
10
-21.896293355925593
20
-55.12195121951219
0
VERTEX
8
C1
10
-21.896293355925593
20
-54.99999999999999
0
VERTEX
8
C1
10
-22.01824457543779
20
-54.99999999999999
0
VERTEX
8
C1
10
-22.01824457543779
20
-55.12195121951219
0
SEQEND
0
POLYLINE
8
C1
66
1
70
1
0
VERTEX
8
C1
10
-19.61304030032575
20
-57.68292682926829
0
VERTEX
8
C1
10
-19.491089080813552
20
-57.68292682926829
0
VERTEX
8
C1
10
-19.491089080813552
20
-57.56097560975609
0
VERTEX
8
C1
10
-19.61304030032575
20
-57.56097560975609
0
VERTEX
8
C1
10
-19.61304030032575
20
-57.68292682926829
0
SEQEND
0
POLYLINE
8
C1
66
1
70
1
0
VERTEX
8
C1
10
-21.13299333695528
20
-57.41335780424331
0
VERTEX
8
C1
10
-20.55982260524796
20
-57.41335780424331
0
VERTEX
8
C1
10
-20.55982260524796
20
-56.49999999999999
0
VERTEX
8
C1
10
-20.925676263784553
20
-56.49999999999999
0
VERTEX
8
C1
10
-20.925676263784553
20
-56.28048780487804
0
VERTEX
8
C1
10
-21.047627483296736
20
-56.28048780487804
0
VERTEX
8
C1
10
-21.047627483296736
20
-56.49999999999999
0
VERTEX
8
C1
10
-21.13299333695528
20
-56.49999999999999
0
VERTEX
8
C1
10
-21.13299333695528
20
-57.41335780424331
0
SEQEND
0
POLYLINE
8
C1
66
1
70
1
0
VERTEX
8
C1
10
-19.140292009928046
20
-57.68292682926829
0
VERTEX
8
C1
10
-19.018340790415863
20
-57.68292682926829
0
VERTEX
8
C1
10
-19.018340790415863
20
-57.56097560975609
0
VERTEX
8
C1
10
-19.140292009928046
20
-57.56097560975609
0
VERTEX
8
C1
10
-19.140292009928046
20
-57.68292682926829
0
SEQEND
0
POLYLINE
8
C1
66
1
70
1
0
VERTEX
8
C1
10
-21.620798215004058
20
-56.40243902439024
0
VERTEX
8
C1
10
-21.49884699549186
20
-56.40243902439024
0
VERTEX
8
C1
10
-21.49884699549186
20
-56.18292682926829
0
VERTEX
8
C1
10
-21.15738358085771
20
-56.18292682926829
0
VERTEX
8
C1
10
-21.15738358085771
20
-55.269569025024985
0
VERTEX
8
C1
10
-21.791529922321132
20
-55.269569025024985
0
VERTEX
8
C1
10
-21.791529922321132
20
-56.18292682926829
0
VERTEX
8
C1
10
-21.620798215004058
20
-56.18292682926829
0
VERTEX
8
C1
10
-21.620798215004058
20
-56.40243902439024
0
SEQEND
0
POLYLINE
8
C1
66
1
70
1
0
VERTEX
8
C1
10
-18.71951219512195
20
-56.52439024390244
0
VERTEX
8
C1
10
-17.56097560975661
20
-56.52439024390244
0
VERTEX
8
C1
10
-17.56097560975661
20
-56.28048780487804
0
VERTEX
8
C1
10
-19.14749446792277
20
-56.28048780487804
0
VERTEX
8
C1
10
-19.14749446792277
20
-57.41335780424331
0
VERTEX
8
C1
10
-18.71951219512195
20
-57.41335780424331
0
VERTEX
8
C1
10
-18.71951219512195
20
-56.52439024390244
0
SEQEND
0
POLYLINE
8
C1
66
1
70
1
0
VERTEX
8
C1
10
-22.58536585365853
20
-57.38896756034087
0
VERTEX
8
C1
10
-21.634146341463406
20
-57.38896756034087
0
VERTEX
8
C1
10
-21.634146341463406
20
-56.792682926829265
0
VERTEX
8
C1
10
-21.889090897930885
20
-56.792682926829265
0
VERTEX
8
C1
10
-21.889090897930885
20
-56.28048780487804
0
VERTEX
8
C1
10
-23.414634146340944
20
-56.28048780487804
0
VERTEX
8
C1
10
-23.414634146340944
20
-56.52439024390244
0
VERTEX
8
C1
10
-22.58536585365853
20
-56.52439024390244
0
VERTEX
8
C1
10
-22.58536585365853
20
-57.38896756034087
0
SEQEND
0
POLYLINE
8
C1
66
1
70
1
0
VERTEX
8
C1
10
-13.848713980117878
20
-56.28048780487804
0
VERTEX
8
C1
10
-13.970665199630076
20
-56.28048780487804
0
VERTEX
8
C1
10
-13.970665199630076
20
-56.3780487804878
0
VERTEX
8
C1
10
-14.281640809386175
20
-56.3780487804878
0
VERTEX
8
C1
10
-14.281640809386175
20
-57.41335780424331
0
VERTEX
8
C1
10
-13.513348126459348
20
-57.41335780424331
0
VERTEX
8
C1
10
-13.513348126459348
20
-56.49999999999999
0
VERTEX
8
C1
10
-13.848713980117878
20
-56.49999999999999
0
VERTEX
8
C1
10
-13.848713980117878
20
-56.28048780487804
0
SEQEND
0
POLYLINE
8
C1
66
1
70
1
0
VERTEX
8
C1
10
-14.35929313911501
20
-54.99999999999999
0
VERTEX
8
C1
10
-14.481244358627194
20
-54.99999999999999
0
VERTEX
8
C1
10
-14.481244358627194
20
-55.12195121951219
0
VERTEX
8
C1
10
-14.35929313911501
20
-55.12195121951219
0
VERTEX
8
C1
10
-14.35929313911501
20
-54.99999999999999
0
SEQEND
0
POLYLINE
8
C1
66
1
70
1
0
VERTEX
8
C1
10
-13.52623329447266
20
-54.99999999999999
0
VERTEX
8
C1
10
-13.648184513984859
20
-54.99999999999999
0
VERTEX
8
C1
10
-13.648184513984859
20
-55.12195121951219
0
VERTEX
8
C1
10
-13.52623329447266
20
-55.12195121951219
0
VERTEX
8
C1
10
-13.52623329447266
20
-54.99999999999999
0
SEQEND
0
POLYLINE
8
C1
66
1
70
1
0
VERTEX
8
C1
10
-15.165952834400613
20
-54.99999999999999
0
VERTEX
8
C1
10
-15.165952834400613
20
-55.121951219512205
0
VERTEX
8
C1
10
-15.044001614888415
20
-55.121951219512205
0
VERTEX
8
C1
10
-15.044001614888415
20
-54.99999999999999
0
VERTEX
8
C1
10
-15.165952834400613
20
-54.99999999999999
0
SEQEND
0
POLYLINE
8
C1
66
1
70
1
0
VERTEX
8
C1
10
-15.703205724212552
20
-57.56097560975609
0
VERTEX
8
C1
10
-15.82515694372475
20
-57.56097560975609
0
VERTEX
8
C1
10
-15.82515694372475
20
-57.68292682926829
0
VERTEX
8
C1
10
-15.703205724212552
20
-57.68292682926829
0
VERTEX
8
C1
10
-15.703205724212552
20
-57.56097560975609
0
SEQEND
0
POLYLINE
8
C1
66
1
70
1
0
VERTEX
8
C1
10
-16.16458603885242
20
-55.12195121951219
0
VERTEX
8
C1
10
-16.042634819340222
20
-55.12195121951219
0
VERTEX
8
C1
10
-16.042634819340222
20
-54.99999999999999
0
VERTEX
8
C1
10
-16.16458603885242
20
-54.99999999999999
0
VERTEX
8
C1
10
-16.16458603885242
20
-55.12195121951219
0
SEQEND
0
POLYLINE
8
C1
66
1
70
1
0
VERTEX
8
C1
10
-13.759381763740379
20
-57.68292682926829
0
VERTEX
8
C1
10
-13.637430544228181
20
-57.68292682926829
0
VERTEX
8
C1
10
-13.637430544228181
20
-57.56097560975609
0
VERTEX
8
C1
10
-13.759381763740379
20
-57.56097560975609
0
VERTEX
8
C1
10
-13.759381763740379
20
-57.68292682926829
0
SEQEND
0
POLYLINE
8
C1
66
1
70
1
0
VERTEX
8
C1
10
-15.27933480036991
20
-57.41335780424331
0
VERTEX
8
C1
10
-14.706164068662588
20
-57.41335780424331
0
VERTEX
8
C1
10
-14.706164068662588
20
-56.49999999999999
0
VERTEX
8
C1
10
-15.072017727199182
20
-56.49999999999999
0
VERTEX
8
C1
10
-15.072017727199182
20
-56.28048780487804
0
VERTEX
8
C1
10
-15.193968946711365
20
-56.28048780487804
0
VERTEX
8
C1
10
-15.193968946711365
20
-56.49999999999999
0
VERTEX
8
C1
10
-15.27933480036991
20
-56.49999999999999
0
VERTEX
8
C1
10
-15.27933480036991
20
-57.41335780424331
0
SEQEND
0
POLYLINE
8
C1
66
1
70
1
0
VERTEX
8
C1
10
-13.286633473342675
20
-57.68292682926829
0
VERTEX
8
C1
10
-13.164682253830492
20
-57.68292682926829
0
VERTEX
8
C1
10
-13.164682253830492
20
-57.56097560975609
0
VERTEX
8
C1
10
-13.286633473342675
20
-57.56097560975609
0
VERTEX
8
C1
10
-13.286633473342675
20
-57.68292682926829
0
SEQEND
0
POLYLINE
8
C1
66
1
70
1
0
VERTEX
8
C1
10
-15.767139678418687
20
-56.40243902439024
0
VERTEX
8
C1
10
-15.645188458906489
20
-56.40243902439024
0
VERTEX
8
C1
10
-15.645188458906489
20
-56.18292682926829
0
VERTEX
8
C1
10
-15.30372504427234
20
-56.18292682926829
0
VERTEX
8
C1
10
-15.30372504427234
20
-55.269569025024985
0
VERTEX
8
C1
10
-15.937871385735761
20
-55.269569025024985
0
VERTEX
8
C1
10
-15.937871385735761
20
-56.18292682926829
0
VERTEX
8
C1
10
-15.767139678418687
20
-56.18292682926829
0
VERTEX
8
C1
10
-15.767139678418687
20
-56.40243902439024
0
SEQEND
0
POLYLINE
8
C1
66
1
70
1
0
VERTEX
8
C1
10
-12.86585365853658
20
-56.52439024390244
0
VERTEX
8
C1
10
-11.70731707317124
20
-56.52439024390244
0
VERTEX
8
C1
10
-11.70731707317124
20
-56.28048780487804
0
VERTEX
8
C1
10
-13.293835931337398
20
-56.28048780487804
0
VERTEX
8
C1
10
-13.293835931337398
20
-57.41335780424331
0
VERTEX
8
C1
10
-12.86585365853658
20
-57.41335780424331
0
VERTEX
8
C1
10
-12.86585365853658
20
-56.52439024390244
0
SEQEND
0
POLYLINE
8
C1
66
1
70
1
0
VERTEX
8
C1
10
-16.73170731707316
20
-57.38896756034087
0
VERTEX
8
C1
10
-15.780487804878035
20
-57.38896756034087
0
VERTEX
8
C1
10
-15.780487804878035
20
-56.792682926829265
0
VERTEX
8
C1
10
-16.035432361345514
20
-56.792682926829265
0
VERTEX
8
C1
10
-16.035432361345514
20
-56.28048780487804
0
VERTEX
8
C1
10
-17.560975609755573
20
-56.28048780487804
0
VERTEX
8
C1
10
-17.560975609755573
20
-56.52439024390244
0
VERTEX
8
C1
10
-16.73170731707316
20
-56.52439024390244
0
VERTEX
8
C1
10
-16.73170731707316
20
-57.38896756034087
0
SEQEND
0
POLYLINE
8
C1
66
1
70
1
0
VERTEX
8
C1
10
-7.995055443532507
20
-56.28048780487804
0
VERTEX
8
C1
10
-8.117006663044705
20
-56.28048780487804
0
VERTEX
8
C1
10
-8.117006663044705
20
-56.3780487804878
0
VERTEX
8
C1
10
-8.427982272800804
20
-56.3780487804878
0
VERTEX
8
C1
10
-8.427982272800804
20
-57.41335780424331
0
VERTEX
8
C1
10
-7.659689589873977
20
-57.41335780424331
0
VERTEX
8
C1
10
-7.659689589873977
20
-56.49999999999999
0
VERTEX
8
C1
10
-7.995055443532507
20
-56.49999999999999
0
VERTEX
8
C1
10
-7.995055443532507
20
-56.28048780487804
0
SEQEND
0
POLYLINE
8
C1
66
1
70
1
0
VERTEX
8
C1
10
-8.50563460252964
20
-54.99999999999999
0
VERTEX
8
C1
10
-8.627585822041823
20
-54.99999999999999
0
VERTEX
8
C1
10
-8.627585822041823
20
-55.12195121951219
0
VERTEX
8
C1
10
-8.50563460252964
20
-55.12195121951219
0
VERTEX
8
C1
10
-8.50563460252964
20
-54.99999999999999
0
SEQEND
0
POLYLINE
8
C1
66
1
70
1
0
VERTEX
8
C1
10
-7.67257475788729
20
-54.99999999999999
0
VERTEX
8
C1
10
-7.794525977399488
20
-54.99999999999999
0
VERTEX
8
C1
10
-7.794525977399488
20
-55.12195121951219
0
VERTEX
8
C1
10
-7.67257475788729
20
-55.12195121951219
0
VERTEX
8
C1
10
-7.67257475788729
20
-54.99999999999999
0
SEQEND
0
POLYLINE
8
C1
66
1
70
1
0
VERTEX
8
C1
10
-9.312294297815242
20
-54.99999999999999
0
VERTEX
8
C1
10
-9.312294297815242
20
-55.121951219512205
0
VERTEX
8
C1
10
-9.190343078303044
20
-55.121951219512205
0
VERTEX
8
C1
10
-9.190343078303044
20
-54.99999999999999
0
VERTEX
8
C1
10
-9.312294297815242
20
-54.99999999999999
0
SEQEND
0
POLYLINE
8
C1
66
1
70
1
0
VERTEX
8
C1
10
-9.84954718762718
20
-57.56097560975609
0
VERTEX
8
C1
10
-9.971498407139379
20
-57.56097560975609
0
VERTEX
8
C1
10
-9.971498407139379
20
-57.68292682926829
0
VERTEX
8
C1
10
-9.84954718762718
20
-57.68292682926829
0
VERTEX
8
C1
10
-9.84954718762718
20
-57.56097560975609
0
SEQEND
0
POLYLINE
8
C1
66
1
70
1
0
VERTEX
8
C1
10
-10.310927502267049
20
-55.12195121951219
0
VERTEX
8
C1
10
-10.188976282754851
20
-55.12195121951219
0
VERTEX
8
C1
10
-10.188976282754851
20
-54.99999999999999
0
VERTEX
8
C1
10
-10.310927502267049
20
-54.99999999999999
0
VERTEX
8
C1
10
-10.310927502267049
20
-55.12195121951219
0
SEQEND
0
POLYLINE
8
C1
66
1
70
1
0
VERTEX
8
C1
10
-7.905723227155008
20
-57.68292682926829
0
VERTEX
8
C1
10
-7.78377200764281
20
-57.68292682926829
0
VERTEX
8
C1
10
-7.78377200764281
20
-57.56097560975609
0
VERTEX
8
C1
10
-7.905723227155008
20
-57.56097560975609
0
VERTEX
8
C1
10
-7.905723227155008
20
-57.68292682926829
0
SEQEND
0
POLYLINE
8
C1
66
1
70
1
0
VERTEX
8
C1
10
-9.425676263784538
20
-57.41335780424331
0
VERTEX
8
C1
10
-8.852505532077217
20
-57.41335780424331
0
VERTEX
8
C1
10
-8.852505532077217
20
-56.49999999999999
0
VERTEX
8
C1
10
-9.21835919061381
20
-56.49999999999999
0
VERTEX
8
C1
10
-9.21835919061381
20
-56.28048780487804
0
VERTEX
8
C1
10
-9.340310410125994
20
-56.28048780487804
0
VERTEX
8
C1
10
-9.340310410125994
20
-56.49999999999999
0
VERTEX
8
C1
10
-9.425676263784538
20
-56.49999999999999
0
VERTEX
8
C1
10
-9.425676263784538
20
-57.41335780424331
0
SEQEND
0
POLYLINE
8
C1
66
1
70
1
0
VERTEX
8
C1
10
-7.432974936757304
20
-57.68292682926829
0
VERTEX
8
C1
10
-7.311023717245121
20
-57.68292682926829
0
VERTEX
8
C1
10
-7.311023717245121
20
-57.56097560975609
0
VERTEX
8
C1
10
-7.432974936757304
20
-57.56097560975609
0
VERTEX
8
C1
10
-7.432974936757304
20
-57.68292682926829
0
SEQEND
0
POLYLINE
8
C1
66
1
70
1
0
VERTEX
8
C1
10
-9.913481141833316
20
-56.40243902439024
0
VERTEX
8
C1
10
-9.791529922321118
20
-56.40243902439024
0
VERTEX
8
C1
10
-9.791529922321118
20
-56.18292682926829
0
VERTEX
8
C1
10
-9.45006650768697
20
-56.18292682926829
0
VERTEX
8
C1
10
-9.45006650768697
20
-55.269569025024985
0
VERTEX
8
C1
10
-10.08421284915039
20
-55.269569025024985
0
VERTEX
8
C1
10
-10.08421284915039
20
-56.18292682926829
0
VERTEX
8
C1
10
-9.913481141833316
20
-56.18292682926829
0
VERTEX
8
C1
10
-9.913481141833316
20
-56.40243902439024
0
SEQEND
0
POLYLINE
8
C1
66
1
70
1
0
VERTEX
8
C1
10
-7.012195121951208
20
-56.52439024390244
0
VERTEX
8
C1
10
-5.853658536585868
20
-56.52439024390244
0
VERTEX
8
C1
10
-5.853658536585868
20
-56.28048780487804
0
VERTEX
8
C1
10
-7.440177394752027
20
-56.28048780487804
0
VERTEX
8
C1
10
-7.440177394752027
20
-57.41335780424331
0
VERTEX
8
C1
10
-7.012195121951208
20
-57.41335780424331
0
VERTEX
8
C1
10
-7.012195121951208
20
-56.52439024390244
0
SEQEND
0
POLYLINE
8
C1
66
1
70
1
0
VERTEX
8
C1
10
-10.878048780487788
20
-57.38896756034087
0
VERTEX
8
C1
10
-9.926829268292664
20
-57.38896756034087
0
VERTEX
8
C1
10
-9.926829268292664
20
-56.792682926829265
0
VERTEX
8
C1
10
-10.181773824760143
20
-56.792682926829265
0
VERTEX
8
C1
10
-10.181773824760143
20
-56.28048780487804
0
VERTEX
8
C1
10
-11.707317073170202
20
-56.28048780487804
0
VERTEX
8
C1
10
-11.707317073170202
20
-56.52439024390244
0
VERTEX
8
C1
10
-10.878048780487788
20
-56.52439024390244
0
VERTEX
8
C1
10
-10.878048780487788
20
-57.38896756034087
0
SEQEND
0
POLYLINE
8
C1
66
1
70
1
0
VERTEX
8
C1
10
-2.1413969069471506
20
-56.28048780487804
0
VERTEX
8
C1
10
-2.2633481264593485
20
-56.28048780487804
0
VERTEX
8
C1
10
-2.2633481264593485
20
-56.3780487804878
0
VERTEX
8
C1
10
-2.5743237362154474
20
-56.3780487804878
0
VERTEX
8
C1
10
-2.5743237362154474
20
-57.41335780424331
0
VERTEX
8
C1
10
-1.8060310532886206
20
-57.41335780424331
0
VERTEX
8
C1
10
-1.8060310532886206
20
-56.49999999999999
0
VERTEX
8
C1
10
-2.1413969069471506
20
-56.49999999999999
0
VERTEX
8
C1
10
-2.1413969069471506
20
-56.28048780487804
0
SEQEND
0
POLYLINE
8
C1
66
1
70
1
0
VERTEX
8
C1
10
-2.6519760659442824
20
-54.99999999999999
0
VERTEX
8
C1
10
-2.773927285456466
20
-54.99999999999999
0
VERTEX
8
C1
10
-2.773927285456466
20
-55.12195121951219
0
VERTEX
8
C1
10
-2.6519760659442824
20
-55.12195121951219
0
VERTEX
8
C1
10
-2.6519760659442824
20
-54.99999999999999
0
SEQEND
0
POLYLINE
8
C1
66
1
70
1
0
VERTEX
8
C1
10
-1.818916221301933
20
-54.99999999999999
0
VERTEX
8
C1
10
-1.9408674408141309
20
-54.99999999999999
0
VERTEX
8
C1
10
-1.9408674408141309
20
-55.12195121951219
0
VERTEX
8
C1
10
-1.818916221301933
20
-55.12195121951219
0
VERTEX
8
C1
10
-1.818916221301933
20
-54.99999999999999
0
SEQEND
0
POLYLINE
8
C1
66
1
70
1
0
VERTEX
8
C1
10
-3.4586357612298855
20
-54.99999999999999
0
VERTEX
8
C1
10
-3.4586357612298855
20
-55.121951219512205
0
VERTEX
8
C1
10
-3.3366845417176876
20
-55.121951219512205
0
VERTEX
8
C1
10
-3.3366845417176876
20
-54.99999999999999
0
VERTEX
8
C1
10
-3.4586357612298855
20
-54.99999999999999
0
SEQEND
0
POLYLINE
8
C1
66
1
70
1
0
VERTEX
8
C1
10
-3.995888651041824
20
-57.56097560975609
0
VERTEX
8
C1
10
-4.117839870554022
20
-57.56097560975609
0
VERTEX
8
C1
10
-4.117839870554022
20
-57.68292682926829
0
VERTEX
8
C1
10
-3.995888651041824
20
-57.68292682926829
0
VERTEX
8
C1
10
-3.995888651041824
20
-57.56097560975609
0
SEQEND
0
POLYLINE
8
C1
66
1
70
1
0
VERTEX
8
C1
10
-4.457268965681692
20
-55.12195121951219
0
VERTEX
8
C1
10
-4.335317746169494
20
-55.12195121951219
0
VERTEX
8
C1
10
-4.335317746169494
20
-54.99999999999999
0
VERTEX
8
C1
10
-4.457268965681692
20
-54.99999999999999
0
VERTEX
8
C1
10
-4.457268965681692
20
-55.12195121951219
0
SEQEND
0
POLYLINE
8
C1
66
1
70
1
0
VERTEX
8
C1
10
-2.052064690569651
20
-57.68292682926829
0
VERTEX
8
C1
10
-1.930113471057453
20
-57.68292682926829
0
VERTEX
8
C1
10
-1.930113471057453
20
-57.56097560975609
0
VERTEX
8
C1
10
-2.052064690569651
20
-57.56097560975609
0
VERTEX
8
C1
10
-2.052064690569651
20
-57.68292682926829
0
SEQEND
0
POLYLINE
8
C1
66
1
70
1
0
VERTEX
8
C1
10
-3.5720177271991815
20
-57.41335780424331
0
VERTEX
8
C1
10
-2.99884699549186
20
-57.41335780424331
0
VERTEX
8
C1
10
-2.99884699549186
20
-56.49999999999999
0
VERTEX
8
C1
10
-3.3647006540284536
20
-56.49999999999999
0
VERTEX
8
C1
10
-3.3647006540284536
20
-56.28048780487804
0
VERTEX
8
C1
10
-3.4866518735406373
20
-56.28048780487804
0
VERTEX
8
C1
10
-3.4866518735406373
20
-56.49999999999999
0
VERTEX
8
C1
10
-3.5720177271991815
20
-56.49999999999999
0
VERTEX
8
C1
10
-3.5720177271991815
20
-57.41335780424331
0
SEQEND
0
POLYLINE
8
C1
66
1
70
1
0
VERTEX
8
C1
10
-1.5793164001719475
20
-57.68292682926829
0
VERTEX
8
C1
10
-1.4573651806597638
20
-57.68292682926829
0
VERTEX
8
C1
10
-1.4573651806597638
20
-57.56097560975609
0
VERTEX
8
C1
10
-1.5793164001719475
20
-57.56097560975609
0
VERTEX
8
C1
10
-1.5793164001719475
20
-57.68292682926829
0
SEQEND
0
POLYLINE
8
C1
66
1
70
1
0
VERTEX
8
C1
10
-4.059822605247959
20
-56.40243902439024
0
VERTEX
8
C1
10
-3.937871385735761
20
-56.40243902439024
0
VERTEX
8
C1
10
-3.937871385735761
20
-56.18292682926829
0
VERTEX
8
C1
10
-3.5964079711016126
20
-56.18292682926829
0
VERTEX
8
C1
10
-3.5964079711016126
20
-55.269569025024985
0
VERTEX
8
C1
10
-4.230554312565033
20
-55.269569025024985
0
VERTEX
8
C1
10
-4.230554312565033
20
-56.18292682926829
0
VERTEX
8
C1
10
-4.059822605247959
20
-56.18292682926829
0
VERTEX
8
C1
10
-4.059822605247959
20
-56.40243902439024
0
SEQEND
0
POLYLINE
8
C1
66
1
70
1
0
VERTEX
8
C1
10
-1.1585365853658516
20
-56.52439024390244
0
VERTEX
8
C1
10
-5.115907697472721e-13
20
-56.52439024390244
0
VERTEX
8
C1
10
-5.115907697472721e-13
20
-56.28048780487804
0
VERTEX
8
C1
10
-1.58651885816667
20
-56.28048780487804
0
VERTEX
8
C1
10
-1.58651885816667
20
-57.41335780424331
0
VERTEX
8
C1
10
-1.1585365853658516
20
-57.41335780424331
0
VERTEX
8
C1
10
-1.1585365853658516
20
-56.52439024390244
0
SEQEND
0
POLYLINE
8
C1
66
1
70
1
0
VERTEX
8
C1
10
-5.024390243902431
20
-57.38896756034087
0
VERTEX
8
C1
10
-4.073170731707307
20
-57.38896756034087
0
VERTEX
8
C1
10
-4.073170731707307
20
-56.792682926829265
0
VERTEX
8
C1
10
-4.328115288174786
20
-56.792682926829265
0
VERTEX
8
C1
10
-4.328115288174786
20
-56.28048780487804
0
VERTEX
8
C1
10
-5.853658536584845
20
-56.28048780487804
0
VERTEX
8
C1
10
-5.853658536584845
20
-56.52439024390244
0
VERTEX
8
C1
10
-5.024390243902431
20
-56.52439024390244
0
VERTEX
8
C1
10
-5.024390243902431
20
-57.38896756034087
0
SEQEND
0
POLYLINE
8
C1
66
1
70
1
0
VERTEX
8
C1
10
3.7122616296382205
20
-56.28048780487804
0
VERTEX
8
C1
10
3.5903104101260226
20
-56.28048780487804
0
VERTEX
8
C1
10
3.5903104101260226
20
-56.3780487804878
0
VERTEX
8
C1
10
3.2793348003699236
20
-56.3780487804878
0
VERTEX
8
C1
10
3.2793348003699236
20
-57.41335780424331
0
VERTEX
8
C1
10
4.0476274832967505
20
-57.41335780424331
0
VERTEX
8
C1
10
4.0476274832967505
20
-56.49999999999999
0
VERTEX
8
C1
10
3.7122616296382205
20
-56.49999999999999
0
VERTEX
8
C1
10
3.7122616296382205
20
-56.28048780487804
0
SEQEND
0
POLYLINE
8
C1
66
1
70
1
0
VERTEX
8
C1
10
3.2016824706410887
20
-54.99999999999999
0
VERTEX
8
C1
10
3.079731251128905
20
-54.99999999999999
0
VERTEX
8
C1
10
3.079731251128905
20
-55.12195121951219
0
VERTEX
8
C1
10
3.2016824706410887
20
-55.12195121951219
0
VERTEX
8
C1
10
3.2016824706410887
20
-54.99999999999999
0
SEQEND
0
POLYLINE
8
C1
66
1
70
1
0
VERTEX
8
C1
10
4.034742315283438
20
-54.99999999999999
0
VERTEX
8
C1
10
3.91279109577124
20
-54.99999999999999
0
VERTEX
8
C1
10
3.91279109577124
20
-55.12195121951219
0
VERTEX
8
C1
10
4.034742315283438
20
-55.12195121951219
0
VERTEX
8
C1
10
4.034742315283438
20
-54.99999999999999
0
SEQEND
0
POLYLINE
8
C1
66
1
70
1
0
VERTEX
8
C1
10
2.3950227753554856
20
-54.99999999999999
0
VERTEX
8
C1
10
2.3950227753554856
20
-55.121951219512205
0
VERTEX
8
C1
10
2.5169739948676835
20
-55.121951219512205
0
VERTEX
8
C1
10
2.5169739948676835
20
-54.99999999999999
0
VERTEX
8
C1
10
2.3950227753554856
20
-54.99999999999999
0
SEQEND
0
POLYLINE
8
C1
66
1
70
1
0
VERTEX
8
C1
10
1.8577698855435472
20
-57.56097560975609
0
VERTEX
8
C1
10
1.7358186660313493
20
-57.56097560975609
0
VERTEX
8
C1
10
1.7358186660313493
20
-57.68292682926829
0
VERTEX
8
C1
10
1.8577698855435472
20
-57.68292682926829
0
VERTEX
8
C1
10
1.8577698855435472
20
-57.56097560975609
0
SEQEND
0
POLYLINE
8
C1
66
1
70
1
0
VERTEX
8
C1
10
1.396389570903679
20
-55.12195121951219
0
VERTEX
8
C1
10
1.518340790415877
20
-55.12195121951219
0
VERTEX
8
C1
10
1.518340790415877
20
-54.99999999999999
0
VERTEX
8
C1
10
1.396389570903679
20
-54.99999999999999
0
VERTEX
8
C1
10
1.396389570903679
20
-55.12195121951219
0
SEQEND
0
POLYLINE
8
C1
66
1
70
1
0
VERTEX
8
C1
10
3.80159384601572
20
-57.68292682926829
0
VERTEX
8
C1
10
3.923545065527918
20
-57.68292682926829
0
VERTEX
8
C1
10
3.923545065527918
20
-57.56097560975609
0
VERTEX
8
C1
10
3.80159384601572
20
-57.56097560975609
0
VERTEX
8
C1
10
3.80159384601572
20
-57.68292682926829
0
SEQEND
0
POLYLINE
8
C1
66
1
70
1
0
VERTEX
8
C1
10
2.2816408093861895
20
-57.41335780424331
0
VERTEX
8
C1
10
2.854811541093511
20
-57.41335780424331
0
VERTEX
8
C1
10
2.854811541093511
20
-56.49999999999999
0
VERTEX
8
C1
10
2.4889578825569174
20
-56.49999999999999
0
VERTEX
8
C1
10
2.4889578825569174
20
-56.28048780487804
0
VERTEX
8
C1
10
2.3670066630447337
20
-56.28048780487804
0
VERTEX
8
C1
10
2.3670066630447337
20
-56.49999999999999
0
VERTEX
8
C1
10
2.2816408093861895
20
-56.49999999999999
0
VERTEX
8
C1
10
2.2816408093861895
20
-57.41335780424331
0
SEQEND
0
POLYLINE
8
C1
66
1
70
1
0
VERTEX
8
C1
10
4.2743421364134235
20
-57.68292682926829
0
VERTEX
8
C1
10
4.396293355925607
20
-57.68292682926829
0
VERTEX
8
C1
10
4.396293355925607
20
-57.56097560975609
0
VERTEX
8
C1
10
4.2743421364134235
20
-57.56097560975609
0
VERTEX
8
C1
10
4.2743421364134235
20
-57.68292682926829
0
SEQEND
0
POLYLINE
8
C1
66
1
70
1
0
VERTEX
8
C1
10
1.7938359313374121
20
-56.40243902439024
0
VERTEX
8
C1
10
1.91578715084961
20
-56.40243902439024
0
VERTEX
8
C1
10
1.91578715084961
20
-56.18292682926829
0
VERTEX
8
C1
10
2.2572505654837585
20
-56.18292682926829
0
VERTEX
8
C1
10
2.2572505654837585
20
-55.269569025024985
0
VERTEX
8
C1
10
1.623104224020338
20
-55.269569025024985
0
VERTEX
8
C1
10
1.623104224020338
20
-56.18292682926829
0
VERTEX
8
C1
10
1.7938359313374121
20
-56.18292682926829
0
VERTEX
8
C1
10
1.7938359313374121
20
-56.40243902439024
0
SEQEND
0
POLYLINE
8
C1
66
1
70
1
0
VERTEX
8
C1
10
4.6951219512195195
20
-56.52439024390244
0
VERTEX
8
C1
10
5.8536585365848595
20
-56.52439024390244
0
VERTEX
8
C1
10
5.8536585365848595
20
-56.28048780487804
0
VERTEX
8
C1
10
4.267139678418701
20
-56.28048780487804
0
VERTEX
8
C1
10
4.267139678418701
20
-57.41335780424331
0
VERTEX
8
C1
10
4.6951219512195195
20
-57.41335780424331
0
VERTEX
8
C1
10
4.6951219512195195
20
-56.52439024390244
0
SEQEND
0
POLYLINE
8
C1
66
1
70
1
0
VERTEX
8
C1
10
0.82926829268294
20
-57.38896756034087
0
VERTEX
8
C1
10
1.7804878048780637
20
-57.38896756034087
0
VERTEX
8
C1
10
1.7804878048780637
20
-56.792682926829265
0
VERTEX
8
C1
10
1.5255432484105853
20
-56.792682926829265
0
VERTEX
8
C1
10
1.5255432484105853
20
-56.28048780487804
0
VERTEX
8
C1
10
5.258016244624741e-13
20
-56.28048780487804
0
VERTEX
8
C1
10
5.258016244624741e-13
20
-56.52439024390244
0
VERTEX
8
C1
10
0.82926829268294
20
-56.52439024390244
0
VERTEX
8
C1
10
0.82926829268294
20
-57.38896756034087
0
SEQEND
0
POLYLINE
8
C1
66
1
70
1
0
VERTEX
8
C1
10
9.565920166223577
20
-56.28048780487804
0
VERTEX
8
C1
10
9.44396894671138
20
-56.28048780487804
0
VERTEX
8
C1
10
9.44396894671138
20
-56.3780487804878
0
VERTEX
8
C1
10
9.13299333695528
20
-56.3780487804878
0
VERTEX
8
C1
10
9.13299333695528
20
-57.41335780424331
0
VERTEX
8
C1
10
9.901286019882107
20
-57.41335780424331
0
VERTEX
8
C1
10
9.901286019882107
20
-56.49999999999999
0
VERTEX
8
C1
10
9.565920166223577
20
-56.49999999999999
0
VERTEX
8
C1
10
9.565920166223577
20
-56.28048780487804
0
SEQEND
0
POLYLINE
8
C1
66
1
70
1
0
VERTEX
8
C1
10
9.055341007226446
20
-54.99999999999999
0
VERTEX
8
C1
10
8.933389787714262
20
-54.99999999999999
0
VERTEX
8
C1
10
8.933389787714262
20
-55.12195121951219
0
VERTEX
8
C1
10
9.055341007226446
20
-55.12195121951219
0
VERTEX
8
C1
10
9.055341007226446
20
-54.99999999999999
0
SEQEND
0
POLYLINE
8
C1
66
1
70
1
0
VERTEX
8
C1
10
9.888400851868795
20
-54.99999999999999
0
VERTEX
8
C1
10
9.766449632356597
20
-54.99999999999999
0
VERTEX
8
C1
10
9.766449632356597
20
-55.12195121951219
0
VERTEX
8
C1
10
9.888400851868795
20
-55.12195121951219
0
VERTEX
8
C1
10
9.888400851868795
20
-54.99999999999999
0
SEQEND
0
POLYLINE
8
C1
66
1
70
1
0
VERTEX
8
C1
10
8.248681311940842
20
-54.99999999999999
0
VERTEX
8
C1
10
8.248681311940842
20
-55.121951219512205
0
VERTEX
8
C1
10
8.37063253145304
20
-55.121951219512205
0
VERTEX
8
C1
10
8.37063253145304
20
-54.99999999999999
0
VERTEX
8
C1
10
8.248681311940842
20
-54.99999999999999
0
SEQEND
0
POLYLINE
8
C1
66
1
70
1
0
VERTEX
8
C1
10
7.711428422128904
20
-57.56097560975609
0
VERTEX
8
C1
10
7.589477202616706
20
-57.56097560975609
0
VERTEX
8
C1
10
7.589477202616706
20
-57.68292682926829
0
VERTEX
8
C1
10
7.711428422128904
20
-57.68292682926829
0
VERTEX
8
C1
10
7.711428422128904
20
-57.56097560975609
0
SEQEND
0
POLYLINE
8
C1
66
1
70
1
0
VERTEX
8
C1
10
7.250048107489036
20
-55.12195121951219
0
VERTEX
8
C1
10
7.371999327001234
20
-55.12195121951219
0
VERTEX
8
C1
10
7.371999327001234
20
-54.99999999999999
0
VERTEX
8
C1
10
7.250048107489036
20
-54.99999999999999
0
VERTEX
8
C1
10
7.250048107489036
20
-55.12195121951219
0
SEQEND
0
POLYLINE
8
C1
66
1
70
1
0
VERTEX
8
C1
10
9.655252382601077
20
-57.68292682926829
0
VERTEX
8
C1
10
9.777203602113275
20
-57.68292682926829
0
VERTEX
8
C1
10
9.777203602113275
20
-57.56097560975609
0
VERTEX
8
C1
10
9.655252382601077
20
-57.56097560975609
0
VERTEX
8
C1
10
9.655252382601077
20
-57.68292682926829
0
SEQEND
0
POLYLINE
8
C1
66
1
70
1
0
VERTEX
8
C1
10
8.135299345971546
20
-57.41335780424331
0
VERTEX
8
C1
10
8.708470077678868
20
-57.41335780424331
0
VERTEX
8
C1
10
8.708470077678868
20
-56.49999999999999
0
VERTEX
8
C1
10
8.342616419142274
20
-56.49999999999999
0
VERTEX
8
C1
10
8.342616419142274
20
-56.28048780487804
0
VERTEX
8
C1
10
8.22066519963009
20
-56.28048780487804
0
VERTEX
8
C1
10
8.22066519963009
20
-56.49999999999999
0
VERTEX
8
C1
10
8.135299345971546
20
-56.49999999999999
0
VERTEX
8
C1
10
8.135299345971546
20
-57.41335780424331
0
SEQEND
0
POLYLINE
8
C1
66
1
70
1
0
VERTEX
8
C1
10
10.12800067299878
20
-57.68292682926829
0
VERTEX
8
C1
10
10.249951892510964
20
-57.68292682926829
0
VERTEX
8
C1
10
10.249951892510964
20
-57.56097560975609
0
VERTEX
8
C1
10
10.12800067299878
20
-57.56097560975609
0
VERTEX
8
C1
10
10.12800067299878
20
-57.68292682926829
0
SEQEND
0
POLYLINE
8
C1
66
1
70
1
0
VERTEX
8
C1
10
7.647494467922769
20
-56.40243902439024
0
VERTEX
8
C1
10
7.769445687434967
20
-56.40243902439024
0
VERTEX
8
C1
10
7.769445687434967
20
-56.18292682926829
0
VERTEX
8
C1
10
8.110909102069115
20
-56.18292682926829
0
VERTEX
8
C1
10
8.110909102069115
20
-55.269569025024985
0
VERTEX
8
C1
10
7.476762760605695
20
-55.269569025024985
0
VERTEX
8
C1
10
7.476762760605695
20
-56.18292682926829
0
VERTEX
8
C1
10
7.647494467922769
20
-56.18292682926829
0
VERTEX
8
C1
10
7.647494467922769
20
-56.40243902439024
0
SEQEND
0
POLYLINE
8
C1
66
1
70
1
0
VERTEX
8
C1
10
10.548780487804876
20
-56.52439024390244
0
VERTEX
8
C1
10
11.707317073170216
20
-56.52439024390244
0
VERTEX
8
C1
10
11.707317073170216
20
-56.28048780487804
0
VERTEX
8
C1
10
10.120798215004058
20
-56.28048780487804
0
VERTEX
8
C1
10
10.120798215004058
20
-57.41335780424331
0
VERTEX
8
C1
10
10.548780487804876
20
-57.41335780424331
0
VERTEX
8
C1
10
10.548780487804876
20
-56.52439024390244
0
SEQEND
0
POLYLINE
8
C1
66
1
70
1
0
VERTEX
8
C1
10
6.682926829268297
20
-57.38896756034087
0
VERTEX
8
C1
10
7.6341463414634205
20
-57.38896756034087
0
VERTEX
8
C1
10
7.6341463414634205
20
-56.792682926829265
0
VERTEX
8
C1
10
7.379201784995942
20
-56.792682926829265
0
VERTEX
8
C1
10
7.379201784995942
20
-56.28048780487804
0
VERTEX
8
C1
10
5.853658536585883
20
-56.28048780487804
0
VERTEX
8
C1
10
5.853658536585883
20
-56.52439024390244
0
VERTEX
8
C1
10
6.682926829268297
20
-56.52439024390244
0
VERTEX
8
C1
10
6.682926829268297
20
-57.38896756034087
0
SEQEND
0
POLYLINE
8
C1
66
1
70
1
0
VERTEX
8
C1
10
15.419578702808948
20
-56.28048780487804
0
VERTEX
8
C1
10
15.29762748329675
20
-56.28048780487804
0
VERTEX
8
C1
10
15.29762748329675
20
-56.3780487804878
0
VERTEX
8
C1
10
14.986651873540652
20
-56.3780487804878
0
VERTEX
8
C1
10
14.986651873540652
20
-57.41335780424331
0
VERTEX
8
C1
10
15.754944556467478
20
-57.41335780424331
0
VERTEX
8
C1
10
15.754944556467478
20
-56.49999999999999
0
VERTEX
8
C1
10
15.419578702808948
20
-56.49999999999999
0
VERTEX
8
C1
10
15.419578702808948
20
-56.28048780487804
0
SEQEND
0
POLYLINE
8
C1
66
1
70
1
0
VERTEX
8
C1
10
14.908999543811817
20
-54.99999999999999
0
VERTEX
8
C1
10
14.787048324299633
20
-54.99999999999999
0
VERTEX
8
C1
10
14.787048324299633
20
-55.12195121951219
0
VERTEX
8
C1
10
14.908999543811817
20
-55.12195121951219
0
VERTEX
8
C1
10
14.908999543811817
20
-54.99999999999999
0
SEQEND
0
POLYLINE
8
C1
66
1
70
1
0
VERTEX
8
C1
10
15.742059388454166
20
-54.99999999999999
0
VERTEX
8
C1
10
15.620108168941968
20
-54.99999999999999
0
VERTEX
8
C1
10
15.620108168941968
20
-55.12195121951219
0
VERTEX
8
C1
10
15.742059388454166
20
-55.12195121951219
0
VERTEX
8
C1
10
15.742059388454166
20
-54.99999999999999
0
SEQEND
0
POLYLINE
8
C1
66
1
70
1
0
VERTEX
8
C1
10
14.102339848526213
20
-54.99999999999999
0
VERTEX
8
C1
10
14.102339848526213
20
-55.121951219512205
0
VERTEX
8
C1
10
14.224291068038411
20
-55.121951219512205
0
VERTEX
8
C1
10
14.224291068038411
20
-54.99999999999999
0
VERTEX
8
C1
10
14.102339848526213
20
-54.99999999999999
0
SEQEND
0
POLYLINE
8
C1
66
1
70
1
0
VERTEX
8
C1
10
13.565086958714275
20
-57.56097560975609
0
VERTEX
8
C1
10
13.443135739202077
20
-57.56097560975609
0
VERTEX
8
C1
10
13.443135739202077
20
-57.68292682926829
0
VERTEX
8
C1
10
13.565086958714275
20
-57.68292682926829
0
VERTEX
8
C1
10
13.565086958714275
20
-57.56097560975609
0
SEQEND
0
POLYLINE
8
C1
66
1
70
1
0
VERTEX
8
C1
10
13.103706644074407
20
-55.12195121951219
0
VERTEX
8
C1
10
13.225657863586605
20
-55.12195121951219
0
VERTEX
8
C1
10
13.225657863586605
20
-54.99999999999999
0
VERTEX
8
C1
10
13.103706644074407
20
-54.99999999999999
0
VERTEX
8
C1
10
13.103706644074407
20
-55.12195121951219
0
SEQEND
0
POLYLINE
8
C1
66
1
70
1
0
VERTEX
8
C1
10
15.508910919186448
20
-57.68292682926829
0
VERTEX
8
C1
10
15.630862138698646
20
-57.68292682926829
0
VERTEX
8
C1
10
15.630862138698646
20
-57.56097560975609
0
VERTEX
8
C1
10
15.508910919186448
20
-57.56097560975609
0
VERTEX
8
C1
10
15.508910919186448
20
-57.68292682926829
0
SEQEND
0
POLYLINE
8
C1
66
1
70
1
0
VERTEX
8
C1
10
13.988957882556917
20
-57.41335780424331
0
VERTEX
8
C1
10
14.562128614264239
20
-57.41335780424331
0
VERTEX
8
C1
10
14.562128614264239
20
-56.49999999999999
0
VERTEX
8
C1
10
14.196274955727645
20
-56.49999999999999
0
VERTEX
8
C1
10
14.196274955727645
20
-56.28048780487804
0
VERTEX
8
C1
10
14.074323736215462
20
-56.28048780487804
0
VERTEX
8
C1
10
14.074323736215462
20
-56.49999999999999
0
VERTEX
8
C1
10
13.988957882556917
20
-56.49999999999999
0
VERTEX
8
C1
10
13.988957882556917
20
-57.41335780424331
0
SEQEND
0
POLYLINE
8
C1
66
1
70
1
0
VERTEX
8
C1
10
15.981659209584151
20
-57.68292682926829
0
VERTEX
8
C1
10
16.103610429096335
20
-57.68292682926829
0
VERTEX
8
C1
10
16.103610429096335
20
-57.56097560975609
0
VERTEX
8
C1
10
15.981659209584151
20
-57.56097560975609
0
VERTEX
8
C1
10
15.981659209584151
20
-57.68292682926829
0
SEQEND
0
POLYLINE
8
C1
66
1
70
1
0
VERTEX
8
C1
10
13.50115300450814
20
-56.40243902439024
0
VERTEX
8
C1
10
13.623104224020338
20
-56.40243902439024
0
VERTEX
8
C1
10
13.623104224020338
20
-56.18292682926829
0
VERTEX
8
C1
10
13.964567638654486
20
-56.18292682926829
0
VERTEX
8
C1
10
13.964567638654486
20
-55.269569025024985
0
VERTEX
8
C1
10
13.330421297191066
20
-55.269569025024985
0
VERTEX
8
C1
10
13.330421297191066
20
-56.18292682926829
0
VERTEX
8
C1
10
13.50115300450814
20
-56.18292682926829
0
VERTEX
8
C1
10
13.50115300450814
20
-56.40243902439024
0
SEQEND
0
POLYLINE
8
C1
66
1
70
1
0
VERTEX
8
C1
10
16.402439024390247
20
-56.52439024390244
0
VERTEX
8
C1
10
17.5609756097556
20
-56.52439024390244
0
VERTEX
8
C1
10
17.5609756097556
20
-56.28048780487804
0
VERTEX
8
C1
10
15.974456751589429
20
-56.28048780487804
0
VERTEX
8
C1
10
15.974456751589429
20
-57.41335780424331
0
VERTEX
8
C1
10
16.402439024390247
20
-57.41335780424331
0
VERTEX
8
C1
10
16.402439024390247
20
-56.52439024390244
0
SEQEND
0
POLYLINE
8
C1
66
1
70
1
0
VERTEX
8
C1
10
12.536585365853668
20
-57.38896756034087
0
VERTEX
8
C1
10
13.487804878048792
20
-57.38896756034087
0
VERTEX
8
C1
10
13.487804878048792
20
-56.792682926829265
0
VERTEX
8
C1
10
13.232860321581313
20
-56.792682926829265
0
VERTEX
8
C1
10
13.232860321581313
20
-56.28048780487804
0
VERTEX
8
C1
10
11.707317073171254
20
-56.28048780487804
0
VERTEX
8
C1
10
11.707317073171254
20
-56.52439024390244
0
VERTEX
8
C1
10
12.536585365853668
20
-56.52439024390244
0
VERTEX
8
C1
10
12.536585365853668
20
-57.38896756034087
0
SEQEND
0
POLYLINE
8
C1
66
1
70
1
0
VERTEX
8
C1
10
21.273237239394305
20
-56.28048780487804
0
VERTEX
8
C1
10
21.151286019882107
20
-56.28048780487804
0
VERTEX
8
C1
10
21.151286019882107
20
-56.3780487804878
0
VERTEX
8
C1
10
20.84031041012601
20
-56.3780487804878
0
VERTEX
8
C1
10
20.84031041012601
20
-57.41335780424331
0
VERTEX
8
C1
10
21.60860309305285
20
-57.41335780424331
0
VERTEX
8
C1
10
21.60860309305285
20
-56.49999999999999
0
VERTEX
8
C1
10
21.273237239394305
20
-56.49999999999999
0
VERTEX
8
C1
10
21.273237239394305
20
-56.28048780487804
0
SEQEND
0
POLYLINE
8
C1
66
1
70
1
0
VERTEX
8
C1
10
20.762658080397173
20
-54.99999999999999
0
VERTEX
8
C1
10
20.640706860884976
20
-54.99999999999999
0
VERTEX
8
C1
10
20.640706860884976
20
-55.12195121951219
0
VERTEX
8
C1
10
20.762658080397173
20
-55.12195121951219
0
VERTEX
8
C1
10
20.762658080397173
20
-54.99999999999999
0
SEQEND
0
POLYLINE
8
C1
66
1
70
1
0
VERTEX
8
C1
10
21.595717925039523
20
-54.99999999999999
0
VERTEX
8
C1
10
21.473766705527325
20
-54.99999999999999
0
VERTEX
8
C1
10
21.473766705527325
20
-55.12195121951219
0
VERTEX
8
C1
10
21.595717925039523
20
-55.12195121951219
0
VERTEX
8
C1
10
21.595717925039523
20
-54.99999999999999
0
SEQEND
0
POLYLINE
8
C1
66
1
70
1
0
VERTEX
8
C1
10
19.955998385111585
20
-54.99999999999999
0
VERTEX
8
C1
10
19.955998385111585
20
-55.121951219512205
0
VERTEX
8
C1
10
20.077949604623782
20
-55.121951219512205
0
VERTEX
8
C1
10
20.077949604623782
20
-54.99999999999999
0
VERTEX
8
C1
10
19.955998385111585
20
-54.99999999999999
0
SEQEND
0
POLYLINE
8
C1
66
1
70
1
0
VERTEX
8
C1
10
19.418745495299632
20
-57.56097560975609
0
VERTEX
8
C1
10
19.296794275787434
20
-57.56097560975609
0
VERTEX
8
C1
10
19.296794275787434
20
-57.68292682926829
0
VERTEX
8
C1
10
19.418745495299632
20
-57.68292682926829
0
VERTEX
8
C1
10
19.418745495299632
20
-57.56097560975609
0
SEQEND
0
POLYLINE
8
C1
66
1
70
1
0
VERTEX
8
C1
10
18.957365180659778
20
-55.12195121951219
0
VERTEX
8
C1
10
19.079316400171948
20
-55.12195121951219
0
VERTEX
8
C1
10
19.079316400171948
20
-54.99999999999999
0
VERTEX
8
C1
10
18.957365180659778
20
-54.99999999999999
0
VERTEX
8
C1
10
18.957365180659778
20
-55.12195121951219
0
SEQEND
0
POLYLINE
8
C1
66
1
70
1
0
VERTEX
8
C1
10
21.362569455771805
20
-57.68292682926829
0
VERTEX
8
C1
10
21.484520675284003
20
-57.68292682926829
0
VERTEX
8
C1
10
21.484520675284003
20
-57.56097560975609
0
VERTEX
8
C1
10
21.362569455771805
20
-57.56097560975609
0
VERTEX
8
C1
10
21.362569455771805
20
-57.68292682926829
0
SEQEND
0
POLYLINE
8
C1
66
1
70
1
0
VERTEX
8
C1
10
19.84261641914229
20
-57.41335780424331
0
VERTEX
8
C1
10
20.415787150849596
20
-57.41335780424331
0
VERTEX
8
C1
10
20.415787150849596
20
-56.49999999999999
0
VERTEX
8
C1
10
20.049933492313002
20
-56.49999999999999
0
VERTEX
8
C1
10
20.049933492313002
20
-56.28048780487804
0
VERTEX
8
C1
10
19.927982272800804
20
-56.28048780487804
0
VERTEX
8
C1
10
19.927982272800804
20
-56.49999999999999
0
VERTEX
8
C1
10
19.84261641914229
20
-56.49999999999999
0
VERTEX
8
C1
10
19.84261641914229
20
-57.41335780424331
0
SEQEND
0
POLYLINE
8
C1
66
1
70
1
0
VERTEX
8
C1
10
21.83531774616951
20
-57.68292682926829
0
VERTEX
8
C1
10
21.957268965681678
20
-57.68292682926829
0
VERTEX
8
C1
10
21.957268965681678
20
-57.56097560975609
0
VERTEX
8
C1
10
21.83531774616951
20
-57.56097560975609
0
VERTEX
8
C1
10
21.83531774616951
20
-57.68292682926829
0
SEQEND
0
POLYLINE
8
C1
66
1
70
1
0
VERTEX
8
C1
10
19.354811541093497
20
-56.40243902439024
0
VERTEX
8
C1
10
19.476762760605695
20
-56.40243902439024
0
VERTEX
8
C1
10
19.476762760605695
20
-56.18292682926829
0
VERTEX
8
C1
10
19.818226175239843
20
-56.18292682926829
0
VERTEX
8
C1
10
19.818226175239843
20
-55.269569025024985
0
VERTEX
8
C1
10
19.184079833776437
20
-55.269569025024985
0
VERTEX
8
C1
10
19.184079833776437
20
-56.18292682926829
0
VERTEX
8
C1
10
19.354811541093497
20
-56.18292682926829
0
VERTEX
8
C1
10
19.354811541093497
20
-56.40243902439024
0
SEQEND
0
POLYLINE
8
C1
66
1
70
1
0
VERTEX
8
C1
10
22.25609756097562
20
-56.52439024390244
0
VERTEX
8
C1
10
23.41463414634096
20
-56.52439024390244
0
VERTEX
8
C1
10
23.41463414634096
20
-56.28048780487804
0
VERTEX
8
C1
10
21.8281152881748
20
-56.28048780487804
0
VERTEX
8
C1
10
21.8281152881748
20
-57.41335780424331
0
VERTEX
8
C1
10
22.25609756097562
20
-57.41335780424331
0
VERTEX
8
C1
10
22.25609756097562
20
-56.52439024390244
0
SEQEND
0
POLYLINE
8
C1
66
1
70
1
0
VERTEX
8
C1
10
18.390243902439025
20
-57.38896756034087
0
VERTEX
8
C1
10
19.341463414634134
20
-57.38896756034087
0
VERTEX
8
C1
10
19.341463414634134
20
-56.792682926829265
0
VERTEX
8
C1
10
19.086518858166656
20
-56.792682926829265
0
VERTEX
8
C1
10
19.086518858166656
20
-56.28048780487804
0
VERTEX
8
C1
10
17.560975609756596
20
-56.28048780487804
0
VERTEX
8
C1
10
17.560975609756596
20
-56.52439024390244
0
VERTEX
8
C1
10
18.390243902439025
20
-56.52439024390244
0
VERTEX
8
C1
10
18.390243902439025
20
-57.38896756034087
0
SEQEND
0
POLYLINE
8
C1
66
1
70
1
0
VERTEX
8
C1
10
27.12689577597969
20
-56.28048780487804
0
VERTEX
8
C1
10
27.004944556467493
20
-56.28048780487804
0
VERTEX
8
C1
10
27.004944556467493
20
-56.3780487804878
0
VERTEX
8
C1
10
26.693968946711394
20
-56.3780487804878
0
VERTEX
8
C1
10
26.693968946711394
20
-57.41335780424331
0
VERTEX
8
C1
10
27.462261629638235
20
-57.41335780424331
0
VERTEX
8
C1
10
27.462261629638235
20
-56.49999999999999
0
VERTEX
8
C1
10
27.12689577597969
20
-56.49999999999999
0
VERTEX
8
C1
10
27.12689577597969
20
-56.28048780487804
0
SEQEND
0
POLYLINE
8
C1
66
1
70
1
0
VERTEX
8
C1
10
26.61631661698256
20
-54.99999999999999
0
VERTEX
8
C1
10
26.49436539747036
20
-54.99999999999999
0
VERTEX
8
C1
10
26.49436539747036
20
-55.12195121951219
0
VERTEX
8
C1
10
26.61631661698256
20
-55.12195121951219
0
VERTEX
8
C1
10
26.61631661698256
20
-54.99999999999999
0
SEQEND
0
POLYLINE
8
C1
66
1
70
1
0
VERTEX
8
C1
10
27.449376461624908
20
-54.99999999999999
0
VERTEX
8
C1
10
27.32742524211271
20
-54.99999999999999
0
VERTEX
8
C1
10
27.32742524211271
20
-55.12195121951219
0
VERTEX
8
C1
10
27.449376461624908
20
-55.12195121951219
0
VERTEX
8
C1
10
27.449376461624908
20
-54.99999999999999
0
SEQEND
0
POLYLINE
8
C1
66
1
70
1
0
VERTEX
8
C1
10
25.80965692169697
20
-54.99999999999999
0
VERTEX
8
C1
10
25.80965692169697
20
-55.121951219512205
0
VERTEX
8
C1
10
25.931608141209168
20
-55.121951219512205
0
VERTEX
8
C1
10
25.931608141209168
20
-54.99999999999999
0
VERTEX
8
C1
10
25.80965692169697
20
-54.99999999999999
0
SEQEND
0
POLYLINE
8
C1
66
1
70
1
0
VERTEX
8
C1
10
25.272404031885017
20
-57.56097560975609
0
VERTEX
8
C1
10
25.15045281237282
20
-57.56097560975609
0
VERTEX
8
C1
10
25.15045281237282
20
-57.68292682926829
0
VERTEX
8
C1
10
25.272404031885017
20
-57.68292682926829
0
VERTEX
8
C1
10
25.272404031885017
20
-57.56097560975609
0
SEQEND
0
POLYLINE
8
C1
66
1
70
1
0
VERTEX
8
C1
10
24.811023717245163
20
-55.12195121951219
0
VERTEX
8
C1
10
24.932974936757333
20
-55.12195121951219
0
VERTEX
8
C1
10
24.932974936757333
20
-54.99999999999999
0
VERTEX
8
C1
10
24.811023717245163
20
-54.99999999999999
0
VERTEX
8
C1
10
24.811023717245163
20
-55.12195121951219
0
SEQEND
0
POLYLINE
8
C1
66
1
70
1
0
VERTEX
8
C1
10
27.21622799235719
20
-57.68292682926829
0
VERTEX
8
C1
10
27.338179211869388
20
-57.68292682926829
0
VERTEX
8
C1
10
27.338179211869388
20
-57.56097560975609
0
VERTEX
8
C1
10
27.21622799235719
20
-57.56097560975609
0
VERTEX
8
C1
10
27.21622799235719
20
-57.68292682926829
0
SEQEND
0
POLYLINE
8
C1
66
1
70
1
0
VERTEX
8
C1
10
25.696274955727674
20
-57.41335780424331
0
VERTEX
8
C1
10
26.26944568743498
20
-57.41335780424331
0
VERTEX
8
C1
10
26.26944568743498
20
-56.49999999999999
0
VERTEX
8
C1
10
25.903592028898387
20
-56.49999999999999
0
VERTEX
8
C1
10
25.903592028898387
20
-56.28048780487804
0
VERTEX
8
C1
10
25.78164080938619
20
-56.28048780487804
0
VERTEX
8
C1
10
25.78164080938619
20
-56.49999999999999
0
VERTEX
8
C1
10
25.696274955727674
20
-56.49999999999999
0
VERTEX
8
C1
10
25.696274955727674
20
-57.41335780424331
0
SEQEND
0
POLYLINE
8
C1
66
1
70
1
0
VERTEX
8
C1
10
27.688976282754894
20
-57.68292682926829
0
VERTEX
8
C1
10
27.810927502267063
20
-57.68292682926829
0
VERTEX
8
C1
10
27.810927502267063
20
-57.56097560975609
0
VERTEX
8
C1
10
27.688976282754894
20
-57.56097560975609
0
VERTEX
8
C1
10
27.688976282754894
20
-57.68292682926829
0
SEQEND
0
POLYLINE
8
C1
66
1
70
1
0
VERTEX
8
C1
10
25.208470077678882
20
-56.40243902439024
0
VERTEX
8
C1
10
25.33042129719108
20
-56.40243902439024
0
VERTEX
8
C1
10
25.33042129719108
20
-56.18292682926829
0
VERTEX
8
C1
10
25.67188471182523
20
-56.18292682926829
0
VERTEX
8
C1
10
25.67188471182523
20
-55.269569025024985
0
VERTEX
8
C1
10
25.037738370361822
20
-55.269569025024985
0
VERTEX
8
C1
10
25.037738370361822
20
-56.18292682926829
0
VERTEX
8
C1
10
25.208470077678882
20
-56.18292682926829
0
VERTEX
8
C1
10
25.208470077678882
20
-56.40243902439024
0
SEQEND
0
POLYLINE
8
C1
66
1
70
1
0
VERTEX
8
C1
10
28.109756097561004
20
-56.52439024390244
0
VERTEX
8
C1
10
29.268292682926344
20
-56.52439024390244
0
VERTEX
8
C1
10
29.268292682926344
20
-56.28048780487804
0
VERTEX
8
C1
10
27.681773824760185
20
-56.28048780487804
0
VERTEX
8
C1
10
27.681773824760185
20
-57.41335780424331
0
VERTEX
8
C1
10
28.109756097561004
20
-57.41335780424331
0
VERTEX
8
C1
10
28.109756097561004
20
-56.52439024390244
0
SEQEND
0
POLYLINE
8
C1
66
1
70
1
0
VERTEX
8
C1
10
24.24390243902441
20
-57.38896756034087
0
VERTEX
8
C1
10
25.19512195121952
20
-57.38896756034087
0
VERTEX
8
C1
10
25.19512195121952
20
-56.792682926829265
0
VERTEX
8
C1
10
24.94017739475204
20
-56.792682926829265
0
VERTEX
8
C1
10
24.94017739475204
20
-56.28048780487804
0
VERTEX
8
C1
10
23.41463414634198
20
-56.28048780487804
0
VERTEX
8
C1
10
23.41463414634198
20
-56.52439024390244
0
VERTEX
8
C1
10
24.24390243902441
20
-56.52439024390244
0
VERTEX
8
C1
10
24.24390243902441
20
-57.38896756034087
0
SEQEND
0
POLYLINE
8
C1
66
1
70
1
0
VERTEX
8
C1
10
32.98055431256502
20
-56.28048780487804
0
VERTEX
8
C1
10
32.85860309305282
20
-56.28048780487804
0
VERTEX
8
C1
10
32.85860309305282
20
-56.3780487804878
0
VERTEX
8
C1
10
32.54762748329672
20
-56.3780487804878
0
VERTEX
8
C1
10
32.54762748329672
20
-57.41335780424331
0
VERTEX
8
C1
10
33.31592016622356
20
-57.41335780424331
0
VERTEX
8
C1
10
33.31592016622356
20
-56.49999999999999
0
VERTEX
8
C1
10
32.98055431256502
20
-56.49999999999999
0
VERTEX
8
C1
10
32.98055431256502
20
-56.28048780487804
0
SEQEND
0
POLYLINE
8
C1
66
1
70
1
0
VERTEX
8
C1
10
32.46997515356789
20
-54.99999999999999
0
VERTEX
8
C1
10
32.34802393405569
20
-54.99999999999999
0
VERTEX
8
C1
10
32.34802393405569
20
-55.12195121951219
0
VERTEX
8
C1
10
32.46997515356789
20
-55.12195121951219
0
VERTEX
8
C1
10
32.46997515356789
20
-54.99999999999999
0
SEQEND
0
POLYLINE
8
C1
66
1
70
1
0
VERTEX
8
C1
10
33.30303499821024
20
-54.99999999999999
0
VERTEX
8
C1
10
33.18108377869804
20
-54.99999999999999
0
VERTEX
8
C1
10
33.18108377869804
20
-55.12195121951219
0
VERTEX
8
C1
10
33.30303499821024
20
-55.12195121951219
0
VERTEX
8
C1
10
33.30303499821024
20
-54.99999999999999
0
SEQEND
0
POLYLINE
8
C1
66
1
70
1
0
VERTEX
8
C1
10
31.663315458282298
20
-54.99999999999999
0
VERTEX
8
C1
10
31.663315458282298
20
-55.121951219512205
0
VERTEX
8
C1
10
31.785266677794496
20
-55.121951219512205
0
VERTEX
8
C1
10
31.785266677794496
20
-54.99999999999999
0
VERTEX
8
C1
10
31.663315458282298
20
-54.99999999999999
0
SEQEND
0
POLYLINE
8
C1
66
1
70
1
0
VERTEX
8
C1
10
31.126062568470346
20
-57.56097560975609
0
VERTEX
8
C1
10
31.004111348958148
20
-57.56097560975609
0
VERTEX
8
C1
10
31.004111348958148
20
-57.68292682926829
0
VERTEX
8
C1
10
31.126062568470346
20
-57.68292682926829
0
VERTEX
8
C1
10
31.126062568470346
20
-57.56097560975609
0
SEQEND
0
POLYLINE
8
C1
66
1
70
1
0
VERTEX
8
C1
10
30.66468225383049
20
-55.12195121951219
0
VERTEX
8
C1
10
30.78663347334266
20
-55.12195121951219
0
VERTEX
8
C1
10
30.78663347334266
20
-54.99999999999999
0
VERTEX
8
C1
10
30.66468225383049
20
-54.99999999999999
0
VERTEX
8
C1
10
30.66468225383049
20
-55.12195121951219
0
SEQEND
0
POLYLINE
8
C1
66
1
70
1
0
VERTEX
8
C1
10
33.06988652894252
20
-57.68292682926829
0
VERTEX
8
C1
10
33.19183774845472
20
-57.68292682926829
0
VERTEX
8
C1
10
33.19183774845472
20
-57.56097560975609
0
VERTEX
8
C1
10
33.06988652894252
20
-57.56097560975609
0
VERTEX
8
C1
10
33.06988652894252
20
-57.68292682926829
0
SEQEND
0
POLYLINE
8
C1
66
1
70
1
0
VERTEX
8
C1
10
31.549933492313002
20
-57.41335780424331
0
VERTEX
8
C1
10
32.12310422402031
20
-57.41335780424331
0
VERTEX
8
C1
10
32.12310422402031
20
-56.49999999999999
0
VERTEX
8
C1
10
31.757250565483716
20
-56.49999999999999
0
VERTEX
8
C1
10
31.757250565483716
20
-56.28048780487804
0
VERTEX
8
C1
10
31.635299345971518
20
-56.28048780487804
0
VERTEX
8
C1
10
31.635299345971518
20
-56.49999999999999
0
VERTEX
8
C1
10
31.549933492313002
20
-56.49999999999999
0
VERTEX
8
C1
10
31.549933492313002
20
-57.41335780424331
0
SEQEND
0
POLYLINE
8
C1
66
1
70
1
0
VERTEX
8
C1
10
33.54263481934022
20
-57.68292682926829
0
VERTEX
8
C1
10
33.66458603885239
20
-57.68292682926829
0
VERTEX
8
C1
10
33.66458603885239
20
-57.56097560975609
0
VERTEX
8
C1
10
33.54263481934022
20
-57.56097560975609
0
VERTEX
8
C1
10
33.54263481934022
20
-57.68292682926829
0
SEQEND
0
POLYLINE
8
C1
66
1
70
1
0
VERTEX
8
C1
10
31.06212861426421
20
-56.40243902439024
0
VERTEX
8
C1
10
31.18407983377641
20
-56.40243902439024
0
VERTEX
8
C1
10
31.18407983377641
20
-56.18292682926829
0
VERTEX
8
C1
10
31.525543248410557
20
-56.18292682926829
0
VERTEX
8
C1
10
31.525543248410557
20
-55.269569025024985
0
VERTEX
8
C1
10
30.89139690694715
20
-55.269569025024985
0
VERTEX
8
C1
10
30.89139690694715
20
-56.18292682926829
0
VERTEX
8
C1
10
31.06212861426421
20
-56.18292682926829
0
VERTEX
8
C1
10
31.06212861426421
20
-56.40243902439024
0
SEQEND
0
POLYLINE
8
C1
66
1
70
1
0
VERTEX
8
C1
10
33.96341463414633
20
-56.52439024390244
0
VERTEX
8
C1
10
35.12195121951167
20
-56.52439024390244
0
VERTEX
8
C1
10
35.12195121951167
20
-56.28048780487804
0
VERTEX
8
C1
10
33.535432361345514
20
-56.28048780487804
0
VERTEX
8
C1
10
33.535432361345514
20
-57.41335780424331
0
VERTEX
8
C1
10
33.96341463414633
20
-57.41335780424331
0
VERTEX
8
C1
10
33.96341463414633
20
-56.52439024390244
0
SEQEND
0
POLYLINE
8
C1
66
1
70
1
0
VERTEX
8
C1
10
30.09756097560974
20
-57.38896756034087
0
VERTEX
8
C1
10
31.048780487804848
20
-57.38896756034087
0
VERTEX
8
C1
10
31.048780487804848
20
-56.792682926829265
0
VERTEX
8
C1
10
30.79383593133737
20
-56.792682926829265
0
VERTEX
8
C1
10
30.79383593133737
20
-56.28048780487804
0
VERTEX
8
C1
10
29.26829268292731
20
-56.28048780487804
0
VERTEX
8
C1
10
29.26829268292731
20
-56.52439024390244
0
VERTEX
8
C1
10
30.09756097560974
20
-56.52439024390244
0
VERTEX
8
C1
10
30.09756097560974
20
-57.38896756034087
0
SEQEND
0
POLYLINE
8
C1
66
1
70
1
0
VERTEX
8
C1
10
38.834212849150404
20
-56.28048780487804
0
VERTEX
8
C1
10
38.712261629638206
20
-56.28048780487804
0
VERTEX
8
C1
10
38.712261629638206
20
-56.3780487804878
0
VERTEX
8
C1
10
38.40128601988211
20
-56.3780487804878
0
VERTEX
8
C1
10
38.40128601988211
20
-57.41335780424331
0
VERTEX
8
C1
10
39.16957870280895
20
-57.41335780424331
0
VERTEX
8
C1
10
39.16957870280895
20
-56.49999999999999
0
VERTEX
8
C1
10
38.834212849150404
20
-56.49999999999999
0
VERTEX
8
C1
10
38.834212849150404
20
-56.28048780487804
0
SEQEND
0
POLYLINE
8
C1
66
1
70
1
0
VERTEX
8
C1
10
38.32363369015327
20
-54.99999999999999
0
VERTEX
8
C1
10
38.201682470641074
20
-54.99999999999999
0
VERTEX
8
C1
10
38.201682470641074
20
-55.12195121951219
0
VERTEX
8
C1
10
38.32363369015327
20
-55.12195121951219
0
VERTEX
8
C1
10
38.32363369015327
20
-54.99999999999999
0
SEQEND
0
POLYLINE
8
C1
66
1
70
1
0
VERTEX
8
C1
10
39.15669353479562
20
-54.99999999999999
0
VERTEX
8
C1
10
39.034742315283424
20
-54.99999999999999
0
VERTEX
8
C1
10
39.034742315283424
20
-55.12195121951219
0
VERTEX
8
C1
10
39.15669353479562
20
-55.12195121951219
0
VERTEX
8
C1
10
39.15669353479562
20
-54.99999999999999
0
SEQEND
0
POLYLINE
8
C1
66
1
70
1
0
VERTEX
8
C1
10
37.51697399486768
20
-54.99999999999999
0
VERTEX
8
C1
10
37.51697399486768
20
-55.121951219512205
0
VERTEX
8
C1
10
37.63892521437988
20
-55.121951219512205
0
VERTEX
8
C1
10
37.63892521437988
20
-54.99999999999999
0
VERTEX
8
C1
10
37.51697399486768
20
-54.99999999999999
0
SEQEND
0
POLYLINE
8
C1
66
1
70
1
0
VERTEX
8
C1
10
36.97972110505573
20
-57.56097560975609
0
VERTEX
8
C1
10
36.85776988554353
20
-57.56097560975609
0
VERTEX
8
C1
10
36.85776988554353
20
-57.68292682926829
0
VERTEX
8
C1
10
36.97972110505573
20
-57.68292682926829
0
VERTEX
8
C1
10
36.97972110505573
20
-57.56097560975609
0
SEQEND
0
POLYLINE
8
C1
66
1
70
1
0
VERTEX
8
C1
10
36.51834079041588
20
-55.12195121951219
0
VERTEX
8
C1
10
36.64029200992805
20
-55.12195121951219
0
VERTEX
8
C1
10
36.64029200992805
20
-54.99999999999999
0
VERTEX
8
C1
10
36.51834079041588
20
-54.99999999999999
0
VERTEX
8
C1
10
36.51834079041588
20
-55.12195121951219
0
SEQEND
0
POLYLINE
8
C1
66
1
70
1
0
VERTEX
8
C1
10
38.923545065527904
20
-57.68292682926829
0
VERTEX
8
C1
10
39.0454962850401
20
-57.68292682926829
0
VERTEX
8
C1
10
39.0454962850401
20
-57.56097560975609
0
VERTEX
8
C1
10
38.923545065527904
20
-57.56097560975609
0
VERTEX
8
C1
10
38.923545065527904
20
-57.68292682926829
0
SEQEND
0
POLYLINE
8
C1
66
1
70
1
0
VERTEX
8
C1
10
37.40359202889839
20
-57.41335780424331
0
VERTEX
8
C1
10
37.976762760605695
20
-57.41335780424331
0
VERTEX
8
C1
10
37.976762760605695
20
-56.49999999999999
0
VERTEX
8
C1
10
37.6109091020691
20
-56.49999999999999
0
VERTEX
8
C1
10
37.6109091020691
20
-56.28048780487804
0
VERTEX
8
C1
10
37.4889578825569
20
-56.28048780487804
0
VERTEX
8
C1
10
37.4889578825569
20
-56.49999999999999
0
VERTEX
8
C1
10
37.40359202889839
20
-56.49999999999999
0
VERTEX
8
C1
10
37.40359202889839
20
-57.41335780424331
0
SEQEND
0
POLYLINE
8
C1
66
1
70
1
0
VERTEX
8
C1
10
39.39629335592561
20
-57.68292682926829
0
VERTEX
8
C1
10
39.51824457543778
20
-57.68292682926829
0
VERTEX
8
C1
10
39.51824457543778
20
-57.56097560975609
0
VERTEX
8
C1
10
39.39629335592561
20
-57.56097560975609
0
VERTEX
8
C1
10
39.39629335592561
20
-57.68292682926829
0
SEQEND
0
POLYLINE
8
C1
66
1
70
1
0
VERTEX
8
C1
10
36.915787150849596
20
-56.40243902439024
0
VERTEX
8
C1
10
37.037738370361794
20
-56.40243902439024
0
VERTEX
8
C1
10
37.037738370361794
20
-56.18292682926829
0
VERTEX
8
C1
10
37.37920178499594
20
-56.18292682926829
0
VERTEX
8
C1
10
37.37920178499594
20
-55.269569025024985
0
VERTEX
8
C1
10
36.745055443532536
20
-55.269569025024985
0
VERTEX
8
C1
10
36.745055443532536
20
-56.18292682926829
0
VERTEX
8
C1
10
36.915787150849596
20
-56.18292682926829
0
VERTEX
8
C1
10
36.915787150849596
20
-56.40243902439024
0
SEQEND
0
POLYLINE
8
C1
66
1
70
1
0
VERTEX
8
C1
10
39.81707317073172
20
-56.52439024390244
0
VERTEX
8
C1
10
40.97560975609706
20
-56.52439024390244
0
VERTEX
8
C1
10
40.97560975609706
20
-56.28048780487804
0
VERTEX
8
C1
10
39.3890908979309
20
-56.28048780487804
0
VERTEX
8
C1
10
39.3890908979309
20
-57.41335780424331
0
VERTEX
8
C1
10
39.81707317073172
20
-57.41335780424331
0
VERTEX
8
C1
10
39.81707317073172
20
-56.52439024390244
0
SEQEND
0
POLYLINE
8
C1
66
1
70
1
0
VERTEX
8
C1
10
35.951219512195124
20
-57.38896756034087
0
VERTEX
8
C1
10
36.90243902439023
20
-57.38896756034087
0
VERTEX
8
C1
10
36.90243902439023
20
-56.792682926829265
0
VERTEX
8
C1
10
36.647494467922755
20
-56.792682926829265
0
VERTEX
8
C1
10
36.647494467922755
20
-56.28048780487804
0
VERTEX
8
C1
10
35.121951219512695
20
-56.28048780487804
0
VERTEX
8
C1
10
35.121951219512695
20
-56.52439024390244
0
VERTEX
8
C1
10
35.951219512195124
20
-56.52439024390244
0
VERTEX
8
C1
10
35.951219512195124
20
-57.38896756034087
0
SEQEND
0
POLYLINE
8
C1
66
1
70
1
0
VERTEX
8
C1
10
44.68787138573579
20
-56.28048780487804
0
VERTEX
8
C1
10
44.56592016622359
20
-56.28048780487804
0
VERTEX
8
C1
10
44.56592016622359
20
-56.3780487804878
0
VERTEX
8
C1
10
44.25494455646749
20
-56.3780487804878
0
VERTEX
8
C1
10
44.25494455646749
20
-57.41335780424331
0
VERTEX
8
C1
10
45.023237239394334
20
-57.41335780424331
0
VERTEX
8
C1
10
45.023237239394334
20
-56.49999999999999
0
VERTEX
8
C1
10
44.68787138573579
20
-56.49999999999999
0
VERTEX
8
C1
10
44.68787138573579
20
-56.28048780487804
0
SEQEND
0
POLYLINE
8
C1
66
1
70
1
0
VERTEX
8
C1
10
44.17729222673866
20
-54.99999999999999
0
VERTEX
8
C1
10
44.05534100722646
20
-54.99999999999999
0
VERTEX
8
C1
10
44.05534100722646
20
-55.12195121951219
0
VERTEX
8
C1
10
44.17729222673866
20
-55.12195121951219
0
VERTEX
8
C1
10
44.17729222673866
20
-54.99999999999999
0
SEQEND
0
POLYLINE
8
C1
66
1
70
1
0
VERTEX
8
C1
10
45.01035207138101
20
-54.99999999999999
0
VERTEX
8
C1
10
44.88840085186881
20
-54.99999999999999
0
VERTEX
8
C1
10
44.88840085186881
20
-55.12195121951219
0
VERTEX
8
C1
10
45.01035207138101
20
-55.12195121951219
0
VERTEX
8
C1
10
45.01035207138101
20
-54.99999999999999
0
SEQEND
0
POLYLINE
8
C1
66
1
70
1
0
VERTEX
8
C1
10
43.37063253145307
20
-54.99999999999999
0
VERTEX
8
C1
10
43.37063253145307
20
-55.121951219512205
0
VERTEX
8
C1
10
43.49258375096527
20
-55.121951219512205
0
VERTEX
8
C1
10
43.49258375096527
20
-54.99999999999999
0
VERTEX
8
C1
10
43.37063253145307
20
-54.99999999999999
0
SEQEND
0
POLYLINE
8
C1
66
1
70
1
0
VERTEX
8
C1
10
42.833379641641116
20
-57.56097560975609
0
VERTEX
8
C1
10
42.71142842212892
20
-57.56097560975609
0
VERTEX
8
C1
10
42.71142842212892
20
-57.68292682926829
0
VERTEX
8
C1
10
42.833379641641116
20
-57.68292682926829
0
VERTEX
8
C1
10
42.833379641641116
20
-57.56097560975609
0
SEQEND
0
POLYLINE
8
C1
66
1
70
1
0
VERTEX
8
C1
10
42.37199932700126
20
-55.12195121951219
0
VERTEX
8
C1
10
42.49395054651343
20
-55.12195121951219
0
VERTEX
8
C1
10
42.49395054651343
20
-54.99999999999999
0
VERTEX
8
C1
10
42.37199932700126
20
-54.99999999999999
0
VERTEX
8
C1
10
42.37199932700126
20
-55.12195121951219
0
SEQEND
0
POLYLINE
8
C1
66
1
70
1
0
VERTEX
8
C1
10
44.77720360211329
20
-57.68292682926829
0
VERTEX
8
C1
10
44.89915482162549
20
-57.68292682926829
0
VERTEX
8
C1
10
44.89915482162549
20
-57.56097560975609
0
VERTEX
8
C1
10
44.77720360211329
20
-57.56097560975609
0
VERTEX
8
C1
10
44.77720360211329
20
-57.68292682926829
0
SEQEND
0
POLYLINE
8
C1
66
1
70
1
0
VERTEX
8
C1
10
43.25725056548377
20
-57.41335780424331
0
VERTEX
8
C1
10
43.83042129719108
20
-57.41335780424331
0
VERTEX
8
C1
10
43.83042129719108
20
-56.49999999999999
0
VERTEX
8
C1
10
43.464567638654486
20
-56.49999999999999
0
VERTEX
8
C1
10
43.464567638654486
20
-56.28048780487804
0
VERTEX
8
C1
10
43.34261641914229
20
-56.28048780487804
0
VERTEX
8
C1
10
43.34261641914229
20
-56.49999999999999
0
VERTEX
8
C1
10
43.25725056548377
20
-56.49999999999999
0
VERTEX
8
C1
10
43.25725056548377
20
-57.41335780424331
0
SEQEND
0
POLYLINE
8
C1
66
1
70
1
0
VERTEX
8
C1
10
45.24995189251099
20
-57.68292682926829
0
VERTEX
8
C1
10
45.37190311202316
20
-57.68292682926829
0
VERTEX
8
C1
10
45.37190311202316
20
-57.56097560975609
0
VERTEX
8
C1
10
45.24995189251099
20
-57.56097560975609
0
VERTEX
8
C1
10
45.24995189251099
20
-57.68292682926829
0
SEQEND
0
POLYLINE
8
C1
66
1
70
1
0
VERTEX
8
C1
10
42.76944568743498
20
-56.40243902439024
0
VERTEX
8
C1
10
42.89139690694718
20
-56.40243902439024
0
VERTEX
8
C1
10
42.89139690694718
20
-56.18292682926829
0
VERTEX
8
C1
10
43.23286032158133
20
-56.18292682926829
0
VERTEX
8
C1
10
43.23286032158133
20
-55.269569025024985
0
VERTEX
8
C1
10
42.59871398011792
20
-55.269569025024985
0
VERTEX
8
C1
10
42.59871398011792
20
-56.18292682926829
0
VERTEX
8
C1
10
42.76944568743498
20
-56.18292682926829
0
VERTEX
8
C1
10
42.76944568743498
20
-56.40243902439024
0
SEQEND
0
POLYLINE
8
C1
66
1
70
1
0
VERTEX
8
C1
10
45.6707317073171
20
-56.52439024390244
0
VERTEX
8
C1
10
46.82926829268244
20
-56.52439024390244
0
VERTEX
8
C1
10
46.82926829268244
20
-56.28048780487804
0
VERTEX
8
C1
10
45.242749434516284
20
-56.28048780487804
0
VERTEX
8
C1
10
45.242749434516284
20
-57.41335780424331
0
VERTEX
8
C1
10
45.6707317073171
20
-57.41335780424331
0
VERTEX
8
C1
10
45.6707317073171
20
-56.52439024390244
0
SEQEND
0
POLYLINE
8
C1
66
1
70
1
0
VERTEX
8
C1
10
41.80487804878051
20
-57.38896756034087
0
VERTEX
8
C1
10
42.75609756097562
20
-57.38896756034087
0
VERTEX
8
C1
10
42.75609756097562
20
-56.792682926829265
0
VERTEX
8
C1
10
42.50115300450814
20
-56.792682926829265
0
VERTEX
8
C1
10
42.50115300450814
20
-56.28048780487804
0
VERTEX
8
C1
10
40.97560975609808
20
-56.28048780487804
0
VERTEX
8
C1
10
40.97560975609808
20
-56.52439024390244
0
VERTEX
8
C1
10
41.80487804878051
20
-56.52439024390244
0
VERTEX
8
C1
10
41.80487804878051
20
-57.38896756034087
0
SEQEND
0
POLYLINE
8
C1
66
1
70
1
0
VERTEX
8
C1
10
50.541529922321146
20
-56.28048780487804
0
VERTEX
8
C1
10
50.41957870280895
20
-56.28048780487804
0
VERTEX
8
C1
10
50.41957870280895
20
-56.3780487804878
0
VERTEX
8
C1
10
50.10860309305285
20
-56.3780487804878
0
VERTEX
8
C1
10
50.10860309305285
20
-57.41335780424331
0
VERTEX
8
C1
10
50.87689577597969
20
-57.41335780424331
0
VERTEX
8
C1
10
50.87689577597969
20
-56.49999999999999
0
VERTEX
8
C1
10
50.541529922321146
20
-56.49999999999999
0
VERTEX
8
C1
10
50.541529922321146
20
-56.28048780487804
0
SEQEND
0
POLYLINE
8
C1
66
1
70
1
0
VERTEX
8
C1
10
50.030950763324014
20
-54.99999999999999
0
VERTEX
8
C1
10
49.90899954381182
20
-54.99999999999999
0
VERTEX
8
C1
10
49.90899954381182
20
-55.12195121951219
0
VERTEX
8
C1
10
50.030950763324014
20
-55.12195121951219
0
VERTEX
8
C1
10
50.030950763324014
20
-54.99999999999999
0
SEQEND
0
POLYLINE
8
C1
66
1
70
1
0
VERTEX
8
C1
10
50.864010607966364
20
-54.99999999999999
0
VERTEX
8
C1
10
50.742059388454166
20
-54.99999999999999
0
VERTEX
8
C1
10
50.742059388454166
20
-55.12195121951219
0
VERTEX
8
C1
10
50.864010607966364
20
-55.12195121951219
0
VERTEX
8
C1
10
50.864010607966364
20
-54.99999999999999
0
SEQEND
0
POLYLINE
8
C1
66
1
70
1
0
VERTEX
8
C1
10
49.224291068038426
20
-54.99999999999999
0
VERTEX
8
C1
10
49.224291068038426
20
-55.121951219512205
0
VERTEX
8
C1
10
49.34624228755062
20
-55.121951219512205
0
VERTEX
8
C1
10
49.34624228755062
20
-54.99999999999999
0
VERTEX
8
C1
10
49.224291068038426
20
-54.99999999999999
0
SEQEND
0
POLYLINE
8
C1
66
1
70
1
0
VERTEX
8
C1
10
48.68703817822647
20
-57.56097560975609
0
VERTEX
8
C1
10
48.565086958714275
20
-57.56097560975609
0
VERTEX
8
C1
10
48.565086958714275
20
-57.68292682926829
0
VERTEX
8
C1
10
48.68703817822647
20
-57.68292682926829
0
VERTEX
8
C1
10
48.68703817822647
20
-57.56097560975609
0
SEQEND
0
POLYLINE
8
C1
66
1
70
1
0
VERTEX
8
C1
10
48.22565786358662
20
-55.12195121951219
0
VERTEX
8
C1
10
48.34760908309879
20
-55.12195121951219
0
VERTEX
8
C1
10
48.34760908309879
20
-54.99999999999999
0
VERTEX
8
C1
10
48.22565786358662
20
-54.99999999999999
0
VERTEX
8
C1
10
48.22565786358662
20
-55.12195121951219
0
SEQEND
0
POLYLINE
8
C1
66
1
70
1
0
VERTEX
8
C1
10
50.630862138698646
20
-57.68292682926829
0
VERTEX
8
C1
10
50.752813358210844
20
-57.68292682926829
0
VERTEX
8
C1
10
50.752813358210844
20
-57.56097560975609
0
VERTEX
8
C1
10
50.630862138698646
20
-57.56097560975609
0
VERTEX
8
C1
10
50.630862138698646
20
-57.68292682926829
0
SEQEND
0
POLYLINE
8
C1
66
1
70
1
0
VERTEX
8
C1
10
49.11090910206913
20
-57.41335780424331
0
VERTEX
8
C1
10
49.68407983377644
20
-57.41335780424331
0
VERTEX
8
C1
10
49.68407983377644
20
-56.49999999999999
0
VERTEX
8
C1
10
49.31822617523984
20
-56.49999999999999
0
VERTEX
8
C1
10
49.31822617523984
20
-56.28048780487804
0
VERTEX
8
C1
10
49.196274955727645
20
-56.28048780487804
0
VERTEX
8
C1
10
49.196274955727645
20
-56.49999999999999
0
VERTEX
8
C1
10
49.11090910206913
20
-56.49999999999999
0
VERTEX
8
C1
10
49.11090910206913
20
-57.41335780424331
0
SEQEND
0
POLYLINE
8
C1
66
1
70
1
0
VERTEX
8
C1
10
51.10361042909635
20
-57.68292682926829
0
VERTEX
8
C1
10
51.22556164860852
20
-57.68292682926829
0
VERTEX
8
C1
10
51.22556164860852
20
-57.56097560975609
0
VERTEX
8
C1
10
51.10361042909635
20
-57.56097560975609
0
VERTEX
8
C1
10
51.10361042909635
20
-57.68292682926829
0
SEQEND
0
POLYLINE
8
C1
66
1
70
1
0
VERTEX
8
C1
10
48.62310422402034
20
-56.40243902439024
0
VERTEX
8
C1
10
48.745055443532536
20
-56.40243902439024
0
VERTEX
8
C1
10
48.745055443532536
20
-56.18292682926829
0
VERTEX
8
C1
10
49.086518858166684
20
-56.18292682926829
0
VERTEX
8
C1
10
49.086518858166684
20
-55.269569025024985
0
VERTEX
8
C1
10
48.45237251670328
20
-55.269569025024985
0
VERTEX
8
C1
10
48.45237251670328
20
-56.18292682926829
0
VERTEX
8
C1
10
48.62310422402034
20
-56.18292682926829
0
VERTEX
8
C1
10
48.62310422402034
20
-56.40243902439024
0
SEQEND
0
POLYLINE
8
C1
66
1
70
1
0
VERTEX
8
C1
10
51.52439024390246
20
-56.52439024390244
0
VERTEX
8
C1
10
52.6829268292678
20
-56.52439024390244
0
VERTEX
8
C1
10
52.6829268292678
20
-56.28048780487804
0
VERTEX
8
C1
10
51.09640797110164
20
-56.28048780487804
0
VERTEX
8
C1
10
51.09640797110164
20
-57.41335780424331
0
VERTEX
8
C1
10
51.52439024390246
20
-57.41335780424331
0
VERTEX
8
C1
10
51.52439024390246
20
-56.52439024390244
0
SEQEND
0
POLYLINE
8
C1
66
1
70
1
0
VERTEX
8
C1
10
47.658536585365866
20
-57.38896756034087
0
VERTEX
8
C1
10
48.609756097560975
20
-57.38896756034087
0
VERTEX
8
C1
10
48.609756097560975
20
-56.792682926829265
0
VERTEX
8
C1
10
48.3548115410935
20
-56.792682926829265
0
VERTEX
8
C1
10
48.3548115410935
20
-56.28048780487804
0
VERTEX
8
C1
10
46.82926829268344
20
-56.28048780487804
0
VERTEX
8
C1
10
46.82926829268344
20
-56.52439024390244
0
VERTEX
8
C1
10
47.658536585365866
20
-56.52439024390244
0
VERTEX
8
C1
10
47.658536585365866
20
-57.38896756034087
0
SEQEND
0
POLYLINE
8
C1
66
1
70
1
0
VERTEX
8
C1
10
56.3951884589065
20
-56.28048780487804
0
VERTEX
8
C1
10
56.273237239394305
20
-56.28048780487804
0
VERTEX
8
C1
10
56.273237239394305
20
-56.3780487804878
0
VERTEX
8
C1
10
55.962261629638206
20
-56.3780487804878
0
VERTEX
8
C1
10
55.962261629638206
20
-57.41335780424331
0
VERTEX
8
C1
10
56.73055431256505
20
-57.41335780424331
0
VERTEX
8
C1
10
56.73055431256505
20
-56.49999999999999
0
VERTEX
8
C1
10
56.3951884589065
20
-56.49999999999999
0
VERTEX
8
C1
10
56.3951884589065
20
-56.28048780487804
0
SEQEND
0
POLYLINE
8
C1
66
1
70
1
0
VERTEX
8
C1
10
55.88460929990937
20
-54.99999999999999
0
VERTEX
8
C1
10
55.76265808039717
20
-54.99999999999999
0
VERTEX
8
C1
10
55.76265808039717
20
-55.12195121951219
0
VERTEX
8
C1
10
55.88460929990937
20
-55.12195121951219
0
VERTEX
8
C1
10
55.88460929990937
20
-54.99999999999999
0
SEQEND
0
POLYLINE
8
C1
66
1
70
1
0
VERTEX
8
C1
10
56.71766914455172
20
-54.99999999999999
0
VERTEX
8
C1
10
56.59571792503952
20
-54.99999999999999
0
VERTEX
8
C1
10
56.59571792503952
20
-55.12195121951219
0
VERTEX
8
C1
10
56.71766914455172
20
-55.12195121951219
0
VERTEX
8
C1
10
56.71766914455172
20
-54.99999999999999
0
SEQEND
0
POLYLINE
8
C1
66
1
70
1
0
VERTEX
8
C1
10
55.07794960462378
20
-54.99999999999999
0
VERTEX
8
C1
10
55.07794960462378
20
-55.121951219512205
0
VERTEX
8
C1
10
55.19990082413598
20
-55.121951219512205
0
VERTEX
8
C1
10
55.19990082413598
20
-54.99999999999999
0
VERTEX
8
C1
10
55.07794960462378
20
-54.99999999999999
0
SEQEND
0
POLYLINE
8
C1
66
1
70
1
0
VERTEX
8
C1
10
54.54069671481183
20
-57.56097560975609
0
VERTEX
8
C1
10
54.41874549529963
20
-57.56097560975609
0
VERTEX
8
C1
10
54.41874549529963
20
-57.68292682926829
0
VERTEX
8
C1
10
54.54069671481183
20
-57.68292682926829
0
VERTEX
8
C1
10
54.54069671481183
20
-57.56097560975609
0
SEQEND
0
POLYLINE
8
C1
66
1
70
1
0
VERTEX
8
C1
10
54.079316400171976
20
-55.12195121951219
0
VERTEX
8
C1
10
54.201267619684145
20
-55.12195121951219
0
VERTEX
8
C1
10
54.201267619684145
20
-54.99999999999999
0
VERTEX
8
C1
10
54.079316400171976
20
-54.99999999999999
0
VERTEX
8
C1
10
54.079316400171976
20
-55.12195121951219
0
SEQEND
0
POLYLINE
8
C1
66
1
70
1
0
VERTEX
8
C1
10
56.484520675284
20
-57.68292682926829
0
VERTEX
8
C1
10
56.6064718947962
20
-57.68292682926829
0
VERTEX
8
C1
10
56.6064718947962
20
-57.56097560975609
0
VERTEX
8
C1
10
56.484520675284
20
-57.56097560975609
0
VERTEX
8
C1
10
56.484520675284
20
-57.68292682926829
0
SEQEND
0
POLYLINE
8
C1
66
1
70
1
0
VERTEX
8
C1
10
54.964567638654486
20
-57.41335780424331
0
VERTEX
8
C1
10
55.537738370361794
20
-57.41335780424331
0
VERTEX
8
C1
10
55.537738370361794
20
-56.49999999999999
0
VERTEX
8
C1
10
55.1718847118252
20
-56.49999999999999
0
VERTEX
8
C1
10
55.1718847118252
20
-56.28048780487804
0
VERTEX
8
C1
10
55.049933492313
20
-56.28048780487804
0
VERTEX
8
C1
10
55.049933492313
20
-56.49999999999999
0
VERTEX
8
C1
10
54.964567638654486
20
-56.49999999999999
0
VERTEX
8
C1
10
54.964567638654486
20
-57.41335780424331
0
SEQEND
0
POLYLINE
8
C1
66
1
70
1
0
VERTEX
8
C1
10
56.957268965681706
20
-57.68292682926829
0
VERTEX
8
C1
10
57.079220185193876
20
-57.68292682926829
0
VERTEX
8
C1
10
57.079220185193876
20
-57.56097560975609
0
VERTEX
8
C1
10
56.957268965681706
20
-57.56097560975609
0
VERTEX
8
C1
10
56.957268965681706
20
-57.68292682926829
0
SEQEND
0
POLYLINE
8
C1
66
1
70
1
0
VERTEX
8
C1
10
54.476762760605695
20
-56.40243902439024
0
VERTEX
8
C1
10
54.59871398011789
20
-56.40243902439024
0
VERTEX
8
C1
10
54.59871398011789
20
-56.18292682926829
0
VERTEX
8
C1
10
54.94017739475204
20
-56.18292682926829
0
VERTEX
8
C1
10
54.94017739475204
20
-55.269569025024985
0
VERTEX
8
C1
10
54.306031053288635
20
-55.269569025024985
0
VERTEX
8
C1
10
54.306031053288635
20
-56.18292682926829
0
VERTEX
8
C1
10
54.476762760605695
20
-56.18292682926829
0
VERTEX
8
C1
10
54.476762760605695
20
-56.40243902439024
0
SEQEND
0
POLYLINE
8
C1
66
1
70
1
0
VERTEX
8
C1
10
57.378048780487816
20
-56.52439024390244
0
VERTEX
8
C1
10
58.61658536585314
20
-56.52439024390244
0
VERTEX
8
C1
10
58.61658536585314
20
-56.28048780487804
0
VERTEX
8
C1
10
56.950066507687
20
-56.28048780487804
0
VERTEX
8
C1
10
56.950066507687
20
-57.41335780424331
0
VERTEX
8
C1
10
57.378048780487816
20
-57.41335780424331
0
VERTEX
8
C1
10
57.378048780487816
20
-56.52439024390244
0
SEQEND
0
POLYLINE
8
C1
66
1
70
1
0
VERTEX
8
C1
10
53.51219512195122
20
-57.38896756034087
0
VERTEX
8
C1
10
54.46341463414633
20
-57.38896756034087
0
VERTEX
8
C1
10
54.46341463414633
20
-56.792682926829265
0
VERTEX
8
C1
10
54.208470077678854
20
-56.792682926829265
0
VERTEX
8
C1
10
54.208470077678854
20
-56.28048780487804
0
VERTEX
8
C1
10
52.682926829268794
20
-56.28048780487804
0
VERTEX
8
C1
10
52.682926829268794
20
-56.52439024390244
0
VERTEX
8
C1
10
53.51219512195122
20
-56.52439024390244
0
VERTEX
8
C1
10
53.51219512195122
20
-57.38896756034087
0
SEQEND
0
ENDBLK
0
ENDSEC
0
SECTION
2
ENTITIES
0
INSERT
2
LDI_XFB44-1600-011_C1_B1
8
C1
10
0
20
0.0
30
0
0
INSERT
2
LDI_XFB44-1600-011_C1_B1
8
C1
10
0
20
5.121951219512195
30
0
0
INSERT
2
LDI_XFB44-1600-011_C1_B1
8
C1
10
0
20
10.24390243902439
30
0
0
INSERT
2
LDI_XFB44-1600-011_C1_B1
8
C1
10
0
20
15.365853658536587
30
0
0
INSERT
2
LDI_XFB44-1600-011_C1_B1
8
C1
10
0
20
20.48780487804878
30
0
0
INSERT
2
LDI_XFB44-1600-011_C1_B1
8
C1
10
0
20
25.609756097560975
30
0
0
INSERT
2
LDI_XFB44-1600-011_C1_B1
8
C1
10
0
20
30.731707317073173
30
0
0
INSERT
2
LDI_XFB44-1600-011_C1_B1
8
C1
10
0
20
35.853658536585364
30
0
0
INSERT
2
LDI_XFB44-1600-011_C1_B1
8
C1
10
0
20
40.97560975609756
30
0
0
INSERT
2
LDI_XFB44-1600-011_C1_B1
8
C1
10
0
20
46.09756097560976
30
0
0
INSERT
2
LDI_XFB44-1600-011_C1_B1
8
C1
10
0
20
51.21951219512195
30
0
0
INSERT
2
LDI_XFB44-1600-011_C1_B1
8
C1
10
0
20
56.34146341463415
30
0
0
INSERT
2
LDI_XFB44-1600-011_C1_B1
8
C1
10
0
20
61.463414634146346
30
0
0
INSERT
2
LDI_XFB44-1600-011_C1_B1
8
C1
10
0
20
66.58536585365854
30
0
0
INSERT
2
LDI_XFB44-1600-011_C1_B1
8
C1
10
0
20
71.70731707317073
30
0
0
INSERT
2
LDI_XFB44-1600-011_C1_B1
8
C1
10
0
20
76.82926829268293
30
0
0
INSERT
2
LDI_XFB44-1600-011_C1_B1
8
C1
10
0
20
81.95121951219512
30
0
0
INSERT
2
LDI_XFB44-1600-011_C1_B1
8
C1
10
0
20
87.07317073170732
30
0
0
INSERT
2
LDI_XFB44-1600-011_C1_B1
8
C1
10
0
20
92.19512195121952
30
0
0
INSERT
2
LDI_XFB44-1600-011_C1_B1
8
C1
10
0
20
97.3170731707317
30
0
0
INSERT
2
LDI_XFB44-1600-011_C1_B1
8
C1
10
0
20
102.4390243902439
30
0
0
INSERT
2
LDI_XFB44-1600-011_C1_B1
8
C1
10
0
20
107.5609756097561
30
0
0
INSERT
2
LDI_XFB44-1600-011_C1_B1
8
C1
10
0
20
112.6829268292683
30
0
0
POLYLINE
8
C1
66
1
70
1
40
0.1
41
0.1
0
VERTEX
8
C1
10
-61.5
20
-61.2
42
1.0
0
VERTEX
8
C1
10
-60.900000000000006
20
-61.2
42
1.0
0
SEQEND
0
POLYLINE
8
C1
66
1
70
1
40
0.1
41
0.1
0
VERTEX
8
C1
10
-61.5
20
61.2
42
1.0
0
VERTEX
8
C1
10
-60.900000000000006
20
61.2
42
1.0
0
SEQEND
0
POLYLINE
8
C1
66
1
70
1
40
0.1
41
0.1
0
VERTEX
8
C1
10
60.90000000000002
20
-61.2
42
1.0
0
VERTEX
8
C1
10
61.499999999999986
20
-61.2
42
1.0
0
SEQEND
0
POLYLINE
8
C1
66
1
70
1
40
0.1
41
0.1
0
VERTEX
8
C1
10
60.90000000000002
20
61.2
42
1.0
0
VERTEX
8
C1
10
61.499999999999986
20
61.2
42
1.0
0
SEQEND
0
POLYLINE
8
C1
66
1
70
1
0
VERTEX
8
C1
10
-64.46966991411009
20
-64.46966991411009
40
0.08
41
0.08
0
VERTEX
8
C1
10
-65.53033008588991
20
-65.53033008588991
40
0.08
41
0.08
0
SEQEND
0
POLYLINE
8
C1
66
1
70
1
0
VERTEX
8
C1
10
-64.46966991411009
20
-65.53033008588991
40
0.08
41
0.08
0
VERTEX
8
C1
10
-65.53033008588991
20
-64.46966991411009
40
0.08
41
0.08
0
SEQEND
0
POLYLINE
8
C1
66
1
70
1
0
VERTEX
8
C1
10
-64.46966991411009
20
65.53033008588993
40
0.08
41
0.08
0
VERTEX
8
C1
10
-65.53033008588991
20
64.4696699141101
40
0.08
41
0.08
0
SEQEND
0
POLYLINE
8
C1
66
1
70
1
0
VERTEX
8
C1
10
-64.46966991411009
20
64.4696699141101
40
0.08
41
0.08
0
VERTEX
8
C1
10
-65.53033008588991
20
65.53033008588993
40
0.08
41
0.08
0
SEQEND
0
POLYLINE
8
C1
66
1
70
1
0
VERTEX
8
C1
10
65.53033008588993
20
65.53033008588993
40
0.08
41
0.08
0
VERTEX
8
C1
10
64.4696699141101
20
64.4696699141101
40
0.08
41
0.08
0
SEQEND
0
POLYLINE
8
C1
66
1
70
1
0
VERTEX
8
C1
10
65.53033008588993
20
64.4696699141101
40
0.08
41
0.08
0
VERTEX
8
C1
10
64.4696699141101
20
65.53033008588993
40
0.08
41
0.08
0
SEQEND
0
POLYLINE
8
C1
66
1
70
1
0
VERTEX
8
C1
10
65.74999999999999
20
-65.0
40
0.08
41
0.08
0
VERTEX
8
C1
10
64.24999999999999
20
-65.0
40
0.08
41
0.08
0
SEQEND
0
POLYLINE
8
C1
66
1
70
1
0
VERTEX
8
C1
10
64.99999999999999
20
-64.25
40
0.08
41
0.08
0
VERTEX
8
C1
10
64.99999999999999
20
-65.75
40
0.08
41
0.08
0
SEQEND
0
POLYLINE
8
C1
66
1
70
1
0
VERTEX
8
C1
10
-58.536585365853654
20
-61.2
40
0.08
41
0.08
0
VERTEX
8
C1
10
-58.536585365853654
20
-64.2
40
0.08
41
0.08
0
SEQEND
0
POLYLINE
8
C1
66
1
70
1
0
VERTEX
8
C1
10
-58.536585365853654
20
61.2
40
0.08
41
0.08
0
VERTEX
8
C1
10
-58.536585365853654
20
64.2
40
0.08
41
0.08
0
SEQEND
0
POLYLINE
8
C1
66
1
70
1
0
VERTEX
8
C1
10
-52.68292682926829
20
-61.2
40
0.08
41
0.08
0
VERTEX
8
C1
10
-52.68292682926829
20
-64.2
40
0.08
41
0.08
0
SEQEND
0
POLYLINE
8
C1
66
1
70
1
0
VERTEX
8
C1
10
-52.68292682926829
20
61.2
40
0.08
41
0.08
0
VERTEX
8
C1
10
-52.68292682926829
20
64.2
40
0.08
41
0.08
0
SEQEND
0
POLYLINE
8
C1
66
1
70
1
0
VERTEX
8
C1
10
-46.829268292682926
20
-61.2
40
0.08
41
0.08
0
VERTEX
8
C1
10
-46.829268292682926
20
-64.2
40
0.08
41
0.08
0
SEQEND
0
POLYLINE
8
C1
66
1
70
1
0
VERTEX
8
C1
10
-46.829268292682926
20
61.2
40
0.08
41
0.08
0
VERTEX
8
C1
10
-46.829268292682926
20
64.2
40
0.08
41
0.08
0
SEQEND
0
POLYLINE
8
C1
66
1
70
1
0
VERTEX
8
C1
10
-40.975609756097555
20
-61.2
40
0.08
41
0.08
0
VERTEX
8
C1
10
-40.975609756097555
20
-64.2
40
0.08
41
0.08
0
SEQEND
0
POLYLINE
8
C1
66
1
70
1
0
VERTEX
8
C1
10
-40.975609756097555
20
61.2
40
0.08
41
0.08
0
VERTEX
8
C1
10
-40.975609756097555
20
64.2
40
0.08
41
0.08
0
SEQEND
0
POLYLINE
8
C1
66
1
70
1
0
VERTEX
8
C1
10
-35.121951219512184
20
-61.2
40
0.08
41
0.08
0
VERTEX
8
C1
10
-35.121951219512184
20
-64.2
40
0.08
41
0.08
0
SEQEND
0
POLYLINE
8
C1
66
1
70
1
0
VERTEX
8
C1
10
-35.121951219512184
20
61.2
40
0.08
41
0.08
0
VERTEX
8
C1
10
-35.121951219512184
20
64.2
40
0.08
41
0.08
0
SEQEND
0
POLYLINE
8
C1
66
1
70
1
0
VERTEX
8
C1
10
-29.268292682926827
20
-61.2
40
0.08
41
0.08
0
VERTEX
8
C1
10
-29.268292682926827
20
-64.2
40
0.08
41
0.08
0
SEQEND
0
POLYLINE
8
C1
66
1
70
1
0
VERTEX
8
C1
10
-29.268292682926827
20
61.2
40
0.08
41
0.08
0
VERTEX
8
C1
10
-29.268292682926827
20
64.2
40
0.08
41
0.08
0
SEQEND
0
POLYLINE
8
C1
66
1
70
1
0
VERTEX
8
C1
10
-23.414634146341456
20
-61.2
40
0.08
41
0.08
0
VERTEX
8
C1
10
-23.414634146341456
20
-64.2
40
0.08
41
0.08
0
SEQEND
0
POLYLINE
8
C1
66
1
70
1
0
VERTEX
8
C1
10
-23.414634146341456
20
61.2
40
0.08
41
0.08
0
VERTEX
8
C1
10
-23.414634146341456
20
64.2
40
0.08
41
0.08
0
SEQEND
0
POLYLINE
8
C1
66
1
70
1
0
VERTEX
8
C1
10
-17.560975609756085
20
-61.2
40
0.08
41
0.08
0
VERTEX
8
C1
10
-17.560975609756085
20
-64.2
40
0.08
41
0.08
0
SEQEND
0
POLYLINE
8
C1
66
1
70
1
0
VERTEX
8
C1
10
-17.560975609756085
20
61.2
40
0.08
41
0.08
0
VERTEX
8
C1
10
-17.560975609756085
20
64.2
40
0.08
41
0.08
0
SEQEND
0
POLYLINE
8
C1
66
1
70
1
0
VERTEX
8
C1
10
-11.707317073170728
20
-61.2
40
0.08
41
0.08
0
VERTEX
8
C1
10
-11.707317073170728
20
-64.2
40
0.08
41
0.08
0
SEQEND
0
POLYLINE
8
C1
66
1
70
1
0
VERTEX
8
C1
10
-11.707317073170728
20
61.2
40
0.08
41
0.08
0
VERTEX
8
C1
10
-11.707317073170728
20
64.2
40
0.08
41
0.08
0
SEQEND
0
POLYLINE
8
C1
66
1
70
1
0
VERTEX
8
C1
10
-5.853658536585371
20
-61.2
40
0.08
41
0.08
0
VERTEX
8
C1
10
-5.853658536585371
20
-64.2
40
0.08
41
0.08
0
SEQEND
0
POLYLINE
8
C1
66
1
70
1
0
VERTEX
8
C1
10
-5.853658536585371
20
61.2
40
0.08
41
0.08
0
VERTEX
8
C1
10
-5.853658536585371
20
64.2
40
0.08
41
0.08
0
SEQEND
0
POLYLINE
8
C1
66
1
70
1
0
VERTEX
8
C1
10
0.0
20
-61.2
40
0.08
41
0.08
0
VERTEX
8
C1
10
0.0
20
-64.2
40
0.08
41
0.08
0
SEQEND
0
POLYLINE
8
C1
66
1
70
1
0
VERTEX
8
C1
10
0.0
20
61.2
40
0.08
41
0.08
0
VERTEX
8
C1
10
0.0
20
64.2
40
0.08
41
0.08
0
SEQEND
0
POLYLINE
8
C1
66
1
70
1
0
VERTEX
8
C1
10
5.853658536585371
20
-61.2
40
0.08
41
0.08
0
VERTEX
8
C1
10
5.853658536585371
20
-64.2
40
0.08
41
0.08
0
SEQEND
0
POLYLINE
8
C1
66
1
70
1
0
VERTEX
8
C1
10
5.853658536585371
20
61.2
40
0.08
41
0.08
0
VERTEX
8
C1
10
5.853658536585371
20
64.2
40
0.08
41
0.08
0
SEQEND
0
POLYLINE
8
C1
66
1
70
1
0
VERTEX
8
C1
10
11.707317073170742
20
-61.2
40
0.08
41
0.08
0
VERTEX
8
C1
10
11.707317073170742
20
-64.2
40
0.08
41
0.08
0
SEQEND
0
POLYLINE
8
C1
66
1
70
1
0
VERTEX
8
C1
10
11.707317073170742
20
61.2
40
0.08
41
0.08
0
VERTEX
8
C1
10
11.707317073170742
20
64.2
40
0.08
41
0.08
0
SEQEND
0
POLYLINE
8
C1
66
1
70
1
0
VERTEX
8
C1
10
17.560975609756085
20
-61.2
40
0.08
41
0.08
0
VERTEX
8
C1
10
17.560975609756085
20
-64.2
40
0.08
41
0.08
0
SEQEND
0
POLYLINE
8
C1
66
1
70
1
0
VERTEX
8
C1
10
17.560975609756085
20
61.2
40
0.08
41
0.08
0
VERTEX
8
C1
10
17.560975609756085
20
64.2
40
0.08
41
0.08
0
SEQEND
0
POLYLINE
8
C1
66
1
70
1
0
VERTEX
8
C1
10
23.41463414634147
20
-61.2
40
0.08
41
0.08
0
VERTEX
8
C1
10
23.41463414634147
20
-64.2
40
0.08
41
0.08
0
SEQEND
0
POLYLINE
8
C1
66
1
70
1
0
VERTEX
8
C1
10
23.41463414634147
20
61.2
40
0.08
41
0.08
0
VERTEX
8
C1
10
23.41463414634147
20
64.2
40
0.08
41
0.08
0
SEQEND
0
POLYLINE
8
C1
66
1
70
1
0
VERTEX
8
C1
10
29.268292682926827
20
-61.2
40
0.08
41
0.08
0
VERTEX
8
C1
10
29.268292682926827
20
-64.2
40
0.08
41
0.08
0
SEQEND
0
POLYLINE
8
C1
66
1
70
1
0
VERTEX
8
C1
10
29.268292682926827
20
61.2
40
0.08
41
0.08
0
VERTEX
8
C1
10
29.268292682926827
20
64.2
40
0.08
41
0.08
0
SEQEND
0
POLYLINE
8
C1
66
1
70
1
0
VERTEX
8
C1
10
35.121951219512184
20
-61.2
40
0.08
41
0.08
0
VERTEX
8
C1
10
35.121951219512184
20
-64.2
40
0.08
41
0.08
0
SEQEND
0
POLYLINE
8
C1
66
1
70
1
0
VERTEX
8
C1
10
35.121951219512184
20
61.2
40
0.08
41
0.08
0
VERTEX
8
C1
10
35.121951219512184
20
64.2
40
0.08
41
0.08
0
SEQEND
0
POLYLINE
8
C1
66
1
70
1
0
VERTEX
8
C1
10
40.97560975609757
20
-61.2
40
0.08
41
0.08
0
VERTEX
8
C1
10
40.97560975609757
20
-64.2
40
0.08
41
0.08
0
SEQEND
0
POLYLINE
8
C1
66
1
70
1
0
VERTEX
8
C1
10
40.97560975609757
20
61.2
40
0.08
41
0.08
0
VERTEX
8
C1
10
40.97560975609757
20
64.2
40
0.08
41
0.08
0
SEQEND
0
POLYLINE
8
C1
66
1
70
1
0
VERTEX
8
C1
10
46.829268292682926
20
-61.2
40
0.08
41
0.08
0
VERTEX
8
C1
10
46.829268292682926
20
-64.2
40
0.08
41
0.08
0
SEQEND
0
POLYLINE
8
C1
66
1
70
1
0
VERTEX
8
C1
10
46.829268292682926
20
61.2
40
0.08
41
0.08
0
VERTEX
8
C1
10
46.829268292682926
20
64.2
40
0.08
41
0.08
0
SEQEND
0
POLYLINE
8
C1
66
1
70
1
0
VERTEX
8
C1
10
52.68292682926828
20
-61.2
40
0.08
41
0.08
0
VERTEX
8
C1
10
52.68292682926828
20
-64.2
40
0.08
41
0.08
0
SEQEND
0
POLYLINE
8
C1
66
1
70
1
0
VERTEX
8
C1
10
52.68292682926828
20
61.2
40
0.08
41
0.08
0
VERTEX
8
C1
10
52.68292682926828
20
64.2
40
0.08
41
0.08
0
SEQEND
0
POLYLINE
8
C1
66
1
70
1
0
VERTEX
8
C1
10
58.53658536585367
20
-61.2
40
0.08
41
0.08
0
VERTEX
8
C1
10
58.53658536585367
20
-64.2
40
0.08
41
0.08
0
SEQEND
0
POLYLINE
8
C1
66
1
70
1
0
VERTEX
8
C1
10
58.53658536585367
20
61.2
40
0.08
41
0.08
0
VERTEX
8
C1
10
58.53658536585367
20
64.2
40
0.08
41
0.08
0
SEQEND
0
POLYLINE
8
C1
66
1
70
1
0
VERTEX
8
C1
10
-61.2
20
-58.90243902439025
40
0.08
41
0.08
0
VERTEX
8
C1
10
-64.2
20
-58.90243902439025
40
0.08
41
0.08
0
SEQEND
0
POLYLINE
8
C1
66
1
70
1
0
VERTEX
8
C1
10
61.2
20
-58.90243902439025
40
0.08
41
0.08
0
VERTEX
8
C1
10
64.2
20
-58.90243902439025
40
0.08
41
0.08
0
SEQEND
0
POLYLINE
8
C1
66
1
70
1
0
VERTEX
8
C1
10
-61.2
20
-53.78048780487805
40
0.08
41
0.08
0
VERTEX
8
C1
10
-64.2
20
-53.78048780487805
40
0.08
41
0.08
0
SEQEND
0
POLYLINE
8
C1
66
1
70
1
0
VERTEX
8
C1
10
61.2
20
-53.78048780487805
40
0.08
41
0.08
0
VERTEX
8
C1
10
64.2
20
-53.78048780487805
40
0.08
41
0.08
0
SEQEND
0
POLYLINE
8
C1
66
1
70
1
0
VERTEX
8
C1
10
-61.2
20
-48.65853658536586
40
0.08
41
0.08
0
VERTEX
8
C1
10
-64.2
20
-48.65853658536586
40
0.08
41
0.08
0
SEQEND
0
POLYLINE
8
C1
66
1
70
1
0
VERTEX
8
C1
10
61.2
20
-48.65853658536586
40
0.08
41
0.08
0
VERTEX
8
C1
10
64.2
20
-48.65853658536586
40
0.08
41
0.08
0
SEQEND
0
POLYLINE
8
C1
66
1
70
1
0
VERTEX
8
C1
10
-61.2
20
-43.53658536585367
40
0.08
41
0.08
0
VERTEX
8
C1
10
-64.2
20
-43.53658536585367
40
0.08
41
0.08
0
SEQEND
0
POLYLINE
8
C1
66
1
70
1
0
VERTEX
8
C1
10
61.2
20
-43.53658536585367
40
0.08
41
0.08
0
VERTEX
8
C1
10
64.2
20
-43.53658536585367
40
0.08
41
0.08
0
SEQEND
0
POLYLINE
8
C1
66
1
70
1
0
VERTEX
8
C1
10
-61.2
20
-38.41463414634147
40
0.08
41
0.08
0
VERTEX
8
C1
10
-64.2
20
-38.41463414634147
40
0.08
41
0.08
0
SEQEND
0
POLYLINE
8
C1
66
1
70
1
0
VERTEX
8
C1
10
61.2
20
-38.41463414634147
40
0.08
41
0.08
0
VERTEX
8
C1
10
64.2
20
-38.41463414634147
40
0.08
41
0.08
0
SEQEND
0
POLYLINE
8
C1
66
1
70
1
0
VERTEX
8
C1
10
-61.2
20
-33.29268292682927
40
0.08
41
0.08
0
VERTEX
8
C1
10
-64.2
20
-33.29268292682927
40
0.08
41
0.08
0
SEQEND
0
POLYLINE
8
C1
66
1
70
1
0
VERTEX
8
C1
10
61.2
20
-33.29268292682927
40
0.08
41
0.08
0
VERTEX
8
C1
10
64.2
20
-33.29268292682927
40
0.08
41
0.08
0
SEQEND
0
POLYLINE
8
C1
66
1
70
1
0
VERTEX
8
C1
10
-61.2
20
-28.170731707317074
40
0.08
41
0.08
0
VERTEX
8
C1
10
-64.2
20
-28.170731707317074
40
0.08
41
0.08
0
SEQEND
0
POLYLINE
8
C1
66
1
70
1
0
VERTEX
8
C1
10
61.2
20
-28.170731707317074
40
0.08
41
0.08
0
VERTEX
8
C1
10
64.2
20
-28.170731707317074
40
0.08
41
0.08
0
SEQEND
0
POLYLINE
8
C1
66
1
70
1
0
VERTEX
8
C1
10
-61.2
20
-23.048780487804876
40
0.08
41
0.08
0
VERTEX
8
C1
10
-64.2
20
-23.048780487804876
40
0.08
41
0.08
0
SEQEND
0
POLYLINE
8
C1
66
1
70
1
0
VERTEX
8
C1
10
61.2
20
-23.048780487804876
40
0.08
41
0.08
0
VERTEX
8
C1
10
64.2
20
-23.048780487804876
40
0.08
41
0.08
0
SEQEND
0
POLYLINE
8
C1
66
1
70
1
0
VERTEX
8
C1
10
-61.2
20
-17.92682926829268
40
0.08
41
0.08
0
VERTEX
8
C1
10
-64.2
20
-17.92682926829268
40
0.08
41
0.08
0
SEQEND
0
POLYLINE
8
C1
66
1
70
1
0
VERTEX
8
C1
10
61.2
20
-17.92682926829268
40
0.08
41
0.08
0
VERTEX
8
C1
10
64.2
20
-17.92682926829268
40
0.08
41
0.08
0
SEQEND
0
POLYLINE
8
C1
66
1
70
1
0
VERTEX
8
C1
10
-61.2
20
-12.80487804878048
40
0.08
41
0.08
0
VERTEX
8
C1
10
-64.2
20
-12.80487804878048
40
0.08
41
0.08
0
SEQEND
0
POLYLINE
8
C1
66
1
70
1
0
VERTEX
8
C1
10
61.2
20
-12.80487804878048
40
0.08
41
0.08
0
VERTEX
8
C1
10
64.2
20
-12.80487804878048
40
0.08
41
0.08
0
SEQEND
0
POLYLINE
8
C1
66
1
70
1
0
VERTEX
8
C1
10
-61.2
20
-7.682926829268297
40
0.08
41
0.08
0
VERTEX
8
C1
10
-64.2
20
-7.682926829268297
40
0.08
41
0.08
0
SEQEND
0
POLYLINE
8
C1
66
1
70
1
0
VERTEX
8
C1
10
61.2
20
-7.682926829268297
40
0.08
41
0.08
0
VERTEX
8
C1
10
64.2
20
-7.682926829268297
40
0.08
41
0.08
0
SEQEND
0
POLYLINE
8
C1
66
1
70
1
0
VERTEX
8
C1
10
-61.2
20
-2.560975609756099
40
0.08
41
0.08
0
VERTEX
8
C1
10
-64.2
20
-2.560975609756099
40
0.08
41
0.08
0
SEQEND
0
POLYLINE
8
C1
66
1
70
1
0
VERTEX
8
C1
10
61.2
20
-2.560975609756099
40
0.08
41
0.08
0
VERTEX
8
C1
10
64.2
20
-2.560975609756099
40
0.08
41
0.08
0
SEQEND
0
POLYLINE
8
C1
66
1
70
1
0
VERTEX
8
C1
10
-61.2
20
2.560975609756099
40
0.08
41
0.08
0
VERTEX
8
C1
10
-64.2
20
2.560975609756099
40
0.08
41
0.08
0
SEQEND
0
POLYLINE
8
C1
66
1
70
1
0
VERTEX
8
C1
10
61.2
20
2.560975609756099
40
0.08
41
0.08
0
VERTEX
8
C1
10
64.2
20
2.560975609756099
40
0.08
41
0.08
0
SEQEND
0
POLYLINE
8
C1
66
1
70
1
0
VERTEX
8
C1
10
-61.2
20
7.682926829268297
40
0.08
41
0.08
0
VERTEX
8
C1
10
-64.2
20
7.682926829268297
40
0.08
41
0.08
0
SEQEND
0
POLYLINE
8
C1
66
1
70
1
0
VERTEX
8
C1
10
61.2
20
7.682926829268297
40
0.08
41
0.08
0
VERTEX
8
C1
10
64.2
20
7.682926829268297
40
0.08
41
0.08
0
SEQEND
0
POLYLINE
8
C1
66
1
70
1
0
VERTEX
8
C1
10
-61.2
20
12.80487804878048
40
0.08
41
0.08
0
VERTEX
8
C1
10
-64.2
20
12.80487804878048
40
0.08
41
0.08
0
SEQEND
0
POLYLINE
8
C1
66
1
70
1
0
VERTEX
8
C1
10
61.2
20
12.80487804878048
40
0.08
41
0.08
0
VERTEX
8
C1
10
64.2
20
12.80487804878048
40
0.08
41
0.08
0
SEQEND
0
POLYLINE
8
C1
66
1
70
1
0
VERTEX
8
C1
10
-61.2
20
17.92682926829268
40
0.08
41
0.08
0
VERTEX
8
C1
10
-64.2
20
17.92682926829268
40
0.08
41
0.08
0
SEQEND
0
POLYLINE
8
C1
66
1
70
1
0
VERTEX
8
C1
10
61.2
20
17.92682926829268
40
0.08
41
0.08
0
VERTEX
8
C1
10
64.2
20
17.92682926829268
40
0.08
41
0.08
0
SEQEND
0
POLYLINE
8
C1
66
1
70
1
0
VERTEX
8
C1
10
-61.2
20
23.048780487804876
40
0.08
41
0.08
0
VERTEX
8
C1
10
-64.2
20
23.048780487804876
40
0.08
41
0.08
0
SEQEND
0
POLYLINE
8
C1
66
1
70
1
0
VERTEX
8
C1
10
61.2
20
23.048780487804876
40
0.08
41
0.08
0
VERTEX
8
C1
10
64.2
20
23.048780487804876
40
0.08
41
0.08
0
SEQEND
0
POLYLINE
8
C1
66
1
70
1
0
VERTEX
8
C1
10
-61.2
20
28.170731707317074
40
0.08
41
0.08
0
VERTEX
8
C1
10
-64.2
20
28.170731707317074
40
0.08
41
0.08
0
SEQEND
0
POLYLINE
8
C1
66
1
70
1
0
VERTEX
8
C1
10
61.2
20
28.170731707317074
40
0.08
41
0.08
0
VERTEX
8
C1
10
64.2
20
28.170731707317074
40
0.08
41
0.08
0
SEQEND
0
POLYLINE
8
C1
66
1
70
1
0
VERTEX
8
C1
10
-61.2
20
33.29268292682927
40
0.08
41
0.08
0
VERTEX
8
C1
10
-64.2
20
33.29268292682927
40
0.08
41
0.08
0
SEQEND
0
POLYLINE
8
C1
66
1
70
1
0
VERTEX
8
C1
10
61.2
20
33.29268292682927
40
0.08
41
0.08
0
VERTEX
8
C1
10
64.2
20
33.29268292682927
40
0.08
41
0.08
0
SEQEND
0
POLYLINE
8
C1
66
1
70
1
0
VERTEX
8
C1
10
-61.2
20
38.41463414634147
40
0.08
41
0.08
0
VERTEX
8
C1
10
-64.2
20
38.41463414634147
40
0.08
41
0.08
0
SEQEND
0
POLYLINE
8
C1
66
1
70
1
0
VERTEX
8
C1
10
61.2
20
38.41463414634147
40
0.08
41
0.08
0
VERTEX
8
C1
10
64.2
20
38.41463414634147
40
0.08
41
0.08
0
SEQEND
0
POLYLINE
8
C1
66
1
70
1
0
VERTEX
8
C1
10
-61.2
20
43.53658536585367
40
0.08
41
0.08
0
VERTEX
8
C1
10
-64.2
20
43.53658536585367
40
0.08
41
0.08
0
SEQEND
0
POLYLINE
8
C1
66
1
70
1
0
VERTEX
8
C1
10
61.2
20
43.53658536585367
40
0.08
41
0.08
0
VERTEX
8
C1
10
64.2
20
43.53658536585367
40
0.08
41
0.08
0
SEQEND
0
POLYLINE
8
C1
66
1
70
1
0
VERTEX
8
C1
10
-61.2
20
48.658536585365866
40
0.08
41
0.08
0
VERTEX
8
C1
10
-64.2
20
48.658536585365866
40
0.08
41
0.08
0
SEQEND
0
POLYLINE
8
C1
66
1
70
1
0
VERTEX
8
C1
10
61.2
20
48.658536585365866
40
0.08
41
0.08
0
VERTEX
8
C1
10
64.2
20
48.658536585365866
40
0.08
41
0.08
0
SEQEND
0
POLYLINE
8
C1
66
1
70
1
0
VERTEX
8
C1
10
-61.2
20
53.780487804878064
40
0.08
41
0.08
0
VERTEX
8
C1
10
-64.2
20
53.780487804878064
40
0.08
41
0.08
0
SEQEND
0
POLYLINE
8
C1
66
1
70
1
0
VERTEX
8
C1
10
61.2
20
53.780487804878064
40
0.08
41
0.08
0
VERTEX
8
C1
10
64.2
20
53.780487804878064
40
0.08
41
0.08
0
SEQEND
0
POLYLINE
8
C1
66
1
70
1
0
VERTEX
8
C1
10
-61.2
20
58.90243902439026
40
0.08
41
0.08
0
VERTEX
8
C1
10
-64.2
20
58.90243902439026
40
0.08
41
0.08
0
SEQEND
0
POLYLINE
8
C1
66
1
70
1
0
VERTEX
8
C1
10
61.2
20
58.90243902439026
40
0.08
41
0.08
0
VERTEX
8
C1
10
64.2
20
58.90243902439026
40
0.08
41
0.08
0
SEQEND
0
INSERT
2
cutlineendpoint
8
C1
10
-64.46966991411009
20
-64.46966991411009
0
INSERT
2
cutlineendpoint
8
C1
10
-65.53033008588991
20
-65.53033008588991
0
INSERT
2
cutlineendpoint
8
C1
10
-64.46966991411009
20
-65.53033008588991
0
INSERT
2
cutlineendpoint
8
C1
10
-65.53033008588991
20
-64.46966991411009
0
INSERT
2
cutlineendpoint
8
C1
10
-64.46966991411009
20
65.53033008588993
0
INSERT
2
cutlineendpoint
8
C1
10
-65.53033008588991
20
64.4696699141101
0
INSERT
2
cutlineendpoint
8
C1
10
-64.46966991411009
20
64.4696699141101
0
INSERT
2
cutlineendpoint
8
C1
10
-65.53033008588991
20
65.53033008588993
0
INSERT
2
cutlineendpoint
8
C1
10
65.53033008588993
20
65.53033008588993
0
INSERT
2
cutlineendpoint
8
C1
10
64.4696699141101
20
64.4696699141101
0
INSERT
2
cutlineendpoint
8
C1
10
65.53033008588993
20
64.4696699141101
0
INSERT
2
cutlineendpoint
8
C1
10
64.4696699141101
20
65.53033008588993
0
INSERT
2
cutlineendpoint
8
C1
10
65.74999999999999
20
-65.0
0
INSERT
2
cutlineendpoint
8
C1
10
64.24999999999999
20
-65.0
0
INSERT
2
cutlineendpoint
8
C1
10
64.99999999999999
20
-64.25
0
INSERT
2
cutlineendpoint
8
C1
10
64.99999999999999
20
-65.75
0
INSERT
2
cutlineendpoint
8
C1
10
-58.536585365853654
20
-61.2
0
INSERT
2
cutlineendpoint
8
C1
10
-58.536585365853654
20
61.2
0
INSERT
2
cutlineendpoint
8
C1
10
-58.536585365853654
20
-64.2
0
INSERT
2
cutlineendpoint
8
C1
10
-58.536585365853654
20
64.2
0
INSERT
2
cutlineendpoint
8
C1
10
-52.68292682926829
20
-61.2
0
INSERT
2
cutlineendpoint
8
C1
10
-52.68292682926829
20
61.2
0
INSERT
2
cutlineendpoint
8
C1
10
-52.68292682926829
20
-64.2
0
INSERT
2
cutlineendpoint
8
C1
10
-52.68292682926829
20
64.2
0
INSERT
2
cutlineendpoint
8
C1
10
-46.829268292682926
20
-61.2
0
INSERT
2
cutlineendpoint
8
C1
10
-46.829268292682926
20
61.2
0
INSERT
2
cutlineendpoint
8
C1
10
-46.829268292682926
20
-64.2
0
INSERT
2
cutlineendpoint
8
C1
10
-46.829268292682926
20
64.2
0
INSERT
2
cutlineendpoint
8
C1
10
-40.975609756097555
20
-61.2
0
INSERT
2
cutlineendpoint
8
C1
10
-40.975609756097555
20
61.2
0
INSERT
2
cutlineendpoint
8
C1
10
-40.975609756097555
20
-64.2
0
INSERT
2
cutlineendpoint
8
C1
10
-40.975609756097555
20
64.2
0
INSERT
2
cutlineendpoint
8
C1
10
-35.121951219512184
20
-61.2
0
INSERT
2
cutlineendpoint
8
C1
10
-35.121951219512184
20
61.2
0
INSERT
2
cutlineendpoint
8
C1
10
-35.121951219512184
20
-64.2
0
INSERT
2
cutlineendpoint
8
C1
10
-35.121951219512184
20
64.2
0
INSERT
2
cutlineendpoint
8
C1
10
-29.268292682926827
20
-61.2
0
INSERT
2
cutlineendpoint
8
C1
10
-29.268292682926827
20
61.2
0
INSERT
2
cutlineendpoint
8
C1
10
-29.268292682926827
20
-64.2
0
INSERT
2
cutlineendpoint
8
C1
10
-29.268292682926827
20
64.2
0
INSERT
2
cutlineendpoint
8
C1
10
-23.414634146341456
20
-61.2
0
INSERT
2
cutlineendpoint
8
C1
10
-23.414634146341456
20
61.2
0
INSERT
2
cutlineendpoint
8
C1
10
-23.414634146341456
20
-64.2
0
INSERT
2
cutlineendpoint
8
C1
10
-23.414634146341456
20
64.2
0
INSERT
2
cutlineendpoint
8
C1
10
-17.560975609756085
20
-61.2
0
INSERT
2
cutlineendpoint
8
C1
10
-17.560975609756085
20
61.2
0
INSERT
2
cutlineendpoint
8
C1
10
-17.560975609756085
20
-64.2
0
INSERT
2
cutlineendpoint
8
C1
10
-17.560975609756085
20
64.2
0
INSERT
2
cutlineendpoint
8
C1
10
-11.707317073170728
20
-61.2
0
INSERT
2
cutlineendpoint
8
C1
10
-11.707317073170728
20
61.2
0
INSERT
2
cutlineendpoint
8
C1
10
-11.707317073170728
20
-64.2
0
INSERT
2
cutlineendpoint
8
C1
10
-11.707317073170728
20
64.2
0
INSERT
2
cutlineendpoint
8
C1
10
-5.853658536585371
20
-61.2
0
INSERT
2
cutlineendpoint
8
C1
10
-5.853658536585371
20
61.2
0
INSERT
2
cutlineendpoint
8
C1
10
-5.853658536585371
20
-64.2
0
INSERT
2
cutlineendpoint
8
C1
10
-5.853658536585371
20
64.2
0
INSERT
2
cutlineendpoint
8
C1
10
0.0
20
-61.2
0
INSERT
2
cutlineendpoint
8
C1
10
0.0
20
61.2
0
INSERT
2
cutlineendpoint
8
C1
10
0.0
20
-64.2
0
INSERT
2
cutlineendpoint
8
C1
10
0.0
20
64.2
0
INSERT
2
cutlineendpoint
8
C1
10
5.853658536585371
20
-61.2
0
INSERT
2
cutlineendpoint
8
C1
10
5.853658536585371
20
61.2
0
INSERT
2
cutlineendpoint
8
C1
10
5.853658536585371
20
-64.2
0
INSERT
2
cutlineendpoint
8
C1
10
5.853658536585371
20
64.2
0
INSERT
2
cutlineendpoint
8
C1
10
11.707317073170742
20
-61.2
0
INSERT
2
cutlineendpoint
8
C1
10
11.707317073170742
20
61.2
0
INSERT
2
cutlineendpoint
8
C1
10
11.707317073170742
20
-64.2
0
INSERT
2
cutlineendpoint
8
C1
10
11.707317073170742
20
64.2
0
INSERT
2
cutlineendpoint
8
C1
10
17.560975609756085
20
-61.2
0
INSERT
2
cutlineendpoint
8
C1
10
17.560975609756085
20
61.2
0
INSERT
2
cutlineendpoint
8
C1
10
17.560975609756085
20
-64.2
0
INSERT
2
cutlineendpoint
8
C1
10
17.560975609756085
20
64.2
0
INSERT
2
cutlineendpoint
8
C1
10
23.41463414634147
20
-61.2
0
INSERT
2
cutlineendpoint
8
C1
10
23.41463414634147
20
61.2
0
INSERT
2
cutlineendpoint
8
C1
10
23.41463414634147
20
-64.2
0
INSERT
2
cutlineendpoint
8
C1
10
23.41463414634147
20
64.2
0
INSERT
2
cutlineendpoint
8
C1
10
29.268292682926827
20
-61.2
0
INSERT
2
cutlineendpoint
8
C1
10
29.268292682926827
20
61.2
0
INSERT
2
cutlineendpoint
8
C1
10
29.268292682926827
20
-64.2
0
INSERT
2
cutlineendpoint
8
C1
10
29.268292682926827
20
64.2
0
INSERT
2
cutlineendpoint
8
C1
10
35.121951219512184
20
-61.2
0
INSERT
2
cutlineendpoint
8
C1
10
35.121951219512184
20
61.2
0
INSERT
2
cutlineendpoint
8
C1
10
35.121951219512184
20
-64.2
0
INSERT
2
cutlineendpoint
8
C1
10
35.121951219512184
20
64.2
0
INSERT
2
cutlineendpoint
8
C1
10
40.97560975609757
20
-61.2
0
INSERT
2
cutlineendpoint
8
C1
10
40.97560975609757
20
61.2
0
INSERT
2
cutlineendpoint
8
C1
10
40.97560975609757
20
-64.2
0
INSERT
2
cutlineendpoint
8
C1
10
40.97560975609757
20
64.2
0
INSERT
2
cutlineendpoint
8
C1
10
46.829268292682926
20
-61.2
0
INSERT
2
cutlineendpoint
8
C1
10
46.829268292682926
20
61.2
0
INSERT
2
cutlineendpoint
8
C1
10
46.829268292682926
20
-64.2
0
INSERT
2
cutlineendpoint
8
C1
10
46.829268292682926
20
64.2
0
INSERT
2
cutlineendpoint
8
C1
10
52.68292682926828
20
-61.2
0
INSERT
2
cutlineendpoint
8
C1
10
52.68292682926828
20
61.2
0
INSERT
2
cutlineendpoint
8
C1
10
52.68292682926828
20
-64.2
0
INSERT
2
cutlineendpoint
8
C1
10
52.68292682926828
20
64.2
0
INSERT
2
cutlineendpoint
8
C1
10
58.53658536585367
20
-61.2
0
INSERT
2
cutlineendpoint
8
C1
10
58.53658536585367
20
61.2
0
INSERT
2
cutlineendpoint
8
C1
10
58.53658536585367
20
-64.2
0
INSERT
2
cutlineendpoint
8
C1
10
58.53658536585367
20
64.2
0
INSERT
2
cutlineendpoint
8
C1
10
-61.2
20
-58.90243902439025
0
INSERT
2
cutlineendpoint
8
C1
10
61.2
20
-58.90243902439025
0
INSERT
2
cutlineendpoint
8
C1
10
-64.2
20
-58.90243902439025
0
INSERT
2
cutlineendpoint
8
C1
10
64.2
20
-58.90243902439025
0
INSERT
2
cutlineendpoint
8
C1
10
-61.2
20
-53.78048780487805
0
INSERT
2
cutlineendpoint
8
C1
10
61.2
20
-53.78048780487805
0
INSERT
2
cutlineendpoint
8
C1
10
-64.2
20
-53.78048780487805
0
INSERT
2
cutlineendpoint
8
C1
10
64.2
20
-53.78048780487805
0
INSERT
2
cutlineendpoint
8
C1
10
-61.2
20
-48.65853658536586
0
INSERT
2
cutlineendpoint
8
C1
10
61.2
20
-48.65853658536586
0
INSERT
2
cutlineendpoint
8
C1
10
-64.2
20
-48.65853658536586
0
INSERT
2
cutlineendpoint
8
C1
10
64.2
20
-48.65853658536586
0
INSERT
2
cutlineendpoint
8
C1
10
-61.2
20
-43.53658536585367
0
INSERT
2
cutlineendpoint
8
C1
10
61.2
20
-43.53658536585367
0
INSERT
2
cutlineendpoint
8
C1
10
-64.2
20
-43.53658536585367
0
INSERT
2
cutlineendpoint
8
C1
10
64.2
20
-43.53658536585367
0
INSERT
2
cutlineendpoint
8
C1
10
-61.2
20
-38.41463414634147
0
INSERT
2
cutlineendpoint
8
C1
10
61.2
20
-38.41463414634147
0
INSERT
2
cutlineendpoint
8
C1
10
-64.2
20
-38.41463414634147
0
INSERT
2
cutlineendpoint
8
C1
10
64.2
20
-38.41463414634147
0
INSERT
2
cutlineendpoint
8
C1
10
-61.2
20
-33.29268292682927
0
INSERT
2
cutlineendpoint
8
C1
10
61.2
20
-33.29268292682927
0
INSERT
2
cutlineendpoint
8
C1
10
-64.2
20
-33.29268292682927
0
INSERT
2
cutlineendpoint
8
C1
10
64.2
20
-33.29268292682927
0
INSERT
2
cutlineendpoint
8
C1
10
-61.2
20
-28.170731707317074
0
INSERT
2
cutlineendpoint
8
C1
10
61.2
20
-28.170731707317074
0
INSERT
2
cutlineendpoint
8
C1
10
-64.2
20
-28.170731707317074
0
INSERT
2
cutlineendpoint
8
C1
10
64.2
20
-28.170731707317074
0
INSERT
2
cutlineendpoint
8
C1
10
-61.2
20
-23.048780487804876
0
INSERT
2
cutlineendpoint
8
C1
10
61.2
20
-23.048780487804876
0
INSERT
2
cutlineendpoint
8
C1
10
-64.2
20
-23.048780487804876
0
INSERT
2
cutlineendpoint
8
C1
10
64.2
20
-23.048780487804876
0
INSERT
2
cutlineendpoint
8
C1
10
-61.2
20
-17.92682926829268
0
INSERT
2
cutlineendpoint
8
C1
10
61.2
20
-17.92682926829268
0
INSERT
2
cutlineendpoint
8
C1
10
-64.2
20
-17.92682926829268
0
INSERT
2
cutlineendpoint
8
C1
10
64.2
20
-17.92682926829268
0
INSERT
2
cutlineendpoint
8
C1
10
-61.2
20
-12.80487804878048
0
INSERT
2
cutlineendpoint
8
C1
10
61.2
20
-12.80487804878048
0
INSERT
2
cutlineendpoint
8
C1
10
-64.2
20
-12.80487804878048
0
INSERT
2
cutlineendpoint
8
C1
10
64.2
20
-12.80487804878048
0
INSERT
2
cutlineendpoint
8
C1
10
-61.2
20
-7.682926829268297
0
INSERT
2
cutlineendpoint
8
C1
10
61.2
20
-7.682926829268297
0
INSERT
2
cutlineendpoint
8
C1
10
-64.2
20
-7.682926829268297
0
INSERT
2
cutlineendpoint
8
C1
10
64.2
20
-7.682926829268297
0
INSERT
2
cutlineendpoint
8
C1
10
-61.2
20
-2.560975609756099
0
INSERT
2
cutlineendpoint
8
C1
10
61.2
20
-2.560975609756099
0
INSERT
2
cutlineendpoint
8
C1
10
-64.2
20
-2.560975609756099
0
INSERT
2
cutlineendpoint
8
C1
10
64.2
20
-2.560975609756099
0
INSERT
2
cutlineendpoint
8
C1
10
-61.2
20
2.560975609756099
0
INSERT
2
cutlineendpoint
8
C1
10
61.2
20
2.560975609756099
0
INSERT
2
cutlineendpoint
8
C1
10
-64.2
20
2.560975609756099
0
INSERT
2
cutlineendpoint
8
C1
10
64.2
20
2.560975609756099
0
INSERT
2
cutlineendpoint
8
C1
10
-61.2
20
7.682926829268297
0
INSERT
2
cutlineendpoint
8
C1
10
61.2
20
7.682926829268297
0
INSERT
2
cutlineendpoint
8
C1
10
-64.2
20
7.682926829268297
0
INSERT
2
cutlineendpoint
8
C1
10
64.2
20
7.682926829268297
0
INSERT
2
cutlineendpoint
8
C1
10
-61.2
20
12.80487804878048
0
INSERT
2
cutlineendpoint
8
C1
10
61.2
20
12.80487804878048
0
INSERT
2
cutlineendpoint
8
C1
10
-64.2
20
12.80487804878048
0
INSERT
2
cutlineendpoint
8
C1
10
64.2
20
12.80487804878048
0
INSERT
2
cutlineendpoint
8
C1
10
-61.2
20
17.92682926829268
0
INSERT
2
cutlineendpoint
8
C1
10
61.2
20
17.92682926829268
0
INSERT
2
cutlineendpoint
8
C1
10
-64.2
20
17.92682926829268
0
INSERT
2
cutlineendpoint
8
C1
10
64.2
20
17.92682926829268
0
INSERT
2
cutlineendpoint
8
C1
10
-61.2
20
23.048780487804876
0
INSERT
2
cutlineendpoint
8
C1
10
61.2
20
23.048780487804876
0
INSERT
2
cutlineendpoint
8
C1
10
-64.2
20
23.048780487804876
0
INSERT
2
cutlineendpoint
8
C1
10
64.2
20
23.048780487804876
0
INSERT
2
cutlineendpoint
8
C1
10
-61.2
20
28.170731707317074
0
INSERT
2
cutlineendpoint
8
C1
10
61.2
20
28.170731707317074
0
INSERT
2
cutlineendpoint
8
C1
10
-64.2
20
28.170731707317074
0
INSERT
2
cutlineendpoint
8
C1
10
64.2
20
28.170731707317074
0
INSERT
2
cutlineendpoint
8
C1
10
-61.2
20
33.29268292682927
0
INSERT
2
cutlineendpoint
8
C1
10
61.2
20
33.29268292682927
0
INSERT
2
cutlineendpoint
8
C1
10
-64.2
20
33.29268292682927
0
INSERT
2
cutlineendpoint
8
C1
10
64.2
20
33.29268292682927
0
INSERT
2
cutlineendpoint
8
C1
10
-61.2
20
38.41463414634147
0
INSERT
2
cutlineendpoint
8
C1
10
61.2
20
38.41463414634147
0
INSERT
2
cutlineendpoint
8
C1
10
-64.2
20
38.41463414634147
0
INSERT
2
cutlineendpoint
8
C1
10
64.2
20
38.41463414634147
0
INSERT
2
cutlineendpoint
8
C1
10
-61.2
20
43.53658536585367
0
INSERT
2
cutlineendpoint
8
C1
10
61.2
20
43.53658536585367
0
INSERT
2
cutlineendpoint
8
C1
10
-64.2
20
43.53658536585367
0
INSERT
2
cutlineendpoint
8
C1
10
64.2
20
43.53658536585367
0
INSERT
2
cutlineendpoint
8
C1
10
-61.2
20
48.658536585365866
0
INSERT
2
cutlineendpoint
8
C1
10
61.2
20
48.658536585365866
0
INSERT
2
cutlineendpoint
8
C1
10
-64.2
20
48.658536585365866
0
INSERT
2
cutlineendpoint
8
C1
10
64.2
20
48.658536585365866
0
INSERT
2
cutlineendpoint
8
C1
10
-61.2
20
53.780487804878064
0
INSERT
2
cutlineendpoint
8
C1
10
61.2
20
53.780487804878064
0
INSERT
2
cutlineendpoint
8
C1
10
-64.2
20
53.780487804878064
0
INSERT
2
cutlineendpoint
8
C1
10
64.2
20
53.780487804878064
0
INSERT
2
cutlineendpoint
8
C1
10
-61.2
20
58.90243902439026
0
INSERT
2
cutlineendpoint
8
C1
10
61.2
20
58.90243902439026
0
INSERT
2
cutlineendpoint
8
C1
10
-64.2
20
58.90243902439026
0
INSERT
2
cutlineendpoint
8
C1
10
64.2
20
58.90243902439026
0
TEXT
8
C1
10
-10.5
20
69.7
40
1.5
1
XFB44-1600-011-C1
0
POLYLINE
8
C1
66
1
70
1
0
VERTEX
8
C1
10
-100.0
20
100.0
30
0
40
1
41
1
0
VERTEX
8
C1
10
100.0
20
100.0
30
0
40
1
41
1
0
VERTEX
8
C1
10
100.0
20
-100.0
30
0
40
1
41
1
0
VERTEX
8
C1
10
-100.0
20
-100.0
30
0
40
1
41
1
0
SEQEND
0
ENDSEC
0
EOF
