0
SECTION
2
HEADER
9
$ACADVER
1
AC1006
9
$INSBASE
10
0.0
20
0.0
30
0.0
9
$EXTMIN
10
-104.25365853658536
20
-104.25365853658536
9
$EXTMAX
10
104.25365853658536
20
116.93658536585366
0
ENDSEC
0
SECTION
2
TABLES
0
TABLE
2
LTYPE
70
1
0
LTYPE
2
CONTINUOUS
70
64
3
Solid line
72
65
73
0
40
0.0
0
ENDTAB
0
TABLE
2
LAYER
70
3
0
LAYER
2
0
70
0
62
255
6
continuous
0
LAYER
2
0
70
0
62
7
6
continuous
0
LAYER
2
P7
70
0
62
7
6
continuous
0
ENDTAB
0
TABLE
2
STYLE
70
2
0
STYLE
2
STANDARD
70
0
40
0
41
1
50
0
71
0
42
1
3
ARIAL.TTF
4

0
STYLE
2
STANDARD
70
0
40
0
41
1
50
0
71
0
42
1
3
ARIAL.TTF
4

0
ENDTAB
0
TABLE
2
VIEW
70
1
0
VIEW
2
Normal
70
0
40
1
10
0.5
20
0.5
41
1
11
0
21
0
31
1
12
0
22
0
32
0
42
50
43
0
44
0
50
0
71
0
0
ENDTAB
0
ENDSEC
0
SECTION
2
BLOCKS
0
BLOCK
8
0
2
cutlineendpoint
70
0
10
0
20
0
30
0
3
cutlineendpoint
0
POLYLINE
8
0
66
1
70
1
40
0.04
41
0.04
0
VERTEX
8
0
10
-0.02
20
0
30
0
42
1.0
0
VERTEX
8
0
10
0.02
20
0
30
0
42
1.0
0
SEQEND
0
ENDBLK
0
BLOCK
8
P7
2
LDI_XFB44-1600-011_P7_B1
70
0
10
0
20
0
30
0
3
LDI_XFB44-1600-011_P7_B1
0
CIRCLE
8
P7
10
-56.68732199057268
20
-56.34146341463415
40
0.04535
0
CIRCLE
8
P7
10
-56.97685845519646
20
-55.54828090880168
40
0.04535
0
CIRCLE
8
P7
10
-55.75392235927318
20
-55.55407076315758
40
0.04535
0
CIRCLE
8
P7
10
-56.68127424575691
20
-57.12885606611073
40
0.04535
0
CIRCLE
8
P7
10
-55.36011694309791
20
-56.91186460937261
40
0.04535
0
CIRCLE
8
P7
10
-56.38662820006208
20
-56.836173139281456
40
0.04535
0
CIRCLE
8
P7
10
-54.57045795000884
20
-57.13075880758809
40
0.04535
0
CIRCLE
8
P7
10
-55.50882078567143
20
-55.54928006680807
40
0.04535
0
CIRCLE
8
P7
10
-54.313013670311335
20
-57.13075880758808
40
0.04535
0
CIRCLE
8
P7
10
-54.67097024467959
20
-55.54349021245217
40
0.04535
0
CIRCLE
8
P7
10
-53.87661159054576
20
-56.33754026896494
40
0.04535
0
CIRCLE
8
P7
10
-54.541661516030956
20
-56.33754026896494
40
0.04535
0
CIRCLE
8
P7
10
-57.34290060457618
20
-56.34538656030336
40
0.04535
0
CIRCLE
8
P7
10
-54.89084751178407
20
-56.34146341463415
40
0.04535
0
CIRCLE
8
P7
10
-56.112526238722005
20
-56.34538656030336
40
0.04535
0
CIRCLE
8
P7
10
-55.4278506790909
20
-56.34538656030336
40
0.04535
0
CIRCLE
8
P7
10
-50.83366345398731
20
-56.34146341463415
40
0.04535
0
CIRCLE
8
P7
10
-51.12319991861111
20
-55.54828090880168
40
0.04535
0
CIRCLE
8
P7
10
-49.90026382268783
20
-55.55407076315758
40
0.04535
0
CIRCLE
8
P7
10
-50.82761570917157
20
-57.12885606611073
40
0.04535
0
CIRCLE
8
P7
10
-49.506458406512536
20
-56.91186460937261
40
0.04535
0
CIRCLE
8
P7
10
-50.53296966347673
20
-56.836173139281456
40
0.04535
0
CIRCLE
8
P7
10
-48.71679941342348
20
-57.13075880758809
40
0.04535
0
CIRCLE
8
P7
10
-49.655162249086054
20
-55.54928006680807
40
0.04535
0
CIRCLE
8
P7
10
-48.45935513372598
20
-57.13075880758808
40
0.04535
0
CIRCLE
8
P7
10
-48.81731170809422
20
-55.54349021245217
40
0.04535
0
CIRCLE
8
P7
10
-48.02295305396039
20
-56.33754026896494
40
0.04535
0
CIRCLE
8
P7
10
-48.6880029794456
20
-56.33754026896494
40
0.04535
0
CIRCLE
8
P7
10
-51.48924206799083
20
-56.34538656030336
40
0.04535
0
CIRCLE
8
P7
10
-49.0371889751987
20
-56.34146341463415
40
0.04535
0
CIRCLE
8
P7
10
-50.25886770213665
20
-56.34538656030336
40
0.04535
0
CIRCLE
8
P7
10
-49.57419214250554
20
-56.34538656030336
40
0.04535
0
CIRCLE
8
P7
10
-44.98000491740194
20
-56.34146341463415
40
0.04535
0
CIRCLE
8
P7
10
-45.269541382025736
20
-55.54828090880168
40
0.04535
0
CIRCLE
8
P7
10
-44.046605286102476
20
-55.55407076315758
40
0.04535
0
CIRCLE
8
P7
10
-44.97395717258618
20
-57.12885606611073
40
0.04535
0
CIRCLE
8
P7
10
-43.652799869927165
20
-56.91186460937261
40
0.04535
0
CIRCLE
8
P7
10
-44.67931112689135
20
-56.836173139281456
40
0.04535
0
CIRCLE
8
P7
10
-42.863140876838116
20
-57.13075880758809
40
0.04535
0
CIRCLE
8
P7
10
-43.80150371250069
20
-55.54928006680807
40
0.04535
0
CIRCLE
8
P7
10
-42.60569659714061
20
-57.13075880758808
40
0.04535
0
CIRCLE
8
P7
10
-42.96365317150885
20
-55.54349021245217
40
0.04535
0
CIRCLE
8
P7
10
-42.16929451737502
20
-56.33754026896494
40
0.04535
0
CIRCLE
8
P7
10
-42.83434444286024
20
-56.33754026896494
40
0.04535
0
CIRCLE
8
P7
10
-45.635583531405445
20
-56.34538656030336
40
0.04535
0
CIRCLE
8
P7
10
-43.18353043861332
20
-56.34146341463415
40
0.04535
0
CIRCLE
8
P7
10
-44.40520916555127
20
-56.34538656030336
40
0.04535
0
CIRCLE
8
P7
10
-43.72053360592017
20
-56.34538656030336
40
0.04535
0
CIRCLE
8
P7
10
-39.126346380816585
20
-56.34146341463415
40
0.04535
0
CIRCLE
8
P7
10
-39.41588284544038
20
-55.54828090880168
40
0.04535
0
CIRCLE
8
P7
10
-38.192946749517105
20
-55.55407076315758
40
0.04535
0
CIRCLE
8
P7
10
-39.12029863600084
20
-57.12885606611073
40
0.04535
0
CIRCLE
8
P7
10
-37.79914133334182
20
-56.91186460937261
40
0.04535
0
CIRCLE
8
P7
10
-38.82565259030599
20
-56.836173139281456
40
0.04535
0
CIRCLE
8
P7
10
-37.00948234025276
20
-57.13075880758809
40
0.04535
0
CIRCLE
8
P7
10
-37.94784517591532
20
-55.54928006680807
40
0.04535
0
CIRCLE
8
P7
10
-36.75203806055525
20
-57.13075880758808
40
0.04535
0
CIRCLE
8
P7
10
-37.109994634923495
20
-55.54349021245217
40
0.04535
0
CIRCLE
8
P7
10
-36.315635980789665
20
-56.33754026896494
40
0.04535
0
CIRCLE
8
P7
10
-36.98068590627487
20
-56.33754026896494
40
0.04535
0
CIRCLE
8
P7
10
-39.7819249948201
20
-56.34538656030336
40
0.04535
0
CIRCLE
8
P7
10
-37.329871902027975
20
-56.34146341463415
40
0.04535
0
CIRCLE
8
P7
10
-38.55155062896591
20
-56.34538656030336
40
0.04535
0
CIRCLE
8
P7
10
-37.866875069334824
20
-56.34538656030336
40
0.04535
0
CIRCLE
8
P7
10
-33.272687844231214
20
-56.34146341463415
40
0.04535
0
CIRCLE
8
P7
10
-33.562224308854994
20
-55.54828090880168
40
0.04535
0
CIRCLE
8
P7
10
-32.33928821293172
20
-55.55407076315758
40
0.04535
0
CIRCLE
8
P7
10
-33.26664009941547
20
-57.12885606611073
40
0.04535
0
CIRCLE
8
P7
10
-31.945482796756437
20
-56.91186460937261
40
0.04535
0
CIRCLE
8
P7
10
-32.97199405372061
20
-56.836173139281456
40
0.04535
0
CIRCLE
8
P7
10
-31.15582380366739
20
-57.13075880758809
40
0.04535
0
CIRCLE
8
P7
10
-32.09418663932995
20
-55.54928006680807
40
0.04535
0
CIRCLE
8
P7
10
-30.89837952396988
20
-57.13075880758808
40
0.04535
0
CIRCLE
8
P7
10
-31.256336098338124
20
-55.54349021245217
40
0.04535
0
CIRCLE
8
P7
10
-30.461977444204294
20
-56.33754026896494
40
0.04535
0
CIRCLE
8
P7
10
-31.127027369689486
20
-56.33754026896494
40
0.04535
0
CIRCLE
8
P7
10
-33.92826645823472
20
-56.34538656030336
40
0.04535
0
CIRCLE
8
P7
10
-31.476213365442618
20
-56.34146341463415
40
0.04535
0
CIRCLE
8
P7
10
-32.69789209238054
20
-56.34538656030336
40
0.04535
0
CIRCLE
8
P7
10
-32.01321653274944
20
-56.34538656030336
40
0.04535
0
CIRCLE
8
P7
10
-27.419029307645843
20
-56.34146341463415
40
0.04535
0
CIRCLE
8
P7
10
-27.708565772269623
20
-55.54828090880168
40
0.04535
0
CIRCLE
8
P7
10
-26.485629676346363
20
-55.55407076315758
40
0.04535
0
CIRCLE
8
P7
10
-27.412981562830083
20
-57.12885606611073
40
0.04535
0
CIRCLE
8
P7
10
-26.091824260171066
20
-56.91186460937261
40
0.04535
0
CIRCLE
8
P7
10
-27.11833551713525
20
-56.836173139281456
40
0.04535
0
CIRCLE
8
P7
10
-25.302165267082017
20
-57.13075880758809
40
0.04535
0
CIRCLE
8
P7
10
-26.24052810274459
20
-55.54928006680807
40
0.04535
0
CIRCLE
8
P7
10
-25.04472098738451
20
-57.13075880758808
40
0.04535
0
CIRCLE
8
P7
10
-25.402677561752753
20
-55.54349021245217
40
0.04535
0
CIRCLE
8
P7
10
-24.60831890761891
20
-56.33754026896494
40
0.04535
0
CIRCLE
8
P7
10
-25.273368833104115
20
-56.33754026896494
40
0.04535
0
CIRCLE
8
P7
10
-28.074607921649346
20
-56.34538656030336
40
0.04535
0
CIRCLE
8
P7
10
-25.622554828857233
20
-56.34146341463415
40
0.04535
0
CIRCLE
8
P7
10
-26.844233555795185
20
-56.34538656030336
40
0.04535
0
CIRCLE
8
P7
10
-26.159557996164068
20
-56.34538656030336
40
0.04535
0
CIRCLE
8
P7
10
-21.565370771060472
20
-56.34146341463415
40
0.04535
0
CIRCLE
8
P7
10
-21.854907235684294
20
-55.54828090880168
40
0.04535
0
CIRCLE
8
P7
10
-20.631971139761006
20
-55.55407076315758
40
0.04535
0
CIRCLE
8
P7
10
-21.55932302624474
20
-57.12885606611073
40
0.04535
0
CIRCLE
8
P7
10
-20.23816572358571
20
-56.91186460937261
40
0.04535
0
CIRCLE
8
P7
10
-21.264676980549908
20
-56.836173139281456
40
0.04535
0
CIRCLE
8
P7
10
-19.448506730496646
20
-57.13075880758809
40
0.04535
0
CIRCLE
8
P7
10
-20.386869566159234
20
-55.54928006680807
40
0.04535
0
CIRCLE
8
P7
10
-19.191062450799166
20
-57.13075880758808
40
0.04535
0
CIRCLE
8
P7
10
-19.549019025167368
20
-55.54349021245217
40
0.04535
0
CIRCLE
8
P7
10
-18.75466037103355
20
-56.33754026896494
40
0.04535
0
CIRCLE
8
P7
10
-19.419710296518772
20
-56.33754026896494
40
0.04535
0
CIRCLE
8
P7
10
-22.220949385063975
20
-56.34538656030336
40
0.04535
0
CIRCLE
8
P7
10
-19.768896292271876
20
-56.34146341463415
40
0.04535
0
CIRCLE
8
P7
10
-20.990575019209828
20
-56.34538656030336
40
0.04535
0
CIRCLE
8
P7
10
-20.305899459578725
20
-56.34538656030336
40
0.04535
0
CIRCLE
8
P7
10
-15.71171223447513
20
-56.34146341463415
40
0.04535
0
CIRCLE
8
P7
10
-16.00124869909891
20
-55.54828090880168
40
0.04535
0
CIRCLE
8
P7
10
-14.778312603175621
20
-55.55407076315758
40
0.04535
0
CIRCLE
8
P7
10
-15.705664489659355
20
-57.12885606611073
40
0.04535
0
CIRCLE
8
P7
10
-14.384507187000338
20
-56.91186460937261
40
0.04535
0
CIRCLE
8
P7
10
-15.411018443964522
20
-56.836173139281456
40
0.04535
0
CIRCLE
8
P7
10
-13.594848193911275
20
-57.13075880758809
40
0.04535
0
CIRCLE
8
P7
10
-14.533211029573877
20
-55.54928006680807
40
0.04535
0
CIRCLE
8
P7
10
-13.33740391421378
20
-57.13075880758808
40
0.04535
0
CIRCLE
8
P7
10
-13.695360488582011
20
-55.54349021245217
40
0.04535
0
CIRCLE
8
P7
10
-12.90100183444818
20
-56.33754026896494
40
0.04535
0
CIRCLE
8
P7
10
-13.566051759933401
20
-56.33754026896494
40
0.04535
0
CIRCLE
8
P7
10
-16.367290848478603
20
-56.34538656030336
40
0.04535
0
CIRCLE
8
P7
10
-13.91523775568649
20
-56.34146341463415
40
0.04535
0
CIRCLE
8
P7
10
-15.136916482624457
20
-56.34538656030336
40
0.04535
0
CIRCLE
8
P7
10
-14.452240922993354
20
-56.34538656030336
40
0.04535
0
CIRCLE
8
P7
10
-9.858053697889758
20
-56.34146341463415
40
0.04535
0
CIRCLE
8
P7
10
-10.147590162513538
20
-55.54828090880168
40
0.04535
0
CIRCLE
8
P7
10
-8.924654066590264
20
-55.55407076315758
40
0.04535
0
CIRCLE
8
P7
10
-9.852005953073999
20
-57.12885606611073
40
0.04535
0
CIRCLE
8
P7
10
-8.530848650414981
20
-56.91186460937261
40
0.04535
0
CIRCLE
8
P7
10
-9.557359907379166
20
-56.836173139281456
40
0.04535
0
CIRCLE
8
P7
10
-7.741189657325904
20
-57.13075880758809
40
0.04535
0
CIRCLE
8
P7
10
-8.679552492988492
20
-55.54928006680807
40
0.04535
0
CIRCLE
8
P7
10
-7.483745377628409
20
-57.13075880758808
40
0.04535
0
CIRCLE
8
P7
10
-7.841701951996654
20
-55.54349021245217
40
0.04535
0
CIRCLE
8
P7
10
-7.047343297862838
20
-56.33754026896494
40
0.04535
0
CIRCLE
8
P7
10
-7.71239322334803
20
-56.33754026896494
40
0.04535
0
CIRCLE
8
P7
10
-10.513632311893232
20
-56.34538656030336
40
0.04535
0
CIRCLE
8
P7
10
-8.061579219101134
20
-56.34146341463415
40
0.04535
0
CIRCLE
8
P7
10
-9.283257946039086
20
-56.34538656030336
40
0.04535
0
CIRCLE
8
P7
10
-8.59858238640797
20
-56.34538656030336
40
0.04535
0
CIRCLE
8
P7
10
-4.0043951613044015
20
-56.34146341463415
40
0.04535
0
CIRCLE
8
P7
10
-4.293931625928181
20
-55.54828090880168
40
0.04535
0
CIRCLE
8
P7
10
-3.0709955300048932
20
-55.55407076315758
40
0.04535
0
CIRCLE
8
P7
10
-3.9983474164886417
20
-57.12885606611073
40
0.04535
0
CIRCLE
8
P7
10
-2.67719011382961
20
-56.91186460937261
40
0.04535
0
CIRCLE
8
P7
10
-3.7037013707937945
20
-56.836173139281456
40
0.04535
0
CIRCLE
8
P7
10
-1.8875311207405616
20
-57.13075880758809
40
0.04535
0
CIRCLE
8
P7
10
-2.825893956403121
20
-55.54928006680807
40
0.04535
0
CIRCLE
8
P7
10
-1.6300868410430525
20
-57.13075880758808
40
0.04535
0
CIRCLE
8
P7
10
-1.9880434154112976
20
-55.54349021245217
40
0.04535
0
CIRCLE
8
P7
10
-1.193684761277467
20
-56.33754026896494
40
0.04535
0
CIRCLE
8
P7
10
-1.8587346867626735
20
-56.33754026896494
40
0.04535
0
CIRCLE
8
P7
10
-4.659973775307904
20
-56.34538656030336
40
0.04535
0
CIRCLE
8
P7
10
-2.207920682515791
20
-56.34146341463415
40
0.04535
0
CIRCLE
8
P7
10
-3.429599409453715
20
-56.34538656030336
40
0.04535
0
CIRCLE
8
P7
10
-2.7449238498226265
20
-56.34538656030336
40
0.04535
0
CIRCLE
8
P7
10
1.8492633752809837
20
-56.34146341463415
40
0.04535
0
CIRCLE
8
P7
10
1.5597269106572043
20
-55.54828090880168
40
0.04535
0
CIRCLE
8
P7
10
2.7826630065804494
20
-55.55407076315758
40
0.04535
0
CIRCLE
8
P7
10
1.8553111200967436
20
-57.12885606611073
40
0.04535
0
CIRCLE
8
P7
10
3.1764684227557467
20
-56.91186460937261
40
0.04535
0
CIRCLE
8
P7
10
2.1499571657915766
20
-56.836173139281456
40
0.04535
0
CIRCLE
8
P7
10
3.9661274158448094
20
-57.13075880758809
40
0.04535
0
CIRCLE
8
P7
10
3.0277645801822644
20
-55.54928006680807
40
0.04535
0
CIRCLE
8
P7
10
4.223571695542319
20
-57.13075880758808
40
0.04535
0
CIRCLE
8
P7
10
3.8656151211740735
20
-55.54349021245217
40
0.04535
0
CIRCLE
8
P7
10
4.659973775307904
20
-56.33754026896494
40
0.04535
0
CIRCLE
8
P7
10
3.9949238498227118
20
-56.33754026896494
40
0.04535
0
CIRCLE
8
P7
10
1.193684761277467
20
-56.34538656030336
40
0.04535
0
CIRCLE
8
P7
10
3.64573785406958
20
-56.34146341463415
40
0.04535
0
CIRCLE
8
P7
10
2.424059127131656
20
-56.34538656030336
40
0.04535
0
CIRCLE
8
P7
10
3.1087346867627446
20
-56.34538656030336
40
0.04535
0
CIRCLE
8
P7
10
7.702921911866312
20
-56.34146341463415
40
0.04535
0
CIRCLE
8
P7
10
7.413385447242561
20
-55.54828090880168
40
0.04535
0
CIRCLE
8
P7
10
8.63632154316582
20
-55.55407076315758
40
0.04535
0
CIRCLE
8
P7
10
7.708969656682072
20
-57.12885606611073
40
0.04535
0
CIRCLE
8
P7
10
9.030126959341132
20
-56.91186460937261
40
0.04535
0
CIRCLE
8
P7
10
8.003615702376933
20
-56.836173139281456
40
0.04535
0
CIRCLE
8
P7
10
9.81978595243018
20
-57.13075880758809
40
0.04535
0
CIRCLE
8
P7
10
8.881423116767607
20
-55.54928006680807
40
0.04535
0
CIRCLE
8
P7
10
10.077230232127675
20
-57.13075880758808
40
0.04535
0
CIRCLE
8
P7
10
9.71927365775943
20
-55.54349021245217
40
0.04535
0
CIRCLE
8
P7
10
10.513632311893275
20
-56.33754026896494
40
0.04535
0
CIRCLE
8
P7
10
9.848582386408069
20
-56.33754026896494
40
0.04535
0
CIRCLE
8
P7
10
7.047343297862852
20
-56.34538656030336
40
0.04535
0
CIRCLE
8
P7
10
9.499396390654951
20
-56.34146341463415
40
0.04535
0
CIRCLE
8
P7
10
8.277717663716999
20
-56.34538656030336
40
0.04535
0
CIRCLE
8
P7
10
8.962393223348116
20
-56.34538656030336
40
0.04535
0
CIRCLE
8
P7
10
13.556580448451712
20
-56.34146341463415
40
0.04535
0
CIRCLE
8
P7
10
13.267043983827904
20
-55.54828090880168
40
0.04535
0
CIRCLE
8
P7
10
14.489980079751192
20
-55.55407076315758
40
0.04535
0
CIRCLE
8
P7
10
13.562628193267443
20
-57.12885606611073
40
0.04535
0
CIRCLE
8
P7
10
14.883785495926475
20
-56.91186460937261
40
0.04535
0
CIRCLE
8
P7
10
13.857274238962304
20
-56.836173139281456
40
0.04535
0
CIRCLE
8
P7
10
15.673444489015552
20
-57.13075880758809
40
0.04535
0
CIRCLE
8
P7
10
14.735081653352978
20
-55.54928006680807
40
0.04535
0
CIRCLE
8
P7
10
15.930888768713046
20
-57.13075880758808
40
0.04535
0
CIRCLE
8
P7
10
15.57293219434483
20
-55.54349021245217
40
0.04535
0
CIRCLE
8
P7
10
16.367290848478632
20
-56.33754026896494
40
0.04535
0
CIRCLE
8
P7
10
15.702240922993411
20
-56.33754026896494
40
0.04535
0
CIRCLE
8
P7
10
12.901001834448195
20
-56.34538656030336
40
0.04535
0
CIRCLE
8
P7
10
15.353054927240336
20
-56.34146341463415
40
0.04535
0
CIRCLE
8
P7
10
14.13137620030237
20
-56.34538656030336
40
0.04535
0
CIRCLE
8
P7
10
14.816051759933487
20
-56.34538656030336
40
0.04535
0
CIRCLE
8
P7
10
19.410238985037054
20
-56.34146341463415
40
0.04535
0
CIRCLE
8
P7
10
19.120702520413275
20
-55.54828090880168
40
0.04535
0
CIRCLE
8
P7
10
20.343638616336577
20
-55.55407076315758
40
0.04535
0
CIRCLE
8
P7
10
19.416286729852814
20
-57.12885606611073
40
0.04535
0
CIRCLE
8
P7
10
20.737444032511846
20
-56.91186460937261
40
0.04535
0
CIRCLE
8
P7
10
19.71093277554762
20
-56.836173139281456
40
0.04535
0
CIRCLE
8
P7
10
21.52710302560091
20
-57.13075880758809
40
0.04535
0
CIRCLE
8
P7
10
20.58874018993832
20
-55.54928006680807
40
0.04535
0
CIRCLE
8
P7
10
21.784547305298403
20
-57.13075880758808
40
0.04535
0
CIRCLE
8
P7
10
21.426590730930158
20
-55.54349021245217
40
0.04535
0
CIRCLE
8
P7
10
22.220949385064003
20
-56.33754026896494
40
0.04535
0
CIRCLE
8
P7
10
21.555899459578782
20
-56.33754026896494
40
0.04535
0
CIRCLE
8
P7
10
18.75466037103358
20
-56.34538656030336
40
0.04535
0
CIRCLE
8
P7
10
21.206713463825665
20
-56.34146341463415
40
0.04535
0
CIRCLE
8
P7
10
19.985034736887755
20
-56.34538656030336
40
0.04535
0
CIRCLE
8
P7
10
20.66971029651883
20
-56.34538656030336
40
0.04535
0
CIRCLE
8
P7
10
25.263897521622468
20
-56.34146341463415
40
0.04535
0
CIRCLE
8
P7
10
24.97436105699869
20
-55.54828090880168
40
0.04535
0
CIRCLE
8
P7
10
26.197297152921962
20
-55.55407076315758
40
0.04535
0
CIRCLE
8
P7
10
25.269945266438228
20
-57.12885606611073
40
0.04535
0
CIRCLE
8
P7
10
26.59110256909723
20
-56.91186460937261
40
0.04535
0
CIRCLE
8
P7
10
25.564591312133032
20
-56.836173139281456
40
0.04535
0
CIRCLE
8
P7
10
27.380761562186265
20
-57.13075880758809
40
0.04535
0
CIRCLE
8
P7
10
26.442398726523706
20
-55.54928006680807
40
0.04535
0
CIRCLE
8
P7
10
27.638205841883817
20
-57.13075880758808
40
0.04535
0
CIRCLE
8
P7
10
27.280249267515572
20
-55.54349021245217
40
0.04535
0
CIRCLE
8
P7
10
28.07460792164936
20
-56.33754026896494
40
0.04535
0
CIRCLE
8
P7
10
27.409557996164168
20
-56.33754026896494
40
0.04535
0
CIRCLE
8
P7
10
24.608318907618937
20
-56.34538656030336
40
0.04535
0
CIRCLE
8
P7
10
27.06037200041105
20
-56.34146341463415
40
0.04535
0
CIRCLE
8
P7
10
25.83869327347314
20
-56.34538656030336
40
0.04535
0
CIRCLE
8
P7
10
26.523368833104215
20
-56.34538656030336
40
0.04535
0
CIRCLE
8
P7
10
31.117556058207768
20
-56.34146341463415
40
0.04535
0
CIRCLE
8
P7
10
30.82801959358399
20
-55.54828090880168
40
0.04535
0
CIRCLE
8
P7
10
32.05095568950726
20
-55.55407076315758
40
0.04535
0
CIRCLE
8
P7
10
31.1236038030235
20
-57.12885606611073
40
0.04535
0
CIRCLE
8
P7
10
32.44476110568253
20
-56.91186460937261
40
0.04535
0
CIRCLE
8
P7
10
31.41824984871839
20
-56.836173139281456
40
0.04535
0
CIRCLE
8
P7
10
33.23442009877162
20
-57.13075880758809
40
0.04535
0
CIRCLE
8
P7
10
32.296057263109034
20
-55.54928006680807
40
0.04535
0
CIRCLE
8
P7
10
33.49186437846912
20
-57.13075880758808
40
0.04535
0
CIRCLE
8
P7
10
33.13390780410087
20
-55.54349021245217
40
0.04535
0
CIRCLE
8
P7
10
33.92826645823469
20
-56.33754026896494
40
0.04535
0
CIRCLE
8
P7
10
33.263216532749496
20
-56.33754026896494
40
0.04535
0
CIRCLE
8
P7
10
30.461977444204294
20
-56.34538656030336
40
0.04535
0
CIRCLE
8
P7
10
32.91403053699641
20
-56.34146341463415
40
0.04535
0
CIRCLE
8
P7
10
31.69235181005844
20
-56.34538656030336
40
0.04535
0
CIRCLE
8
P7
10
32.37702736968954
20
-56.34538656030336
40
0.04535
0
CIRCLE
8
P7
10
36.97121459479318
20
-56.34146341463415
40
0.04535
0
CIRCLE
8
P7
10
36.681678130169374
20
-55.54828090880168
40
0.04535
0
CIRCLE
8
P7
10
37.90461422609265
20
-55.55407076315758
40
0.04535
0
CIRCLE
8
P7
10
36.97726233960891
20
-57.12885606611073
40
0.04535
0
CIRCLE
8
P7
10
38.298419642267945
20
-56.91186460937261
40
0.04535
0
CIRCLE
8
P7
10
37.271908385303746
20
-56.836173139281456
40
0.04535
0
CIRCLE
8
P7
10
39.08807863535698
20
-57.13075880758809
40
0.04535
0
CIRCLE
8
P7
10
38.14971579969442
20
-55.54928006680807
40
0.04535
0
CIRCLE
8
P7
10
39.345522915054474
20
-57.13075880758808
40
0.04535
0
CIRCLE
8
P7
10
38.98756634068626
20
-55.54349021245217
40
0.04535
0
CIRCLE
8
P7
10
39.78192499482007
20
-56.33754026896494
40
0.04535
0
CIRCLE
8
P7
10
39.11687506933488
20
-56.33754026896494
40
0.04535
0
CIRCLE
8
P7
10
36.31563598078968
20
-56.34538656030336
40
0.04535
0
CIRCLE
8
P7
10
38.76768907358179
20
-56.34146341463415
40
0.04535
0
CIRCLE
8
P7
10
37.546010346643854
20
-56.34538656030336
40
0.04535
0
CIRCLE
8
P7
10
38.23068590627493
20
-56.34538656030336
40
0.04535
0
CIRCLE
8
P7
10
42.82487313137857
20
-56.34146341463415
40
0.04535
0
CIRCLE
8
P7
10
42.53533666675476
20
-55.54828090880168
40
0.04535
0
CIRCLE
8
P7
10
43.75827276267803
20
-55.55407076315758
40
0.04535
0
CIRCLE
8
P7
10
42.83092087619427
20
-57.12885606611073
40
0.04535
0
CIRCLE
8
P7
10
44.1520781788533
20
-56.91186460937261
40
0.04535
0
CIRCLE
8
P7
10
43.12556692188913
20
-56.836173139281456
40
0.04535
0
CIRCLE
8
P7
10
44.941737171942364
20
-57.13075880758809
40
0.04535
0
CIRCLE
8
P7
10
44.003374336279805
20
-55.54928006680807
40
0.04535
0
CIRCLE
8
P7
10
45.19918145163989
20
-57.13075880758808
40
0.04535
0
CIRCLE
8
P7
10
44.84122487727164
20
-55.54349021245217
40
0.04535
0
CIRCLE
8
P7
10
45.63558353140546
20
-56.33754026896494
40
0.04535
0
CIRCLE
8
P7
10
44.970533605920295
20
-56.33754026896494
40
0.04535
0
CIRCLE
8
P7
10
42.169294517375064
20
-56.34538656030336
40
0.04535
0
CIRCLE
8
P7
10
44.62134761016718
20
-56.34146341463415
40
0.04535
0
CIRCLE
8
P7
10
43.39966888322921
20
-56.34538656030336
40
0.04535
0
CIRCLE
8
P7
10
44.08434444286031
20
-56.34538656030336
40
0.04535
0
CIRCLE
8
P7
10
48.678531667963895
20
-56.34146341463415
40
0.04535
0
CIRCLE
8
P7
10
48.388995203340144
20
-55.54828090880168
40
0.04535
0
CIRCLE
8
P7
10
49.61193129926339
20
-55.55407076315758
40
0.04535
0
CIRCLE
8
P7
10
48.684579412779655
20
-57.12885606611073
40
0.04535
0
CIRCLE
8
P7
10
50.00573671543869
20
-56.91186460937261
40
0.04535
0
CIRCLE
8
P7
10
48.97922545847452
20
-56.836173139281456
40
0.04535
0
CIRCLE
8
P7
10
50.79539570852772
20
-57.13075880758809
40
0.04535
0
CIRCLE
8
P7
10
49.85703287286516
20
-55.54928006680807
40
0.04535
0
CIRCLE
8
P7
10
51.052839988225244
20
-57.13075880758808
40
0.04535
0
CIRCLE
8
P7
10
50.69488341385697
20
-55.54349021245217
40
0.04535
0
CIRCLE
8
P7
10
51.489242067990816
20
-56.33754026896494
40
0.04535
0
CIRCLE
8
P7
10
50.82419214250562
20
-56.33754026896494
40
0.04535
0
CIRCLE
8
P7
10
48.02295305396039
20
-56.34538656030336
40
0.04535
0
CIRCLE
8
P7
10
50.475006146752534
20
-56.34146341463415
40
0.04535
0
CIRCLE
8
P7
10
49.253327419814596
20
-56.34538656030336
40
0.04535
0
CIRCLE
8
P7
10
49.93800297944567
20
-56.34538656030336
40
0.04535
0
CIRCLE
8
P7
10
54.53219020454928
20
-56.34146341463415
40
0.04535
0
CIRCLE
8
P7
10
54.2426537399255
20
-55.54828090880168
40
0.04535
0
CIRCLE
8
P7
10
55.465589835848746
20
-55.55407076315758
40
0.04535
0
CIRCLE
8
P7
10
54.53823794936501
20
-57.12885606611073
40
0.04535
0
CIRCLE
8
P7
10
55.85939525202404
20
-56.91186460937261
40
0.04535
0
CIRCLE
8
P7
10
54.83288399505987
20
-56.836173139281456
40
0.04535
0
CIRCLE
8
P7
10
56.64905424511308
20
-57.13075880758809
40
0.04535
0
CIRCLE
8
P7
10
55.71069140945049
20
-55.54928006680807
40
0.04535
0
CIRCLE
8
P7
10
56.90649852481063
20
-57.13075880758808
40
0.04535
0
CIRCLE
8
P7
10
56.548541950442385
20
-55.54349021245217
40
0.04535
0
CIRCLE
8
P7
10
57.34290060457617
20
-56.33754026896494
40
0.04535
0
CIRCLE
8
P7
10
56.67785067909098
20
-56.33754026896494
40
0.04535
0
CIRCLE
8
P7
10
53.87661159054575
20
-56.34538656030336
40
0.04535
0
CIRCLE
8
P7
10
56.32866468333786
20
-56.34146341463415
40
0.04535
0
CIRCLE
8
P7
10
55.106985956399924
20
-56.34538656030336
40
0.04535
0
CIRCLE
8
P7
10
55.791661516031056
20
-56.34538656030336
40
0.04535
0
ENDBLK
0
ENDSEC
0
SECTION
2
ENTITIES
0
INSERT
2
LDI_XFB44-1600-011_P7_B1
8
P7
10
0
20
0.0
30
0
0
INSERT
2
LDI_XFB44-1600-011_P7_B1
8
P7
10
0
20
5.121951219512195
30
0
0
INSERT
2
LDI_XFB44-1600-011_P7_B1
8
P7
10
0
20
10.24390243902439
30
0
0
INSERT
2
LDI_XFB44-1600-011_P7_B1
8
P7
10
0
20
15.365853658536587
30
0
0
INSERT
2
LDI_XFB44-1600-011_P7_B1
8
P7
10
0
20
20.48780487804878
30
0
0
INSERT
2
LDI_XFB44-1600-011_P7_B1
8
P7
10
0
20
25.609756097560975
30
0
0
INSERT
2
LDI_XFB44-1600-011_P7_B1
8
P7
10
0
20
30.731707317073173
30
0
0
INSERT
2
LDI_XFB44-1600-011_P7_B1
8
P7
10
0
20
35.853658536585364
30
0
0
INSERT
2
LDI_XFB44-1600-011_P7_B1
8
P7
10
0
20
40.97560975609756
30
0
0
INSERT
2
LDI_XFB44-1600-011_P7_B1
8
P7
10
0
20
46.09756097560976
30
0
0
INSERT
2
LDI_XFB44-1600-011_P7_B1
8
P7
10
0
20
51.21951219512195
30
0
0
INSERT
2
LDI_XFB44-1600-011_P7_B1
8
P7
10
0
20
56.34146341463415
30
0
0
INSERT
2
LDI_XFB44-1600-011_P7_B1
8
P7
10
0
20
61.463414634146346
30
0
0
INSERT
2
LDI_XFB44-1600-011_P7_B1
8
P7
10
0
20
66.58536585365854
30
0
0
INSERT
2
LDI_XFB44-1600-011_P7_B1
8
P7
10
0
20
71.70731707317073
30
0
0
INSERT
2
LDI_XFB44-1600-011_P7_B1
8
P7
10
0
20
76.82926829268293
30
0
0
INSERT
2
LDI_XFB44-1600-011_P7_B1
8
P7
10
0
20
81.95121951219512
30
0
0
INSERT
2
LDI_XFB44-1600-011_P7_B1
8
P7
10
0
20
87.07317073170732
30
0
0
INSERT
2
LDI_XFB44-1600-011_P7_B1
8
P7
10
0
20
92.19512195121952
30
0
0
INSERT
2
LDI_XFB44-1600-011_P7_B1
8
P7
10
0
20
97.3170731707317
30
0
0
INSERT
2
LDI_XFB44-1600-011_P7_B1
8
P7
10
0
20
102.4390243902439
30
0
0
INSERT
2
LDI_XFB44-1600-011_P7_B1
8
P7
10
0
20
107.5609756097561
30
0
0
INSERT
2
LDI_XFB44-1600-011_P7_B1
8
P7
10
0
20
112.6829268292683
30
0
0
POLYLINE
8
P7
66
1
70
1
40
0.1
41
0.1
0
VERTEX
8
P7
10
-61.5
20
-61.2
42
1.0
0
VERTEX
8
P7
10
-60.900000000000006
20
-61.2
42
1.0
0
SEQEND
0
POLYLINE
8
P7
66
1
70
1
40
0.1
41
0.1
0
VERTEX
8
P7
10
-61.5
20
61.2
42
1.0
0
VERTEX
8
P7
10
-60.900000000000006
20
61.2
42
1.0
0
SEQEND
0
POLYLINE
8
P7
66
1
70
1
40
0.1
41
0.1
0
VERTEX
8
P7
10
60.90000000000002
20
-61.2
42
1.0
0
VERTEX
8
P7
10
61.499999999999986
20
-61.2
42
1.0
0
SEQEND
0
POLYLINE
8
P7
66
1
70
1
40
0.1
41
0.1
0
VERTEX
8
P7
10
60.90000000000002
20
61.2
42
1.0
0
VERTEX
8
P7
10
61.499999999999986
20
61.2
42
1.0
0
SEQEND
0
TEXT
8
P7
10
-10.5
20
66.7
40
1.5
1
XFB44-1600-011-P7
0
POLYLINE
8
P7
66
1
70
1
0
VERTEX
8
P7
10
-100.0
20
100.0
30
0
40
1
41
1
0
VERTEX
8
P7
10
100.0
20
100.0
30
0
40
1
41
1
0
VERTEX
8
P7
10
100.0
20
-100.0
30
0
40
1
41
1
0
VERTEX
8
P7
10
-100.0
20
-100.0
30
0
40
1
41
1
0
SEQEND
0
ENDSEC
0
EOF
