0
SECTION
2
HEADER
9
$ACADVER
1
AC1006
9
$INSBASE
10
0.0
20
0.0
30
0.0
9
$EXTMIN
10
-104.25365853658536
20
-104.25365853658536
9
$EXTMAX
10
104.25365853658536
20
116.93658536585366
0
ENDSEC
0
SECTION
2
TABLES
0
TABLE
2
LTYPE
70
1
0
LTYPE
2
CONTINUOUS
70
64
3
Solid line
72
65
73
0
40
0.0
0
ENDTAB
0
TABLE
2
LAYER
70
3
0
LAYER
2
0
70
0
62
255
6
continuous
0
LAYER
2
0
70
0
62
7
6
continuous
0
LAYER
2
P5
70
0
62
7
6
continuous
0
ENDTAB
0
TABLE
2
STYLE
70
2
0
STYLE
2
STANDARD
70
0
40
0
41
1
50
0
71
0
42
1
3
ARIAL.TTF
4

0
STYLE
2
STANDARD
70
0
40
0
41
1
50
0
71
0
42
1
3
ARIAL.TTF
4

0
ENDTAB
0
TABLE
2
VIEW
70
1
0
VIEW
2
Normal
70
0
40
1
10
0.5
20
0.5
41
1
11
0
21
0
31
1
12
0
22
0
32
0
42
50
43
0
44
0
50
0
71
0
0
ENDTAB
0
ENDSEC
0
SECTION
2
BLOCKS
0
BLOCK
8
0
2
cutlineendpoint
70
0
10
0
20
0
30
0
3
cutlineendpoint
0
POLYLINE
8
0
66
1
70
1
40
0.04
41
0.04
0
VERTEX
8
0
10
-0.02
20
0
30
0
42
1.0
0
VERTEX
8
0
10
0.02
20
0
30
0
42
1.0
0
SEQEND
0
ENDBLK
0
BLOCK
8
P5
2
LDI_XFB44-1600-011_P5_B1
70
0
10
0
20
0
30
0
3
LDI_XFB44-1600-011_P5_B1
0
CIRCLE
8
P5
10
-57.08261306434575
20
-55.05691056910568
40
0.04535
0
CIRCLE
8
P5
10
-56.73931580011253
20
-57.61667767384644
40
0.04535
0
CIRCLE
8
P5
10
-56.685696970429326
20
-56.33754026896495
40
0.04535
0
CIRCLE
8
P5
10
-54.56621153947818
20
-55.06504065040649
40
0.04535
0
CIRCLE
8
P5
10
-56.11415125886536
20
-56.34146341463416
40
0.04535
0
CIRCLE
8
P5
10
-54.541661516030956
20
-56.34538656030337
40
0.04535
0
CIRCLE
8
P5
10
-56.083979859893944
20
-55.05691056910568
40
0.04535
0
CIRCLE
8
P5
10
-55.39540321501499
20
-55.06624915542185
40
0.04535
0
CIRCLE
8
P5
10
-54.204660498836
20
-57.6260162601626
40
0.04535
0
CIRCLE
8
P5
10
-55.43569697042932
20
-56.34538656030337
40
0.04535
0
CIRCLE
8
P5
10
-57.34290060457618
20
-56.34538656030337
40
0.04535
0
CIRCLE
8
P5
10
-54.88922249164072
20
-56.34538656030337
40
0.04535
0
CIRCLE
8
P5
10
-53.87661159054577
20
-56.33754026896494
40
0.04535
0
CIRCLE
8
P5
10
-54.6774087892337
20
-57.6260162601626
40
0.04535
0
CIRCLE
8
P5
10
-55.35622983021937
20
-57.461841327253026
40
0.04535
0
CIRCLE
8
P5
10
-51.228954527760386
20
-55.05691056910568
40
0.04535
0
CIRCLE
8
P5
10
-50.88565726352717
20
-57.61667767384644
40
0.04535
0
CIRCLE
8
P5
10
-50.83203843384398
20
-56.33754026896495
40
0.04535
0
CIRCLE
8
P5
10
-48.712553002892825
20
-55.06504065040649
40
0.04535
0
CIRCLE
8
P5
10
-50.26049272228
20
-56.34146341463416
40
0.04535
0
CIRCLE
8
P5
10
-48.6880029794456
20
-56.34538656030337
40
0.04535
0
CIRCLE
8
P5
10
-50.23032132330858
20
-55.05691056910568
40
0.04535
0
CIRCLE
8
P5
10
-49.541744678429616
20
-55.06624915542185
40
0.04535
0
CIRCLE
8
P5
10
-48.35100196225064
20
-57.6260162601626
40
0.04535
0
CIRCLE
8
P5
10
-49.58203843384396
20
-56.34538656030337
40
0.04535
0
CIRCLE
8
P5
10
-51.48924206799083
20
-56.34538656030337
40
0.04535
0
CIRCLE
8
P5
10
-49.03556395505535
20
-56.34538656030337
40
0.04535
0
CIRCLE
8
P5
10
-48.02295305396039
20
-56.33754026896494
40
0.04535
0
CIRCLE
8
P5
10
-48.82375025264833
20
-57.6260162601626
40
0.04535
0
CIRCLE
8
P5
10
-49.502571293634
20
-57.461841327253026
40
0.04535
0
CIRCLE
8
P5
10
-45.37529599117501
20
-55.05691056910568
40
0.04535
0
CIRCLE
8
P5
10
-45.031998726941794
20
-57.61667767384644
40
0.04535
0
CIRCLE
8
P5
10
-44.978379897258606
20
-56.33754026896495
40
0.04535
0
CIRCLE
8
P5
10
-42.85889446630745
20
-55.06504065040649
40
0.04535
0
CIRCLE
8
P5
10
-44.406834185694635
20
-56.34146341463416
40
0.04535
0
CIRCLE
8
P5
10
-42.834344442860214
20
-56.34538656030337
40
0.04535
0
CIRCLE
8
P5
10
-44.3766627867232
20
-55.05691056910568
40
0.04535
0
CIRCLE
8
P5
10
-43.68808614184424
20
-55.06624915542185
40
0.04535
0
CIRCLE
8
P5
10
-42.497343425665264
20
-57.6260162601626
40
0.04535
0
CIRCLE
8
P5
10
-43.728379897258606
20
-56.34538656030337
40
0.04535
0
CIRCLE
8
P5
10
-45.635583531405445
20
-56.34538656030337
40
0.04535
0
CIRCLE
8
P5
10
-43.18190541846998
20
-56.34538656030337
40
0.04535
0
CIRCLE
8
P5
10
-42.16929451737502
20
-56.33754026896494
40
0.04535
0
CIRCLE
8
P5
10
-42.97009171606295
20
-57.6260162601626
40
0.04535
0
CIRCLE
8
P5
10
-43.64891275704862
20
-57.461841327253026
40
0.04535
0
CIRCLE
8
P5
10
-39.52163745458965
20
-55.05691056910568
40
0.04535
0
CIRCLE
8
P5
10
-39.17834019035644
20
-57.61667767384644
40
0.04535
0
CIRCLE
8
P5
10
-39.124721360673234
20
-56.33754026896495
40
0.04535
0
CIRCLE
8
P5
10
-37.00523592972209
20
-55.06504065040649
40
0.04535
0
CIRCLE
8
P5
10
-38.553175649109264
20
-56.34146341463416
40
0.04535
0
CIRCLE
8
P5
10
-36.98068590627487
20
-56.34538656030337
40
0.04535
0
CIRCLE
8
P5
10
-38.523004250137845
20
-55.05691056910568
40
0.04535
0
CIRCLE
8
P5
10
-37.834427605258895
20
-55.06624915542185
40
0.04535
0
CIRCLE
8
P5
10
-36.64368488907992
20
-57.6260162601626
40
0.04535
0
CIRCLE
8
P5
10
-37.874721360673234
20
-56.34538656030337
40
0.04535
0
CIRCLE
8
P5
10
-39.7819249948201
20
-56.34538656030337
40
0.04535
0
CIRCLE
8
P5
10
-37.32824688188464
20
-56.34538656030337
40
0.04535
0
CIRCLE
8
P5
10
-36.315635980789665
20
-56.33754026896494
40
0.04535
0
CIRCLE
8
P5
10
-37.116433179477596
20
-57.6260162601626
40
0.04535
0
CIRCLE
8
P5
10
-37.79525422046328
20
-57.461841327253026
40
0.04535
0
CIRCLE
8
P5
10
-33.667978918004295
20
-55.05691056910568
40
0.04535
0
CIRCLE
8
P5
10
-33.324681653771066
20
-57.61667767384644
40
0.04535
0
CIRCLE
8
P5
10
-33.27106282408786
20
-56.33754026896495
40
0.04535
0
CIRCLE
8
P5
10
-31.15157739313672
20
-55.06504065040649
40
0.04535
0
CIRCLE
8
P5
10
-32.69951711252389
20
-56.34146341463416
40
0.04535
0
CIRCLE
8
P5
10
-31.127027369689486
20
-56.34538656030337
40
0.04535
0
CIRCLE
8
P5
10
-32.669345713552474
20
-55.05691056910568
40
0.04535
0
CIRCLE
8
P5
10
-31.98076906867351
20
-55.06624915542185
40
0.04535
0
CIRCLE
8
P5
10
-30.79002635249455
20
-57.6260162601626
40
0.04535
0
CIRCLE
8
P5
10
-32.02106282408786
20
-56.34538656030337
40
0.04535
0
CIRCLE
8
P5
10
-33.92826645823472
20
-56.34538656030337
40
0.04535
0
CIRCLE
8
P5
10
-31.474588345299267
20
-56.34538656030337
40
0.04535
0
CIRCLE
8
P5
10
-30.461977444204294
20
-56.33754026896494
40
0.04535
0
CIRCLE
8
P5
10
-31.26277464289224
20
-57.6260162601626
40
0.04535
0
CIRCLE
8
P5
10
-31.941595683877892
20
-57.461841327253026
40
0.04535
0
CIRCLE
8
P5
10
-27.814320381418923
20
-55.05691056910568
40
0.04535
0
CIRCLE
8
P5
10
-27.47102311718571
20
-57.61667767384644
40
0.04535
0
CIRCLE
8
P5
10
-27.417404287502492
20
-56.33754026896495
40
0.04535
0
CIRCLE
8
P5
10
-25.297918856551348
20
-55.06504065040649
40
0.04535
0
CIRCLE
8
P5
10
-26.845858575938536
20
-56.34146341463416
40
0.04535
0
CIRCLE
8
P5
10
-25.27336883310413
20
-56.34538656030337
40
0.04535
0
CIRCLE
8
P5
10
-26.815687176967103
20
-55.05691056910568
40
0.04535
0
CIRCLE
8
P5
10
-26.127110532088153
20
-55.06624915542185
40
0.04535
0
CIRCLE
8
P5
10
-24.936367815909165
20
-57.6260162601626
40
0.04535
0
CIRCLE
8
P5
10
-26.167404287502492
20
-56.34538656030337
40
0.04535
0
CIRCLE
8
P5
10
-28.074607921649346
20
-56.34538656030337
40
0.04535
0
CIRCLE
8
P5
10
-25.620929808713882
20
-56.34538656030337
40
0.04535
0
CIRCLE
8
P5
10
-24.60831890761891
20
-56.33754026896494
40
0.04535
0
CIRCLE
8
P5
10
-25.409116106306854
20
-57.6260162601626
40
0.04535
0
CIRCLE
8
P5
10
-26.08793714729252
20
-57.461841327253026
40
0.04535
0
CIRCLE
8
P5
10
-21.960661844833567
20
-55.05691056910568
40
0.04535
0
CIRCLE
8
P5
10
-21.617364580600338
20
-57.61667767384644
40
0.04535
0
CIRCLE
8
P5
10
-21.563745750917136
20
-56.33754026896495
40
0.04535
0
CIRCLE
8
P5
10
-19.44426031996599
20
-55.06504065040649
40
0.04535
0
CIRCLE
8
P5
10
-20.99220003935318
20
-56.34146341463416
40
0.04535
0
CIRCLE
8
P5
10
-19.419710296518744
20
-56.34538656030337
40
0.04535
0
CIRCLE
8
P5
10
-20.96202864038173
20
-55.05691056910568
40
0.04535
0
CIRCLE
8
P5
10
-20.273451995502782
20
-55.06624915542185
40
0.04535
0
CIRCLE
8
P5
10
-19.082709279323808
20
-57.6260162601626
40
0.04535
0
CIRCLE
8
P5
10
-20.31374575091712
20
-56.34538656030337
40
0.04535
0
CIRCLE
8
P5
10
-22.220949385063975
20
-56.34538656030337
40
0.04535
0
CIRCLE
8
P5
10
-19.767271272128525
20
-56.34538656030337
40
0.04535
0
CIRCLE
8
P5
10
-18.75466037103355
20
-56.33754026896494
40
0.04535
0
CIRCLE
8
P5
10
-19.555457569721497
20
-57.6260162601626
40
0.04535
0
CIRCLE
8
P5
10
-20.23427861070718
20
-57.461841327253026
40
0.04535
0
CIRCLE
8
P5
10
-16.10700330824818
20
-55.05691056910568
40
0.04535
0
CIRCLE
8
P5
10
-15.763706044014967
20
-57.61667767384644
40
0.04535
0
CIRCLE
8
P5
10
-15.710087214331764
20
-56.33754026896495
40
0.04535
0
CIRCLE
8
P5
10
-13.59060178338062
20
-55.06504065040649
40
0.04535
0
CIRCLE
8
P5
10
-15.138541502767794
20
-56.34146341463416
40
0.04535
0
CIRCLE
8
P5
10
-13.566051759933387
20
-56.34538656030337
40
0.04535
0
CIRCLE
8
P5
10
-15.10837010379636
20
-55.05691056910568
40
0.04535
0
CIRCLE
8
P5
10
-14.419793458917425
20
-55.06624915542185
40
0.04535
0
CIRCLE
8
P5
10
-13.229050742738437
20
-57.6260162601626
40
0.04535
0
CIRCLE
8
P5
10
-14.460087214331764
20
-56.34538656030337
40
0.04535
0
CIRCLE
8
P5
10
-16.367290848478603
20
-56.34538656030337
40
0.04535
0
CIRCLE
8
P5
10
-13.91361273554314
20
-56.34538656030337
40
0.04535
0
CIRCLE
8
P5
10
-12.90100183444818
20
-56.33754026896494
40
0.04535
0
CIRCLE
8
P5
10
-13.70179903313614
20
-57.6260162601626
40
0.04535
0
CIRCLE
8
P5
10
-14.380620074121808
20
-57.461841327253026
40
0.04535
0
CIRCLE
8
P5
10
-10.25334477166281
20
-55.05691056910568
40
0.04535
0
CIRCLE
8
P5
10
-9.910047507429596
20
-57.61667767384644
40
0.04535
0
CIRCLE
8
P5
10
-9.856428677746408
20
-56.33754026896495
40
0.04535
0
CIRCLE
8
P5
10
-7.7369432467952635
20
-55.06504065040649
40
0.04535
0
CIRCLE
8
P5
10
-9.284882966182437
20
-56.34146341463416
40
0.04535
0
CIRCLE
8
P5
10
-7.71239322334803
20
-56.34538656030337
40
0.04535
0
CIRCLE
8
P5
10
-9.254711567211004
20
-55.05691056910568
40
0.04535
0
CIRCLE
8
P5
10
-8.56613492233204
20
-55.06624915542185
40
0.04535
0
CIRCLE
8
P5
10
-7.375392206153066
20
-57.6260162601626
40
0.04535
0
CIRCLE
8
P5
10
-8.606428677746408
20
-56.34538656030337
40
0.04535
0
CIRCLE
8
P5
10
-10.513632311893232
20
-56.34538656030337
40
0.04535
0
CIRCLE
8
P5
10
-8.059954198957769
20
-56.34538656030337
40
0.04535
0
CIRCLE
8
P5
10
-7.047343297862838
20
-56.33754026896494
40
0.04535
0
CIRCLE
8
P5
10
-7.848140496550769
20
-57.6260162601626
40
0.04535
0
CIRCLE
8
P5
10
-8.526961537536422
20
-57.461841327253026
40
0.04535
0
CIRCLE
8
P5
10
-4.3996862350774535
20
-55.05691056910568
40
0.04535
0
CIRCLE
8
P5
10
-4.056388970844239
20
-57.61667767384644
40
0.04535
0
CIRCLE
8
P5
10
-4.002770141161037
20
-56.33754026896495
40
0.04535
0
CIRCLE
8
P5
10
-1.8832847102098924
20
-55.06504065040649
40
0.04535
0
CIRCLE
8
P5
10
-3.43122442959708
20
-56.34146341463416
40
0.04535
0
CIRCLE
8
P5
10
-1.8587346867626735
20
-56.34538656030337
40
0.04535
0
CIRCLE
8
P5
10
-3.401053030625633
20
-55.05691056910568
40
0.04535
0
CIRCLE
8
P5
10
-2.7124763857466974
20
-55.06624915542185
40
0.04535
0
CIRCLE
8
P5
10
-1.5217336695677233
20
-57.6260162601626
40
0.04535
0
CIRCLE
8
P5
10
-2.752770141161051
20
-56.34538656030337
40
0.04535
0
CIRCLE
8
P5
10
-4.659973775307904
20
-56.34538656030337
40
0.04535
0
CIRCLE
8
P5
10
-2.2062956623724403
20
-56.34538656030337
40
0.04535
0
CIRCLE
8
P5
10
-1.193684761277467
20
-56.33754026896494
40
0.04535
0
CIRCLE
8
P5
10
-1.9944819599653982
20
-57.6260162601626
40
0.04535
0
CIRCLE
8
P5
10
-2.6733030009510657
20
-57.461841327253026
40
0.04535
0
CIRCLE
8
P5
10
1.4539723015079034
20
-55.05691056910568
40
0.04535
0
CIRCLE
8
P5
10
1.7972695657411322
20
-57.61667767384644
40
0.04535
0
CIRCLE
8
P5
10
1.8508883954243345
20
-56.33754026896495
40
0.04535
0
CIRCLE
8
P5
10
3.970373826375507
20
-55.06504065040649
40
0.04535
0
CIRCLE
8
P5
10
2.4224341069883053
20
-56.34146341463416
40
0.04535
0
CIRCLE
8
P5
10
3.9949238498226975
20
-56.34538656030337
40
0.04535
0
CIRCLE
8
P5
10
2.452605505959724
20
-55.05691056910568
40
0.04535
0
CIRCLE
8
P5
10
3.1411821508386737
20
-55.06624915542185
40
0.04535
0
CIRCLE
8
P5
10
4.331924867017648
20
-57.6260162601626
40
0.04535
0
CIRCLE
8
P5
10
3.1008883954243345
20
-56.34538656030337
40
0.04535
0
CIRCLE
8
P5
10
1.193684761277467
20
-56.34538656030337
40
0.04535
0
CIRCLE
8
P5
10
3.647362874212945
20
-56.34538656030337
40
0.04535
0
CIRCLE
8
P5
10
4.659973775307904
20
-56.33754026896494
40
0.04535
0
CIRCLE
8
P5
10
3.859176576619973
20
-57.6260162601626
40
0.04535
0
CIRCLE
8
P5
10
3.1803555356343054
20
-57.461841327253026
40
0.04535
0
CIRCLE
8
P5
10
7.30763083809326
20
-55.05691056910568
40
0.04535
0
CIRCLE
8
P5
10
7.650928102326475
20
-57.61667767384644
40
0.04535
0
CIRCLE
8
P5
10
7.704546932009677
20
-56.33754026896495
40
0.04535
0
CIRCLE
8
P5
10
9.82403236296085
20
-55.06504065040649
40
0.04535
0
CIRCLE
8
P5
10
8.276092643573662
20
-56.34146341463416
40
0.04535
0
CIRCLE
8
P5
10
9.84858238640804
20
-56.34538656030337
40
0.04535
0
CIRCLE
8
P5
10
8.306264042545095
20
-55.05691056910568
40
0.04535
0
CIRCLE
8
P5
10
8.994840687424045
20
-55.06624915542185
40
0.04535
0
CIRCLE
8
P5
10
10.185583403603019
20
-57.6260162601626
40
0.04535
0
CIRCLE
8
P5
10
8.954546932009677
20
-56.34538656030337
40
0.04535
0
CIRCLE
8
P5
10
7.047343297862852
20
-56.34538656030337
40
0.04535
0
CIRCLE
8
P5
10
9.501021410798302
20
-56.34538656030337
40
0.04535
0
CIRCLE
8
P5
10
10.513632311893275
20
-56.33754026896494
40
0.04535
0
CIRCLE
8
P5
10
9.712835113205315
20
-57.6260162601626
40
0.04535
0
CIRCLE
8
P5
10
9.034014072219648
20
-57.461841327253026
40
0.04535
0
CIRCLE
8
P5
10
13.161289374678631
20
-55.05691056910568
40
0.04535
0
CIRCLE
8
P5
10
13.504586638911846
20
-57.61667767384644
40
0.04535
0
CIRCLE
8
P5
10
13.558205468595048
20
-56.33754026896495
40
0.04535
0
CIRCLE
8
P5
10
15.677690899546192
20
-55.06504065040649
40
0.04535
0
CIRCLE
8
P5
10
14.129751180159033
20
-56.34146341463416
40
0.04535
0
CIRCLE
8
P5
10
15.70224092299344
20
-56.34538656030337
40
0.04535
0
CIRCLE
8
P5
10
14.159922579130466
20
-55.05691056910568
40
0.04535
0
CIRCLE
8
P5
10
14.848499224009416
20
-55.06624915542185
40
0.04535
0
CIRCLE
8
P5
10
16.039241940188376
20
-57.6260162601626
40
0.04535
0
CIRCLE
8
P5
10
14.808205468595077
20
-56.34538656030337
40
0.04535
0
CIRCLE
8
P5
10
12.901001834448195
20
-56.34538656030337
40
0.04535
0
CIRCLE
8
P5
10
15.354679947383673
20
-56.34538656030337
40
0.04535
0
CIRCLE
8
P5
10
16.367290848478632
20
-56.33754026896494
40
0.04535
0
CIRCLE
8
P5
10
15.566493649790687
20
-57.6260162601626
40
0.04535
0
CIRCLE
8
P5
10
14.887672608805019
20
-57.461841327253026
40
0.04535
0
CIRCLE
8
P5
10
19.014947911263974
20
-55.05691056910568
40
0.04535
0
CIRCLE
8
P5
10
19.358245175497203
20
-57.61667767384644
40
0.04535
0
CIRCLE
8
P5
10
19.41186400518042
20
-56.33754026896495
40
0.04535
0
CIRCLE
8
P5
10
21.531349436131578
20
-55.06504065040649
40
0.04535
0
CIRCLE
8
P5
10
19.98340971674439
20
-56.34146341463416
40
0.04535
0
CIRCLE
8
P5
10
21.555899459578782
20
-56.34538656030337
40
0.04535
0
CIRCLE
8
P5
10
20.01358111571581
20
-55.05691056910568
40
0.04535
0
CIRCLE
8
P5
10
20.702157760594773
20
-55.06624915542185
40
0.04535
0
CIRCLE
8
P5
10
21.892900476773733
20
-57.6260162601626
40
0.04535
0
CIRCLE
8
P5
10
20.66186400518042
20
-56.34538656030337
40
0.04535
0
CIRCLE
8
P5
10
18.75466037103358
20
-56.34538656030337
40
0.04535
0
CIRCLE
8
P5
10
21.20833848396903
20
-56.34538656030337
40
0.04535
0
CIRCLE
8
P5
10
22.220949385064003
20
-56.33754026896494
40
0.04535
0
CIRCLE
8
P5
10
21.42015218637603
20
-57.6260162601626
40
0.04535
0
CIRCLE
8
P5
10
20.74133114539039
20
-57.461841327253026
40
0.04535
0
CIRCLE
8
P5
10
24.86860644784936
20
-55.05691056910568
40
0.04535
0
CIRCLE
8
P5
10
25.211903712082588
20
-57.61667767384644
40
0.04535
0
CIRCLE
8
P5
10
25.265522541765804
20
-56.33754026896495
40
0.04535
0
CIRCLE
8
P5
10
27.385007972716963
20
-55.06504065040649
40
0.04535
0
CIRCLE
8
P5
10
25.837068253329775
20
-56.34146341463416
40
0.04535
0
CIRCLE
8
P5
10
27.409557996164168
20
-56.34538656030337
40
0.04535
0
CIRCLE
8
P5
10
25.867239652301194
20
-55.05691056910568
40
0.04535
0
CIRCLE
8
P5
10
26.55581629718013
20
-55.06624915542185
40
0.04535
0
CIRCLE
8
P5
10
27.746559013359118
20
-57.6260162601626
40
0.04535
0
CIRCLE
8
P5
10
26.515522541765804
20
-56.34538656030337
40
0.04535
0
CIRCLE
8
P5
10
24.608318907618937
20
-56.34538656030337
40
0.04535
0
CIRCLE
8
P5
10
27.061997020554415
20
-56.34538656030337
40
0.04535
0
CIRCLE
8
P5
10
28.07460792164936
20
-56.33754026896494
40
0.04535
0
CIRCLE
8
P5
10
27.273810722961414
20
-57.6260162601626
40
0.04535
0
CIRCLE
8
P5
10
26.594989681975804
20
-57.461841327253026
40
0.04535
0
CIRCLE
8
P5
10
30.722264984434716
20
-55.05691056910568
40
0.04535
0
CIRCLE
8
P5
10
31.065562248667916
20
-57.61667767384644
40
0.04535
0
CIRCLE
8
P5
10
31.119181078351133
20
-56.33754026896495
40
0.04535
0
CIRCLE
8
P5
10
33.23866650930226
20
-55.06504065040649
40
0.04535
0
CIRCLE
8
P5
10
31.690726789915075
20
-56.34146341463416
40
0.04535
0
CIRCLE
8
P5
10
33.263216532749496
20
-56.34538656030337
40
0.04535
0
CIRCLE
8
P5
10
31.720898188886522
20
-55.05691056910568
40
0.04535
0
CIRCLE
8
P5
10
32.40947483376546
20
-55.06624915542185
40
0.04535
0
CIRCLE
8
P5
10
33.600217549944446
20
-57.6260162601626
40
0.04535
0
CIRCLE
8
P5
10
32.36918107835113
20
-56.34538656030337
40
0.04535
0
CIRCLE
8
P5
10
30.461977444204294
20
-56.34538656030337
40
0.04535
0
CIRCLE
8
P5
10
32.91565555713977
20
-56.34538656030337
40
0.04535
0
CIRCLE
8
P5
10
33.92826645823469
20
-56.33754026896494
40
0.04535
0
CIRCLE
8
P5
10
33.12746925954674
20
-57.6260162601626
40
0.04535
0
CIRCLE
8
P5
10
32.448648218561075
20
-57.461841327253026
40
0.04535
0
CIRCLE
8
P5
10
36.57592352102007
20
-55.05691056910568
40
0.04535
0
CIRCLE
8
P5
10
36.91922078525333
20
-57.61667767384644
40
0.04535
0
CIRCLE
8
P5
10
36.97283961493652
20
-56.33754026896495
40
0.04535
0
CIRCLE
8
P5
10
39.09232504588768
20
-55.06504065040649
40
0.04535
0
CIRCLE
8
P5
10
37.54438532650049
20
-56.34146341463416
40
0.04535
0
CIRCLE
8
P5
10
39.11687506933491
20
-56.34538656030337
40
0.04535
0
CIRCLE
8
P5
10
37.57455672547191
20
-55.05691056910568
40
0.04535
0
CIRCLE
8
P5
10
38.26313337035087
20
-55.06624915542185
40
0.04535
0
CIRCLE
8
P5
10
39.45387608652983
20
-57.6260162601626
40
0.04535
0
CIRCLE
8
P5
10
38.22283961493649
20
-56.34538656030337
40
0.04535
0
CIRCLE
8
P5
10
36.31563598078968
20
-56.34538656030337
40
0.04535
0
CIRCLE
8
P5
10
38.76931409372516
20
-56.34538656030337
40
0.04535
0
CIRCLE
8
P5
10
39.78192499482007
20
-56.33754026896494
40
0.04535
0
CIRCLE
8
P5
10
38.98112779613213
20
-57.6260162601626
40
0.04535
0
CIRCLE
8
P5
10
38.30230675514646
20
-57.461841327253026
40
0.04535
0
CIRCLE
8
P5
10
42.42958205760549
20
-55.05691056910568
40
0.04535
0
CIRCLE
8
P5
10
42.77287932183869
20
-57.61667767384644
40
0.04535
0
CIRCLE
8
P5
10
42.826498151521875
20
-56.33754026896495
40
0.04535
0
CIRCLE
8
P5
10
44.94598358247303
20
-55.06504065040649
40
0.04535
0
CIRCLE
8
P5
10
43.398043863085874
20
-56.34146341463416
40
0.04535
0
CIRCLE
8
P5
10
44.970533605920295
20
-56.34538656030337
40
0.04535
0
CIRCLE
8
P5
10
43.42821526205729
20
-55.05691056910568
40
0.04535
0
CIRCLE
8
P5
10
44.11679190693626
20
-55.06624915542185
40
0.04535
0
CIRCLE
8
P5
10
45.307534623115245
20
-57.6260162601626
40
0.04535
0
CIRCLE
8
P5
10
44.076498151521875
20
-56.34538656030337
40
0.04535
0
CIRCLE
8
P5
10
42.169294517375064
20
-56.34538656030337
40
0.04535
0
CIRCLE
8
P5
10
44.62297263031054
20
-56.34538656030337
40
0.04535
0
CIRCLE
8
P5
10
45.63558353140546
20
-56.33754026896494
40
0.04535
0
CIRCLE
8
P5
10
44.83478633271754
20
-57.6260162601626
40
0.04535
0
CIRCLE
8
P5
10
44.155965291731846
20
-57.461841327253026
40
0.04535
0
CIRCLE
8
P5
10
48.28324059419084
20
-55.05691056910568
40
0.04535
0
CIRCLE
8
P5
10
48.626537858424044
20
-57.61667767384644
40
0.04535
0
CIRCLE
8
P5
10
48.68015668810726
20
-56.33754026896495
40
0.04535
0
CIRCLE
8
P5
10
50.79964211905839
20
-55.06504065040649
40
0.04535
0
CIRCLE
8
P5
10
49.25170239967123
20
-56.34146341463416
40
0.04535
0
CIRCLE
8
P5
10
50.82419214250562
20
-56.34538656030337
40
0.04535
0
CIRCLE
8
P5
10
49.28187379864265
20
-55.05691056910568
40
0.04535
0
CIRCLE
8
P5
10
49.970450443521585
20
-55.06624915542185
40
0.04535
0
CIRCLE
8
P5
10
51.1611931597006
20
-57.6260162601626
40
0.04535
0
CIRCLE
8
P5
10
49.93015668810723
20
-56.34538656030337
40
0.04535
0
CIRCLE
8
P5
10
48.02295305396039
20
-56.34538656030337
40
0.04535
0
CIRCLE
8
P5
10
50.47663116689587
20
-56.34538656030337
40
0.04535
0
CIRCLE
8
P5
10
51.489242067990816
20
-56.33754026896494
40
0.04535
0
CIRCLE
8
P5
10
50.6884448693029
20
-57.6260162601626
40
0.04535
0
CIRCLE
8
P5
10
50.0096238283172
20
-57.461841327253026
40
0.04535
0
CIRCLE
8
P5
10
54.13689913077617
20
-55.05691056910568
40
0.04535
0
CIRCLE
8
P5
10
54.4801963950094
20
-57.61667767384644
40
0.04535
0
CIRCLE
8
P5
10
54.53381522469262
20
-56.33754026896495
40
0.04535
0
CIRCLE
8
P5
10
56.653300655643775
20
-55.06504065040649
40
0.04535
0
CIRCLE
8
P5
10
55.10536093625659
20
-56.34146341463416
40
0.04535
0
CIRCLE
8
P5
10
56.67785067909098
20
-56.34538656030337
40
0.04535
0
CIRCLE
8
P5
10
55.13553233522801
20
-55.05691056910568
40
0.04535
0
CIRCLE
8
P5
10
55.82410898010694
20
-55.06624915542185
40
0.04535
0
CIRCLE
8
P5
10
57.01485169628596
20
-57.6260162601626
40
0.04535
0
CIRCLE
8
P5
10
55.78381522469262
20
-56.34538656030337
40
0.04535
0
CIRCLE
8
P5
10
53.87661159054575
20
-56.34538656030337
40
0.04535
0
CIRCLE
8
P5
10
56.3302897034812
20
-56.34538656030337
40
0.04535
0
CIRCLE
8
P5
10
57.34290060457617
20
-56.33754026896494
40
0.04535
0
CIRCLE
8
P5
10
56.542103405888255
20
-57.6260162601626
40
0.04535
0
CIRCLE
8
P5
10
55.86328236490259
20
-57.461841327253026
40
0.04535
0
ENDBLK
0
ENDSEC
0
SECTION
2
ENTITIES
0
INSERT
2
LDI_XFB44-1600-011_P5_B1
8
P5
10
0
20
0.0
30
0
0
INSERT
2
LDI_XFB44-1600-011_P5_B1
8
P5
10
0
20
5.121951219512195
30
0
0
INSERT
2
LDI_XFB44-1600-011_P5_B1
8
P5
10
0
20
10.24390243902439
30
0
0
INSERT
2
LDI_XFB44-1600-011_P5_B1
8
P5
10
0
20
15.365853658536587
30
0
0
INSERT
2
LDI_XFB44-1600-011_P5_B1
8
P5
10
0
20
20.48780487804878
30
0
0
INSERT
2
LDI_XFB44-1600-011_P5_B1
8
P5
10
0
20
25.609756097560975
30
0
0
INSERT
2
LDI_XFB44-1600-011_P5_B1
8
P5
10
0
20
30.731707317073173
30
0
0
INSERT
2
LDI_XFB44-1600-011_P5_B1
8
P5
10
0
20
35.853658536585364
30
0
0
INSERT
2
LDI_XFB44-1600-011_P5_B1
8
P5
10
0
20
40.97560975609756
30
0
0
INSERT
2
LDI_XFB44-1600-011_P5_B1
8
P5
10
0
20
46.09756097560976
30
0
0
INSERT
2
LDI_XFB44-1600-011_P5_B1
8
P5
10
0
20
51.21951219512195
30
0
0
INSERT
2
LDI_XFB44-1600-011_P5_B1
8
P5
10
0
20
56.34146341463415
30
0
0
INSERT
2
LDI_XFB44-1600-011_P5_B1
8
P5
10
0
20
61.463414634146346
30
0
0
INSERT
2
LDI_XFB44-1600-011_P5_B1
8
P5
10
0
20
66.58536585365854
30
0
0
INSERT
2
LDI_XFB44-1600-011_P5_B1
8
P5
10
0
20
71.70731707317073
30
0
0
INSERT
2
LDI_XFB44-1600-011_P5_B1
8
P5
10
0
20
76.82926829268293
30
0
0
INSERT
2
LDI_XFB44-1600-011_P5_B1
8
P5
10
0
20
81.95121951219512
30
0
0
INSERT
2
LDI_XFB44-1600-011_P5_B1
8
P5
10
0
20
87.07317073170732
30
0
0
INSERT
2
LDI_XFB44-1600-011_P5_B1
8
P5
10
0
20
92.19512195121952
30
0
0
INSERT
2
LDI_XFB44-1600-011_P5_B1
8
P5
10
0
20
97.3170731707317
30
0
0
INSERT
2
LDI_XFB44-1600-011_P5_B1
8
P5
10
0
20
102.4390243902439
30
0
0
INSERT
2
LDI_XFB44-1600-011_P5_B1
8
P5
10
0
20
107.5609756097561
30
0
0
INSERT
2
LDI_XFB44-1600-011_P5_B1
8
P5
10
0
20
112.6829268292683
30
0
0
POLYLINE
8
P5
66
1
70
1
40
0.1
41
0.1
0
VERTEX
8
P5
10
-61.5
20
-61.2
42
1.0
0
VERTEX
8
P5
10
-60.900000000000006
20
-61.2
42
1.0
0
SEQEND
0
POLYLINE
8
P5
66
1
70
1
40
0.1
41
0.1
0
VERTEX
8
P5
10
-61.5
20
61.2
42
1.0
0
VERTEX
8
P5
10
-60.900000000000006
20
61.2
42
1.0
0
SEQEND
0
POLYLINE
8
P5
66
1
70
1
40
0.1
41
0.1
0
VERTEX
8
P5
10
60.90000000000002
20
-61.2
42
1.0
0
VERTEX
8
P5
10
61.499999999999986
20
-61.2
42
1.0
0
SEQEND
0
POLYLINE
8
P5
66
1
70
1
40
0.1
41
0.1
0
VERTEX
8
P5
10
60.90000000000002
20
61.2
42
1.0
0
VERTEX
8
P5
10
61.499999999999986
20
61.2
42
1.0
0
SEQEND
0
TEXT
8
P5
10
-10.5
20
66.7
40
1.5
1
XFB44-1600-011-P5
0
POLYLINE
8
P5
66
1
70
1
0
VERTEX
8
P5
10
-100.0
20
100.0
30
0
40
1
41
1
0
VERTEX
8
P5
10
100.0
20
100.0
30
0
40
1
41
1
0
VERTEX
8
P5
10
100.0
20
-100.0
30
0
40
1
41
1
0
VERTEX
8
P5
10
-100.0
20
-100.0
30
0
40
1
41
1
0
SEQEND
0
ENDSEC
0
EOF
