0
SECTION
2
HEADER
9
$ACADVER
1
AC1006
9
$INSBASE
10
0.0
20
0.0
30
0.0
9
$EXTMIN
10
-104.25365853658536
20
-104.25365853658536
9
$EXTMAX
10
104.25365853658536
20
116.93658536585366
0
ENDSEC
0
SECTION
2
TABLES
0
TABLE
2
LTYPE
70
1
0
LTYPE
2
CONTINUOUS
70
64
3
Solid line
72
65
73
0
40
0.0
0
ENDTAB
0
TABLE
2
LAYER
70
3
0
LAYER
2
0
70
0
62
255
6
continuous
0
LAYER
2
0
70
0
62
7
6
continuous
0
LAYER
2
C3
70
0
62
7
6
continuous
0
ENDTAB
0
TABLE
2
STYLE
70
2
0
STYLE
2
STANDARD
70
0
40
0
41
1
50
0
71
0
42
1
3
ARIAL.TTF
4

0
STYLE
2
STANDARD
70
0
40
0
41
1
50
0
71
0
42
1
3
ARIAL.TTF
4

0
ENDTAB
0
TABLE
2
VIEW
70
1
0
VIEW
2
Normal
70
0
40
1
10
0.5
20
0.5
41
1
11
0
21
0
31
1
12
0
22
0
32
0
42
50
43
0
44
0
50
0
71
0
0
ENDTAB
0
ENDSEC
0
SECTION
2
BLOCKS
0
BLOCK
8
0
2
cutlineendpoint
70
0
10
0
20
0
30
0
3
cutlineendpoint
0
POLYLINE
8
0
66
1
70
1
40
0.04
41
0.04
0
VERTEX
8
0
10
-0.02
20
0
30
0
42
1.0
0
VERTEX
8
0
10
0.02
20
0
30
0
42
1.0
0
SEQEND
0
ENDBLK
0
BLOCK
8
C3
2
LDI_XFB44-1600-011_C3_B1
70
0
10
0
20
0
30
0
3
LDI_XFB44-1600-011_C3_B1
0
POLYLINE
8
C3
66
1
70
1
0
VERTEX
8
C3
10
-56.91348114183332
20
-55.55005682990303
0
VERTEX
8
C3
10
-56.91348114183332
20
-56.18292682926829
0
VERTEX
8
C3
10
-56.74274943451625
20
-56.18292682926829
0
VERTEX
8
C3
10
-56.74274943451626
20
-56.40243902439024
0
VERTEX
8
C3
10
-56.62079821500405
20
-56.40243902439024
0
VERTEX
8
C3
10
-56.62079821500405
20
-56.18292682926829
0
VERTEX
8
C3
10
-56.45006650768698
20
-56.18292682926829
0
VERTEX
8
C3
10
-56.45006650768698
20
-55.55005682990303
0
VERTEX
8
C3
10
-56.91348114183332
20
-55.55005682990303
0
SEQEND
0
POLYLINE
8
C3
66
1
70
1
0
VERTEX
8
C3
10
-54.262243229440244
20
-57.68292682926829
0
VERTEX
8
C3
10
-54.140292009928054
20
-57.68292682926829
0
VERTEX
8
C3
10
-54.140292009928054
20
-57.5609756097561
0
VERTEX
8
C3
10
-54.262243229440244
20
-57.5609756097561
0
VERTEX
8
C3
10
-54.262243229440244
20
-57.68292682926829
0
SEQEND
0
POLYLINE
8
C3
66
1
70
1
0
VERTEX
8
C3
10
-56.047627483296736
20
-56.28048780487804
0
VERTEX
8
C3
10
-56.16957870280894
20
-56.28048780487804
0
VERTEX
8
C3
10
-56.16957870280894
20
-56.40243902439024
0
VERTEX
8
C3
10
-56.047627483296736
20
-56.40243902439024
0
VERTEX
8
C3
10
-56.047627483296736
20
-56.28048780487804
0
SEQEND
0
POLYLINE
8
C3
66
1
70
1
0
VERTEX
8
C3
10
-54.73499151983793
20
-57.5609756097561
0
VERTEX
8
C3
10
-54.73499151983793
20
-57.68292682926829
0
VERTEX
8
C3
10
-54.613040300325736
20
-57.68292682926829
0
VERTEX
8
C3
10
-54.613040300325736
20
-57.5609756097561
0
VERTEX
8
C3
10
-54.73499151983793
20
-57.5609756097561
0
SEQEND
0
POLYLINE
8
C3
66
1
70
1
0
VERTEX
8
C3
10
-55.37079821500405
20
-56.40243902439024
0
VERTEX
8
C3
10
-55.37079821500405
20
-56.28048780487804
0
VERTEX
8
C3
10
-55.492749434516256
20
-56.28048780487804
0
VERTEX
8
C3
10
-55.492749434516256
20
-56.40243902439024
0
VERTEX
8
C3
10
-55.37079821500405
20
-56.40243902439024
0
SEQEND
0
POLYLINE
8
C3
66
1
70
1
0
VERTEX
8
C3
10
-56.678815480310114
20
-57.5609756097561
0
VERTEX
8
C3
10
-56.800766699822304
20
-57.5609756097561
0
VERTEX
8
C3
10
-56.800766699822304
20
-57.68292682926829
0
VERTEX
8
C3
10
-56.678815480310114
20
-57.68292682926829
0
VERTEX
8
C3
10
-56.678815480310114
20
-57.5609756097561
0
SEQEND
0
POLYLINE
8
C3
66
1
70
1
0
VERTEX
8
C3
10
-54.94627495572765
20
-56.28048780487804
0
VERTEX
8
C3
10
-54.94627495572765
20
-56.40243902439024
0
VERTEX
8
C3
10
-54.82432373621545
20
-56.40243902439024
0
VERTEX
8
C3
10
-54.82432373621545
20
-56.28048780487804
0
VERTEX
8
C3
10
-54.94627495572765
20
-56.28048780487804
0
SEQEND
0
POLYLINE
8
C3
66
1
70
1
0
VERTEX
8
C3
10
-54.50184305057022
20
-55.12195121951219
0
VERTEX
8
C3
10
-54.50184305057022
20
-54.99999999999999
0
VERTEX
8
C3
10
-54.62379427008242
20
-54.99999999999999
0
VERTEX
8
C3
10
-54.62379427008242
20
-55.12195121951219
0
VERTEX
8
C3
10
-54.50184305057022
20
-55.12195121951219
0
SEQEND
0
POLYLINE
8
C3
66
1
70
1
0
VERTEX
8
C3
10
-54.47676276060569
20
-56.40243902439024
0
VERTEX
8
C3
10
-54.47676276060569
20
-56.28048780487804
0
VERTEX
8
C3
10
-54.59871398011789
20
-56.28048780487804
0
VERTEX
8
C3
10
-54.59871398011789
20
-56.40243902439024
0
VERTEX
8
C3
10
-54.47676276060569
20
-56.40243902439024
0
SEQEND
0
POLYLINE
8
C3
66
1
70
1
0
VERTEX
8
C3
10
-55.334902895212565
20
-55.12195121951219
0
VERTEX
8
C3
10
-55.334902895212565
20
-54.99999999999999
0
VERTEX
8
C3
10
-55.456854114724756
20
-54.99999999999999
0
VERTEX
8
C3
10
-55.456854114724756
20
-55.12195121951219
0
VERTEX
8
C3
10
-55.334902895212565
20
-55.12195121951219
0
SEQEND
0
POLYLINE
8
C3
66
1
70
1
0
VERTEX
8
C3
10
-53.84522642519209
20
-56.30615510361126
0
VERTEX
8
C3
10
-53.88053473621497
20
-56.291529922321104
0
VERTEX
8
C3
10
-53.91584304723786
20
-56.30615510361126
0
VERTEX
8
C3
10
-53.930468228528014
20
-56.341463414634156
0
VERTEX
8
C3
10
-53.91584304723785
20
-56.37677172565703
0
VERTEX
8
C3
10
-53.88053473621497
20
-56.3913969069472
0
VERTEX
8
C3
10
-53.84522642519209
20
-56.37677172565703
0
VERTEX
8
C3
10
-53.83060124390192
20
-56.341463414634156
0
VERTEX
8
C3
10
-53.84522642519209
20
-56.30615510361126
0
SEQEND
0
POLYLINE
8
C3
66
1
70
1
0
VERTEX
8
C3
10
-56.019611370985984
20
-55.1219512195122
0
VERTEX
8
C3
10
-56.019611370985984
20
-54.99999999999999
0
VERTEX
8
C3
10
-56.141562590498175
20
-54.99999999999999
0
VERTEX
8
C3
10
-56.141562590498175
20
-55.1219512195122
0
VERTEX
8
C3
10
-56.019611370985984
20
-55.1219512195122
0
SEQEND
0
POLYLINE
8
C3
66
1
70
1
0
VERTEX
8
C3
10
-57.37428576992985
20
-56.37677172565703
0
VERTEX
8
C3
10
-57.33897745890697
20
-56.3913969069472
0
VERTEX
8
C3
10
-57.30366914788409
20
-56.37677172565703
0
VERTEX
8
C3
10
-57.289043966593916
20
-56.341463414634156
0
VERTEX
8
C3
10
-57.30366914788408
20
-56.30615510361126
0
VERTEX
8
C3
10
-57.33897745890697
20
-56.291529922321104
0
VERTEX
8
C3
10
-57.37428576992985
20
-56.30615510361126
0
VERTEX
8
C3
10
-57.38891095122002
20
-56.341463414634156
0
VERTEX
8
C3
10
-57.37428576992985
20
-56.37677172565703
0
SEQEND
0
POLYLINE
8
C3
66
1
70
1
0
VERTEX
8
C3
10
-57.018244575437784
20
-54.99999999999999
0
VERTEX
8
C3
10
-57.14019579494998
20
-54.99999999999999
0
VERTEX
8
C3
10
-57.14019579494998
20
-55.12195121951219
0
VERTEX
8
C3
10
-57.018244575437784
20
-55.12195121951219
0
VERTEX
8
C3
10
-57.018244575437784
20
-54.99999999999999
0
SEQEND
0
POLYLINE
8
C3
66
1
70
1
0
VERTEX
8
C3
10
-54.08651885816666
20
-56.40243902439024
0
VERTEX
8
C3
10
-54.08651885816666
20
-55.4335464121947
0
VERTEX
8
C3
10
-54.67310565121959
20
-55.4335464121947
0
VERTEX
8
C3
10
-54.67310565121959
20
-56.17355112262202
0
VERTEX
8
C3
10
-54.208470077678854
20
-56.17355112262202
0
VERTEX
8
C3
10
-54.208470077678854
20
-56.40243902439024
0
VERTEX
8
C3
10
-54.08651885816666
20
-56.40243902439024
0
SEQEND
0
POLYLINE
8
C3
66
1
70
1
0
VERTEX
8
C3
10
-55.04269373365358
20
-55.634146341463406
0
VERTEX
8
C3
10
-55.28048780487804
20
-55.634146341463406
0
VERTEX
8
C3
10
-55.28048780487804
20
-55.89024390243902
0
VERTEX
8
C3
10
-55.16464495316577
20
-55.89024390243902
0
VERTEX
8
C3
10
-55.16464495316577
20
-56.68292682926829
0
VERTEX
8
C3
10
-55.04269373365358
20
-56.68292682926829
0
VERTEX
8
C3
10
-55.04269373365358
20
-55.634146341463406
0
SEQEND
0
POLYLINE
8
C3
66
1
70
1
0
VERTEX
8
C3
10
-51.05982260524796
20
-55.55005682990303
0
VERTEX
8
C3
10
-51.05982260524796
20
-56.18292682926829
0
VERTEX
8
C3
10
-50.889090897930885
20
-56.18292682926829
0
VERTEX
8
C3
10
-50.8890908979309
20
-56.40243902439024
0
VERTEX
8
C3
10
-50.76713967841869
20
-56.40243902439024
0
VERTEX
8
C3
10
-50.76713967841869
20
-56.18292682926829
0
VERTEX
8
C3
10
-50.59640797110161
20
-56.18292682926829
0
VERTEX
8
C3
10
-50.59640797110161
20
-55.55005682990303
0
VERTEX
8
C3
10
-51.05982260524796
20
-55.55005682990303
0
SEQEND
0
POLYLINE
8
C3
66
1
70
1
0
VERTEX
8
C3
10
-48.40858469285488
20
-57.68292682926829
0
VERTEX
8
C3
10
-48.28663347334269
20
-57.68292682926829
0
VERTEX
8
C3
10
-48.28663347334269
20
-57.5609756097561
0
VERTEX
8
C3
10
-48.40858469285488
20
-57.5609756097561
0
VERTEX
8
C3
10
-48.40858469285488
20
-57.68292682926829
0
SEQEND
0
POLYLINE
8
C3
66
1
70
1
0
VERTEX
8
C3
10
-50.19396894671137
20
-56.28048780487804
0
VERTEX
8
C3
10
-50.31592016622358
20
-56.28048780487804
0
VERTEX
8
C3
10
-50.31592016622358
20
-56.40243902439024
0
VERTEX
8
C3
10
-50.19396894671137
20
-56.40243902439024
0
VERTEX
8
C3
10
-50.19396894671137
20
-56.28048780487804
0
SEQEND
0
POLYLINE
8
C3
66
1
70
1
0
VERTEX
8
C3
10
-48.88133298325257
20
-57.5609756097561
0
VERTEX
8
C3
10
-48.88133298325257
20
-57.68292682926829
0
VERTEX
8
C3
10
-48.75938176374037
20
-57.68292682926829
0
VERTEX
8
C3
10
-48.75938176374037
20
-57.5609756097561
0
VERTEX
8
C3
10
-48.88133298325257
20
-57.5609756097561
0
SEQEND
0
POLYLINE
8
C3
66
1
70
1
0
VERTEX
8
C3
10
-49.51713967841869
20
-56.40243902439024
0
VERTEX
8
C3
10
-49.51713967841869
20
-56.28048780487804
0
VERTEX
8
C3
10
-49.63909089793089
20
-56.28048780487804
0
VERTEX
8
C3
10
-49.63909089793089
20
-56.40243902439024
0
VERTEX
8
C3
10
-49.51713967841869
20
-56.40243902439024
0
SEQEND
0
POLYLINE
8
C3
66
1
70
1
0
VERTEX
8
C3
10
-50.82515694372475
20
-57.5609756097561
0
VERTEX
8
C3
10
-50.94710816323694
20
-57.5609756097561
0
VERTEX
8
C3
10
-50.94710816323694
20
-57.68292682926829
0
VERTEX
8
C3
10
-50.82515694372475
20
-57.68292682926829
0
VERTEX
8
C3
10
-50.82515694372475
20
-57.5609756097561
0
SEQEND
0
POLYLINE
8
C3
66
1
70
1
0
VERTEX
8
C3
10
-49.09261641914229
20
-56.28048780487804
0
VERTEX
8
C3
10
-49.09261641914229
20
-56.40243902439024
0
VERTEX
8
C3
10
-48.97066519963008
20
-56.40243902439024
0
VERTEX
8
C3
10
-48.97066519963008
20
-56.28048780487804
0
VERTEX
8
C3
10
-49.09261641914229
20
-56.28048780487804
0
SEQEND
0
POLYLINE
8
C3
66
1
70
1
0
VERTEX
8
C3
10
-48.64818451398486
20
-55.12195121951219
0
VERTEX
8
C3
10
-48.64818451398486
20
-54.99999999999999
0
VERTEX
8
C3
10
-48.77013573349706
20
-54.99999999999999
0
VERTEX
8
C3
10
-48.77013573349706
20
-55.12195121951219
0
VERTEX
8
C3
10
-48.64818451398486
20
-55.12195121951219
0
SEQEND
0
POLYLINE
8
C3
66
1
70
1
0
VERTEX
8
C3
10
-48.623104224020324
20
-56.40243902439024
0
VERTEX
8
C3
10
-48.623104224020324
20
-56.28048780487804
0
VERTEX
8
C3
10
-48.74505544353253
20
-56.28048780487804
0
VERTEX
8
C3
10
-48.74505544353253
20
-56.40243902439024
0
VERTEX
8
C3
10
-48.623104224020324
20
-56.40243902439024
0
SEQEND
0
POLYLINE
8
C3
66
1
70
1
0
VERTEX
8
C3
10
-49.4812443586272
20
-55.12195121951219
0
VERTEX
8
C3
10
-49.4812443586272
20
-54.99999999999999
0
VERTEX
8
C3
10
-49.60319557813939
20
-54.99999999999999
0
VERTEX
8
C3
10
-49.60319557813939
20
-55.12195121951219
0
VERTEX
8
C3
10
-49.4812443586272
20
-55.12195121951219
0
SEQEND
0
POLYLINE
8
C3
66
1
70
1
0
VERTEX
8
C3
10
-47.991567888606724
20
-56.30615510361126
0
VERTEX
8
C3
10
-48.026876199629605
20
-56.291529922321104
0
VERTEX
8
C3
10
-48.06218451065249
20
-56.30615510361126
0
VERTEX
8
C3
10
-48.07680969194265
20
-56.341463414634156
0
VERTEX
8
C3
10
-48.062184510652486
20
-56.37677172565703
0
VERTEX
8
C3
10
-48.026876199629605
20
-56.3913969069472
0
VERTEX
8
C3
10
-47.991567888606724
20
-56.37677172565703
0
VERTEX
8
C3
10
-47.97694270731655
20
-56.341463414634156
0
VERTEX
8
C3
10
-47.991567888606724
20
-56.30615510361126
0
SEQEND
0
POLYLINE
8
C3
66
1
70
1
0
VERTEX
8
C3
10
-50.16595283440062
20
-55.1219512195122
0
VERTEX
8
C3
10
-50.16595283440062
20
-54.99999999999999
0
VERTEX
8
C3
10
-50.28790405391281
20
-54.99999999999999
0
VERTEX
8
C3
10
-50.28790405391281
20
-55.1219512195122
0
VERTEX
8
C3
10
-50.16595283440062
20
-55.1219512195122
0
SEQEND
0
POLYLINE
8
C3
66
1
70
1
0
VERTEX
8
C3
10
-51.520627233344484
20
-56.37677172565703
0
VERTEX
8
C3
10
-51.4853189223216
20
-56.3913969069472
0
VERTEX
8
C3
10
-51.45001061129872
20
-56.37677172565703
0
VERTEX
8
C3
10
-51.43538543000855
20
-56.341463414634156
0
VERTEX
8
C3
10
-51.450010611298715
20
-56.30615510361126
0
VERTEX
8
C3
10
-51.4853189223216
20
-56.291529922321104
0
VERTEX
8
C3
10
-51.520627233344484
20
-56.30615510361126
0
VERTEX
8
C3
10
-51.535252414634655
20
-56.341463414634156
0
VERTEX
8
C3
10
-51.520627233344484
20
-56.37677172565703
0
SEQEND
0
POLYLINE
8
C3
66
1
70
1
0
VERTEX
8
C3
10
-51.16458603885242
20
-54.99999999999999
0
VERTEX
8
C3
10
-51.28653725836462
20
-54.99999999999999
0
VERTEX
8
C3
10
-51.28653725836462
20
-55.12195121951219
0
VERTEX
8
C3
10
-51.16458603885242
20
-55.12195121951219
0
VERTEX
8
C3
10
-51.16458603885242
20
-54.99999999999999
0
SEQEND
0
POLYLINE
8
C3
66
1
70
1
0
VERTEX
8
C3
10
-48.2328603215813
20
-56.40243902439024
0
VERTEX
8
C3
10
-48.2328603215813
20
-55.4335464121947
0
VERTEX
8
C3
10
-48.81944711463423
20
-55.4335464121947
0
VERTEX
8
C3
10
-48.81944711463423
20
-56.17355112262202
0
VERTEX
8
C3
10
-48.35481154109349
20
-56.17355112262202
0
VERTEX
8
C3
10
-48.35481154109349
20
-56.40243902439024
0
VERTEX
8
C3
10
-48.2328603215813
20
-56.40243902439024
0
SEQEND
0
POLYLINE
8
C3
66
1
70
1
0
VERTEX
8
C3
10
-49.189035197068215
20
-55.634146341463406
0
VERTEX
8
C3
10
-49.42682926829268
20
-55.634146341463406
0
VERTEX
8
C3
10
-49.42682926829268
20
-55.89024390243902
0
VERTEX
8
C3
10
-49.310986416580405
20
-55.89024390243902
0
VERTEX
8
C3
10
-49.310986416580405
20
-56.68292682926829
0
VERTEX
8
C3
10
-49.189035197068215
20
-56.68292682926829
0
VERTEX
8
C3
10
-49.189035197068215
20
-55.634146341463406
0
SEQEND
0
POLYLINE
8
C3
66
1
70
1
0
VERTEX
8
C3
10
-45.20616406866259
20
-55.55005682990303
0
VERTEX
8
C3
10
-45.20616406866259
20
-56.18292682926829
0
VERTEX
8
C3
10
-45.035432361345514
20
-56.18292682926829
0
VERTEX
8
C3
10
-45.03543236134553
20
-56.40243902439024
0
VERTEX
8
C3
10
-44.913481141833316
20
-56.40243902439024
0
VERTEX
8
C3
10
-44.913481141833316
20
-56.18292682926829
0
VERTEX
8
C3
10
-44.74274943451624
20
-56.18292682926829
0
VERTEX
8
C3
10
-44.74274943451624
20
-55.55005682990303
0
VERTEX
8
C3
10
-45.20616406866259
20
-55.55005682990303
0
SEQEND
0
POLYLINE
8
C3
66
1
70
1
0
VERTEX
8
C3
10
-42.55492615626952
20
-57.68292682926829
0
VERTEX
8
C3
10
-42.43297493675732
20
-57.68292682926829
0
VERTEX
8
C3
10
-42.43297493675732
20
-57.5609756097561
0
VERTEX
8
C3
10
-42.55492615626952
20
-57.5609756097561
0
VERTEX
8
C3
10
-42.55492615626952
20
-57.68292682926829
0
SEQEND
0
POLYLINE
8
C3
66
1
70
1
0
VERTEX
8
C3
10
-44.340310410125994
20
-56.28048780487804
0
VERTEX
8
C3
10
-44.462261629638206
20
-56.28048780487804
0
VERTEX
8
C3
10
-44.462261629638206
20
-56.40243902439024
0
VERTEX
8
C3
10
-44.340310410125994
20
-56.40243902439024
0
VERTEX
8
C3
10
-44.340310410125994
20
-56.28048780487804
0
SEQEND
0
POLYLINE
8
C3
66
1
70
1
0
VERTEX
8
C3
10
-43.02767444666719
20
-57.5609756097561
0
VERTEX
8
C3
10
-43.02767444666719
20
-57.68292682926829
0
VERTEX
8
C3
10
-42.90572322715499
20
-57.68292682926829
0
VERTEX
8
C3
10
-42.90572322715499
20
-57.5609756097561
0
VERTEX
8
C3
10
-43.02767444666719
20
-57.5609756097561
0
SEQEND
0
POLYLINE
8
C3
66
1
70
1
0
VERTEX
8
C3
10
-43.663481141833316
20
-56.40243902439024
0
VERTEX
8
C3
10
-43.663481141833316
20
-56.28048780487804
0
VERTEX
8
C3
10
-43.78543236134553
20
-56.28048780487804
0
VERTEX
8
C3
10
-43.78543236134553
20
-56.40243902439024
0
VERTEX
8
C3
10
-43.663481141833316
20
-56.40243902439024
0
SEQEND
0
POLYLINE
8
C3
66
1
70
1
0
VERTEX
8
C3
10
-44.97149840713938
20
-57.5609756097561
0
VERTEX
8
C3
10
-45.09344962665158
20
-57.5609756097561
0
VERTEX
8
C3
10
-45.09344962665158
20
-57.68292682926829
0
VERTEX
8
C3
10
-44.97149840713938
20
-57.68292682926829
0
VERTEX
8
C3
10
-44.97149840713938
20
-57.5609756097561
0
SEQEND
0
POLYLINE
8
C3
66
1
70
1
0
VERTEX
8
C3
10
-43.23895788255692
20
-56.28048780487804
0
VERTEX
8
C3
10
-43.23895788255692
20
-56.40243902439024
0
VERTEX
8
C3
10
-43.117006663044705
20
-56.40243902439024
0
VERTEX
8
C3
10
-43.117006663044705
20
-56.28048780487804
0
VERTEX
8
C3
10
-43.23895788255692
20
-56.28048780487804
0
SEQEND
0
POLYLINE
8
C3
66
1
70
1
0
VERTEX
8
C3
10
-42.79452597739949
20
-55.12195121951219
0
VERTEX
8
C3
10
-42.79452597739949
20
-54.99999999999999
0
VERTEX
8
C3
10
-42.916477196911686
20
-54.99999999999999
0
VERTEX
8
C3
10
-42.916477196911686
20
-55.12195121951219
0
VERTEX
8
C3
10
-42.79452597739949
20
-55.12195121951219
0
SEQEND
0
POLYLINE
8
C3
66
1
70
1
0
VERTEX
8
C3
10
-42.76944568743495
20
-56.40243902439024
0
VERTEX
8
C3
10
-42.76944568743495
20
-56.28048780487804
0
VERTEX
8
C3
10
-42.891396906947165
20
-56.28048780487804
0
VERTEX
8
C3
10
-42.891396906947165
20
-56.40243902439024
0
VERTEX
8
C3
10
-42.76944568743495
20
-56.40243902439024
0
SEQEND
0
POLYLINE
8
C3
66
1
70
1
0
VERTEX
8
C3
10
-43.62758582204184
20
-55.12195121951219
0
VERTEX
8
C3
10
-43.62758582204184
20
-54.99999999999999
0
VERTEX
8
C3
10
-43.74953704155402
20
-54.99999999999999
0
VERTEX
8
C3
10
-43.74953704155402
20
-55.12195121951219
0
VERTEX
8
C3
10
-43.62758582204184
20
-55.12195121951219
0
SEQEND
0
POLYLINE
8
C3
66
1
70
1
0
VERTEX
8
C3
10
-42.13790935202135
20
-56.30615510361126
0
VERTEX
8
C3
10
-42.17321766304423
20
-56.291529922321104
0
VERTEX
8
C3
10
-42.208525974067115
20
-56.30615510361126
0
VERTEX
8
C3
10
-42.223151155357286
20
-56.341463414634156
0
VERTEX
8
C3
10
-42.208525974067115
20
-56.37677172565703
0
VERTEX
8
C3
10
-42.17321766304423
20
-56.3913969069472
0
VERTEX
8
C3
10
-42.13790935202135
20
-56.37677172565703
0
VERTEX
8
C3
10
-42.12328417073118
20
-56.341463414634156
0
VERTEX
8
C3
10
-42.13790935202135
20
-56.30615510361126
0
SEQEND
0
POLYLINE
8
C3
66
1
70
1
0
VERTEX
8
C3
10
-44.31229429781524
20
-55.1219512195122
0
VERTEX
8
C3
10
-44.31229429781524
20
-54.99999999999999
0
VERTEX
8
C3
10
-44.43424551732744
20
-54.99999999999999
0
VERTEX
8
C3
10
-44.43424551732744
20
-55.1219512195122
0
VERTEX
8
C3
10
-44.31229429781524
20
-55.1219512195122
0
SEQEND
0
POLYLINE
8
C3
66
1
70
1
0
VERTEX
8
C3
10
-45.66696869675911
20
-56.37677172565703
0
VERTEX
8
C3
10
-45.63166038573624
20
-56.3913969069472
0
VERTEX
8
C3
10
-45.59635207471335
20
-56.37677172565703
0
VERTEX
8
C3
10
-45.58172689342318
20
-56.341463414634156
0
VERTEX
8
C3
10
-45.59635207471334
20
-56.30615510361126
0
VERTEX
8
C3
10
-45.63166038573624
20
-56.291529922321104
0
VERTEX
8
C3
10
-45.66696869675911
20
-56.30615510361126
0
VERTEX
8
C3
10
-45.681593878049284
20
-56.341463414634156
0
VERTEX
8
C3
10
-45.66696869675911
20
-56.37677172565703
0
SEQEND
0
POLYLINE
8
C3
66
1
70
1
0
VERTEX
8
C3
10
-45.31092750226705
20
-54.99999999999999
0
VERTEX
8
C3
10
-45.43287872177925
20
-54.99999999999999
0
VERTEX
8
C3
10
-45.43287872177925
20
-55.12195121951219
0
VERTEX
8
C3
10
-45.31092750226705
20
-55.12195121951219
0
VERTEX
8
C3
10
-45.31092750226705
20
-54.99999999999999
0
SEQEND
0
POLYLINE
8
C3
66
1
70
1
0
VERTEX
8
C3
10
-42.37920178499593
20
-56.40243902439024
0
VERTEX
8
C3
10
-42.37920178499593
20
-55.4335464121947
0
VERTEX
8
C3
10
-42.96578857804886
20
-55.4335464121947
0
VERTEX
8
C3
10
-42.96578857804886
20
-56.17355112262202
0
VERTEX
8
C3
10
-42.501153004508126
20
-56.17355112262202
0
VERTEX
8
C3
10
-42.501153004508126
20
-56.40243902439024
0
VERTEX
8
C3
10
-42.37920178499593
20
-56.40243902439024
0
SEQEND
0
POLYLINE
8
C3
66
1
70
1
0
VERTEX
8
C3
10
-43.33537666048285
20
-55.634146341463406
0
VERTEX
8
C3
10
-43.57317073170731
20
-55.634146341463406
0
VERTEX
8
C3
10
-43.57317073170731
20
-55.89024390243902
0
VERTEX
8
C3
10
-43.457327879995034
20
-55.89024390243902
0
VERTEX
8
C3
10
-43.457327879995034
20
-56.68292682926829
0
VERTEX
8
C3
10
-43.33537666048285
20
-56.68292682926829
0
VERTEX
8
C3
10
-43.33537666048285
20
-55.634146341463406
0
SEQEND
0
POLYLINE
8
C3
66
1
70
1
0
VERTEX
8
C3
10
-39.35250553207723
20
-55.55005682990303
0
VERTEX
8
C3
10
-39.35250553207723
20
-56.18292682926829
0
VERTEX
8
C3
10
-39.18177382476016
20
-56.18292682926829
0
VERTEX
8
C3
10
-39.18177382476017
20
-56.40243902439024
0
VERTEX
8
C3
10
-39.05982260524796
20
-56.40243902439024
0
VERTEX
8
C3
10
-39.05982260524796
20
-56.18292682926829
0
VERTEX
8
C3
10
-38.889090897930885
20
-56.18292682926829
0
VERTEX
8
C3
10
-38.889090897930885
20
-55.55005682990303
0
VERTEX
8
C3
10
-39.35250553207723
20
-55.55005682990303
0
SEQEND
0
POLYLINE
8
C3
66
1
70
1
0
VERTEX
8
C3
10
-36.70126761968416
20
-57.68292682926829
0
VERTEX
8
C3
10
-36.57931640017196
20
-57.68292682926829
0
VERTEX
8
C3
10
-36.57931640017196
20
-57.5609756097561
0
VERTEX
8
C3
10
-36.70126761968416
20
-57.5609756097561
0
VERTEX
8
C3
10
-36.70126761968416
20
-57.68292682926829
0
SEQEND
0
POLYLINE
8
C3
66
1
70
1
0
VERTEX
8
C3
10
-38.48665187354064
20
-56.28048780487804
0
VERTEX
8
C3
10
-38.60860309305285
20
-56.28048780487804
0
VERTEX
8
C3
10
-38.60860309305285
20
-56.40243902439024
0
VERTEX
8
C3
10
-38.48665187354064
20
-56.40243902439024
0
VERTEX
8
C3
10
-38.48665187354064
20
-56.28048780487804
0
SEQEND
0
POLYLINE
8
C3
66
1
70
1
0
VERTEX
8
C3
10
-37.174015910081835
20
-57.5609756097561
0
VERTEX
8
C3
10
-37.174015910081835
20
-57.68292682926829
0
VERTEX
8
C3
10
-37.05206469056964
20
-57.68292682926829
0
VERTEX
8
C3
10
-37.05206469056964
20
-57.5609756097561
0
VERTEX
8
C3
10
-37.174015910081835
20
-57.5609756097561
0
SEQEND
0
POLYLINE
8
C3
66
1
70
1
0
VERTEX
8
C3
10
-37.80982260524796
20
-56.40243902439024
0
VERTEX
8
C3
10
-37.80982260524796
20
-56.28048780487804
0
VERTEX
8
C3
10
-37.93177382476017
20
-56.28048780487804
0
VERTEX
8
C3
10
-37.93177382476017
20
-56.40243902439024
0
VERTEX
8
C3
10
-37.80982260524796
20
-56.40243902439024
0
SEQEND
0
POLYLINE
8
C3
66
1
70
1
0
VERTEX
8
C3
10
-39.11783987055402
20
-57.5609756097561
0
VERTEX
8
C3
10
-39.23979109006622
20
-57.5609756097561
0
VERTEX
8
C3
10
-39.23979109006622
20
-57.68292682926829
0
VERTEX
8
C3
10
-39.11783987055402
20
-57.68292682926829
0
VERTEX
8
C3
10
-39.11783987055402
20
-57.5609756097561
0
SEQEND
0
POLYLINE
8
C3
66
1
70
1
0
VERTEX
8
C3
10
-37.38529934597156
20
-56.28048780487804
0
VERTEX
8
C3
10
-37.38529934597156
20
-56.40243902439024
0
VERTEX
8
C3
10
-37.26334812645935
20
-56.40243902439024
0
VERTEX
8
C3
10
-37.26334812645935
20
-56.28048780487804
0
VERTEX
8
C3
10
-37.38529934597156
20
-56.28048780487804
0
SEQEND
0
POLYLINE
8
C3
66
1
70
1
0
VERTEX
8
C3
10
-36.94086744081413
20
-55.12195121951219
0
VERTEX
8
C3
10
-36.94086744081413
20
-54.99999999999999
0
VERTEX
8
C3
10
-37.06281866032633
20
-54.99999999999999
0
VERTEX
8
C3
10
-37.06281866032633
20
-55.12195121951219
0
VERTEX
8
C3
10
-36.94086744081413
20
-55.12195121951219
0
SEQEND
0
POLYLINE
8
C3
66
1
70
1
0
VERTEX
8
C3
10
-36.915787150849596
20
-56.40243902439024
0
VERTEX
8
C3
10
-36.915787150849596
20
-56.28048780487804
0
VERTEX
8
C3
10
-37.03773837036181
20
-56.28048780487804
0
VERTEX
8
C3
10
-37.03773837036181
20
-56.40243902439024
0
VERTEX
8
C3
10
-36.915787150849596
20
-56.40243902439024
0
SEQEND
0
POLYLINE
8
C3
66
1
70
1
0
VERTEX
8
C3
10
-37.77392728545648
20
-55.12195121951219
0
VERTEX
8
C3
10
-37.77392728545648
20
-54.99999999999999
0
VERTEX
8
C3
10
-37.895878504968664
20
-54.99999999999999
0
VERTEX
8
C3
10
-37.895878504968664
20
-55.12195121951219
0
VERTEX
8
C3
10
-37.77392728545648
20
-55.12195121951219
0
SEQEND
0
POLYLINE
8
C3
66
1
70
1
0
VERTEX
8
C3
10
-36.284250815435996
20
-56.30615510361126
0
VERTEX
8
C3
10
-36.31955912645887
20
-56.291529922321104
0
VERTEX
8
C3
10
-36.35486743748176
20
-56.30615510361126
0
VERTEX
8
C3
10
-36.36949261877193
20
-56.341463414634156
0
VERTEX
8
C3
10
-36.35486743748176
20
-56.37677172565703
0
VERTEX
8
C3
10
-36.31955912645887
20
-56.3913969069472
0
VERTEX
8
C3
10
-36.284250815435996
20
-56.37677172565703
0
VERTEX
8
C3
10
-36.269625634145825
20
-56.341463414634156
0
VERTEX
8
C3
10
-36.284250815435996
20
-56.30615510361126
0
SEQEND
0
POLYLINE
8
C3
66
1
70
1
0
VERTEX
8
C3
10
-38.458635761229885
20
-55.1219512195122
0
VERTEX
8
C3
10
-38.458635761229885
20
-54.99999999999999
0
VERTEX
8
C3
10
-38.58058698074208
20
-54.99999999999999
0
VERTEX
8
C3
10
-38.58058698074208
20
-55.1219512195122
0
VERTEX
8
C3
10
-38.458635761229885
20
-55.1219512195122
0
SEQEND
0
POLYLINE
8
C3
66
1
70
1
0
VERTEX
8
C3
10
-39.81331016017376
20
-56.37677172565703
0
VERTEX
8
C3
10
-39.77800184915088
20
-56.3913969069472
0
VERTEX
8
C3
10
-39.742693538127995
20
-56.37677172565703
0
VERTEX
8
C3
10
-39.728068356837824
20
-56.341463414634156
0
VERTEX
8
C3
10
-39.74269353812798
20
-56.30615510361126
0
VERTEX
8
C3
10
-39.77800184915088
20
-56.291529922321104
0
VERTEX
8
C3
10
-39.81331016017376
20
-56.30615510361126
0
VERTEX
8
C3
10
-39.82793534146393
20
-56.341463414634156
0
VERTEX
8
C3
10
-39.81331016017376
20
-56.37677172565703
0
SEQEND
0
POLYLINE
8
C3
66
1
70
1
0
VERTEX
8
C3
10
-39.45726896568169
20
-54.99999999999999
0
VERTEX
8
C3
10
-39.57922018519389
20
-54.99999999999999
0
VERTEX
8
C3
10
-39.57922018519389
20
-55.12195121951219
0
VERTEX
8
C3
10
-39.45726896568169
20
-55.12195121951219
0
VERTEX
8
C3
10
-39.45726896568169
20
-54.99999999999999
0
SEQEND
0
POLYLINE
8
C3
66
1
70
1
0
VERTEX
8
C3
10
-36.52554324841057
20
-56.40243902439024
0
VERTEX
8
C3
10
-36.52554324841057
20
-55.4335464121947
0
VERTEX
8
C3
10
-37.1121300414635
20
-55.4335464121947
0
VERTEX
8
C3
10
-37.1121300414635
20
-56.17355112262202
0
VERTEX
8
C3
10
-36.64749446792277
20
-56.17355112262202
0
VERTEX
8
C3
10
-36.64749446792277
20
-56.40243902439024
0
VERTEX
8
C3
10
-36.52554324841057
20
-56.40243902439024
0
SEQEND
0
POLYLINE
8
C3
66
1
70
1
0
VERTEX
8
C3
10
-37.481718123897494
20
-55.634146341463406
0
VERTEX
8
C3
10
-37.71951219512195
20
-55.634146341463406
0
VERTEX
8
C3
10
-37.71951219512195
20
-55.89024390243902
0
VERTEX
8
C3
10
-37.60366934340968
20
-55.89024390243902
0
VERTEX
8
C3
10
-37.60366934340968
20
-56.68292682926829
0
VERTEX
8
C3
10
-37.481718123897494
20
-56.68292682926829
0
VERTEX
8
C3
10
-37.481718123897494
20
-55.634146341463406
0
SEQEND
0
POLYLINE
8
C3
66
1
70
1
0
VERTEX
8
C3
10
-33.49884699549186
20
-55.55005682990303
0
VERTEX
8
C3
10
-33.49884699549186
20
-56.18292682926829
0
VERTEX
8
C3
10
-33.328115288174786
20
-56.18292682926829
0
VERTEX
8
C3
10
-33.3281152881748
20
-56.40243902439024
0
VERTEX
8
C3
10
-33.20616406866259
20
-56.40243902439024
0
VERTEX
8
C3
10
-33.20616406866259
20
-56.18292682926829
0
VERTEX
8
C3
10
-33.035432361345514
20
-56.18292682926829
0
VERTEX
8
C3
10
-33.035432361345514
20
-55.55005682990303
0
VERTEX
8
C3
10
-33.49884699549186
20
-55.55005682990303
0
SEQEND
0
POLYLINE
8
C3
66
1
70
1
0
VERTEX
8
C3
10
-30.84760908309879
20
-57.68292682926829
0
VERTEX
8
C3
10
-30.72565786358659
20
-57.68292682926829
0
VERTEX
8
C3
10
-30.72565786358659
20
-57.5609756097561
0
VERTEX
8
C3
10
-30.84760908309879
20
-57.5609756097561
0
VERTEX
8
C3
10
-30.84760908309879
20
-57.68292682926829
0
SEQEND
0
POLYLINE
8
C3
66
1
70
1
0
VERTEX
8
C3
10
-32.632993336955266
20
-56.28048780487804
0
VERTEX
8
C3
10
-32.75494455646748
20
-56.28048780487804
0
VERTEX
8
C3
10
-32.75494455646748
20
-56.40243902439024
0
VERTEX
8
C3
10
-32.632993336955266
20
-56.40243902439024
0
VERTEX
8
C3
10
-32.632993336955266
20
-56.28048780487804
0
SEQEND
0
POLYLINE
8
C3
66
1
70
1
0
VERTEX
8
C3
10
-31.320357373496464
20
-57.5609756097561
0
VERTEX
8
C3
10
-31.320357373496464
20
-57.68292682926829
0
VERTEX
8
C3
10
-31.198406153984266
20
-57.68292682926829
0
VERTEX
8
C3
10
-31.198406153984266
20
-57.5609756097561
0
VERTEX
8
C3
10
-31.320357373496464
20
-57.5609756097561
0
SEQEND
0
POLYLINE
8
C3
66
1
70
1
0
VERTEX
8
C3
10
-31.956164068662588
20
-56.40243902439024
0
VERTEX
8
C3
10
-31.956164068662588
20
-56.28048780487804
0
VERTEX
8
C3
10
-32.0781152881748
20
-56.28048780487804
0
VERTEX
8
C3
10
-32.0781152881748
20
-56.40243902439024
0
VERTEX
8
C3
10
-31.956164068662588
20
-56.40243902439024
0
SEQEND
0
POLYLINE
8
C3
66
1
70
1
0
VERTEX
8
C3
10
-33.26418133396865
20
-57.5609756097561
0
VERTEX
8
C3
10
-33.38613255348085
20
-57.5609756097561
0
VERTEX
8
C3
10
-33.38613255348085
20
-57.68292682926829
0
VERTEX
8
C3
10
-33.26418133396865
20
-57.68292682926829
0
VERTEX
8
C3
10
-33.26418133396865
20
-57.5609756097561
0
SEQEND
0
POLYLINE
8
C3
66
1
70
1
0
VERTEX
8
C3
10
-31.53164080938619
20
-56.28048780487804
0
VERTEX
8
C3
10
-31.53164080938619
20
-56.40243902439024
0
VERTEX
8
C3
10
-31.409689589873977
20
-56.40243902439024
0
VERTEX
8
C3
10
-31.409689589873977
20
-56.28048780487804
0
VERTEX
8
C3
10
-31.53164080938619
20
-56.28048780487804
0
SEQEND
0
POLYLINE
8
C3
66
1
70
1
0
VERTEX
8
C3
10
-31.08720890422876
20
-55.12195121951219
0
VERTEX
8
C3
10
-31.08720890422876
20
-54.99999999999999
0
VERTEX
8
C3
10
-31.209160123740958
20
-54.99999999999999
0
VERTEX
8
C3
10
-31.209160123740958
20
-55.12195121951219
0
VERTEX
8
C3
10
-31.08720890422876
20
-55.12195121951219
0
SEQEND
0
POLYLINE
8
C3
66
1
70
1
0
VERTEX
8
C3
10
-31.062128614264225
20
-56.40243902439024
0
VERTEX
8
C3
10
-31.062128614264225
20
-56.28048780487804
0
VERTEX
8
C3
10
-31.184079833776437
20
-56.28048780487804
0
VERTEX
8
C3
10
-31.184079833776437
20
-56.40243902439024
0
VERTEX
8
C3
10
-31.062128614264225
20
-56.40243902439024
0
SEQEND
0
POLYLINE
8
C3
66
1
70
1
0
VERTEX
8
C3
10
-31.92026874887111
20
-55.12195121951219
0
VERTEX
8
C3
10
-31.92026874887111
20
-54.99999999999999
0
VERTEX
8
C3
10
-32.04221996838329
20
-54.99999999999999
0
VERTEX
8
C3
10
-32.04221996838329
20
-55.12195121951219
0
VERTEX
8
C3
10
-31.92026874887111
20
-55.12195121951219
0
SEQEND
0
POLYLINE
8
C3
66
1
70
1
0
VERTEX
8
C3
10
-30.430592278850625
20
-56.30615510361126
0
VERTEX
8
C3
10
-30.4659005898735
20
-56.291529922321104
0
VERTEX
8
C3
10
-30.501208900896387
20
-56.30615510361126
0
VERTEX
8
C3
10
-30.515834082186558
20
-56.341463414634156
0
VERTEX
8
C3
10
-30.501208900896387
20
-56.37677172565703
0
VERTEX
8
C3
10
-30.4659005898735
20
-56.3913969069472
0
VERTEX
8
C3
10
-30.430592278850625
20
-56.37677172565703
0
VERTEX
8
C3
10
-30.415967097560454
20
-56.341463414634156
0
VERTEX
8
C3
10
-30.430592278850625
20
-56.30615510361126
0
SEQEND
0
POLYLINE
8
C3
66
1
70
1
0
VERTEX
8
C3
10
-32.604977224644514
20
-55.1219512195122
0
VERTEX
8
C3
10
-32.604977224644514
20
-54.99999999999999
0
VERTEX
8
C3
10
-32.72692844415671
20
-54.99999999999999
0
VERTEX
8
C3
10
-32.72692844415671
20
-55.1219512195122
0
VERTEX
8
C3
10
-32.604977224644514
20
-55.1219512195122
0
SEQEND
0
POLYLINE
8
C3
66
1
70
1
0
VERTEX
8
C3
10
-33.959651623588385
20
-56.37677172565703
0
VERTEX
8
C3
10
-33.92434331256551
20
-56.3913969069472
0
VERTEX
8
C3
10
-33.889035001542624
20
-56.37677172565703
0
VERTEX
8
C3
10
-33.87440982025245
20
-56.341463414634156
0
VERTEX
8
C3
10
-33.88903500154261
20
-56.30615510361126
0
VERTEX
8
C3
10
-33.92434331256551
20
-56.291529922321104
0
VERTEX
8
C3
10
-33.959651623588385
20
-56.30615510361126
0
VERTEX
8
C3
10
-33.974276804878556
20
-56.341463414634156
0
VERTEX
8
C3
10
-33.959651623588385
20
-56.37677172565703
0
SEQEND
0
POLYLINE
8
C3
66
1
70
1
0
VERTEX
8
C3
10
-33.60361042909632
20
-54.99999999999999
0
VERTEX
8
C3
10
-33.72556164860852
20
-54.99999999999999
0
VERTEX
8
C3
10
-33.72556164860852
20
-55.12195121951219
0
VERTEX
8
C3
10
-33.60361042909632
20
-55.12195121951219
0
VERTEX
8
C3
10
-33.60361042909632
20
-54.99999999999999
0
SEQEND
0
POLYLINE
8
C3
66
1
70
1
0
VERTEX
8
C3
10
-30.6718847118252
20
-56.40243902439024
0
VERTEX
8
C3
10
-30.6718847118252
20
-55.4335464121947
0
VERTEX
8
C3
10
-31.25847150487813
20
-55.4335464121947
0
VERTEX
8
C3
10
-31.25847150487813
20
-56.17355112262202
0
VERTEX
8
C3
10
-30.793835931337398
20
-56.17355112262202
0
VERTEX
8
C3
10
-30.793835931337398
20
-56.40243902439024
0
VERTEX
8
C3
10
-30.6718847118252
20
-56.40243902439024
0
SEQEND
0
POLYLINE
8
C3
66
1
70
1
0
VERTEX
8
C3
10
-31.628059587312123
20
-55.634146341463406
0
VERTEX
8
C3
10
-31.86585365853658
20
-55.634146341463406
0
VERTEX
8
C3
10
-31.86585365853658
20
-55.89024390243902
0
VERTEX
8
C3
10
-31.750010806824307
20
-55.89024390243902
0
VERTEX
8
C3
10
-31.750010806824307
20
-56.68292682926829
0
VERTEX
8
C3
10
-31.628059587312123
20
-56.68292682926829
0
VERTEX
8
C3
10
-31.628059587312123
20
-55.634146341463406
0
SEQEND
0
POLYLINE
8
C3
66
1
70
1
0
VERTEX
8
C3
10
-27.64518845890649
20
-55.55005682990303
0
VERTEX
8
C3
10
-27.64518845890649
20
-56.18292682926829
0
VERTEX
8
C3
10
-27.474456751589415
20
-56.18292682926829
0
VERTEX
8
C3
10
-27.47445675158943
20
-56.40243902439024
0
VERTEX
8
C3
10
-27.352505532077217
20
-56.40243902439024
0
VERTEX
8
C3
10
-27.352505532077217
20
-56.18292682926829
0
VERTEX
8
C3
10
-27.181773824760143
20
-56.18292682926829
0
VERTEX
8
C3
10
-27.181773824760143
20
-55.55005682990303
0
VERTEX
8
C3
10
-27.64518845890649
20
-55.55005682990303
0
SEQEND
0
POLYLINE
8
C3
66
1
70
1
0
VERTEX
8
C3
10
-24.993950546513418
20
-57.68292682926829
0
VERTEX
8
C3
10
-24.87199932700122
20
-57.68292682926829
0
VERTEX
8
C3
10
-24.87199932700122
20
-57.5609756097561
0
VERTEX
8
C3
10
-24.993950546513418
20
-57.5609756097561
0
VERTEX
8
C3
10
-24.993950546513418
20
-57.68292682926829
0
SEQEND
0
POLYLINE
8
C3
66
1
70
1
0
VERTEX
8
C3
10
-26.779334800369895
20
-56.28048780487804
0
VERTEX
8
C3
10
-26.901286019882107
20
-56.28048780487804
0
VERTEX
8
C3
10
-26.901286019882107
20
-56.40243902439024
0
VERTEX
8
C3
10
-26.779334800369895
20
-56.40243902439024
0
VERTEX
8
C3
10
-26.779334800369895
20
-56.28048780487804
0
SEQEND
0
POLYLINE
8
C3
66
1
70
1
0
VERTEX
8
C3
10
-25.466698836911092
20
-57.5609756097561
0
VERTEX
8
C3
10
-25.466698836911092
20
-57.68292682926829
0
VERTEX
8
C3
10
-25.344747617398895
20
-57.68292682926829
0
VERTEX
8
C3
10
-25.344747617398895
20
-57.5609756097561
0
VERTEX
8
C3
10
-25.466698836911092
20
-57.5609756097561
0
SEQEND
0
POLYLINE
8
C3
66
1
70
1
0
VERTEX
8
C3
10
-26.102505532077217
20
-56.40243902439024
0
VERTEX
8
C3
10
-26.102505532077217
20
-56.28048780487804
0
VERTEX
8
C3
10
-26.22445675158943
20
-56.28048780487804
0
VERTEX
8
C3
10
-26.22445675158943
20
-56.40243902439024
0
VERTEX
8
C3
10
-26.102505532077217
20
-56.40243902439024
0
SEQEND
0
POLYLINE
8
C3
66
1
70
1
0
VERTEX
8
C3
10
-27.41052279738328
20
-57.5609756097561
0
VERTEX
8
C3
10
-27.532474016895478
20
-57.5609756097561
0
VERTEX
8
C3
10
-27.532474016895478
20
-57.68292682926829
0
VERTEX
8
C3
10
-27.41052279738328
20
-57.68292682926829
0
VERTEX
8
C3
10
-27.41052279738328
20
-57.5609756097561
0
SEQEND
0
POLYLINE
8
C3
66
1
70
1
0
VERTEX
8
C3
10
-25.67798227280082
20
-56.28048780487804
0
VERTEX
8
C3
10
-25.67798227280082
20
-56.40243902439024
0
VERTEX
8
C3
10
-25.556031053288606
20
-56.40243902439024
0
VERTEX
8
C3
10
-25.556031053288606
20
-56.28048780487804
0
VERTEX
8
C3
10
-25.67798227280082
20
-56.28048780487804
0
SEQEND
0
POLYLINE
8
C3
66
1
70
1
0
VERTEX
8
C3
10
-25.23355036764339
20
-55.12195121951219
0
VERTEX
8
C3
10
-25.23355036764339
20
-54.99999999999999
0
VERTEX
8
C3
10
-25.355501587155587
20
-54.99999999999999
0
VERTEX
8
C3
10
-25.355501587155587
20
-55.12195121951219
0
VERTEX
8
C3
10
-25.23355036764339
20
-55.12195121951219
0
SEQEND
0
POLYLINE
8
C3
66
1
70
1
0
VERTEX
8
C3
10
-25.208470077678854
20
-56.40243902439024
0
VERTEX
8
C3
10
-25.208470077678854
20
-56.28048780487804
0
VERTEX
8
C3
10
-25.330421297191066
20
-56.28048780487804
0
VERTEX
8
C3
10
-25.330421297191066
20
-56.40243902439024
0
VERTEX
8
C3
10
-25.208470077678854
20
-56.40243902439024
0
SEQEND
0
POLYLINE
8
C3
66
1
70
1
0
VERTEX
8
C3
10
-26.066610212285738
20
-55.12195121951219
0
VERTEX
8
C3
10
-26.066610212285738
20
-54.99999999999999
0
VERTEX
8
C3
10
-26.188561431797922
20
-54.99999999999999
0
VERTEX
8
C3
10
-26.188561431797922
20
-55.12195121951219
0
VERTEX
8
C3
10
-26.066610212285738
20
-55.12195121951219
0
SEQEND
0
POLYLINE
8
C3
66
1
70
1
0
VERTEX
8
C3
10
-24.576933742265254
20
-56.30615510361126
0
VERTEX
8
C3
10
-24.612242053288128
20
-56.291529922321104
0
VERTEX
8
C3
10
-24.647550364311016
20
-56.30615510361126
0
VERTEX
8
C3
10
-24.662175545601187
20
-56.341463414634156
0
VERTEX
8
C3
10
-24.647550364311016
20
-56.37677172565703
0
VERTEX
8
C3
10
-24.612242053288128
20
-56.3913969069472
0
VERTEX
8
C3
10
-24.576933742265254
20
-56.37677172565703
0
VERTEX
8
C3
10
-24.562308560975083
20
-56.341463414634156
0
VERTEX
8
C3
10
-24.576933742265254
20
-56.30615510361126
0
SEQEND
0
POLYLINE
8
C3
66
1
70
1
0
VERTEX
8
C3
10
-26.751318688059143
20
-55.1219512195122
0
VERTEX
8
C3
10
-26.751318688059143
20
-54.99999999999999
0
VERTEX
8
C3
10
-26.87326990757134
20
-54.99999999999999
0
VERTEX
8
C3
10
-26.87326990757134
20
-55.1219512195122
0
VERTEX
8
C3
10
-26.751318688059143
20
-55.1219512195122
0
SEQEND
0
POLYLINE
8
C3
66
1
70
1
0
VERTEX
8
C3
10
-28.105993087003014
20
-56.37677172565703
0
VERTEX
8
C3
10
-28.07068477598014
20
-56.3913969069472
0
VERTEX
8
C3
10
-28.035376464957253
20
-56.37677172565703
0
VERTEX
8
C3
10
-28.02075128366708
20
-56.341463414634156
0
VERTEX
8
C3
10
-28.03537646495724
20
-56.30615510361126
0
VERTEX
8
C3
10
-28.07068477598014
20
-56.291529922321104
0
VERTEX
8
C3
10
-28.105993087003014
20
-56.30615510361126
0
VERTEX
8
C3
10
-28.120618268293185
20
-56.341463414634156
0
VERTEX
8
C3
10
-28.105993087003014
20
-56.37677172565703
0
SEQEND
0
POLYLINE
8
C3
66
1
70
1
0
VERTEX
8
C3
10
-27.74995189251095
20
-54.99999999999999
0
VERTEX
8
C3
10
-27.871903112023148
20
-54.99999999999999
0
VERTEX
8
C3
10
-27.871903112023148
20
-55.12195121951219
0
VERTEX
8
C3
10
-27.74995189251095
20
-55.12195121951219
0
VERTEX
8
C3
10
-27.74995189251095
20
-54.99999999999999
0
SEQEND
0
POLYLINE
8
C3
66
1
70
1
0
VERTEX
8
C3
10
-24.81822617523983
20
-56.40243902439024
0
VERTEX
8
C3
10
-24.81822617523983
20
-55.4335464121947
0
VERTEX
8
C3
10
-25.40481296829276
20
-55.4335464121947
0
VERTEX
8
C3
10
-25.40481296829276
20
-56.17355112262202
0
VERTEX
8
C3
10
-24.940177394752027
20
-56.17355112262202
0
VERTEX
8
C3
10
-24.940177394752027
20
-56.40243902439024
0
VERTEX
8
C3
10
-24.81822617523983
20
-56.40243902439024
0
SEQEND
0
POLYLINE
8
C3
66
1
70
1
0
VERTEX
8
C3
10
-25.774401050726752
20
-55.634146341463406
0
VERTEX
8
C3
10
-26.01219512195121
20
-55.634146341463406
0
VERTEX
8
C3
10
-26.01219512195121
20
-55.89024390243902
0
VERTEX
8
C3
10
-25.896352270238935
20
-55.89024390243902
0
VERTEX
8
C3
10
-25.896352270238935
20
-56.68292682926829
0
VERTEX
8
C3
10
-25.774401050726752
20
-56.68292682926829
0
VERTEX
8
C3
10
-25.774401050726752
20
-55.634146341463406
0
SEQEND
0
POLYLINE
8
C3
66
1
70
1
0
VERTEX
8
C3
10
-21.791529922321132
20
-55.55005682990303
0
VERTEX
8
C3
10
-21.791529922321132
20
-56.18292682926829
0
VERTEX
8
C3
10
-21.620798215004058
20
-56.18292682926829
0
VERTEX
8
C3
10
-21.620798215004072
20
-56.40243902439024
0
VERTEX
8
C3
10
-21.49884699549186
20
-56.40243902439024
0
VERTEX
8
C3
10
-21.49884699549186
20
-56.18292682926829
0
VERTEX
8
C3
10
-21.328115288174786
20
-56.18292682926829
0
VERTEX
8
C3
10
-21.328115288174786
20
-55.55005682990303
0
VERTEX
8
C3
10
-21.791529922321132
20
-55.55005682990303
0
SEQEND
0
POLYLINE
8
C3
66
1
70
1
0
VERTEX
8
C3
10
-19.14029200992806
20
-57.68292682926829
0
VERTEX
8
C3
10
-19.018340790415863
20
-57.68292682926829
0
VERTEX
8
C3
10
-19.018340790415863
20
-57.5609756097561
0
VERTEX
8
C3
10
-19.14029200992806
20
-57.5609756097561
0
VERTEX
8
C3
10
-19.14029200992806
20
-57.68292682926829
0
SEQEND
0
POLYLINE
8
C3
66
1
70
1
0
VERTEX
8
C3
10
-20.92567626378454
20
-56.28048780487804
0
VERTEX
8
C3
10
-21.04762748329675
20
-56.28048780487804
0
VERTEX
8
C3
10
-21.04762748329675
20
-56.40243902439024
0
VERTEX
8
C3
10
-20.92567626378454
20
-56.40243902439024
0
VERTEX
8
C3
10
-20.92567626378454
20
-56.28048780487804
0
SEQEND
0
POLYLINE
8
C3
66
1
70
1
0
VERTEX
8
C3
10
-19.613040300325736
20
-57.5609756097561
0
VERTEX
8
C3
10
-19.613040300325736
20
-57.68292682926829
0
VERTEX
8
C3
10
-19.491089080813538
20
-57.68292682926829
0
VERTEX
8
C3
10
-19.491089080813538
20
-57.5609756097561
0
VERTEX
8
C3
10
-19.613040300325736
20
-57.5609756097561
0
SEQEND
0
POLYLINE
8
C3
66
1
70
1
0
VERTEX
8
C3
10
-20.24884699549186
20
-56.40243902439024
0
VERTEX
8
C3
10
-20.24884699549186
20
-56.28048780487804
0
VERTEX
8
C3
10
-20.370798215004072
20
-56.28048780487804
0
VERTEX
8
C3
10
-20.370798215004072
20
-56.40243902439024
0
VERTEX
8
C3
10
-20.24884699549186
20
-56.40243902439024
0
SEQEND
0
POLYLINE
8
C3
66
1
70
1
0
VERTEX
8
C3
10
-21.556864260797923
20
-57.5609756097561
0
VERTEX
8
C3
10
-21.67881548031012
20
-57.5609756097561
0
VERTEX
8
C3
10
-21.67881548031012
20
-57.68292682926829
0
VERTEX
8
C3
10
-21.556864260797923
20
-57.68292682926829
0
VERTEX
8
C3
10
-21.556864260797923
20
-57.5609756097561
0
SEQEND
0
POLYLINE
8
C3
66
1
70
1
0
VERTEX
8
C3
10
-19.82432373621546
20
-56.28048780487804
0
VERTEX
8
C3
10
-19.82432373621546
20
-56.40243902439024
0
VERTEX
8
C3
10
-19.70237251670325
20
-56.40243902439024
0
VERTEX
8
C3
10
-19.70237251670325
20
-56.28048780487804
0
VERTEX
8
C3
10
-19.82432373621546
20
-56.28048780487804
0
SEQEND
0
POLYLINE
8
C3
66
1
70
1
0
VERTEX
8
C3
10
-19.379891831058032
20
-55.12195121951219
0
VERTEX
8
C3
10
-19.379891831058032
20
-54.99999999999999
0
VERTEX
8
C3
10
-19.50184305057023
20
-54.99999999999999
0
VERTEX
8
C3
10
-19.50184305057023
20
-55.12195121951219
0
VERTEX
8
C3
10
-19.379891831058032
20
-55.12195121951219
0
SEQEND
0
POLYLINE
8
C3
66
1
70
1
0
VERTEX
8
C3
10
-19.354811541093497
20
-56.40243902439024
0
VERTEX
8
C3
10
-19.354811541093497
20
-56.28048780487804
0
VERTEX
8
C3
10
-19.47676276060571
20
-56.28048780487804
0
VERTEX
8
C3
10
-19.47676276060571
20
-56.40243902439024
0
VERTEX
8
C3
10
-19.354811541093497
20
-56.40243902439024
0
SEQEND
0
POLYLINE
8
C3
66
1
70
1
0
VERTEX
8
C3
10
-20.21295167570038
20
-55.12195121951219
0
VERTEX
8
C3
10
-20.21295167570038
20
-54.99999999999999
0
VERTEX
8
C3
10
-20.334902895212565
20
-54.99999999999999
0
VERTEX
8
C3
10
-20.334902895212565
20
-55.12195121951219
0
VERTEX
8
C3
10
-20.21295167570038
20
-55.12195121951219
0
SEQEND
0
POLYLINE
8
C3
66
1
70
1
0
VERTEX
8
C3
10
-18.723275205679897
20
-56.30615510361126
0
VERTEX
8
C3
10
-18.75858351670277
20
-56.291529922321104
0
VERTEX
8
C3
10
-18.79389182772566
20
-56.30615510361126
0
VERTEX
8
C3
10
-18.80851700901583
20
-56.341463414634156
0
VERTEX
8
C3
10
-18.79389182772566
20
-56.37677172565703
0
VERTEX
8
C3
10
-18.75858351670277
20
-56.3913969069472
0
VERTEX
8
C3
10
-18.723275205679897
20
-56.37677172565703
0
VERTEX
8
C3
10
-18.708650024389726
20
-56.341463414634156
0
VERTEX
8
C3
10
-18.723275205679897
20
-56.30615510361126
0
SEQEND
0
POLYLINE
8
C3
66
1
70
1
0
VERTEX
8
C3
10
-20.897660151473787
20
-55.1219512195122
0
VERTEX
8
C3
10
-20.897660151473787
20
-54.99999999999999
0
VERTEX
8
C3
10
-21.019611370985984
20
-54.99999999999999
0
VERTEX
8
C3
10
-21.019611370985984
20
-55.1219512195122
0
VERTEX
8
C3
10
-20.897660151473787
20
-55.1219512195122
0
SEQEND
0
POLYLINE
8
C3
66
1
70
1
0
VERTEX
8
C3
10
-22.252334550417658
20
-56.37677172565703
0
VERTEX
8
C3
10
-22.217026239394784
20
-56.3913969069472
0
VERTEX
8
C3
10
-22.181717928371896
20
-56.37677172565703
0
VERTEX
8
C3
10
-22.167092747081725
20
-56.341463414634156
0
VERTEX
8
C3
10
-22.18171792837188
20
-56.30615510361126
0
VERTEX
8
C3
10
-22.217026239394784
20
-56.291529922321104
0
VERTEX
8
C3
10
-22.252334550417658
20
-56.30615510361126
0
VERTEX
8
C3
10
-22.26695973170783
20
-56.341463414634156
0
VERTEX
8
C3
10
-22.252334550417658
20
-56.37677172565703
0
SEQEND
0
POLYLINE
8
C3
66
1
70
1
0
VERTEX
8
C3
10
-21.896293355925593
20
-54.99999999999999
0
VERTEX
8
C3
10
-22.01824457543779
20
-54.99999999999999
0
VERTEX
8
C3
10
-22.01824457543779
20
-55.12195121951219
0
VERTEX
8
C3
10
-21.896293355925593
20
-55.12195121951219
0
VERTEX
8
C3
10
-21.896293355925593
20
-54.99999999999999
0
SEQEND
0
POLYLINE
8
C3
66
1
70
1
0
VERTEX
8
C3
10
-18.964567638654472
20
-56.40243902439024
0
VERTEX
8
C3
10
-18.964567638654472
20
-55.4335464121947
0
VERTEX
8
C3
10
-19.551154431707403
20
-55.4335464121947
0
VERTEX
8
C3
10
-19.551154431707403
20
-56.17355112262202
0
VERTEX
8
C3
10
-19.08651885816667
20
-56.17355112262202
0
VERTEX
8
C3
10
-19.08651885816667
20
-56.40243902439024
0
VERTEX
8
C3
10
-18.964567638654472
20
-56.40243902439024
0
SEQEND
0
POLYLINE
8
C3
66
1
70
1
0
VERTEX
8
C3
10
-19.920742514141395
20
-55.634146341463406
0
VERTEX
8
C3
10
-20.15853658536585
20
-55.634146341463406
0
VERTEX
8
C3
10
-20.15853658536585
20
-55.89024390243902
0
VERTEX
8
C3
10
-20.04269373365358
20
-55.89024390243902
0
VERTEX
8
C3
10
-20.04269373365358
20
-56.68292682926829
0
VERTEX
8
C3
10
-19.920742514141395
20
-56.68292682926829
0
VERTEX
8
C3
10
-19.920742514141395
20
-55.634146341463406
0
SEQEND
0
POLYLINE
8
C3
66
1
70
1
0
VERTEX
8
C3
10
-15.937871385735761
20
-55.55005682990303
0
VERTEX
8
C3
10
-15.937871385735761
20
-56.18292682926829
0
VERTEX
8
C3
10
-15.767139678418687
20
-56.18292682926829
0
VERTEX
8
C3
10
-15.767139678418701
20
-56.40243902439024
0
VERTEX
8
C3
10
-15.645188458906489
20
-56.40243902439024
0
VERTEX
8
C3
10
-15.645188458906489
20
-56.18292682926829
0
VERTEX
8
C3
10
-15.474456751589415
20
-56.18292682926829
0
VERTEX
8
C3
10
-15.474456751589415
20
-55.55005682990303
0
VERTEX
8
C3
10
-15.937871385735761
20
-55.55005682990303
0
SEQEND
0
POLYLINE
8
C3
66
1
70
1
0
VERTEX
8
C3
10
-13.28663347334269
20
-57.68292682926829
0
VERTEX
8
C3
10
-13.164682253830492
20
-57.68292682926829
0
VERTEX
8
C3
10
-13.164682253830492
20
-57.5609756097561
0
VERTEX
8
C3
10
-13.28663347334269
20
-57.5609756097561
0
VERTEX
8
C3
10
-13.28663347334269
20
-57.68292682926829
0
SEQEND
0
POLYLINE
8
C3
66
1
70
1
0
VERTEX
8
C3
10
-15.072017727199167
20
-56.28048780487804
0
VERTEX
8
C3
10
-15.19396894671138
20
-56.28048780487804
0
VERTEX
8
C3
10
-15.19396894671138
20
-56.40243902439024
0
VERTEX
8
C3
10
-15.072017727199167
20
-56.40243902439024
0
VERTEX
8
C3
10
-15.072017727199167
20
-56.28048780487804
0
SEQEND
0
POLYLINE
8
C3
66
1
70
1
0
VERTEX
8
C3
10
-13.759381763740365
20
-57.5609756097561
0
VERTEX
8
C3
10
-13.759381763740365
20
-57.68292682926829
0
VERTEX
8
C3
10
-13.637430544228167
20
-57.68292682926829
0
VERTEX
8
C3
10
-13.637430544228167
20
-57.5609756097561
0
VERTEX
8
C3
10
-13.759381763740365
20
-57.5609756097561
0
SEQEND
0
POLYLINE
8
C3
66
1
70
1
0
VERTEX
8
C3
10
-14.395188458906489
20
-56.40243902439024
0
VERTEX
8
C3
10
-14.395188458906489
20
-56.28048780487804
0
VERTEX
8
C3
10
-14.517139678418701
20
-56.28048780487804
0
VERTEX
8
C3
10
-14.517139678418701
20
-56.40243902439024
0
VERTEX
8
C3
10
-14.395188458906489
20
-56.40243902439024
0
SEQEND
0
POLYLINE
8
C3
66
1
70
1
0
VERTEX
8
C3
10
-15.703205724212552
20
-57.5609756097561
0
VERTEX
8
C3
10
-15.82515694372475
20
-57.5609756097561
0
VERTEX
8
C3
10
-15.82515694372475
20
-57.68292682926829
0
VERTEX
8
C3
10
-15.703205724212552
20
-57.68292682926829
0
VERTEX
8
C3
10
-15.703205724212552
20
-57.5609756097561
0
SEQEND
0
POLYLINE
8
C3
66
1
70
1
0
VERTEX
8
C3
10
-13.97066519963009
20
-56.28048780487804
0
VERTEX
8
C3
10
-13.97066519963009
20
-56.40243902439024
0
VERTEX
8
C3
10
-13.848713980117878
20
-56.40243902439024
0
VERTEX
8
C3
10
-13.848713980117878
20
-56.28048780487804
0
VERTEX
8
C3
10
-13.97066519963009
20
-56.28048780487804
0
SEQEND
0
POLYLINE
8
C3
66
1
70
1
0
VERTEX
8
C3
10
-13.52623329447266
20
-55.12195121951219
0
VERTEX
8
C3
10
-13.52623329447266
20
-54.99999999999999
0
VERTEX
8
C3
10
-13.648184513984859
20
-54.99999999999999
0
VERTEX
8
C3
10
-13.648184513984859
20
-55.12195121951219
0
VERTEX
8
C3
10
-13.52623329447266
20
-55.12195121951219
0
SEQEND
0
POLYLINE
8
C3
66
1
70
1
0
VERTEX
8
C3
10
-13.501153004508126
20
-56.40243902439024
0
VERTEX
8
C3
10
-13.501153004508126
20
-56.28048780487804
0
VERTEX
8
C3
10
-13.623104224020338
20
-56.28048780487804
0
VERTEX
8
C3
10
-13.623104224020338
20
-56.40243902439024
0
VERTEX
8
C3
10
-13.501153004508126
20
-56.40243902439024
0
SEQEND
0
POLYLINE
8
C3
66
1
70
1
0
VERTEX
8
C3
10
-14.35929313911501
20
-55.12195121951219
0
VERTEX
8
C3
10
-14.35929313911501
20
-54.99999999999999
0
VERTEX
8
C3
10
-14.481244358627194
20
-54.99999999999999
0
VERTEX
8
C3
10
-14.481244358627194
20
-55.12195121951219
0
VERTEX
8
C3
10
-14.35929313911501
20
-55.12195121951219
0
SEQEND
0
POLYLINE
8
C3
66
1
70
1
0
VERTEX
8
C3
10
-12.869616669094526
20
-56.30615510361126
0
VERTEX
8
C3
10
-12.9049249801174
20
-56.291529922321104
0
VERTEX
8
C3
10
-12.940233291140288
20
-56.30615510361126
0
VERTEX
8
C3
10
-12.954858472430459
20
-56.341463414634156
0
VERTEX
8
C3
10
-12.940233291140288
20
-56.37677172565703
0
VERTEX
8
C3
10
-12.9049249801174
20
-56.3913969069472
0
VERTEX
8
C3
10
-12.869616669094526
20
-56.37677172565703
0
VERTEX
8
C3
10
-12.854991487804355
20
-56.341463414634156
0
VERTEX
8
C3
10
-12.869616669094526
20
-56.30615510361126
0
SEQEND
0
POLYLINE
8
C3
66
1
70
1
0
VERTEX
8
C3
10
-15.044001614888415
20
-55.1219512195122
0
VERTEX
8
C3
10
-15.044001614888415
20
-54.99999999999999
0
VERTEX
8
C3
10
-15.165952834400613
20
-54.99999999999999
0
VERTEX
8
C3
10
-15.165952834400613
20
-55.1219512195122
0
VERTEX
8
C3
10
-15.044001614888415
20
-55.1219512195122
0
SEQEND
0
POLYLINE
8
C3
66
1
70
1
0
VERTEX
8
C3
10
-16.398676013832286
20
-56.37677172565703
0
VERTEX
8
C3
10
-16.363367702809413
20
-56.3913969069472
0
VERTEX
8
C3
10
-16.328059391786525
20
-56.37677172565703
0
VERTEX
8
C3
10
-16.313434210496354
20
-56.341463414634156
0
VERTEX
8
C3
10
-16.32805939178651
20
-56.30615510361126
0
VERTEX
8
C3
10
-16.363367702809413
20
-56.291529922321104
0
VERTEX
8
C3
10
-16.398676013832286
20
-56.30615510361126
0
VERTEX
8
C3
10
-16.413301195122457
20
-56.341463414634156
0
VERTEX
8
C3
10
-16.398676013832286
20
-56.37677172565703
0
SEQEND
0
POLYLINE
8
C3
66
1
70
1
0
VERTEX
8
C3
10
-16.042634819340222
20
-54.99999999999999
0
VERTEX
8
C3
10
-16.16458603885242
20
-54.99999999999999
0
VERTEX
8
C3
10
-16.16458603885242
20
-55.12195121951219
0
VERTEX
8
C3
10
-16.042634819340222
20
-55.12195121951219
0
VERTEX
8
C3
10
-16.042634819340222
20
-54.99999999999999
0
SEQEND
0
POLYLINE
8
C3
66
1
70
1
0
VERTEX
8
C3
10
-13.110909102069101
20
-56.40243902439024
0
VERTEX
8
C3
10
-13.110909102069101
20
-55.4335464121947
0
VERTEX
8
C3
10
-13.697495895122032
20
-55.4335464121947
0
VERTEX
8
C3
10
-13.697495895122032
20
-56.17355112262202
0
VERTEX
8
C3
10
-13.232860321581299
20
-56.17355112262202
0
VERTEX
8
C3
10
-13.232860321581299
20
-56.40243902439024
0
VERTEX
8
C3
10
-13.110909102069101
20
-56.40243902439024
0
SEQEND
0
POLYLINE
8
C3
66
1
70
1
0
VERTEX
8
C3
10
-14.067083977556024
20
-55.634146341463406
0
VERTEX
8
C3
10
-14.30487804878048
20
-55.634146341463406
0
VERTEX
8
C3
10
-14.30487804878048
20
-55.89024390243902
0
VERTEX
8
C3
10
-14.189035197068208
20
-55.89024390243902
0
VERTEX
8
C3
10
-14.189035197068208
20
-56.68292682926829
0
VERTEX
8
C3
10
-14.067083977556024
20
-56.68292682926829
0
VERTEX
8
C3
10
-14.067083977556024
20
-55.634146341463406
0
SEQEND
0
POLYLINE
8
C3
66
1
70
1
0
VERTEX
8
C3
10
-10.08421284915039
20
-55.55005682990303
0
VERTEX
8
C3
10
-10.08421284915039
20
-56.18292682926829
0
VERTEX
8
C3
10
-9.913481141833316
20
-56.18292682926829
0
VERTEX
8
C3
10
-9.91348114183333
20
-56.40243902439024
0
VERTEX
8
C3
10
-9.791529922321118
20
-56.40243902439024
0
VERTEX
8
C3
10
-9.791529922321118
20
-56.18292682926829
0
VERTEX
8
C3
10
-9.620798215004044
20
-56.18292682926829
0
VERTEX
8
C3
10
-9.620798215004044
20
-55.55005682990303
0
VERTEX
8
C3
10
-10.08421284915039
20
-55.55005682990303
0
SEQEND
0
POLYLINE
8
C3
66
1
70
1
0
VERTEX
8
C3
10
-7.432974936757319
20
-57.68292682926829
0
VERTEX
8
C3
10
-7.311023717245121
20
-57.68292682926829
0
VERTEX
8
C3
10
-7.311023717245121
20
-57.5609756097561
0
VERTEX
8
C3
10
-7.432974936757319
20
-57.5609756097561
0
VERTEX
8
C3
10
-7.432974936757319
20
-57.68292682926829
0
SEQEND
0
POLYLINE
8
C3
66
1
70
1
0
VERTEX
8
C3
10
-9.218359190613796
20
-56.28048780487804
0
VERTEX
8
C3
10
-9.340310410126008
20
-56.28048780487804
0
VERTEX
8
C3
10
-9.340310410126008
20
-56.40243902439024
0
VERTEX
8
C3
10
-9.218359190613796
20
-56.40243902439024
0
VERTEX
8
C3
10
-9.218359190613796
20
-56.28048780487804
0
SEQEND
0
POLYLINE
8
C3
66
1
70
1
0
VERTEX
8
C3
10
-7.9057232271549935
20
-57.5609756097561
0
VERTEX
8
C3
10
-7.9057232271549935
20
-57.68292682926829
0
VERTEX
8
C3
10
-7.783772007642796
20
-57.68292682926829
0
VERTEX
8
C3
10
-7.783772007642796
20
-57.5609756097561
0
VERTEX
8
C3
10
-7.9057232271549935
20
-57.5609756097561
0
SEQEND
0
POLYLINE
8
C3
66
1
70
1
0
VERTEX
8
C3
10
-8.541529922321118
20
-56.40243902439024
0
VERTEX
8
C3
10
-8.541529922321118
20
-56.28048780487804
0
VERTEX
8
C3
10
-8.66348114183333
20
-56.28048780487804
0
VERTEX
8
C3
10
-8.66348114183333
20
-56.40243902439024
0
VERTEX
8
C3
10
-8.541529922321118
20
-56.40243902439024
0
SEQEND
0
POLYLINE
8
C3
66
1
70
1
0
VERTEX
8
C3
10
-9.84954718762718
20
-57.5609756097561
0
VERTEX
8
C3
10
-9.971498407139379
20
-57.5609756097561
0
VERTEX
8
C3
10
-9.971498407139379
20
-57.68292682926829
0
VERTEX
8
C3
10
-9.84954718762718
20
-57.68292682926829
0
VERTEX
8
C3
10
-9.84954718762718
20
-57.5609756097561
0
SEQEND
0
POLYLINE
8
C3
66
1
70
1
0
VERTEX
8
C3
10
-8.11700666304472
20
-56.28048780487804
0
VERTEX
8
C3
10
-8.11700666304472
20
-56.40243902439024
0
VERTEX
8
C3
10
-7.995055443532507
20
-56.40243902439024
0
VERTEX
8
C3
10
-7.995055443532507
20
-56.28048780487804
0
VERTEX
8
C3
10
-8.11700666304472
20
-56.28048780487804
0
SEQEND
0
POLYLINE
8
C3
66
1
70
1
0
VERTEX
8
C3
10
-7.67257475788729
20
-55.12195121951219
0
VERTEX
8
C3
10
-7.67257475788729
20
-54.99999999999999
0
VERTEX
8
C3
10
-7.794525977399488
20
-54.99999999999999
0
VERTEX
8
C3
10
-7.794525977399488
20
-55.12195121951219
0
VERTEX
8
C3
10
-7.67257475788729
20
-55.12195121951219
0
SEQEND
0
POLYLINE
8
C3
66
1
70
1
0
VERTEX
8
C3
10
-7.647494467922755
20
-56.40243902439024
0
VERTEX
8
C3
10
-7.647494467922755
20
-56.28048780487804
0
VERTEX
8
C3
10
-7.769445687434967
20
-56.28048780487804
0
VERTEX
8
C3
10
-7.769445687434967
20
-56.40243902439024
0
VERTEX
8
C3
10
-7.647494467922755
20
-56.40243902439024
0
SEQEND
0
POLYLINE
8
C3
66
1
70
1
0
VERTEX
8
C3
10
-8.50563460252964
20
-55.12195121951219
0
VERTEX
8
C3
10
-8.50563460252964
20
-54.99999999999999
0
VERTEX
8
C3
10
-8.627585822041823
20
-54.99999999999999
0
VERTEX
8
C3
10
-8.627585822041823
20
-55.12195121951219
0
VERTEX
8
C3
10
-8.50563460252964
20
-55.12195121951219
0
SEQEND
0
POLYLINE
8
C3
66
1
70
1
0
VERTEX
8
C3
10
-7.015958132509155
20
-56.30615510361126
0
VERTEX
8
C3
10
-7.051266443532029
20
-56.291529922321104
0
VERTEX
8
C3
10
-7.086574754554917
20
-56.30615510361126
0
VERTEX
8
C3
10
-7.101199935845088
20
-56.341463414634156
0
VERTEX
8
C3
10
-7.086574754554917
20
-56.37677172565703
0
VERTEX
8
C3
10
-7.051266443532029
20
-56.3913969069472
0
VERTEX
8
C3
10
-7.015958132509155
20
-56.37677172565703
0
VERTEX
8
C3
10
-7.001332951218984
20
-56.341463414634156
0
VERTEX
8
C3
10
-7.015958132509155
20
-56.30615510361126
0
SEQEND
0
POLYLINE
8
C3
66
1
70
1
0
VERTEX
8
C3
10
-9.190343078303044
20
-55.1219512195122
0
VERTEX
8
C3
10
-9.190343078303044
20
-54.99999999999999
0
VERTEX
8
C3
10
-9.312294297815242
20
-54.99999999999999
0
VERTEX
8
C3
10
-9.312294297815242
20
-55.1219512195122
0
VERTEX
8
C3
10
-9.190343078303044
20
-55.1219512195122
0
SEQEND
0
POLYLINE
8
C3
66
1
70
1
0
VERTEX
8
C3
10
-10.545017477246915
20
-56.37677172565703
0
VERTEX
8
C3
10
-10.509709166224042
20
-56.3913969069472
0
VERTEX
8
C3
10
-10.474400855201154
20
-56.37677172565703
0
VERTEX
8
C3
10
-10.459775673910983
20
-56.341463414634156
0
VERTEX
8
C3
10
-10.47440085520114
20
-56.30615510361126
0
VERTEX
8
C3
10
-10.509709166224042
20
-56.291529922321104
0
VERTEX
8
C3
10
-10.545017477246915
20
-56.30615510361126
0
VERTEX
8
C3
10
-10.559642658537086
20
-56.341463414634156
0
VERTEX
8
C3
10
-10.545017477246915
20
-56.37677172565703
0
SEQEND
0
POLYLINE
8
C3
66
1
70
1
0
VERTEX
8
C3
10
-10.188976282754851
20
-54.99999999999999
0
VERTEX
8
C3
10
-10.310927502267049
20
-54.99999999999999
0
VERTEX
8
C3
10
-10.310927502267049
20
-55.12195121951219
0
VERTEX
8
C3
10
-10.188976282754851
20
-55.12195121951219
0
VERTEX
8
C3
10
-10.188976282754851
20
-54.99999999999999
0
SEQEND
0
POLYLINE
8
C3
66
1
70
1
0
VERTEX
8
C3
10
-7.25725056548373
20
-56.40243902439024
0
VERTEX
8
C3
10
-7.25725056548373
20
-55.4335464121947
0
VERTEX
8
C3
10
-7.8438373585366605
20
-55.4335464121947
0
VERTEX
8
C3
10
-7.8438373585366605
20
-56.17355112262202
0
VERTEX
8
C3
10
-7.379201784995928
20
-56.17355112262202
0
VERTEX
8
C3
10
-7.379201784995928
20
-56.40243902439024
0
VERTEX
8
C3
10
-7.25725056548373
20
-56.40243902439024
0
SEQEND
0
POLYLINE
8
C3
66
1
70
1
0
VERTEX
8
C3
10
-8.213425440970653
20
-55.634146341463406
0
VERTEX
8
C3
10
-8.45121951219511
20
-55.634146341463406
0
VERTEX
8
C3
10
-8.45121951219511
20
-55.89024390243902
0
VERTEX
8
C3
10
-8.335376660482837
20
-55.89024390243902
0
VERTEX
8
C3
10
-8.335376660482837
20
-56.68292682926829
0
VERTEX
8
C3
10
-8.213425440970653
20
-56.68292682926829
0
VERTEX
8
C3
10
-8.213425440970653
20
-55.634146341463406
0
SEQEND
0
POLYLINE
8
C3
66
1
70
1
0
VERTEX
8
C3
10
-4.230554312565033
20
-55.55005682990303
0
VERTEX
8
C3
10
-4.230554312565033
20
-56.18292682926829
0
VERTEX
8
C3
10
-4.059822605247959
20
-56.18292682926829
0
VERTEX
8
C3
10
-4.059822605247973
20
-56.40243902439024
0
VERTEX
8
C3
10
-3.937871385735761
20
-56.40243902439024
0
VERTEX
8
C3
10
-3.937871385735761
20
-56.18292682926829
0
VERTEX
8
C3
10
-3.767139678418687
20
-56.18292682926829
0
VERTEX
8
C3
10
-3.767139678418687
20
-55.55005682990303
0
VERTEX
8
C3
10
-4.230554312565033
20
-55.55005682990303
0
SEQEND
0
POLYLINE
8
C3
66
1
70
1
0
VERTEX
8
C3
10
-1.5793164001719617
20
-57.68292682926829
0
VERTEX
8
C3
10
-1.4573651806597638
20
-57.68292682926829
0
VERTEX
8
C3
10
-1.4573651806597638
20
-57.5609756097561
0
VERTEX
8
C3
10
-1.5793164001719617
20
-57.5609756097561
0
VERTEX
8
C3
10
-1.5793164001719617
20
-57.68292682926829
0
SEQEND
0
POLYLINE
8
C3
66
1
70
1
0
VERTEX
8
C3
10
-3.3647006540284394
20
-56.28048780487804
0
VERTEX
8
C3
10
-3.4866518735406515
20
-56.28048780487804
0
VERTEX
8
C3
10
-3.4866518735406515
20
-56.40243902439024
0
VERTEX
8
C3
10
-3.3647006540284394
20
-56.40243902439024
0
VERTEX
8
C3
10
-3.3647006540284394
20
-56.28048780487804
0
SEQEND
0
POLYLINE
8
C3
66
1
70
1
0
VERTEX
8
C3
10
-2.0520646905696367
20
-57.5609756097561
0
VERTEX
8
C3
10
-2.0520646905696367
20
-57.68292682926829
0
VERTEX
8
C3
10
-1.9301134710574388
20
-57.68292682926829
0
VERTEX
8
C3
10
-1.9301134710574388
20
-57.5609756097561
0
VERTEX
8
C3
10
-2.0520646905696367
20
-57.5609756097561
0
SEQEND
0
POLYLINE
8
C3
66
1
70
1
0
VERTEX
8
C3
10
-2.687871385735761
20
-56.40243902439024
0
VERTEX
8
C3
10
-2.687871385735761
20
-56.28048780487804
0
VERTEX
8
C3
10
-2.809822605247973
20
-56.28048780487804
0
VERTEX
8
C3
10
-2.809822605247973
20
-56.40243902439024
0
VERTEX
8
C3
10
-2.687871385735761
20
-56.40243902439024
0
SEQEND
0
POLYLINE
8
C3
66
1
70
1
0
VERTEX
8
C3
10
-3.995888651041824
20
-57.5609756097561
0
VERTEX
8
C3
10
-4.117839870554022
20
-57.5609756097561
0
VERTEX
8
C3
10
-4.117839870554022
20
-57.68292682926829
0
VERTEX
8
C3
10
-3.995888651041824
20
-57.68292682926829
0
VERTEX
8
C3
10
-3.995888651041824
20
-57.5609756097561
0
SEQEND
0
POLYLINE
8
C3
66
1
70
1
0
VERTEX
8
C3
10
-2.2633481264593627
20
-56.28048780487804
0
VERTEX
8
C3
10
-2.2633481264593627
20
-56.40243902439024
0
VERTEX
8
C3
10
-2.1413969069471506
20
-56.40243902439024
0
VERTEX
8
C3
10
-2.1413969069471506
20
-56.28048780487804
0
VERTEX
8
C3
10
-2.2633481264593627
20
-56.28048780487804
0
SEQEND
0
POLYLINE
8
C3
66
1
70
1
0
VERTEX
8
C3
10
-1.818916221301933
20
-55.12195121951219
0
VERTEX
8
C3
10
-1.818916221301933
20
-54.99999999999999
0
VERTEX
8
C3
10
-1.9408674408141309
20
-54.99999999999999
0
VERTEX
8
C3
10
-1.9408674408141309
20
-55.12195121951219
0
VERTEX
8
C3
10
-1.818916221301933
20
-55.12195121951219
0
SEQEND
0
POLYLINE
8
C3
66
1
70
1
0
VERTEX
8
C3
10
-1.793835931337398
20
-56.40243902439024
0
VERTEX
8
C3
10
-1.793835931337398
20
-56.28048780487804
0
VERTEX
8
C3
10
-1.91578715084961
20
-56.28048780487804
0
VERTEX
8
C3
10
-1.91578715084961
20
-56.40243902439024
0
VERTEX
8
C3
10
-1.793835931337398
20
-56.40243902439024
0
SEQEND
0
POLYLINE
8
C3
66
1
70
1
0
VERTEX
8
C3
10
-2.6519760659442824
20
-55.12195121951219
0
VERTEX
8
C3
10
-2.6519760659442824
20
-54.99999999999999
0
VERTEX
8
C3
10
-2.773927285456466
20
-54.99999999999999
0
VERTEX
8
C3
10
-2.773927285456466
20
-55.12195121951219
0
VERTEX
8
C3
10
-2.6519760659442824
20
-55.12195121951219
0
SEQEND
0
POLYLINE
8
C3
66
1
70
1
0
VERTEX
8
C3
10
-1.1622995959237983
20
-56.30615510361126
0
VERTEX
8
C3
10
-1.197607906946672
20
-56.291529922321104
0
VERTEX
8
C3
10
-1.23291621796956
20
-56.30615510361126
0
VERTEX
8
C3
10
-1.247541399259731
20
-56.341463414634156
0
VERTEX
8
C3
10
-1.23291621796956
20
-56.37677172565703
0
VERTEX
8
C3
10
-1.197607906946672
20
-56.3913969069472
0
VERTEX
8
C3
10
-1.1622995959237983
20
-56.37677172565703
0
VERTEX
8
C3
10
-1.1476744146336273
20
-56.341463414634156
0
VERTEX
8
C3
10
-1.1622995959237983
20
-56.30615510361126
0
SEQEND
0
POLYLINE
8
C3
66
1
70
1
0
VERTEX
8
C3
10
-3.3366845417176876
20
-55.1219512195122
0
VERTEX
8
C3
10
-3.3366845417176876
20
-54.99999999999999
0
VERTEX
8
C3
10
-3.4586357612298855
20
-54.99999999999999
0
VERTEX
8
C3
10
-3.4586357612298855
20
-55.1219512195122
0
VERTEX
8
C3
10
-3.3366845417176876
20
-55.1219512195122
0
SEQEND
0
POLYLINE
8
C3
66
1
70
1
0
VERTEX
8
C3
10
-4.691358940661559
20
-56.37677172565703
0
VERTEX
8
C3
10
-4.656050629638685
20
-56.3913969069472
0
VERTEX
8
C3
10
-4.620742318615797
20
-56.37677172565703
0
VERTEX
8
C3
10
-4.606117137325626
20
-56.341463414634156
0
VERTEX
8
C3
10
-4.6207423186157826
20
-56.30615510361126
0
VERTEX
8
C3
10
-4.656050629638685
20
-56.291529922321104
0
VERTEX
8
C3
10
-4.691358940661559
20
-56.30615510361126
0
VERTEX
8
C3
10
-4.7059841219517295
20
-56.341463414634156
0
VERTEX
8
C3
10
-4.691358940661559
20
-56.37677172565703
0
SEQEND
0
POLYLINE
8
C3
66
1
70
1
0
VERTEX
8
C3
10
-4.335317746169494
20
-54.99999999999999
0
VERTEX
8
C3
10
-4.457268965681692
20
-54.99999999999999
0
VERTEX
8
C3
10
-4.457268965681692
20
-55.12195121951219
0
VERTEX
8
C3
10
-4.335317746169494
20
-55.12195121951219
0
VERTEX
8
C3
10
-4.335317746169494
20
-54.99999999999999
0
SEQEND
0
POLYLINE
8
C3
66
1
70
1
0
VERTEX
8
C3
10
-1.4035920288983732
20
-56.40243902439024
0
VERTEX
8
C3
10
-1.4035920288983732
20
-55.4335464121947
0
VERTEX
8
C3
10
-1.9901788219513037
20
-55.4335464121947
0
VERTEX
8
C3
10
-1.9901788219513037
20
-56.17355112262202
0
VERTEX
8
C3
10
-1.525543248410571
20
-56.17355112262202
0
VERTEX
8
C3
10
-1.525543248410571
20
-56.40243902439024
0
VERTEX
8
C3
10
-1.4035920288983732
20
-56.40243902439024
0
SEQEND
0
POLYLINE
8
C3
66
1
70
1
0
VERTEX
8
C3
10
-2.359766904385296
20
-55.634146341463406
0
VERTEX
8
C3
10
-2.5975609756097526
20
-55.634146341463406
0
VERTEX
8
C3
10
-2.5975609756097526
20
-55.89024390243902
0
VERTEX
8
C3
10
-2.4817181238974797
20
-55.89024390243902
0
VERTEX
8
C3
10
-2.4817181238974797
20
-56.68292682926829
0
VERTEX
8
C3
10
-2.359766904385296
20
-56.68292682926829
0
VERTEX
8
C3
10
-2.359766904385296
20
-55.634146341463406
0
SEQEND
0
POLYLINE
8
C3
66
1
70
1
0
VERTEX
8
C3
10
1.623104224020338
20
-55.55005682990303
0
VERTEX
8
C3
10
1.623104224020338
20
-56.18292682926829
0
VERTEX
8
C3
10
1.7938359313374121
20
-56.18292682926829
0
VERTEX
8
C3
10
1.793835931337398
20
-56.40243902439024
0
VERTEX
8
C3
10
1.91578715084961
20
-56.40243902439024
0
VERTEX
8
C3
10
1.91578715084961
20
-56.18292682926829
0
VERTEX
8
C3
10
2.0865188581666843
20
-56.18292682926829
0
VERTEX
8
C3
10
2.0865188581666843
20
-55.55005682990303
0
VERTEX
8
C3
10
1.623104224020338
20
-55.55005682990303
0
SEQEND
0
POLYLINE
8
C3
66
1
70
1
0
VERTEX
8
C3
10
4.274342136413409
20
-57.68292682926829
0
VERTEX
8
C3
10
4.396293355925607
20
-57.68292682926829
0
VERTEX
8
C3
10
4.396293355925607
20
-57.5609756097561
0
VERTEX
8
C3
10
4.274342136413409
20
-57.5609756097561
0
VERTEX
8
C3
10
4.274342136413409
20
-57.68292682926829
0
SEQEND
0
POLYLINE
8
C3
66
1
70
1
0
VERTEX
8
C3
10
2.4889578825569316
20
-56.28048780487804
0
VERTEX
8
C3
10
2.3670066630447195
20
-56.28048780487804
0
VERTEX
8
C3
10
2.3670066630447195
20
-56.40243902439024
0
VERTEX
8
C3
10
2.4889578825569316
20
-56.40243902439024
0
VERTEX
8
C3
10
2.4889578825569316
20
-56.28048780487804
0
SEQEND
0
POLYLINE
8
C3
66
1
70
1
0
VERTEX
8
C3
10
3.8015938460157344
20
-57.5609756097561
0
VERTEX
8
C3
10
3.8015938460157344
20
-57.68292682926829
0
VERTEX
8
C3
10
3.9235450655279323
20
-57.68292682926829
0
VERTEX
8
C3
10
3.9235450655279323
20
-57.5609756097561
0
VERTEX
8
C3
10
3.8015938460157344
20
-57.5609756097561
0
SEQEND
0
POLYLINE
8
C3
66
1
70
1
0
VERTEX
8
C3
10
3.16578715084961
20
-56.40243902439024
0
VERTEX
8
C3
10
3.16578715084961
20
-56.28048780487804
0
VERTEX
8
C3
10
3.043835931337398
20
-56.28048780487804
0
VERTEX
8
C3
10
3.043835931337398
20
-56.40243902439024
0
VERTEX
8
C3
10
3.16578715084961
20
-56.40243902439024
0
SEQEND
0
POLYLINE
8
C3
66
1
70
1
0
VERTEX
8
C3
10
1.8577698855435472
20
-57.5609756097561
0
VERTEX
8
C3
10
1.7358186660313493
20
-57.5609756097561
0
VERTEX
8
C3
10
1.7358186660313493
20
-57.68292682926829
0
VERTEX
8
C3
10
1.8577698855435472
20
-57.68292682926829
0
VERTEX
8
C3
10
1.8577698855435472
20
-57.5609756097561
0
SEQEND
0
POLYLINE
8
C3
66
1
70
1
0
VERTEX
8
C3
10
3.5903104101260084
20
-56.28048780487804
0
VERTEX
8
C3
10
3.5903104101260084
20
-56.40243902439024
0
VERTEX
8
C3
10
3.7122616296382205
20
-56.40243902439024
0
VERTEX
8
C3
10
3.7122616296382205
20
-56.28048780487804
0
VERTEX
8
C3
10
3.5903104101260084
20
-56.28048780487804
0
SEQEND
0
POLYLINE
8
C3
66
1
70
1
0
VERTEX
8
C3
10
4.034742315283438
20
-55.12195121951219
0
VERTEX
8
C3
10
4.034742315283438
20
-54.99999999999999
0
VERTEX
8
C3
10
3.91279109577124
20
-54.99999999999999
0
VERTEX
8
C3
10
3.91279109577124
20
-55.12195121951219
0
VERTEX
8
C3
10
4.034742315283438
20
-55.12195121951219
0
SEQEND
0
POLYLINE
8
C3
66
1
70
1
0
VERTEX
8
C3
10
4.059822605247973
20
-56.40243902439024
0
VERTEX
8
C3
10
4.059822605247973
20
-56.28048780487804
0
VERTEX
8
C3
10
3.937871385735761
20
-56.28048780487804
0
VERTEX
8
C3
10
3.937871385735761
20
-56.40243902439024
0
VERTEX
8
C3
10
4.059822605247973
20
-56.40243902439024
0
SEQEND
0
POLYLINE
8
C3
66
1
70
1
0
VERTEX
8
C3
10
3.2016824706410887
20
-55.12195121951219
0
VERTEX
8
C3
10
3.2016824706410887
20
-54.99999999999999
0
VERTEX
8
C3
10
3.079731251128905
20
-54.99999999999999
0
VERTEX
8
C3
10
3.079731251128905
20
-55.12195121951219
0
VERTEX
8
C3
10
3.2016824706410887
20
-55.12195121951219
0
SEQEND
0
POLYLINE
8
C3
66
1
70
1
0
VERTEX
8
C3
10
4.691358940661573
20
-56.30615510361126
0
VERTEX
8
C3
10
4.656050629638699
20
-56.291529922321104
0
VERTEX
8
C3
10
4.620742318615811
20
-56.30615510361126
0
VERTEX
8
C3
10
4.60611713732564
20
-56.341463414634156
0
VERTEX
8
C3
10
4.620742318615811
20
-56.37677172565703
0
VERTEX
8
C3
10
4.656050629638699
20
-56.3913969069472
0
VERTEX
8
C3
10
4.691358940661573
20
-56.37677172565703
0
VERTEX
8
C3
10
4.705984121951744
20
-56.341463414634156
0
VERTEX
8
C3
10
4.691358940661573
20
-56.30615510361126
0
SEQEND
0
POLYLINE
8
C3
66
1
70
1
0
VERTEX
8
C3
10
2.5169739948676835
20
-55.1219512195122
0
VERTEX
8
C3
10
2.5169739948676835
20
-54.99999999999999
0
VERTEX
8
C3
10
2.3950227753554856
20
-54.99999999999999
0
VERTEX
8
C3
10
2.3950227753554856
20
-55.1219512195122
0
VERTEX
8
C3
10
2.5169739948676835
20
-55.1219512195122
0
SEQEND
0
POLYLINE
8
C3
66
1
70
1
0
VERTEX
8
C3
10
1.1622995959238125
20
-56.37677172565703
0
VERTEX
8
C3
10
1.1976079069466863
20
-56.3913969069472
0
VERTEX
8
C3
10
1.2329162179695743
20
-56.37677172565703
0
VERTEX
8
C3
10
1.2475413992597453
20
-56.341463414634156
0
VERTEX
8
C3
10
1.2329162179695885
20
-56.30615510361126
0
VERTEX
8
C3
10
1.1976079069466863
20
-56.291529922321104
0
VERTEX
8
C3
10
1.1622995959238125
20
-56.30615510361126
0
VERTEX
8
C3
10
1.1476744146336415
20
-56.341463414634156
0
VERTEX
8
C3
10
1.1622995959238125
20
-56.37677172565703
0
SEQEND
0
POLYLINE
8
C3
66
1
70
1
0
VERTEX
8
C3
10
1.518340790415877
20
-54.99999999999999
0
VERTEX
8
C3
10
1.396389570903679
20
-54.99999999999999
0
VERTEX
8
C3
10
1.396389570903679
20
-55.12195121951219
0
VERTEX
8
C3
10
1.518340790415877
20
-55.12195121951219
0
VERTEX
8
C3
10
1.518340790415877
20
-54.99999999999999
0
SEQEND
0
POLYLINE
8
C3
66
1
70
1
0
VERTEX
8
C3
10
4.450066507686998
20
-56.40243902439024
0
VERTEX
8
C3
10
4.450066507686998
20
-55.4335464121947
0
VERTEX
8
C3
10
3.8634797146340674
20
-55.4335464121947
0
VERTEX
8
C3
10
3.8634797146340674
20
-56.17355112262202
0
VERTEX
8
C3
10
4.3281152881748
20
-56.17355112262202
0
VERTEX
8
C3
10
4.3281152881748
20
-56.40243902439024
0
VERTEX
8
C3
10
4.450066507686998
20
-56.40243902439024
0
SEQEND
0
POLYLINE
8
C3
66
1
70
1
0
VERTEX
8
C3
10
3.493891632200075
20
-55.634146341463406
0
VERTEX
8
C3
10
3.2560975609756184
20
-55.634146341463406
0
VERTEX
8
C3
10
3.2560975609756184
20
-55.89024390243902
0
VERTEX
8
C3
10
3.3719404126878914
20
-55.89024390243902
0
VERTEX
8
C3
10
3.3719404126878914
20
-56.68292682926829
0
VERTEX
8
C3
10
3.493891632200075
20
-56.68292682926829
0
VERTEX
8
C3
10
3.493891632200075
20
-55.634146341463406
0
SEQEND
0
POLYLINE
8
C3
66
1
70
1
0
VERTEX
8
C3
10
7.476762760605695
20
-55.55005682990303
0
VERTEX
8
C3
10
7.476762760605695
20
-56.18292682926829
0
VERTEX
8
C3
10
7.647494467922769
20
-56.18292682926829
0
VERTEX
8
C3
10
7.647494467922755
20
-56.40243902439024
0
VERTEX
8
C3
10
7.769445687434967
20
-56.40243902439024
0
VERTEX
8
C3
10
7.769445687434967
20
-56.18292682926829
0
VERTEX
8
C3
10
7.940177394752041
20
-56.18292682926829
0
VERTEX
8
C3
10
7.940177394752041
20
-55.55005682990303
0
VERTEX
8
C3
10
7.476762760605695
20
-55.55005682990303
0
SEQEND
0
POLYLINE
8
C3
66
1
70
1
0
VERTEX
8
C3
10
10.128000672998766
20
-57.68292682926829
0
VERTEX
8
C3
10
10.249951892510964
20
-57.68292682926829
0
VERTEX
8
C3
10
10.249951892510964
20
-57.5609756097561
0
VERTEX
8
C3
10
10.128000672998766
20
-57.5609756097561
0
VERTEX
8
C3
10
10.128000672998766
20
-57.68292682926829
0
SEQEND
0
POLYLINE
8
C3
66
1
70
1
0
VERTEX
8
C3
10
8.342616419142288
20
-56.28048780487804
0
VERTEX
8
C3
10
8.220665199630076
20
-56.28048780487804
0
VERTEX
8
C3
10
8.220665199630076
20
-56.40243902439024
0
VERTEX
8
C3
10
8.342616419142288
20
-56.40243902439024
0
VERTEX
8
C3
10
8.342616419142288
20
-56.28048780487804
0
SEQEND
0
POLYLINE
8
C3
66
1
70
1
0
VERTEX
8
C3
10
9.655252382601091
20
-57.5609756097561
0
VERTEX
8
C3
10
9.655252382601091
20
-57.68292682926829
0
VERTEX
8
C3
10
9.777203602113289
20
-57.68292682926829
0
VERTEX
8
C3
10
9.777203602113289
20
-57.5609756097561
0
VERTEX
8
C3
10
9.655252382601091
20
-57.5609756097561
0
SEQEND
0
POLYLINE
8
C3
66
1
70
1
0
VERTEX
8
C3
10
9.019445687434967
20
-56.40243902439024
0
VERTEX
8
C3
10
9.019445687434967
20
-56.28048780487804
0
VERTEX
8
C3
10
8.897494467922755
20
-56.28048780487804
0
VERTEX
8
C3
10
8.897494467922755
20
-56.40243902439024
0
VERTEX
8
C3
10
9.019445687434967
20
-56.40243902439024
0
SEQEND
0
POLYLINE
8
C3
66
1
70
1
0
VERTEX
8
C3
10
7.711428422128904
20
-57.5609756097561
0
VERTEX
8
C3
10
7.589477202616706
20
-57.5609756097561
0
VERTEX
8
C3
10
7.589477202616706
20
-57.68292682926829
0
VERTEX
8
C3
10
7.711428422128904
20
-57.68292682926829
0
VERTEX
8
C3
10
7.711428422128904
20
-57.5609756097561
0
SEQEND
0
POLYLINE
8
C3
66
1
70
1
0
VERTEX
8
C3
10
9.443968946711365
20
-56.28048780487804
0
VERTEX
8
C3
10
9.443968946711365
20
-56.40243902439024
0
VERTEX
8
C3
10
9.565920166223577
20
-56.40243902439024
0
VERTEX
8
C3
10
9.565920166223577
20
-56.28048780487804
0
VERTEX
8
C3
10
9.443968946711365
20
-56.28048780487804
0
SEQEND
0
POLYLINE
8
C3
66
1
70
1
0
VERTEX
8
C3
10
9.888400851868795
20
-55.12195121951219
0
VERTEX
8
C3
10
9.888400851868795
20
-54.99999999999999
0
VERTEX
8
C3
10
9.766449632356597
20
-54.99999999999999
0
VERTEX
8
C3
10
9.766449632356597
20
-55.12195121951219
0
VERTEX
8
C3
10
9.888400851868795
20
-55.12195121951219
0
SEQEND
0
POLYLINE
8
C3
66
1
70
1
0
VERTEX
8
C3
10
9.91348114183333
20
-56.40243902439024
0
VERTEX
8
C3
10
9.91348114183333
20
-56.28048780487804
0
VERTEX
8
C3
10
9.791529922321118
20
-56.28048780487804
0
VERTEX
8
C3
10
9.791529922321118
20
-56.40243902439024
0
VERTEX
8
C3
10
9.91348114183333
20
-56.40243902439024
0
SEQEND
0
POLYLINE
8
C3
66
1
70
1
0
VERTEX
8
C3
10
9.055341007226446
20
-55.12195121951219
0
VERTEX
8
C3
10
9.055341007226446
20
-54.99999999999999
0
VERTEX
8
C3
10
8.933389787714262
20
-54.99999999999999
0
VERTEX
8
C3
10
8.933389787714262
20
-55.12195121951219
0
VERTEX
8
C3
10
9.055341007226446
20
-55.12195121951219
0
SEQEND
0
POLYLINE
8
C3
66
1
70
1
0
VERTEX
8
C3
10
10.54501747724693
20
-56.30615510361126
0
VERTEX
8
C3
10
10.509709166224056
20
-56.291529922321104
0
VERTEX
8
C3
10
10.474400855201168
20
-56.30615510361126
0
VERTEX
8
C3
10
10.459775673910997
20
-56.341463414634156
0
VERTEX
8
C3
10
10.474400855201168
20
-56.37677172565703
0
VERTEX
8
C3
10
10.509709166224056
20
-56.3913969069472
0
VERTEX
8
C3
10
10.54501747724693
20
-56.37677172565703
0
VERTEX
8
C3
10
10.5596426585371
20
-56.341463414634156
0
VERTEX
8
C3
10
10.54501747724693
20
-56.30615510361126
0
SEQEND
0
POLYLINE
8
C3
66
1
70
1
0
VERTEX
8
C3
10
8.37063253145304
20
-55.1219512195122
0
VERTEX
8
C3
10
8.37063253145304
20
-54.99999999999999
0
VERTEX
8
C3
10
8.248681311940842
20
-54.99999999999999
0
VERTEX
8
C3
10
8.248681311940842
20
-55.1219512195122
0
VERTEX
8
C3
10
8.37063253145304
20
-55.1219512195122
0
SEQEND
0
POLYLINE
8
C3
66
1
70
1
0
VERTEX
8
C3
10
7.015958132509169
20
-56.37677172565703
0
VERTEX
8
C3
10
7.051266443532043
20
-56.3913969069472
0
VERTEX
8
C3
10
7.086574754554931
20
-56.37677172565703
0
VERTEX
8
C3
10
7.101199935845102
20
-56.341463414634156
0
VERTEX
8
C3
10
7.086574754554945
20
-56.30615510361126
0
VERTEX
8
C3
10
7.051266443532043
20
-56.291529922321104
0
VERTEX
8
C3
10
7.015958132509169
20
-56.30615510361126
0
VERTEX
8
C3
10
7.001332951218998
20
-56.341463414634156
0
VERTEX
8
C3
10
7.015958132509169
20
-56.37677172565703
0
SEQEND
0
POLYLINE
8
C3
66
1
70
1
0
VERTEX
8
C3
10
7.371999327001234
20
-54.99999999999999
0
VERTEX
8
C3
10
7.250048107489036
20
-54.99999999999999
0
VERTEX
8
C3
10
7.250048107489036
20
-55.12195121951219
0
VERTEX
8
C3
10
7.371999327001234
20
-55.12195121951219
0
VERTEX
8
C3
10
7.371999327001234
20
-54.99999999999999
0
SEQEND
0
POLYLINE
8
C3
66
1
70
1
0
VERTEX
8
C3
10
10.303725044272355
20
-56.40243902439024
0
VERTEX
8
C3
10
10.303725044272355
20
-55.4335464121947
0
VERTEX
8
C3
10
9.717138251219424
20
-55.4335464121947
0
VERTEX
8
C3
10
9.717138251219424
20
-56.17355112262202
0
VERTEX
8
C3
10
10.181773824760157
20
-56.17355112262202
0
VERTEX
8
C3
10
10.181773824760157
20
-56.40243902439024
0
VERTEX
8
C3
10
10.303725044272355
20
-56.40243902439024
0
SEQEND
0
POLYLINE
8
C3
66
1
70
1
0
VERTEX
8
C3
10
9.347550168785432
20
-55.634146341463406
0
VERTEX
8
C3
10
9.109756097560975
20
-55.634146341463406
0
VERTEX
8
C3
10
9.109756097560975
20
-55.89024390243902
0
VERTEX
8
C3
10
9.225598949273248
20
-55.89024390243902
0
VERTEX
8
C3
10
9.225598949273248
20
-56.68292682926829
0
VERTEX
8
C3
10
9.347550168785432
20
-56.68292682926829
0
VERTEX
8
C3
10
9.347550168785432
20
-55.634146341463406
0
SEQEND
0
POLYLINE
8
C3
66
1
70
1
0
VERTEX
8
C3
10
13.330421297191066
20
-55.55005682990303
0
VERTEX
8
C3
10
13.330421297191066
20
-56.18292682926829
0
VERTEX
8
C3
10
13.50115300450814
20
-56.18292682926829
0
VERTEX
8
C3
10
13.501153004508126
20
-56.40243902439024
0
VERTEX
8
C3
10
13.623104224020338
20
-56.40243902439024
0
VERTEX
8
C3
10
13.623104224020338
20
-56.18292682926829
0
VERTEX
8
C3
10
13.793835931337412
20
-56.18292682926829
0
VERTEX
8
C3
10
13.793835931337412
20
-55.55005682990303
0
VERTEX
8
C3
10
13.330421297191066
20
-55.55005682990303
0
SEQEND
0
POLYLINE
8
C3
66
1
70
1
0
VERTEX
8
C3
10
15.981659209584137
20
-57.68292682926829
0
VERTEX
8
C3
10
16.103610429096335
20
-57.68292682926829
0
VERTEX
8
C3
10
16.103610429096335
20
-57.5609756097561
0
VERTEX
8
C3
10
15.981659209584137
20
-57.5609756097561
0
VERTEX
8
C3
10
15.981659209584137
20
-57.68292682926829
0
SEQEND
0
POLYLINE
8
C3
66
1
70
1
0
VERTEX
8
C3
10
14.19627495572766
20
-56.28048780487804
0
VERTEX
8
C3
10
14.074323736215447
20
-56.28048780487804
0
VERTEX
8
C3
10
14.074323736215447
20
-56.40243902439024
0
VERTEX
8
C3
10
14.19627495572766
20
-56.40243902439024
0
VERTEX
8
C3
10
14.19627495572766
20
-56.28048780487804
0
SEQEND
0
POLYLINE
8
C3
66
1
70
1
0
VERTEX
8
C3
10
15.508910919186462
20
-57.5609756097561
0
VERTEX
8
C3
10
15.508910919186462
20
-57.68292682926829
0
VERTEX
8
C3
10
15.63086213869866
20
-57.68292682926829
0
VERTEX
8
C3
10
15.63086213869866
20
-57.5609756097561
0
VERTEX
8
C3
10
15.508910919186462
20
-57.5609756097561
0
SEQEND
0
POLYLINE
8
C3
66
1
70
1
0
VERTEX
8
C3
10
14.873104224020338
20
-56.40243902439024
0
VERTEX
8
C3
10
14.873104224020338
20
-56.28048780487804
0
VERTEX
8
C3
10
14.751153004508126
20
-56.28048780487804
0
VERTEX
8
C3
10
14.751153004508126
20
-56.40243902439024
0
VERTEX
8
C3
10
14.873104224020338
20
-56.40243902439024
0
SEQEND
0
POLYLINE
8
C3
66
1
70
1
0
VERTEX
8
C3
10
13.565086958714275
20
-57.5609756097561
0
VERTEX
8
C3
10
13.443135739202077
20
-57.5609756097561
0
VERTEX
8
C3
10
13.443135739202077
20
-57.68292682926829
0
VERTEX
8
C3
10
13.565086958714275
20
-57.68292682926829
0
VERTEX
8
C3
10
13.565086958714275
20
-57.5609756097561
0
SEQEND
0
POLYLINE
8
C3
66
1
70
1
0
VERTEX
8
C3
10
15.297627483296736
20
-56.28048780487804
0
VERTEX
8
C3
10
15.297627483296736
20
-56.40243902439024
0
VERTEX
8
C3
10
15.419578702808948
20
-56.40243902439024
0
VERTEX
8
C3
10
15.419578702808948
20
-56.28048780487804
0
VERTEX
8
C3
10
15.297627483296736
20
-56.28048780487804
0
SEQEND
0
POLYLINE
8
C3
66
1
70
1
0
VERTEX
8
C3
10
15.742059388454166
20
-55.12195121951219
0
VERTEX
8
C3
10
15.742059388454166
20
-54.99999999999999
0
VERTEX
8
C3
10
15.620108168941968
20
-54.99999999999999
0
VERTEX
8
C3
10
15.620108168941968
20
-55.12195121951219
0
VERTEX
8
C3
10
15.742059388454166
20
-55.12195121951219
0
SEQEND
0
POLYLINE
8
C3
66
1
70
1
0
VERTEX
8
C3
10
15.767139678418701
20
-56.40243902439024
0
VERTEX
8
C3
10
15.767139678418701
20
-56.28048780487804
0
VERTEX
8
C3
10
15.645188458906489
20
-56.28048780487804
0
VERTEX
8
C3
10
15.645188458906489
20
-56.40243902439024
0
VERTEX
8
C3
10
15.767139678418701
20
-56.40243902439024
0
SEQEND
0
POLYLINE
8
C3
66
1
70
1
0
VERTEX
8
C3
10
14.908999543811817
20
-55.12195121951219
0
VERTEX
8
C3
10
14.908999543811817
20
-54.99999999999999
0
VERTEX
8
C3
10
14.787048324299633
20
-54.99999999999999
0
VERTEX
8
C3
10
14.787048324299633
20
-55.12195121951219
0
VERTEX
8
C3
10
14.908999543811817
20
-55.12195121951219
0
SEQEND
0
POLYLINE
8
C3
66
1
70
1
0
VERTEX
8
C3
10
16.3986760138323
20
-56.30615510361126
0
VERTEX
8
C3
10
16.363367702809427
20
-56.291529922321104
0
VERTEX
8
C3
10
16.32805939178654
20
-56.30615510361126
0
VERTEX
8
C3
10
16.313434210496368
20
-56.341463414634156
0
VERTEX
8
C3
10
16.32805939178654
20
-56.37677172565703
0
VERTEX
8
C3
10
16.363367702809427
20
-56.3913969069472
0
VERTEX
8
C3
10
16.3986760138323
20
-56.37677172565703
0
VERTEX
8
C3
10
16.41330119512247
20
-56.341463414634156
0
VERTEX
8
C3
10
16.3986760138323
20
-56.30615510361126
0
SEQEND
0
POLYLINE
8
C3
66
1
70
1
0
VERTEX
8
C3
10
14.224291068038411
20
-55.1219512195122
0
VERTEX
8
C3
10
14.224291068038411
20
-54.99999999999999
0
VERTEX
8
C3
10
14.102339848526213
20
-54.99999999999999
0
VERTEX
8
C3
10
14.102339848526213
20
-55.1219512195122
0
VERTEX
8
C3
10
14.224291068038411
20
-55.1219512195122
0
SEQEND
0
POLYLINE
8
C3
66
1
70
1
0
VERTEX
8
C3
10
12.86961666909454
20
-56.37677172565703
0
VERTEX
8
C3
10
12.904924980117414
20
-56.3913969069472
0
VERTEX
8
C3
10
12.940233291140302
20
-56.37677172565703
0
VERTEX
8
C3
10
12.954858472430473
20
-56.341463414634156
0
VERTEX
8
C3
10
12.940233291140316
20
-56.30615510361126
0
VERTEX
8
C3
10
12.904924980117414
20
-56.291529922321104
0
VERTEX
8
C3
10
12.86961666909454
20
-56.30615510361126
0
VERTEX
8
C3
10
12.85499148780437
20
-56.341463414634156
0
VERTEX
8
C3
10
12.86961666909454
20
-56.37677172565703
0
SEQEND
0
POLYLINE
8
C3
66
1
70
1
0
VERTEX
8
C3
10
13.225657863586605
20
-54.99999999999999
0
VERTEX
8
C3
10
13.103706644074407
20
-54.99999999999999
0
VERTEX
8
C3
10
13.103706644074407
20
-55.12195121951219
0
VERTEX
8
C3
10
13.225657863586605
20
-55.12195121951219
0
VERTEX
8
C3
10
13.225657863586605
20
-54.99999999999999
0
SEQEND
0
POLYLINE
8
C3
66
1
70
1
0
VERTEX
8
C3
10
16.157383580857726
20
-56.40243902439024
0
VERTEX
8
C3
10
16.157383580857726
20
-55.4335464121947
0
VERTEX
8
C3
10
15.570796787804795
20
-55.4335464121947
0
VERTEX
8
C3
10
15.570796787804795
20
-56.17355112262202
0
VERTEX
8
C3
10
16.035432361345528
20
-56.17355112262202
0
VERTEX
8
C3
10
16.035432361345528
20
-56.40243902439024
0
VERTEX
8
C3
10
16.157383580857726
20
-56.40243902439024
0
SEQEND
0
POLYLINE
8
C3
66
1
70
1
0
VERTEX
8
C3
10
15.201208705370803
20
-55.634146341463406
0
VERTEX
8
C3
10
14.963414634146346
20
-55.634146341463406
0
VERTEX
8
C3
10
14.963414634146346
20
-55.89024390243902
0
VERTEX
8
C3
10
15.07925748585862
20
-55.89024390243902
0
VERTEX
8
C3
10
15.07925748585862
20
-56.68292682926829
0
VERTEX
8
C3
10
15.201208705370803
20
-56.68292682926829
0
VERTEX
8
C3
10
15.201208705370803
20
-55.634146341463406
0
SEQEND
0
POLYLINE
8
C3
66
1
70
1
0
VERTEX
8
C3
10
19.184079833776437
20
-55.55005682990303
0
VERTEX
8
C3
10
19.184079833776437
20
-56.18292682926829
0
VERTEX
8
C3
10
19.354811541093497
20
-56.18292682926829
0
VERTEX
8
C3
10
19.354811541093497
20
-56.40243902439024
0
VERTEX
8
C3
10
19.476762760605695
20
-56.40243902439024
0
VERTEX
8
C3
10
19.476762760605695
20
-56.18292682926829
0
VERTEX
8
C3
10
19.647494467922755
20
-56.18292682926829
0
VERTEX
8
C3
10
19.647494467922755
20
-55.55005682990303
0
VERTEX
8
C3
10
19.184079833776437
20
-55.55005682990303
0
SEQEND
0
POLYLINE
8
C3
66
1
70
1
0
VERTEX
8
C3
10
21.83531774616951
20
-57.68292682926829
0
VERTEX
8
C3
10
21.957268965681706
20
-57.68292682926829
0
VERTEX
8
C3
10
21.957268965681706
20
-57.5609756097561
0
VERTEX
8
C3
10
21.83531774616951
20
-57.5609756097561
0
VERTEX
8
C3
10
21.83531774616951
20
-57.68292682926829
0
SEQEND
0
POLYLINE
8
C3
66
1
70
1
0
VERTEX
8
C3
10
20.049933492313002
20
-56.28048780487804
0
VERTEX
8
C3
10
19.927982272800804
20
-56.28048780487804
0
VERTEX
8
C3
10
19.927982272800804
20
-56.40243902439024
0
VERTEX
8
C3
10
20.049933492313002
20
-56.40243902439024
0
VERTEX
8
C3
10
20.049933492313002
20
-56.28048780487804
0
SEQEND
0
POLYLINE
8
C3
66
1
70
1
0
VERTEX
8
C3
10
21.362569455771805
20
-57.5609756097561
0
VERTEX
8
C3
10
21.362569455771805
20
-57.68292682926829
0
VERTEX
8
C3
10
21.484520675284003
20
-57.68292682926829
0
VERTEX
8
C3
10
21.484520675284003
20
-57.5609756097561
0
VERTEX
8
C3
10
21.362569455771805
20
-57.5609756097561
0
SEQEND
0
POLYLINE
8
C3
66
1
70
1
0
VERTEX
8
C3
10
20.726762760605695
20
-56.40243902439024
0
VERTEX
8
C3
10
20.726762760605695
20
-56.28048780487804
0
VERTEX
8
C3
10
20.604811541093497
20
-56.28048780487804
0
VERTEX
8
C3
10
20.604811541093497
20
-56.40243902439024
0
VERTEX
8
C3
10
20.726762760605695
20
-56.40243902439024
0
SEQEND
0
POLYLINE
8
C3
66
1
70
1
0
VERTEX
8
C3
10
19.418745495299632
20
-57.5609756097561
0
VERTEX
8
C3
10
19.296794275787434
20
-57.5609756097561
0
VERTEX
8
C3
10
19.296794275787434
20
-57.68292682926829
0
VERTEX
8
C3
10
19.418745495299632
20
-57.68292682926829
0
VERTEX
8
C3
10
19.418745495299632
20
-57.5609756097561
0
SEQEND
0
POLYLINE
8
C3
66
1
70
1
0
VERTEX
8
C3
10
21.151286019882107
20
-56.28048780487804
0
VERTEX
8
C3
10
21.151286019882107
20
-56.40243902439024
0
VERTEX
8
C3
10
21.273237239394305
20
-56.40243902439024
0
VERTEX
8
C3
10
21.273237239394305
20
-56.28048780487804
0
VERTEX
8
C3
10
21.151286019882107
20
-56.28048780487804
0
SEQEND
0
POLYLINE
8
C3
66
1
70
1
0
VERTEX
8
C3
10
21.595717925039523
20
-55.12195121951219
0
VERTEX
8
C3
10
21.595717925039523
20
-54.99999999999999
0
VERTEX
8
C3
10
21.473766705527325
20
-54.99999999999999
0
VERTEX
8
C3
10
21.473766705527325
20
-55.12195121951219
0
VERTEX
8
C3
10
21.595717925039523
20
-55.12195121951219
0
SEQEND
0
POLYLINE
8
C3
66
1
70
1
0
VERTEX
8
C3
10
21.620798215004058
20
-56.40243902439024
0
VERTEX
8
C3
10
21.620798215004058
20
-56.28048780487804
0
VERTEX
8
C3
10
21.49884699549186
20
-56.28048780487804
0
VERTEX
8
C3
10
21.49884699549186
20
-56.40243902439024
0
VERTEX
8
C3
10
21.620798215004058
20
-56.40243902439024
0
SEQEND
0
POLYLINE
8
C3
66
1
70
1
0
VERTEX
8
C3
10
20.762658080397173
20
-55.12195121951219
0
VERTEX
8
C3
10
20.762658080397173
20
-54.99999999999999
0
VERTEX
8
C3
10
20.640706860884976
20
-54.99999999999999
0
VERTEX
8
C3
10
20.640706860884976
20
-55.12195121951219
0
VERTEX
8
C3
10
20.762658080397173
20
-55.12195121951219
0
SEQEND
0
POLYLINE
8
C3
66
1
70
1
0
VERTEX
8
C3
10
22.252334550417643
20
-56.30615510361126
0
VERTEX
8
C3
10
22.21702623939477
20
-56.291529922321104
0
VERTEX
8
C3
10
22.181717928371896
20
-56.30615510361126
0
VERTEX
8
C3
10
22.167092747081725
20
-56.341463414634156
0
VERTEX
8
C3
10
22.181717928371896
20
-56.37677172565703
0
VERTEX
8
C3
10
22.21702623939477
20
-56.3913969069472
0
VERTEX
8
C3
10
22.252334550417643
20
-56.37677172565703
0
VERTEX
8
C3
10
22.266959731707814
20
-56.341463414634156
0
VERTEX
8
C3
10
22.252334550417643
20
-56.30615510361126
0
SEQEND
0
POLYLINE
8
C3
66
1
70
1
0
VERTEX
8
C3
10
20.077949604623754
20
-55.1219512195122
0
VERTEX
8
C3
10
20.077949604623754
20
-54.99999999999999
0
VERTEX
8
C3
10
19.955998385111585
20
-54.99999999999999
0
VERTEX
8
C3
10
19.955998385111585
20
-55.1219512195122
0
VERTEX
8
C3
10
20.077949604623754
20
-55.1219512195122
0
SEQEND
0
POLYLINE
8
C3
66
1
70
1
0
VERTEX
8
C3
10
18.72327520567991
20
-56.37677172565703
0
VERTEX
8
C3
10
18.758583516702785
20
-56.3913969069472
0
VERTEX
8
C3
10
18.79389182772566
20
-56.37677172565703
0
VERTEX
8
C3
10
18.80851700901583
20
-56.341463414634156
0
VERTEX
8
C3
10
18.79389182772566
20
-56.30615510361126
0
VERTEX
8
C3
10
18.758583516702785
20
-56.291529922321104
0
VERTEX
8
C3
10
18.72327520567991
20
-56.30615510361126
0
VERTEX
8
C3
10
18.70865002438974
20
-56.341463414634156
0
VERTEX
8
C3
10
18.72327520567991
20
-56.37677172565703
0
SEQEND
0
POLYLINE
8
C3
66
1
70
1
0
VERTEX
8
C3
10
19.079316400171976
20
-54.99999999999999
0
VERTEX
8
C3
10
18.957365180659778
20
-54.99999999999999
0
VERTEX
8
C3
10
18.957365180659778
20
-55.12195121951219
0
VERTEX
8
C3
10
19.079316400171976
20
-55.12195121951219
0
VERTEX
8
C3
10
19.079316400171976
20
-54.99999999999999
0
SEQEND
0
POLYLINE
8
C3
66
1
70
1
0
VERTEX
8
C3
10
22.01104211744307
20
-56.40243902439024
0
VERTEX
8
C3
10
22.01104211744307
20
-55.4335464121947
0
VERTEX
8
C3
10
21.424455324390166
20
-55.4335464121947
0
VERTEX
8
C3
10
21.424455324390166
20
-56.17355112262202
0
VERTEX
8
C3
10
21.8890908979309
20
-56.17355112262202
0
VERTEX
8
C3
10
21.8890908979309
20
-56.40243902439024
0
VERTEX
8
C3
10
22.01104211744307
20
-56.40243902439024
0
SEQEND
0
POLYLINE
8
C3
66
1
70
1
0
VERTEX
8
C3
10
21.05486724195616
20
-55.634146341463406
0
VERTEX
8
C3
10
20.817073170731717
20
-55.634146341463406
0
VERTEX
8
C3
10
20.817073170731717
20
-55.89024390243902
0
VERTEX
8
C3
10
20.932916022443962
20
-55.89024390243902
0
VERTEX
8
C3
10
20.932916022443962
20
-56.68292682926829
0
VERTEX
8
C3
10
21.05486724195616
20
-56.68292682926829
0
VERTEX
8
C3
10
21.05486724195616
20
-55.634146341463406
0
SEQEND
0
POLYLINE
8
C3
66
1
70
1
0
VERTEX
8
C3
10
25.037738370361822
20
-55.55005682990303
0
VERTEX
8
C3
10
25.037738370361822
20
-56.18292682926829
0
VERTEX
8
C3
10
25.208470077678882
20
-56.18292682926829
0
VERTEX
8
C3
10
25.208470077678882
20
-56.40243902439024
0
VERTEX
8
C3
10
25.33042129719108
20
-56.40243902439024
0
VERTEX
8
C3
10
25.33042129719108
20
-56.18292682926829
0
VERTEX
8
C3
10
25.50115300450814
20
-56.18292682926829
0
VERTEX
8
C3
10
25.50115300450814
20
-55.55005682990303
0
VERTEX
8
C3
10
25.037738370361822
20
-55.55005682990303
0
SEQEND
0
POLYLINE
8
C3
66
1
70
1
0
VERTEX
8
C3
10
27.688976282754894
20
-57.68292682926829
0
VERTEX
8
C3
10
27.81092750226709
20
-57.68292682926829
0
VERTEX
8
C3
10
27.81092750226709
20
-57.5609756097561
0
VERTEX
8
C3
10
27.688976282754894
20
-57.5609756097561
0
VERTEX
8
C3
10
27.688976282754894
20
-57.68292682926829
0
SEQEND
0
POLYLINE
8
C3
66
1
70
1
0
VERTEX
8
C3
10
25.903592028898387
20
-56.28048780487804
0
VERTEX
8
C3
10
25.78164080938619
20
-56.28048780487804
0
VERTEX
8
C3
10
25.78164080938619
20
-56.40243902439024
0
VERTEX
8
C3
10
25.903592028898387
20
-56.40243902439024
0
VERTEX
8
C3
10
25.903592028898387
20
-56.28048780487804
0
SEQEND
0
POLYLINE
8
C3
66
1
70
1
0
VERTEX
8
C3
10
27.21622799235719
20
-57.5609756097561
0
VERTEX
8
C3
10
27.21622799235719
20
-57.68292682926829
0
VERTEX
8
C3
10
27.338179211869388
20
-57.68292682926829
0
VERTEX
8
C3
10
27.338179211869388
20
-57.5609756097561
0
VERTEX
8
C3
10
27.21622799235719
20
-57.5609756097561
0
SEQEND
0
POLYLINE
8
C3
66
1
70
1
0
VERTEX
8
C3
10
26.58042129719108
20
-56.40243902439024
0
VERTEX
8
C3
10
26.58042129719108
20
-56.28048780487804
0
VERTEX
8
C3
10
26.458470077678882
20
-56.28048780487804
0
VERTEX
8
C3
10
26.458470077678882
20
-56.40243902439024
0
VERTEX
8
C3
10
26.58042129719108
20
-56.40243902439024
0
SEQEND
0
POLYLINE
8
C3
66
1
70
1
0
VERTEX
8
C3
10
25.272404031885017
20
-57.5609756097561
0
VERTEX
8
C3
10
25.15045281237282
20
-57.5609756097561
0
VERTEX
8
C3
10
25.15045281237282
20
-57.68292682926829
0
VERTEX
8
C3
10
25.272404031885017
20
-57.68292682926829
0
VERTEX
8
C3
10
25.272404031885017
20
-57.5609756097561
0
SEQEND
0
POLYLINE
8
C3
66
1
70
1
0
VERTEX
8
C3
10
27.004944556467493
20
-56.28048780487804
0
VERTEX
8
C3
10
27.004944556467493
20
-56.40243902439024
0
VERTEX
8
C3
10
27.12689577597969
20
-56.40243902439024
0
VERTEX
8
C3
10
27.12689577597969
20
-56.28048780487804
0
VERTEX
8
C3
10
27.004944556467493
20
-56.28048780487804
0
SEQEND
0
POLYLINE
8
C3
66
1
70
1
0
VERTEX
8
C3
10
27.449376461624908
20
-55.12195121951219
0
VERTEX
8
C3
10
27.449376461624908
20
-54.99999999999999
0
VERTEX
8
C3
10
27.32742524211271
20
-54.99999999999999
0
VERTEX
8
C3
10
27.32742524211271
20
-55.12195121951219
0
VERTEX
8
C3
10
27.449376461624908
20
-55.12195121951219
0
SEQEND
0
POLYLINE
8
C3
66
1
70
1
0
VERTEX
8
C3
10
27.474456751589443
20
-56.40243902439024
0
VERTEX
8
C3
10
27.474456751589443
20
-56.28048780487804
0
VERTEX
8
C3
10
27.352505532077245
20
-56.28048780487804
0
VERTEX
8
C3
10
27.352505532077245
20
-56.40243902439024
0
VERTEX
8
C3
10
27.474456751589443
20
-56.40243902439024
0
SEQEND
0
POLYLINE
8
C3
66
1
70
1
0
VERTEX
8
C3
10
26.61631661698256
20
-55.12195121951219
0
VERTEX
8
C3
10
26.61631661698256
20
-54.99999999999999
0
VERTEX
8
C3
10
26.49436539747036
20
-54.99999999999999
0
VERTEX
8
C3
10
26.49436539747036
20
-55.12195121951219
0
VERTEX
8
C3
10
26.61631661698256
20
-55.12195121951219
0
SEQEND
0
POLYLINE
8
C3
66
1
70
1
0
VERTEX
8
C3
10
28.10599308700303
20
-56.30615510361126
0
VERTEX
8
C3
10
28.070684775980155
20
-56.291529922321104
0
VERTEX
8
C3
10
28.03537646495728
20
-56.30615510361126
0
VERTEX
8
C3
10
28.02075128366711
20
-56.341463414634156
0
VERTEX
8
C3
10
28.03537646495728
20
-56.37677172565703
0
VERTEX
8
C3
10
28.070684775980155
20
-56.3913969069472
0
VERTEX
8
C3
10
28.10599308700303
20
-56.37677172565703
0
VERTEX
8
C3
10
28.1206182682932
20
-56.341463414634156
0
VERTEX
8
C3
10
28.10599308700303
20
-56.30615510361126
0
SEQEND
0
POLYLINE
8
C3
66
1
70
1
0
VERTEX
8
C3
10
25.93160814120914
20
-55.1219512195122
0
VERTEX
8
C3
10
25.93160814120914
20
-54.99999999999999
0
VERTEX
8
C3
10
25.80965692169697
20
-54.99999999999999
0
VERTEX
8
C3
10
25.80965692169697
20
-55.1219512195122
0
VERTEX
8
C3
10
25.93160814120914
20
-55.1219512195122
0
SEQEND
0
POLYLINE
8
C3
66
1
70
1
0
VERTEX
8
C3
10
24.576933742265297
20
-56.37677172565703
0
VERTEX
8
C3
10
24.61224205328817
20
-56.3913969069472
0
VERTEX
8
C3
10
24.647550364311044
20
-56.37677172565703
0
VERTEX
8
C3
10
24.662175545601215
20
-56.341463414634156
0
VERTEX
8
C3
10
24.647550364311044
20
-56.30615510361126
0
VERTEX
8
C3
10
24.61224205328817
20
-56.291529922321104
0
VERTEX
8
C3
10
24.576933742265297
20
-56.30615510361126
0
VERTEX
8
C3
10
24.562308560975126
20
-56.341463414634156
0
VERTEX
8
C3
10
24.576933742265297
20
-56.37677172565703
0
SEQEND
0
POLYLINE
8
C3
66
1
70
1
0
VERTEX
8
C3
10
24.93297493675736
20
-54.99999999999999
0
VERTEX
8
C3
10
24.811023717245163
20
-54.99999999999999
0
VERTEX
8
C3
10
24.811023717245163
20
-55.12195121951219
0
VERTEX
8
C3
10
24.93297493675736
20
-55.12195121951219
0
VERTEX
8
C3
10
24.93297493675736
20
-54.99999999999999
0
SEQEND
0
POLYLINE
8
C3
66
1
70
1
0
VERTEX
8
C3
10
27.864700654028454
20
-56.40243902439024
0
VERTEX
8
C3
10
27.864700654028454
20
-55.4335464121947
0
VERTEX
8
C3
10
27.27811386097555
20
-55.4335464121947
0
VERTEX
8
C3
10
27.27811386097555
20
-56.17355112262202
0
VERTEX
8
C3
10
27.742749434516284
20
-56.17355112262202
0
VERTEX
8
C3
10
27.742749434516284
20
-56.40243902439024
0
VERTEX
8
C3
10
27.864700654028454
20
-56.40243902439024
0
SEQEND
0
POLYLINE
8
C3
66
1
70
1
0
VERTEX
8
C3
10
26.908525778541545
20
-55.634146341463406
0
VERTEX
8
C3
10
26.670731707317103
20
-55.634146341463406
0
VERTEX
8
C3
10
26.670731707317103
20
-55.89024390243902
0
VERTEX
8
C3
10
26.786574559029347
20
-55.89024390243902
0
VERTEX
8
C3
10
26.786574559029347
20
-56.68292682926829
0
VERTEX
8
C3
10
26.908525778541545
20
-56.68292682926829
0
VERTEX
8
C3
10
26.908525778541545
20
-55.634146341463406
0
SEQEND
0
POLYLINE
8
C3
66
1
70
1
0
VERTEX
8
C3
10
30.89139690694715
20
-55.55005682990303
0
VERTEX
8
C3
10
30.89139690694715
20
-56.18292682926829
0
VERTEX
8
C3
10
31.06212861426421
20
-56.18292682926829
0
VERTEX
8
C3
10
31.06212861426421
20
-56.40243902439024
0
VERTEX
8
C3
10
31.18407983377641
20
-56.40243902439024
0
VERTEX
8
C3
10
31.18407983377641
20
-56.18292682926829
0
VERTEX
8
C3
10
31.35481154109347
20
-56.18292682926829
0
VERTEX
8
C3
10
31.35481154109347
20
-55.55005682990303
0
VERTEX
8
C3
10
30.89139690694715
20
-55.55005682990303
0
SEQEND
0
POLYLINE
8
C3
66
1
70
1
0
VERTEX
8
C3
10
33.54263481934022
20
-57.68292682926829
0
VERTEX
8
C3
10
33.66458603885242
20
-57.68292682926829
0
VERTEX
8
C3
10
33.66458603885242
20
-57.5609756097561
0
VERTEX
8
C3
10
33.54263481934022
20
-57.5609756097561
0
VERTEX
8
C3
10
33.54263481934022
20
-57.68292682926829
0
SEQEND
0
POLYLINE
8
C3
66
1
70
1
0
VERTEX
8
C3
10
31.757250565483716
20
-56.28048780487804
0
VERTEX
8
C3
10
31.635299345971518
20
-56.28048780487804
0
VERTEX
8
C3
10
31.635299345971518
20
-56.40243902439024
0
VERTEX
8
C3
10
31.757250565483716
20
-56.40243902439024
0
VERTEX
8
C3
10
31.757250565483716
20
-56.28048780487804
0
SEQEND
0
POLYLINE
8
C3
66
1
70
1
0
VERTEX
8
C3
10
33.06988652894252
20
-57.5609756097561
0
VERTEX
8
C3
10
33.06988652894252
20
-57.68292682926829
0
VERTEX
8
C3
10
33.19183774845472
20
-57.68292682926829
0
VERTEX
8
C3
10
33.19183774845472
20
-57.5609756097561
0
VERTEX
8
C3
10
33.06988652894252
20
-57.5609756097561
0
SEQEND
0
POLYLINE
8
C3
66
1
70
1
0
VERTEX
8
C3
10
32.43407983377641
20
-56.40243902439024
0
VERTEX
8
C3
10
32.43407983377641
20
-56.28048780487804
0
VERTEX
8
C3
10
32.31212861426421
20
-56.28048780487804
0
VERTEX
8
C3
10
32.31212861426421
20
-56.40243902439024
0
VERTEX
8
C3
10
32.43407983377641
20
-56.40243902439024
0
SEQEND
0
POLYLINE
8
C3
66
1
70
1
0
VERTEX
8
C3
10
31.126062568470346
20
-57.5609756097561
0
VERTEX
8
C3
10
31.004111348958148
20
-57.5609756097561
0
VERTEX
8
C3
10
31.004111348958148
20
-57.68292682926829
0
VERTEX
8
C3
10
31.126062568470346
20
-57.68292682926829
0
VERTEX
8
C3
10
31.126062568470346
20
-57.5609756097561
0
SEQEND
0
POLYLINE
8
C3
66
1
70
1
0
VERTEX
8
C3
10
32.85860309305282
20
-56.28048780487804
0
VERTEX
8
C3
10
32.85860309305282
20
-56.40243902439024
0
VERTEX
8
C3
10
32.98055431256502
20
-56.40243902439024
0
VERTEX
8
C3
10
32.98055431256502
20
-56.28048780487804
0
VERTEX
8
C3
10
32.85860309305282
20
-56.28048780487804
0
SEQEND
0
POLYLINE
8
C3
66
1
70
1
0
VERTEX
8
C3
10
33.30303499821024
20
-55.12195121951219
0
VERTEX
8
C3
10
33.30303499821024
20
-54.99999999999999
0
VERTEX
8
C3
10
33.18108377869804
20
-54.99999999999999
0
VERTEX
8
C3
10
33.18108377869804
20
-55.12195121951219
0
VERTEX
8
C3
10
33.30303499821024
20
-55.12195121951219
0
SEQEND
0
POLYLINE
8
C3
66
1
70
1
0
VERTEX
8
C3
10
33.32811528817477
20
-56.40243902439024
0
VERTEX
8
C3
10
33.32811528817477
20
-56.28048780487804
0
VERTEX
8
C3
10
33.206164068662574
20
-56.28048780487804
0
VERTEX
8
C3
10
33.206164068662574
20
-56.40243902439024
0
VERTEX
8
C3
10
33.32811528817477
20
-56.40243902439024
0
SEQEND
0
POLYLINE
8
C3
66
1
70
1
0
VERTEX
8
C3
10
32.46997515356789
20
-55.12195121951219
0
VERTEX
8
C3
10
32.46997515356789
20
-54.99999999999999
0
VERTEX
8
C3
10
32.34802393405569
20
-54.99999999999999
0
VERTEX
8
C3
10
32.34802393405569
20
-55.12195121951219
0
VERTEX
8
C3
10
32.46997515356789
20
-55.12195121951219
0
SEQEND
0
POLYLINE
8
C3
66
1
70
1
0
VERTEX
8
C3
10
33.95965162358836
20
-56.30615510361126
0
VERTEX
8
C3
10
33.92434331256548
20
-56.291529922321104
0
VERTEX
8
C3
10
33.88903500154261
20
-56.30615510361126
0
VERTEX
8
C3
10
33.87440982025244
20
-56.341463414634156
0
VERTEX
8
C3
10
33.88903500154261
20
-56.37677172565703
0
VERTEX
8
C3
10
33.92434331256548
20
-56.3913969069472
0
VERTEX
8
C3
10
33.95965162358836
20
-56.37677172565703
0
VERTEX
8
C3
10
33.97427680487853
20
-56.341463414634156
0
VERTEX
8
C3
10
33.95965162358836
20
-56.30615510361126
0
SEQEND
0
POLYLINE
8
C3
66
1
70
1
0
VERTEX
8
C3
10
31.785266677794468
20
-55.1219512195122
0
VERTEX
8
C3
10
31.785266677794468
20
-54.99999999999999
0
VERTEX
8
C3
10
31.663315458282298
20
-54.99999999999999
0
VERTEX
8
C3
10
31.663315458282298
20
-55.1219512195122
0
VERTEX
8
C3
10
31.785266677794468
20
-55.1219512195122
0
SEQEND
0
POLYLINE
8
C3
66
1
70
1
0
VERTEX
8
C3
10
30.430592278850625
20
-56.37677172565703
0
VERTEX
8
C3
10
30.4659005898735
20
-56.3913969069472
0
VERTEX
8
C3
10
30.501208900896373
20
-56.37677172565703
0
VERTEX
8
C3
10
30.515834082186544
20
-56.341463414634156
0
VERTEX
8
C3
10
30.501208900896373
20
-56.30615510361126
0
VERTEX
8
C3
10
30.4659005898735
20
-56.291529922321104
0
VERTEX
8
C3
10
30.430592278850625
20
-56.30615510361126
0
VERTEX
8
C3
10
30.415967097560454
20
-56.341463414634156
0
VERTEX
8
C3
10
30.430592278850625
20
-56.37677172565703
0
SEQEND
0
POLYLINE
8
C3
66
1
70
1
0
VERTEX
8
C3
10
30.78663347334269
20
-54.99999999999999
0
VERTEX
8
C3
10
30.66468225383049
20
-54.99999999999999
0
VERTEX
8
C3
10
30.66468225383049
20
-55.12195121951219
0
VERTEX
8
C3
10
30.78663347334269
20
-55.12195121951219
0
VERTEX
8
C3
10
30.78663347334269
20
-54.99999999999999
0
SEQEND
0
POLYLINE
8
C3
66
1
70
1
0
VERTEX
8
C3
10
33.71835919061378
20
-56.40243902439024
0
VERTEX
8
C3
10
33.71835919061378
20
-55.4335464121947
0
VERTEX
8
C3
10
33.13177239756088
20
-55.4335464121947
0
VERTEX
8
C3
10
33.13177239756088
20
-56.17355112262202
0
VERTEX
8
C3
10
33.59640797110161
20
-56.17355112262202
0
VERTEX
8
C3
10
33.59640797110161
20
-56.40243902439024
0
VERTEX
8
C3
10
33.71835919061378
20
-56.40243902439024
0
SEQEND
0
POLYLINE
8
C3
66
1
70
1
0
VERTEX
8
C3
10
32.76218431512687
20
-55.634146341463406
0
VERTEX
8
C3
10
32.52439024390243
20
-55.634146341463406
0
VERTEX
8
C3
10
32.52439024390243
20
-55.89024390243902
0
VERTEX
8
C3
10
32.640233095614676
20
-55.89024390243902
0
VERTEX
8
C3
10
32.640233095614676
20
-56.68292682926829
0
VERTEX
8
C3
10
32.76218431512687
20
-56.68292682926829
0
VERTEX
8
C3
10
32.76218431512687
20
-55.634146341463406
0
SEQEND
0
POLYLINE
8
C3
66
1
70
1
0
VERTEX
8
C3
10
36.745055443532536
20
-55.55005682990303
0
VERTEX
8
C3
10
36.745055443532536
20
-56.18292682926829
0
VERTEX
8
C3
10
36.915787150849596
20
-56.18292682926829
0
VERTEX
8
C3
10
36.915787150849596
20
-56.40243902439024
0
VERTEX
8
C3
10
37.037738370361794
20
-56.40243902439024
0
VERTEX
8
C3
10
37.037738370361794
20
-56.18292682926829
0
VERTEX
8
C3
10
37.208470077678854
20
-56.18292682926829
0
VERTEX
8
C3
10
37.208470077678854
20
-55.55005682990303
0
VERTEX
8
C3
10
36.745055443532536
20
-55.55005682990303
0
SEQEND
0
POLYLINE
8
C3
66
1
70
1
0
VERTEX
8
C3
10
39.39629335592561
20
-57.68292682926829
0
VERTEX
8
C3
10
39.518244575437805
20
-57.68292682926829
0
VERTEX
8
C3
10
39.518244575437805
20
-57.5609756097561
0
VERTEX
8
C3
10
39.39629335592561
20
-57.5609756097561
0
VERTEX
8
C3
10
39.39629335592561
20
-57.68292682926829
0
SEQEND
0
POLYLINE
8
C3
66
1
70
1
0
VERTEX
8
C3
10
37.6109091020691
20
-56.28048780487804
0
VERTEX
8
C3
10
37.4889578825569
20
-56.28048780487804
0
VERTEX
8
C3
10
37.4889578825569
20
-56.40243902439024
0
VERTEX
8
C3
10
37.6109091020691
20
-56.40243902439024
0
VERTEX
8
C3
10
37.6109091020691
20
-56.28048780487804
0
SEQEND
0
POLYLINE
8
C3
66
1
70
1
0
VERTEX
8
C3
10
38.923545065527904
20
-57.5609756097561
0
VERTEX
8
C3
10
38.923545065527904
20
-57.68292682926829
0
VERTEX
8
C3
10
39.0454962850401
20
-57.68292682926829
0
VERTEX
8
C3
10
39.0454962850401
20
-57.5609756097561
0
VERTEX
8
C3
10
38.923545065527904
20
-57.5609756097561
0
SEQEND
0
POLYLINE
8
C3
66
1
70
1
0
VERTEX
8
C3
10
38.287738370361794
20
-56.40243902439024
0
VERTEX
8
C3
10
38.287738370361794
20
-56.28048780487804
0
VERTEX
8
C3
10
38.165787150849596
20
-56.28048780487804
0
VERTEX
8
C3
10
38.165787150849596
20
-56.40243902439024
0
VERTEX
8
C3
10
38.287738370361794
20
-56.40243902439024
0
SEQEND
0
POLYLINE
8
C3
66
1
70
1
0
VERTEX
8
C3
10
36.97972110505573
20
-57.5609756097561
0
VERTEX
8
C3
10
36.85776988554353
20
-57.5609756097561
0
VERTEX
8
C3
10
36.85776988554353
20
-57.68292682926829
0
VERTEX
8
C3
10
36.97972110505573
20
-57.68292682926829
0
VERTEX
8
C3
10
36.97972110505573
20
-57.5609756097561
0
SEQEND
0
POLYLINE
8
C3
66
1
70
1
0
VERTEX
8
C3
10
38.712261629638206
20
-56.28048780487804
0
VERTEX
8
C3
10
38.712261629638206
20
-56.40243902439024
0
VERTEX
8
C3
10
38.834212849150404
20
-56.40243902439024
0
VERTEX
8
C3
10
38.834212849150404
20
-56.28048780487804
0
VERTEX
8
C3
10
38.712261629638206
20
-56.28048780487804
0
SEQEND
0
POLYLINE
8
C3
66
1
70
1
0
VERTEX
8
C3
10
39.15669353479562
20
-55.12195121951219
0
VERTEX
8
C3
10
39.15669353479562
20
-54.99999999999999
0
VERTEX
8
C3
10
39.034742315283424
20
-54.99999999999999
0
VERTEX
8
C3
10
39.034742315283424
20
-55.12195121951219
0
VERTEX
8
C3
10
39.15669353479562
20
-55.12195121951219
0
SEQEND
0
POLYLINE
8
C3
66
1
70
1
0
VERTEX
8
C3
10
39.18177382476016
20
-56.40243902439024
0
VERTEX
8
C3
10
39.18177382476016
20
-56.28048780487804
0
VERTEX
8
C3
10
39.05982260524796
20
-56.28048780487804
0
VERTEX
8
C3
10
39.05982260524796
20
-56.40243902439024
0
VERTEX
8
C3
10
39.18177382476016
20
-56.40243902439024
0
SEQEND
0
POLYLINE
8
C3
66
1
70
1
0
VERTEX
8
C3
10
38.32363369015327
20
-55.12195121951219
0
VERTEX
8
C3
10
38.32363369015327
20
-54.99999999999999
0
VERTEX
8
C3
10
38.201682470641074
20
-54.99999999999999
0
VERTEX
8
C3
10
38.201682470641074
20
-55.12195121951219
0
VERTEX
8
C3
10
38.32363369015327
20
-55.12195121951219
0
SEQEND
0
POLYLINE
8
C3
66
1
70
1
0
VERTEX
8
C3
10
39.81331016017374
20
-56.30615510361126
0
VERTEX
8
C3
10
39.77800184915087
20
-56.291529922321104
0
VERTEX
8
C3
10
39.742693538127995
20
-56.30615510361126
0
VERTEX
8
C3
10
39.728068356837824
20
-56.341463414634156
0
VERTEX
8
C3
10
39.742693538127995
20
-56.37677172565703
0
VERTEX
8
C3
10
39.77800184915087
20
-56.3913969069472
0
VERTEX
8
C3
10
39.81331016017374
20
-56.37677172565703
0
VERTEX
8
C3
10
39.82793534146391
20
-56.341463414634156
0
VERTEX
8
C3
10
39.81331016017374
20
-56.30615510361126
0
SEQEND
0
POLYLINE
8
C3
66
1
70
1
0
VERTEX
8
C3
10
37.63892521437985
20
-55.1219512195122
0
VERTEX
8
C3
10
37.63892521437985
20
-54.99999999999999
0
VERTEX
8
C3
10
37.51697399486768
20
-54.99999999999999
0
VERTEX
8
C3
10
37.51697399486768
20
-55.1219512195122
0
VERTEX
8
C3
10
37.63892521437985
20
-55.1219512195122
0
SEQEND
0
POLYLINE
8
C3
66
1
70
1
0
VERTEX
8
C3
10
36.28425081543601
20
-56.37677172565703
0
VERTEX
8
C3
10
36.319559126458884
20
-56.3913969069472
0
VERTEX
8
C3
10
36.35486743748176
20
-56.37677172565703
0
VERTEX
8
C3
10
36.36949261877193
20
-56.341463414634156
0
VERTEX
8
C3
10
36.35486743748176
20
-56.30615510361126
0
VERTEX
8
C3
10
36.319559126458884
20
-56.291529922321104
0
VERTEX
8
C3
10
36.28425081543601
20
-56.30615510361126
0
VERTEX
8
C3
10
36.26962563414584
20
-56.341463414634156
0
VERTEX
8
C3
10
36.28425081543601
20
-56.37677172565703
0
SEQEND
0
POLYLINE
8
C3
66
1
70
1
0
VERTEX
8
C3
10
36.640292009928075
20
-54.99999999999999
0
VERTEX
8
C3
10
36.51834079041588
20
-54.99999999999999
0
VERTEX
8
C3
10
36.51834079041588
20
-55.12195121951219
0
VERTEX
8
C3
10
36.640292009928075
20
-55.12195121951219
0
VERTEX
8
C3
10
36.640292009928075
20
-54.99999999999999
0
SEQEND
0
POLYLINE
8
C3
66
1
70
1
0
VERTEX
8
C3
10
39.57201772719917
20
-56.40243902439024
0
VERTEX
8
C3
10
39.57201772719917
20
-55.4335464121947
0
VERTEX
8
C3
10
38.985430934146265
20
-55.4335464121947
0
VERTEX
8
C3
10
38.985430934146265
20
-56.17355112262202
0
VERTEX
8
C3
10
39.450066507687
20
-56.17355112262202
0
VERTEX
8
C3
10
39.450066507687
20
-56.40243902439024
0
VERTEX
8
C3
10
39.57201772719917
20
-56.40243902439024
0
SEQEND
0
POLYLINE
8
C3
66
1
70
1
0
VERTEX
8
C3
10
38.61584285171226
20
-55.634146341463406
0
VERTEX
8
C3
10
38.378048780487816
20
-55.634146341463406
0
VERTEX
8
C3
10
38.378048780487816
20
-55.89024390243902
0
VERTEX
8
C3
10
38.49389163220006
20
-55.89024390243902
0
VERTEX
8
C3
10
38.49389163220006
20
-56.68292682926829
0
VERTEX
8
C3
10
38.61584285171226
20
-56.68292682926829
0
VERTEX
8
C3
10
38.61584285171226
20
-55.634146341463406
0
SEQEND
0
POLYLINE
8
C3
66
1
70
1
0
VERTEX
8
C3
10
42.59871398011792
20
-55.55005682990303
0
VERTEX
8
C3
10
42.59871398011792
20
-56.18292682926829
0
VERTEX
8
C3
10
42.76944568743498
20
-56.18292682926829
0
VERTEX
8
C3
10
42.76944568743498
20
-56.40243902439024
0
VERTEX
8
C3
10
42.89139690694718
20
-56.40243902439024
0
VERTEX
8
C3
10
42.89139690694718
20
-56.18292682926829
0
VERTEX
8
C3
10
43.06212861426424
20
-56.18292682926829
0
VERTEX
8
C3
10
43.06212861426424
20
-55.55005682990303
0
VERTEX
8
C3
10
42.59871398011792
20
-55.55005682990303
0
SEQEND
0
POLYLINE
8
C3
66
1
70
1
0
VERTEX
8
C3
10
45.24995189251099
20
-57.68292682926829
0
VERTEX
8
C3
10
45.37190311202319
20
-57.68292682926829
0
VERTEX
8
C3
10
45.37190311202319
20
-57.5609756097561
0
VERTEX
8
C3
10
45.24995189251099
20
-57.5609756097561
0
VERTEX
8
C3
10
45.24995189251099
20
-57.68292682926829
0
SEQEND
0
POLYLINE
8
C3
66
1
70
1
0
VERTEX
8
C3
10
43.464567638654486
20
-56.28048780487804
0
VERTEX
8
C3
10
43.34261641914229
20
-56.28048780487804
0
VERTEX
8
C3
10
43.34261641914229
20
-56.40243902439024
0
VERTEX
8
C3
10
43.464567638654486
20
-56.40243902439024
0
VERTEX
8
C3
10
43.464567638654486
20
-56.28048780487804
0
SEQEND
0
POLYLINE
8
C3
66
1
70
1
0
VERTEX
8
C3
10
44.77720360211329
20
-57.5609756097561
0
VERTEX
8
C3
10
44.77720360211329
20
-57.68292682926829
0
VERTEX
8
C3
10
44.89915482162549
20
-57.68292682926829
0
VERTEX
8
C3
10
44.89915482162549
20
-57.5609756097561
0
VERTEX
8
C3
10
44.77720360211329
20
-57.5609756097561
0
SEQEND
0
POLYLINE
8
C3
66
1
70
1
0
VERTEX
8
C3
10
44.14139690694718
20
-56.40243902439024
0
VERTEX
8
C3
10
44.14139690694718
20
-56.28048780487804
0
VERTEX
8
C3
10
44.01944568743498
20
-56.28048780487804
0
VERTEX
8
C3
10
44.01944568743498
20
-56.40243902439024
0
VERTEX
8
C3
10
44.14139690694718
20
-56.40243902439024
0
SEQEND
0
POLYLINE
8
C3
66
1
70
1
0
VERTEX
8
C3
10
42.833379641641116
20
-57.5609756097561
0
VERTEX
8
C3
10
42.71142842212892
20
-57.5609756097561
0
VERTEX
8
C3
10
42.71142842212892
20
-57.68292682926829
0
VERTEX
8
C3
10
42.833379641641116
20
-57.68292682926829
0
VERTEX
8
C3
10
42.833379641641116
20
-57.5609756097561
0
SEQEND
0
POLYLINE
8
C3
66
1
70
1
0
VERTEX
8
C3
10
44.56592016622359
20
-56.28048780487804
0
VERTEX
8
C3
10
44.56592016622359
20
-56.40243902439024
0
VERTEX
8
C3
10
44.68787138573579
20
-56.40243902439024
0
VERTEX
8
C3
10
44.68787138573579
20
-56.28048780487804
0
VERTEX
8
C3
10
44.56592016622359
20
-56.28048780487804
0
SEQEND
0
POLYLINE
8
C3
66
1
70
1
0
VERTEX
8
C3
10
45.01035207138101
20
-55.12195121951219
0
VERTEX
8
C3
10
45.01035207138101
20
-54.99999999999999
0
VERTEX
8
C3
10
44.88840085186881
20
-54.99999999999999
0
VERTEX
8
C3
10
44.88840085186881
20
-55.12195121951219
0
VERTEX
8
C3
10
45.01035207138101
20
-55.12195121951219
0
SEQEND
0
POLYLINE
8
C3
66
1
70
1
0
VERTEX
8
C3
10
45.03543236134554
20
-56.40243902439024
0
VERTEX
8
C3
10
45.03543236134554
20
-56.28048780487804
0
VERTEX
8
C3
10
44.913481141833344
20
-56.28048780487804
0
VERTEX
8
C3
10
44.913481141833344
20
-56.40243902439024
0
VERTEX
8
C3
10
45.03543236134554
20
-56.40243902439024
0
SEQEND
0
POLYLINE
8
C3
66
1
70
1
0
VERTEX
8
C3
10
44.17729222673866
20
-55.12195121951219
0
VERTEX
8
C3
10
44.17729222673866
20
-54.99999999999999
0
VERTEX
8
C3
10
44.05534100722646
20
-54.99999999999999
0
VERTEX
8
C3
10
44.05534100722646
20
-55.12195121951219
0
VERTEX
8
C3
10
44.17729222673866
20
-55.12195121951219
0
SEQEND
0
POLYLINE
8
C3
66
1
70
1
0
VERTEX
8
C3
10
45.66696869675913
20
-56.30615510361126
0
VERTEX
8
C3
10
45.631660385736254
20
-56.291529922321104
0
VERTEX
8
C3
10
45.59635207471338
20
-56.30615510361126
0
VERTEX
8
C3
10
45.58172689342321
20
-56.341463414634156
0
VERTEX
8
C3
10
45.59635207471338
20
-56.37677172565703
0
VERTEX
8
C3
10
45.631660385736254
20
-56.3913969069472
0
VERTEX
8
C3
10
45.66696869675913
20
-56.37677172565703
0
VERTEX
8
C3
10
45.6815938780493
20
-56.341463414634156
0
VERTEX
8
C3
10
45.66696869675913
20
-56.30615510361126
0
SEQEND
0
POLYLINE
8
C3
66
1
70
1
0
VERTEX
8
C3
10
43.49258375096524
20
-55.1219512195122
0
VERTEX
8
C3
10
43.49258375096524
20
-54.99999999999999
0
VERTEX
8
C3
10
43.37063253145307
20
-54.99999999999999
0
VERTEX
8
C3
10
43.37063253145307
20
-55.1219512195122
0
VERTEX
8
C3
10
43.49258375096524
20
-55.1219512195122
0
SEQEND
0
POLYLINE
8
C3
66
1
70
1
0
VERTEX
8
C3
10
42.137909352021396
20
-56.37677172565703
0
VERTEX
8
C3
10
42.17321766304427
20
-56.3913969069472
0
VERTEX
8
C3
10
42.20852597406714
20
-56.37677172565703
0
VERTEX
8
C3
10
42.223151155357314
20
-56.341463414634156
0
VERTEX
8
C3
10
42.20852597406714
20
-56.30615510361126
0
VERTEX
8
C3
10
42.17321766304427
20
-56.291529922321104
0
VERTEX
8
C3
10
42.137909352021396
20
-56.30615510361126
0
VERTEX
8
C3
10
42.123284170731225
20
-56.341463414634156
0
VERTEX
8
C3
10
42.137909352021396
20
-56.37677172565703
0
SEQEND
0
POLYLINE
8
C3
66
1
70
1
0
VERTEX
8
C3
10
42.49395054651346
20
-54.99999999999999
0
VERTEX
8
C3
10
42.37199932700126
20
-54.99999999999999
0
VERTEX
8
C3
10
42.37199932700126
20
-55.12195121951219
0
VERTEX
8
C3
10
42.49395054651346
20
-55.12195121951219
0
VERTEX
8
C3
10
42.49395054651346
20
-54.99999999999999
0
SEQEND
0
POLYLINE
8
C3
66
1
70
1
0
VERTEX
8
C3
10
45.42567626378455
20
-56.40243902439024
0
VERTEX
8
C3
10
45.42567626378455
20
-55.4335464121947
0
VERTEX
8
C3
10
44.83908947073165
20
-55.4335464121947
0
VERTEX
8
C3
10
44.83908947073165
20
-56.17355112262202
0
VERTEX
8
C3
10
45.30372504427238
20
-56.17355112262202
0
VERTEX
8
C3
10
45.30372504427238
20
-56.40243902439024
0
VERTEX
8
C3
10
45.42567626378455
20
-56.40243902439024
0
SEQEND
0
POLYLINE
8
C3
66
1
70
1
0
VERTEX
8
C3
10
44.469501388297644
20
-55.634146341463406
0
VERTEX
8
C3
10
44.2317073170732
20
-55.634146341463406
0
VERTEX
8
C3
10
44.2317073170732
20
-55.89024390243902
0
VERTEX
8
C3
10
44.347550168785446
20
-55.89024390243902
0
VERTEX
8
C3
10
44.347550168785446
20
-56.68292682926829
0
VERTEX
8
C3
10
44.469501388297644
20
-56.68292682926829
0
VERTEX
8
C3
10
44.469501388297644
20
-55.634146341463406
0
SEQEND
0
POLYLINE
8
C3
66
1
70
1
0
VERTEX
8
C3
10
48.45237251670328
20
-55.55005682990303
0
VERTEX
8
C3
10
48.45237251670328
20
-56.18292682926829
0
VERTEX
8
C3
10
48.62310422402034
20
-56.18292682926829
0
VERTEX
8
C3
10
48.62310422402034
20
-56.40243902439024
0
VERTEX
8
C3
10
48.745055443532536
20
-56.40243902439024
0
VERTEX
8
C3
10
48.745055443532536
20
-56.18292682926829
0
VERTEX
8
C3
10
48.915787150849596
20
-56.18292682926829
0
VERTEX
8
C3
10
48.915787150849596
20
-55.55005682990303
0
VERTEX
8
C3
10
48.45237251670328
20
-55.55005682990303
0
SEQEND
0
POLYLINE
8
C3
66
1
70
1
0
VERTEX
8
C3
10
51.10361042909635
20
-57.68292682926829
0
VERTEX
8
C3
10
51.22556164860855
20
-57.68292682926829
0
VERTEX
8
C3
10
51.22556164860855
20
-57.5609756097561
0
VERTEX
8
C3
10
51.10361042909635
20
-57.5609756097561
0
VERTEX
8
C3
10
51.10361042909635
20
-57.68292682926829
0
SEQEND
0
POLYLINE
8
C3
66
1
70
1
0
VERTEX
8
C3
10
49.31822617523984
20
-56.28048780487804
0
VERTEX
8
C3
10
49.196274955727645
20
-56.28048780487804
0
VERTEX
8
C3
10
49.196274955727645
20
-56.40243902439024
0
VERTEX
8
C3
10
49.31822617523984
20
-56.40243902439024
0
VERTEX
8
C3
10
49.31822617523984
20
-56.28048780487804
0
SEQEND
0
POLYLINE
8
C3
66
1
70
1
0
VERTEX
8
C3
10
50.630862138698646
20
-57.5609756097561
0
VERTEX
8
C3
10
50.630862138698646
20
-57.68292682926829
0
VERTEX
8
C3
10
50.752813358210844
20
-57.68292682926829
0
VERTEX
8
C3
10
50.752813358210844
20
-57.5609756097561
0
VERTEX
8
C3
10
50.630862138698646
20
-57.5609756097561
0
SEQEND
0
POLYLINE
8
C3
66
1
70
1
0
VERTEX
8
C3
10
49.995055443532536
20
-56.40243902439024
0
VERTEX
8
C3
10
49.995055443532536
20
-56.28048780487804
0
VERTEX
8
C3
10
49.87310422402034
20
-56.28048780487804
0
VERTEX
8
C3
10
49.87310422402034
20
-56.40243902439024
0
VERTEX
8
C3
10
49.995055443532536
20
-56.40243902439024
0
SEQEND
0
POLYLINE
8
C3
66
1
70
1
0
VERTEX
8
C3
10
48.68703817822647
20
-57.5609756097561
0
VERTEX
8
C3
10
48.565086958714275
20
-57.5609756097561
0
VERTEX
8
C3
10
48.565086958714275
20
-57.68292682926829
0
VERTEX
8
C3
10
48.68703817822647
20
-57.68292682926829
0
VERTEX
8
C3
10
48.68703817822647
20
-57.5609756097561
0
SEQEND
0
POLYLINE
8
C3
66
1
70
1
0
VERTEX
8
C3
10
50.41957870280895
20
-56.28048780487804
0
VERTEX
8
C3
10
50.41957870280895
20
-56.40243902439024
0
VERTEX
8
C3
10
50.541529922321146
20
-56.40243902439024
0
VERTEX
8
C3
10
50.541529922321146
20
-56.28048780487804
0
VERTEX
8
C3
10
50.41957870280895
20
-56.28048780487804
0
SEQEND
0
POLYLINE
8
C3
66
1
70
1
0
VERTEX
8
C3
10
50.864010607966364
20
-55.12195121951219
0
VERTEX
8
C3
10
50.864010607966364
20
-54.99999999999999
0
VERTEX
8
C3
10
50.742059388454166
20
-54.99999999999999
0
VERTEX
8
C3
10
50.742059388454166
20
-55.12195121951219
0
VERTEX
8
C3
10
50.864010607966364
20
-55.12195121951219
0
SEQEND
0
POLYLINE
8
C3
66
1
70
1
0
VERTEX
8
C3
10
50.8890908979309
20
-56.40243902439024
0
VERTEX
8
C3
10
50.8890908979309
20
-56.28048780487804
0
VERTEX
8
C3
10
50.7671396784187
20
-56.28048780487804
0
VERTEX
8
C3
10
50.7671396784187
20
-56.40243902439024
0
VERTEX
8
C3
10
50.8890908979309
20
-56.40243902439024
0
SEQEND
0
POLYLINE
8
C3
66
1
70
1
0
VERTEX
8
C3
10
50.030950763324014
20
-55.12195121951219
0
VERTEX
8
C3
10
50.030950763324014
20
-54.99999999999999
0
VERTEX
8
C3
10
49.90899954381182
20
-54.99999999999999
0
VERTEX
8
C3
10
49.90899954381182
20
-55.12195121951219
0
VERTEX
8
C3
10
50.030950763324014
20
-55.12195121951219
0
SEQEND
0
POLYLINE
8
C3
66
1
70
1
0
VERTEX
8
C3
10
51.520627233344484
20
-56.30615510361126
0
VERTEX
8
C3
10
51.48531892232161
20
-56.291529922321104
0
VERTEX
8
C3
10
51.45001061129874
20
-56.30615510361126
0
VERTEX
8
C3
10
51.435385430008566
20
-56.341463414634156
0
VERTEX
8
C3
10
51.45001061129874
20
-56.37677172565703
0
VERTEX
8
C3
10
51.48531892232161
20
-56.3913969069472
0
VERTEX
8
C3
10
51.520627233344484
20
-56.37677172565703
0
VERTEX
8
C3
10
51.535252414634655
20
-56.341463414634156
0
VERTEX
8
C3
10
51.520627233344484
20
-56.30615510361126
0
SEQEND
0
POLYLINE
8
C3
66
1
70
1
0
VERTEX
8
C3
10
49.346242287550595
20
-55.1219512195122
0
VERTEX
8
C3
10
49.346242287550595
20
-54.99999999999999
0
VERTEX
8
C3
10
49.224291068038426
20
-54.99999999999999
0
VERTEX
8
C3
10
49.224291068038426
20
-55.1219512195122
0
VERTEX
8
C3
10
49.346242287550595
20
-55.1219512195122
0
SEQEND
0
POLYLINE
8
C3
66
1
70
1
0
VERTEX
8
C3
10
47.99156788860675
20
-56.37677172565703
0
VERTEX
8
C3
10
48.026876199629626
20
-56.3913969069472
0
VERTEX
8
C3
10
48.0621845106525
20
-56.37677172565703
0
VERTEX
8
C3
10
48.07680969194267
20
-56.341463414634156
0
VERTEX
8
C3
10
48.0621845106525
20
-56.30615510361126
0
VERTEX
8
C3
10
48.026876199629626
20
-56.291529922321104
0
VERTEX
8
C3
10
47.99156788860675
20
-56.30615510361126
0
VERTEX
8
C3
10
47.97694270731658
20
-56.341463414634156
0
VERTEX
8
C3
10
47.99156788860675
20
-56.37677172565703
0
SEQEND
0
POLYLINE
8
C3
66
1
70
1
0
VERTEX
8
C3
10
48.34760908309882
20
-54.99999999999999
0
VERTEX
8
C3
10
48.22565786358662
20
-54.99999999999999
0
VERTEX
8
C3
10
48.22565786358662
20
-55.12195121951219
0
VERTEX
8
C3
10
48.34760908309882
20
-55.12195121951219
0
VERTEX
8
C3
10
48.34760908309882
20
-54.99999999999999
0
SEQEND
0
POLYLINE
8
C3
66
1
70
1
0
VERTEX
8
C3
10
51.27933480036991
20
-56.40243902439024
0
VERTEX
8
C3
10
51.27933480036991
20
-55.4335464121947
0
VERTEX
8
C3
10
50.69274800731701
20
-55.4335464121947
0
VERTEX
8
C3
10
50.69274800731701
20
-56.17355112262202
0
VERTEX
8
C3
10
51.15738358085774
20
-56.17355112262202
0
VERTEX
8
C3
10
51.15738358085774
20
-56.40243902439024
0
VERTEX
8
C3
10
51.27933480036991
20
-56.40243902439024
0
SEQEND
0
POLYLINE
8
C3
66
1
70
1
0
VERTEX
8
C3
10
50.323159924883
20
-55.634146341463406
0
VERTEX
8
C3
10
50.08536585365856
20
-55.634146341463406
0
VERTEX
8
C3
10
50.08536585365856
20
-55.89024390243902
0
VERTEX
8
C3
10
50.2012087053708
20
-55.89024390243902
0
VERTEX
8
C3
10
50.2012087053708
20
-56.68292682926829
0
VERTEX
8
C3
10
50.323159924883
20
-56.68292682926829
0
VERTEX
8
C3
10
50.323159924883
20
-55.634146341463406
0
SEQEND
0
POLYLINE
8
C3
66
1
70
1
0
VERTEX
8
C3
10
54.306031053288635
20
-55.55005682990303
0
VERTEX
8
C3
10
54.306031053288635
20
-56.18292682926829
0
VERTEX
8
C3
10
54.476762760605695
20
-56.18292682926829
0
VERTEX
8
C3
10
54.476762760605695
20
-56.40243902439024
0
VERTEX
8
C3
10
54.59871398011789
20
-56.40243902439024
0
VERTEX
8
C3
10
54.59871398011789
20
-56.18292682926829
0
VERTEX
8
C3
10
54.76944568743495
20
-56.18292682926829
0
VERTEX
8
C3
10
54.76944568743495
20
-55.55005682990303
0
VERTEX
8
C3
10
54.306031053288635
20
-55.55005682990303
0
SEQEND
0
POLYLINE
8
C3
66
1
70
1
0
VERTEX
8
C3
10
56.957268965681706
20
-57.68292682926829
0
VERTEX
8
C3
10
57.079220185193904
20
-57.68292682926829
0
VERTEX
8
C3
10
57.079220185193904
20
-57.5609756097561
0
VERTEX
8
C3
10
56.957268965681706
20
-57.5609756097561
0
VERTEX
8
C3
10
56.957268965681706
20
-57.68292682926829
0
SEQEND
0
POLYLINE
8
C3
66
1
70
1
0
VERTEX
8
C3
10
55.1718847118252
20
-56.28048780487804
0
VERTEX
8
C3
10
55.049933492313
20
-56.28048780487804
0
VERTEX
8
C3
10
55.049933492313
20
-56.40243902439024
0
VERTEX
8
C3
10
55.1718847118252
20
-56.40243902439024
0
VERTEX
8
C3
10
55.1718847118252
20
-56.28048780487804
0
SEQEND
0
POLYLINE
8
C3
66
1
70
1
0
VERTEX
8
C3
10
56.484520675284
20
-57.5609756097561
0
VERTEX
8
C3
10
56.484520675284
20
-57.68292682926829
0
VERTEX
8
C3
10
56.6064718947962
20
-57.68292682926829
0
VERTEX
8
C3
10
56.6064718947962
20
-57.5609756097561
0
VERTEX
8
C3
10
56.484520675284
20
-57.5609756097561
0
SEQEND
0
POLYLINE
8
C3
66
1
70
1
0
VERTEX
8
C3
10
55.84871398011789
20
-56.40243902439024
0
VERTEX
8
C3
10
55.84871398011789
20
-56.28048780487804
0
VERTEX
8
C3
10
55.726762760605695
20
-56.28048780487804
0
VERTEX
8
C3
10
55.726762760605695
20
-56.40243902439024
0
VERTEX
8
C3
10
55.84871398011789
20
-56.40243902439024
0
SEQEND
0
POLYLINE
8
C3
66
1
70
1
0
VERTEX
8
C3
10
54.54069671481183
20
-57.5609756097561
0
VERTEX
8
C3
10
54.41874549529963
20
-57.5609756097561
0
VERTEX
8
C3
10
54.41874549529963
20
-57.68292682926829
0
VERTEX
8
C3
10
54.54069671481183
20
-57.68292682926829
0
VERTEX
8
C3
10
54.54069671481183
20
-57.5609756097561
0
SEQEND
0
POLYLINE
8
C3
66
1
70
1
0
VERTEX
8
C3
10
56.273237239394305
20
-56.28048780487804
0
VERTEX
8
C3
10
56.273237239394305
20
-56.40243902439024
0
VERTEX
8
C3
10
56.3951884589065
20
-56.40243902439024
0
VERTEX
8
C3
10
56.3951884589065
20
-56.28048780487804
0
VERTEX
8
C3
10
56.273237239394305
20
-56.28048780487804
0
SEQEND
0
POLYLINE
8
C3
66
1
70
1
0
VERTEX
8
C3
10
56.71766914455172
20
-55.12195121951219
0
VERTEX
8
C3
10
56.71766914455172
20
-54.99999999999999
0
VERTEX
8
C3
10
56.59571792503952
20
-54.99999999999999
0
VERTEX
8
C3
10
56.59571792503952
20
-55.12195121951219
0
VERTEX
8
C3
10
56.71766914455172
20
-55.12195121951219
0
SEQEND
0
POLYLINE
8
C3
66
1
70
1
0
VERTEX
8
C3
10
56.742749434516256
20
-56.40243902439024
0
VERTEX
8
C3
10
56.742749434516256
20
-56.28048780487804
0
VERTEX
8
C3
10
56.62079821500406
20
-56.28048780487804
0
VERTEX
8
C3
10
56.62079821500406
20
-56.40243902439024
0
VERTEX
8
C3
10
56.742749434516256
20
-56.40243902439024
0
SEQEND
0
POLYLINE
8
C3
66
1
70
1
0
VERTEX
8
C3
10
55.88460929990937
20
-55.12195121951219
0
VERTEX
8
C3
10
55.88460929990937
20
-54.99999999999999
0
VERTEX
8
C3
10
55.76265808039717
20
-54.99999999999999
0
VERTEX
8
C3
10
55.76265808039717
20
-55.12195121951219
0
VERTEX
8
C3
10
55.88460929990937
20
-55.12195121951219
0
SEQEND
0
POLYLINE
8
C3
66
1
70
1
0
VERTEX
8
C3
10
57.37428576992984
20
-56.30615510361126
0
VERTEX
8
C3
10
57.33897745890697
20
-56.291529922321104
0
VERTEX
8
C3
10
57.303669147884094
20
-56.30615510361126
0
VERTEX
8
C3
10
57.28904396659392
20
-56.341463414634156
0
VERTEX
8
C3
10
57.303669147884094
20
-56.37677172565703
0
VERTEX
8
C3
10
57.33897745890697
20
-56.3913969069472
0
VERTEX
8
C3
10
57.37428576992984
20
-56.37677172565703
0
VERTEX
8
C3
10
57.38891095122001
20
-56.341463414634156
0
VERTEX
8
C3
10
57.37428576992984
20
-56.30615510361126
0
SEQEND
0
POLYLINE
8
C3
66
1
70
1
0
VERTEX
8
C3
10
55.19990082413595
20
-55.1219512195122
0
VERTEX
8
C3
10
55.19990082413595
20
-54.99999999999999
0
VERTEX
8
C3
10
55.07794960462378
20
-54.99999999999999
0
VERTEX
8
C3
10
55.07794960462378
20
-55.1219512195122
0
VERTEX
8
C3
10
55.19990082413595
20
-55.1219512195122
0
SEQEND
0
POLYLINE
8
C3
66
1
70
1
0
VERTEX
8
C3
10
53.84522642519211
20
-56.37677172565703
0
VERTEX
8
C3
10
53.88053473621498
20
-56.3913969069472
0
VERTEX
8
C3
10
53.91584304723786
20
-56.37677172565703
0
VERTEX
8
C3
10
53.93046822852803
20
-56.341463414634156
0
VERTEX
8
C3
10
53.91584304723786
20
-56.30615510361126
0
VERTEX
8
C3
10
53.88053473621498
20
-56.291529922321104
0
VERTEX
8
C3
10
53.84522642519211
20
-56.30615510361126
0
VERTEX
8
C3
10
53.83060124390194
20
-56.341463414634156
0
VERTEX
8
C3
10
53.84522642519211
20
-56.37677172565703
0
SEQEND
0
POLYLINE
8
C3
66
1
70
1
0
VERTEX
8
C3
10
54.201267619684174
20
-54.99999999999999
0
VERTEX
8
C3
10
54.079316400171976
20
-54.99999999999999
0
VERTEX
8
C3
10
54.079316400171976
20
-55.12195121951219
0
VERTEX
8
C3
10
54.201267619684174
20
-55.12195121951219
0
VERTEX
8
C3
10
54.201267619684174
20
-54.99999999999999
0
SEQEND
0
POLYLINE
8
C3
66
1
70
1
0
VERTEX
8
C3
10
57.132993336955266
20
-56.40243902439024
0
VERTEX
8
C3
10
57.132993336955266
20
-55.4335464121947
0
VERTEX
8
C3
10
56.546406543902364
20
-55.4335464121947
0
VERTEX
8
C3
10
56.546406543902364
20
-56.17355112262202
0
VERTEX
8
C3
10
57.0110421174431
20
-56.17355112262202
0
VERTEX
8
C3
10
57.0110421174431
20
-56.40243902439024
0
VERTEX
8
C3
10
57.132993336955266
20
-56.40243902439024
0
SEQEND
0
POLYLINE
8
C3
66
1
70
1
0
VERTEX
8
C3
10
56.17681846146836
20
-55.634146341463406
0
VERTEX
8
C3
10
55.939024390243915
20
-55.634146341463406
0
VERTEX
8
C3
10
55.939024390243915
20
-55.89024390243902
0
VERTEX
8
C3
10
56.05486724195616
20
-55.89024390243902
0
VERTEX
8
C3
10
56.05486724195616
20
-56.68292682926829
0
VERTEX
8
C3
10
56.17681846146836
20
-56.68292682926829
0
VERTEX
8
C3
10
56.17681846146836
20
-55.634146341463406
0
SEQEND
0
ENDBLK
0
ENDSEC
0
SECTION
2
ENTITIES
0
INSERT
2
LDI_XFB44-1600-011_C3_B1
8
C3
10
0
20
0.0
30
0
0
INSERT
2
LDI_XFB44-1600-011_C3_B1
8
C3
10
0
20
5.121951219512195
30
0
0
INSERT
2
LDI_XFB44-1600-011_C3_B1
8
C3
10
0
20
10.24390243902439
30
0
0
INSERT
2
LDI_XFB44-1600-011_C3_B1
8
C3
10
0
20
15.365853658536587
30
0
0
INSERT
2
LDI_XFB44-1600-011_C3_B1
8
C3
10
0
20
20.48780487804878
30
0
0
INSERT
2
LDI_XFB44-1600-011_C3_B1
8
C3
10
0
20
25.609756097560975
30
0
0
INSERT
2
LDI_XFB44-1600-011_C3_B1
8
C3
10
0
20
30.731707317073173
30
0
0
INSERT
2
LDI_XFB44-1600-011_C3_B1
8
C3
10
0
20
35.853658536585364
30
0
0
INSERT
2
LDI_XFB44-1600-011_C3_B1
8
C3
10
0
20
40.97560975609756
30
0
0
INSERT
2
LDI_XFB44-1600-011_C3_B1
8
C3
10
0
20
46.09756097560976
30
0
0
INSERT
2
LDI_XFB44-1600-011_C3_B1
8
C3
10
0
20
51.21951219512195
30
0
0
INSERT
2
LDI_XFB44-1600-011_C3_B1
8
C3
10
0
20
56.34146341463415
30
0
0
INSERT
2
LDI_XFB44-1600-011_C3_B1
8
C3
10
0
20
61.463414634146346
30
0
0
INSERT
2
LDI_XFB44-1600-011_C3_B1
8
C3
10
0
20
66.58536585365854
30
0
0
INSERT
2
LDI_XFB44-1600-011_C3_B1
8
C3
10
0
20
71.70731707317073
30
0
0
INSERT
2
LDI_XFB44-1600-011_C3_B1
8
C3
10
0
20
76.82926829268293
30
0
0
INSERT
2
LDI_XFB44-1600-011_C3_B1
8
C3
10
0
20
81.95121951219512
30
0
0
INSERT
2
LDI_XFB44-1600-011_C3_B1
8
C3
10
0
20
87.07317073170732
30
0
0
INSERT
2
LDI_XFB44-1600-011_C3_B1
8
C3
10
0
20
92.19512195121952
30
0
0
INSERT
2
LDI_XFB44-1600-011_C3_B1
8
C3
10
0
20
97.3170731707317
30
0
0
INSERT
2
LDI_XFB44-1600-011_C3_B1
8
C3
10
0
20
102.4390243902439
30
0
0
INSERT
2
LDI_XFB44-1600-011_C3_B1
8
C3
10
0
20
107.5609756097561
30
0
0
INSERT
2
LDI_XFB44-1600-011_C3_B1
8
C3
10
0
20
112.6829268292683
30
0
0
POLYLINE
8
C3
66
1
70
1
40
0.1
41
0.1
0
VERTEX
8
C3
10
-61.5
20
-61.2
42
1.0
0
VERTEX
8
C3
10
-60.900000000000006
20
-61.2
42
1.0
0
SEQEND
0
POLYLINE
8
C3
66
1
70
1
40
0.1
41
0.1
0
VERTEX
8
C3
10
-61.5
20
61.2
42
1.0
0
VERTEX
8
C3
10
-60.900000000000006
20
61.2
42
1.0
0
SEQEND
0
POLYLINE
8
C3
66
1
70
1
40
0.1
41
0.1
0
VERTEX
8
C3
10
60.90000000000002
20
-61.2
42
1.0
0
VERTEX
8
C3
10
61.499999999999986
20
-61.2
42
1.0
0
SEQEND
0
POLYLINE
8
C3
66
1
70
1
40
0.1
41
0.1
0
VERTEX
8
C3
10
60.90000000000002
20
61.2
42
1.0
0
VERTEX
8
C3
10
61.499999999999986
20
61.2
42
1.0
0
SEQEND
0
POLYLINE
8
C3
66
1
70
1
0
VERTEX
8
C3
10
-64.46966991411009
20
-64.46966991411009
40
0.08
41
0.08
0
VERTEX
8
C3
10
-65.53033008588991
20
-65.53033008588991
40
0.08
41
0.08
0
SEQEND
0
POLYLINE
8
C3
66
1
70
1
0
VERTEX
8
C3
10
-64.46966991411009
20
-65.53033008588991
40
0.08
41
0.08
0
VERTEX
8
C3
10
-65.53033008588991
20
-64.46966991411009
40
0.08
41
0.08
0
SEQEND
0
POLYLINE
8
C3
66
1
70
1
0
VERTEX
8
C3
10
-64.46966991411009
20
65.53033008588993
40
0.08
41
0.08
0
VERTEX
8
C3
10
-65.53033008588991
20
64.4696699141101
40
0.08
41
0.08
0
SEQEND
0
POLYLINE
8
C3
66
1
70
1
0
VERTEX
8
C3
10
-64.46966991411009
20
64.4696699141101
40
0.08
41
0.08
0
VERTEX
8
C3
10
-65.53033008588991
20
65.53033008588993
40
0.08
41
0.08
0
SEQEND
0
POLYLINE
8
C3
66
1
70
1
0
VERTEX
8
C3
10
65.53033008588993
20
65.53033008588993
40
0.08
41
0.08
0
VERTEX
8
C3
10
64.4696699141101
20
64.4696699141101
40
0.08
41
0.08
0
SEQEND
0
POLYLINE
8
C3
66
1
70
1
0
VERTEX
8
C3
10
65.53033008588993
20
64.4696699141101
40
0.08
41
0.08
0
VERTEX
8
C3
10
64.4696699141101
20
65.53033008588993
40
0.08
41
0.08
0
SEQEND
0
POLYLINE
8
C3
66
1
70
1
0
VERTEX
8
C3
10
65.74999999999999
20
-65.0
40
0.08
41
0.08
0
VERTEX
8
C3
10
64.24999999999999
20
-65.0
40
0.08
41
0.08
0
SEQEND
0
POLYLINE
8
C3
66
1
70
1
0
VERTEX
8
C3
10
64.99999999999999
20
-64.25
40
0.08
41
0.08
0
VERTEX
8
C3
10
64.99999999999999
20
-65.75
40
0.08
41
0.08
0
SEQEND
0
POLYLINE
8
C3
66
1
70
1
0
VERTEX
8
C3
10
-58.536585365853654
20
-61.2
40
0.08
41
0.08
0
VERTEX
8
C3
10
-58.536585365853654
20
-64.2
40
0.08
41
0.08
0
SEQEND
0
POLYLINE
8
C3
66
1
70
1
0
VERTEX
8
C3
10
-58.536585365853654
20
61.2
40
0.08
41
0.08
0
VERTEX
8
C3
10
-58.536585365853654
20
64.2
40
0.08
41
0.08
0
SEQEND
0
POLYLINE
8
C3
66
1
70
1
0
VERTEX
8
C3
10
-52.68292682926829
20
-61.2
40
0.08
41
0.08
0
VERTEX
8
C3
10
-52.68292682926829
20
-64.2
40
0.08
41
0.08
0
SEQEND
0
POLYLINE
8
C3
66
1
70
1
0
VERTEX
8
C3
10
-52.68292682926829
20
61.2
40
0.08
41
0.08
0
VERTEX
8
C3
10
-52.68292682926829
20
64.2
40
0.08
41
0.08
0
SEQEND
0
POLYLINE
8
C3
66
1
70
1
0
VERTEX
8
C3
10
-46.829268292682926
20
-61.2
40
0.08
41
0.08
0
VERTEX
8
C3
10
-46.829268292682926
20
-64.2
40
0.08
41
0.08
0
SEQEND
0
POLYLINE
8
C3
66
1
70
1
0
VERTEX
8
C3
10
-46.829268292682926
20
61.2
40
0.08
41
0.08
0
VERTEX
8
C3
10
-46.829268292682926
20
64.2
40
0.08
41
0.08
0
SEQEND
0
POLYLINE
8
C3
66
1
70
1
0
VERTEX
8
C3
10
-40.975609756097555
20
-61.2
40
0.08
41
0.08
0
VERTEX
8
C3
10
-40.975609756097555
20
-64.2
40
0.08
41
0.08
0
SEQEND
0
POLYLINE
8
C3
66
1
70
1
0
VERTEX
8
C3
10
-40.975609756097555
20
61.2
40
0.08
41
0.08
0
VERTEX
8
C3
10
-40.975609756097555
20
64.2
40
0.08
41
0.08
0
SEQEND
0
POLYLINE
8
C3
66
1
70
1
0
VERTEX
8
C3
10
-35.121951219512184
20
-61.2
40
0.08
41
0.08
0
VERTEX
8
C3
10
-35.121951219512184
20
-64.2
40
0.08
41
0.08
0
SEQEND
0
POLYLINE
8
C3
66
1
70
1
0
VERTEX
8
C3
10
-35.121951219512184
20
61.2
40
0.08
41
0.08
0
VERTEX
8
C3
10
-35.121951219512184
20
64.2
40
0.08
41
0.08
0
SEQEND
0
POLYLINE
8
C3
66
1
70
1
0
VERTEX
8
C3
10
-29.268292682926827
20
-61.2
40
0.08
41
0.08
0
VERTEX
8
C3
10
-29.268292682926827
20
-64.2
40
0.08
41
0.08
0
SEQEND
0
POLYLINE
8
C3
66
1
70
1
0
VERTEX
8
C3
10
-29.268292682926827
20
61.2
40
0.08
41
0.08
0
VERTEX
8
C3
10
-29.268292682926827
20
64.2
40
0.08
41
0.08
0
SEQEND
0
POLYLINE
8
C3
66
1
70
1
0
VERTEX
8
C3
10
-23.414634146341456
20
-61.2
40
0.08
41
0.08
0
VERTEX
8
C3
10
-23.414634146341456
20
-64.2
40
0.08
41
0.08
0
SEQEND
0
POLYLINE
8
C3
66
1
70
1
0
VERTEX
8
C3
10
-23.414634146341456
20
61.2
40
0.08
41
0.08
0
VERTEX
8
C3
10
-23.414634146341456
20
64.2
40
0.08
41
0.08
0
SEQEND
0
POLYLINE
8
C3
66
1
70
1
0
VERTEX
8
C3
10
-17.560975609756085
20
-61.2
40
0.08
41
0.08
0
VERTEX
8
C3
10
-17.560975609756085
20
-64.2
40
0.08
41
0.08
0
SEQEND
0
POLYLINE
8
C3
66
1
70
1
0
VERTEX
8
C3
10
-17.560975609756085
20
61.2
40
0.08
41
0.08
0
VERTEX
8
C3
10
-17.560975609756085
20
64.2
40
0.08
41
0.08
0
SEQEND
0
POLYLINE
8
C3
66
1
70
1
0
VERTEX
8
C3
10
-11.707317073170728
20
-61.2
40
0.08
41
0.08
0
VERTEX
8
C3
10
-11.707317073170728
20
-64.2
40
0.08
41
0.08
0
SEQEND
0
POLYLINE
8
C3
66
1
70
1
0
VERTEX
8
C3
10
-11.707317073170728
20
61.2
40
0.08
41
0.08
0
VERTEX
8
C3
10
-11.707317073170728
20
64.2
40
0.08
41
0.08
0
SEQEND
0
POLYLINE
8
C3
66
1
70
1
0
VERTEX
8
C3
10
-5.853658536585371
20
-61.2
40
0.08
41
0.08
0
VERTEX
8
C3
10
-5.853658536585371
20
-64.2
40
0.08
41
0.08
0
SEQEND
0
POLYLINE
8
C3
66
1
70
1
0
VERTEX
8
C3
10
-5.853658536585371
20
61.2
40
0.08
41
0.08
0
VERTEX
8
C3
10
-5.853658536585371
20
64.2
40
0.08
41
0.08
0
SEQEND
0
POLYLINE
8
C3
66
1
70
1
0
VERTEX
8
C3
10
0.0
20
-61.2
40
0.08
41
0.08
0
VERTEX
8
C3
10
0.0
20
-64.2
40
0.08
41
0.08
0
SEQEND
0
POLYLINE
8
C3
66
1
70
1
0
VERTEX
8
C3
10
0.0
20
61.2
40
0.08
41
0.08
0
VERTEX
8
C3
10
0.0
20
64.2
40
0.08
41
0.08
0
SEQEND
0
POLYLINE
8
C3
66
1
70
1
0
VERTEX
8
C3
10
5.853658536585371
20
-61.2
40
0.08
41
0.08
0
VERTEX
8
C3
10
5.853658536585371
20
-64.2
40
0.08
41
0.08
0
SEQEND
0
POLYLINE
8
C3
66
1
70
1
0
VERTEX
8
C3
10
5.853658536585371
20
61.2
40
0.08
41
0.08
0
VERTEX
8
C3
10
5.853658536585371
20
64.2
40
0.08
41
0.08
0
SEQEND
0
POLYLINE
8
C3
66
1
70
1
0
VERTEX
8
C3
10
11.707317073170742
20
-61.2
40
0.08
41
0.08
0
VERTEX
8
C3
10
11.707317073170742
20
-64.2
40
0.08
41
0.08
0
SEQEND
0
POLYLINE
8
C3
66
1
70
1
0
VERTEX
8
C3
10
11.707317073170742
20
61.2
40
0.08
41
0.08
0
VERTEX
8
C3
10
11.707317073170742
20
64.2
40
0.08
41
0.08
0
SEQEND
0
POLYLINE
8
C3
66
1
70
1
0
VERTEX
8
C3
10
17.560975609756085
20
-61.2
40
0.08
41
0.08
0
VERTEX
8
C3
10
17.560975609756085
20
-64.2
40
0.08
41
0.08
0
SEQEND
0
POLYLINE
8
C3
66
1
70
1
0
VERTEX
8
C3
10
17.560975609756085
20
61.2
40
0.08
41
0.08
0
VERTEX
8
C3
10
17.560975609756085
20
64.2
40
0.08
41
0.08
0
SEQEND
0
POLYLINE
8
C3
66
1
70
1
0
VERTEX
8
C3
10
23.41463414634147
20
-61.2
40
0.08
41
0.08
0
VERTEX
8
C3
10
23.41463414634147
20
-64.2
40
0.08
41
0.08
0
SEQEND
0
POLYLINE
8
C3
66
1
70
1
0
VERTEX
8
C3
10
23.41463414634147
20
61.2
40
0.08
41
0.08
0
VERTEX
8
C3
10
23.41463414634147
20
64.2
40
0.08
41
0.08
0
SEQEND
0
POLYLINE
8
C3
66
1
70
1
0
VERTEX
8
C3
10
29.268292682926827
20
-61.2
40
0.08
41
0.08
0
VERTEX
8
C3
10
29.268292682926827
20
-64.2
40
0.08
41
0.08
0
SEQEND
0
POLYLINE
8
C3
66
1
70
1
0
VERTEX
8
C3
10
29.268292682926827
20
61.2
40
0.08
41
0.08
0
VERTEX
8
C3
10
29.268292682926827
20
64.2
40
0.08
41
0.08
0
SEQEND
0
POLYLINE
8
C3
66
1
70
1
0
VERTEX
8
C3
10
35.121951219512184
20
-61.2
40
0.08
41
0.08
0
VERTEX
8
C3
10
35.121951219512184
20
-64.2
40
0.08
41
0.08
0
SEQEND
0
POLYLINE
8
C3
66
1
70
1
0
VERTEX
8
C3
10
35.121951219512184
20
61.2
40
0.08
41
0.08
0
VERTEX
8
C3
10
35.121951219512184
20
64.2
40
0.08
41
0.08
0
SEQEND
0
POLYLINE
8
C3
66
1
70
1
0
VERTEX
8
C3
10
40.97560975609757
20
-61.2
40
0.08
41
0.08
0
VERTEX
8
C3
10
40.97560975609757
20
-64.2
40
0.08
41
0.08
0
SEQEND
0
POLYLINE
8
C3
66
1
70
1
0
VERTEX
8
C3
10
40.97560975609757
20
61.2
40
0.08
41
0.08
0
VERTEX
8
C3
10
40.97560975609757
20
64.2
40
0.08
41
0.08
0
SEQEND
0
POLYLINE
8
C3
66
1
70
1
0
VERTEX
8
C3
10
46.829268292682926
20
-61.2
40
0.08
41
0.08
0
VERTEX
8
C3
10
46.829268292682926
20
-64.2
40
0.08
41
0.08
0
SEQEND
0
POLYLINE
8
C3
66
1
70
1
0
VERTEX
8
C3
10
46.829268292682926
20
61.2
40
0.08
41
0.08
0
VERTEX
8
C3
10
46.829268292682926
20
64.2
40
0.08
41
0.08
0
SEQEND
0
POLYLINE
8
C3
66
1
70
1
0
VERTEX
8
C3
10
52.68292682926828
20
-61.2
40
0.08
41
0.08
0
VERTEX
8
C3
10
52.68292682926828
20
-64.2
40
0.08
41
0.08
0
SEQEND
0
POLYLINE
8
C3
66
1
70
1
0
VERTEX
8
C3
10
52.68292682926828
20
61.2
40
0.08
41
0.08
0
VERTEX
8
C3
10
52.68292682926828
20
64.2
40
0.08
41
0.08
0
SEQEND
0
POLYLINE
8
C3
66
1
70
1
0
VERTEX
8
C3
10
58.53658536585367
20
-61.2
40
0.08
41
0.08
0
VERTEX
8
C3
10
58.53658536585367
20
-64.2
40
0.08
41
0.08
0
SEQEND
0
POLYLINE
8
C3
66
1
70
1
0
VERTEX
8
C3
10
58.53658536585367
20
61.2
40
0.08
41
0.08
0
VERTEX
8
C3
10
58.53658536585367
20
64.2
40
0.08
41
0.08
0
SEQEND
0
POLYLINE
8
C3
66
1
70
1
0
VERTEX
8
C3
10
-61.2
20
-58.90243902439025
40
0.08
41
0.08
0
VERTEX
8
C3
10
-64.2
20
-58.90243902439025
40
0.08
41
0.08
0
SEQEND
0
POLYLINE
8
C3
66
1
70
1
0
VERTEX
8
C3
10
61.2
20
-58.90243902439025
40
0.08
41
0.08
0
VERTEX
8
C3
10
64.2
20
-58.90243902439025
40
0.08
41
0.08
0
SEQEND
0
POLYLINE
8
C3
66
1
70
1
0
VERTEX
8
C3
10
-61.2
20
-53.78048780487805
40
0.08
41
0.08
0
VERTEX
8
C3
10
-64.2
20
-53.78048780487805
40
0.08
41
0.08
0
SEQEND
0
POLYLINE
8
C3
66
1
70
1
0
VERTEX
8
C3
10
61.2
20
-53.78048780487805
40
0.08
41
0.08
0
VERTEX
8
C3
10
64.2
20
-53.78048780487805
40
0.08
41
0.08
0
SEQEND
0
POLYLINE
8
C3
66
1
70
1
0
VERTEX
8
C3
10
-61.2
20
-48.65853658536586
40
0.08
41
0.08
0
VERTEX
8
C3
10
-64.2
20
-48.65853658536586
40
0.08
41
0.08
0
SEQEND
0
POLYLINE
8
C3
66
1
70
1
0
VERTEX
8
C3
10
61.2
20
-48.65853658536586
40
0.08
41
0.08
0
VERTEX
8
C3
10
64.2
20
-48.65853658536586
40
0.08
41
0.08
0
SEQEND
0
POLYLINE
8
C3
66
1
70
1
0
VERTEX
8
C3
10
-61.2
20
-43.53658536585367
40
0.08
41
0.08
0
VERTEX
8
C3
10
-64.2
20
-43.53658536585367
40
0.08
41
0.08
0
SEQEND
0
POLYLINE
8
C3
66
1
70
1
0
VERTEX
8
C3
10
61.2
20
-43.53658536585367
40
0.08
41
0.08
0
VERTEX
8
C3
10
64.2
20
-43.53658536585367
40
0.08
41
0.08
0
SEQEND
0
POLYLINE
8
C3
66
1
70
1
0
VERTEX
8
C3
10
-61.2
20
-38.41463414634147
40
0.08
41
0.08
0
VERTEX
8
C3
10
-64.2
20
-38.41463414634147
40
0.08
41
0.08
0
SEQEND
0
POLYLINE
8
C3
66
1
70
1
0
VERTEX
8
C3
10
61.2
20
-38.41463414634147
40
0.08
41
0.08
0
VERTEX
8
C3
10
64.2
20
-38.41463414634147
40
0.08
41
0.08
0
SEQEND
0
POLYLINE
8
C3
66
1
70
1
0
VERTEX
8
C3
10
-61.2
20
-33.29268292682927
40
0.08
41
0.08
0
VERTEX
8
C3
10
-64.2
20
-33.29268292682927
40
0.08
41
0.08
0
SEQEND
0
POLYLINE
8
C3
66
1
70
1
0
VERTEX
8
C3
10
61.2
20
-33.29268292682927
40
0.08
41
0.08
0
VERTEX
8
C3
10
64.2
20
-33.29268292682927
40
0.08
41
0.08
0
SEQEND
0
POLYLINE
8
C3
66
1
70
1
0
VERTEX
8
C3
10
-61.2
20
-28.170731707317074
40
0.08
41
0.08
0
VERTEX
8
C3
10
-64.2
20
-28.170731707317074
40
0.08
41
0.08
0
SEQEND
0
POLYLINE
8
C3
66
1
70
1
0
VERTEX
8
C3
10
61.2
20
-28.170731707317074
40
0.08
41
0.08
0
VERTEX
8
C3
10
64.2
20
-28.170731707317074
40
0.08
41
0.08
0
SEQEND
0
POLYLINE
8
C3
66
1
70
1
0
VERTEX
8
C3
10
-61.2
20
-23.048780487804876
40
0.08
41
0.08
0
VERTEX
8
C3
10
-64.2
20
-23.048780487804876
40
0.08
41
0.08
0
SEQEND
0
POLYLINE
8
C3
66
1
70
1
0
VERTEX
8
C3
10
61.2
20
-23.048780487804876
40
0.08
41
0.08
0
VERTEX
8
C3
10
64.2
20
-23.048780487804876
40
0.08
41
0.08
0
SEQEND
0
POLYLINE
8
C3
66
1
70
1
0
VERTEX
8
C3
10
-61.2
20
-17.92682926829268
40
0.08
41
0.08
0
VERTEX
8
C3
10
-64.2
20
-17.92682926829268
40
0.08
41
0.08
0
SEQEND
0
POLYLINE
8
C3
66
1
70
1
0
VERTEX
8
C3
10
61.2
20
-17.92682926829268
40
0.08
41
0.08
0
VERTEX
8
C3
10
64.2
20
-17.92682926829268
40
0.08
41
0.08
0
SEQEND
0
POLYLINE
8
C3
66
1
70
1
0
VERTEX
8
C3
10
-61.2
20
-12.80487804878048
40
0.08
41
0.08
0
VERTEX
8
C3
10
-64.2
20
-12.80487804878048
40
0.08
41
0.08
0
SEQEND
0
POLYLINE
8
C3
66
1
70
1
0
VERTEX
8
C3
10
61.2
20
-12.80487804878048
40
0.08
41
0.08
0
VERTEX
8
C3
10
64.2
20
-12.80487804878048
40
0.08
41
0.08
0
SEQEND
0
POLYLINE
8
C3
66
1
70
1
0
VERTEX
8
C3
10
-61.2
20
-7.682926829268297
40
0.08
41
0.08
0
VERTEX
8
C3
10
-64.2
20
-7.682926829268297
40
0.08
41
0.08
0
SEQEND
0
POLYLINE
8
C3
66
1
70
1
0
VERTEX
8
C3
10
61.2
20
-7.682926829268297
40
0.08
41
0.08
0
VERTEX
8
C3
10
64.2
20
-7.682926829268297
40
0.08
41
0.08
0
SEQEND
0
POLYLINE
8
C3
66
1
70
1
0
VERTEX
8
C3
10
-61.2
20
-2.560975609756099
40
0.08
41
0.08
0
VERTEX
8
C3
10
-64.2
20
-2.560975609756099
40
0.08
41
0.08
0
SEQEND
0
POLYLINE
8
C3
66
1
70
1
0
VERTEX
8
C3
10
61.2
20
-2.560975609756099
40
0.08
41
0.08
0
VERTEX
8
C3
10
64.2
20
-2.560975609756099
40
0.08
41
0.08
0
SEQEND
0
POLYLINE
8
C3
66
1
70
1
0
VERTEX
8
C3
10
-61.2
20
2.560975609756099
40
0.08
41
0.08
0
VERTEX
8
C3
10
-64.2
20
2.560975609756099
40
0.08
41
0.08
0
SEQEND
0
POLYLINE
8
C3
66
1
70
1
0
VERTEX
8
C3
10
61.2
20
2.560975609756099
40
0.08
41
0.08
0
VERTEX
8
C3
10
64.2
20
2.560975609756099
40
0.08
41
0.08
0
SEQEND
0
POLYLINE
8
C3
66
1
70
1
0
VERTEX
8
C3
10
-61.2
20
7.682926829268297
40
0.08
41
0.08
0
VERTEX
8
C3
10
-64.2
20
7.682926829268297
40
0.08
41
0.08
0
SEQEND
0
POLYLINE
8
C3
66
1
70
1
0
VERTEX
8
C3
10
61.2
20
7.682926829268297
40
0.08
41
0.08
0
VERTEX
8
C3
10
64.2
20
7.682926829268297
40
0.08
41
0.08
0
SEQEND
0
POLYLINE
8
C3
66
1
70
1
0
VERTEX
8
C3
10
-61.2
20
12.80487804878048
40
0.08
41
0.08
0
VERTEX
8
C3
10
-64.2
20
12.80487804878048
40
0.08
41
0.08
0
SEQEND
0
POLYLINE
8
C3
66
1
70
1
0
VERTEX
8
C3
10
61.2
20
12.80487804878048
40
0.08
41
0.08
0
VERTEX
8
C3
10
64.2
20
12.80487804878048
40
0.08
41
0.08
0
SEQEND
0
POLYLINE
8
C3
66
1
70
1
0
VERTEX
8
C3
10
-61.2
20
17.92682926829268
40
0.08
41
0.08
0
VERTEX
8
C3
10
-64.2
20
17.92682926829268
40
0.08
41
0.08
0
SEQEND
0
POLYLINE
8
C3
66
1
70
1
0
VERTEX
8
C3
10
61.2
20
17.92682926829268
40
0.08
41
0.08
0
VERTEX
8
C3
10
64.2
20
17.92682926829268
40
0.08
41
0.08
0
SEQEND
0
POLYLINE
8
C3
66
1
70
1
0
VERTEX
8
C3
10
-61.2
20
23.048780487804876
40
0.08
41
0.08
0
VERTEX
8
C3
10
-64.2
20
23.048780487804876
40
0.08
41
0.08
0
SEQEND
0
POLYLINE
8
C3
66
1
70
1
0
VERTEX
8
C3
10
61.2
20
23.048780487804876
40
0.08
41
0.08
0
VERTEX
8
C3
10
64.2
20
23.048780487804876
40
0.08
41
0.08
0
SEQEND
0
POLYLINE
8
C3
66
1
70
1
0
VERTEX
8
C3
10
-61.2
20
28.170731707317074
40
0.08
41
0.08
0
VERTEX
8
C3
10
-64.2
20
28.170731707317074
40
0.08
41
0.08
0
SEQEND
0
POLYLINE
8
C3
66
1
70
1
0
VERTEX
8
C3
10
61.2
20
28.170731707317074
40
0.08
41
0.08
0
VERTEX
8
C3
10
64.2
20
28.170731707317074
40
0.08
41
0.08
0
SEQEND
0
POLYLINE
8
C3
66
1
70
1
0
VERTEX
8
C3
10
-61.2
20
33.29268292682927
40
0.08
41
0.08
0
VERTEX
8
C3
10
-64.2
20
33.29268292682927
40
0.08
41
0.08
0
SEQEND
0
POLYLINE
8
C3
66
1
70
1
0
VERTEX
8
C3
10
61.2
20
33.29268292682927
40
0.08
41
0.08
0
VERTEX
8
C3
10
64.2
20
33.29268292682927
40
0.08
41
0.08
0
SEQEND
0
POLYLINE
8
C3
66
1
70
1
0
VERTEX
8
C3
10
-61.2
20
38.41463414634147
40
0.08
41
0.08
0
VERTEX
8
C3
10
-64.2
20
38.41463414634147
40
0.08
41
0.08
0
SEQEND
0
POLYLINE
8
C3
66
1
70
1
0
VERTEX
8
C3
10
61.2
20
38.41463414634147
40
0.08
41
0.08
0
VERTEX
8
C3
10
64.2
20
38.41463414634147
40
0.08
41
0.08
0
SEQEND
0
POLYLINE
8
C3
66
1
70
1
0
VERTEX
8
C3
10
-61.2
20
43.53658536585367
40
0.08
41
0.08
0
VERTEX
8
C3
10
-64.2
20
43.53658536585367
40
0.08
41
0.08
0
SEQEND
0
POLYLINE
8
C3
66
1
70
1
0
VERTEX
8
C3
10
61.2
20
43.53658536585367
40
0.08
41
0.08
0
VERTEX
8
C3
10
64.2
20
43.53658536585367
40
0.08
41
0.08
0
SEQEND
0
POLYLINE
8
C3
66
1
70
1
0
VERTEX
8
C3
10
-61.2
20
48.658536585365866
40
0.08
41
0.08
0
VERTEX
8
C3
10
-64.2
20
48.658536585365866
40
0.08
41
0.08
0
SEQEND
0
POLYLINE
8
C3
66
1
70
1
0
VERTEX
8
C3
10
61.2
20
48.658536585365866
40
0.08
41
0.08
0
VERTEX
8
C3
10
64.2
20
48.658536585365866
40
0.08
41
0.08
0
SEQEND
0
POLYLINE
8
C3
66
1
70
1
0
VERTEX
8
C3
10
-61.2
20
53.780487804878064
40
0.08
41
0.08
0
VERTEX
8
C3
10
-64.2
20
53.780487804878064
40
0.08
41
0.08
0
SEQEND
0
POLYLINE
8
C3
66
1
70
1
0
VERTEX
8
C3
10
61.2
20
53.780487804878064
40
0.08
41
0.08
0
VERTEX
8
C3
10
64.2
20
53.780487804878064
40
0.08
41
0.08
0
SEQEND
0
POLYLINE
8
C3
66
1
70
1
0
VERTEX
8
C3
10
-61.2
20
58.90243902439026
40
0.08
41
0.08
0
VERTEX
8
C3
10
-64.2
20
58.90243902439026
40
0.08
41
0.08
0
SEQEND
0
POLYLINE
8
C3
66
1
70
1
0
VERTEX
8
C3
10
61.2
20
58.90243902439026
40
0.08
41
0.08
0
VERTEX
8
C3
10
64.2
20
58.90243902439026
40
0.08
41
0.08
0
SEQEND
0
INSERT
2
cutlineendpoint
8
C3
10
-64.46966991411009
20
-64.46966991411009
0
INSERT
2
cutlineendpoint
8
C3
10
-65.53033008588991
20
-65.53033008588991
0
INSERT
2
cutlineendpoint
8
C3
10
-64.46966991411009
20
-65.53033008588991
0
INSERT
2
cutlineendpoint
8
C3
10
-65.53033008588991
20
-64.46966991411009
0
INSERT
2
cutlineendpoint
8
C3
10
-64.46966991411009
20
65.53033008588993
0
INSERT
2
cutlineendpoint
8
C3
10
-65.53033008588991
20
64.4696699141101
0
INSERT
2
cutlineendpoint
8
C3
10
-64.46966991411009
20
64.4696699141101
0
INSERT
2
cutlineendpoint
8
C3
10
-65.53033008588991
20
65.53033008588993
0
INSERT
2
cutlineendpoint
8
C3
10
65.53033008588993
20
65.53033008588993
0
INSERT
2
cutlineendpoint
8
C3
10
64.4696699141101
20
64.4696699141101
0
INSERT
2
cutlineendpoint
8
C3
10
65.53033008588993
20
64.4696699141101
0
INSERT
2
cutlineendpoint
8
C3
10
64.4696699141101
20
65.53033008588993
0
INSERT
2
cutlineendpoint
8
C3
10
65.74999999999999
20
-65.0
0
INSERT
2
cutlineendpoint
8
C3
10
64.24999999999999
20
-65.0
0
INSERT
2
cutlineendpoint
8
C3
10
64.99999999999999
20
-64.25
0
INSERT
2
cutlineendpoint
8
C3
10
64.99999999999999
20
-65.75
0
INSERT
2
cutlineendpoint
8
C3
10
-58.536585365853654
20
-61.2
0
INSERT
2
cutlineendpoint
8
C3
10
-58.536585365853654
20
61.2
0
INSERT
2
cutlineendpoint
8
C3
10
-58.536585365853654
20
-64.2
0
INSERT
2
cutlineendpoint
8
C3
10
-58.536585365853654
20
64.2
0
INSERT
2
cutlineendpoint
8
C3
10
-52.68292682926829
20
-61.2
0
INSERT
2
cutlineendpoint
8
C3
10
-52.68292682926829
20
61.2
0
INSERT
2
cutlineendpoint
8
C3
10
-52.68292682926829
20
-64.2
0
INSERT
2
cutlineendpoint
8
C3
10
-52.68292682926829
20
64.2
0
INSERT
2
cutlineendpoint
8
C3
10
-46.829268292682926
20
-61.2
0
INSERT
2
cutlineendpoint
8
C3
10
-46.829268292682926
20
61.2
0
INSERT
2
cutlineendpoint
8
C3
10
-46.829268292682926
20
-64.2
0
INSERT
2
cutlineendpoint
8
C3
10
-46.829268292682926
20
64.2
0
INSERT
2
cutlineendpoint
8
C3
10
-40.975609756097555
20
-61.2
0
INSERT
2
cutlineendpoint
8
C3
10
-40.975609756097555
20
61.2
0
INSERT
2
cutlineendpoint
8
C3
10
-40.975609756097555
20
-64.2
0
INSERT
2
cutlineendpoint
8
C3
10
-40.975609756097555
20
64.2
0
INSERT
2
cutlineendpoint
8
C3
10
-35.121951219512184
20
-61.2
0
INSERT
2
cutlineendpoint
8
C3
10
-35.121951219512184
20
61.2
0
INSERT
2
cutlineendpoint
8
C3
10
-35.121951219512184
20
-64.2
0
INSERT
2
cutlineendpoint
8
C3
10
-35.121951219512184
20
64.2
0
INSERT
2
cutlineendpoint
8
C3
10
-29.268292682926827
20
-61.2
0
INSERT
2
cutlineendpoint
8
C3
10
-29.268292682926827
20
61.2
0
INSERT
2
cutlineendpoint
8
C3
10
-29.268292682926827
20
-64.2
0
INSERT
2
cutlineendpoint
8
C3
10
-29.268292682926827
20
64.2
0
INSERT
2
cutlineendpoint
8
C3
10
-23.414634146341456
20
-61.2
0
INSERT
2
cutlineendpoint
8
C3
10
-23.414634146341456
20
61.2
0
INSERT
2
cutlineendpoint
8
C3
10
-23.414634146341456
20
-64.2
0
INSERT
2
cutlineendpoint
8
C3
10
-23.414634146341456
20
64.2
0
INSERT
2
cutlineendpoint
8
C3
10
-17.560975609756085
20
-61.2
0
INSERT
2
cutlineendpoint
8
C3
10
-17.560975609756085
20
61.2
0
INSERT
2
cutlineendpoint
8
C3
10
-17.560975609756085
20
-64.2
0
INSERT
2
cutlineendpoint
8
C3
10
-17.560975609756085
20
64.2
0
INSERT
2
cutlineendpoint
8
C3
10
-11.707317073170728
20
-61.2
0
INSERT
2
cutlineendpoint
8
C3
10
-11.707317073170728
20
61.2
0
INSERT
2
cutlineendpoint
8
C3
10
-11.707317073170728
20
-64.2
0
INSERT
2
cutlineendpoint
8
C3
10
-11.707317073170728
20
64.2
0
INSERT
2
cutlineendpoint
8
C3
10
-5.853658536585371
20
-61.2
0
INSERT
2
cutlineendpoint
8
C3
10
-5.853658536585371
20
61.2
0
INSERT
2
cutlineendpoint
8
C3
10
-5.853658536585371
20
-64.2
0
INSERT
2
cutlineendpoint
8
C3
10
-5.853658536585371
20
64.2
0
INSERT
2
cutlineendpoint
8
C3
10
0.0
20
-61.2
0
INSERT
2
cutlineendpoint
8
C3
10
0.0
20
61.2
0
INSERT
2
cutlineendpoint
8
C3
10
0.0
20
-64.2
0
INSERT
2
cutlineendpoint
8
C3
10
0.0
20
64.2
0
INSERT
2
cutlineendpoint
8
C3
10
5.853658536585371
20
-61.2
0
INSERT
2
cutlineendpoint
8
C3
10
5.853658536585371
20
61.2
0
INSERT
2
cutlineendpoint
8
C3
10
5.853658536585371
20
-64.2
0
INSERT
2
cutlineendpoint
8
C3
10
5.853658536585371
20
64.2
0
INSERT
2
cutlineendpoint
8
C3
10
11.707317073170742
20
-61.2
0
INSERT
2
cutlineendpoint
8
C3
10
11.707317073170742
20
61.2
0
INSERT
2
cutlineendpoint
8
C3
10
11.707317073170742
20
-64.2
0
INSERT
2
cutlineendpoint
8
C3
10
11.707317073170742
20
64.2
0
INSERT
2
cutlineendpoint
8
C3
10
17.560975609756085
20
-61.2
0
INSERT
2
cutlineendpoint
8
C3
10
17.560975609756085
20
61.2
0
INSERT
2
cutlineendpoint
8
C3
10
17.560975609756085
20
-64.2
0
INSERT
2
cutlineendpoint
8
C3
10
17.560975609756085
20
64.2
0
INSERT
2
cutlineendpoint
8
C3
10
23.41463414634147
20
-61.2
0
INSERT
2
cutlineendpoint
8
C3
10
23.41463414634147
20
61.2
0
INSERT
2
cutlineendpoint
8
C3
10
23.41463414634147
20
-64.2
0
INSERT
2
cutlineendpoint
8
C3
10
23.41463414634147
20
64.2
0
INSERT
2
cutlineendpoint
8
C3
10
29.268292682926827
20
-61.2
0
INSERT
2
cutlineendpoint
8
C3
10
29.268292682926827
20
61.2
0
INSERT
2
cutlineendpoint
8
C3
10
29.268292682926827
20
-64.2
0
INSERT
2
cutlineendpoint
8
C3
10
29.268292682926827
20
64.2
0
INSERT
2
cutlineendpoint
8
C3
10
35.121951219512184
20
-61.2
0
INSERT
2
cutlineendpoint
8
C3
10
35.121951219512184
20
61.2
0
INSERT
2
cutlineendpoint
8
C3
10
35.121951219512184
20
-64.2
0
INSERT
2
cutlineendpoint
8
C3
10
35.121951219512184
20
64.2
0
INSERT
2
cutlineendpoint
8
C3
10
40.97560975609757
20
-61.2
0
INSERT
2
cutlineendpoint
8
C3
10
40.97560975609757
20
61.2
0
INSERT
2
cutlineendpoint
8
C3
10
40.97560975609757
20
-64.2
0
INSERT
2
cutlineendpoint
8
C3
10
40.97560975609757
20
64.2
0
INSERT
2
cutlineendpoint
8
C3
10
46.829268292682926
20
-61.2
0
INSERT
2
cutlineendpoint
8
C3
10
46.829268292682926
20
61.2
0
INSERT
2
cutlineendpoint
8
C3
10
46.829268292682926
20
-64.2
0
INSERT
2
cutlineendpoint
8
C3
10
46.829268292682926
20
64.2
0
INSERT
2
cutlineendpoint
8
C3
10
52.68292682926828
20
-61.2
0
INSERT
2
cutlineendpoint
8
C3
10
52.68292682926828
20
61.2
0
INSERT
2
cutlineendpoint
8
C3
10
52.68292682926828
20
-64.2
0
INSERT
2
cutlineendpoint
8
C3
10
52.68292682926828
20
64.2
0
INSERT
2
cutlineendpoint
8
C3
10
58.53658536585367
20
-61.2
0
INSERT
2
cutlineendpoint
8
C3
10
58.53658536585367
20
61.2
0
INSERT
2
cutlineendpoint
8
C3
10
58.53658536585367
20
-64.2
0
INSERT
2
cutlineendpoint
8
C3
10
58.53658536585367
20
64.2
0
INSERT
2
cutlineendpoint
8
C3
10
-61.2
20
-58.90243902439025
0
INSERT
2
cutlineendpoint
8
C3
10
61.2
20
-58.90243902439025
0
INSERT
2
cutlineendpoint
8
C3
10
-64.2
20
-58.90243902439025
0
INSERT
2
cutlineendpoint
8
C3
10
64.2
20
-58.90243902439025
0
INSERT
2
cutlineendpoint
8
C3
10
-61.2
20
-53.78048780487805
0
INSERT
2
cutlineendpoint
8
C3
10
61.2
20
-53.78048780487805
0
INSERT
2
cutlineendpoint
8
C3
10
-64.2
20
-53.78048780487805
0
INSERT
2
cutlineendpoint
8
C3
10
64.2
20
-53.78048780487805
0
INSERT
2
cutlineendpoint
8
C3
10
-61.2
20
-48.65853658536586
0
INSERT
2
cutlineendpoint
8
C3
10
61.2
20
-48.65853658536586
0
INSERT
2
cutlineendpoint
8
C3
10
-64.2
20
-48.65853658536586
0
INSERT
2
cutlineendpoint
8
C3
10
64.2
20
-48.65853658536586
0
INSERT
2
cutlineendpoint
8
C3
10
-61.2
20
-43.53658536585367
0
INSERT
2
cutlineendpoint
8
C3
10
61.2
20
-43.53658536585367
0
INSERT
2
cutlineendpoint
8
C3
10
-64.2
20
-43.53658536585367
0
INSERT
2
cutlineendpoint
8
C3
10
64.2
20
-43.53658536585367
0
INSERT
2
cutlineendpoint
8
C3
10
-61.2
20
-38.41463414634147
0
INSERT
2
cutlineendpoint
8
C3
10
61.2
20
-38.41463414634147
0
INSERT
2
cutlineendpoint
8
C3
10
-64.2
20
-38.41463414634147
0
INSERT
2
cutlineendpoint
8
C3
10
64.2
20
-38.41463414634147
0
INSERT
2
cutlineendpoint
8
C3
10
-61.2
20
-33.29268292682927
0
INSERT
2
cutlineendpoint
8
C3
10
61.2
20
-33.29268292682927
0
INSERT
2
cutlineendpoint
8
C3
10
-64.2
20
-33.29268292682927
0
INSERT
2
cutlineendpoint
8
C3
10
64.2
20
-33.29268292682927
0
INSERT
2
cutlineendpoint
8
C3
10
-61.2
20
-28.170731707317074
0
INSERT
2
cutlineendpoint
8
C3
10
61.2
20
-28.170731707317074
0
INSERT
2
cutlineendpoint
8
C3
10
-64.2
20
-28.170731707317074
0
INSERT
2
cutlineendpoint
8
C3
10
64.2
20
-28.170731707317074
0
INSERT
2
cutlineendpoint
8
C3
10
-61.2
20
-23.048780487804876
0
INSERT
2
cutlineendpoint
8
C3
10
61.2
20
-23.048780487804876
0
INSERT
2
cutlineendpoint
8
C3
10
-64.2
20
-23.048780487804876
0
INSERT
2
cutlineendpoint
8
C3
10
64.2
20
-23.048780487804876
0
INSERT
2
cutlineendpoint
8
C3
10
-61.2
20
-17.92682926829268
0
INSERT
2
cutlineendpoint
8
C3
10
61.2
20
-17.92682926829268
0
INSERT
2
cutlineendpoint
8
C3
10
-64.2
20
-17.92682926829268
0
INSERT
2
cutlineendpoint
8
C3
10
64.2
20
-17.92682926829268
0
INSERT
2
cutlineendpoint
8
C3
10
-61.2
20
-12.80487804878048
0
INSERT
2
cutlineendpoint
8
C3
10
61.2
20
-12.80487804878048
0
INSERT
2
cutlineendpoint
8
C3
10
-64.2
20
-12.80487804878048
0
INSERT
2
cutlineendpoint
8
C3
10
64.2
20
-12.80487804878048
0
INSERT
2
cutlineendpoint
8
C3
10
-61.2
20
-7.682926829268297
0
INSERT
2
cutlineendpoint
8
C3
10
61.2
20
-7.682926829268297
0
INSERT
2
cutlineendpoint
8
C3
10
-64.2
20
-7.682926829268297
0
INSERT
2
cutlineendpoint
8
C3
10
64.2
20
-7.682926829268297
0
INSERT
2
cutlineendpoint
8
C3
10
-61.2
20
-2.560975609756099
0
INSERT
2
cutlineendpoint
8
C3
10
61.2
20
-2.560975609756099
0
INSERT
2
cutlineendpoint
8
C3
10
-64.2
20
-2.560975609756099
0
INSERT
2
cutlineendpoint
8
C3
10
64.2
20
-2.560975609756099
0
INSERT
2
cutlineendpoint
8
C3
10
-61.2
20
2.560975609756099
0
INSERT
2
cutlineendpoint
8
C3
10
61.2
20
2.560975609756099
0
INSERT
2
cutlineendpoint
8
C3
10
-64.2
20
2.560975609756099
0
INSERT
2
cutlineendpoint
8
C3
10
64.2
20
2.560975609756099
0
INSERT
2
cutlineendpoint
8
C3
10
-61.2
20
7.682926829268297
0
INSERT
2
cutlineendpoint
8
C3
10
61.2
20
7.682926829268297
0
INSERT
2
cutlineendpoint
8
C3
10
-64.2
20
7.682926829268297
0
INSERT
2
cutlineendpoint
8
C3
10
64.2
20
7.682926829268297
0
INSERT
2
cutlineendpoint
8
C3
10
-61.2
20
12.80487804878048
0
INSERT
2
cutlineendpoint
8
C3
10
61.2
20
12.80487804878048
0
INSERT
2
cutlineendpoint
8
C3
10
-64.2
20
12.80487804878048
0
INSERT
2
cutlineendpoint
8
C3
10
64.2
20
12.80487804878048
0
INSERT
2
cutlineendpoint
8
C3
10
-61.2
20
17.92682926829268
0
INSERT
2
cutlineendpoint
8
C3
10
61.2
20
17.92682926829268
0
INSERT
2
cutlineendpoint
8
C3
10
-64.2
20
17.92682926829268
0
INSERT
2
cutlineendpoint
8
C3
10
64.2
20
17.92682926829268
0
INSERT
2
cutlineendpoint
8
C3
10
-61.2
20
23.048780487804876
0
INSERT
2
cutlineendpoint
8
C3
10
61.2
20
23.048780487804876
0
INSERT
2
cutlineendpoint
8
C3
10
-64.2
20
23.048780487804876
0
INSERT
2
cutlineendpoint
8
C3
10
64.2
20
23.048780487804876
0
INSERT
2
cutlineendpoint
8
C3
10
-61.2
20
28.170731707317074
0
INSERT
2
cutlineendpoint
8
C3
10
61.2
20
28.170731707317074
0
INSERT
2
cutlineendpoint
8
C3
10
-64.2
20
28.170731707317074
0
INSERT
2
cutlineendpoint
8
C3
10
64.2
20
28.170731707317074
0
INSERT
2
cutlineendpoint
8
C3
10
-61.2
20
33.29268292682927
0
INSERT
2
cutlineendpoint
8
C3
10
61.2
20
33.29268292682927
0
INSERT
2
cutlineendpoint
8
C3
10
-64.2
20
33.29268292682927
0
INSERT
2
cutlineendpoint
8
C3
10
64.2
20
33.29268292682927
0
INSERT
2
cutlineendpoint
8
C3
10
-61.2
20
38.41463414634147
0
INSERT
2
cutlineendpoint
8
C3
10
61.2
20
38.41463414634147
0
INSERT
2
cutlineendpoint
8
C3
10
-64.2
20
38.41463414634147
0
INSERT
2
cutlineendpoint
8
C3
10
64.2
20
38.41463414634147
0
INSERT
2
cutlineendpoint
8
C3
10
-61.2
20
43.53658536585367
0
INSERT
2
cutlineendpoint
8
C3
10
61.2
20
43.53658536585367
0
INSERT
2
cutlineendpoint
8
C3
10
-64.2
20
43.53658536585367
0
INSERT
2
cutlineendpoint
8
C3
10
64.2
20
43.53658536585367
0
INSERT
2
cutlineendpoint
8
C3
10
-61.2
20
48.658536585365866
0
INSERT
2
cutlineendpoint
8
C3
10
61.2
20
48.658536585365866
0
INSERT
2
cutlineendpoint
8
C3
10
-64.2
20
48.658536585365866
0
INSERT
2
cutlineendpoint
8
C3
10
64.2
20
48.658536585365866
0
INSERT
2
cutlineendpoint
8
C3
10
-61.2
20
53.780487804878064
0
INSERT
2
cutlineendpoint
8
C3
10
61.2
20
53.780487804878064
0
INSERT
2
cutlineendpoint
8
C3
10
-64.2
20
53.780487804878064
0
INSERT
2
cutlineendpoint
8
C3
10
64.2
20
53.780487804878064
0
INSERT
2
cutlineendpoint
8
C3
10
-61.2
20
58.90243902439026
0
INSERT
2
cutlineendpoint
8
C3
10
61.2
20
58.90243902439026
0
INSERT
2
cutlineendpoint
8
C3
10
-64.2
20
58.90243902439026
0
INSERT
2
cutlineendpoint
8
C3
10
64.2
20
58.90243902439026
0
TEXT
8
C3
10
-10.5
20
69.7
40
1.5
1
XFB44-1600-011-C3
0
POLYLINE
8
C3
66
1
70
1
0
VERTEX
8
C3
10
-100.0
20
100.0
30
0
40
1
41
1
0
VERTEX
8
C3
10
100.0
20
100.0
30
0
40
1
41
1
0
VERTEX
8
C3
10
100.0
20
-100.0
30
0
40
1
41
1
0
VERTEX
8
C3
10
-100.0
20
-100.0
30
0
40
1
41
1
0
SEQEND
0
ENDSEC
0
EOF
