0
SECTION
2
HEADER
9
$ACADVER
1
AC1006
9
$INSBASE
10
0.0
20
0.0
30
0.0
9
$EXTMIN
10
-104.25365853658536
20
-104.25365853658536
9
$EXTMAX
10
104.25365853658536
20
116.93658536585366
0
ENDSEC
0
SECTION
2
TABLES
0
TABLE
2
LTYPE
70
1
0
LTYPE
2
CONTINUOUS
70
64
3
Solid line
72
65
73
0
40
0.0
0
ENDTAB
0
TABLE
2
LAYER
70
3
0
LAYER
2
0
70
0
62
255
6
continuous
0
LAYER
2
0
70
0
62
7
6
continuous
0
LAYER
2
P6
70
0
62
7
6
continuous
0
ENDTAB
0
TABLE
2
STYLE
70
2
0
STYLE
2
STANDARD
70
0
40
0
41
1
50
0
71
0
42
1
3
ARIAL.TTF
4

0
STYLE
2
STANDARD
70
0
40
0
41
1
50
0
71
0
42
1
3
ARIAL.TTF
4

0
ENDTAB
0
TABLE
2
VIEW
70
1
0
VIEW
2
Normal
70
0
40
1
10
0.5
20
0.5
41
1
11
0
21
0
31
1
12
0
22
0
32
0
42
50
43
0
44
0
50
0
71
0
0
ENDTAB
0
ENDSEC
0
SECTION
2
BLOCKS
0
BLOCK
8
0
2
cutlineendpoint
70
0
10
0
20
0
30
0
3
cutlineendpoint
0
POLYLINE
8
0
66
1
70
1
40
0.04
41
0.04
0
VERTEX
8
0
10
-0.02
20
0
30
0
42
1.0
0
VERTEX
8
0
10
0.02
20
0
30
0
42
1.0
0
SEQEND
0
ENDBLK
0
BLOCK
8
P6
2
LDI_XFB44-1600-011_P6_B1
70
0
10
0
20
0
30
0
3
LDI_XFB44-1600-011_P6_B1
0
CIRCLE
8
P6
10
-56.68732199057268
20
-56.34146341463416
40
0.04535
0
CIRCLE
8
P6
10
-56.96747413456661
20
-55.30149051490514
40
0.04535
0
CIRCLE
8
P6
10
-55.75003524639465
20
-55.30897209405763
40
0.04535
0
CIRCLE
8
P6
10
-56.685161358635455
20
-57.37395473521069
40
0.04535
0
CIRCLE
8
P6
10
-55.35911778509151
20
-57.16634759910241
40
0.04535
0
CIRCLE
8
P6
10
-56.39241805441798
20
-57.08494500131297
40
0.04535
0
CIRCLE
8
P6
10
-54.5658643257285
20
-57.38333905584053
40
0.04535
0
CIRCLE
8
P6
10
-55.49824023496602
20
-55.304378469777284
40
0.04535
0
CIRCLE
8
P6
10
-54.313013670311335
20
-57.37466124661247
40
0.04535
0
CIRCLE
8
P6
10
-54.66637662039923
20
-55.30826558265582
40
0.04535
0
CIRCLE
8
P6
10
-53.87661159054577
20
-56.33754026896494
40
0.04535
0
CIRCLE
8
P6
10
-54.541661516030956
20
-56.33754026896495
40
0.04535
0
CIRCLE
8
P6
10
-57.34290060457618
20
-56.34538656030337
40
0.04535
0
CIRCLE
8
P6
10
-54.89084751178407
20
-56.341463414634156
40
0.04535
0
CIRCLE
8
P6
10
-56.112526238722005
20
-56.34538656030337
40
0.04535
0
CIRCLE
8
P6
10
-55.4278506790909
20
-56.34538656030336
40
0.04535
0
CIRCLE
8
P6
10
-50.83366345398731
20
-56.34146341463416
40
0.04535
0
CIRCLE
8
P6
10
-51.11381559798126
20
-55.30149051490514
40
0.04535
0
CIRCLE
8
P6
10
-49.896376709809296
20
-55.30897209405763
40
0.04535
0
CIRCLE
8
P6
10
-50.831502822050105
20
-57.37395473521069
40
0.04535
0
CIRCLE
8
P6
10
-49.505459248506135
20
-57.16634759910241
40
0.04535
0
CIRCLE
8
P6
10
-50.53875951783263
20
-57.08494500131297
40
0.04535
0
CIRCLE
8
P6
10
-48.71220578914315
20
-57.38333905584053
40
0.04535
0
CIRCLE
8
P6
10
-49.644581698380655
20
-55.304378469777284
40
0.04535
0
CIRCLE
8
P6
10
-48.45935513372598
20
-57.37466124661247
40
0.04535
0
CIRCLE
8
P6
10
-48.81271808381388
20
-55.30826558265582
40
0.04535
0
CIRCLE
8
P6
10
-48.02295305396039
20
-56.33754026896494
40
0.04535
0
CIRCLE
8
P6
10
-48.6880029794456
20
-56.33754026896495
40
0.04535
0
CIRCLE
8
P6
10
-51.48924206799083
20
-56.34538656030337
40
0.04535
0
CIRCLE
8
P6
10
-49.0371889751987
20
-56.341463414634156
40
0.04535
0
CIRCLE
8
P6
10
-50.25886770213665
20
-56.34538656030337
40
0.04535
0
CIRCLE
8
P6
10
-49.57419214250554
20
-56.34538656030336
40
0.04535
0
CIRCLE
8
P6
10
-44.98000491740194
20
-56.34146341463416
40
0.04535
0
CIRCLE
8
P6
10
-45.26015706139589
20
-55.30149051490514
40
0.04535
0
CIRCLE
8
P6
10
-44.04271817322392
20
-55.30897209405763
40
0.04535
0
CIRCLE
8
P6
10
-44.97784428546473
20
-57.37395473521069
40
0.04535
0
CIRCLE
8
P6
10
-43.65180071192076
20
-57.16634759910241
40
0.04535
0
CIRCLE
8
P6
10
-44.68510098124726
20
-57.08494500131297
40
0.04535
0
CIRCLE
8
P6
10
-42.85854725255777
20
-57.38333905584053
40
0.04535
0
CIRCLE
8
P6
10
-43.79092316179528
20
-55.304378469777284
40
0.04535
0
CIRCLE
8
P6
10
-42.60569659714061
20
-57.37466124661247
40
0.04535
0
CIRCLE
8
P6
10
-42.95905954722849
20
-55.30826558265582
40
0.04535
0
CIRCLE
8
P6
10
-42.16929451737502
20
-56.33754026896494
40
0.04535
0
CIRCLE
8
P6
10
-42.83434444286024
20
-56.33754026896495
40
0.04535
0
CIRCLE
8
P6
10
-45.635583531405445
20
-56.34538656030337
40
0.04535
0
CIRCLE
8
P6
10
-43.18353043861332
20
-56.341463414634156
40
0.04535
0
CIRCLE
8
P6
10
-44.40520916555127
20
-56.34538656030337
40
0.04535
0
CIRCLE
8
P6
10
-43.72053360592017
20
-56.34538656030336
40
0.04535
0
CIRCLE
8
P6
10
-39.126346380816585
20
-56.34146341463416
40
0.04535
0
CIRCLE
8
P6
10
-39.406498524810544
20
-55.30149051490514
40
0.04535
0
CIRCLE
8
P6
10
-38.18905963663856
20
-55.30897209405763
40
0.04535
0
CIRCLE
8
P6
10
-39.124185748879384
20
-57.37395473521069
40
0.04535
0
CIRCLE
8
P6
10
-37.7981421753354
20
-57.16634759910241
40
0.04535
0
CIRCLE
8
P6
10
-38.8314424446619
20
-57.08494500131297
40
0.04535
0
CIRCLE
8
P6
10
-37.00488871597241
20
-57.38333905584053
40
0.04535
0
CIRCLE
8
P6
10
-37.93726462520992
20
-55.304378469777284
40
0.04535
0
CIRCLE
8
P6
10
-36.75203806055525
20
-57.37466124661247
40
0.04535
0
CIRCLE
8
P6
10
-37.105401010643135
20
-55.30826558265582
40
0.04535
0
CIRCLE
8
P6
10
-36.315635980789665
20
-56.33754026896494
40
0.04535
0
CIRCLE
8
P6
10
-36.98068590627487
20
-56.33754026896495
40
0.04535
0
CIRCLE
8
P6
10
-39.7819249948201
20
-56.34538656030337
40
0.04535
0
CIRCLE
8
P6
10
-37.329871902027975
20
-56.341463414634156
40
0.04535
0
CIRCLE
8
P6
10
-38.55155062896591
20
-56.34538656030337
40
0.04535
0
CIRCLE
8
P6
10
-37.866875069334824
20
-56.34538656030336
40
0.04535
0
CIRCLE
8
P6
10
-33.272687844231214
20
-56.34146341463416
40
0.04535
0
CIRCLE
8
P6
10
-33.55283998822516
20
-55.30149051490514
40
0.04535
0
CIRCLE
8
P6
10
-32.33540110005319
20
-55.30897209405763
40
0.04535
0
CIRCLE
8
P6
10
-33.270527212294
20
-57.37395473521069
40
0.04535
0
CIRCLE
8
P6
10
-31.94448363875003
20
-57.16634759910241
40
0.04535
0
CIRCLE
8
P6
10
-32.97778390807652
20
-57.08494500131297
40
0.04535
0
CIRCLE
8
P6
10
-31.151230179387042
20
-57.38333905584053
40
0.04535
0
CIRCLE
8
P6
10
-32.08360608862456
20
-55.304378469777284
40
0.04535
0
CIRCLE
8
P6
10
-30.89837952396988
20
-57.37466124661247
40
0.04535
0
CIRCLE
8
P6
10
-31.251742474057778
20
-55.30826558265582
40
0.04535
0
CIRCLE
8
P6
10
-30.461977444204294
20
-56.33754026896494
40
0.04535
0
CIRCLE
8
P6
10
-31.127027369689486
20
-56.33754026896495
40
0.04535
0
CIRCLE
8
P6
10
-33.92826645823472
20
-56.34538656030337
40
0.04535
0
CIRCLE
8
P6
10
-31.476213365442618
20
-56.341463414634156
40
0.04535
0
CIRCLE
8
P6
10
-32.69789209238054
20
-56.34538656030337
40
0.04535
0
CIRCLE
8
P6
10
-32.01321653274944
20
-56.34538656030336
40
0.04535
0
CIRCLE
8
P6
10
-27.419029307645843
20
-56.34146341463416
40
0.04535
0
CIRCLE
8
P6
10
-27.699181451639802
20
-55.30149051490514
40
0.04535
0
CIRCLE
8
P6
10
-26.481742563467805
20
-55.30897209405763
40
0.04535
0
CIRCLE
8
P6
10
-27.416868675708628
20
-57.37395473521069
40
0.04535
0
CIRCLE
8
P6
10
-26.090825102164686
20
-57.16634759910241
40
0.04535
0
CIRCLE
8
P6
10
-27.124125371491147
20
-57.08494500131297
40
0.04535
0
CIRCLE
8
P6
10
-25.29757164280167
20
-57.38333905584053
40
0.04535
0
CIRCLE
8
P6
10
-26.229947552039178
20
-55.304378469777284
40
0.04535
0
CIRCLE
8
P6
10
-25.04472098738451
20
-57.37466124661247
40
0.04535
0
CIRCLE
8
P6
10
-25.398083937472407
20
-55.30826558265582
40
0.04535
0
CIRCLE
8
P6
10
-24.60831890761891
20
-56.33754026896494
40
0.04535
0
CIRCLE
8
P6
10
-25.273368833104115
20
-56.33754026896495
40
0.04535
0
CIRCLE
8
P6
10
-28.074607921649346
20
-56.34538656030337
40
0.04535
0
CIRCLE
8
P6
10
-25.622554828857233
20
-56.341463414634156
40
0.04535
0
CIRCLE
8
P6
10
-26.844233555795185
20
-56.34538656030337
40
0.04535
0
CIRCLE
8
P6
10
-26.159557996164068
20
-56.34538656030336
40
0.04535
0
CIRCLE
8
P6
10
-21.565370771060472
20
-56.34146341463416
40
0.04535
0
CIRCLE
8
P6
10
-21.845522915054417
20
-55.30149051490514
40
0.04535
0
CIRCLE
8
P6
10
-20.628084026882462
20
-55.30897209405763
40
0.04535
0
CIRCLE
8
P6
10
-21.56321013912327
20
-57.37395473521069
40
0.04535
0
CIRCLE
8
P6
10
-20.2371665655793
20
-57.16634759910241
40
0.04535
0
CIRCLE
8
P6
10
-21.270466834905818
20
-57.08494500131297
40
0.04535
0
CIRCLE
8
P6
10
-19.44391310621633
20
-57.38333905584053
40
0.04535
0
CIRCLE
8
P6
10
-20.376289015453835
20
-55.304378469777284
40
0.04535
0
CIRCLE
8
P6
10
-19.191062450799166
20
-57.37466124661247
40
0.04535
0
CIRCLE
8
P6
10
-19.54442540088705
20
-55.30826558265582
40
0.04535
0
CIRCLE
8
P6
10
-18.75466037103355
20
-56.33754026896494
40
0.04535
0
CIRCLE
8
P6
10
-19.419710296518772
20
-56.33754026896495
40
0.04535
0
CIRCLE
8
P6
10
-22.220949385063975
20
-56.34538656030337
40
0.04535
0
CIRCLE
8
P6
10
-19.768896292271876
20
-56.341463414634156
40
0.04535
0
CIRCLE
8
P6
10
-20.990575019209828
20
-56.34538656030337
40
0.04535
0
CIRCLE
8
P6
10
-20.305899459578725
20
-56.34538656030336
40
0.04535
0
CIRCLE
8
P6
10
-15.71171223447513
20
-56.34146341463416
40
0.04535
0
CIRCLE
8
P6
10
-15.991864378469046
20
-55.30149051490514
40
0.04535
0
CIRCLE
8
P6
10
-14.77442549029709
20
-55.30897209405763
40
0.04535
0
CIRCLE
8
P6
10
-15.7095516025379
20
-57.37395473521069
40
0.04535
0
CIRCLE
8
P6
10
-14.38350802899393
20
-57.16634759910241
40
0.04535
0
CIRCLE
8
P6
10
-15.416808298320433
20
-57.08494500131297
40
0.04535
0
CIRCLE
8
P6
10
-13.590254569630943
20
-57.38333905584053
40
0.04535
0
CIRCLE
8
P6
10
-14.522630478868464
20
-55.304378469777284
40
0.04535
0
CIRCLE
8
P6
10
-13.33740391421378
20
-57.37466124661247
40
0.04535
0
CIRCLE
8
P6
10
-13.690766864301679
20
-55.30826558265582
40
0.04535
0
CIRCLE
8
P6
10
-12.90100183444818
20
-56.33754026896494
40
0.04535
0
CIRCLE
8
P6
10
-13.566051759933401
20
-56.33754026896495
40
0.04535
0
CIRCLE
8
P6
10
-16.367290848478603
20
-56.34538656030337
40
0.04535
0
CIRCLE
8
P6
10
-13.91523775568649
20
-56.341463414634156
40
0.04535
0
CIRCLE
8
P6
10
-15.136916482624457
20
-56.34538656030337
40
0.04535
0
CIRCLE
8
P6
10
-14.452240922993354
20
-56.34538656030336
40
0.04535
0
CIRCLE
8
P6
10
-9.858053697889758
20
-56.34146341463416
40
0.04535
0
CIRCLE
8
P6
10
-10.13820584188369
20
-55.30149051490514
40
0.04535
0
CIRCLE
8
P6
10
-8.92076695371172
20
-55.30897209405763
40
0.04535
0
CIRCLE
8
P6
10
-9.855893065952515
20
-57.37395473521069
40
0.04535
0
CIRCLE
8
P6
10
-8.529849492408559
20
-57.16634759910241
40
0.04535
0
CIRCLE
8
P6
10
-9.563149761735062
20
-57.08494500131297
40
0.04535
0
CIRCLE
8
P6
10
-7.736596033045558
20
-57.38333905584053
40
0.04535
0
CIRCLE
8
P6
10
-8.668971942283079
20
-55.304378469777284
40
0.04535
0
CIRCLE
8
P6
10
-7.483745377628409
20
-57.37466124661247
40
0.04535
0
CIRCLE
8
P6
10
-7.837108327716308
20
-55.30826558265582
40
0.04535
0
CIRCLE
8
P6
10
-7.047343297862838
20
-56.33754026896494
40
0.04535
0
CIRCLE
8
P6
10
-7.71239322334803
20
-56.33754026896495
40
0.04535
0
CIRCLE
8
P6
10
-10.513632311893232
20
-56.34538656030337
40
0.04535
0
CIRCLE
8
P6
10
-8.061579219101134
20
-56.341463414634156
40
0.04535
0
CIRCLE
8
P6
10
-9.283257946039086
20
-56.34538656030337
40
0.04535
0
CIRCLE
8
P6
10
-8.59858238640797
20
-56.34538656030336
40
0.04535
0
CIRCLE
8
P6
10
-4.0043951613044015
20
-56.34146341463416
40
0.04535
0
CIRCLE
8
P6
10
-4.2845473052983465
20
-55.30149051490514
40
0.04535
0
CIRCLE
8
P6
10
-3.067108417126363
20
-55.30897209405763
40
0.04535
0
CIRCLE
8
P6
10
-4.002234529367172
20
-57.37395473521069
40
0.04535
0
CIRCLE
8
P6
10
-2.676190955823202
20
-57.16634759910241
40
0.04535
0
CIRCLE
8
P6
10
-3.709491225149705
20
-57.08494500131297
40
0.04535
0
CIRCLE
8
P6
10
-1.8829374964602152
20
-57.38333905584053
40
0.04535
0
CIRCLE
8
P6
10
-2.8153134056977223
20
-55.304378469777284
40
0.04535
0
CIRCLE
8
P6
10
-1.6300868410430525
20
-57.37466124661247
40
0.04535
0
CIRCLE
8
P6
10
-1.983449791130937
20
-55.30826558265582
40
0.04535
0
CIRCLE
8
P6
10
-1.193684761277467
20
-56.33754026896494
40
0.04535
0
CIRCLE
8
P6
10
-1.8587346867626735
20
-56.33754026896495
40
0.04535
0
CIRCLE
8
P6
10
-4.659973775307904
20
-56.34538656030337
40
0.04535
0
CIRCLE
8
P6
10
-2.207920682515791
20
-56.341463414634156
40
0.04535
0
CIRCLE
8
P6
10
-3.429599409453715
20
-56.34538656030337
40
0.04535
0
CIRCLE
8
P6
10
-2.7449238498226265
20
-56.34538656030336
40
0.04535
0
CIRCLE
8
P6
10
1.8492633752809837
20
-56.34146341463416
40
0.04535
0
CIRCLE
8
P6
10
1.5691112312870388
20
-55.30149051490514
40
0.04535
0
CIRCLE
8
P6
10
2.7865501194590223
20
-55.30897209405763
40
0.04535
0
CIRCLE
8
P6
10
1.851424007218199
20
-57.37395473521069
40
0.04535
0
CIRCLE
8
P6
10
3.177467580762155
20
-57.16634759910241
40
0.04535
0
CIRCLE
8
P6
10
2.1441673114356803
20
-57.08494500131297
40
0.04535
0
CIRCLE
8
P6
10
3.97072104012517
20
-57.38333905584053
40
0.04535
0
CIRCLE
8
P6
10
3.038345130887606
20
-55.304378469777284
40
0.04535
0
CIRCLE
8
P6
10
4.223571695542319
20
-57.37466124661247
40
0.04535
0
CIRCLE
8
P6
10
3.8702087454544056
20
-55.30826558265582
40
0.04535
0
CIRCLE
8
P6
10
4.659973775307904
20
-56.33754026896494
40
0.04535
0
CIRCLE
8
P6
10
3.9949238498227118
20
-56.33754026896495
40
0.04535
0
CIRCLE
8
P6
10
1.193684761277467
20
-56.34538656030337
40
0.04535
0
CIRCLE
8
P6
10
3.64573785406958
20
-56.341463414634156
40
0.04535
0
CIRCLE
8
P6
10
2.424059127131656
20
-56.34538656030337
40
0.04535
0
CIRCLE
8
P6
10
3.1087346867627446
20
-56.34538656030336
40
0.04535
0
CIRCLE
8
P6
10
7.702921911866312
20
-56.34146341463416
40
0.04535
0
CIRCLE
8
P6
10
7.42276976787241
20
-55.30149051490514
40
0.04535
0
CIRCLE
8
P6
10
8.640208656044365
20
-55.30897209405763
40
0.04535
0
CIRCLE
8
P6
10
7.705082543803542
20
-57.37395473521069
40
0.04535
0
CIRCLE
8
P6
10
9.031126117347526
20
-57.16634759910241
40
0.04535
0
CIRCLE
8
P6
10
7.997825848021037
20
-57.08494500131297
40
0.04535
0
CIRCLE
8
P6
10
9.824379576710513
20
-57.38333905584053
40
0.04535
0
CIRCLE
8
P6
10
8.892003667472977
20
-55.304378469777284
40
0.04535
0
CIRCLE
8
P6
10
10.077230232127675
20
-57.37466124661247
40
0.04535
0
CIRCLE
8
P6
10
9.723867282039762
20
-55.30826558265582
40
0.04535
0
CIRCLE
8
P6
10
10.513632311893275
20
-56.33754026896494
40
0.04535
0
CIRCLE
8
P6
10
9.848582386408069
20
-56.33754026896495
40
0.04535
0
CIRCLE
8
P6
10
7.047343297862852
20
-56.34538656030337
40
0.04535
0
CIRCLE
8
P6
10
9.499396390654951
20
-56.341463414634156
40
0.04535
0
CIRCLE
8
P6
10
8.277717663716999
20
-56.34538656030337
40
0.04535
0
CIRCLE
8
P6
10
8.962393223348116
20
-56.34538656030336
40
0.04535
0
CIRCLE
8
P6
10
13.556580448451712
20
-56.34146341463416
40
0.04535
0
CIRCLE
8
P6
10
13.27642830445778
20
-55.30149051490514
40
0.04535
0
CIRCLE
8
P6
10
14.493867192629722
20
-55.30897209405763
40
0.04535
0
CIRCLE
8
P6
10
13.558741080388913
20
-57.37395473521069
40
0.04535
0
CIRCLE
8
P6
10
14.884784653932897
20
-57.16634759910241
40
0.04535
0
CIRCLE
8
P6
10
13.85148438460638
20
-57.08494500131297
40
0.04535
0
CIRCLE
8
P6
10
15.678038113295884
20
-57.38333905584053
40
0.04535
0
CIRCLE
8
P6
10
14.745662204058377
20
-55.304378469777284
40
0.04535
0
CIRCLE
8
P6
10
15.930888768713046
20
-57.37466124661247
40
0.04535
0
CIRCLE
8
P6
10
15.577525818625162
20
-55.30826558265582
40
0.04535
0
CIRCLE
8
P6
10
16.367290848478632
20
-56.33754026896494
40
0.04535
0
CIRCLE
8
P6
10
15.702240922993411
20
-56.33754026896495
40
0.04535
0
CIRCLE
8
P6
10
12.901001834448195
20
-56.34538656030337
40
0.04535
0
CIRCLE
8
P6
10
15.353054927240336
20
-56.341463414634156
40
0.04535
0
CIRCLE
8
P6
10
14.13137620030237
20
-56.34538656030337
40
0.04535
0
CIRCLE
8
P6
10
14.816051759933487
20
-56.34538656030336
40
0.04535
0
CIRCLE
8
P6
10
19.410238985037054
20
-56.34146341463416
40
0.04535
0
CIRCLE
8
P6
10
19.130086841043138
20
-55.30149051490514
40
0.04535
0
CIRCLE
8
P6
10
20.34752572921512
20
-55.30897209405763
40
0.04535
0
CIRCLE
8
P6
10
19.412399616974298
20
-57.37395473521069
40
0.04535
0
CIRCLE
8
P6
10
20.738443190518225
20
-57.16634759910241
40
0.04535
0
CIRCLE
8
P6
10
19.70514292119175
20
-57.08494500131297
40
0.04535
0
CIRCLE
8
P6
10
21.531696649881255
20
-57.38333905584053
40
0.04535
0
CIRCLE
8
P6
10
20.599320740643734
20
-55.304378469777284
40
0.04535
0
CIRCLE
8
P6
10
21.784547305298403
20
-57.37466124661247
40
0.04535
0
CIRCLE
8
P6
10
21.431184355210476
20
-55.30826558265582
40
0.04535
0
CIRCLE
8
P6
10
22.220949385064003
20
-56.33754026896494
40
0.04535
0
CIRCLE
8
P6
10
21.555899459578782
20
-56.33754026896495
40
0.04535
0
CIRCLE
8
P6
10
18.75466037103358
20
-56.34538656030337
40
0.04535
0
CIRCLE
8
P6
10
21.206713463825665
20
-56.341463414634156
40
0.04535
0
CIRCLE
8
P6
10
19.985034736887755
20
-56.34538656030337
40
0.04535
0
CIRCLE
8
P6
10
20.66971029651883
20
-56.34538656030336
40
0.04535
0
CIRCLE
8
P6
10
25.263897521622468
20
-56.34146341463416
40
0.04535
0
CIRCLE
8
P6
10
24.983745377628495
20
-55.30149051490514
40
0.04535
0
CIRCLE
8
P6
10
26.201184265800478
20
-55.30897209405763
40
0.04535
0
CIRCLE
8
P6
10
25.266058153559655
20
-57.37395473521069
40
0.04535
0
CIRCLE
8
P6
10
26.59210172710361
20
-57.16634759910241
40
0.04535
0
CIRCLE
8
P6
10
25.558801457777165
20
-57.08494500131297
40
0.04535
0
CIRCLE
8
P6
10
27.385355186466583
20
-57.38333905584053
40
0.04535
0
CIRCLE
8
P6
10
26.45297927722909
20
-55.304378469777284
40
0.04535
0
CIRCLE
8
P6
10
27.638205841883817
20
-57.37466124661247
40
0.04535
0
CIRCLE
8
P6
10
27.28484289179589
20
-55.30826558265582
40
0.04535
0
CIRCLE
8
P6
10
28.07460792164936
20
-56.33754026896494
40
0.04535
0
CIRCLE
8
P6
10
27.409557996164168
20
-56.33754026896495
40
0.04535
0
CIRCLE
8
P6
10
24.608318907618937
20
-56.34538656030337
40
0.04535
0
CIRCLE
8
P6
10
27.06037200041105
20
-56.341463414634156
40
0.04535
0
CIRCLE
8
P6
10
25.83869327347314
20
-56.34538656030337
40
0.04535
0
CIRCLE
8
P6
10
26.523368833104215
20
-56.34538656030336
40
0.04535
0
CIRCLE
8
P6
10
31.117556058207768
20
-56.34146341463416
40
0.04535
0
CIRCLE
8
P6
10
30.837403914213823
20
-55.30149051490514
40
0.04535
0
CIRCLE
8
P6
10
32.05484280238578
20
-55.30897209405763
40
0.04535
0
CIRCLE
8
P6
10
31.119716690144955
20
-57.37395473521069
40
0.04535
0
CIRCLE
8
P6
10
32.44576026368894
20
-57.16634759910241
40
0.04535
0
CIRCLE
8
P6
10
31.412459994362464
20
-57.08494500131297
40
0.04535
0
CIRCLE
8
P6
10
33.23901372305197
20
-57.38333905584053
40
0.04535
0
CIRCLE
8
P6
10
32.30663781381442
20
-55.304378469777284
40
0.04535
0
CIRCLE
8
P6
10
33.49186437846912
20
-57.37466124661247
40
0.04535
0
CIRCLE
8
P6
10
33.13850142838122
20
-55.30826558265582
40
0.04535
0
CIRCLE
8
P6
10
33.92826645823469
20
-56.33754026896494
40
0.04535
0
CIRCLE
8
P6
10
33.263216532749496
20
-56.33754026896495
40
0.04535
0
CIRCLE
8
P6
10
30.461977444204294
20
-56.34538656030337
40
0.04535
0
CIRCLE
8
P6
10
32.91403053699641
20
-56.341463414634156
40
0.04535
0
CIRCLE
8
P6
10
31.69235181005844
20
-56.34538656030337
40
0.04535
0
CIRCLE
8
P6
10
32.37702736968954
20
-56.34538656030336
40
0.04535
0
CIRCLE
8
P6
10
36.97121459479318
20
-56.34146341463416
40
0.04535
0
CIRCLE
8
P6
10
36.691062450799265
20
-55.30149051490514
40
0.04535
0
CIRCLE
8
P6
10
37.90850133897119
20
-55.30897209405763
40
0.04535
0
CIRCLE
8
P6
10
36.9733752267304
20
-57.37395473521069
40
0.04535
0
CIRCLE
8
P6
10
38.29941880027435
20
-57.16634759910241
40
0.04535
0
CIRCLE
8
P6
10
37.26611853094785
20
-57.08494500131297
40
0.04535
0
CIRCLE
8
P6
10
39.092672259637325
20
-57.38333905584053
40
0.04535
0
CIRCLE
8
P6
10
38.16029635039983
20
-55.304378469777284
40
0.04535
0
CIRCLE
8
P6
10
39.345522915054474
20
-57.37466124661247
40
0.04535
0
CIRCLE
8
P6
10
38.99215996496663
20
-55.30826558265582
40
0.04535
0
CIRCLE
8
P6
10
39.78192499482007
20
-56.33754026896494
40
0.04535
0
CIRCLE
8
P6
10
39.11687506933488
20
-56.33754026896495
40
0.04535
0
CIRCLE
8
P6
10
36.31563598078968
20
-56.34538656030337
40
0.04535
0
CIRCLE
8
P6
10
38.76768907358179
20
-56.341463414634156
40
0.04535
0
CIRCLE
8
P6
10
37.546010346643854
20
-56.34538656030337
40
0.04535
0
CIRCLE
8
P6
10
38.23068590627493
20
-56.34538656030336
40
0.04535
0
CIRCLE
8
P6
10
42.82487313137857
20
-56.34146341463416
40
0.04535
0
CIRCLE
8
P6
10
42.54472098738459
20
-55.30149051490514
40
0.04535
0
CIRCLE
8
P6
10
43.76215987555655
20
-55.30897209405763
40
0.04535
0
CIRCLE
8
P6
10
42.827033763315754
20
-57.37395473521069
40
0.04535
0
CIRCLE
8
P6
10
44.15307733685974
20
-57.16634759910241
40
0.04535
0
CIRCLE
8
P6
10
43.119777067533235
20
-57.08494500131297
40
0.04535
0
CIRCLE
8
P6
10
44.94633079622274
20
-57.38333905584053
40
0.04535
0
CIRCLE
8
P6
10
44.01395488698519
20
-55.304378469777284
40
0.04535
0
CIRCLE
8
P6
10
45.19918145163989
20
-57.37466124661247
40
0.04535
0
CIRCLE
8
P6
10
44.84581850155199
20
-55.30826558265582
40
0.04535
0
CIRCLE
8
P6
10
45.63558353140546
20
-56.33754026896494
40
0.04535
0
CIRCLE
8
P6
10
44.970533605920295
20
-56.33754026896495
40
0.04535
0
CIRCLE
8
P6
10
42.169294517375064
20
-56.34538656030337
40
0.04535
0
CIRCLE
8
P6
10
44.62134761016718
20
-56.341463414634156
40
0.04535
0
CIRCLE
8
P6
10
43.39966888322921
20
-56.34538656030337
40
0.04535
0
CIRCLE
8
P6
10
44.08434444286031
20
-56.34538656030336
40
0.04535
0
CIRCLE
8
P6
10
48.678531667963895
20
-56.34146341463416
40
0.04535
0
CIRCLE
8
P6
10
48.39837952396998
20
-55.30149051490514
40
0.04535
0
CIRCLE
8
P6
10
49.615818412141934
20
-55.30897209405763
40
0.04535
0
CIRCLE
8
P6
10
48.68069229990111
20
-57.37395473521069
40
0.04535
0
CIRCLE
8
P6
10
50.006735873445066
20
-57.16634759910241
40
0.04535
0
CIRCLE
8
P6
10
48.97343560411862
20
-57.08494500131297
40
0.04535
0
CIRCLE
8
P6
10
50.799989332808096
20
-57.38333905584053
40
0.04535
0
CIRCLE
8
P6
10
49.8676134235706
20
-55.304378469777284
40
0.04535
0
CIRCLE
8
P6
10
51.052839988225244
20
-57.37466124661247
40
0.04535
0
CIRCLE
8
P6
10
50.699477038137374
20
-55.30826558265582
40
0.04535
0
CIRCLE
8
P6
10
51.489242067990816
20
-56.33754026896494
40
0.04535
0
CIRCLE
8
P6
10
50.82419214250562
20
-56.33754026896495
40
0.04535
0
CIRCLE
8
P6
10
48.02295305396039
20
-56.34538656030337
40
0.04535
0
CIRCLE
8
P6
10
50.475006146752534
20
-56.341463414634156
40
0.04535
0
CIRCLE
8
P6
10
49.253327419814596
20
-56.34538656030337
40
0.04535
0
CIRCLE
8
P6
10
49.93800297944567
20
-56.34538656030336
40
0.04535
0
CIRCLE
8
P6
10
54.53219020454928
20
-56.34146341463416
40
0.04535
0
CIRCLE
8
P6
10
54.25203806055531
20
-55.30149051490514
40
0.04535
0
CIRCLE
8
P6
10
55.46947694872729
20
-55.30897209405763
40
0.04535
0
CIRCLE
8
P6
10
54.53435083648647
20
-57.37395473521069
40
0.04535
0
CIRCLE
8
P6
10
55.86039441003042
20
-57.16634759910241
40
0.04535
0
CIRCLE
8
P6
10
54.82709414070398
20
-57.08494500131297
40
0.04535
0
CIRCLE
8
P6
10
56.653647869393424
20
-57.38333905584053
40
0.04535
0
CIRCLE
8
P6
10
55.72127196015593
20
-55.304378469777284
40
0.04535
0
CIRCLE
8
P6
10
56.90649852481063
20
-57.37466124661247
40
0.04535
0
CIRCLE
8
P6
10
56.5531355747227
20
-55.30826558265582
40
0.04535
0
CIRCLE
8
P6
10
57.34290060457617
20
-56.33754026896494
40
0.04535
0
CIRCLE
8
P6
10
56.67785067909098
20
-56.33754026896495
40
0.04535
0
CIRCLE
8
P6
10
53.87661159054575
20
-56.34538656030337
40
0.04535
0
CIRCLE
8
P6
10
56.32866468333786
20
-56.341463414634156
40
0.04535
0
CIRCLE
8
P6
10
55.106985956399924
20
-56.34538656030337
40
0.04535
0
CIRCLE
8
P6
10
55.791661516031056
20
-56.34538656030336
40
0.04535
0
ENDBLK
0
ENDSEC
0
SECTION
2
ENTITIES
0
INSERT
2
LDI_XFB44-1600-011_P6_B1
8
P6
10
0
20
0.0
30
0
0
INSERT
2
LDI_XFB44-1600-011_P6_B1
8
P6
10
0
20
5.121951219512195
30
0
0
INSERT
2
LDI_XFB44-1600-011_P6_B1
8
P6
10
0
20
10.24390243902439
30
0
0
INSERT
2
LDI_XFB44-1600-011_P6_B1
8
P6
10
0
20
15.365853658536587
30
0
0
INSERT
2
LDI_XFB44-1600-011_P6_B1
8
P6
10
0
20
20.48780487804878
30
0
0
INSERT
2
LDI_XFB44-1600-011_P6_B1
8
P6
10
0
20
25.609756097560975
30
0
0
INSERT
2
LDI_XFB44-1600-011_P6_B1
8
P6
10
0
20
30.731707317073173
30
0
0
INSERT
2
LDI_XFB44-1600-011_P6_B1
8
P6
10
0
20
35.853658536585364
30
0
0
INSERT
2
LDI_XFB44-1600-011_P6_B1
8
P6
10
0
20
40.97560975609756
30
0
0
INSERT
2
LDI_XFB44-1600-011_P6_B1
8
P6
10
0
20
46.09756097560976
30
0
0
INSERT
2
LDI_XFB44-1600-011_P6_B1
8
P6
10
0
20
51.21951219512195
30
0
0
INSERT
2
LDI_XFB44-1600-011_P6_B1
8
P6
10
0
20
56.34146341463415
30
0
0
INSERT
2
LDI_XFB44-1600-011_P6_B1
8
P6
10
0
20
61.463414634146346
30
0
0
INSERT
2
LDI_XFB44-1600-011_P6_B1
8
P6
10
0
20
66.58536585365854
30
0
0
INSERT
2
LDI_XFB44-1600-011_P6_B1
8
P6
10
0
20
71.70731707317073
30
0
0
INSERT
2
LDI_XFB44-1600-011_P6_B1
8
P6
10
0
20
76.82926829268293
30
0
0
INSERT
2
LDI_XFB44-1600-011_P6_B1
8
P6
10
0
20
81.95121951219512
30
0
0
INSERT
2
LDI_XFB44-1600-011_P6_B1
8
P6
10
0
20
87.07317073170732
30
0
0
INSERT
2
LDI_XFB44-1600-011_P6_B1
8
P6
10
0
20
92.19512195121952
30
0
0
INSERT
2
LDI_XFB44-1600-011_P6_B1
8
P6
10
0
20
97.3170731707317
30
0
0
INSERT
2
LDI_XFB44-1600-011_P6_B1
8
P6
10
0
20
102.4390243902439
30
0
0
INSERT
2
LDI_XFB44-1600-011_P6_B1
8
P6
10
0
20
107.5609756097561
30
0
0
INSERT
2
LDI_XFB44-1600-011_P6_B1
8
P6
10
0
20
112.6829268292683
30
0
0
POLYLINE
8
P6
66
1
70
1
40
0.1
41
0.1
0
VERTEX
8
P6
10
-61.5
20
-61.2
42
1.0
0
VERTEX
8
P6
10
-60.900000000000006
20
-61.2
42
1.0
0
SEQEND
0
POLYLINE
8
P6
66
1
70
1
40
0.1
41
0.1
0
VERTEX
8
P6
10
-61.5
20
61.2
42
1.0
0
VERTEX
8
P6
10
-60.900000000000006
20
61.2
42
1.0
0
SEQEND
0
POLYLINE
8
P6
66
1
70
1
40
0.1
41
0.1
0
VERTEX
8
P6
10
60.90000000000002
20
-61.2
42
1.0
0
VERTEX
8
P6
10
61.499999999999986
20
-61.2
42
1.0
0
SEQEND
0
POLYLINE
8
P6
66
1
70
1
40
0.1
41
0.1
0
VERTEX
8
P6
10
60.90000000000002
20
61.2
42
1.0
0
VERTEX
8
P6
10
61.499999999999986
20
61.2
42
1.0
0
SEQEND
0
TEXT
8
P6
10
-10.5
20
66.7
40
1.5
1
XFB44-1600-011-P6
0
POLYLINE
8
P6
66
1
70
1
0
VERTEX
8
P6
10
-100.0
20
100.0
30
0
40
1
41
1
0
VERTEX
8
P6
10
100.0
20
100.0
30
0
40
1
41
1
0
VERTEX
8
P6
10
100.0
20
-100.0
30
0
40
1
41
1
0
VERTEX
8
P6
10
-100.0
20
-100.0
30
0
40
1
41
1
0
SEQEND
0
ENDSEC
0
EOF
