0
SECTION
2
HEADER
9
$ACADVER
1
AC1006
9
$INSBASE
10
0.0
20
0.0
30
0.0
9
$EXTMIN
10
-104.25365853658536
20
-104.25365853658536
9
$EXTMAX
10
104.25365853658536
20
116.93658536585366
0
ENDSEC
0
SECTION
2
TABLES
0
TABLE
2
LTYPE
70
1
0
LTYPE
2
CONTINUOUS
70
64
3
Solid line
72
65
73
0
40
0.0
0
ENDTAB
0
TABLE
2
LAYER
70
3
0
LAYER
2
0
70
0
62
255
6
continuous
0
LAYER
2
0
70
0
62
7
6
continuous
0
LAYER
2
H4
70
0
62
7
6
continuous
0
ENDTAB
0
TABLE
2
STYLE
70
2
0
STYLE
2
STANDARD
70
0
40
0
41
1
50
0
71
0
42
1
3
ARIAL.TTF
4

0
STYLE
2
STANDARD
70
0
40
0
41
1
50
0
71
0
42
1
3
ARIAL.TTF
4

0
ENDTAB
0
TABLE
2
VIEW
70
1
0
VIEW
2
Normal
70
0
40
1
10
0.5
20
0.5
41
1
11
0
21
0
31
1
12
0
22
0
32
0
42
50
43
0
44
0
50
0
71
0
0
ENDTAB
0
ENDSEC
0
SECTION
2
BLOCKS
0
BLOCK
8
0
2
cutlineendpoint
70
0
10
0
20
0
30
0
3
cutlineendpoint
0
POLYLINE
8
0
66
1
70
1
40
0.04
41
0.04
0
VERTEX
8
0
10
-0.02
20
0
30
0
42
1.0
0
VERTEX
8
0
10
0.02
20
0
30
0
42
1.0
0
SEQEND
0
ENDBLK
0
BLOCK
8
H4
2
LDI_XFB44-1600-011_H4_B1
70
0
10
0
20
0
30
0
3
LDI_XFB44-1600-011_H4_B1
0
CIRCLE
8
H4
10
-57.078744895240206
20
-55.05570206409033
40
0.0567
0
CIRCLE
8
H4
10
-56.74318396921808
20
-57.61788617886179
40
0.0567
0
CIRCLE
8
H4
10
-54.56621153947818
20
-55.06504065040649
40
0.0567
0
CIRCLE
8
H4
10
-56.68732199057268
20
-56.34146341463416
40
0.0567
0
CIRCLE
8
H4
10
-54.54166151603095
20
-56.34538656030336
40
0.0567
0
CIRCLE
8
H4
10
-56.11415125886536
20
-56.34146341463416
40
0.0567
0
CIRCLE
8
H4
10
-55.39927138412053
20
-55.06504065040649
40
0.0567
0
CIRCLE
8
H4
10
-56.080111690788385
20
-55.05570206409033
40
0.0567
0
CIRCLE
8
H4
10
-54.889222491640716
20
-56.34538656030336
40
0.0567
0
CIRCLE
8
H4
10
-54.204660498836
20
-57.6260162601626
40
0.0567
0
CIRCLE
8
H4
10
-55.43732199057267
20
-56.34146341463415
40
0.0567
0
CIRCLE
8
H4
10
-57.34290060457618
20
-56.34538656030337
40
0.0567
0
CIRCLE
8
H4
10
-54.67354062012815
20
-57.62722476517795
40
0.0567
0
CIRCLE
8
H4
10
-53.87661159054576
20
-56.33754026896494
40
0.0567
0
CIRCLE
8
H4
10
-51.22508635865484
20
-55.05570206409033
40
0.0567
0
CIRCLE
8
H4
10
-50.889525432632716
20
-57.61788617886179
40
0.0567
0
CIRCLE
8
H4
10
-48.712553002892825
20
-55.06504065040649
40
0.0567
0
CIRCLE
8
H4
10
-50.83366345398731
20
-56.34146341463416
40
0.0567
0
CIRCLE
8
H4
10
-48.6880029794456
20
-56.34538656030336
40
0.0567
0
CIRCLE
8
H4
10
-50.26049272228
20
-56.34146341463416
40
0.0567
0
CIRCLE
8
H4
10
-49.54561284753516
20
-55.06504065040649
40
0.0567
0
CIRCLE
8
H4
10
-50.22645315420302
20
-55.05570206409033
40
0.0567
0
CIRCLE
8
H4
10
-49.03556395505535
20
-56.34538656030336
40
0.0567
0
CIRCLE
8
H4
10
-48.35100196225064
20
-57.6260162601626
40
0.0567
0
CIRCLE
8
H4
10
-49.58366345398731
20
-56.34146341463415
40
0.0567
0
CIRCLE
8
H4
10
-51.489242067990816
20
-56.34538656030337
40
0.0567
0
CIRCLE
8
H4
10
-48.81988208354279
20
-57.62722476517795
40
0.0567
0
CIRCLE
8
H4
10
-48.02295305396039
20
-56.33754026896494
40
0.0567
0
CIRCLE
8
H4
10
-45.371427822069464
20
-55.05570206409033
40
0.0567
0
CIRCLE
8
H4
10
-45.03586689604734
20
-57.61788617886179
40
0.0567
0
CIRCLE
8
H4
10
-42.85889446630745
20
-55.06504065040649
40
0.0567
0
CIRCLE
8
H4
10
-44.98000491740194
20
-56.34146341463416
40
0.0567
0
CIRCLE
8
H4
10
-42.834344442860214
20
-56.34538656030336
40
0.0567
0
CIRCLE
8
H4
10
-44.406834185694635
20
-56.34146341463416
40
0.0567
0
CIRCLE
8
H4
10
-43.6919543109498
20
-55.06504065040649
40
0.0567
0
CIRCLE
8
H4
10
-44.37279461761766
20
-55.05570206409033
40
0.0567
0
CIRCLE
8
H4
10
-43.18190541846997
20
-56.34538656030336
40
0.0567
0
CIRCLE
8
H4
10
-42.497343425665264
20
-57.6260162601626
40
0.0567
0
CIRCLE
8
H4
10
-43.73000491740194
20
-56.34146341463415
40
0.0567
0
CIRCLE
8
H4
10
-45.635583531405445
20
-56.34538656030337
40
0.0567
0
CIRCLE
8
H4
10
-42.96622354695741
20
-57.62722476517795
40
0.0567
0
CIRCLE
8
H4
10
-42.16929451737502
20
-56.33754026896494
40
0.0567
0
CIRCLE
8
H4
10
-39.51776928548409
20
-55.05570206409033
40
0.0567
0
CIRCLE
8
H4
10
-39.182208359461995
20
-57.61788617886179
40
0.0567
0
CIRCLE
8
H4
10
-37.00523592972209
20
-55.06504065040649
40
0.0567
0
CIRCLE
8
H4
10
-39.126346380816585
20
-56.34146341463416
40
0.0567
0
CIRCLE
8
H4
10
-36.98068590627487
20
-56.34538656030336
40
0.0567
0
CIRCLE
8
H4
10
-38.553175649109264
20
-56.34146341463416
40
0.0567
0
CIRCLE
8
H4
10
-37.838295774364425
20
-55.06504065040649
40
0.0567
0
CIRCLE
8
H4
10
-38.5191360810323
20
-55.05570206409033
40
0.0567
0
CIRCLE
8
H4
10
-37.32824688188464
20
-56.34538656030336
40
0.0567
0
CIRCLE
8
H4
10
-36.64368488907992
20
-57.6260162601626
40
0.0567
0
CIRCLE
8
H4
10
-37.876346380816585
20
-56.34146341463415
40
0.0567
0
CIRCLE
8
H4
10
-39.7819249948201
20
-56.34538656030337
40
0.0567
0
CIRCLE
8
H4
10
-37.112565010372066
20
-57.62722476517795
40
0.0567
0
CIRCLE
8
H4
10
-36.315635980789665
20
-56.33754026896494
40
0.0567
0
CIRCLE
8
H4
10
-33.664110748898736
20
-55.05570206409033
40
0.0567
0
CIRCLE
8
H4
10
-33.32854982287661
20
-57.61788617886179
40
0.0567
0
CIRCLE
8
H4
10
-31.151577393136705
20
-55.06504065040649
40
0.0567
0
CIRCLE
8
H4
10
-33.272687844231214
20
-56.34146341463416
40
0.0567
0
CIRCLE
8
H4
10
-31.127027369689486
20
-56.34538656030336
40
0.0567
0
CIRCLE
8
H4
10
-32.69951711252389
20
-56.34146341463416
40
0.0567
0
CIRCLE
8
H4
10
-31.98463723777907
20
-55.06504065040649
40
0.0567
0
CIRCLE
8
H4
10
-32.665477544446915
20
-55.05570206409033
40
0.0567
0
CIRCLE
8
H4
10
-31.474588345299267
20
-56.34538656030336
40
0.0567
0
CIRCLE
8
H4
10
-30.79002635249455
20
-57.6260162601626
40
0.0567
0
CIRCLE
8
H4
10
-32.022687844231214
20
-56.34146341463415
40
0.0567
0
CIRCLE
8
H4
10
-33.92826645823472
20
-56.34538656030337
40
0.0567
0
CIRCLE
8
H4
10
-31.258906473786695
20
-57.62722476517795
40
0.0567
0
CIRCLE
8
H4
10
-30.461977444204294
20
-56.33754026896494
40
0.0567
0
CIRCLE
8
H4
10
-27.810452212313365
20
-55.05570206409033
40
0.0567
0
CIRCLE
8
H4
10
-27.474891286291253
20
-57.61788617886179
40
0.0567
0
CIRCLE
8
H4
10
-25.297918856551348
20
-55.06504065040649
40
0.0567
0
CIRCLE
8
H4
10
-27.419029307645843
20
-56.34146341463416
40
0.0567
0
CIRCLE
8
H4
10
-25.27336883310413
20
-56.34538656030336
40
0.0567
0
CIRCLE
8
H4
10
-26.845858575938536
20
-56.34146341463416
40
0.0567
0
CIRCLE
8
H4
10
-26.130978701193698
20
-55.06504065040649
40
0.0567
0
CIRCLE
8
H4
10
-26.81181900786156
20
-55.05570206409033
40
0.0567
0
CIRCLE
8
H4
10
-25.620929808713882
20
-56.34538656030336
40
0.0567
0
CIRCLE
8
H4
10
-24.936367815909165
20
-57.6260162601626
40
0.0567
0
CIRCLE
8
H4
10
-26.169029307645843
20
-56.34146341463415
40
0.0567
0
CIRCLE
8
H4
10
-28.07460792164933
20
-56.34538656030337
40
0.0567
0
CIRCLE
8
H4
10
-25.405247937201324
20
-57.62722476517795
40
0.0567
0
CIRCLE
8
H4
10
-24.60831890761891
20
-56.33754026896494
40
0.0567
0
CIRCLE
8
H4
10
-21.956793675728008
20
-55.05570206409033
40
0.0567
0
CIRCLE
8
H4
10
-21.621232749705882
20
-57.61788617886179
40
0.0567
0
CIRCLE
8
H4
10
-19.44426031996599
20
-55.06504065040649
40
0.0567
0
CIRCLE
8
H4
10
-21.565370771060472
20
-56.34146341463416
40
0.0567
0
CIRCLE
8
H4
10
-19.419710296518744
20
-56.34538656030336
40
0.0567
0
CIRCLE
8
H4
10
-20.99220003935318
20
-56.34146341463416
40
0.0567
0
CIRCLE
8
H4
10
-20.277320164608327
20
-55.06504065040649
40
0.0567
0
CIRCLE
8
H4
10
-20.958160471276187
20
-55.05570206409033
40
0.0567
0
CIRCLE
8
H4
10
-19.767271272128525
20
-56.34538656030336
40
0.0567
0
CIRCLE
8
H4
10
-19.082709279323808
20
-57.6260162601626
40
0.0567
0
CIRCLE
8
H4
10
-20.315370771060472
20
-56.34146341463415
40
0.0567
0
CIRCLE
8
H4
10
-22.220949385063975
20
-56.34538656030337
40
0.0567
0
CIRCLE
8
H4
10
-19.551589400615953
20
-57.62722476517795
40
0.0567
0
CIRCLE
8
H4
10
-18.75466037103355
20
-56.33754026896494
40
0.0567
0
CIRCLE
8
H4
10
-16.103135139142637
20
-55.05570206409033
40
0.0567
0
CIRCLE
8
H4
10
-15.767574213120511
20
-57.61788617886179
40
0.0567
0
CIRCLE
8
H4
10
-13.59060178338062
20
-55.06504065040649
40
0.0567
0
CIRCLE
8
H4
10
-15.71171223447513
20
-56.34146341463416
40
0.0567
0
CIRCLE
8
H4
10
-13.566051759933387
20
-56.34538656030336
40
0.0567
0
CIRCLE
8
H4
10
-15.138541502767794
20
-56.34146341463416
40
0.0567
0
CIRCLE
8
H4
10
-14.423661628022955
20
-55.06504065040649
40
0.0567
0
CIRCLE
8
H4
10
-15.104501934690816
20
-55.05570206409033
40
0.0567
0
CIRCLE
8
H4
10
-13.91361273554314
20
-56.34538656030336
40
0.0567
0
CIRCLE
8
H4
10
-13.229050742738437
20
-57.6260162601626
40
0.0567
0
CIRCLE
8
H4
10
-14.46171223447513
20
-56.34146341463415
40
0.0567
0
CIRCLE
8
H4
10
-16.367290848478603
20
-56.34538656030337
40
0.0567
0
CIRCLE
8
H4
10
-13.697930864030582
20
-57.62722476517795
40
0.0567
0
CIRCLE
8
H4
10
-12.90100183444818
20
-56.33754026896494
40
0.0567
0
CIRCLE
8
H4
10
-10.249476602557266
20
-55.05570206409033
40
0.0567
0
CIRCLE
8
H4
10
-9.913915676535154
20
-57.61788617886179
40
0.0567
0
CIRCLE
8
H4
10
-7.7369432467952635
20
-55.06504065040649
40
0.0567
0
CIRCLE
8
H4
10
-9.858053697889758
20
-56.34146341463416
40
0.0567
0
CIRCLE
8
H4
10
-7.71239322334803
20
-56.34538656030336
40
0.0567
0
CIRCLE
8
H4
10
-9.284882966182437
20
-56.34146341463416
40
0.0567
0
CIRCLE
8
H4
10
-8.570003091437584
20
-55.06504065040649
40
0.0567
0
CIRCLE
8
H4
10
-9.250843398105445
20
-55.05570206409033
40
0.0567
0
CIRCLE
8
H4
10
-8.059954198957769
20
-56.34538656030336
40
0.0567
0
CIRCLE
8
H4
10
-7.375392206153066
20
-57.6260162601626
40
0.0567
0
CIRCLE
8
H4
10
-8.608053697889758
20
-56.34146341463415
40
0.0567
0
CIRCLE
8
H4
10
-10.513632311893232
20
-56.34538656030337
40
0.0567
0
CIRCLE
8
H4
10
-7.844272327445211
20
-57.62722476517795
40
0.0567
0
CIRCLE
8
H4
10
-7.047343297862838
20
-56.33754026896494
40
0.0567
0
CIRCLE
8
H4
10
-4.395818065971909
20
-55.05570206409033
40
0.0567
0
CIRCLE
8
H4
10
-4.0602571399497975
20
-57.61788617886179
40
0.0567
0
CIRCLE
8
H4
10
-1.8832847102098924
20
-55.06504065040649
40
0.0567
0
CIRCLE
8
H4
10
-4.0043951613044015
20
-56.34146341463416
40
0.0567
0
CIRCLE
8
H4
10
-1.8587346867626735
20
-56.34538656030336
40
0.0567
0
CIRCLE
8
H4
10
-3.43122442959708
20
-56.34146341463416
40
0.0567
0
CIRCLE
8
H4
10
-2.716344554852242
20
-55.06504065040649
40
0.0567
0
CIRCLE
8
H4
10
-3.3971848615200884
20
-55.05570206409033
40
0.0567
0
CIRCLE
8
H4
10
-2.206295662372426
20
-56.34538656030336
40
0.0567
0
CIRCLE
8
H4
10
-1.5217336695677233
20
-57.6260162601626
40
0.0567
0
CIRCLE
8
H4
10
-2.7543951613043873
20
-56.34146341463415
40
0.0567
0
CIRCLE
8
H4
10
-4.659973775307904
20
-56.34538656030337
40
0.0567
0
CIRCLE
8
H4
10
-1.990613790859868
20
-57.62722476517795
40
0.0567
0
CIRCLE
8
H4
10
-1.193684761277467
20
-56.33754026896494
40
0.0567
0
CIRCLE
8
H4
10
1.457840470613462
20
-55.05570206409033
40
0.0567
0
CIRCLE
8
H4
10
1.7934013966355877
20
-57.61788617886179
40
0.0567
0
CIRCLE
8
H4
10
3.970373826375507
20
-55.06504065040649
40
0.0567
0
CIRCLE
8
H4
10
1.8492633752809837
20
-56.34146341463416
40
0.0567
0
CIRCLE
8
H4
10
3.9949238498226975
20
-56.34538656030336
40
0.0567
0
CIRCLE
8
H4
10
2.4224341069883053
20
-56.34146341463416
40
0.0567
0
CIRCLE
8
H4
10
3.1373139817331293
20
-55.06504065040649
40
0.0567
0
CIRCLE
8
H4
10
2.4564736750652543
20
-55.05570206409033
40
0.0567
0
CIRCLE
8
H4
10
3.647362874212945
20
-56.34538656030336
40
0.0567
0
CIRCLE
8
H4
10
4.331924867017648
20
-57.6260162601626
40
0.0567
0
CIRCLE
8
H4
10
3.0992633752809837
20
-56.34146341463415
40
0.0567
0
CIRCLE
8
H4
10
1.193684761277467
20
-56.34538656030337
40
0.0567
0
CIRCLE
8
H4
10
3.8630447457255173
20
-57.62722476517795
40
0.0567
0
CIRCLE
8
H4
10
4.659973775307904
20
-56.33754026896494
40
0.0567
0
CIRCLE
8
H4
10
7.311499007198805
20
-55.05570206409033
40
0.0567
0
CIRCLE
8
H4
10
7.64705993322093
20
-57.61788617886179
40
0.0567
0
CIRCLE
8
H4
10
9.82403236296085
20
-55.06504065040649
40
0.0567
0
CIRCLE
8
H4
10
7.702921911866312
20
-56.34146341463416
40
0.0567
0
CIRCLE
8
H4
10
9.84858238640804
20
-56.34538656030336
40
0.0567
0
CIRCLE
8
H4
10
8.276092643573662
20
-56.34146341463416
40
0.0567
0
CIRCLE
8
H4
10
8.9909725183185
20
-55.06504065040649
40
0.0567
0
CIRCLE
8
H4
10
8.310132211650611
20
-55.05570206409033
40
0.0567
0
CIRCLE
8
H4
10
9.501021410798302
20
-56.34538656030336
40
0.0567
0
CIRCLE
8
H4
10
10.185583403603019
20
-57.6260162601626
40
0.0567
0
CIRCLE
8
H4
10
8.95292191186634
20
-56.34146341463415
40
0.0567
0
CIRCLE
8
H4
10
7.047343297862852
20
-56.34538656030337
40
0.0567
0
CIRCLE
8
H4
10
9.71670328231086
20
-57.62722476517795
40
0.0567
0
CIRCLE
8
H4
10
10.513632311893275
20
-56.33754026896494
40
0.0567
0
CIRCLE
8
H4
10
13.165157543784176
20
-55.05570206409033
40
0.0567
0
CIRCLE
8
H4
10
13.500718469806301
20
-57.61788617886179
40
0.0567
0
CIRCLE
8
H4
10
15.677690899546192
20
-55.06504065040649
40
0.0567
0
CIRCLE
8
H4
10
13.556580448451712
20
-56.34146341463416
40
0.0567
0
CIRCLE
8
H4
10
15.70224092299344
20
-56.34538656030336
40
0.0567
0
CIRCLE
8
H4
10
14.129751180159033
20
-56.34146341463416
40
0.0567
0
CIRCLE
8
H4
10
14.844631054903871
20
-55.06504065040649
40
0.0567
0
CIRCLE
8
H4
10
14.16379074823601
20
-55.05570206409033
40
0.0567
0
CIRCLE
8
H4
10
15.354679947383673
20
-56.34538656030336
40
0.0567
0
CIRCLE
8
H4
10
16.039241940188376
20
-57.6260162601626
40
0.0567
0
CIRCLE
8
H4
10
14.806580448451712
20
-56.34146341463415
40
0.0567
0
CIRCLE
8
H4
10
12.901001834448195
20
-56.34538656030337
40
0.0567
0
CIRCLE
8
H4
10
15.570361818896231
20
-57.62722476517795
40
0.0567
0
CIRCLE
8
H4
10
16.367290848478632
20
-56.33754026896494
40
0.0567
0
CIRCLE
8
H4
10
19.01881608036952
20
-55.05570206409033
40
0.0567
0
CIRCLE
8
H4
10
19.35437700639166
20
-57.61788617886179
40
0.0567
0
CIRCLE
8
H4
10
21.531349436131578
20
-55.06504065040649
40
0.0567
0
CIRCLE
8
H4
10
19.410238985037054
20
-56.34146341463416
40
0.0567
0
CIRCLE
8
H4
10
21.555899459578782
20
-56.34538656030336
40
0.0567
0
CIRCLE
8
H4
10
19.98340971674439
20
-56.34146341463416
40
0.0567
0
CIRCLE
8
H4
10
20.6982895914892
20
-55.06504065040649
40
0.0567
0
CIRCLE
8
H4
10
20.017449284821353
20
-55.05570206409033
40
0.0567
0
CIRCLE
8
H4
10
21.20833848396903
20
-56.34538656030336
40
0.0567
0
CIRCLE
8
H4
10
21.892900476773733
20
-57.6260162601626
40
0.0567
0
CIRCLE
8
H4
10
20.660238985037054
20
-56.34146341463415
40
0.0567
0
CIRCLE
8
H4
10
18.75466037103358
20
-56.34538656030337
40
0.0567
0
CIRCLE
8
H4
10
21.424020355481602
20
-57.62722476517795
40
0.0567
0
CIRCLE
8
H4
10
22.220949385064003
20
-56.33754026896494
40
0.0567
0
CIRCLE
8
H4
10
24.872474616954932
20
-55.05570206409033
40
0.0567
0
CIRCLE
8
H4
10
25.208035542977044
20
-57.61788617886179
40
0.0567
0
CIRCLE
8
H4
10
27.385007972716963
20
-55.06504065040649
40
0.0567
0
CIRCLE
8
H4
10
25.263897521622468
20
-56.34146341463416
40
0.0567
0
CIRCLE
8
H4
10
27.409557996164196
20
-56.34538656030336
40
0.0567
0
CIRCLE
8
H4
10
25.837068253329775
20
-56.34146341463416
40
0.0567
0
CIRCLE
8
H4
10
26.551948128074585
20
-55.06504065040649
40
0.0567
0
CIRCLE
8
H4
10
25.87110782140674
20
-55.05570206409033
40
0.0567
0
CIRCLE
8
H4
10
27.061997020554415
20
-56.34538656030336
40
0.0567
0
CIRCLE
8
H4
10
27.746559013359118
20
-57.6260162601626
40
0.0567
0
CIRCLE
8
H4
10
26.513897521622468
20
-56.34146341463415
40
0.0567
0
CIRCLE
8
H4
10
24.608318907618937
20
-56.34538656030337
40
0.0567
0
CIRCLE
8
H4
10
27.277678892066987
20
-57.62722476517795
40
0.0567
0
CIRCLE
8
H4
10
28.07460792164936
20
-56.33754026896494
40
0.0567
0
CIRCLE
8
H4
10
30.72613315354026
20
-55.05570206409033
40
0.0567
0
CIRCLE
8
H4
10
31.061694079562372
20
-57.61788617886179
40
0.0567
0
CIRCLE
8
H4
10
33.23866650930226
20
-55.06504065040649
40
0.0567
0
CIRCLE
8
H4
10
31.117556058207768
20
-56.34146341463416
40
0.0567
0
CIRCLE
8
H4
10
33.263216532749496
20
-56.34538656030336
40
0.0567
0
CIRCLE
8
H4
10
31.690726789915075
20
-56.34146341463416
40
0.0567
0
CIRCLE
8
H4
10
32.40560666465991
20
-55.06504065040649
40
0.0567
0
CIRCLE
8
H4
10
31.724766357992067
20
-55.05570206409033
40
0.0567
0
CIRCLE
8
H4
10
32.91565555713977
20
-56.34538656030336
40
0.0567
0
CIRCLE
8
H4
10
33.600217549944446
20
-57.6260162601626
40
0.0567
0
CIRCLE
8
H4
10
32.36755605820777
20
-56.34146341463415
40
0.0567
0
CIRCLE
8
H4
10
30.461977444204294
20
-56.34538656030337
40
0.0567
0
CIRCLE
8
H4
10
33.131337428652316
20
-57.62722476517795
40
0.0567
0
CIRCLE
8
H4
10
33.92826645823469
20
-56.33754026896494
40
0.0567
0
CIRCLE
8
H4
10
36.579791690125646
20
-55.05570206409033
40
0.0567
0
CIRCLE
8
H4
10
36.91535261614776
20
-57.61788617886179
40
0.0567
0
CIRCLE
8
H4
10
39.09232504588768
20
-55.06504065040649
40
0.0567
0
CIRCLE
8
H4
10
36.97121459479318
20
-56.34146341463416
40
0.0567
0
CIRCLE
8
H4
10
39.11687506933491
20
-56.34538656030336
40
0.0567
0
CIRCLE
8
H4
10
37.54438532650049
20
-56.34146341463416
40
0.0567
0
CIRCLE
8
H4
10
38.25926520124533
20
-55.06504065040649
40
0.0567
0
CIRCLE
8
H4
10
37.57842489457745
20
-55.05570206409033
40
0.0567
0
CIRCLE
8
H4
10
38.76931409372516
20
-56.34538656030336
40
0.0567
0
CIRCLE
8
H4
10
39.45387608652983
20
-57.6260162601626
40
0.0567
0
CIRCLE
8
H4
10
38.22121459479318
20
-56.34146341463415
40
0.0567
0
CIRCLE
8
H4
10
36.31563598078968
20
-56.34538656030337
40
0.0567
0
CIRCLE
8
H4
10
38.9849959652377
20
-57.62722476517795
40
0.0567
0
CIRCLE
8
H4
10
39.78192499482007
20
-56.33754026896494
40
0.0567
0
CIRCLE
8
H4
10
42.43345022671103
20
-55.05570206409033
40
0.0567
0
CIRCLE
8
H4
10
42.76901115273314
20
-57.61788617886179
40
0.0567
0
CIRCLE
8
H4
10
44.94598358247303
20
-55.06504065040649
40
0.0567
0
CIRCLE
8
H4
10
42.82487313137857
20
-56.34146341463416
40
0.0567
0
CIRCLE
8
H4
10
44.970533605920295
20
-56.34538656030336
40
0.0567
0
CIRCLE
8
H4
10
43.398043863085874
20
-56.34146341463416
40
0.0567
0
CIRCLE
8
H4
10
44.112923737830684
20
-55.06504065040649
40
0.0567
0
CIRCLE
8
H4
10
43.432083431162866
20
-55.05570206409033
40
0.0567
0
CIRCLE
8
H4
10
44.62297263031054
20
-56.34538656030336
40
0.0567
0
CIRCLE
8
H4
10
45.307534623115245
20
-57.6260162601626
40
0.0567
0
CIRCLE
8
H4
10
44.07487313137857
20
-56.34146341463415
40
0.0567
0
CIRCLE
8
H4
10
42.169294517375064
20
-56.34538656030337
40
0.0567
0
CIRCLE
8
H4
10
44.838654501823115
20
-57.62722476517795
40
0.0567
0
CIRCLE
8
H4
10
45.63558353140546
20
-56.33754026896494
40
0.0567
0
CIRCLE
8
H4
10
48.28710876329639
20
-55.05570206409033
40
0.0567
0
CIRCLE
8
H4
10
48.6226696893185
20
-57.61788617886179
40
0.0567
0
CIRCLE
8
H4
10
50.79964211905839
20
-55.06504065040649
40
0.0567
0
CIRCLE
8
H4
10
48.678531667963895
20
-56.34146341463416
40
0.0567
0
CIRCLE
8
H4
10
50.82419214250562
20
-56.34538656030336
40
0.0567
0
CIRCLE
8
H4
10
49.25170239967123
20
-56.34146341463416
40
0.0567
0
CIRCLE
8
H4
10
49.96658227441607
20
-55.06504065040649
40
0.0567
0
CIRCLE
8
H4
10
49.285741967748166
20
-55.05570206409033
40
0.0567
0
CIRCLE
8
H4
10
50.47663116689587
20
-56.34538656030336
40
0.0567
0
CIRCLE
8
H4
10
51.1611931597006
20
-57.6260162601626
40
0.0567
0
CIRCLE
8
H4
10
49.928531667963895
20
-56.34146341463415
40
0.0567
0
CIRCLE
8
H4
10
48.02295305396039
20
-56.34538656030337
40
0.0567
0
CIRCLE
8
H4
10
50.692313038408415
20
-57.62722476517795
40
0.0567
0
CIRCLE
8
H4
10
51.489242067990816
20
-56.33754026896494
40
0.0567
0
CIRCLE
8
H4
10
54.140767299881745
20
-55.05570206409033
40
0.0567
0
CIRCLE
8
H4
10
54.476328225903856
20
-57.61788617886179
40
0.0567
0
CIRCLE
8
H4
10
56.653300655643775
20
-55.06504065040649
40
0.0567
0
CIRCLE
8
H4
10
54.53219020454928
20
-56.34146341463416
40
0.0567
0
CIRCLE
8
H4
10
56.67785067909101
20
-56.34538656030336
40
0.0567
0
CIRCLE
8
H4
10
55.10536093625659
20
-56.34146341463416
40
0.0567
0
CIRCLE
8
H4
10
55.8202408110014
20
-55.06504065040649
40
0.0567
0
CIRCLE
8
H4
10
55.13940050433355
20
-55.05570206409033
40
0.0567
0
CIRCLE
8
H4
10
56.3302897034812
20
-56.34538656030336
40
0.0567
0
CIRCLE
8
H4
10
57.01485169628596
20
-57.6260162601626
40
0.0567
0
CIRCLE
8
H4
10
55.78219020454928
20
-56.34146341463415
40
0.0567
0
CIRCLE
8
H4
10
53.87661159054575
20
-56.34538656030337
40
0.0567
0
CIRCLE
8
H4
10
56.5459715749938
20
-57.62722476517795
40
0.0567
0
CIRCLE
8
H4
10
57.34290060457617
20
-56.33754026896494
40
0.0567
0
ENDBLK
0
ENDSEC
0
SECTION
2
ENTITIES
0
INSERT
2
LDI_XFB44-1600-011_H4_B1
8
H4
10
0
20
0.0
30
0
0
INSERT
2
LDI_XFB44-1600-011_H4_B1
8
H4
10
0
20
5.121951219512195
30
0
0
INSERT
2
LDI_XFB44-1600-011_H4_B1
8
H4
10
0
20
10.24390243902439
30
0
0
INSERT
2
LDI_XFB44-1600-011_H4_B1
8
H4
10
0
20
15.365853658536587
30
0
0
INSERT
2
LDI_XFB44-1600-011_H4_B1
8
H4
10
0
20
20.48780487804878
30
0
0
INSERT
2
LDI_XFB44-1600-011_H4_B1
8
H4
10
0
20
25.609756097560975
30
0
0
INSERT
2
LDI_XFB44-1600-011_H4_B1
8
H4
10
0
20
30.731707317073173
30
0
0
INSERT
2
LDI_XFB44-1600-011_H4_B1
8
H4
10
0
20
35.853658536585364
30
0
0
INSERT
2
LDI_XFB44-1600-011_H4_B1
8
H4
10
0
20
40.97560975609756
30
0
0
INSERT
2
LDI_XFB44-1600-011_H4_B1
8
H4
10
0
20
46.09756097560976
30
0
0
INSERT
2
LDI_XFB44-1600-011_H4_B1
8
H4
10
0
20
51.21951219512195
30
0
0
INSERT
2
LDI_XFB44-1600-011_H4_B1
8
H4
10
0
20
56.34146341463415
30
0
0
INSERT
2
LDI_XFB44-1600-011_H4_B1
8
H4
10
0
20
61.463414634146346
30
0
0
INSERT
2
LDI_XFB44-1600-011_H4_B1
8
H4
10
0
20
66.58536585365854
30
0
0
INSERT
2
LDI_XFB44-1600-011_H4_B1
8
H4
10
0
20
71.70731707317073
30
0
0
INSERT
2
LDI_XFB44-1600-011_H4_B1
8
H4
10
0
20
76.82926829268293
30
0
0
INSERT
2
LDI_XFB44-1600-011_H4_B1
8
H4
10
0
20
81.95121951219512
30
0
0
INSERT
2
LDI_XFB44-1600-011_H4_B1
8
H4
10
0
20
87.07317073170732
30
0
0
INSERT
2
LDI_XFB44-1600-011_H4_B1
8
H4
10
0
20
92.19512195121952
30
0
0
INSERT
2
LDI_XFB44-1600-011_H4_B1
8
H4
10
0
20
97.3170731707317
30
0
0
INSERT
2
LDI_XFB44-1600-011_H4_B1
8
H4
10
0
20
102.4390243902439
30
0
0
INSERT
2
LDI_XFB44-1600-011_H4_B1
8
H4
10
0
20
107.5609756097561
30
0
0
INSERT
2
LDI_XFB44-1600-011_H4_B1
8
H4
10
0
20
112.6829268292683
30
0
0
POLYLINE
8
H4
66
1
70
1
40
0.1
41
0.1
0
VERTEX
8
H4
10
-61.5
20
-61.2
42
1.0
0
VERTEX
8
H4
10
-60.900000000000006
20
-61.2
42
1.0
0
SEQEND
0
POLYLINE
8
H4
66
1
70
1
40
0.1
41
0.1
0
VERTEX
8
H4
10
-61.5
20
61.2
42
1.0
0
VERTEX
8
H4
10
-60.900000000000006
20
61.2
42
1.0
0
SEQEND
0
POLYLINE
8
H4
66
1
70
1
40
0.1
41
0.1
0
VERTEX
8
H4
10
60.90000000000002
20
-61.2
42
1.0
0
VERTEX
8
H4
10
61.499999999999986
20
-61.2
42
1.0
0
SEQEND
0
POLYLINE
8
H4
66
1
70
1
40
0.1
41
0.1
0
VERTEX
8
H4
10
60.90000000000002
20
61.2
42
1.0
0
VERTEX
8
H4
10
61.499999999999986
20
61.2
42
1.0
0
SEQEND
0
POLYLINE
8
H4
66
1
70
1
0
VERTEX
8
H4
10
-64.46966991411009
20
-64.46966991411009
40
0.08
41
0.08
0
VERTEX
8
H4
10
-65.53033008588991
20
-65.53033008588991
40
0.08
41
0.08
0
SEQEND
0
POLYLINE
8
H4
66
1
70
1
0
VERTEX
8
H4
10
-64.46966991411009
20
-65.53033008588991
40
0.08
41
0.08
0
VERTEX
8
H4
10
-65.53033008588991
20
-64.46966991411009
40
0.08
41
0.08
0
SEQEND
0
POLYLINE
8
H4
66
1
70
1
0
VERTEX
8
H4
10
-64.46966991411009
20
65.53033008588993
40
0.08
41
0.08
0
VERTEX
8
H4
10
-65.53033008588991
20
64.4696699141101
40
0.08
41
0.08
0
SEQEND
0
POLYLINE
8
H4
66
1
70
1
0
VERTEX
8
H4
10
-64.46966991411009
20
64.4696699141101
40
0.08
41
0.08
0
VERTEX
8
H4
10
-65.53033008588991
20
65.53033008588993
40
0.08
41
0.08
0
SEQEND
0
POLYLINE
8
H4
66
1
70
1
0
VERTEX
8
H4
10
65.53033008588993
20
65.53033008588993
40
0.08
41
0.08
0
VERTEX
8
H4
10
64.4696699141101
20
64.4696699141101
40
0.08
41
0.08
0
SEQEND
0
POLYLINE
8
H4
66
1
70
1
0
VERTEX
8
H4
10
65.53033008588993
20
64.4696699141101
40
0.08
41
0.08
0
VERTEX
8
H4
10
64.4696699141101
20
65.53033008588993
40
0.08
41
0.08
0
SEQEND
0
POLYLINE
8
H4
66
1
70
1
0
VERTEX
8
H4
10
65.74999999999999
20
-65.0
40
0.08
41
0.08
0
VERTEX
8
H4
10
64.24999999999999
20
-65.0
40
0.08
41
0.08
0
SEQEND
0
POLYLINE
8
H4
66
1
70
1
0
VERTEX
8
H4
10
64.99999999999999
20
-64.25
40
0.08
41
0.08
0
VERTEX
8
H4
10
64.99999999999999
20
-65.75
40
0.08
41
0.08
0
SEQEND
0
POLYLINE
8
H4
66
1
70
1
0
VERTEX
8
H4
10
-58.536585365853654
20
-61.2
40
0.08
41
0.08
0
VERTEX
8
H4
10
-58.536585365853654
20
-64.2
40
0.08
41
0.08
0
SEQEND
0
POLYLINE
8
H4
66
1
70
1
0
VERTEX
8
H4
10
-58.536585365853654
20
61.2
40
0.08
41
0.08
0
VERTEX
8
H4
10
-58.536585365853654
20
64.2
40
0.08
41
0.08
0
SEQEND
0
POLYLINE
8
H4
66
1
70
1
0
VERTEX
8
H4
10
-52.68292682926829
20
-61.2
40
0.08
41
0.08
0
VERTEX
8
H4
10
-52.68292682926829
20
-64.2
40
0.08
41
0.08
0
SEQEND
0
POLYLINE
8
H4
66
1
70
1
0
VERTEX
8
H4
10
-52.68292682926829
20
61.2
40
0.08
41
0.08
0
VERTEX
8
H4
10
-52.68292682926829
20
64.2
40
0.08
41
0.08
0
SEQEND
0
POLYLINE
8
H4
66
1
70
1
0
VERTEX
8
H4
10
-46.829268292682926
20
-61.2
40
0.08
41
0.08
0
VERTEX
8
H4
10
-46.829268292682926
20
-64.2
40
0.08
41
0.08
0
SEQEND
0
POLYLINE
8
H4
66
1
70
1
0
VERTEX
8
H4
10
-46.829268292682926
20
61.2
40
0.08
41
0.08
0
VERTEX
8
H4
10
-46.829268292682926
20
64.2
40
0.08
41
0.08
0
SEQEND
0
POLYLINE
8
H4
66
1
70
1
0
VERTEX
8
H4
10
-40.975609756097555
20
-61.2
40
0.08
41
0.08
0
VERTEX
8
H4
10
-40.975609756097555
20
-64.2
40
0.08
41
0.08
0
SEQEND
0
POLYLINE
8
H4
66
1
70
1
0
VERTEX
8
H4
10
-40.975609756097555
20
61.2
40
0.08
41
0.08
0
VERTEX
8
H4
10
-40.975609756097555
20
64.2
40
0.08
41
0.08
0
SEQEND
0
POLYLINE
8
H4
66
1
70
1
0
VERTEX
8
H4
10
-35.121951219512184
20
-61.2
40
0.08
41
0.08
0
VERTEX
8
H4
10
-35.121951219512184
20
-64.2
40
0.08
41
0.08
0
SEQEND
0
POLYLINE
8
H4
66
1
70
1
0
VERTEX
8
H4
10
-35.121951219512184
20
61.2
40
0.08
41
0.08
0
VERTEX
8
H4
10
-35.121951219512184
20
64.2
40
0.08
41
0.08
0
SEQEND
0
POLYLINE
8
H4
66
1
70
1
0
VERTEX
8
H4
10
-29.268292682926827
20
-61.2
40
0.08
41
0.08
0
VERTEX
8
H4
10
-29.268292682926827
20
-64.2
40
0.08
41
0.08
0
SEQEND
0
POLYLINE
8
H4
66
1
70
1
0
VERTEX
8
H4
10
-29.268292682926827
20
61.2
40
0.08
41
0.08
0
VERTEX
8
H4
10
-29.268292682926827
20
64.2
40
0.08
41
0.08
0
SEQEND
0
POLYLINE
8
H4
66
1
70
1
0
VERTEX
8
H4
10
-23.414634146341456
20
-61.2
40
0.08
41
0.08
0
VERTEX
8
H4
10
-23.414634146341456
20
-64.2
40
0.08
41
0.08
0
SEQEND
0
POLYLINE
8
H4
66
1
70
1
0
VERTEX
8
H4
10
-23.414634146341456
20
61.2
40
0.08
41
0.08
0
VERTEX
8
H4
10
-23.414634146341456
20
64.2
40
0.08
41
0.08
0
SEQEND
0
POLYLINE
8
H4
66
1
70
1
0
VERTEX
8
H4
10
-17.560975609756085
20
-61.2
40
0.08
41
0.08
0
VERTEX
8
H4
10
-17.560975609756085
20
-64.2
40
0.08
41
0.08
0
SEQEND
0
POLYLINE
8
H4
66
1
70
1
0
VERTEX
8
H4
10
-17.560975609756085
20
61.2
40
0.08
41
0.08
0
VERTEX
8
H4
10
-17.560975609756085
20
64.2
40
0.08
41
0.08
0
SEQEND
0
POLYLINE
8
H4
66
1
70
1
0
VERTEX
8
H4
10
-11.707317073170728
20
-61.2
40
0.08
41
0.08
0
VERTEX
8
H4
10
-11.707317073170728
20
-64.2
40
0.08
41
0.08
0
SEQEND
0
POLYLINE
8
H4
66
1
70
1
0
VERTEX
8
H4
10
-11.707317073170728
20
61.2
40
0.08
41
0.08
0
VERTEX
8
H4
10
-11.707317073170728
20
64.2
40
0.08
41
0.08
0
SEQEND
0
POLYLINE
8
H4
66
1
70
1
0
VERTEX
8
H4
10
-5.853658536585371
20
-61.2
40
0.08
41
0.08
0
VERTEX
8
H4
10
-5.853658536585371
20
-64.2
40
0.08
41
0.08
0
SEQEND
0
POLYLINE
8
H4
66
1
70
1
0
VERTEX
8
H4
10
-5.853658536585371
20
61.2
40
0.08
41
0.08
0
VERTEX
8
H4
10
-5.853658536585371
20
64.2
40
0.08
41
0.08
0
SEQEND
0
POLYLINE
8
H4
66
1
70
1
0
VERTEX
8
H4
10
0.0
20
-61.2
40
0.08
41
0.08
0
VERTEX
8
H4
10
0.0
20
-64.2
40
0.08
41
0.08
0
SEQEND
0
POLYLINE
8
H4
66
1
70
1
0
VERTEX
8
H4
10
0.0
20
61.2
40
0.08
41
0.08
0
VERTEX
8
H4
10
0.0
20
64.2
40
0.08
41
0.08
0
SEQEND
0
POLYLINE
8
H4
66
1
70
1
0
VERTEX
8
H4
10
5.853658536585371
20
-61.2
40
0.08
41
0.08
0
VERTEX
8
H4
10
5.853658536585371
20
-64.2
40
0.08
41
0.08
0
SEQEND
0
POLYLINE
8
H4
66
1
70
1
0
VERTEX
8
H4
10
5.853658536585371
20
61.2
40
0.08
41
0.08
0
VERTEX
8
H4
10
5.853658536585371
20
64.2
40
0.08
41
0.08
0
SEQEND
0
POLYLINE
8
H4
66
1
70
1
0
VERTEX
8
H4
10
11.707317073170742
20
-61.2
40
0.08
41
0.08
0
VERTEX
8
H4
10
11.707317073170742
20
-64.2
40
0.08
41
0.08
0
SEQEND
0
POLYLINE
8
H4
66
1
70
1
0
VERTEX
8
H4
10
11.707317073170742
20
61.2
40
0.08
41
0.08
0
VERTEX
8
H4
10
11.707317073170742
20
64.2
40
0.08
41
0.08
0
SEQEND
0
POLYLINE
8
H4
66
1
70
1
0
VERTEX
8
H4
10
17.560975609756085
20
-61.2
40
0.08
41
0.08
0
VERTEX
8
H4
10
17.560975609756085
20
-64.2
40
0.08
41
0.08
0
SEQEND
0
POLYLINE
8
H4
66
1
70
1
0
VERTEX
8
H4
10
17.560975609756085
20
61.2
40
0.08
41
0.08
0
VERTEX
8
H4
10
17.560975609756085
20
64.2
40
0.08
41
0.08
0
SEQEND
0
POLYLINE
8
H4
66
1
70
1
0
VERTEX
8
H4
10
23.41463414634147
20
-61.2
40
0.08
41
0.08
0
VERTEX
8
H4
10
23.41463414634147
20
-64.2
40
0.08
41
0.08
0
SEQEND
0
POLYLINE
8
H4
66
1
70
1
0
VERTEX
8
H4
10
23.41463414634147
20
61.2
40
0.08
41
0.08
0
VERTEX
8
H4
10
23.41463414634147
20
64.2
40
0.08
41
0.08
0
SEQEND
0
POLYLINE
8
H4
66
1
70
1
0
VERTEX
8
H4
10
29.268292682926827
20
-61.2
40
0.08
41
0.08
0
VERTEX
8
H4
10
29.268292682926827
20
-64.2
40
0.08
41
0.08
0
SEQEND
0
POLYLINE
8
H4
66
1
70
1
0
VERTEX
8
H4
10
29.268292682926827
20
61.2
40
0.08
41
0.08
0
VERTEX
8
H4
10
29.268292682926827
20
64.2
40
0.08
41
0.08
0
SEQEND
0
POLYLINE
8
H4
66
1
70
1
0
VERTEX
8
H4
10
35.121951219512184
20
-61.2
40
0.08
41
0.08
0
VERTEX
8
H4
10
35.121951219512184
20
-64.2
40
0.08
41
0.08
0
SEQEND
0
POLYLINE
8
H4
66
1
70
1
0
VERTEX
8
H4
10
35.121951219512184
20
61.2
40
0.08
41
0.08
0
VERTEX
8
H4
10
35.121951219512184
20
64.2
40
0.08
41
0.08
0
SEQEND
0
POLYLINE
8
H4
66
1
70
1
0
VERTEX
8
H4
10
40.97560975609757
20
-61.2
40
0.08
41
0.08
0
VERTEX
8
H4
10
40.97560975609757
20
-64.2
40
0.08
41
0.08
0
SEQEND
0
POLYLINE
8
H4
66
1
70
1
0
VERTEX
8
H4
10
40.97560975609757
20
61.2
40
0.08
41
0.08
0
VERTEX
8
H4
10
40.97560975609757
20
64.2
40
0.08
41
0.08
0
SEQEND
0
POLYLINE
8
H4
66
1
70
1
0
VERTEX
8
H4
10
46.829268292682926
20
-61.2
40
0.08
41
0.08
0
VERTEX
8
H4
10
46.829268292682926
20
-64.2
40
0.08
41
0.08
0
SEQEND
0
POLYLINE
8
H4
66
1
70
1
0
VERTEX
8
H4
10
46.829268292682926
20
61.2
40
0.08
41
0.08
0
VERTEX
8
H4
10
46.829268292682926
20
64.2
40
0.08
41
0.08
0
SEQEND
0
POLYLINE
8
H4
66
1
70
1
0
VERTEX
8
H4
10
52.68292682926828
20
-61.2
40
0.08
41
0.08
0
VERTEX
8
H4
10
52.68292682926828
20
-64.2
40
0.08
41
0.08
0
SEQEND
0
POLYLINE
8
H4
66
1
70
1
0
VERTEX
8
H4
10
52.68292682926828
20
61.2
40
0.08
41
0.08
0
VERTEX
8
H4
10
52.68292682926828
20
64.2
40
0.08
41
0.08
0
SEQEND
0
POLYLINE
8
H4
66
1
70
1
0
VERTEX
8
H4
10
58.53658536585367
20
-61.2
40
0.08
41
0.08
0
VERTEX
8
H4
10
58.53658536585367
20
-64.2
40
0.08
41
0.08
0
SEQEND
0
POLYLINE
8
H4
66
1
70
1
0
VERTEX
8
H4
10
58.53658536585367
20
61.2
40
0.08
41
0.08
0
VERTEX
8
H4
10
58.53658536585367
20
64.2
40
0.08
41
0.08
0
SEQEND
0
POLYLINE
8
H4
66
1
70
1
0
VERTEX
8
H4
10
-61.2
20
-58.90243902439025
40
0.08
41
0.08
0
VERTEX
8
H4
10
-64.2
20
-58.90243902439025
40
0.08
41
0.08
0
SEQEND
0
POLYLINE
8
H4
66
1
70
1
0
VERTEX
8
H4
10
61.2
20
-58.90243902439025
40
0.08
41
0.08
0
VERTEX
8
H4
10
64.2
20
-58.90243902439025
40
0.08
41
0.08
0
SEQEND
0
POLYLINE
8
H4
66
1
70
1
0
VERTEX
8
H4
10
-61.2
20
-53.78048780487805
40
0.08
41
0.08
0
VERTEX
8
H4
10
-64.2
20
-53.78048780487805
40
0.08
41
0.08
0
SEQEND
0
POLYLINE
8
H4
66
1
70
1
0
VERTEX
8
H4
10
61.2
20
-53.78048780487805
40
0.08
41
0.08
0
VERTEX
8
H4
10
64.2
20
-53.78048780487805
40
0.08
41
0.08
0
SEQEND
0
POLYLINE
8
H4
66
1
70
1
0
VERTEX
8
H4
10
-61.2
20
-48.65853658536586
40
0.08
41
0.08
0
VERTEX
8
H4
10
-64.2
20
-48.65853658536586
40
0.08
41
0.08
0
SEQEND
0
POLYLINE
8
H4
66
1
70
1
0
VERTEX
8
H4
10
61.2
20
-48.65853658536586
40
0.08
41
0.08
0
VERTEX
8
H4
10
64.2
20
-48.65853658536586
40
0.08
41
0.08
0
SEQEND
0
POLYLINE
8
H4
66
1
70
1
0
VERTEX
8
H4
10
-61.2
20
-43.53658536585367
40
0.08
41
0.08
0
VERTEX
8
H4
10
-64.2
20
-43.53658536585367
40
0.08
41
0.08
0
SEQEND
0
POLYLINE
8
H4
66
1
70
1
0
VERTEX
8
H4
10
61.2
20
-43.53658536585367
40
0.08
41
0.08
0
VERTEX
8
H4
10
64.2
20
-43.53658536585367
40
0.08
41
0.08
0
SEQEND
0
POLYLINE
8
H4
66
1
70
1
0
VERTEX
8
H4
10
-61.2
20
-38.41463414634147
40
0.08
41
0.08
0
VERTEX
8
H4
10
-64.2
20
-38.41463414634147
40
0.08
41
0.08
0
SEQEND
0
POLYLINE
8
H4
66
1
70
1
0
VERTEX
8
H4
10
61.2
20
-38.41463414634147
40
0.08
41
0.08
0
VERTEX
8
H4
10
64.2
20
-38.41463414634147
40
0.08
41
0.08
0
SEQEND
0
POLYLINE
8
H4
66
1
70
1
0
VERTEX
8
H4
10
-61.2
20
-33.29268292682927
40
0.08
41
0.08
0
VERTEX
8
H4
10
-64.2
20
-33.29268292682927
40
0.08
41
0.08
0
SEQEND
0
POLYLINE
8
H4
66
1
70
1
0
VERTEX
8
H4
10
61.2
20
-33.29268292682927
40
0.08
41
0.08
0
VERTEX
8
H4
10
64.2
20
-33.29268292682927
40
0.08
41
0.08
0
SEQEND
0
POLYLINE
8
H4
66
1
70
1
0
VERTEX
8
H4
10
-61.2
20
-28.170731707317074
40
0.08
41
0.08
0
VERTEX
8
H4
10
-64.2
20
-28.170731707317074
40
0.08
41
0.08
0
SEQEND
0
POLYLINE
8
H4
66
1
70
1
0
VERTEX
8
H4
10
61.2
20
-28.170731707317074
40
0.08
41
0.08
0
VERTEX
8
H4
10
64.2
20
-28.170731707317074
40
0.08
41
0.08
0
SEQEND
0
POLYLINE
8
H4
66
1
70
1
0
VERTEX
8
H4
10
-61.2
20
-23.048780487804876
40
0.08
41
0.08
0
VERTEX
8
H4
10
-64.2
20
-23.048780487804876
40
0.08
41
0.08
0
SEQEND
0
POLYLINE
8
H4
66
1
70
1
0
VERTEX
8
H4
10
61.2
20
-23.048780487804876
40
0.08
41
0.08
0
VERTEX
8
H4
10
64.2
20
-23.048780487804876
40
0.08
41
0.08
0
SEQEND
0
POLYLINE
8
H4
66
1
70
1
0
VERTEX
8
H4
10
-61.2
20
-17.92682926829268
40
0.08
41
0.08
0
VERTEX
8
H4
10
-64.2
20
-17.92682926829268
40
0.08
41
0.08
0
SEQEND
0
POLYLINE
8
H4
66
1
70
1
0
VERTEX
8
H4
10
61.2
20
-17.92682926829268
40
0.08
41
0.08
0
VERTEX
8
H4
10
64.2
20
-17.92682926829268
40
0.08
41
0.08
0
SEQEND
0
POLYLINE
8
H4
66
1
70
1
0
VERTEX
8
H4
10
-61.2
20
-12.80487804878048
40
0.08
41
0.08
0
VERTEX
8
H4
10
-64.2
20
-12.80487804878048
40
0.08
41
0.08
0
SEQEND
0
POLYLINE
8
H4
66
1
70
1
0
VERTEX
8
H4
10
61.2
20
-12.80487804878048
40
0.08
41
0.08
0
VERTEX
8
H4
10
64.2
20
-12.80487804878048
40
0.08
41
0.08
0
SEQEND
0
POLYLINE
8
H4
66
1
70
1
0
VERTEX
8
H4
10
-61.2
20
-7.682926829268297
40
0.08
41
0.08
0
VERTEX
8
H4
10
-64.2
20
-7.682926829268297
40
0.08
41
0.08
0
SEQEND
0
POLYLINE
8
H4
66
1
70
1
0
VERTEX
8
H4
10
61.2
20
-7.682926829268297
40
0.08
41
0.08
0
VERTEX
8
H4
10
64.2
20
-7.682926829268297
40
0.08
41
0.08
0
SEQEND
0
POLYLINE
8
H4
66
1
70
1
0
VERTEX
8
H4
10
-61.2
20
-2.560975609756099
40
0.08
41
0.08
0
VERTEX
8
H4
10
-64.2
20
-2.560975609756099
40
0.08
41
0.08
0
SEQEND
0
POLYLINE
8
H4
66
1
70
1
0
VERTEX
8
H4
10
61.2
20
-2.560975609756099
40
0.08
41
0.08
0
VERTEX
8
H4
10
64.2
20
-2.560975609756099
40
0.08
41
0.08
0
SEQEND
0
POLYLINE
8
H4
66
1
70
1
0
VERTEX
8
H4
10
-61.2
20
2.560975609756099
40
0.08
41
0.08
0
VERTEX
8
H4
10
-64.2
20
2.560975609756099
40
0.08
41
0.08
0
SEQEND
0
POLYLINE
8
H4
66
1
70
1
0
VERTEX
8
H4
10
61.2
20
2.560975609756099
40
0.08
41
0.08
0
VERTEX
8
H4
10
64.2
20
2.560975609756099
40
0.08
41
0.08
0
SEQEND
0
POLYLINE
8
H4
66
1
70
1
0
VERTEX
8
H4
10
-61.2
20
7.682926829268297
40
0.08
41
0.08
0
VERTEX
8
H4
10
-64.2
20
7.682926829268297
40
0.08
41
0.08
0
SEQEND
0
POLYLINE
8
H4
66
1
70
1
0
VERTEX
8
H4
10
61.2
20
7.682926829268297
40
0.08
41
0.08
0
VERTEX
8
H4
10
64.2
20
7.682926829268297
40
0.08
41
0.08
0
SEQEND
0
POLYLINE
8
H4
66
1
70
1
0
VERTEX
8
H4
10
-61.2
20
12.80487804878048
40
0.08
41
0.08
0
VERTEX
8
H4
10
-64.2
20
12.80487804878048
40
0.08
41
0.08
0
SEQEND
0
POLYLINE
8
H4
66
1
70
1
0
VERTEX
8
H4
10
61.2
20
12.80487804878048
40
0.08
41
0.08
0
VERTEX
8
H4
10
64.2
20
12.80487804878048
40
0.08
41
0.08
0
SEQEND
0
POLYLINE
8
H4
66
1
70
1
0
VERTEX
8
H4
10
-61.2
20
17.92682926829268
40
0.08
41
0.08
0
VERTEX
8
H4
10
-64.2
20
17.92682926829268
40
0.08
41
0.08
0
SEQEND
0
POLYLINE
8
H4
66
1
70
1
0
VERTEX
8
H4
10
61.2
20
17.92682926829268
40
0.08
41
0.08
0
VERTEX
8
H4
10
64.2
20
17.92682926829268
40
0.08
41
0.08
0
SEQEND
0
POLYLINE
8
H4
66
1
70
1
0
VERTEX
8
H4
10
-61.2
20
23.048780487804876
40
0.08
41
0.08
0
VERTEX
8
H4
10
-64.2
20
23.048780487804876
40
0.08
41
0.08
0
SEQEND
0
POLYLINE
8
H4
66
1
70
1
0
VERTEX
8
H4
10
61.2
20
23.048780487804876
40
0.08
41
0.08
0
VERTEX
8
H4
10
64.2
20
23.048780487804876
40
0.08
41
0.08
0
SEQEND
0
POLYLINE
8
H4
66
1
70
1
0
VERTEX
8
H4
10
-61.2
20
28.170731707317074
40
0.08
41
0.08
0
VERTEX
8
H4
10
-64.2
20
28.170731707317074
40
0.08
41
0.08
0
SEQEND
0
POLYLINE
8
H4
66
1
70
1
0
VERTEX
8
H4
10
61.2
20
28.170731707317074
40
0.08
41
0.08
0
VERTEX
8
H4
10
64.2
20
28.170731707317074
40
0.08
41
0.08
0
SEQEND
0
POLYLINE
8
H4
66
1
70
1
0
VERTEX
8
H4
10
-61.2
20
33.29268292682927
40
0.08
41
0.08
0
VERTEX
8
H4
10
-64.2
20
33.29268292682927
40
0.08
41
0.08
0
SEQEND
0
POLYLINE
8
H4
66
1
70
1
0
VERTEX
8
H4
10
61.2
20
33.29268292682927
40
0.08
41
0.08
0
VERTEX
8
H4
10
64.2
20
33.29268292682927
40
0.08
41
0.08
0
SEQEND
0
POLYLINE
8
H4
66
1
70
1
0
VERTEX
8
H4
10
-61.2
20
38.41463414634147
40
0.08
41
0.08
0
VERTEX
8
H4
10
-64.2
20
38.41463414634147
40
0.08
41
0.08
0
SEQEND
0
POLYLINE
8
H4
66
1
70
1
0
VERTEX
8
H4
10
61.2
20
38.41463414634147
40
0.08
41
0.08
0
VERTEX
8
H4
10
64.2
20
38.41463414634147
40
0.08
41
0.08
0
SEQEND
0
POLYLINE
8
H4
66
1
70
1
0
VERTEX
8
H4
10
-61.2
20
43.53658536585367
40
0.08
41
0.08
0
VERTEX
8
H4
10
-64.2
20
43.53658536585367
40
0.08
41
0.08
0
SEQEND
0
POLYLINE
8
H4
66
1
70
1
0
VERTEX
8
H4
10
61.2
20
43.53658536585367
40
0.08
41
0.08
0
VERTEX
8
H4
10
64.2
20
43.53658536585367
40
0.08
41
0.08
0
SEQEND
0
POLYLINE
8
H4
66
1
70
1
0
VERTEX
8
H4
10
-61.2
20
48.658536585365866
40
0.08
41
0.08
0
VERTEX
8
H4
10
-64.2
20
48.658536585365866
40
0.08
41
0.08
0
SEQEND
0
POLYLINE
8
H4
66
1
70
1
0
VERTEX
8
H4
10
61.2
20
48.658536585365866
40
0.08
41
0.08
0
VERTEX
8
H4
10
64.2
20
48.658536585365866
40
0.08
41
0.08
0
SEQEND
0
POLYLINE
8
H4
66
1
70
1
0
VERTEX
8
H4
10
-61.2
20
53.780487804878064
40
0.08
41
0.08
0
VERTEX
8
H4
10
-64.2
20
53.780487804878064
40
0.08
41
0.08
0
SEQEND
0
POLYLINE
8
H4
66
1
70
1
0
VERTEX
8
H4
10
61.2
20
53.780487804878064
40
0.08
41
0.08
0
VERTEX
8
H4
10
64.2
20
53.780487804878064
40
0.08
41
0.08
0
SEQEND
0
POLYLINE
8
H4
66
1
70
1
0
VERTEX
8
H4
10
-61.2
20
58.90243902439026
40
0.08
41
0.08
0
VERTEX
8
H4
10
-64.2
20
58.90243902439026
40
0.08
41
0.08
0
SEQEND
0
POLYLINE
8
H4
66
1
70
1
0
VERTEX
8
H4
10
61.2
20
58.90243902439026
40
0.08
41
0.08
0
VERTEX
8
H4
10
64.2
20
58.90243902439026
40
0.08
41
0.08
0
SEQEND
0
INSERT
2
cutlineendpoint
8
H4
10
-64.46966991411009
20
-64.46966991411009
0
INSERT
2
cutlineendpoint
8
H4
10
-65.53033008588991
20
-65.53033008588991
0
INSERT
2
cutlineendpoint
8
H4
10
-64.46966991411009
20
-65.53033008588991
0
INSERT
2
cutlineendpoint
8
H4
10
-65.53033008588991
20
-64.46966991411009
0
INSERT
2
cutlineendpoint
8
H4
10
-64.46966991411009
20
65.53033008588993
0
INSERT
2
cutlineendpoint
8
H4
10
-65.53033008588991
20
64.4696699141101
0
INSERT
2
cutlineendpoint
8
H4
10
-64.46966991411009
20
64.4696699141101
0
INSERT
2
cutlineendpoint
8
H4
10
-65.53033008588991
20
65.53033008588993
0
INSERT
2
cutlineendpoint
8
H4
10
65.53033008588993
20
65.53033008588993
0
INSERT
2
cutlineendpoint
8
H4
10
64.4696699141101
20
64.4696699141101
0
INSERT
2
cutlineendpoint
8
H4
10
65.53033008588993
20
64.4696699141101
0
INSERT
2
cutlineendpoint
8
H4
10
64.4696699141101
20
65.53033008588993
0
INSERT
2
cutlineendpoint
8
H4
10
65.74999999999999
20
-65.0
0
INSERT
2
cutlineendpoint
8
H4
10
64.24999999999999
20
-65.0
0
INSERT
2
cutlineendpoint
8
H4
10
64.99999999999999
20
-64.25
0
INSERT
2
cutlineendpoint
8
H4
10
64.99999999999999
20
-65.75
0
INSERT
2
cutlineendpoint
8
H4
10
-58.536585365853654
20
-61.2
0
INSERT
2
cutlineendpoint
8
H4
10
-58.536585365853654
20
61.2
0
INSERT
2
cutlineendpoint
8
H4
10
-58.536585365853654
20
-64.2
0
INSERT
2
cutlineendpoint
8
H4
10
-58.536585365853654
20
64.2
0
INSERT
2
cutlineendpoint
8
H4
10
-52.68292682926829
20
-61.2
0
INSERT
2
cutlineendpoint
8
H4
10
-52.68292682926829
20
61.2
0
INSERT
2
cutlineendpoint
8
H4
10
-52.68292682926829
20
-64.2
0
INSERT
2
cutlineendpoint
8
H4
10
-52.68292682926829
20
64.2
0
INSERT
2
cutlineendpoint
8
H4
10
-46.829268292682926
20
-61.2
0
INSERT
2
cutlineendpoint
8
H4
10
-46.829268292682926
20
61.2
0
INSERT
2
cutlineendpoint
8
H4
10
-46.829268292682926
20
-64.2
0
INSERT
2
cutlineendpoint
8
H4
10
-46.829268292682926
20
64.2
0
INSERT
2
cutlineendpoint
8
H4
10
-40.975609756097555
20
-61.2
0
INSERT
2
cutlineendpoint
8
H4
10
-40.975609756097555
20
61.2
0
INSERT
2
cutlineendpoint
8
H4
10
-40.975609756097555
20
-64.2
0
INSERT
2
cutlineendpoint
8
H4
10
-40.975609756097555
20
64.2
0
INSERT
2
cutlineendpoint
8
H4
10
-35.121951219512184
20
-61.2
0
INSERT
2
cutlineendpoint
8
H4
10
-35.121951219512184
20
61.2
0
INSERT
2
cutlineendpoint
8
H4
10
-35.121951219512184
20
-64.2
0
INSERT
2
cutlineendpoint
8
H4
10
-35.121951219512184
20
64.2
0
INSERT
2
cutlineendpoint
8
H4
10
-29.268292682926827
20
-61.2
0
INSERT
2
cutlineendpoint
8
H4
10
-29.268292682926827
20
61.2
0
INSERT
2
cutlineendpoint
8
H4
10
-29.268292682926827
20
-64.2
0
INSERT
2
cutlineendpoint
8
H4
10
-29.268292682926827
20
64.2
0
INSERT
2
cutlineendpoint
8
H4
10
-23.414634146341456
20
-61.2
0
INSERT
2
cutlineendpoint
8
H4
10
-23.414634146341456
20
61.2
0
INSERT
2
cutlineendpoint
8
H4
10
-23.414634146341456
20
-64.2
0
INSERT
2
cutlineendpoint
8
H4
10
-23.414634146341456
20
64.2
0
INSERT
2
cutlineendpoint
8
H4
10
-17.560975609756085
20
-61.2
0
INSERT
2
cutlineendpoint
8
H4
10
-17.560975609756085
20
61.2
0
INSERT
2
cutlineendpoint
8
H4
10
-17.560975609756085
20
-64.2
0
INSERT
2
cutlineendpoint
8
H4
10
-17.560975609756085
20
64.2
0
INSERT
2
cutlineendpoint
8
H4
10
-11.707317073170728
20
-61.2
0
INSERT
2
cutlineendpoint
8
H4
10
-11.707317073170728
20
61.2
0
INSERT
2
cutlineendpoint
8
H4
10
-11.707317073170728
20
-64.2
0
INSERT
2
cutlineendpoint
8
H4
10
-11.707317073170728
20
64.2
0
INSERT
2
cutlineendpoint
8
H4
10
-5.853658536585371
20
-61.2
0
INSERT
2
cutlineendpoint
8
H4
10
-5.853658536585371
20
61.2
0
INSERT
2
cutlineendpoint
8
H4
10
-5.853658536585371
20
-64.2
0
INSERT
2
cutlineendpoint
8
H4
10
-5.853658536585371
20
64.2
0
INSERT
2
cutlineendpoint
8
H4
10
0.0
20
-61.2
0
INSERT
2
cutlineendpoint
8
H4
10
0.0
20
61.2
0
INSERT
2
cutlineendpoint
8
H4
10
0.0
20
-64.2
0
INSERT
2
cutlineendpoint
8
H4
10
0.0
20
64.2
0
INSERT
2
cutlineendpoint
8
H4
10
5.853658536585371
20
-61.2
0
INSERT
2
cutlineendpoint
8
H4
10
5.853658536585371
20
61.2
0
INSERT
2
cutlineendpoint
8
H4
10
5.853658536585371
20
-64.2
0
INSERT
2
cutlineendpoint
8
H4
10
5.853658536585371
20
64.2
0
INSERT
2
cutlineendpoint
8
H4
10
11.707317073170742
20
-61.2
0
INSERT
2
cutlineendpoint
8
H4
10
11.707317073170742
20
61.2
0
INSERT
2
cutlineendpoint
8
H4
10
11.707317073170742
20
-64.2
0
INSERT
2
cutlineendpoint
8
H4
10
11.707317073170742
20
64.2
0
INSERT
2
cutlineendpoint
8
H4
10
17.560975609756085
20
-61.2
0
INSERT
2
cutlineendpoint
8
H4
10
17.560975609756085
20
61.2
0
INSERT
2
cutlineendpoint
8
H4
10
17.560975609756085
20
-64.2
0
INSERT
2
cutlineendpoint
8
H4
10
17.560975609756085
20
64.2
0
INSERT
2
cutlineendpoint
8
H4
10
23.41463414634147
20
-61.2
0
INSERT
2
cutlineendpoint
8
H4
10
23.41463414634147
20
61.2
0
INSERT
2
cutlineendpoint
8
H4
10
23.41463414634147
20
-64.2
0
INSERT
2
cutlineendpoint
8
H4
10
23.41463414634147
20
64.2
0
INSERT
2
cutlineendpoint
8
H4
10
29.268292682926827
20
-61.2
0
INSERT
2
cutlineendpoint
8
H4
10
29.268292682926827
20
61.2
0
INSERT
2
cutlineendpoint
8
H4
10
29.268292682926827
20
-64.2
0
INSERT
2
cutlineendpoint
8
H4
10
29.268292682926827
20
64.2
0
INSERT
2
cutlineendpoint
8
H4
10
35.121951219512184
20
-61.2
0
INSERT
2
cutlineendpoint
8
H4
10
35.121951219512184
20
61.2
0
INSERT
2
cutlineendpoint
8
H4
10
35.121951219512184
20
-64.2
0
INSERT
2
cutlineendpoint
8
H4
10
35.121951219512184
20
64.2
0
INSERT
2
cutlineendpoint
8
H4
10
40.97560975609757
20
-61.2
0
INSERT
2
cutlineendpoint
8
H4
10
40.97560975609757
20
61.2
0
INSERT
2
cutlineendpoint
8
H4
10
40.97560975609757
20
-64.2
0
INSERT
2
cutlineendpoint
8
H4
10
40.97560975609757
20
64.2
0
INSERT
2
cutlineendpoint
8
H4
10
46.829268292682926
20
-61.2
0
INSERT
2
cutlineendpoint
8
H4
10
46.829268292682926
20
61.2
0
INSERT
2
cutlineendpoint
8
H4
10
46.829268292682926
20
-64.2
0
INSERT
2
cutlineendpoint
8
H4
10
46.829268292682926
20
64.2
0
INSERT
2
cutlineendpoint
8
H4
10
52.68292682926828
20
-61.2
0
INSERT
2
cutlineendpoint
8
H4
10
52.68292682926828
20
61.2
0
INSERT
2
cutlineendpoint
8
H4
10
52.68292682926828
20
-64.2
0
INSERT
2
cutlineendpoint
8
H4
10
52.68292682926828
20
64.2
0
INSERT
2
cutlineendpoint
8
H4
10
58.53658536585367
20
-61.2
0
INSERT
2
cutlineendpoint
8
H4
10
58.53658536585367
20
61.2
0
INSERT
2
cutlineendpoint
8
H4
10
58.53658536585367
20
-64.2
0
INSERT
2
cutlineendpoint
8
H4
10
58.53658536585367
20
64.2
0
INSERT
2
cutlineendpoint
8
H4
10
-61.2
20
-58.90243902439025
0
INSERT
2
cutlineendpoint
8
H4
10
61.2
20
-58.90243902439025
0
INSERT
2
cutlineendpoint
8
H4
10
-64.2
20
-58.90243902439025
0
INSERT
2
cutlineendpoint
8
H4
10
64.2
20
-58.90243902439025
0
INSERT
2
cutlineendpoint
8
H4
10
-61.2
20
-53.78048780487805
0
INSERT
2
cutlineendpoint
8
H4
10
61.2
20
-53.78048780487805
0
INSERT
2
cutlineendpoint
8
H4
10
-64.2
20
-53.78048780487805
0
INSERT
2
cutlineendpoint
8
H4
10
64.2
20
-53.78048780487805
0
INSERT
2
cutlineendpoint
8
H4
10
-61.2
20
-48.65853658536586
0
INSERT
2
cutlineendpoint
8
H4
10
61.2
20
-48.65853658536586
0
INSERT
2
cutlineendpoint
8
H4
10
-64.2
20
-48.65853658536586
0
INSERT
2
cutlineendpoint
8
H4
10
64.2
20
-48.65853658536586
0
INSERT
2
cutlineendpoint
8
H4
10
-61.2
20
-43.53658536585367
0
INSERT
2
cutlineendpoint
8
H4
10
61.2
20
-43.53658536585367
0
INSERT
2
cutlineendpoint
8
H4
10
-64.2
20
-43.53658536585367
0
INSERT
2
cutlineendpoint
8
H4
10
64.2
20
-43.53658536585367
0
INSERT
2
cutlineendpoint
8
H4
10
-61.2
20
-38.41463414634147
0
INSERT
2
cutlineendpoint
8
H4
10
61.2
20
-38.41463414634147
0
INSERT
2
cutlineendpoint
8
H4
10
-64.2
20
-38.41463414634147
0
INSERT
2
cutlineendpoint
8
H4
10
64.2
20
-38.41463414634147
0
INSERT
2
cutlineendpoint
8
H4
10
-61.2
20
-33.29268292682927
0
INSERT
2
cutlineendpoint
8
H4
10
61.2
20
-33.29268292682927
0
INSERT
2
cutlineendpoint
8
H4
10
-64.2
20
-33.29268292682927
0
INSERT
2
cutlineendpoint
8
H4
10
64.2
20
-33.29268292682927
0
INSERT
2
cutlineendpoint
8
H4
10
-61.2
20
-28.170731707317074
0
INSERT
2
cutlineendpoint
8
H4
10
61.2
20
-28.170731707317074
0
INSERT
2
cutlineendpoint
8
H4
10
-64.2
20
-28.170731707317074
0
INSERT
2
cutlineendpoint
8
H4
10
64.2
20
-28.170731707317074
0
INSERT
2
cutlineendpoint
8
H4
10
-61.2
20
-23.048780487804876
0
INSERT
2
cutlineendpoint
8
H4
10
61.2
20
-23.048780487804876
0
INSERT
2
cutlineendpoint
8
H4
10
-64.2
20
-23.048780487804876
0
INSERT
2
cutlineendpoint
8
H4
10
64.2
20
-23.048780487804876
0
INSERT
2
cutlineendpoint
8
H4
10
-61.2
20
-17.92682926829268
0
INSERT
2
cutlineendpoint
8
H4
10
61.2
20
-17.92682926829268
0
INSERT
2
cutlineendpoint
8
H4
10
-64.2
20
-17.92682926829268
0
INSERT
2
cutlineendpoint
8
H4
10
64.2
20
-17.92682926829268
0
INSERT
2
cutlineendpoint
8
H4
10
-61.2
20
-12.80487804878048
0
INSERT
2
cutlineendpoint
8
H4
10
61.2
20
-12.80487804878048
0
INSERT
2
cutlineendpoint
8
H4
10
-64.2
20
-12.80487804878048
0
INSERT
2
cutlineendpoint
8
H4
10
64.2
20
-12.80487804878048
0
INSERT
2
cutlineendpoint
8
H4
10
-61.2
20
-7.682926829268297
0
INSERT
2
cutlineendpoint
8
H4
10
61.2
20
-7.682926829268297
0
INSERT
2
cutlineendpoint
8
H4
10
-64.2
20
-7.682926829268297
0
INSERT
2
cutlineendpoint
8
H4
10
64.2
20
-7.682926829268297
0
INSERT
2
cutlineendpoint
8
H4
10
-61.2
20
-2.560975609756099
0
INSERT
2
cutlineendpoint
8
H4
10
61.2
20
-2.560975609756099
0
INSERT
2
cutlineendpoint
8
H4
10
-64.2
20
-2.560975609756099
0
INSERT
2
cutlineendpoint
8
H4
10
64.2
20
-2.560975609756099
0
INSERT
2
cutlineendpoint
8
H4
10
-61.2
20
2.560975609756099
0
INSERT
2
cutlineendpoint
8
H4
10
61.2
20
2.560975609756099
0
INSERT
2
cutlineendpoint
8
H4
10
-64.2
20
2.560975609756099
0
INSERT
2
cutlineendpoint
8
H4
10
64.2
20
2.560975609756099
0
INSERT
2
cutlineendpoint
8
H4
10
-61.2
20
7.682926829268297
0
INSERT
2
cutlineendpoint
8
H4
10
61.2
20
7.682926829268297
0
INSERT
2
cutlineendpoint
8
H4
10
-64.2
20
7.682926829268297
0
INSERT
2
cutlineendpoint
8
H4
10
64.2
20
7.682926829268297
0
INSERT
2
cutlineendpoint
8
H4
10
-61.2
20
12.80487804878048
0
INSERT
2
cutlineendpoint
8
H4
10
61.2
20
12.80487804878048
0
INSERT
2
cutlineendpoint
8
H4
10
-64.2
20
12.80487804878048
0
INSERT
2
cutlineendpoint
8
H4
10
64.2
20
12.80487804878048
0
INSERT
2
cutlineendpoint
8
H4
10
-61.2
20
17.92682926829268
0
INSERT
2
cutlineendpoint
8
H4
10
61.2
20
17.92682926829268
0
INSERT
2
cutlineendpoint
8
H4
10
-64.2
20
17.92682926829268
0
INSERT
2
cutlineendpoint
8
H4
10
64.2
20
17.92682926829268
0
INSERT
2
cutlineendpoint
8
H4
10
-61.2
20
23.048780487804876
0
INSERT
2
cutlineendpoint
8
H4
10
61.2
20
23.048780487804876
0
INSERT
2
cutlineendpoint
8
H4
10
-64.2
20
23.048780487804876
0
INSERT
2
cutlineendpoint
8
H4
10
64.2
20
23.048780487804876
0
INSERT
2
cutlineendpoint
8
H4
10
-61.2
20
28.170731707317074
0
INSERT
2
cutlineendpoint
8
H4
10
61.2
20
28.170731707317074
0
INSERT
2
cutlineendpoint
8
H4
10
-64.2
20
28.170731707317074
0
INSERT
2
cutlineendpoint
8
H4
10
64.2
20
28.170731707317074
0
INSERT
2
cutlineendpoint
8
H4
10
-61.2
20
33.29268292682927
0
INSERT
2
cutlineendpoint
8
H4
10
61.2
20
33.29268292682927
0
INSERT
2
cutlineendpoint
8
H4
10
-64.2
20
33.29268292682927
0
INSERT
2
cutlineendpoint
8
H4
10
64.2
20
33.29268292682927
0
INSERT
2
cutlineendpoint
8
H4
10
-61.2
20
38.41463414634147
0
INSERT
2
cutlineendpoint
8
H4
10
61.2
20
38.41463414634147
0
INSERT
2
cutlineendpoint
8
H4
10
-64.2
20
38.41463414634147
0
INSERT
2
cutlineendpoint
8
H4
10
64.2
20
38.41463414634147
0
INSERT
2
cutlineendpoint
8
H4
10
-61.2
20
43.53658536585367
0
INSERT
2
cutlineendpoint
8
H4
10
61.2
20
43.53658536585367
0
INSERT
2
cutlineendpoint
8
H4
10
-64.2
20
43.53658536585367
0
INSERT
2
cutlineendpoint
8
H4
10
64.2
20
43.53658536585367
0
INSERT
2
cutlineendpoint
8
H4
10
-61.2
20
48.658536585365866
0
INSERT
2
cutlineendpoint
8
H4
10
61.2
20
48.658536585365866
0
INSERT
2
cutlineendpoint
8
H4
10
-64.2
20
48.658536585365866
0
INSERT
2
cutlineendpoint
8
H4
10
64.2
20
48.658536585365866
0
INSERT
2
cutlineendpoint
8
H4
10
-61.2
20
53.780487804878064
0
INSERT
2
cutlineendpoint
8
H4
10
61.2
20
53.780487804878064
0
INSERT
2
cutlineendpoint
8
H4
10
-64.2
20
53.780487804878064
0
INSERT
2
cutlineendpoint
8
H4
10
64.2
20
53.780487804878064
0
INSERT
2
cutlineendpoint
8
H4
10
-61.2
20
58.90243902439026
0
INSERT
2
cutlineendpoint
8
H4
10
61.2
20
58.90243902439026
0
INSERT
2
cutlineendpoint
8
H4
10
-64.2
20
58.90243902439026
0
INSERT
2
cutlineendpoint
8
H4
10
64.2
20
58.90243902439026
0
TEXT
8
H4
10
-10.5
20
66.7
40
1.5
1
XFB44-1600-011-H4
0
POLYLINE
8
H4
66
1
70
1
0
VERTEX
8
H4
10
-100.0
20
100.0
30
0
40
1
41
1
0
VERTEX
8
H4
10
100.0
20
100.0
30
0
40
1
41
1
0
VERTEX
8
H4
10
100.0
20
-100.0
30
0
40
1
41
1
0
VERTEX
8
H4
10
-100.0
20
-100.0
30
0
40
1
41
1
0
SEQEND
0
ENDSEC
0
EOF
