0
SECTION
2
HEADER
9
$ACADVER
1
AC1006
9
$INSBASE
10
0.0
20
0.0
30
0.0
9
$EXTMIN
10
-104.20359281437126
20
-104.20359281437126
9
$EXTMAX
10
104.20359281437126
20
114.38323353293414
0
ENDSEC
0
SECTION
2
TABLES
0
TABLE
2
LTYPE
70
1
0
LTYPE
2
CONTINUOUS
70
64
3
Solid line
72
65
73
0
40
0.0
0
ENDTAB
0
TABLE
2
LAYER
70
3
0
LAYER
2
0
70
0
62
255
6
continuous
0
LAYER
2
0
70
0
62
7
6
continuous
0
LAYER
2
P11
70
0
62
7
6
continuous
0
ENDTAB
0
TABLE
2
STYLE
70
2
0
STYLE
2
STANDARD
70
0
40
0
41
1
50
0
71
0
42
1
3
ARIAL.TTF
4

0
STYLE
2
STANDARD
70
0
40
0
41
1
50
0
71
0
42
1
3
ARIAL.TTF
4

0
ENDTAB
0
TABLE
2
VIEW
70
1
0
VIEW
2
Normal
70
0
40
1
10
0.5
20
0.5
41
1
11
0
21
0
31
1
12
0
22
0
32
0
42
50
43
0
44
0
50
0
71
0
0
ENDTAB
0
ENDSEC
0
SECTION
2
BLOCKS
0
BLOCK
8
0
2
cutlineendpoint
70
0
10
0
20
0
30
0
3
cutlineendpoint
0
POLYLINE
8
0
66
1
70
1
40
0.04
41
0.04
0
VERTEX
8
0
10
-0.02
20
0
30
0
42
1.0
0
VERTEX
8
0
10
0.02
20
0
30
0
42
1.0
0
SEQEND
0
ENDBLK
0
BLOCK
8
P11
2
LDI_XFL94-0512-011_P11_B1
70
0
10
0
20
0
30
0
3
LDI_XFL94-0512-011_P11_B1
0
CIRCLE
8
P11
10
-47.044802550623245
20
-56.23883709703214
40
0.06
0
CIRCLE
8
P11
10
-48.50299401197604
20
-56.76524502016376
40
0.06
0
CIRCLE
8
P11
10
-52.63473053892215
20
-55.68740070878652
40
0.06
0
CIRCLE
8
P11
10
-48.50299401197604
20
-55.80716118782844
40
0.06
0
CIRCLE
8
P11
10
-52.167697679489635
20
-55.85738676804418
40
0.06
0
CIRCLE
8
P11
10
-48.50299401197604
20
-54.84907735549308
40
0.06
0
CIRCLE
8
P11
10
-49.760479041916156
20
-55.68740070878652
40
0.06
0
CIRCLE
8
P11
10
-48.50299401197604
20
-53.89099352315777
40
0.06
0
CIRCLE
8
P11
10
-49.96118547332882
20
-56.23883709703214
40
0.06
0
CIRCLE
8
P11
10
-48.50299401197604
20
-53.41195160699009
40
0.06
0
CIRCLE
8
P11
10
-44.37125748502993
20
-55.68740070878652
40
0.06
0
CIRCLE
8
P11
10
-48.50299401197604
20
-54.37003543932543
40
0.06
0
CIRCLE
8
P11
10
-44.83829034446245
20
-55.85738676804418
40
0.06
0
CIRCLE
8
P11
10
-48.50299401197604
20
-55.32811927166074
40
0.06
0
CIRCLE
8
P11
10
-47.245508982035915
20
-55.68740070878652
40
0.06
0
CIRCLE
8
P11
10
-48.50299401197604
20
-56.28620310399609
40
0.06
0
CIRCLE
8
P11
10
-36.266359436850806
20
-56.23883709703214
40
0.06
0
CIRCLE
8
P11
10
-37.724550898203574
20
-56.76524502016376
40
0.06
0
CIRCLE
8
P11
10
-41.85628742514966
20
-55.68740070878652
40
0.06
0
CIRCLE
8
P11
10
-37.724550898203574
20
-55.80716118782844
40
0.06
0
CIRCLE
8
P11
10
-41.38925456571717
20
-55.85738676804418
40
0.06
0
CIRCLE
8
P11
10
-37.724550898203574
20
-54.84907735549308
40
0.06
0
CIRCLE
8
P11
10
-38.98203592814369
20
-55.68740070878652
40
0.06
0
CIRCLE
8
P11
10
-37.724550898203574
20
-53.89099352315777
40
0.06
0
CIRCLE
8
P11
10
-39.18274235955637
20
-56.23883709703214
40
0.06
0
CIRCLE
8
P11
10
-37.724550898203574
20
-53.41195160699009
40
0.06
0
CIRCLE
8
P11
10
-33.592814371257475
20
-55.68740070878652
40
0.06
0
CIRCLE
8
P11
10
-37.724550898203574
20
-54.37003543932543
40
0.06
0
CIRCLE
8
P11
10
-34.059847230689996
20
-55.85738676804418
40
0.06
0
CIRCLE
8
P11
10
-37.724550898203574
20
-55.32811927166074
40
0.06
0
CIRCLE
8
P11
10
-36.46706586826346
20
-55.68740070878652
40
0.06
0
CIRCLE
8
P11
10
-37.724550898203574
20
-56.28620310399609
40
0.06
0
CIRCLE
8
P11
10
-25.487916323078338
20
-56.23883709703214
40
0.06
0
CIRCLE
8
P11
10
-26.94610778443112
20
-56.76524502016376
40
0.06
0
CIRCLE
8
P11
10
-31.07784431137725
20
-55.68740070878652
40
0.06
0
CIRCLE
8
P11
10
-26.94610778443112
20
-55.80716118782844
40
0.06
0
CIRCLE
8
P11
10
-30.610811451944713
20
-55.85738676804418
40
0.06
0
CIRCLE
8
P11
10
-26.94610778443112
20
-54.84907735549308
40
0.06
0
CIRCLE
8
P11
10
-28.203592814371248
20
-55.68740070878652
40
0.06
0
CIRCLE
8
P11
10
-26.94610778443112
20
-53.89099352315777
40
0.06
0
CIRCLE
8
P11
10
-28.404299245783932
20
-56.23883709703214
40
0.06
0
CIRCLE
8
P11
10
-26.94610778443112
20
-53.41195160699009
40
0.06
0
CIRCLE
8
P11
10
-22.814371257485035
20
-55.68740070878652
40
0.06
0
CIRCLE
8
P11
10
-26.94610778443112
20
-54.37003543932543
40
0.06
0
CIRCLE
8
P11
10
-23.281404116917543
20
-55.85738676804418
40
0.06
0
CIRCLE
8
P11
10
-26.94610778443112
20
-55.32811927166074
40
0.06
0
CIRCLE
8
P11
10
-25.68862275449102
20
-55.68740070878652
40
0.06
0
CIRCLE
8
P11
10
-26.94610778443112
20
-56.28620310399609
40
0.06
0
CIRCLE
8
P11
10
-14.709473209305912
20
-56.23883709703214
40
0.06
0
CIRCLE
8
P11
10
-16.16766467065868
20
-56.76524502016376
40
0.06
0
CIRCLE
8
P11
10
-20.29940119760478
20
-55.68740070878652
40
0.06
0
CIRCLE
8
P11
10
-16.16766467065868
20
-55.80716118782844
40
0.06
0
CIRCLE
8
P11
10
-19.83236833817226
20
-55.85738676804418
40
0.06
0
CIRCLE
8
P11
10
-16.16766467065868
20
-54.84907735549308
40
0.06
0
CIRCLE
8
P11
10
-17.425149700598794
20
-55.68740070878652
40
0.06
0
CIRCLE
8
P11
10
-16.16766467065868
20
-53.89099352315777
40
0.06
0
CIRCLE
8
P11
10
-17.625856132011478
20
-56.23883709703214
40
0.06
0
CIRCLE
8
P11
10
-16.16766467065868
20
-53.41195160699009
40
0.06
0
CIRCLE
8
P11
10
-12.035928143712582
20
-55.68740070878652
40
0.06
0
CIRCLE
8
P11
10
-16.16766467065868
20
-54.37003543932543
40
0.06
0
CIRCLE
8
P11
10
-12.50296100314506
20
-55.85738676804418
40
0.06
0
CIRCLE
8
P11
10
-16.16766467065868
20
-55.32811927166074
40
0.06
0
CIRCLE
8
P11
10
-14.910179640718582
20
-55.68740070878652
40
0.06
0
CIRCLE
8
P11
10
-16.16766467065868
20
-56.28620310399609
40
0.06
0
CIRCLE
8
P11
10
-3.931030095533444
20
-56.23883709703214
40
0.06
0
CIRCLE
8
P11
10
-5.389221556886213
20
-56.76524502016376
40
0.06
0
CIRCLE
8
P11
10
-9.520958083832355
20
-55.68740070878652
40
0.06
0
CIRCLE
8
P11
10
-5.389221556886213
20
-55.80716118782844
40
0.06
0
CIRCLE
8
P11
10
-9.053925224399805
20
-55.85738676804418
40
0.06
0
CIRCLE
8
P11
10
-5.389221556886213
20
-54.84907735549308
40
0.06
0
CIRCLE
8
P11
10
-6.646706586826326
20
-55.68740070878652
40
0.06
0
CIRCLE
8
P11
10
-5.389221556886213
20
-53.89099352315777
40
0.06
0
CIRCLE
8
P11
10
-6.8474130182390525
20
-56.23883709703214
40
0.06
0
CIRCLE
8
P11
10
-5.389221556886213
20
-53.41195160699009
40
0.06
0
CIRCLE
8
P11
10
-1.2574850299401277
20
-55.68740070878652
40
0.06
0
CIRCLE
8
P11
10
-5.389221556886213
20
-54.37003543932543
40
0.06
0
CIRCLE
8
P11
10
-1.724517889372592
20
-55.85738676804418
40
0.06
0
CIRCLE
8
P11
10
-5.389221556886213
20
-55.32811927166074
40
0.06
0
CIRCLE
8
P11
10
-4.131736526946099
20
-55.68740070878652
40
0.06
0
CIRCLE
8
P11
10
-5.389221556886213
20
-56.28620310399609
40
0.06
0
CIRCLE
8
P11
10
6.84741301823901
20
-56.23883709703214
40
0.06
0
CIRCLE
8
P11
10
5.389221556886227
20
-56.76524502016376
40
0.06
0
CIRCLE
8
P11
10
1.2574850299400993
20
-55.68740070878652
40
0.06
0
CIRCLE
8
P11
10
5.389221556886227
20
-55.80716118782844
40
0.06
0
CIRCLE
8
P11
10
1.724517889372649
20
-55.85738676804418
40
0.06
0
CIRCLE
8
P11
10
5.389221556886227
20
-54.84907735549308
40
0.06
0
CIRCLE
8
P11
10
4.131736526946156
20
-55.68740070878652
40
0.06
0
CIRCLE
8
P11
10
5.389221556886227
20
-53.89099352315777
40
0.06
0
CIRCLE
8
P11
10
3.93103009553343
20
-56.23883709703214
40
0.06
0
CIRCLE
8
P11
10
5.389221556886227
20
-53.41195160699009
40
0.06
0
CIRCLE
8
P11
10
9.520958083832326
20
-55.68740070878652
40
0.06
0
CIRCLE
8
P11
10
5.389221556886227
20
-54.37003543932543
40
0.06
0
CIRCLE
8
P11
10
9.053925224399862
20
-55.85738676804418
40
0.06
0
CIRCLE
8
P11
10
5.389221556886227
20
-55.32811927166074
40
0.06
0
CIRCLE
8
P11
10
6.646706586826355
20
-55.68740070878652
40
0.06
0
CIRCLE
8
P11
10
5.389221556886227
20
-56.28620310399609
40
0.06
0
CIRCLE
8
P11
10
17.625856132011464
20
-56.23883709703214
40
0.06
0
CIRCLE
8
P11
10
16.167664670658652
20
-56.76524502016376
40
0.06
0
CIRCLE
8
P11
10
12.035928143712567
20
-55.68740070878652
40
0.06
0
CIRCLE
8
P11
10
16.167664670658652
20
-55.80716118782844
40
0.06
0
CIRCLE
8
P11
10
12.502961003145117
20
-55.85738676804418
40
0.06
0
CIRCLE
8
P11
10
16.167664670658652
20
-54.84907735549308
40
0.06
0
CIRCLE
8
P11
10
14.910179640718624
20
-55.68740070878652
40
0.06
0
CIRCLE
8
P11
10
16.167664670658652
20
-53.89099352315777
40
0.06
0
CIRCLE
8
P11
10
14.709473209305898
20
-56.23883709703214
40
0.06
0
CIRCLE
8
P11
10
16.167664670658652
20
-53.41195160699009
40
0.06
0
CIRCLE
8
P11
10
20.29940119760478
20
-55.68740070878652
40
0.06
0
CIRCLE
8
P11
10
16.167664670658652
20
-54.37003543932543
40
0.06
0
CIRCLE
8
P11
10
19.832368338172316
20
-55.85738676804418
40
0.06
0
CIRCLE
8
P11
10
16.167664670658652
20
-55.32811927166074
40
0.06
0
CIRCLE
8
P11
10
17.425149700598794
20
-55.68740070878652
40
0.06
0
CIRCLE
8
P11
10
16.167664670658652
20
-56.28620310399609
40
0.06
0
CIRCLE
8
P11
10
28.404299245783946
20
-56.23883709703214
40
0.06
0
CIRCLE
8
P11
10
26.946107784431106
20
-56.76524502016376
40
0.06
0
CIRCLE
8
P11
10
22.814371257485035
20
-55.68740070878652
40
0.06
0
CIRCLE
8
P11
10
26.946107784431106
20
-55.80716118782844
40
0.06
0
CIRCLE
8
P11
10
23.281404116917557
20
-55.85738676804418
40
0.06
0
CIRCLE
8
P11
10
26.946107784431106
20
-54.84907735549308
40
0.06
0
CIRCLE
8
P11
10
25.68862275449105
20
-55.68740070878652
40
0.06
0
CIRCLE
8
P11
10
26.946107784431106
20
-53.89099352315777
40
0.06
0
CIRCLE
8
P11
10
25.487916323078352
20
-56.23883709703214
40
0.06
0
CIRCLE
8
P11
10
26.946107784431106
20
-53.41195160699009
40
0.06
0
CIRCLE
8
P11
10
31.077844311377262
20
-55.68740070878652
40
0.06
0
CIRCLE
8
P11
10
26.946107784431106
20
-54.37003543932543
40
0.06
0
CIRCLE
8
P11
10
30.61081145194474
20
-55.85738676804418
40
0.06
0
CIRCLE
8
P11
10
26.946107784431106
20
-55.32811927166074
40
0.06
0
CIRCLE
8
P11
10
28.203592814371248
20
-55.68740070878652
40
0.06
0
CIRCLE
8
P11
10
26.946107784431106
20
-56.28620310399609
40
0.06
0
CIRCLE
8
P11
10
39.1827423595564
20
-56.23883709703214
40
0.06
0
CIRCLE
8
P11
10
37.72455089820356
20
-56.76524502016376
40
0.06
0
CIRCLE
8
P11
10
33.59281437125746
20
-55.68740070878652
40
0.06
0
CIRCLE
8
P11
10
37.72455089820356
20
-55.80716118782844
40
0.06
0
CIRCLE
8
P11
10
34.05984723068998
20
-55.85738676804418
40
0.06
0
CIRCLE
8
P11
10
37.72455089820356
20
-54.84907735549308
40
0.06
0
CIRCLE
8
P11
10
36.467065868263504
20
-55.68740070878652
40
0.06
0
CIRCLE
8
P11
10
37.72455089820356
20
-53.89099352315777
40
0.06
0
CIRCLE
8
P11
10
36.266359436850806
20
-56.23883709703214
40
0.06
0
CIRCLE
8
P11
10
37.72455089820356
20
-53.41195160699009
40
0.06
0
CIRCLE
8
P11
10
41.856287425149716
20
-55.68740070878652
40
0.06
0
CIRCLE
8
P11
10
37.72455089820356
20
-54.37003543932543
40
0.06
0
CIRCLE
8
P11
10
41.38925456571722
20
-55.85738676804418
40
0.06
0
CIRCLE
8
P11
10
37.72455089820356
20
-55.32811927166074
40
0.06
0
CIRCLE
8
P11
10
38.98203592814373
20
-55.68740070878652
40
0.06
0
CIRCLE
8
P11
10
37.72455089820356
20
-56.28620310399609
40
0.06
0
CIRCLE
8
P11
10
49.961185473328825
20
-56.23883709703214
40
0.06
0
CIRCLE
8
P11
10
48.50299401197604
20
-56.76524502016376
40
0.06
0
CIRCLE
8
P11
10
44.37125748502994
20
-55.68740070878652
40
0.06
0
CIRCLE
8
P11
10
48.50299401197604
20
-55.80716118782844
40
0.06
0
CIRCLE
8
P11
10
44.838290344462465
20
-55.85738676804418
40
0.06
0
CIRCLE
8
P11
10
48.50299401197604
20
-54.84907735549308
40
0.06
0
CIRCLE
8
P11
10
47.245508982035986
20
-55.68740070878652
40
0.06
0
CIRCLE
8
P11
10
48.50299401197604
20
-53.89099352315777
40
0.06
0
CIRCLE
8
P11
10
47.04480255062323
20
-56.23883709703214
40
0.06
0
CIRCLE
8
P11
10
48.50299401197604
20
-53.41195160699009
40
0.06
0
CIRCLE
8
P11
10
52.63473053892214
20
-55.68740070878652
40
0.06
0
CIRCLE
8
P11
10
48.50299401197604
20
-54.37003543932543
40
0.06
0
CIRCLE
8
P11
10
52.16769767948968
20
-55.85738676804418
40
0.06
0
CIRCLE
8
P11
10
48.50299401197604
20
-55.32811927166074
40
0.06
0
CIRCLE
8
P11
10
49.76047904191613
20
-55.68740070878652
40
0.06
0
CIRCLE
8
P11
10
48.50299401197604
20
-56.28620310399609
40
0.06
0
ENDBLK
0
ENDSEC
0
SECTION
2
ENTITIES
0
INSERT
2
LDI_XFL94-0512-011_P11_B1
8
P11
10
0
20
0.0
30
0
0
INSERT
2
LDI_XFL94-0512-011_P11_B1
8
P11
10
0
20
4.790419161676647
30
0
0
INSERT
2
LDI_XFL94-0512-011_P11_B1
8
P11
10
0
20
9.580838323353294
30
0
0
INSERT
2
LDI_XFL94-0512-011_P11_B1
8
P11
10
0
20
14.371257485029941
30
0
0
INSERT
2
LDI_XFL94-0512-011_P11_B1
8
P11
10
0
20
19.16167664670659
30
0
0
INSERT
2
LDI_XFL94-0512-011_P11_B1
8
P11
10
0
20
23.952095808383234
30
0
0
INSERT
2
LDI_XFL94-0512-011_P11_B1
8
P11
10
0
20
28.742514970059883
30
0
0
INSERT
2
LDI_XFL94-0512-011_P11_B1
8
P11
10
0
20
33.53293413173653
30
0
0
INSERT
2
LDI_XFL94-0512-011_P11_B1
8
P11
10
0
20
38.32335329341318
30
0
0
INSERT
2
LDI_XFL94-0512-011_P11_B1
8
P11
10
0
20
43.11377245508982
30
0
0
INSERT
2
LDI_XFL94-0512-011_P11_B1
8
P11
10
0
20
47.90419161676647
30
0
0
INSERT
2
LDI_XFL94-0512-011_P11_B1
8
P11
10
0
20
52.69461077844312
30
0
0
INSERT
2
LDI_XFL94-0512-011_P11_B1
8
P11
10
0
20
57.485029940119766
30
0
0
INSERT
2
LDI_XFL94-0512-011_P11_B1
8
P11
10
0
20
62.27544910179641
30
0
0
INSERT
2
LDI_XFL94-0512-011_P11_B1
8
P11
10
0
20
67.06586826347306
30
0
0
INSERT
2
LDI_XFL94-0512-011_P11_B1
8
P11
10
0
20
71.8562874251497
30
0
0
INSERT
2
LDI_XFL94-0512-011_P11_B1
8
P11
10
0
20
76.64670658682635
30
0
0
INSERT
2
LDI_XFL94-0512-011_P11_B1
8
P11
10
0
20
81.43712574850301
30
0
0
INSERT
2
LDI_XFL94-0512-011_P11_B1
8
P11
10
0
20
86.22754491017965
30
0
0
INSERT
2
LDI_XFL94-0512-011_P11_B1
8
P11
10
0
20
91.0179640718563
30
0
0
INSERT
2
LDI_XFL94-0512-011_P11_B1
8
P11
10
0
20
95.80838323353294
30
0
0
INSERT
2
LDI_XFL94-0512-011_P11_B1
8
P11
10
0
20
100.59880239520959
30
0
0
INSERT
2
LDI_XFL94-0512-011_P11_B1
8
P11
10
0
20
105.38922155688624
30
0
0
INSERT
2
LDI_XFL94-0512-011_P11_B1
8
P11
10
0
20
110.17964071856288
30
0
0
POLYLINE
8
P11
66
1
70
1
40
0.1
41
0.1
0
VERTEX
8
P11
10
-61.5
20
-61.2
42
1.0
0
VERTEX
8
P11
10
-60.900000000000006
20
-61.2
42
1.0
0
SEQEND
0
POLYLINE
8
P11
66
1
70
1
40
0.1
41
0.1
0
VERTEX
8
P11
10
-61.5
20
61.2
42
1.0
0
VERTEX
8
P11
10
-60.900000000000006
20
61.2
42
1.0
0
SEQEND
0
POLYLINE
8
P11
66
1
70
1
40
0.1
41
0.1
0
VERTEX
8
P11
10
60.90000000000002
20
-61.2
42
1.0
0
VERTEX
8
P11
10
61.499999999999986
20
-61.2
42
1.0
0
SEQEND
0
POLYLINE
8
P11
66
1
70
1
40
0.1
41
0.1
0
VERTEX
8
P11
10
60.90000000000002
20
61.2
42
1.0
0
VERTEX
8
P11
10
61.499999999999986
20
61.2
42
1.0
0
SEQEND
0
TEXT
8
P11
10
-10.5
20
66.7
40
1.5
1
XFL94-0512-011-P11
0
POLYLINE
8
P11
66
1
70
1
0
VERTEX
8
P11
10
-100.0
20
100.0
30
0
40
1
41
1
0
VERTEX
8
P11
10
100.0
20
100.0
30
0
40
1
41
1
0
VERTEX
8
P11
10
100.0
20
-100.0
30
0
40
1
41
1
0
VERTEX
8
P11
10
-100.0
20
-100.0
30
0
40
1
41
1
0
SEQEND
0
ENDSEC
0
EOF
