0
SECTION
2
HEADER
9
$ACADVER
1
AC1006
9
$INSBASE
10
0.0
20
0.0
30
0.0
9
$EXTMIN
10
-104.20359281437126
20
-104.20359281437126
9
$EXTMAX
10
104.20359281437126
20
114.38323353293414
0
ENDSEC
0
SECTION
2
TABLES
0
TABLE
2
LTYPE
70
1
0
LTYPE
2
CONTINUOUS
70
64
3
Solid line
72
65
73
0
40
0.0
0
ENDTAB
0
TABLE
2
LAYER
70
3
0
LAYER
2
0
70
0
62
255
6
continuous
0
LAYER
2
0
70
0
62
7
6
continuous
0
LAYER
2
P3
70
0
62
7
6
continuous
0
ENDTAB
0
TABLE
2
STYLE
70
2
0
STYLE
2
STANDARD
70
0
40
0
41
1
50
0
71
0
42
1
3
ARIAL.TTF
4

0
STYLE
2
STANDARD
70
0
40
0
41
1
50
0
71
0
42
1
3
ARIAL.TTF
4

0
ENDTAB
0
TABLE
2
VIEW
70
1
0
VIEW
2
Normal
70
0
40
1
10
0.5
20
0.5
41
1
11
0
21
0
31
1
12
0
22
0
32
0
42
50
43
0
44
0
50
0
71
0
0
ENDTAB
0
ENDSEC
0
SECTION
2
BLOCKS
0
BLOCK
8
0
2
cutlineendpoint
70
0
10
0
20
0
30
0
3
cutlineendpoint
0
POLYLINE
8
0
66
1
70
1
40
0.04
41
0.04
0
VERTEX
8
0
10
-0.02
20
0
30
0
42
1.0
0
VERTEX
8
0
10
0.02
20
0
30
0
42
1.0
0
SEQEND
0
ENDBLK
0
BLOCK
8
P3
2
LDI_XFL94-0512-011_P3_B1
70
0
10
0
20
0
30
0
3
LDI_XFL94-0512-011_P3_B1
0
CIRCLE
8
P3
10
-47.62271368712145
20
-55.2378656463574
40
0.06
0
CIRCLE
8
P3
10
-53.1317365269461
20
-55.68740070878652
40
0.06
0
CIRCLE
8
P3
10
-50.35928143712572
20
-53.651472565073945
40
0.06
0
CIRCLE
8
P3
10
-52.63473053892215
20
-55.68740070878652
40
0.06
0
CIRCLE
8
P3
10
-50.05018685612802
20
-53.34237798407622
40
0.06
0
CIRCLE
8
P3
10
-52.275449101796404
20
-53.651472565073945
40
0.06
0
CIRCLE
8
P3
10
-49.760479041916156
20
-55.68740070878652
40
0.06
0
CIRCLE
8
P3
10
-52.7125748502994
20
-53.651472565073945
40
0.06
0
CIRCLE
8
P3
10
-49.38327433683063
20
-55.2378656463574
40
0.06
0
CIRCLE
8
P3
10
-48.50299401197604
20
-56.76524502016376
40
0.06
0
CIRCLE
8
P3
10
-44.29341317365268
20
-53.651472565073945
40
0.06
0
CIRCLE
8
P3
10
-48.50299401197604
20
-55.80716118782844
40
0.06
0
CIRCLE
8
P3
10
-44.73053892215569
20
-53.651472565073945
40
0.06
0
CIRCLE
8
P3
10
-48.50299401197604
20
-54.84907735549308
40
0.06
0
CIRCLE
8
P3
10
-44.37125748502993
20
-55.68740070878652
40
0.06
0
CIRCLE
8
P3
10
-48.50299401197604
20
-53.89099352315777
40
0.06
0
CIRCLE
8
P3
10
-43.874251497005986
20
-55.68740070878652
40
0.06
0
CIRCLE
8
P3
10
-48.50299401197604
20
-53.41195160699009
40
0.06
0
CIRCLE
8
P3
10
-46.64670658682634
20
-53.651472565073945
40
0.06
0
CIRCLE
8
P3
10
-48.50299401197604
20
-54.37003543932543
40
0.06
0
CIRCLE
8
P3
10
-46.95580116782405
20
-53.34237798407622
40
0.06
0
CIRCLE
8
P3
10
-48.50299401197604
20
-55.32811927166074
40
0.06
0
CIRCLE
8
P3
10
-47.245508982035915
20
-55.68740070878652
40
0.06
0
CIRCLE
8
P3
10
-48.50299401197604
20
-56.28620310399609
40
0.06
0
CIRCLE
8
P3
10
-36.84427057334898
20
-55.2378656463574
40
0.06
0
CIRCLE
8
P3
10
-42.35329341317363
20
-55.68740070878652
40
0.06
0
CIRCLE
8
P3
10
-39.58083832335329
20
-53.651472565073945
40
0.06
0
CIRCLE
8
P3
10
-41.85628742514966
20
-55.68740070878652
40
0.06
0
CIRCLE
8
P3
10
-39.27174374235557
20
-53.34237798407622
40
0.06
0
CIRCLE
8
P3
10
-41.49700598802396
20
-53.651472565073945
40
0.06
0
CIRCLE
8
P3
10
-38.98203592814369
20
-55.68740070878652
40
0.06
0
CIRCLE
8
P3
10
-41.93413173652692
20
-53.651472565073945
40
0.06
0
CIRCLE
8
P3
10
-38.604831223058184
20
-55.2378656463574
40
0.06
0
CIRCLE
8
P3
10
-37.724550898203574
20
-56.76524502016376
40
0.06
0
CIRCLE
8
P3
10
-33.51497005988024
20
-53.651472565073945
40
0.06
0
CIRCLE
8
P3
10
-37.724550898203574
20
-55.80716118782844
40
0.06
0
CIRCLE
8
P3
10
-33.952095808383234
20
-53.651472565073945
40
0.06
0
CIRCLE
8
P3
10
-37.724550898203574
20
-54.84907735549308
40
0.06
0
CIRCLE
8
P3
10
-33.592814371257475
20
-55.68740070878652
40
0.06
0
CIRCLE
8
P3
10
-37.724550898203574
20
-53.89099352315777
40
0.06
0
CIRCLE
8
P3
10
-33.09580838323352
20
-55.68740070878652
40
0.06
0
CIRCLE
8
P3
10
-37.724550898203574
20
-53.41195160699009
40
0.06
0
CIRCLE
8
P3
10
-35.86826347305389
20
-53.651472565073945
40
0.06
0
CIRCLE
8
P3
10
-37.724550898203574
20
-54.37003543932543
40
0.06
0
CIRCLE
8
P3
10
-36.177358054051595
20
-53.34237798407622
40
0.06
0
CIRCLE
8
P3
10
-37.724550898203574
20
-55.32811927166074
40
0.06
0
CIRCLE
8
P3
10
-36.46706586826346
20
-55.68740070878652
40
0.06
0
CIRCLE
8
P3
10
-37.724550898203574
20
-56.28620310399609
40
0.06
0
CIRCLE
8
P3
10
-26.065827459576525
20
-55.2378656463574
40
0.06
0
CIRCLE
8
P3
10
-31.57485029940119
20
-55.68740070878652
40
0.06
0
CIRCLE
8
P3
10
-28.80239520958081
20
-53.651472565073945
40
0.06
0
CIRCLE
8
P3
10
-31.07784431137725
20
-55.68740070878652
40
0.06
0
CIRCLE
8
P3
10
-28.493300628583114
20
-53.34237798407622
40
0.06
0
CIRCLE
8
P3
10
-30.71856287425149
20
-53.651472565073945
40
0.06
0
CIRCLE
8
P3
10
-28.203592814371248
20
-55.68740070878652
40
0.06
0
CIRCLE
8
P3
10
-31.155688622754496
20
-53.651472565073945
40
0.06
0
CIRCLE
8
P3
10
-27.826388109285745
20
-55.2378656463574
40
0.06
0
CIRCLE
8
P3
10
-26.94610778443112
20
-56.76524502016376
40
0.06
0
CIRCLE
8
P3
10
-22.736526946107787
20
-53.651472565073945
40
0.06
0
CIRCLE
8
P3
10
-26.94610778443112
20
-55.80716118782844
40
0.06
0
CIRCLE
8
P3
10
-23.17365269461078
20
-53.651472565073945
40
0.06
0
CIRCLE
8
P3
10
-26.94610778443112
20
-54.84907735549308
40
0.06
0
CIRCLE
8
P3
10
-22.814371257485035
20
-55.68740070878652
40
0.06
0
CIRCLE
8
P3
10
-26.94610778443112
20
-53.89099352315777
40
0.06
0
CIRCLE
8
P3
10
-22.317365269461035
20
-55.68740070878652
40
0.06
0
CIRCLE
8
P3
10
-26.94610778443112
20
-53.41195160699009
40
0.06
0
CIRCLE
8
P3
10
-25.08982035928142
20
-53.651472565073945
40
0.06
0
CIRCLE
8
P3
10
-26.94610778443112
20
-54.37003543932543
40
0.06
0
CIRCLE
8
P3
10
-25.39891494027914
20
-53.34237798407622
40
0.06
0
CIRCLE
8
P3
10
-26.94610778443112
20
-55.32811927166074
40
0.06
0
CIRCLE
8
P3
10
-25.68862275449102
20
-55.68740070878652
40
0.06
0
CIRCLE
8
P3
10
-26.94610778443112
20
-56.28620310399609
40
0.06
0
CIRCLE
8
P3
10
-15.287384345804085
20
-55.2378656463574
40
0.06
0
CIRCLE
8
P3
10
-20.796407185628723
20
-55.68740070878652
40
0.06
0
CIRCLE
8
P3
10
-18.023952095808355
20
-53.651472565073945
40
0.06
0
CIRCLE
8
P3
10
-20.29940119760478
20
-55.68740070878652
40
0.06
0
CIRCLE
8
P3
10
-17.71485751481069
20
-53.34237798407622
40
0.06
0
CIRCLE
8
P3
10
-19.940119760479007
20
-53.651472565073945
40
0.06
0
CIRCLE
8
P3
10
-17.425149700598794
20
-55.68740070878652
40
0.06
0
CIRCLE
8
P3
10
-20.377245508982014
20
-53.651472565073945
40
0.06
0
CIRCLE
8
P3
10
-17.047944995513305
20
-55.2378656463574
40
0.06
0
CIRCLE
8
P3
10
-16.16766467065868
20
-56.76524502016376
40
0.06
0
CIRCLE
8
P3
10
-11.95808383233532
20
-53.651472565073945
40
0.06
0
CIRCLE
8
P3
10
-16.16766467065868
20
-55.80716118782844
40
0.06
0
CIRCLE
8
P3
10
-12.395209580838298
20
-53.651472565073945
40
0.06
0
CIRCLE
8
P3
10
-16.16766467065868
20
-54.84907735549308
40
0.06
0
CIRCLE
8
P3
10
-12.035928143712582
20
-55.68740070878652
40
0.06
0
CIRCLE
8
P3
10
-16.16766467065868
20
-53.89099352315777
40
0.06
0
CIRCLE
8
P3
10
-11.53892215568861
20
-55.68740070878652
40
0.06
0
CIRCLE
8
P3
10
-16.16766467065868
20
-53.41195160699009
40
0.06
0
CIRCLE
8
P3
10
-14.311377245508979
20
-53.651472565073945
40
0.06
0
CIRCLE
8
P3
10
-16.16766467065868
20
-54.37003543932543
40
0.06
0
CIRCLE
8
P3
10
-14.620471826506716
20
-53.34237798407622
40
0.06
0
CIRCLE
8
P3
10
-16.16766467065868
20
-55.32811927166074
40
0.06
0
CIRCLE
8
P3
10
-14.910179640718582
20
-55.68740070878652
40
0.06
0
CIRCLE
8
P3
10
-16.16766467065868
20
-56.28620310399609
40
0.06
0
CIRCLE
8
P3
10
-4.508941232031631
20
-55.2378656463574
40
0.06
0
CIRCLE
8
P3
10
-10.017964071856255
20
-55.68740070878652
40
0.06
0
CIRCLE
8
P3
10
-7.245508982035901
20
-53.651472565073945
40
0.06
0
CIRCLE
8
P3
10
-9.520958083832355
20
-55.68740070878652
40
0.06
0
CIRCLE
8
P3
10
-6.936414401038206
20
-53.34237798407622
40
0.06
0
CIRCLE
8
P3
10
-9.161676646706553
20
-53.651472565073945
40
0.06
0
CIRCLE
8
P3
10
-6.646706586826326
20
-55.68740070878652
40
0.06
0
CIRCLE
8
P3
10
-9.598802395209589
20
-53.651472565073945
40
0.06
0
CIRCLE
8
P3
10
-6.269501881740865
20
-55.2378656463574
40
0.06
0
CIRCLE
8
P3
10
-5.389221556886227
20
-56.76524502016376
40
0.06
0
CIRCLE
8
P3
10
-1.179640718562851
20
-53.651472565073945
40
0.06
0
CIRCLE
8
P3
10
-5.389221556886227
20
-55.80716118782844
40
0.06
0
CIRCLE
8
P3
10
-1.616766467065844
20
-53.651472565073945
40
0.06
0
CIRCLE
8
P3
10
-5.389221556886227
20
-54.84907735549308
40
0.06
0
CIRCLE
8
P3
10
-1.2574850299401277
20
-55.68740070878652
40
0.06
0
CIRCLE
8
P3
10
-5.389221556886227
20
-53.89099352315777
40
0.06
0
CIRCLE
8
P3
10
-0.7604790419161418
20
-55.68740070878652
40
0.06
0
CIRCLE
8
P3
10
-5.389221556886227
20
-53.41195160699009
40
0.06
0
CIRCLE
8
P3
10
-3.532934131736525
20
-53.651472565073945
40
0.06
0
CIRCLE
8
P3
10
-5.389221556886227
20
-54.37003543932543
40
0.06
0
CIRCLE
8
P3
10
-3.842028712734262
20
-53.34237798407622
40
0.06
0
CIRCLE
8
P3
10
-5.389221556886227
20
-55.32811927166074
40
0.06
0
CIRCLE
8
P3
10
-4.131736526946099
20
-55.68740070878652
40
0.06
0
CIRCLE
8
P3
10
-5.389221556886227
20
-56.28620310399609
40
0.06
0
CIRCLE
8
P3
10
6.269501881740823
20
-55.2378656463574
40
0.06
0
CIRCLE
8
P3
10
0.7604790419161986
20
-55.68740070878652
40
0.06
0
CIRCLE
8
P3
10
3.5329341317365675
20
-53.651472565073945
40
0.06
0
CIRCLE
8
P3
10
1.2574850299400993
20
-55.68740070878652
40
0.06
0
CIRCLE
8
P3
10
3.8420287127342334
20
-53.34237798407622
40
0.06
0
CIRCLE
8
P3
10
1.6167664670658866
20
-53.651472565073945
40
0.06
0
CIRCLE
8
P3
10
4.131736526946156
20
-55.68740070878652
40
0.06
0
CIRCLE
8
P3
10
1.1796407185628937
20
-53.651472565073945
40
0.06
0
CIRCLE
8
P3
10
4.508941232031603
20
-55.2378656463574
40
0.06
0
CIRCLE
8
P3
10
5.389221556886227
20
-56.76524502016376
40
0.06
0
CIRCLE
8
P3
10
9.598802395209646
20
-53.651472565073945
40
0.06
0
CIRCLE
8
P3
10
5.389221556886227
20
-55.80716118782844
40
0.06
0
CIRCLE
8
P3
10
9.161676646706582
20
-53.651472565073945
40
0.06
0
CIRCLE
8
P3
10
5.389221556886227
20
-54.84907735549308
40
0.06
0
CIRCLE
8
P3
10
9.520958083832326
20
-55.68740070878652
40
0.06
0
CIRCLE
8
P3
10
5.389221556886227
20
-53.89099352315777
40
0.06
0
CIRCLE
8
P3
10
10.017964071856312
20
-55.68740070878652
40
0.06
0
CIRCLE
8
P3
10
5.389221556886227
20
-53.41195160699009
40
0.06
0
CIRCLE
8
P3
10
7.2455089820359575
20
-53.651472565073945
40
0.06
0
CIRCLE
8
P3
10
5.389221556886227
20
-54.37003543932543
40
0.06
0
CIRCLE
8
P3
10
6.936414401038192
20
-53.34237798407622
40
0.06
0
CIRCLE
8
P3
10
5.389221556886227
20
-55.32811927166074
40
0.06
0
CIRCLE
8
P3
10
6.646706586826355
20
-55.68740070878652
40
0.06
0
CIRCLE
8
P3
10
5.389221556886227
20
-56.28620310399609
40
0.06
0
CIRCLE
8
P3
10
17.047944995513276
20
-55.2378656463574
40
0.06
0
CIRCLE
8
P3
10
11.538922155688653
20
-55.68740070878652
40
0.06
0
CIRCLE
8
P3
10
14.311377245509036
20
-53.651472565073945
40
0.06
0
CIRCLE
8
P3
10
12.035928143712567
20
-55.68740070878652
40
0.06
0
CIRCLE
8
P3
10
14.620471826506687
20
-53.34237798407622
40
0.06
0
CIRCLE
8
P3
10
12.395209580838369
20
-53.651472565073945
40
0.06
0
CIRCLE
8
P3
10
14.910179640718624
20
-55.68740070878652
40
0.06
0
CIRCLE
8
P3
10
11.958083832335348
20
-53.651472565073945
40
0.06
0
CIRCLE
8
P3
10
15.287384345804085
20
-55.2378656463574
40
0.06
0
CIRCLE
8
P3
10
16.167664670658652
20
-56.76524502016376
40
0.06
0
CIRCLE
8
P3
10
20.377245508982057
20
-53.651472565073945
40
0.06
0
CIRCLE
8
P3
10
16.167664670658652
20
-55.80716118782844
40
0.06
0
CIRCLE
8
P3
10
19.940119760478993
20
-53.651472565073945
40
0.06
0
CIRCLE
8
P3
10
16.167664670658652
20
-54.84907735549308
40
0.06
0
CIRCLE
8
P3
10
20.29940119760478
20
-55.68740070878652
40
0.06
0
CIRCLE
8
P3
10
16.167664670658652
20
-53.89099352315777
40
0.06
0
CIRCLE
8
P3
10
20.796407185628752
20
-55.68740070878652
40
0.06
0
CIRCLE
8
P3
10
16.167664670658652
20
-53.41195160699009
40
0.06
0
CIRCLE
8
P3
10
18.02395209580841
20
-53.651472565073945
40
0.06
0
CIRCLE
8
P3
10
16.167664670658652
20
-54.37003543932543
40
0.06
0
CIRCLE
8
P3
10
17.714857514810646
20
-53.34237798407622
40
0.06
0
CIRCLE
8
P3
10
16.167664670658652
20
-55.32811927166074
40
0.06
0
CIRCLE
8
P3
10
17.425149700598794
20
-55.68740070878652
40
0.06
0
CIRCLE
8
P3
10
16.167664670658652
20
-56.28620310399609
40
0.06
0
CIRCLE
8
P3
10
27.82638810928576
20
-55.2378656463574
40
0.06
0
CIRCLE
8
P3
10
22.317365269461064
20
-55.68740070878652
40
0.06
0
CIRCLE
8
P3
10
25.089820359281433
20
-53.651472565073945
40
0.06
0
CIRCLE
8
P3
10
22.814371257485035
20
-55.68740070878652
40
0.06
0
CIRCLE
8
P3
10
25.39891494027917
20
-53.34237798407622
40
0.06
0
CIRCLE
8
P3
10
23.173652694610823
20
-53.651472565073945
40
0.06
0
CIRCLE
8
P3
10
25.68862275449105
20
-55.68740070878652
40
0.06
0
CIRCLE
8
P3
10
22.736526946107787
20
-53.651472565073945
40
0.06
0
CIRCLE
8
P3
10
26.06582745957654
20
-55.2378656463574
40
0.06
0
CIRCLE
8
P3
10
26.946107784431106
20
-56.76524502016376
40
0.06
0
CIRCLE
8
P3
10
31.155688622754482
20
-53.651472565073945
40
0.06
0
CIRCLE
8
P3
10
26.946107784431106
20
-55.80716118782844
40
0.06
0
CIRCLE
8
P3
10
30.718562874251475
20
-53.651472565073945
40
0.06
0
CIRCLE
8
P3
10
26.946107784431106
20
-54.84907735549308
40
0.06
0
CIRCLE
8
P3
10
31.077844311377262
20
-55.68740070878652
40
0.06
0
CIRCLE
8
P3
10
26.946107784431106
20
-53.89099352315777
40
0.06
0
CIRCLE
8
P3
10
31.574850299401234
20
-55.68740070878652
40
0.06
0
CIRCLE
8
P3
10
26.946107784431106
20
-53.41195160699009
40
0.06
0
CIRCLE
8
P3
10
28.802395209580837
20
-53.651472565073945
40
0.06
0
CIRCLE
8
P3
10
26.946107784431106
20
-54.37003543932543
40
0.06
0
CIRCLE
8
P3
10
28.49330062858313
20
-53.34237798407622
40
0.06
0
CIRCLE
8
P3
10
26.946107784431106
20
-55.32811927166074
40
0.06
0
CIRCLE
8
P3
10
28.203592814371248
20
-55.68740070878652
40
0.06
0
CIRCLE
8
P3
10
26.946107784431106
20
-56.28620310399609
40
0.06
0
CIRCLE
8
P3
10
38.60483122305821
20
-55.2378656463574
40
0.06
0
CIRCLE
8
P3
10
33.09580838323349
20
-55.68740070878652
40
0.06
0
CIRCLE
8
P3
10
35.86826347305394
20
-53.651472565073945
40
0.06
0
CIRCLE
8
P3
10
33.59281437125746
20
-55.68740070878652
40
0.06
0
CIRCLE
8
P3
10
36.17735805405162
20
-53.34237798407622
40
0.06
0
CIRCLE
8
P3
10
33.95209580838328
20
-53.651472565073945
40
0.06
0
CIRCLE
8
P3
10
36.467065868263504
20
-55.68740070878652
40
0.06
0
CIRCLE
8
P3
10
33.51497005988024
20
-53.651472565073945
40
0.06
0
CIRCLE
8
P3
10
36.844270573348965
20
-55.2378656463574
40
0.06
0
CIRCLE
8
P3
10
37.72455089820356
20
-56.76524502016376
40
0.06
0
CIRCLE
8
P3
10
41.93413173652699
20
-53.651472565073945
40
0.06
0
CIRCLE
8
P3
10
37.72455089820356
20
-55.80716118782844
40
0.06
0
CIRCLE
8
P3
10
41.49700598802393
20
-53.651472565073945
40
0.06
0
CIRCLE
8
P3
10
37.72455089820356
20
-54.84907735549308
40
0.06
0
CIRCLE
8
P3
10
41.856287425149716
20
-55.68740070878652
40
0.06
0
CIRCLE
8
P3
10
37.72455089820356
20
-53.89099352315777
40
0.06
0
CIRCLE
8
P3
10
42.353293413173716
20
-55.68740070878652
40
0.06
0
CIRCLE
8
P3
10
37.72455089820356
20
-53.41195160699009
40
0.06
0
CIRCLE
8
P3
10
39.58083832335332
20
-53.651472565073945
40
0.06
0
CIRCLE
8
P3
10
37.72455089820356
20
-54.37003543932543
40
0.06
0
CIRCLE
8
P3
10
39.27174374235558
20
-53.34237798407622
40
0.06
0
CIRCLE
8
P3
10
37.72455089820356
20
-55.32811927166074
40
0.06
0
CIRCLE
8
P3
10
38.98203592814373
20
-55.68740070878652
40
0.06
0
CIRCLE
8
P3
10
37.72455089820356
20
-56.28620310399609
40
0.06
0
CIRCLE
8
P3
10
49.38327433683064
20
-55.2378656463574
40
0.06
0
CIRCLE
8
P3
10
43.87425149700597
20
-55.68740070878652
40
0.06
0
CIRCLE
8
P3
10
46.6467065868264
20
-53.651472565073945
40
0.06
0
CIRCLE
8
P3
10
44.37125748502994
20
-55.68740070878652
40
0.06
0
CIRCLE
8
P3
10
46.95580116782405
20
-53.34237798407622
40
0.06
0
CIRCLE
8
P3
10
44.73053892215573
20
-53.651472565073945
40
0.06
0
CIRCLE
8
P3
10
47.245508982035986
20
-55.68740070878652
40
0.06
0
CIRCLE
8
P3
10
44.293413173652695
20
-53.651472565073945
40
0.06
0
CIRCLE
8
P3
10
47.62271368712145
20
-55.2378656463574
40
0.06
0
CIRCLE
8
P3
10
48.50299401197604
20
-56.76524502016376
40
0.06
0
CIRCLE
8
P3
10
52.712574850299475
20
-53.651472565073945
40
0.06
0
CIRCLE
8
P3
10
48.50299401197604
20
-55.80716118782844
40
0.06
0
CIRCLE
8
P3
10
52.275449101796355
20
-53.651472565073945
40
0.06
0
CIRCLE
8
P3
10
48.50299401197604
20
-54.84907735549308
40
0.06
0
CIRCLE
8
P3
10
52.63473053892214
20
-55.68740070878652
40
0.06
0
CIRCLE
8
P3
10
48.50299401197604
20
-53.89099352315777
40
0.06
0
CIRCLE
8
P3
10
53.13173652694614
20
-55.68740070878652
40
0.06
0
CIRCLE
8
P3
10
48.50299401197604
20
-53.41195160699009
40
0.06
0
CIRCLE
8
P3
10
50.359281437125745
20
-53.651472565073945
40
0.06
0
CIRCLE
8
P3
10
48.50299401197604
20
-54.37003543932543
40
0.06
0
CIRCLE
8
P3
10
50.05018685612801
20
-53.34237798407622
40
0.06
0
CIRCLE
8
P3
10
48.50299401197604
20
-55.32811927166074
40
0.06
0
CIRCLE
8
P3
10
49.76047904191613
20
-55.68740070878652
40
0.06
0
CIRCLE
8
P3
10
48.50299401197604
20
-56.28620310399609
40
0.06
0
ENDBLK
0
ENDSEC
0
SECTION
2
ENTITIES
0
INSERT
2
LDI_XFL94-0512-011_P3_B1
8
P3
10
0
20
0.0
30
0
0
INSERT
2
LDI_XFL94-0512-011_P3_B1
8
P3
10
0
20
4.790419161676647
30
0
0
INSERT
2
LDI_XFL94-0512-011_P3_B1
8
P3
10
0
20
9.580838323353294
30
0
0
INSERT
2
LDI_XFL94-0512-011_P3_B1
8
P3
10
0
20
14.371257485029941
30
0
0
INSERT
2
LDI_XFL94-0512-011_P3_B1
8
P3
10
0
20
19.16167664670659
30
0
0
INSERT
2
LDI_XFL94-0512-011_P3_B1
8
P3
10
0
20
23.952095808383234
30
0
0
INSERT
2
LDI_XFL94-0512-011_P3_B1
8
P3
10
0
20
28.742514970059883
30
0
0
INSERT
2
LDI_XFL94-0512-011_P3_B1
8
P3
10
0
20
33.53293413173653
30
0
0
INSERT
2
LDI_XFL94-0512-011_P3_B1
8
P3
10
0
20
38.32335329341318
30
0
0
INSERT
2
LDI_XFL94-0512-011_P3_B1
8
P3
10
0
20
43.11377245508982
30
0
0
INSERT
2
LDI_XFL94-0512-011_P3_B1
8
P3
10
0
20
47.90419161676647
30
0
0
INSERT
2
LDI_XFL94-0512-011_P3_B1
8
P3
10
0
20
52.69461077844312
30
0
0
INSERT
2
LDI_XFL94-0512-011_P3_B1
8
P3
10
0
20
57.485029940119766
30
0
0
INSERT
2
LDI_XFL94-0512-011_P3_B1
8
P3
10
0
20
62.27544910179641
30
0
0
INSERT
2
LDI_XFL94-0512-011_P3_B1
8
P3
10
0
20
67.06586826347306
30
0
0
INSERT
2
LDI_XFL94-0512-011_P3_B1
8
P3
10
0
20
71.8562874251497
30
0
0
INSERT
2
LDI_XFL94-0512-011_P3_B1
8
P3
10
0
20
76.64670658682635
30
0
0
INSERT
2
LDI_XFL94-0512-011_P3_B1
8
P3
10
0
20
81.43712574850301
30
0
0
INSERT
2
LDI_XFL94-0512-011_P3_B1
8
P3
10
0
20
86.22754491017965
30
0
0
INSERT
2
LDI_XFL94-0512-011_P3_B1
8
P3
10
0
20
91.0179640718563
30
0
0
INSERT
2
LDI_XFL94-0512-011_P3_B1
8
P3
10
0
20
95.80838323353294
30
0
0
INSERT
2
LDI_XFL94-0512-011_P3_B1
8
P3
10
0
20
100.59880239520959
30
0
0
INSERT
2
LDI_XFL94-0512-011_P3_B1
8
P3
10
0
20
105.38922155688624
30
0
0
INSERT
2
LDI_XFL94-0512-011_P3_B1
8
P3
10
0
20
110.17964071856288
30
0
0
POLYLINE
8
P3
66
1
70
1
40
0.1
41
0.1
0
VERTEX
8
P3
10
-61.5
20
-61.2
42
1.0
0
VERTEX
8
P3
10
-60.900000000000006
20
-61.2
42
1.0
0
SEQEND
0
POLYLINE
8
P3
66
1
70
1
40
0.1
41
0.1
0
VERTEX
8
P3
10
-61.5
20
61.2
42
1.0
0
VERTEX
8
P3
10
-60.900000000000006
20
61.2
42
1.0
0
SEQEND
0
POLYLINE
8
P3
66
1
70
1
40
0.1
41
0.1
0
VERTEX
8
P3
10
60.90000000000002
20
-61.2
42
1.0
0
VERTEX
8
P3
10
61.499999999999986
20
-61.2
42
1.0
0
SEQEND
0
POLYLINE
8
P3
66
1
70
1
40
0.1
41
0.1
0
VERTEX
8
P3
10
60.90000000000002
20
61.2
42
1.0
0
VERTEX
8
P3
10
61.499999999999986
20
61.2
42
1.0
0
SEQEND
0
TEXT
8
P3
10
-10.5
20
66.7
40
1.5
1
XFL94-0512-011-P3
0
POLYLINE
8
P3
66
1
70
1
0
VERTEX
8
P3
10
-100.0
20
100.0
30
0
40
1
41
1
0
VERTEX
8
P3
10
100.0
20
100.0
30
0
40
1
41
1
0
VERTEX
8
P3
10
100.0
20
-100.0
30
0
40
1
41
1
0
VERTEX
8
P3
10
-100.0
20
-100.0
30
0
40
1
41
1
0
SEQEND
0
ENDSEC
0
EOF
