0
SECTION
2
HEADER
9
$ACADVER
1
AC1006
9
$INSBASE
10
0.0
20
0.0
30
0.0
9
$EXTMIN
10
-104.20359281437126
20
-104.20359281437126
9
$EXTMAX
10
104.20359281437126
20
114.38323353293414
0
ENDSEC
0
SECTION
2
TABLES
0
TABLE
2
LTYPE
70
1
0
LTYPE
2
CONTINUOUS
70
64
3
Solid line
72
65
73
0
40
0.0
0
ENDTAB
0
TABLE
2
LAYER
70
3
0
LAYER
2
0
70
0
62
255
6
continuous
0
LAYER
2
0
70
0
62
7
6
continuous
0
LAYER
2
H2
70
0
62
7
6
continuous
0
ENDTAB
0
TABLE
2
STYLE
70
2
0
STYLE
2
STANDARD
70
0
40
0
41
1
50
0
71
0
42
1
3
ARIAL.TTF
4

0
STYLE
2
STANDARD
70
0
40
0
41
1
50
0
71
0
42
1
3
ARIAL.TTF
4

0
ENDTAB
0
TABLE
2
VIEW
70
1
0
VIEW
2
Normal
70
0
40
1
10
0.5
20
0.5
41
1
11
0
21
0
31
1
12
0
22
0
32
0
42
50
43
0
44
0
50
0
71
0
0
ENDTAB
0
ENDSEC
0
SECTION
2
BLOCKS
0
BLOCK
8
0
2
cutlineendpoint
70
0
10
0
20
0
30
0
3
cutlineendpoint
0
POLYLINE
8
0
66
1
70
1
40
0.04
41
0.04
0
VERTEX
8
0
10
-0.02
20
0
30
0
42
1.0
0
VERTEX
8
0
10
0.02
20
0
30
0
42
1.0
0
SEQEND
0
ENDBLK
0
BLOCK
8
H2
2
LDI_XFL94-0512-011_H2_B1
70
0
10
0
20
0
30
0
3
LDI_XFL94-0512-011_H2_B1
0
CIRCLE
8
H2
10
-47.83233532934134
20
-55.68740070878652
40
0.075
0
CIRCLE
8
H2
10
-53.13173652694613
20
-55.68740070878652
40
0.075
0
CIRCLE
8
H2
10
-50.35928143712576
20
-53.651472565073945
40
0.075
0
CIRCLE
8
H2
10
-52.634730538922156
20
-55.68740070878652
40
0.075
0
CIRCLE
8
H2
10
-49.922155688622766
20
-53.651472565073945
40
0.075
0
CIRCLE
8
H2
10
-52.275449101796426
20
-53.651472565073945
40
0.075
0
CIRCLE
8
H2
10
-49.76047904191616
20
-55.68740070878652
40
0.075
0
CIRCLE
8
H2
10
-52.712574850299404
20
-53.651472565073945
40
0.075
0
CIRCLE
8
H2
10
-49.173652694610766
20
-55.68740070878652
40
0.075
0
CIRCLE
8
H2
10
-48.50299401197605
20
-56.76524502016376
40
0.075
0
CIRCLE
8
H2
10
-44.29341317365268
20
-53.651472565073945
40
0.075
0
CIRCLE
8
H2
10
-48.50299401197605
20
-55.80716118782844
40
0.075
0
CIRCLE
8
H2
10
-44.73053892215569
20
-53.651472565073945
40
0.075
0
CIRCLE
8
H2
10
-48.50299401197605
20
-54.84907735549308
40
0.075
0
CIRCLE
8
H2
10
-44.37125748502993
20
-55.68740070878652
40
0.075
0
CIRCLE
8
H2
10
-48.50299401197605
20
-53.89099352315777
40
0.075
0
CIRCLE
8
H2
10
-43.874251497005986
20
-55.68740070878652
40
0.075
0
CIRCLE
8
H2
10
-48.50299401197605
20
-53.41195160699009
40
0.075
0
CIRCLE
8
H2
10
-46.64670658682634
20
-53.651472565073945
40
0.075
0
CIRCLE
8
H2
10
-48.50299401197605
20
-54.37003543932543
40
0.075
0
CIRCLE
8
H2
10
-47.083832335329305
20
-53.651472565073945
40
0.075
0
CIRCLE
8
H2
10
-48.50299401197605
20
-55.32811927166075
40
0.075
0
CIRCLE
8
H2
10
-47.245508982035915
20
-55.68740070878652
40
0.075
0
CIRCLE
8
H2
10
-48.50299401197605
20
-56.2862031039961
40
0.075
0
CIRCLE
8
H2
10
-37.053892215568865
20
-55.68740070878652
40
0.075
0
CIRCLE
8
H2
10
-42.353293413173674
20
-55.68740070878652
40
0.075
0
CIRCLE
8
H2
10
-39.58083832335329
20
-53.651472565073945
40
0.075
0
CIRCLE
8
H2
10
-41.856287425149716
20
-55.68740070878652
40
0.075
0
CIRCLE
8
H2
10
-39.14371257485031
20
-53.651472565073945
40
0.075
0
CIRCLE
8
H2
10
-41.49700598802396
20
-53.651472565073945
40
0.075
0
CIRCLE
8
H2
10
-38.982035928143716
20
-55.68740070878652
40
0.075
0
CIRCLE
8
H2
10
-41.93413173652695
20
-53.651472565073945
40
0.075
0
CIRCLE
8
H2
10
-38.3952095808383
20
-55.68740070878652
40
0.075
0
CIRCLE
8
H2
10
-37.72455089820359
20
-56.76524502016376
40
0.075
0
CIRCLE
8
H2
10
-33.51497005988023
20
-53.651472565073945
40
0.075
0
CIRCLE
8
H2
10
-37.72455089820359
20
-55.80716118782844
40
0.075
0
CIRCLE
8
H2
10
-33.952095808383234
20
-53.651472565073945
40
0.075
0
CIRCLE
8
H2
10
-37.72455089820359
20
-54.84907735549308
40
0.075
0
CIRCLE
8
H2
10
-33.592814371257475
20
-55.68740070878652
40
0.075
0
CIRCLE
8
H2
10
-37.72455089820359
20
-53.89099352315777
40
0.075
0
CIRCLE
8
H2
10
-33.0958083832335
20
-55.68740070878652
40
0.075
0
CIRCLE
8
H2
10
-37.72455089820359
20
-53.41195160699009
40
0.075
0
CIRCLE
8
H2
10
-35.86826347305389
20
-53.651472565073945
40
0.075
0
CIRCLE
8
H2
10
-37.72455089820359
20
-54.37003543932543
40
0.075
0
CIRCLE
8
H2
10
-36.305389221556865
20
-53.651472565073945
40
0.075
0
CIRCLE
8
H2
10
-37.72455089820359
20
-55.32811927166075
40
0.075
0
CIRCLE
8
H2
10
-36.46706586826349
20
-55.68740070878652
40
0.075
0
CIRCLE
8
H2
10
-37.72455089820359
20
-56.2862031039961
40
0.075
0
CIRCLE
8
H2
10
-26.275449101796397
20
-55.68740070878652
40
0.075
0
CIRCLE
8
H2
10
-31.574850299401206
20
-55.68740070878652
40
0.075
0
CIRCLE
8
H2
10
-28.802395209580837
20
-53.651472565073945
40
0.075
0
CIRCLE
8
H2
10
-31.077844311377262
20
-55.68740070878652
40
0.075
0
CIRCLE
8
H2
10
-28.365269461077858
20
-53.651472565073945
40
0.075
0
CIRCLE
8
H2
10
-30.71856287425149
20
-53.651472565073945
40
0.075
0
CIRCLE
8
H2
10
-28.203592814371262
20
-55.68740070878652
40
0.075
0
CIRCLE
8
H2
10
-31.15568862275451
20
-53.651472565073945
40
0.075
0
CIRCLE
8
H2
10
-27.616766467065844
20
-55.68740070878652
40
0.075
0
CIRCLE
8
H2
10
-26.946107784431135
20
-56.76524502016376
40
0.075
0
CIRCLE
8
H2
10
-22.736526946107787
20
-53.651472565073945
40
0.075
0
CIRCLE
8
H2
10
-26.946107784431135
20
-55.80716118782844
40
0.075
0
CIRCLE
8
H2
10
-23.17365269461078
20
-53.651472565073945
40
0.075
0
CIRCLE
8
H2
10
-26.946107784431135
20
-54.84907735549308
40
0.075
0
CIRCLE
8
H2
10
-22.814371257485035
20
-55.68740070878652
40
0.075
0
CIRCLE
8
H2
10
-26.946107784431135
20
-53.89099352315777
40
0.075
0
CIRCLE
8
H2
10
-22.317365269461035
20
-55.68740070878652
40
0.075
0
CIRCLE
8
H2
10
-26.946107784431135
20
-53.41195160699009
40
0.075
0
CIRCLE
8
H2
10
-25.08982035928142
20
-53.651472565073945
40
0.075
0
CIRCLE
8
H2
10
-26.946107784431135
20
-54.37003543932543
40
0.075
0
CIRCLE
8
H2
10
-25.52694610778441
20
-53.651472565073945
40
0.075
0
CIRCLE
8
H2
10
-26.946107784431135
20
-55.32811927166075
40
0.075
0
CIRCLE
8
H2
10
-25.68862275449102
20
-55.68740070878652
40
0.075
0
CIRCLE
8
H2
10
-26.946107784431135
20
-56.2862031039961
40
0.075
0
CIRCLE
8
H2
10
-15.497005988023972
20
-55.68740070878652
40
0.075
0
CIRCLE
8
H2
10
-20.796407185628766
20
-55.68740070878652
40
0.075
0
CIRCLE
8
H2
10
-18.023952095808355
20
-53.651472565073945
40
0.075
0
CIRCLE
8
H2
10
-20.29940119760481
20
-55.68740070878652
40
0.075
0
CIRCLE
8
H2
10
-17.586826347305404
20
-53.651472565073945
40
0.075
0
CIRCLE
8
H2
10
-19.94011976047902
20
-53.651472565073945
40
0.075
0
CIRCLE
8
H2
10
-17.425149700598794
20
-55.68740070878652
40
0.075
0
CIRCLE
8
H2
10
-20.377245508982057
20
-53.651472565073945
40
0.075
0
CIRCLE
8
H2
10
-16.83832335329342
20
-55.68740070878652
40
0.075
0
CIRCLE
8
H2
10
-16.16766467065868
20
-56.76524502016376
40
0.075
0
CIRCLE
8
H2
10
-11.95808383233532
20
-53.651472565073945
40
0.075
0
CIRCLE
8
H2
10
-16.16766467065868
20
-55.80716118782844
40
0.075
0
CIRCLE
8
H2
10
-12.395209580838298
20
-53.651472565073945
40
0.075
0
CIRCLE
8
H2
10
-16.16766467065868
20
-54.84907735549308
40
0.075
0
CIRCLE
8
H2
10
-12.035928143712553
20
-55.68740070878652
40
0.075
0
CIRCLE
8
H2
10
-16.16766467065868
20
-53.89099352315777
40
0.075
0
CIRCLE
8
H2
10
-11.538922155688596
20
-55.68740070878652
40
0.075
0
CIRCLE
8
H2
10
-16.16766467065868
20
-53.41195160699009
40
0.075
0
CIRCLE
8
H2
10
-14.311377245508979
20
-53.651472565073945
40
0.075
0
CIRCLE
8
H2
10
-16.16766467065868
20
-54.37003543932543
40
0.075
0
CIRCLE
8
H2
10
-14.748502994011986
20
-53.651472565073945
40
0.075
0
CIRCLE
8
H2
10
-16.16766467065868
20
-55.32811927166075
40
0.075
0
CIRCLE
8
H2
10
-14.910179640718582
20
-55.68740070878652
40
0.075
0
CIRCLE
8
H2
10
-16.16766467065868
20
-56.2862031039961
40
0.075
0
CIRCLE
8
H2
10
-4.718562874251489
20
-55.68740070878652
40
0.075
0
CIRCLE
8
H2
10
-10.017964071856255
20
-55.68740070878652
40
0.075
0
CIRCLE
8
H2
10
-7.245508982035915
20
-53.651472565073945
40
0.075
0
CIRCLE
8
H2
10
-9.520958083832383
20
-55.68740070878652
40
0.075
0
CIRCLE
8
H2
10
-6.808383233532965
20
-53.651472565073945
40
0.075
0
CIRCLE
8
H2
10
-9.161676646706582
20
-53.651472565073945
40
0.075
0
CIRCLE
8
H2
10
-6.64670658682634
20
-55.68740070878652
40
0.075
0
CIRCLE
8
H2
10
-9.598802395209589
20
-53.651472565073945
40
0.075
0
CIRCLE
8
H2
10
-6.0598802395209646
20
-55.68740070878652
40
0.075
0
CIRCLE
8
H2
10
-5.389221556886227
20
-56.76524502016376
40
0.075
0
CIRCLE
8
H2
10
-1.179640718562851
20
-53.651472565073945
40
0.075
0
CIRCLE
8
H2
10
-5.389221556886227
20
-55.80716118782844
40
0.075
0
CIRCLE
8
H2
10
-1.616766467065844
20
-53.651472565073945
40
0.075
0
CIRCLE
8
H2
10
-5.389221556886227
20
-54.84907735549308
40
0.075
0
CIRCLE
8
H2
10
-1.2574850299401277
20
-55.68740070878652
40
0.075
0
CIRCLE
8
H2
10
-5.389221556886227
20
-53.89099352315777
40
0.075
0
CIRCLE
8
H2
10
-0.7604790419161418
20
-55.68740070878652
40
0.075
0
CIRCLE
8
H2
10
-5.389221556886227
20
-53.41195160699009
40
0.075
0
CIRCLE
8
H2
10
-3.532934131736525
20
-53.651472565073945
40
0.075
0
CIRCLE
8
H2
10
-5.389221556886227
20
-54.37003543932543
40
0.075
0
CIRCLE
8
H2
10
-3.970059880239532
20
-53.651472565073945
40
0.075
0
CIRCLE
8
H2
10
-5.389221556886227
20
-55.32811927166075
40
0.075
0
CIRCLE
8
H2
10
-4.131736526946099
20
-55.68740070878652
40
0.075
0
CIRCLE
8
H2
10
-5.389221556886227
20
-56.2862031039961
40
0.075
0
CIRCLE
8
H2
10
6.059880239520979
20
-55.68740070878652
40
0.075
0
CIRCLE
8
H2
10
0.7604790419161702
20
-55.68740070878652
40
0.075
0
CIRCLE
8
H2
10
3.5329341317365675
20
-53.651472565073945
40
0.075
0
CIRCLE
8
H2
10
1.2574850299400566
20
-55.68740070878652
40
0.075
0
CIRCLE
8
H2
10
3.9700598802395035
20
-53.651472565073945
40
0.075
0
CIRCLE
8
H2
10
1.6167664670658866
20
-53.651472565073945
40
0.075
0
CIRCLE
8
H2
10
4.131736526946142
20
-55.68740070878652
40
0.075
0
CIRCLE
8
H2
10
1.1796407185628652
20
-53.651472565073945
40
0.075
0
CIRCLE
8
H2
10
4.718562874251475
20
-55.68740070878652
40
0.075
0
CIRCLE
8
H2
10
5.389221556886213
20
-56.76524502016376
40
0.075
0
CIRCLE
8
H2
10
9.598802395209646
20
-53.651472565073945
40
0.075
0
CIRCLE
8
H2
10
5.389221556886213
20
-55.80716118782844
40
0.075
0
CIRCLE
8
H2
10
9.161676646706582
20
-53.651472565073945
40
0.075
0
CIRCLE
8
H2
10
5.389221556886213
20
-54.84907735549308
40
0.075
0
CIRCLE
8
H2
10
9.520958083832326
20
-55.68740070878652
40
0.075
0
CIRCLE
8
H2
10
5.389221556886213
20
-53.89099352315777
40
0.075
0
CIRCLE
8
H2
10
10.017964071856312
20
-55.68740070878652
40
0.075
0
CIRCLE
8
H2
10
5.389221556886213
20
-53.41195160699009
40
0.075
0
CIRCLE
8
H2
10
7.245508982035929
20
-53.651472565073945
40
0.075
0
CIRCLE
8
H2
10
5.389221556886213
20
-54.37003543932543
40
0.075
0
CIRCLE
8
H2
10
6.808383233532908
20
-53.651472565073945
40
0.075
0
CIRCLE
8
H2
10
5.389221556886213
20
-55.32811927166075
40
0.075
0
CIRCLE
8
H2
10
6.646706586826326
20
-55.68740070878652
40
0.075
0
CIRCLE
8
H2
10
5.389221556886213
20
-56.2862031039961
40
0.075
0
CIRCLE
8
H2
10
16.838323353293433
20
-55.68740070878652
40
0.075
0
CIRCLE
8
H2
10
11.538922155688596
20
-55.68740070878652
40
0.075
0
CIRCLE
8
H2
10
14.311377245508993
20
-53.651472565073945
40
0.075
0
CIRCLE
8
H2
10
12.035928143712539
20
-55.68740070878652
40
0.075
0
CIRCLE
8
H2
10
14.748502994011986
20
-53.651472565073945
40
0.075
0
CIRCLE
8
H2
10
12.395209580838326
20
-53.651472565073945
40
0.075
0
CIRCLE
8
H2
10
14.910179640718624
20
-55.68740070878652
40
0.075
0
CIRCLE
8
H2
10
11.95808383233532
20
-53.651472565073945
40
0.075
0
CIRCLE
8
H2
10
15.497005988023915
20
-55.68740070878652
40
0.075
0
CIRCLE
8
H2
10
16.167664670658652
20
-56.76524502016376
40
0.075
0
CIRCLE
8
H2
10
20.377245508982057
20
-53.651472565073945
40
0.075
0
CIRCLE
8
H2
10
16.167664670658652
20
-55.80716118782844
40
0.075
0
CIRCLE
8
H2
10
19.940119760478993
20
-53.651472565073945
40
0.075
0
CIRCLE
8
H2
10
16.167664670658652
20
-54.84907735549308
40
0.075
0
CIRCLE
8
H2
10
20.29940119760478
20
-55.68740070878652
40
0.075
0
CIRCLE
8
H2
10
16.167664670658652
20
-53.89099352315777
40
0.075
0
CIRCLE
8
H2
10
20.796407185628752
20
-55.68740070878652
40
0.075
0
CIRCLE
8
H2
10
16.167664670658652
20
-53.41195160699009
40
0.075
0
CIRCLE
8
H2
10
18.02395209580841
20
-53.651472565073945
40
0.075
0
CIRCLE
8
H2
10
16.167664670658652
20
-54.37003543932543
40
0.075
0
CIRCLE
8
H2
10
17.586826347305347
20
-53.651472565073945
40
0.075
0
CIRCLE
8
H2
10
16.167664670658652
20
-55.32811927166075
40
0.075
0
CIRCLE
8
H2
10
17.425149700598794
20
-55.68740070878652
40
0.075
0
CIRCLE
8
H2
10
16.167664670658652
20
-56.2862031039961
40
0.075
0
CIRCLE
8
H2
10
27.616766467065887
20
-55.68740070878652
40
0.075
0
CIRCLE
8
H2
10
22.317365269461007
20
-55.68740070878652
40
0.075
0
CIRCLE
8
H2
10
25.089820359281433
20
-53.651472565073945
40
0.075
0
CIRCLE
8
H2
10
22.814371257485007
20
-55.68740070878652
40
0.075
0
CIRCLE
8
H2
10
25.52694610778444
20
-53.651472565073945
40
0.075
0
CIRCLE
8
H2
10
23.173652694610794
20
-53.651472565073945
40
0.075
0
CIRCLE
8
H2
10
25.68862275449105
20
-55.68740070878652
40
0.075
0
CIRCLE
8
H2
10
22.73652694610776
20
-53.651472565073945
40
0.075
0
CIRCLE
8
H2
10
26.275449101796383
20
-55.68740070878652
40
0.075
0
CIRCLE
8
H2
10
26.946107784431078
20
-56.76524502016376
40
0.075
0
CIRCLE
8
H2
10
31.15568862275451
20
-53.651472565073945
40
0.075
0
CIRCLE
8
H2
10
26.946107784431078
20
-55.80716118782844
40
0.075
0
CIRCLE
8
H2
10
30.718562874251475
20
-53.651472565073945
40
0.075
0
CIRCLE
8
H2
10
26.946107784431078
20
-54.84907735549308
40
0.075
0
CIRCLE
8
H2
10
31.077844311377262
20
-55.68740070878652
40
0.075
0
CIRCLE
8
H2
10
26.946107784431078
20
-53.89099352315777
40
0.075
0
CIRCLE
8
H2
10
31.574850299401234
20
-55.68740070878652
40
0.075
0
CIRCLE
8
H2
10
26.946107784431078
20
-53.41195160699009
40
0.075
0
CIRCLE
8
H2
10
28.802395209580837
20
-53.651472565073945
40
0.075
0
CIRCLE
8
H2
10
26.946107784431078
20
-54.37003543932543
40
0.075
0
CIRCLE
8
H2
10
28.36526946107783
20
-53.651472565073945
40
0.075
0
CIRCLE
8
H2
10
26.946107784431078
20
-55.32811927166075
40
0.075
0
CIRCLE
8
H2
10
28.20359281437122
20
-55.68740070878652
40
0.075
0
CIRCLE
8
H2
10
26.946107784431078
20
-56.2862031039961
40
0.075
0
CIRCLE
8
H2
10
38.39520958083834
20
-55.68740070878652
40
0.075
0
CIRCLE
8
H2
10
33.09580838323349
20
-55.68740070878652
40
0.075
0
CIRCLE
8
H2
10
35.868263473053915
20
-53.651472565073945
40
0.075
0
CIRCLE
8
H2
10
33.59281437125746
20
-55.68740070878652
40
0.075
0
CIRCLE
8
H2
10
36.305389221556894
20
-53.651472565073945
40
0.075
0
CIRCLE
8
H2
10
33.95209580838328
20
-53.651472565073945
40
0.075
0
CIRCLE
8
H2
10
36.467065868263475
20
-55.68740070878652
40
0.075
0
CIRCLE
8
H2
10
33.51497005988024
20
-53.651472565073945
40
0.075
0
CIRCLE
8
H2
10
37.05389221556884
20
-55.68740070878652
40
0.075
0
CIRCLE
8
H2
10
37.72455089820356
20
-56.76524502016376
40
0.075
0
CIRCLE
8
H2
10
41.93413173652699
20
-53.651472565073945
40
0.075
0
CIRCLE
8
H2
10
37.72455089820356
20
-55.80716118782844
40
0.075
0
CIRCLE
8
H2
10
41.49700598802393
20
-53.651472565073945
40
0.075
0
CIRCLE
8
H2
10
37.72455089820356
20
-54.84907735549308
40
0.075
0
CIRCLE
8
H2
10
41.856287425149716
20
-55.68740070878652
40
0.075
0
CIRCLE
8
H2
10
37.72455089820356
20
-53.89099352315777
40
0.075
0
CIRCLE
8
H2
10
42.353293413173716
20
-55.68740070878652
40
0.075
0
CIRCLE
8
H2
10
37.72455089820356
20
-53.41195160699009
40
0.075
0
CIRCLE
8
H2
10
39.58083832335332
20
-53.651472565073945
40
0.075
0
CIRCLE
8
H2
10
37.72455089820356
20
-54.37003543932543
40
0.075
0
CIRCLE
8
H2
10
39.143712574850284
20
-53.651472565073945
40
0.075
0
CIRCLE
8
H2
10
37.72455089820356
20
-55.32811927166075
40
0.075
0
CIRCLE
8
H2
10
38.98203592814373
20
-55.68740070878652
40
0.075
0
CIRCLE
8
H2
10
37.72455089820356
20
-56.2862031039961
40
0.075
0
CIRCLE
8
H2
10
49.17365269461082
20
-55.68740070878652
40
0.075
0
CIRCLE
8
H2
10
43.87425149700594
20
-55.68740070878652
40
0.075
0
CIRCLE
8
H2
10
46.6467065868264
20
-53.651472565073945
40
0.075
0
CIRCLE
8
H2
10
44.371257485029915
20
-55.68740070878652
40
0.075
0
CIRCLE
8
H2
10
47.08383233532935
20
-53.651472565073945
40
0.075
0
CIRCLE
8
H2
10
44.73053892215573
20
-53.651472565073945
40
0.075
0
CIRCLE
8
H2
10
47.245508982035986
20
-55.68740070878652
40
0.075
0
CIRCLE
8
H2
10
44.29341317365267
20
-53.651472565073945
40
0.075
0
CIRCLE
8
H2
10
47.83233532934129
20
-55.68740070878652
40
0.075
0
CIRCLE
8
H2
10
48.502994011976014
20
-56.76524502016376
40
0.075
0
CIRCLE
8
H2
10
52.712574850299475
20
-53.651472565073945
40
0.075
0
CIRCLE
8
H2
10
48.502994011976014
20
-55.80716118782844
40
0.075
0
CIRCLE
8
H2
10
52.275449101796355
20
-53.651472565073945
40
0.075
0
CIRCLE
8
H2
10
48.502994011976014
20
-54.84907735549308
40
0.075
0
CIRCLE
8
H2
10
52.63473053892214
20
-55.68740070878652
40
0.075
0
CIRCLE
8
H2
10
48.502994011976014
20
-53.89099352315777
40
0.075
0
CIRCLE
8
H2
10
53.13173652694617
20
-55.68740070878652
40
0.075
0
CIRCLE
8
H2
10
48.502994011976014
20
-53.41195160699009
40
0.075
0
CIRCLE
8
H2
10
50.359281437125745
20
-53.651472565073945
40
0.075
0
CIRCLE
8
H2
10
48.502994011976014
20
-54.37003543932543
40
0.075
0
CIRCLE
8
H2
10
49.922155688622766
20
-53.651472565073945
40
0.075
0
CIRCLE
8
H2
10
48.502994011976014
20
-55.32811927166075
40
0.075
0
CIRCLE
8
H2
10
49.76047904191613
20
-55.68740070878652
40
0.075
0
CIRCLE
8
H2
10
48.502994011976014
20
-56.2862031039961
40
0.075
0
ENDBLK
0
ENDSEC
0
SECTION
2
ENTITIES
0
INSERT
2
LDI_XFL94-0512-011_H2_B1
8
H2
10
0
20
0.0
30
0
0
INSERT
2
LDI_XFL94-0512-011_H2_B1
8
H2
10
0
20
4.790419161676647
30
0
0
INSERT
2
LDI_XFL94-0512-011_H2_B1
8
H2
10
0
20
9.580838323353294
30
0
0
INSERT
2
LDI_XFL94-0512-011_H2_B1
8
H2
10
0
20
14.371257485029941
30
0
0
INSERT
2
LDI_XFL94-0512-011_H2_B1
8
H2
10
0
20
19.16167664670659
30
0
0
INSERT
2
LDI_XFL94-0512-011_H2_B1
8
H2
10
0
20
23.952095808383234
30
0
0
INSERT
2
LDI_XFL94-0512-011_H2_B1
8
H2
10
0
20
28.742514970059883
30
0
0
INSERT
2
LDI_XFL94-0512-011_H2_B1
8
H2
10
0
20
33.53293413173653
30
0
0
INSERT
2
LDI_XFL94-0512-011_H2_B1
8
H2
10
0
20
38.32335329341318
30
0
0
INSERT
2
LDI_XFL94-0512-011_H2_B1
8
H2
10
0
20
43.11377245508982
30
0
0
INSERT
2
LDI_XFL94-0512-011_H2_B1
8
H2
10
0
20
47.90419161676647
30
0
0
INSERT
2
LDI_XFL94-0512-011_H2_B1
8
H2
10
0
20
52.69461077844312
30
0
0
INSERT
2
LDI_XFL94-0512-011_H2_B1
8
H2
10
0
20
57.485029940119766
30
0
0
INSERT
2
LDI_XFL94-0512-011_H2_B1
8
H2
10
0
20
62.27544910179641
30
0
0
INSERT
2
LDI_XFL94-0512-011_H2_B1
8
H2
10
0
20
67.06586826347306
30
0
0
INSERT
2
LDI_XFL94-0512-011_H2_B1
8
H2
10
0
20
71.8562874251497
30
0
0
INSERT
2
LDI_XFL94-0512-011_H2_B1
8
H2
10
0
20
76.64670658682635
30
0
0
INSERT
2
LDI_XFL94-0512-011_H2_B1
8
H2
10
0
20
81.43712574850301
30
0
0
INSERT
2
LDI_XFL94-0512-011_H2_B1
8
H2
10
0
20
86.22754491017965
30
0
0
INSERT
2
LDI_XFL94-0512-011_H2_B1
8
H2
10
0
20
91.0179640718563
30
0
0
INSERT
2
LDI_XFL94-0512-011_H2_B1
8
H2
10
0
20
95.80838323353294
30
0
0
INSERT
2
LDI_XFL94-0512-011_H2_B1
8
H2
10
0
20
100.59880239520959
30
0
0
INSERT
2
LDI_XFL94-0512-011_H2_B1
8
H2
10
0
20
105.38922155688624
30
0
0
INSERT
2
LDI_XFL94-0512-011_H2_B1
8
H2
10
0
20
110.17964071856288
30
0
0
POLYLINE
8
H2
66
1
70
1
40
0.1
41
0.1
0
VERTEX
8
H2
10
-61.5
20
-61.2
42
1.0
0
VERTEX
8
H2
10
-60.900000000000006
20
-61.2
42
1.0
0
SEQEND
0
POLYLINE
8
H2
66
1
70
1
40
0.1
41
0.1
0
VERTEX
8
H2
10
-61.5
20
61.2
42
1.0
0
VERTEX
8
H2
10
-60.900000000000006
20
61.2
42
1.0
0
SEQEND
0
POLYLINE
8
H2
66
1
70
1
40
0.1
41
0.1
0
VERTEX
8
H2
10
60.90000000000002
20
-61.2
42
1.0
0
VERTEX
8
H2
10
61.499999999999986
20
-61.2
42
1.0
0
SEQEND
0
POLYLINE
8
H2
66
1
70
1
40
0.1
41
0.1
0
VERTEX
8
H2
10
60.90000000000002
20
61.2
42
1.0
0
VERTEX
8
H2
10
61.499999999999986
20
61.2
42
1.0
0
SEQEND
0
POLYLINE
8
H2
66
1
70
1
0
VERTEX
8
H2
10
-64.46966991411009
20
-64.46966991411009
40
0.08
41
0.08
0
VERTEX
8
H2
10
-65.53033008588991
20
-65.53033008588991
40
0.08
41
0.08
0
SEQEND
0
POLYLINE
8
H2
66
1
70
1
0
VERTEX
8
H2
10
-64.46966991411009
20
-65.53033008588991
40
0.08
41
0.08
0
VERTEX
8
H2
10
-65.53033008588991
20
-64.46966991411009
40
0.08
41
0.08
0
SEQEND
0
POLYLINE
8
H2
66
1
70
1
0
VERTEX
8
H2
10
-64.46966991411009
20
65.53033008588993
40
0.08
41
0.08
0
VERTEX
8
H2
10
-65.53033008588991
20
64.4696699141101
40
0.08
41
0.08
0
SEQEND
0
POLYLINE
8
H2
66
1
70
1
0
VERTEX
8
H2
10
-64.46966991411009
20
64.4696699141101
40
0.08
41
0.08
0
VERTEX
8
H2
10
-65.53033008588991
20
65.53033008588993
40
0.08
41
0.08
0
SEQEND
0
POLYLINE
8
H2
66
1
70
1
0
VERTEX
8
H2
10
65.53033008588993
20
65.53033008588993
40
0.08
41
0.08
0
VERTEX
8
H2
10
64.4696699141101
20
64.4696699141101
40
0.08
41
0.08
0
SEQEND
0
POLYLINE
8
H2
66
1
70
1
0
VERTEX
8
H2
10
65.53033008588993
20
64.4696699141101
40
0.08
41
0.08
0
VERTEX
8
H2
10
64.4696699141101
20
65.53033008588993
40
0.08
41
0.08
0
SEQEND
0
POLYLINE
8
H2
66
1
70
1
0
VERTEX
8
H2
10
65.74999999999999
20
-65.0
40
0.08
41
0.08
0
VERTEX
8
H2
10
64.24999999999999
20
-65.0
40
0.08
41
0.08
0
SEQEND
0
POLYLINE
8
H2
66
1
70
1
0
VERTEX
8
H2
10
64.99999999999999
20
-64.25
40
0.08
41
0.08
0
VERTEX
8
H2
10
64.99999999999999
20
-65.75
40
0.08
41
0.08
0
SEQEND
0
POLYLINE
8
H2
66
1
70
1
0
VERTEX
8
H2
10
-53.89221556886228
20
-61.2
40
0.08
41
0.08
0
VERTEX
8
H2
10
-53.89221556886228
20
-64.2
40
0.08
41
0.08
0
SEQEND
0
POLYLINE
8
H2
66
1
70
1
0
VERTEX
8
H2
10
-53.89221556886228
20
61.2
40
0.08
41
0.08
0
VERTEX
8
H2
10
-53.89221556886228
20
64.2
40
0.08
41
0.08
0
SEQEND
0
POLYLINE
8
H2
66
1
70
1
0
VERTEX
8
H2
10
-43.11377245508983
20
-61.2
40
0.08
41
0.08
0
VERTEX
8
H2
10
-43.11377245508983
20
-64.2
40
0.08
41
0.08
0
SEQEND
0
POLYLINE
8
H2
66
1
70
1
0
VERTEX
8
H2
10
-43.11377245508983
20
61.2
40
0.08
41
0.08
0
VERTEX
8
H2
10
-43.11377245508983
20
64.2
40
0.08
41
0.08
0
SEQEND
0
POLYLINE
8
H2
66
1
70
1
0
VERTEX
8
H2
10
-32.33532934131736
20
-61.2
40
0.08
41
0.08
0
VERTEX
8
H2
10
-32.33532934131736
20
-64.2
40
0.08
41
0.08
0
SEQEND
0
POLYLINE
8
H2
66
1
70
1
0
VERTEX
8
H2
10
-32.33532934131736
20
61.2
40
0.08
41
0.08
0
VERTEX
8
H2
10
-32.33532934131736
20
64.2
40
0.08
41
0.08
0
SEQEND
0
POLYLINE
8
H2
66
1
70
1
0
VERTEX
8
H2
10
-21.556886227544908
20
-61.2
40
0.08
41
0.08
0
VERTEX
8
H2
10
-21.556886227544908
20
-64.2
40
0.08
41
0.08
0
SEQEND
0
POLYLINE
8
H2
66
1
70
1
0
VERTEX
8
H2
10
-21.556886227544908
20
61.2
40
0.08
41
0.08
0
VERTEX
8
H2
10
-21.556886227544908
20
64.2
40
0.08
41
0.08
0
SEQEND
0
POLYLINE
8
H2
66
1
70
1
0
VERTEX
8
H2
10
-10.778443113772454
20
-61.2
40
0.08
41
0.08
0
VERTEX
8
H2
10
-10.778443113772454
20
-64.2
40
0.08
41
0.08
0
SEQEND
0
POLYLINE
8
H2
66
1
70
1
0
VERTEX
8
H2
10
-10.778443113772454
20
61.2
40
0.08
41
0.08
0
VERTEX
8
H2
10
-10.778443113772454
20
64.2
40
0.08
41
0.08
0
SEQEND
0
POLYLINE
8
H2
66
1
70
1
0
VERTEX
8
H2
10
0.0
20
-61.2
40
0.08
41
0.08
0
VERTEX
8
H2
10
0.0
20
-64.2
40
0.08
41
0.08
0
SEQEND
0
POLYLINE
8
H2
66
1
70
1
0
VERTEX
8
H2
10
0.0
20
61.2
40
0.08
41
0.08
0
VERTEX
8
H2
10
0.0
20
64.2
40
0.08
41
0.08
0
SEQEND
0
POLYLINE
8
H2
66
1
70
1
0
VERTEX
8
H2
10
10.778443113772468
20
-61.2
40
0.08
41
0.08
0
VERTEX
8
H2
10
10.778443113772468
20
-64.2
40
0.08
41
0.08
0
SEQEND
0
POLYLINE
8
H2
66
1
70
1
0
VERTEX
8
H2
10
10.778443113772468
20
61.2
40
0.08
41
0.08
0
VERTEX
8
H2
10
10.778443113772468
20
64.2
40
0.08
41
0.08
0
SEQEND
0
POLYLINE
8
H2
66
1
70
1
0
VERTEX
8
H2
10
21.556886227544922
20
-61.2
40
0.08
41
0.08
0
VERTEX
8
H2
10
21.556886227544922
20
-64.2
40
0.08
41
0.08
0
SEQEND
0
POLYLINE
8
H2
66
1
70
1
0
VERTEX
8
H2
10
21.556886227544922
20
61.2
40
0.08
41
0.08
0
VERTEX
8
H2
10
21.556886227544922
20
64.2
40
0.08
41
0.08
0
SEQEND
0
POLYLINE
8
H2
66
1
70
1
0
VERTEX
8
H2
10
32.335329341317376
20
-61.2
40
0.08
41
0.08
0
VERTEX
8
H2
10
32.335329341317376
20
-64.2
40
0.08
41
0.08
0
SEQEND
0
POLYLINE
8
H2
66
1
70
1
0
VERTEX
8
H2
10
32.335329341317376
20
61.2
40
0.08
41
0.08
0
VERTEX
8
H2
10
32.335329341317376
20
64.2
40
0.08
41
0.08
0
SEQEND
0
POLYLINE
8
H2
66
1
70
1
0
VERTEX
8
H2
10
43.11377245508983
20
-61.2
40
0.08
41
0.08
0
VERTEX
8
H2
10
43.11377245508983
20
-64.2
40
0.08
41
0.08
0
SEQEND
0
POLYLINE
8
H2
66
1
70
1
0
VERTEX
8
H2
10
43.11377245508983
20
61.2
40
0.08
41
0.08
0
VERTEX
8
H2
10
43.11377245508983
20
64.2
40
0.08
41
0.08
0
SEQEND
0
POLYLINE
8
H2
66
1
70
1
0
VERTEX
8
H2
10
53.892215568862284
20
-61.2
40
0.08
41
0.08
0
VERTEX
8
H2
10
53.892215568862284
20
-64.2
40
0.08
41
0.08
0
SEQEND
0
POLYLINE
8
H2
66
1
70
1
0
VERTEX
8
H2
10
53.892215568862284
20
61.2
40
0.08
41
0.08
0
VERTEX
8
H2
10
53.892215568862284
20
64.2
40
0.08
41
0.08
0
SEQEND
0
POLYLINE
8
H2
66
1
70
1
0
VERTEX
8
H2
10
-61.2
20
-57.485029940119766
40
0.08
41
0.08
0
VERTEX
8
H2
10
-64.2
20
-57.485029940119766
40
0.08
41
0.08
0
SEQEND
0
POLYLINE
8
H2
66
1
70
1
0
VERTEX
8
H2
10
61.2
20
-57.485029940119766
40
0.08
41
0.08
0
VERTEX
8
H2
10
64.2
20
-57.485029940119766
40
0.08
41
0.08
0
SEQEND
0
POLYLINE
8
H2
66
1
70
1
0
VERTEX
8
H2
10
-61.2
20
-52.69461077844312
40
0.08
41
0.08
0
VERTEX
8
H2
10
-64.2
20
-52.69461077844312
40
0.08
41
0.08
0
SEQEND
0
POLYLINE
8
H2
66
1
70
1
0
VERTEX
8
H2
10
61.2
20
-52.69461077844312
40
0.08
41
0.08
0
VERTEX
8
H2
10
64.2
20
-52.69461077844312
40
0.08
41
0.08
0
SEQEND
0
POLYLINE
8
H2
66
1
70
1
0
VERTEX
8
H2
10
-61.2
20
-47.90419161676647
40
0.08
41
0.08
0
VERTEX
8
H2
10
-64.2
20
-47.90419161676647
40
0.08
41
0.08
0
SEQEND
0
POLYLINE
8
H2
66
1
70
1
0
VERTEX
8
H2
10
61.2
20
-47.90419161676647
40
0.08
41
0.08
0
VERTEX
8
H2
10
64.2
20
-47.90419161676647
40
0.08
41
0.08
0
SEQEND
0
POLYLINE
8
H2
66
1
70
1
0
VERTEX
8
H2
10
-61.2
20
-43.11377245508983
40
0.08
41
0.08
0
VERTEX
8
H2
10
-64.2
20
-43.11377245508983
40
0.08
41
0.08
0
SEQEND
0
POLYLINE
8
H2
66
1
70
1
0
VERTEX
8
H2
10
61.2
20
-43.11377245508983
40
0.08
41
0.08
0
VERTEX
8
H2
10
64.2
20
-43.11377245508983
40
0.08
41
0.08
0
SEQEND
0
POLYLINE
8
H2
66
1
70
1
0
VERTEX
8
H2
10
-61.2
20
-38.32335329341318
40
0.08
41
0.08
0
VERTEX
8
H2
10
-64.2
20
-38.32335329341318
40
0.08
41
0.08
0
SEQEND
0
POLYLINE
8
H2
66
1
70
1
0
VERTEX
8
H2
10
61.2
20
-38.32335329341318
40
0.08
41
0.08
0
VERTEX
8
H2
10
64.2
20
-38.32335329341318
40
0.08
41
0.08
0
SEQEND
0
POLYLINE
8
H2
66
1
70
1
0
VERTEX
8
H2
10
-61.2
20
-33.532934131736525
40
0.08
41
0.08
0
VERTEX
8
H2
10
-64.2
20
-33.532934131736525
40
0.08
41
0.08
0
SEQEND
0
POLYLINE
8
H2
66
1
70
1
0
VERTEX
8
H2
10
61.2
20
-33.532934131736525
40
0.08
41
0.08
0
VERTEX
8
H2
10
64.2
20
-33.532934131736525
40
0.08
41
0.08
0
SEQEND
0
POLYLINE
8
H2
66
1
70
1
0
VERTEX
8
H2
10
-61.2
20
-28.742514970059887
40
0.08
41
0.08
0
VERTEX
8
H2
10
-64.2
20
-28.742514970059887
40
0.08
41
0.08
0
SEQEND
0
POLYLINE
8
H2
66
1
70
1
0
VERTEX
8
H2
10
61.2
20
-28.742514970059887
40
0.08
41
0.08
0
VERTEX
8
H2
10
64.2
20
-28.742514970059887
40
0.08
41
0.08
0
SEQEND
0
POLYLINE
8
H2
66
1
70
1
0
VERTEX
8
H2
10
-61.2
20
-23.952095808383234
40
0.08
41
0.08
0
VERTEX
8
H2
10
-64.2
20
-23.952095808383234
40
0.08
41
0.08
0
SEQEND
0
POLYLINE
8
H2
66
1
70
1
0
VERTEX
8
H2
10
61.2
20
-23.952095808383234
40
0.08
41
0.08
0
VERTEX
8
H2
10
64.2
20
-23.952095808383234
40
0.08
41
0.08
0
SEQEND
0
POLYLINE
8
H2
66
1
70
1
0
VERTEX
8
H2
10
-61.2
20
-19.161676646706596
40
0.08
41
0.08
0
VERTEX
8
H2
10
-64.2
20
-19.161676646706596
40
0.08
41
0.08
0
SEQEND
0
POLYLINE
8
H2
66
1
70
1
0
VERTEX
8
H2
10
61.2
20
-19.161676646706596
40
0.08
41
0.08
0
VERTEX
8
H2
10
64.2
20
-19.161676646706596
40
0.08
41
0.08
0
SEQEND
0
POLYLINE
8
H2
66
1
70
1
0
VERTEX
8
H2
10
-61.2
20
-14.371257485029943
40
0.08
41
0.08
0
VERTEX
8
H2
10
-64.2
20
-14.371257485029943
40
0.08
41
0.08
0
SEQEND
0
POLYLINE
8
H2
66
1
70
1
0
VERTEX
8
H2
10
61.2
20
-14.371257485029943
40
0.08
41
0.08
0
VERTEX
8
H2
10
64.2
20
-14.371257485029943
40
0.08
41
0.08
0
SEQEND
0
POLYLINE
8
H2
66
1
70
1
0
VERTEX
8
H2
10
-61.2
20
-9.58083832335329
40
0.08
41
0.08
0
VERTEX
8
H2
10
-64.2
20
-9.58083832335329
40
0.08
41
0.08
0
SEQEND
0
POLYLINE
8
H2
66
1
70
1
0
VERTEX
8
H2
10
61.2
20
-9.58083832335329
40
0.08
41
0.08
0
VERTEX
8
H2
10
64.2
20
-9.58083832335329
40
0.08
41
0.08
0
SEQEND
0
POLYLINE
8
H2
66
1
70
1
0
VERTEX
8
H2
10
-61.2
20
-4.790419161676638
40
0.08
41
0.08
0
VERTEX
8
H2
10
-64.2
20
-4.790419161676638
40
0.08
41
0.08
0
SEQEND
0
POLYLINE
8
H2
66
1
70
1
0
VERTEX
8
H2
10
61.2
20
-4.790419161676638
40
0.08
41
0.08
0
VERTEX
8
H2
10
64.2
20
-4.790419161676638
40
0.08
41
0.08
0
SEQEND
0
POLYLINE
8
H2
66
1
70
1
0
VERTEX
8
H2
10
-61.2
20
0.0
40
0.08
41
0.08
0
VERTEX
8
H2
10
-64.2
20
0.0
40
0.08
41
0.08
0
SEQEND
0
POLYLINE
8
H2
66
1
70
1
0
VERTEX
8
H2
10
61.2
20
0.0
40
0.08
41
0.08
0
VERTEX
8
H2
10
64.2
20
0.0
40
0.08
41
0.08
0
SEQEND
0
POLYLINE
8
H2
66
1
70
1
0
VERTEX
8
H2
10
-61.2
20
4.790419161676638
40
0.08
41
0.08
0
VERTEX
8
H2
10
-64.2
20
4.790419161676638
40
0.08
41
0.08
0
SEQEND
0
POLYLINE
8
H2
66
1
70
1
0
VERTEX
8
H2
10
61.2
20
4.790419161676638
40
0.08
41
0.08
0
VERTEX
8
H2
10
64.2
20
4.790419161676638
40
0.08
41
0.08
0
SEQEND
0
POLYLINE
8
H2
66
1
70
1
0
VERTEX
8
H2
10
-61.2
20
9.58083832335329
40
0.08
41
0.08
0
VERTEX
8
H2
10
-64.2
20
9.58083832335329
40
0.08
41
0.08
0
SEQEND
0
POLYLINE
8
H2
66
1
70
1
0
VERTEX
8
H2
10
61.2
20
9.58083832335329
40
0.08
41
0.08
0
VERTEX
8
H2
10
64.2
20
9.58083832335329
40
0.08
41
0.08
0
SEQEND
0
POLYLINE
8
H2
66
1
70
1
0
VERTEX
8
H2
10
-61.2
20
14.371257485029943
40
0.08
41
0.08
0
VERTEX
8
H2
10
-64.2
20
14.371257485029943
40
0.08
41
0.08
0
SEQEND
0
POLYLINE
8
H2
66
1
70
1
0
VERTEX
8
H2
10
61.2
20
14.371257485029943
40
0.08
41
0.08
0
VERTEX
8
H2
10
64.2
20
14.371257485029943
40
0.08
41
0.08
0
SEQEND
0
POLYLINE
8
H2
66
1
70
1
0
VERTEX
8
H2
10
-61.2
20
19.161676646706596
40
0.08
41
0.08
0
VERTEX
8
H2
10
-64.2
20
19.161676646706596
40
0.08
41
0.08
0
SEQEND
0
POLYLINE
8
H2
66
1
70
1
0
VERTEX
8
H2
10
61.2
20
19.161676646706596
40
0.08
41
0.08
0
VERTEX
8
H2
10
64.2
20
19.161676646706596
40
0.08
41
0.08
0
SEQEND
0
POLYLINE
8
H2
66
1
70
1
0
VERTEX
8
H2
10
-61.2
20
23.95209580838325
40
0.08
41
0.08
0
VERTEX
8
H2
10
-64.2
20
23.95209580838325
40
0.08
41
0.08
0
SEQEND
0
POLYLINE
8
H2
66
1
70
1
0
VERTEX
8
H2
10
61.2
20
23.95209580838325
40
0.08
41
0.08
0
VERTEX
8
H2
10
64.2
20
23.95209580838325
40
0.08
41
0.08
0
SEQEND
0
POLYLINE
8
H2
66
1
70
1
0
VERTEX
8
H2
10
-61.2
20
28.742514970059872
40
0.08
41
0.08
0
VERTEX
8
H2
10
-64.2
20
28.742514970059872
40
0.08
41
0.08
0
SEQEND
0
POLYLINE
8
H2
66
1
70
1
0
VERTEX
8
H2
10
61.2
20
28.742514970059872
40
0.08
41
0.08
0
VERTEX
8
H2
10
64.2
20
28.742514970059872
40
0.08
41
0.08
0
SEQEND
0
POLYLINE
8
H2
66
1
70
1
0
VERTEX
8
H2
10
-61.2
20
33.532934131736525
40
0.08
41
0.08
0
VERTEX
8
H2
10
-64.2
20
33.532934131736525
40
0.08
41
0.08
0
SEQEND
0
POLYLINE
8
H2
66
1
70
1
0
VERTEX
8
H2
10
61.2
20
33.532934131736525
40
0.08
41
0.08
0
VERTEX
8
H2
10
64.2
20
33.532934131736525
40
0.08
41
0.08
0
SEQEND
0
POLYLINE
8
H2
66
1
70
1
0
VERTEX
8
H2
10
-61.2
20
38.32335329341318
40
0.08
41
0.08
0
VERTEX
8
H2
10
-64.2
20
38.32335329341318
40
0.08
41
0.08
0
SEQEND
0
POLYLINE
8
H2
66
1
70
1
0
VERTEX
8
H2
10
61.2
20
38.32335329341318
40
0.08
41
0.08
0
VERTEX
8
H2
10
64.2
20
38.32335329341318
40
0.08
41
0.08
0
SEQEND
0
POLYLINE
8
H2
66
1
70
1
0
VERTEX
8
H2
10
-61.2
20
43.11377245508983
40
0.08
41
0.08
0
VERTEX
8
H2
10
-64.2
20
43.11377245508983
40
0.08
41
0.08
0
SEQEND
0
POLYLINE
8
H2
66
1
70
1
0
VERTEX
8
H2
10
61.2
20
43.11377245508983
40
0.08
41
0.08
0
VERTEX
8
H2
10
64.2
20
43.11377245508983
40
0.08
41
0.08
0
SEQEND
0
POLYLINE
8
H2
66
1
70
1
0
VERTEX
8
H2
10
-61.2
20
47.90419161676648
40
0.08
41
0.08
0
VERTEX
8
H2
10
-64.2
20
47.90419161676648
40
0.08
41
0.08
0
SEQEND
0
POLYLINE
8
H2
66
1
70
1
0
VERTEX
8
H2
10
61.2
20
47.90419161676648
40
0.08
41
0.08
0
VERTEX
8
H2
10
64.2
20
47.90419161676648
40
0.08
41
0.08
0
SEQEND
0
POLYLINE
8
H2
66
1
70
1
0
VERTEX
8
H2
10
-61.2
20
52.694610778443106
40
0.08
41
0.08
0
VERTEX
8
H2
10
-64.2
20
52.694610778443106
40
0.08
41
0.08
0
SEQEND
0
POLYLINE
8
H2
66
1
70
1
0
VERTEX
8
H2
10
61.2
20
52.694610778443106
40
0.08
41
0.08
0
VERTEX
8
H2
10
64.2
20
52.694610778443106
40
0.08
41
0.08
0
SEQEND
0
POLYLINE
8
H2
66
1
70
1
0
VERTEX
8
H2
10
-61.2
20
57.48502994011976
40
0.08
41
0.08
0
VERTEX
8
H2
10
-64.2
20
57.48502994011976
40
0.08
41
0.08
0
SEQEND
0
POLYLINE
8
H2
66
1
70
1
0
VERTEX
8
H2
10
61.2
20
57.48502994011976
40
0.08
41
0.08
0
VERTEX
8
H2
10
64.2
20
57.48502994011976
40
0.08
41
0.08
0
SEQEND
0
INSERT
2
cutlineendpoint
8
H2
10
-64.46966991411009
20
-64.46966991411009
0
INSERT
2
cutlineendpoint
8
H2
10
-65.53033008588991
20
-65.53033008588991
0
INSERT
2
cutlineendpoint
8
H2
10
-64.46966991411009
20
-65.53033008588991
0
INSERT
2
cutlineendpoint
8
H2
10
-65.53033008588991
20
-64.46966991411009
0
INSERT
2
cutlineendpoint
8
H2
10
-64.46966991411009
20
65.53033008588993
0
INSERT
2
cutlineendpoint
8
H2
10
-65.53033008588991
20
64.4696699141101
0
INSERT
2
cutlineendpoint
8
H2
10
-64.46966991411009
20
64.4696699141101
0
INSERT
2
cutlineendpoint
8
H2
10
-65.53033008588991
20
65.53033008588993
0
INSERT
2
cutlineendpoint
8
H2
10
65.53033008588993
20
65.53033008588993
0
INSERT
2
cutlineendpoint
8
H2
10
64.4696699141101
20
64.4696699141101
0
INSERT
2
cutlineendpoint
8
H2
10
65.53033008588993
20
64.4696699141101
0
INSERT
2
cutlineendpoint
8
H2
10
64.4696699141101
20
65.53033008588993
0
INSERT
2
cutlineendpoint
8
H2
10
65.74999999999999
20
-65.0
0
INSERT
2
cutlineendpoint
8
H2
10
64.24999999999999
20
-65.0
0
INSERT
2
cutlineendpoint
8
H2
10
64.99999999999999
20
-64.25
0
INSERT
2
cutlineendpoint
8
H2
10
64.99999999999999
20
-65.75
0
INSERT
2
cutlineendpoint
8
H2
10
-53.89221556886228
20
-61.2
0
INSERT
2
cutlineendpoint
8
H2
10
-53.89221556886228
20
61.2
0
INSERT
2
cutlineendpoint
8
H2
10
-53.89221556886228
20
-64.2
0
INSERT
2
cutlineendpoint
8
H2
10
-53.89221556886228
20
64.2
0
INSERT
2
cutlineendpoint
8
H2
10
-43.11377245508983
20
-61.2
0
INSERT
2
cutlineendpoint
8
H2
10
-43.11377245508983
20
61.2
0
INSERT
2
cutlineendpoint
8
H2
10
-43.11377245508983
20
-64.2
0
INSERT
2
cutlineendpoint
8
H2
10
-43.11377245508983
20
64.2
0
INSERT
2
cutlineendpoint
8
H2
10
-32.33532934131736
20
-61.2
0
INSERT
2
cutlineendpoint
8
H2
10
-32.33532934131736
20
61.2
0
INSERT
2
cutlineendpoint
8
H2
10
-32.33532934131736
20
-64.2
0
INSERT
2
cutlineendpoint
8
H2
10
-32.33532934131736
20
64.2
0
INSERT
2
cutlineendpoint
8
H2
10
-21.556886227544908
20
-61.2
0
INSERT
2
cutlineendpoint
8
H2
10
-21.556886227544908
20
61.2
0
INSERT
2
cutlineendpoint
8
H2
10
-21.556886227544908
20
-64.2
0
INSERT
2
cutlineendpoint
8
H2
10
-21.556886227544908
20
64.2
0
INSERT
2
cutlineendpoint
8
H2
10
-10.778443113772454
20
-61.2
0
INSERT
2
cutlineendpoint
8
H2
10
-10.778443113772454
20
61.2
0
INSERT
2
cutlineendpoint
8
H2
10
-10.778443113772454
20
-64.2
0
INSERT
2
cutlineendpoint
8
H2
10
-10.778443113772454
20
64.2
0
INSERT
2
cutlineendpoint
8
H2
10
0.0
20
-61.2
0
INSERT
2
cutlineendpoint
8
H2
10
0.0
20
61.2
0
INSERT
2
cutlineendpoint
8
H2
10
0.0
20
-64.2
0
INSERT
2
cutlineendpoint
8
H2
10
0.0
20
64.2
0
INSERT
2
cutlineendpoint
8
H2
10
10.778443113772468
20
-61.2
0
INSERT
2
cutlineendpoint
8
H2
10
10.778443113772468
20
61.2
0
INSERT
2
cutlineendpoint
8
H2
10
10.778443113772468
20
-64.2
0
INSERT
2
cutlineendpoint
8
H2
10
10.778443113772468
20
64.2
0
INSERT
2
cutlineendpoint
8
H2
10
21.556886227544922
20
-61.2
0
INSERT
2
cutlineendpoint
8
H2
10
21.556886227544922
20
61.2
0
INSERT
2
cutlineendpoint
8
H2
10
21.556886227544922
20
-64.2
0
INSERT
2
cutlineendpoint
8
H2
10
21.556886227544922
20
64.2
0
INSERT
2
cutlineendpoint
8
H2
10
32.335329341317376
20
-61.2
0
INSERT
2
cutlineendpoint
8
H2
10
32.335329341317376
20
61.2
0
INSERT
2
cutlineendpoint
8
H2
10
32.335329341317376
20
-64.2
0
INSERT
2
cutlineendpoint
8
H2
10
32.335329341317376
20
64.2
0
INSERT
2
cutlineendpoint
8
H2
10
43.11377245508983
20
-61.2
0
INSERT
2
cutlineendpoint
8
H2
10
43.11377245508983
20
61.2
0
INSERT
2
cutlineendpoint
8
H2
10
43.11377245508983
20
-64.2
0
INSERT
2
cutlineendpoint
8
H2
10
43.11377245508983
20
64.2
0
INSERT
2
cutlineendpoint
8
H2
10
53.892215568862284
20
-61.2
0
INSERT
2
cutlineendpoint
8
H2
10
53.892215568862284
20
61.2
0
INSERT
2
cutlineendpoint
8
H2
10
53.892215568862284
20
-64.2
0
INSERT
2
cutlineendpoint
8
H2
10
53.892215568862284
20
64.2
0
INSERT
2
cutlineendpoint
8
H2
10
-61.2
20
-57.485029940119766
0
INSERT
2
cutlineendpoint
8
H2
10
61.2
20
-57.485029940119766
0
INSERT
2
cutlineendpoint
8
H2
10
-64.2
20
-57.485029940119766
0
INSERT
2
cutlineendpoint
8
H2
10
64.2
20
-57.485029940119766
0
INSERT
2
cutlineendpoint
8
H2
10
-61.2
20
-52.69461077844312
0
INSERT
2
cutlineendpoint
8
H2
10
61.2
20
-52.69461077844312
0
INSERT
2
cutlineendpoint
8
H2
10
-64.2
20
-52.69461077844312
0
INSERT
2
cutlineendpoint
8
H2
10
64.2
20
-52.69461077844312
0
INSERT
2
cutlineendpoint
8
H2
10
-61.2
20
-47.90419161676647
0
INSERT
2
cutlineendpoint
8
H2
10
61.2
20
-47.90419161676647
0
INSERT
2
cutlineendpoint
8
H2
10
-64.2
20
-47.90419161676647
0
INSERT
2
cutlineendpoint
8
H2
10
64.2
20
-47.90419161676647
0
INSERT
2
cutlineendpoint
8
H2
10
-61.2
20
-43.11377245508983
0
INSERT
2
cutlineendpoint
8
H2
10
61.2
20
-43.11377245508983
0
INSERT
2
cutlineendpoint
8
H2
10
-64.2
20
-43.11377245508983
0
INSERT
2
cutlineendpoint
8
H2
10
64.2
20
-43.11377245508983
0
INSERT
2
cutlineendpoint
8
H2
10
-61.2
20
-38.32335329341318
0
INSERT
2
cutlineendpoint
8
H2
10
61.2
20
-38.32335329341318
0
INSERT
2
cutlineendpoint
8
H2
10
-64.2
20
-38.32335329341318
0
INSERT
2
cutlineendpoint
8
H2
10
64.2
20
-38.32335329341318
0
INSERT
2
cutlineendpoint
8
H2
10
-61.2
20
-33.532934131736525
0
INSERT
2
cutlineendpoint
8
H2
10
61.2
20
-33.532934131736525
0
INSERT
2
cutlineendpoint
8
H2
10
-64.2
20
-33.532934131736525
0
INSERT
2
cutlineendpoint
8
H2
10
64.2
20
-33.532934131736525
0
INSERT
2
cutlineendpoint
8
H2
10
-61.2
20
-28.742514970059887
0
INSERT
2
cutlineendpoint
8
H2
10
61.2
20
-28.742514970059887
0
INSERT
2
cutlineendpoint
8
H2
10
-64.2
20
-28.742514970059887
0
INSERT
2
cutlineendpoint
8
H2
10
64.2
20
-28.742514970059887
0
INSERT
2
cutlineendpoint
8
H2
10
-61.2
20
-23.952095808383234
0
INSERT
2
cutlineendpoint
8
H2
10
61.2
20
-23.952095808383234
0
INSERT
2
cutlineendpoint
8
H2
10
-64.2
20
-23.952095808383234
0
INSERT
2
cutlineendpoint
8
H2
10
64.2
20
-23.952095808383234
0
INSERT
2
cutlineendpoint
8
H2
10
-61.2
20
-19.161676646706596
0
INSERT
2
cutlineendpoint
8
H2
10
61.2
20
-19.161676646706596
0
INSERT
2
cutlineendpoint
8
H2
10
-64.2
20
-19.161676646706596
0
INSERT
2
cutlineendpoint
8
H2
10
64.2
20
-19.161676646706596
0
INSERT
2
cutlineendpoint
8
H2
10
-61.2
20
-14.371257485029943
0
INSERT
2
cutlineendpoint
8
H2
10
61.2
20
-14.371257485029943
0
INSERT
2
cutlineendpoint
8
H2
10
-64.2
20
-14.371257485029943
0
INSERT
2
cutlineendpoint
8
H2
10
64.2
20
-14.371257485029943
0
INSERT
2
cutlineendpoint
8
H2
10
-61.2
20
-9.58083832335329
0
INSERT
2
cutlineendpoint
8
H2
10
61.2
20
-9.58083832335329
0
INSERT
2
cutlineendpoint
8
H2
10
-64.2
20
-9.58083832335329
0
INSERT
2
cutlineendpoint
8
H2
10
64.2
20
-9.58083832335329
0
INSERT
2
cutlineendpoint
8
H2
10
-61.2
20
-4.790419161676638
0
INSERT
2
cutlineendpoint
8
H2
10
61.2
20
-4.790419161676638
0
INSERT
2
cutlineendpoint
8
H2
10
-64.2
20
-4.790419161676638
0
INSERT
2
cutlineendpoint
8
H2
10
64.2
20
-4.790419161676638
0
INSERT
2
cutlineendpoint
8
H2
10
-61.2
20
0.0
0
INSERT
2
cutlineendpoint
8
H2
10
61.2
20
0.0
0
INSERT
2
cutlineendpoint
8
H2
10
-64.2
20
0.0
0
INSERT
2
cutlineendpoint
8
H2
10
64.2
20
0.0
0
INSERT
2
cutlineendpoint
8
H2
10
-61.2
20
4.790419161676638
0
INSERT
2
cutlineendpoint
8
H2
10
61.2
20
4.790419161676638
0
INSERT
2
cutlineendpoint
8
H2
10
-64.2
20
4.790419161676638
0
INSERT
2
cutlineendpoint
8
H2
10
64.2
20
4.790419161676638
0
INSERT
2
cutlineendpoint
8
H2
10
-61.2
20
9.58083832335329
0
INSERT
2
cutlineendpoint
8
H2
10
61.2
20
9.58083832335329
0
INSERT
2
cutlineendpoint
8
H2
10
-64.2
20
9.58083832335329
0
INSERT
2
cutlineendpoint
8
H2
10
64.2
20
9.58083832335329
0
INSERT
2
cutlineendpoint
8
H2
10
-61.2
20
14.371257485029943
0
INSERT
2
cutlineendpoint
8
H2
10
61.2
20
14.371257485029943
0
INSERT
2
cutlineendpoint
8
H2
10
-64.2
20
14.371257485029943
0
INSERT
2
cutlineendpoint
8
H2
10
64.2
20
14.371257485029943
0
INSERT
2
cutlineendpoint
8
H2
10
-61.2
20
19.161676646706596
0
INSERT
2
cutlineendpoint
8
H2
10
61.2
20
19.161676646706596
0
INSERT
2
cutlineendpoint
8
H2
10
-64.2
20
19.161676646706596
0
INSERT
2
cutlineendpoint
8
H2
10
64.2
20
19.161676646706596
0
INSERT
2
cutlineendpoint
8
H2
10
-61.2
20
23.95209580838325
0
INSERT
2
cutlineendpoint
8
H2
10
61.2
20
23.95209580838325
0
INSERT
2
cutlineendpoint
8
H2
10
-64.2
20
23.95209580838325
0
INSERT
2
cutlineendpoint
8
H2
10
64.2
20
23.95209580838325
0
INSERT
2
cutlineendpoint
8
H2
10
-61.2
20
28.742514970059872
0
INSERT
2
cutlineendpoint
8
H2
10
61.2
20
28.742514970059872
0
INSERT
2
cutlineendpoint
8
H2
10
-64.2
20
28.742514970059872
0
INSERT
2
cutlineendpoint
8
H2
10
64.2
20
28.742514970059872
0
INSERT
2
cutlineendpoint
8
H2
10
-61.2
20
33.532934131736525
0
INSERT
2
cutlineendpoint
8
H2
10
61.2
20
33.532934131736525
0
INSERT
2
cutlineendpoint
8
H2
10
-64.2
20
33.532934131736525
0
INSERT
2
cutlineendpoint
8
H2
10
64.2
20
33.532934131736525
0
INSERT
2
cutlineendpoint
8
H2
10
-61.2
20
38.32335329341318
0
INSERT
2
cutlineendpoint
8
H2
10
61.2
20
38.32335329341318
0
INSERT
2
cutlineendpoint
8
H2
10
-64.2
20
38.32335329341318
0
INSERT
2
cutlineendpoint
8
H2
10
64.2
20
38.32335329341318
0
INSERT
2
cutlineendpoint
8
H2
10
-61.2
20
43.11377245508983
0
INSERT
2
cutlineendpoint
8
H2
10
61.2
20
43.11377245508983
0
INSERT
2
cutlineendpoint
8
H2
10
-64.2
20
43.11377245508983
0
INSERT
2
cutlineendpoint
8
H2
10
64.2
20
43.11377245508983
0
INSERT
2
cutlineendpoint
8
H2
10
-61.2
20
47.90419161676648
0
INSERT
2
cutlineendpoint
8
H2
10
61.2
20
47.90419161676648
0
INSERT
2
cutlineendpoint
8
H2
10
-64.2
20
47.90419161676648
0
INSERT
2
cutlineendpoint
8
H2
10
64.2
20
47.90419161676648
0
INSERT
2
cutlineendpoint
8
H2
10
-61.2
20
52.694610778443106
0
INSERT
2
cutlineendpoint
8
H2
10
61.2
20
52.694610778443106
0
INSERT
2
cutlineendpoint
8
H2
10
-64.2
20
52.694610778443106
0
INSERT
2
cutlineendpoint
8
H2
10
64.2
20
52.694610778443106
0
INSERT
2
cutlineendpoint
8
H2
10
-61.2
20
57.48502994011976
0
INSERT
2
cutlineendpoint
8
H2
10
61.2
20
57.48502994011976
0
INSERT
2
cutlineendpoint
8
H2
10
-64.2
20
57.48502994011976
0
INSERT
2
cutlineendpoint
8
H2
10
64.2
20
57.48502994011976
0
TEXT
8
H2
10
-10.5
20
66.7
40
1.5
1
XFL94-0512-011-H2
0
POLYLINE
8
H2
66
1
70
1
0
VERTEX
8
H2
10
-100.0
20
100.0
30
0
40
1
41
1
0
VERTEX
8
H2
10
100.0
20
100.0
30
0
40
1
41
1
0
VERTEX
8
H2
10
100.0
20
-100.0
30
0
40
1
41
1
0
VERTEX
8
H2
10
-100.0
20
-100.0
30
0
40
1
41
1
0
SEQEND
0
ENDSEC
0
EOF
