0
SECTION
2
HEADER
9
$ACADVER
1
AC1006
9
$INSBASE
10
0.0
20
0.0
30
0.0
9
$EXTMIN
10
-104.20359281437126
20
-104.20359281437126
9
$EXTMAX
10
104.20359281437126
20
114.38323353293414
0
ENDSEC
0
SECTION
2
TABLES
0
TABLE
2
LTYPE
70
1
0
LTYPE
2
CONTINUOUS
70
64
3
Solid line
72
65
73
0
40
0.0
0
ENDTAB
0
TABLE
2
LAYER
70
3
0
LAYER
2
0
70
0
62
255
6
continuous
0
LAYER
2
0
70
0
62
7
6
continuous
0
LAYER
2
G1
70
0
62
7
6
continuous
0
ENDTAB
0
TABLE
2
STYLE
70
2
0
STYLE
2
STANDARD
70
0
40
0
41
1
50
0
71
0
42
1
3
ARIAL.TTF
4

0
STYLE
2
STANDARD
70
0
40
0
41
1
50
0
71
0
42
1
3
ARIAL.TTF
4

0
ENDTAB
0
TABLE
2
VIEW
70
1
0
VIEW
2
Normal
70
0
40
1
10
0.5
20
0.5
41
1
11
0
21
0
31
1
12
0
22
0
32
0
42
50
43
0
44
0
50
0
71
0
0
ENDTAB
0
ENDSEC
0
SECTION
2
BLOCKS
0
BLOCK
8
0
2
cutlineendpoint
70
0
10
0
20
0
30
0
3
cutlineendpoint
0
POLYLINE
8
0
66
1
70
1
40
0.04
41
0.04
0
VERTEX
8
0
10
-0.02
20
0
30
0
42
1.0
0
VERTEX
8
0
10
0.02
20
0
30
0
42
1.0
0
SEQEND
0
ENDBLK
0
BLOCK
8
G1
2
LDI_XFL94-0512-011_G1_B1
70
0
10
0
20
0
30
0
3
LDI_XFL94-0512-011_G1_B1
0
POLYLINE
8
G1
66
1
70
1
0
VERTEX
8
G1
10
-43.712574850299404
20
-52.93413173652695
0
VERTEX
8
G1
10
-44.07185628742515
20
-52.93413173652695
0
VERTEX
8
G1
10
-44.07185628742515
20
-52.614610778443115
0
VERTEX
8
G1
10
-44.67065868263474
20
-52.614610778443115
0
VERTEX
8
G1
10
-44.67065868263474
20
-52.93413173652695
0
VERTEX
8
G1
10
-48.20359281437126
20
-52.93413173652695
0
VERTEX
8
G1
10
-48.20359281437126
20
-52.614610778443115
0
VERTEX
8
G1
10
-48.80239520958084
20
-52.614610778443115
0
VERTEX
8
G1
10
-48.80239520958084
20
-52.93413173652695
0
VERTEX
8
G1
10
-52.33532934131737
20
-52.93413173652695
0
VERTEX
8
G1
10
-52.33532934131737
20
-52.614610778443115
0
VERTEX
8
G1
10
-52.93413173652695
20
-52.614610778443115
0
VERTEX
8
G1
10
-52.93413173652695
20
-52.93413173652695
0
VERTEX
8
G1
10
-53.293413173652695
20
-52.93413173652695
0
VERTEX
8
G1
10
-53.293413173652695
20
-57.24550898203593
0
VERTEX
8
G1
10
-52.93413173652695
20
-57.24550898203593
0
VERTEX
8
G1
10
-52.93413173652695
20
-57.565029940119764
0
VERTEX
8
G1
10
-52.33532934131737
20
-57.565029940119764
0
VERTEX
8
G1
10
-52.33532934131737
20
-57.24550898203593
0
VERTEX
8
G1
10
-48.80239520958084
20
-57.24550898203593
0
VERTEX
8
G1
10
-48.80239520958084
20
-57.565029940119764
0
VERTEX
8
G1
10
-48.20359281437126
20
-57.565029940119764
0
VERTEX
8
G1
10
-48.20359281437126
20
-57.24550898203593
0
VERTEX
8
G1
10
-44.67065868263474
20
-57.24550898203593
0
VERTEX
8
G1
10
-44.67065868263474
20
-57.565029940119764
0
VERTEX
8
G1
10
-44.07185628742515
20
-57.565029940119764
0
VERTEX
8
G1
10
-44.07185628742515
20
-57.24550898203593
0
VERTEX
8
G1
10
-43.712574850299404
20
-57.24550898203593
0
VERTEX
8
G1
10
-43.712574850299404
20
-52.93413173652695
0
SEQEND
0
POLYLINE
8
G1
66
1
70
1
0
VERTEX
8
G1
10
-32.934131736526936
20
-52.93413173652695
0
VERTEX
8
G1
10
-33.293413173652695
20
-52.93413173652695
0
VERTEX
8
G1
10
-33.293413173652695
20
-52.614610778443115
0
VERTEX
8
G1
10
-33.89221556886227
20
-52.614610778443115
0
VERTEX
8
G1
10
-33.89221556886227
20
-52.93413173652695
0
VERTEX
8
G1
10
-37.425149700598794
20
-52.93413173652695
0
VERTEX
8
G1
10
-37.425149700598794
20
-52.614610778443115
0
VERTEX
8
G1
10
-38.02395209580838
20
-52.614610778443115
0
VERTEX
8
G1
10
-38.02395209580838
20
-52.93413173652695
0
VERTEX
8
G1
10
-41.55688622754491
20
-52.93413173652695
0
VERTEX
8
G1
10
-41.55688622754491
20
-52.614610778443115
0
VERTEX
8
G1
10
-42.15568862275448
20
-52.614610778443115
0
VERTEX
8
G1
10
-42.15568862275448
20
-52.93413173652695
0
VERTEX
8
G1
10
-42.51497005988024
20
-52.93413173652695
0
VERTEX
8
G1
10
-42.51497005988024
20
-57.24550898203593
0
VERTEX
8
G1
10
-42.15568862275448
20
-57.24550898203593
0
VERTEX
8
G1
10
-42.15568862275448
20
-57.565029940119764
0
VERTEX
8
G1
10
-41.55688622754491
20
-57.565029940119764
0
VERTEX
8
G1
10
-41.55688622754491
20
-57.24550898203593
0
VERTEX
8
G1
10
-38.02395209580838
20
-57.24550898203593
0
VERTEX
8
G1
10
-38.02395209580838
20
-57.565029940119764
0
VERTEX
8
G1
10
-37.425149700598794
20
-57.565029940119764
0
VERTEX
8
G1
10
-37.425149700598794
20
-57.24550898203593
0
VERTEX
8
G1
10
-33.89221556886227
20
-57.24550898203593
0
VERTEX
8
G1
10
-33.89221556886227
20
-57.565029940119764
0
VERTEX
8
G1
10
-33.293413173652695
20
-57.565029940119764
0
VERTEX
8
G1
10
-33.293413173652695
20
-57.24550898203593
0
VERTEX
8
G1
10
-32.934131736526936
20
-57.24550898203593
0
VERTEX
8
G1
10
-32.934131736526936
20
-52.93413173652695
0
SEQEND
0
POLYLINE
8
G1
66
1
70
1
0
VERTEX
8
G1
10
-22.155688622754482
20
-52.93413173652695
0
VERTEX
8
G1
10
-22.51497005988024
20
-52.93413173652695
0
VERTEX
8
G1
10
-22.51497005988024
20
-52.614610778443115
0
VERTEX
8
G1
10
-23.113772455089816
20
-52.614610778443115
0
VERTEX
8
G1
10
-23.113772455089816
20
-52.93413173652695
0
VERTEX
8
G1
10
-26.64670658682634
20
-52.93413173652695
0
VERTEX
8
G1
10
-26.64670658682634
20
-52.614610778443115
0
VERTEX
8
G1
10
-27.24550898203593
20
-52.614610778443115
0
VERTEX
8
G1
10
-27.24550898203593
20
-52.93413173652695
0
VERTEX
8
G1
10
-30.778443113772454
20
-52.93413173652695
0
VERTEX
8
G1
10
-30.778443113772454
20
-52.614610778443115
0
VERTEX
8
G1
10
-31.37724550898203
20
-52.614610778443115
0
VERTEX
8
G1
10
-31.37724550898203
20
-52.93413173652695
0
VERTEX
8
G1
10
-31.736526946107787
20
-52.93413173652695
0
VERTEX
8
G1
10
-31.736526946107787
20
-57.24550898203593
0
VERTEX
8
G1
10
-31.37724550898203
20
-57.24550898203593
0
VERTEX
8
G1
10
-31.37724550898203
20
-57.565029940119764
0
VERTEX
8
G1
10
-30.778443113772454
20
-57.565029940119764
0
VERTEX
8
G1
10
-30.778443113772454
20
-57.24550898203593
0
VERTEX
8
G1
10
-27.24550898203593
20
-57.24550898203593
0
VERTEX
8
G1
10
-27.24550898203593
20
-57.565029940119764
0
VERTEX
8
G1
10
-26.64670658682634
20
-57.565029940119764
0
VERTEX
8
G1
10
-26.64670658682634
20
-57.24550898203593
0
VERTEX
8
G1
10
-23.113772455089816
20
-57.24550898203593
0
VERTEX
8
G1
10
-23.113772455089816
20
-57.565029940119764
0
VERTEX
8
G1
10
-22.51497005988024
20
-57.565029940119764
0
VERTEX
8
G1
10
-22.51497005988024
20
-57.24550898203593
0
VERTEX
8
G1
10
-22.155688622754482
20
-57.24550898203593
0
VERTEX
8
G1
10
-22.155688622754482
20
-52.93413173652695
0
SEQEND
0
POLYLINE
8
G1
66
1
70
1
0
VERTEX
8
G1
10
-11.377245508982028
20
-52.93413173652695
0
VERTEX
8
G1
10
-11.736526946107787
20
-52.93413173652695
0
VERTEX
8
G1
10
-11.736526946107787
20
-52.614610778443115
0
VERTEX
8
G1
10
-12.335329341317362
20
-52.614610778443115
0
VERTEX
8
G1
10
-12.335329341317362
20
-52.93413173652695
0
VERTEX
8
G1
10
-15.868263473053887
20
-52.93413173652695
0
VERTEX
8
G1
10
-15.868263473053887
20
-52.614610778443115
0
VERTEX
8
G1
10
-16.467065868263475
20
-52.614610778443115
0
VERTEX
8
G1
10
-16.467065868263475
20
-52.93413173652695
0
VERTEX
8
G1
10
-20.0
20
-52.93413173652695
0
VERTEX
8
G1
10
-20.0
20
-52.614610778443115
0
VERTEX
8
G1
10
-20.598802395209574
20
-52.614610778443115
0
VERTEX
8
G1
10
-20.598802395209574
20
-52.93413173652695
0
VERTEX
8
G1
10
-20.958083832335333
20
-52.93413173652695
0
VERTEX
8
G1
10
-20.958083832335333
20
-57.24550898203593
0
VERTEX
8
G1
10
-20.598802395209574
20
-57.24550898203593
0
VERTEX
8
G1
10
-20.598802395209574
20
-57.565029940119764
0
VERTEX
8
G1
10
-20.0
20
-57.565029940119764
0
VERTEX
8
G1
10
-20.0
20
-57.24550898203593
0
VERTEX
8
G1
10
-16.467065868263475
20
-57.24550898203593
0
VERTEX
8
G1
10
-16.467065868263475
20
-57.565029940119764
0
VERTEX
8
G1
10
-15.868263473053887
20
-57.565029940119764
0
VERTEX
8
G1
10
-15.868263473053887
20
-57.24550898203593
0
VERTEX
8
G1
10
-12.335329341317362
20
-57.24550898203593
0
VERTEX
8
G1
10
-12.335329341317362
20
-57.565029940119764
0
VERTEX
8
G1
10
-11.736526946107787
20
-57.565029940119764
0
VERTEX
8
G1
10
-11.736526946107787
20
-57.24550898203593
0
VERTEX
8
G1
10
-11.377245508982028
20
-57.24550898203593
0
VERTEX
8
G1
10
-11.377245508982028
20
-52.93413173652695
0
SEQEND
0
POLYLINE
8
G1
66
1
70
1
0
VERTEX
8
G1
10
-0.5988023952095745
20
-52.93413173652695
0
VERTEX
8
G1
10
-0.9580838323353333
20
-52.93413173652695
0
VERTEX
8
G1
10
-0.9580838323353333
20
-52.614610778443115
0
VERTEX
8
G1
10
-1.5568862275449078
20
-52.614610778443115
0
VERTEX
8
G1
10
-1.5568862275449078
20
-52.93413173652695
0
VERTEX
8
G1
10
-5.089820359281433
20
-52.93413173652695
0
VERTEX
8
G1
10
-5.089820359281433
20
-52.614610778443115
0
VERTEX
8
G1
10
-5.688622754491021
20
-52.614610778443115
0
VERTEX
8
G1
10
-5.688622754491021
20
-52.93413173652695
0
VERTEX
8
G1
10
-9.221556886227546
20
-52.93413173652695
0
VERTEX
8
G1
10
-9.221556886227546
20
-52.614610778443115
0
VERTEX
8
G1
10
-9.82035928143712
20
-52.614610778443115
0
VERTEX
8
G1
10
-9.82035928143712
20
-52.93413173652695
0
VERTEX
8
G1
10
-10.17964071856288
20
-52.93413173652695
0
VERTEX
8
G1
10
-10.17964071856288
20
-57.24550898203593
0
VERTEX
8
G1
10
-9.82035928143712
20
-57.24550898203593
0
VERTEX
8
G1
10
-9.82035928143712
20
-57.565029940119764
0
VERTEX
8
G1
10
-9.221556886227546
20
-57.565029940119764
0
VERTEX
8
G1
10
-9.221556886227546
20
-57.24550898203593
0
VERTEX
8
G1
10
-5.688622754491021
20
-57.24550898203593
0
VERTEX
8
G1
10
-5.688622754491021
20
-57.565029940119764
0
VERTEX
8
G1
10
-5.089820359281433
20
-57.565029940119764
0
VERTEX
8
G1
10
-5.089820359281433
20
-57.24550898203593
0
VERTEX
8
G1
10
-1.5568862275449078
20
-57.24550898203593
0
VERTEX
8
G1
10
-1.5568862275449078
20
-57.565029940119764
0
VERTEX
8
G1
10
-0.9580838323353333
20
-57.565029940119764
0
VERTEX
8
G1
10
-0.9580838323353333
20
-57.24550898203593
0
VERTEX
8
G1
10
-0.5988023952095745
20
-57.24550898203593
0
VERTEX
8
G1
10
-0.5988023952095745
20
-52.93413173652695
0
SEQEND
0
POLYLINE
8
G1
66
1
70
1
0
VERTEX
8
G1
10
10.17964071856288
20
-52.93413173652695
0
VERTEX
8
G1
10
9.82035928143712
20
-52.93413173652695
0
VERTEX
8
G1
10
9.82035928143712
20
-52.614610778443115
0
VERTEX
8
G1
10
9.221556886227546
20
-52.614610778443115
0
VERTEX
8
G1
10
9.221556886227546
20
-52.93413173652695
0
VERTEX
8
G1
10
5.688622754491021
20
-52.93413173652695
0
VERTEX
8
G1
10
5.688622754491021
20
-52.614610778443115
0
VERTEX
8
G1
10
5.089820359281433
20
-52.614610778443115
0
VERTEX
8
G1
10
5.089820359281433
20
-52.93413173652695
0
VERTEX
8
G1
10
1.5568862275449078
20
-52.93413173652695
0
VERTEX
8
G1
10
1.5568862275449078
20
-52.614610778443115
0
VERTEX
8
G1
10
0.9580838323353333
20
-52.614610778443115
0
VERTEX
8
G1
10
0.9580838323353333
20
-52.93413173652695
0
VERTEX
8
G1
10
0.5988023952095745
20
-52.93413173652695
0
VERTEX
8
G1
10
0.5988023952095745
20
-57.24550898203593
0
VERTEX
8
G1
10
0.9580838323353333
20
-57.24550898203593
0
VERTEX
8
G1
10
0.9580838323353333
20
-57.565029940119764
0
VERTEX
8
G1
10
1.5568862275449078
20
-57.565029940119764
0
VERTEX
8
G1
10
1.5568862275449078
20
-57.24550898203593
0
VERTEX
8
G1
10
5.089820359281433
20
-57.24550898203593
0
VERTEX
8
G1
10
5.089820359281433
20
-57.565029940119764
0
VERTEX
8
G1
10
5.688622754491021
20
-57.565029940119764
0
VERTEX
8
G1
10
5.688622754491021
20
-57.24550898203593
0
VERTEX
8
G1
10
9.221556886227546
20
-57.24550898203593
0
VERTEX
8
G1
10
9.221556886227546
20
-57.565029940119764
0
VERTEX
8
G1
10
9.82035928143712
20
-57.565029940119764
0
VERTEX
8
G1
10
9.82035928143712
20
-57.24550898203593
0
VERTEX
8
G1
10
10.17964071856288
20
-57.24550898203593
0
VERTEX
8
G1
10
10.17964071856288
20
-52.93413173652695
0
SEQEND
0
POLYLINE
8
G1
66
1
70
1
0
VERTEX
8
G1
10
20.958083832335333
20
-52.93413173652695
0
VERTEX
8
G1
10
20.598802395209574
20
-52.93413173652695
0
VERTEX
8
G1
10
20.598802395209574
20
-52.614610778443115
0
VERTEX
8
G1
10
19.999999999999986
20
-52.614610778443115
0
VERTEX
8
G1
10
19.999999999999986
20
-52.93413173652695
0
VERTEX
8
G1
10
16.467065868263475
20
-52.93413173652695
0
VERTEX
8
G1
10
16.467065868263475
20
-52.614610778443115
0
VERTEX
8
G1
10
15.868263473053887
20
-52.614610778443115
0
VERTEX
8
G1
10
15.868263473053887
20
-52.93413173652695
0
VERTEX
8
G1
10
12.335329341317362
20
-52.93413173652695
0
VERTEX
8
G1
10
12.335329341317362
20
-52.614610778443115
0
VERTEX
8
G1
10
11.736526946107787
20
-52.614610778443115
0
VERTEX
8
G1
10
11.736526946107787
20
-52.93413173652695
0
VERTEX
8
G1
10
11.377245508982028
20
-52.93413173652695
0
VERTEX
8
G1
10
11.377245508982028
20
-57.24550898203593
0
VERTEX
8
G1
10
11.736526946107787
20
-57.24550898203593
0
VERTEX
8
G1
10
11.736526946107787
20
-57.565029940119764
0
VERTEX
8
G1
10
12.335329341317362
20
-57.565029940119764
0
VERTEX
8
G1
10
12.335329341317362
20
-57.24550898203593
0
VERTEX
8
G1
10
15.868263473053887
20
-57.24550898203593
0
VERTEX
8
G1
10
15.868263473053887
20
-57.565029940119764
0
VERTEX
8
G1
10
16.467065868263475
20
-57.565029940119764
0
VERTEX
8
G1
10
16.467065868263475
20
-57.24550898203593
0
VERTEX
8
G1
10
19.999999999999986
20
-57.24550898203593
0
VERTEX
8
G1
10
19.999999999999986
20
-57.565029940119764
0
VERTEX
8
G1
10
20.598802395209574
20
-57.565029940119764
0
VERTEX
8
G1
10
20.598802395209574
20
-57.24550898203593
0
VERTEX
8
G1
10
20.958083832335333
20
-57.24550898203593
0
VERTEX
8
G1
10
20.958083832335333
20
-52.93413173652695
0
SEQEND
0
POLYLINE
8
G1
66
1
70
1
0
VERTEX
8
G1
10
31.736526946107787
20
-52.93413173652695
0
VERTEX
8
G1
10
31.37724550898203
20
-52.93413173652695
0
VERTEX
8
G1
10
31.37724550898203
20
-52.614610778443115
0
VERTEX
8
G1
10
30.77844311377244
20
-52.614610778443115
0
VERTEX
8
G1
10
30.77844311377244
20
-52.93413173652695
0
VERTEX
8
G1
10
27.24550898203593
20
-52.93413173652695
0
VERTEX
8
G1
10
27.24550898203593
20
-52.614610778443115
0
VERTEX
8
G1
10
26.64670658682634
20
-52.614610778443115
0
VERTEX
8
G1
10
26.64670658682634
20
-52.93413173652695
0
VERTEX
8
G1
10
23.11377245508983
20
-52.93413173652695
0
VERTEX
8
G1
10
23.11377245508983
20
-52.614610778443115
0
VERTEX
8
G1
10
22.51497005988024
20
-52.614610778443115
0
VERTEX
8
G1
10
22.51497005988024
20
-52.93413173652695
0
VERTEX
8
G1
10
22.155688622754482
20
-52.93413173652695
0
VERTEX
8
G1
10
22.155688622754482
20
-57.24550898203593
0
VERTEX
8
G1
10
22.51497005988024
20
-57.24550898203593
0
VERTEX
8
G1
10
22.51497005988024
20
-57.565029940119764
0
VERTEX
8
G1
10
23.11377245508983
20
-57.565029940119764
0
VERTEX
8
G1
10
23.11377245508983
20
-57.24550898203593
0
VERTEX
8
G1
10
26.64670658682634
20
-57.24550898203593
0
VERTEX
8
G1
10
26.64670658682634
20
-57.565029940119764
0
VERTEX
8
G1
10
27.24550898203593
20
-57.565029940119764
0
VERTEX
8
G1
10
27.24550898203593
20
-57.24550898203593
0
VERTEX
8
G1
10
30.77844311377244
20
-57.24550898203593
0
VERTEX
8
G1
10
30.77844311377244
20
-57.565029940119764
0
VERTEX
8
G1
10
31.37724550898203
20
-57.565029940119764
0
VERTEX
8
G1
10
31.37724550898203
20
-57.24550898203593
0
VERTEX
8
G1
10
31.736526946107787
20
-57.24550898203593
0
VERTEX
8
G1
10
31.736526946107787
20
-52.93413173652695
0
SEQEND
0
POLYLINE
8
G1
66
1
70
1
0
VERTEX
8
G1
10
42.51497005988024
20
-52.93413173652695
0
VERTEX
8
G1
10
42.15568862275448
20
-52.93413173652695
0
VERTEX
8
G1
10
42.15568862275448
20
-52.614610778443115
0
VERTEX
8
G1
10
41.556886227544894
20
-52.614610778443115
0
VERTEX
8
G1
10
41.556886227544894
20
-52.93413173652695
0
VERTEX
8
G1
10
38.02395209580838
20
-52.93413173652695
0
VERTEX
8
G1
10
38.02395209580838
20
-52.614610778443115
0
VERTEX
8
G1
10
37.425149700598794
20
-52.614610778443115
0
VERTEX
8
G1
10
37.425149700598794
20
-52.93413173652695
0
VERTEX
8
G1
10
33.892215568862284
20
-52.93413173652695
0
VERTEX
8
G1
10
33.892215568862284
20
-52.614610778443115
0
VERTEX
8
G1
10
33.293413173652695
20
-52.614610778443115
0
VERTEX
8
G1
10
33.293413173652695
20
-52.93413173652695
0
VERTEX
8
G1
10
32.934131736526936
20
-52.93413173652695
0
VERTEX
8
G1
10
32.934131736526936
20
-57.24550898203593
0
VERTEX
8
G1
10
33.293413173652695
20
-57.24550898203593
0
VERTEX
8
G1
10
33.293413173652695
20
-57.565029940119764
0
VERTEX
8
G1
10
33.892215568862284
20
-57.565029940119764
0
VERTEX
8
G1
10
33.892215568862284
20
-57.24550898203593
0
VERTEX
8
G1
10
37.425149700598794
20
-57.24550898203593
0
VERTEX
8
G1
10
37.425149700598794
20
-57.565029940119764
0
VERTEX
8
G1
10
38.02395209580838
20
-57.565029940119764
0
VERTEX
8
G1
10
38.02395209580838
20
-57.24550898203593
0
VERTEX
8
G1
10
41.556886227544894
20
-57.24550898203593
0
VERTEX
8
G1
10
41.556886227544894
20
-57.565029940119764
0
VERTEX
8
G1
10
42.15568862275448
20
-57.565029940119764
0
VERTEX
8
G1
10
42.15568862275448
20
-57.24550898203593
0
VERTEX
8
G1
10
42.51497005988024
20
-57.24550898203593
0
VERTEX
8
G1
10
42.51497005988024
20
-52.93413173652695
0
SEQEND
0
POLYLINE
8
G1
66
1
70
1
0
VERTEX
8
G1
10
53.293413173652695
20
-52.93413173652695
0
VERTEX
8
G1
10
52.934131736526936
20
-52.93413173652695
0
VERTEX
8
G1
10
52.934131736526936
20
-52.614610778443115
0
VERTEX
8
G1
10
52.33532934131735
20
-52.614610778443115
0
VERTEX
8
G1
10
52.33532934131735
20
-52.93413173652695
0
VERTEX
8
G1
10
48.80239520958084
20
-52.93413173652695
0
VERTEX
8
G1
10
48.80239520958084
20
-52.614610778443115
0
VERTEX
8
G1
10
48.20359281437125
20
-52.614610778443115
0
VERTEX
8
G1
10
48.20359281437125
20
-52.93413173652695
0
VERTEX
8
G1
10
44.67065868263474
20
-52.93413173652695
0
VERTEX
8
G1
10
44.67065868263474
20
-52.614610778443115
0
VERTEX
8
G1
10
44.07185628742515
20
-52.614610778443115
0
VERTEX
8
G1
10
44.07185628742515
20
-52.93413173652695
0
VERTEX
8
G1
10
43.71257485029939
20
-52.93413173652695
0
VERTEX
8
G1
10
43.71257485029939
20
-57.24550898203593
0
VERTEX
8
G1
10
44.07185628742515
20
-57.24550898203593
0
VERTEX
8
G1
10
44.07185628742515
20
-57.565029940119764
0
VERTEX
8
G1
10
44.67065868263474
20
-57.565029940119764
0
VERTEX
8
G1
10
44.67065868263474
20
-57.24550898203593
0
VERTEX
8
G1
10
48.20359281437125
20
-57.24550898203593
0
VERTEX
8
G1
10
48.20359281437125
20
-57.565029940119764
0
VERTEX
8
G1
10
48.80239520958084
20
-57.565029940119764
0
VERTEX
8
G1
10
48.80239520958084
20
-57.24550898203593
0
VERTEX
8
G1
10
52.33532934131735
20
-57.24550898203593
0
VERTEX
8
G1
10
52.33532934131735
20
-57.565029940119764
0
VERTEX
8
G1
10
52.934131736526936
20
-57.565029940119764
0
VERTEX
8
G1
10
52.934131736526936
20
-57.24550898203593
0
VERTEX
8
G1
10
53.293413173652695
20
-57.24550898203593
0
VERTEX
8
G1
10
53.293413173652695
20
-52.93413173652695
0
SEQEND
0
ENDBLK
0
ENDSEC
0
SECTION
2
ENTITIES
0
INSERT
2
LDI_XFL94-0512-011_G1_B1
8
G1
10
0
20
0.0
30
0
0
INSERT
2
LDI_XFL94-0512-011_G1_B1
8
G1
10
0
20
4.790419161676647
30
0
0
INSERT
2
LDI_XFL94-0512-011_G1_B1
8
G1
10
0
20
9.580838323353294
30
0
0
INSERT
2
LDI_XFL94-0512-011_G1_B1
8
G1
10
0
20
14.371257485029941
30
0
0
INSERT
2
LDI_XFL94-0512-011_G1_B1
8
G1
10
0
20
19.16167664670659
30
0
0
INSERT
2
LDI_XFL94-0512-011_G1_B1
8
G1
10
0
20
23.952095808383234
30
0
0
INSERT
2
LDI_XFL94-0512-011_G1_B1
8
G1
10
0
20
28.742514970059883
30
0
0
INSERT
2
LDI_XFL94-0512-011_G1_B1
8
G1
10
0
20
33.53293413173653
30
0
0
INSERT
2
LDI_XFL94-0512-011_G1_B1
8
G1
10
0
20
38.32335329341318
30
0
0
INSERT
2
LDI_XFL94-0512-011_G1_B1
8
G1
10
0
20
43.11377245508982
30
0
0
INSERT
2
LDI_XFL94-0512-011_G1_B1
8
G1
10
0
20
47.90419161676647
30
0
0
INSERT
2
LDI_XFL94-0512-011_G1_B1
8
G1
10
0
20
52.69461077844312
30
0
0
INSERT
2
LDI_XFL94-0512-011_G1_B1
8
G1
10
0
20
57.485029940119766
30
0
0
INSERT
2
LDI_XFL94-0512-011_G1_B1
8
G1
10
0
20
62.27544910179641
30
0
0
INSERT
2
LDI_XFL94-0512-011_G1_B1
8
G1
10
0
20
67.06586826347306
30
0
0
INSERT
2
LDI_XFL94-0512-011_G1_B1
8
G1
10
0
20
71.8562874251497
30
0
0
INSERT
2
LDI_XFL94-0512-011_G1_B1
8
G1
10
0
20
76.64670658682635
30
0
0
INSERT
2
LDI_XFL94-0512-011_G1_B1
8
G1
10
0
20
81.43712574850301
30
0
0
INSERT
2
LDI_XFL94-0512-011_G1_B1
8
G1
10
0
20
86.22754491017965
30
0
0
INSERT
2
LDI_XFL94-0512-011_G1_B1
8
G1
10
0
20
91.0179640718563
30
0
0
INSERT
2
LDI_XFL94-0512-011_G1_B1
8
G1
10
0
20
95.80838323353294
30
0
0
INSERT
2
LDI_XFL94-0512-011_G1_B1
8
G1
10
0
20
100.59880239520959
30
0
0
INSERT
2
LDI_XFL94-0512-011_G1_B1
8
G1
10
0
20
105.38922155688624
30
0
0
INSERT
2
LDI_XFL94-0512-011_G1_B1
8
G1
10
0
20
110.17964071856288
30
0
0
POLYLINE
8
G1
66
1
70
1
40
0.1
41
0.1
0
VERTEX
8
G1
10
-61.5
20
-61.2
42
1.0
0
VERTEX
8
G1
10
-60.900000000000006
20
-61.2
42
1.0
0
SEQEND
0
POLYLINE
8
G1
66
1
70
1
40
0.1
41
0.1
0
VERTEX
8
G1
10
-61.5
20
61.2
42
1.0
0
VERTEX
8
G1
10
-60.900000000000006
20
61.2
42
1.0
0
SEQEND
0
POLYLINE
8
G1
66
1
70
1
40
0.1
41
0.1
0
VERTEX
8
G1
10
60.90000000000002
20
-61.2
42
1.0
0
VERTEX
8
G1
10
61.499999999999986
20
-61.2
42
1.0
0
SEQEND
0
POLYLINE
8
G1
66
1
70
1
40
0.1
41
0.1
0
VERTEX
8
G1
10
60.90000000000002
20
61.2
42
1.0
0
VERTEX
8
G1
10
61.499999999999986
20
61.2
42
1.0
0
SEQEND
0
POLYLINE
8
G1
66
1
70
1
0
VERTEX
8
G1
10
-64.46966991411009
20
-64.46966991411009
40
0.08
41
0.08
0
VERTEX
8
G1
10
-65.53033008588991
20
-65.53033008588991
40
0.08
41
0.08
0
SEQEND
0
POLYLINE
8
G1
66
1
70
1
0
VERTEX
8
G1
10
-64.46966991411009
20
-65.53033008588991
40
0.08
41
0.08
0
VERTEX
8
G1
10
-65.53033008588991
20
-64.46966991411009
40
0.08
41
0.08
0
SEQEND
0
POLYLINE
8
G1
66
1
70
1
0
VERTEX
8
G1
10
-64.46966991411009
20
65.53033008588993
40
0.08
41
0.08
0
VERTEX
8
G1
10
-65.53033008588991
20
64.4696699141101
40
0.08
41
0.08
0
SEQEND
0
POLYLINE
8
G1
66
1
70
1
0
VERTEX
8
G1
10
-64.46966991411009
20
64.4696699141101
40
0.08
41
0.08
0
VERTEX
8
G1
10
-65.53033008588991
20
65.53033008588993
40
0.08
41
0.08
0
SEQEND
0
POLYLINE
8
G1
66
1
70
1
0
VERTEX
8
G1
10
65.53033008588993
20
65.53033008588993
40
0.08
41
0.08
0
VERTEX
8
G1
10
64.4696699141101
20
64.4696699141101
40
0.08
41
0.08
0
SEQEND
0
POLYLINE
8
G1
66
1
70
1
0
VERTEX
8
G1
10
65.53033008588993
20
64.4696699141101
40
0.08
41
0.08
0
VERTEX
8
G1
10
64.4696699141101
20
65.53033008588993
40
0.08
41
0.08
0
SEQEND
0
POLYLINE
8
G1
66
1
70
1
0
VERTEX
8
G1
10
65.74999999999999
20
-65.0
40
0.08
41
0.08
0
VERTEX
8
G1
10
64.24999999999999
20
-65.0
40
0.08
41
0.08
0
SEQEND
0
POLYLINE
8
G1
66
1
70
1
0
VERTEX
8
G1
10
64.99999999999999
20
-64.25
40
0.08
41
0.08
0
VERTEX
8
G1
10
64.99999999999999
20
-65.75
40
0.08
41
0.08
0
SEQEND
0
POLYLINE
8
G1
66
1
70
1
0
VERTEX
8
G1
10
-53.89221556886228
20
-61.2
40
0.08
41
0.08
0
VERTEX
8
G1
10
-53.89221556886228
20
-64.2
40
0.08
41
0.08
0
SEQEND
0
POLYLINE
8
G1
66
1
70
1
0
VERTEX
8
G1
10
-53.89221556886228
20
61.2
40
0.08
41
0.08
0
VERTEX
8
G1
10
-53.89221556886228
20
64.2
40
0.08
41
0.08
0
SEQEND
0
POLYLINE
8
G1
66
1
70
1
0
VERTEX
8
G1
10
-43.11377245508983
20
-61.2
40
0.08
41
0.08
0
VERTEX
8
G1
10
-43.11377245508983
20
-64.2
40
0.08
41
0.08
0
SEQEND
0
POLYLINE
8
G1
66
1
70
1
0
VERTEX
8
G1
10
-43.11377245508983
20
61.2
40
0.08
41
0.08
0
VERTEX
8
G1
10
-43.11377245508983
20
64.2
40
0.08
41
0.08
0
SEQEND
0
POLYLINE
8
G1
66
1
70
1
0
VERTEX
8
G1
10
-32.33532934131736
20
-61.2
40
0.08
41
0.08
0
VERTEX
8
G1
10
-32.33532934131736
20
-64.2
40
0.08
41
0.08
0
SEQEND
0
POLYLINE
8
G1
66
1
70
1
0
VERTEX
8
G1
10
-32.33532934131736
20
61.2
40
0.08
41
0.08
0
VERTEX
8
G1
10
-32.33532934131736
20
64.2
40
0.08
41
0.08
0
SEQEND
0
POLYLINE
8
G1
66
1
70
1
0
VERTEX
8
G1
10
-21.556886227544908
20
-61.2
40
0.08
41
0.08
0
VERTEX
8
G1
10
-21.556886227544908
20
-64.2
40
0.08
41
0.08
0
SEQEND
0
POLYLINE
8
G1
66
1
70
1
0
VERTEX
8
G1
10
-21.556886227544908
20
61.2
40
0.08
41
0.08
0
VERTEX
8
G1
10
-21.556886227544908
20
64.2
40
0.08
41
0.08
0
SEQEND
0
POLYLINE
8
G1
66
1
70
1
0
VERTEX
8
G1
10
-10.778443113772454
20
-61.2
40
0.08
41
0.08
0
VERTEX
8
G1
10
-10.778443113772454
20
-64.2
40
0.08
41
0.08
0
SEQEND
0
POLYLINE
8
G1
66
1
70
1
0
VERTEX
8
G1
10
-10.778443113772454
20
61.2
40
0.08
41
0.08
0
VERTEX
8
G1
10
-10.778443113772454
20
64.2
40
0.08
41
0.08
0
SEQEND
0
POLYLINE
8
G1
66
1
70
1
0
VERTEX
8
G1
10
0.0
20
-61.2
40
0.08
41
0.08
0
VERTEX
8
G1
10
0.0
20
-64.2
40
0.08
41
0.08
0
SEQEND
0
POLYLINE
8
G1
66
1
70
1
0
VERTEX
8
G1
10
0.0
20
61.2
40
0.08
41
0.08
0
VERTEX
8
G1
10
0.0
20
64.2
40
0.08
41
0.08
0
SEQEND
0
POLYLINE
8
G1
66
1
70
1
0
VERTEX
8
G1
10
10.778443113772468
20
-61.2
40
0.08
41
0.08
0
VERTEX
8
G1
10
10.778443113772468
20
-64.2
40
0.08
41
0.08
0
SEQEND
0
POLYLINE
8
G1
66
1
70
1
0
VERTEX
8
G1
10
10.778443113772468
20
61.2
40
0.08
41
0.08
0
VERTEX
8
G1
10
10.778443113772468
20
64.2
40
0.08
41
0.08
0
SEQEND
0
POLYLINE
8
G1
66
1
70
1
0
VERTEX
8
G1
10
21.556886227544922
20
-61.2
40
0.08
41
0.08
0
VERTEX
8
G1
10
21.556886227544922
20
-64.2
40
0.08
41
0.08
0
SEQEND
0
POLYLINE
8
G1
66
1
70
1
0
VERTEX
8
G1
10
21.556886227544922
20
61.2
40
0.08
41
0.08
0
VERTEX
8
G1
10
21.556886227544922
20
64.2
40
0.08
41
0.08
0
SEQEND
0
POLYLINE
8
G1
66
1
70
1
0
VERTEX
8
G1
10
32.335329341317376
20
-61.2
40
0.08
41
0.08
0
VERTEX
8
G1
10
32.335329341317376
20
-64.2
40
0.08
41
0.08
0
SEQEND
0
POLYLINE
8
G1
66
1
70
1
0
VERTEX
8
G1
10
32.335329341317376
20
61.2
40
0.08
41
0.08
0
VERTEX
8
G1
10
32.335329341317376
20
64.2
40
0.08
41
0.08
0
SEQEND
0
POLYLINE
8
G1
66
1
70
1
0
VERTEX
8
G1
10
43.11377245508983
20
-61.2
40
0.08
41
0.08
0
VERTEX
8
G1
10
43.11377245508983
20
-64.2
40
0.08
41
0.08
0
SEQEND
0
POLYLINE
8
G1
66
1
70
1
0
VERTEX
8
G1
10
43.11377245508983
20
61.2
40
0.08
41
0.08
0
VERTEX
8
G1
10
43.11377245508983
20
64.2
40
0.08
41
0.08
0
SEQEND
0
POLYLINE
8
G1
66
1
70
1
0
VERTEX
8
G1
10
53.892215568862284
20
-61.2
40
0.08
41
0.08
0
VERTEX
8
G1
10
53.892215568862284
20
-64.2
40
0.08
41
0.08
0
SEQEND
0
POLYLINE
8
G1
66
1
70
1
0
VERTEX
8
G1
10
53.892215568862284
20
61.2
40
0.08
41
0.08
0
VERTEX
8
G1
10
53.892215568862284
20
64.2
40
0.08
41
0.08
0
SEQEND
0
POLYLINE
8
G1
66
1
70
1
0
VERTEX
8
G1
10
-61.2
20
-57.485029940119766
40
0.08
41
0.08
0
VERTEX
8
G1
10
-64.2
20
-57.485029940119766
40
0.08
41
0.08
0
SEQEND
0
POLYLINE
8
G1
66
1
70
1
0
VERTEX
8
G1
10
61.2
20
-57.485029940119766
40
0.08
41
0.08
0
VERTEX
8
G1
10
64.2
20
-57.485029940119766
40
0.08
41
0.08
0
SEQEND
0
POLYLINE
8
G1
66
1
70
1
0
VERTEX
8
G1
10
-61.2
20
-52.69461077844312
40
0.08
41
0.08
0
VERTEX
8
G1
10
-64.2
20
-52.69461077844312
40
0.08
41
0.08
0
SEQEND
0
POLYLINE
8
G1
66
1
70
1
0
VERTEX
8
G1
10
61.2
20
-52.69461077844312
40
0.08
41
0.08
0
VERTEX
8
G1
10
64.2
20
-52.69461077844312
40
0.08
41
0.08
0
SEQEND
0
POLYLINE
8
G1
66
1
70
1
0
VERTEX
8
G1
10
-61.2
20
-47.90419161676647
40
0.08
41
0.08
0
VERTEX
8
G1
10
-64.2
20
-47.90419161676647
40
0.08
41
0.08
0
SEQEND
0
POLYLINE
8
G1
66
1
70
1
0
VERTEX
8
G1
10
61.2
20
-47.90419161676647
40
0.08
41
0.08
0
VERTEX
8
G1
10
64.2
20
-47.90419161676647
40
0.08
41
0.08
0
SEQEND
0
POLYLINE
8
G1
66
1
70
1
0
VERTEX
8
G1
10
-61.2
20
-43.11377245508983
40
0.08
41
0.08
0
VERTEX
8
G1
10
-64.2
20
-43.11377245508983
40
0.08
41
0.08
0
SEQEND
0
POLYLINE
8
G1
66
1
70
1
0
VERTEX
8
G1
10
61.2
20
-43.11377245508983
40
0.08
41
0.08
0
VERTEX
8
G1
10
64.2
20
-43.11377245508983
40
0.08
41
0.08
0
SEQEND
0
POLYLINE
8
G1
66
1
70
1
0
VERTEX
8
G1
10
-61.2
20
-38.32335329341318
40
0.08
41
0.08
0
VERTEX
8
G1
10
-64.2
20
-38.32335329341318
40
0.08
41
0.08
0
SEQEND
0
POLYLINE
8
G1
66
1
70
1
0
VERTEX
8
G1
10
61.2
20
-38.32335329341318
40
0.08
41
0.08
0
VERTEX
8
G1
10
64.2
20
-38.32335329341318
40
0.08
41
0.08
0
SEQEND
0
POLYLINE
8
G1
66
1
70
1
0
VERTEX
8
G1
10
-61.2
20
-33.532934131736525
40
0.08
41
0.08
0
VERTEX
8
G1
10
-64.2
20
-33.532934131736525
40
0.08
41
0.08
0
SEQEND
0
POLYLINE
8
G1
66
1
70
1
0
VERTEX
8
G1
10
61.2
20
-33.532934131736525
40
0.08
41
0.08
0
VERTEX
8
G1
10
64.2
20
-33.532934131736525
40
0.08
41
0.08
0
SEQEND
0
POLYLINE
8
G1
66
1
70
1
0
VERTEX
8
G1
10
-61.2
20
-28.742514970059887
40
0.08
41
0.08
0
VERTEX
8
G1
10
-64.2
20
-28.742514970059887
40
0.08
41
0.08
0
SEQEND
0
POLYLINE
8
G1
66
1
70
1
0
VERTEX
8
G1
10
61.2
20
-28.742514970059887
40
0.08
41
0.08
0
VERTEX
8
G1
10
64.2
20
-28.742514970059887
40
0.08
41
0.08
0
SEQEND
0
POLYLINE
8
G1
66
1
70
1
0
VERTEX
8
G1
10
-61.2
20
-23.952095808383234
40
0.08
41
0.08
0
VERTEX
8
G1
10
-64.2
20
-23.952095808383234
40
0.08
41
0.08
0
SEQEND
0
POLYLINE
8
G1
66
1
70
1
0
VERTEX
8
G1
10
61.2
20
-23.952095808383234
40
0.08
41
0.08
0
VERTEX
8
G1
10
64.2
20
-23.952095808383234
40
0.08
41
0.08
0
SEQEND
0
POLYLINE
8
G1
66
1
70
1
0
VERTEX
8
G1
10
-61.2
20
-19.161676646706596
40
0.08
41
0.08
0
VERTEX
8
G1
10
-64.2
20
-19.161676646706596
40
0.08
41
0.08
0
SEQEND
0
POLYLINE
8
G1
66
1
70
1
0
VERTEX
8
G1
10
61.2
20
-19.161676646706596
40
0.08
41
0.08
0
VERTEX
8
G1
10
64.2
20
-19.161676646706596
40
0.08
41
0.08
0
SEQEND
0
POLYLINE
8
G1
66
1
70
1
0
VERTEX
8
G1
10
-61.2
20
-14.371257485029943
40
0.08
41
0.08
0
VERTEX
8
G1
10
-64.2
20
-14.371257485029943
40
0.08
41
0.08
0
SEQEND
0
POLYLINE
8
G1
66
1
70
1
0
VERTEX
8
G1
10
61.2
20
-14.371257485029943
40
0.08
41
0.08
0
VERTEX
8
G1
10
64.2
20
-14.371257485029943
40
0.08
41
0.08
0
SEQEND
0
POLYLINE
8
G1
66
1
70
1
0
VERTEX
8
G1
10
-61.2
20
-9.58083832335329
40
0.08
41
0.08
0
VERTEX
8
G1
10
-64.2
20
-9.58083832335329
40
0.08
41
0.08
0
SEQEND
0
POLYLINE
8
G1
66
1
70
1
0
VERTEX
8
G1
10
61.2
20
-9.58083832335329
40
0.08
41
0.08
0
VERTEX
8
G1
10
64.2
20
-9.58083832335329
40
0.08
41
0.08
0
SEQEND
0
POLYLINE
8
G1
66
1
70
1
0
VERTEX
8
G1
10
-61.2
20
-4.790419161676638
40
0.08
41
0.08
0
VERTEX
8
G1
10
-64.2
20
-4.790419161676638
40
0.08
41
0.08
0
SEQEND
0
POLYLINE
8
G1
66
1
70
1
0
VERTEX
8
G1
10
61.2
20
-4.790419161676638
40
0.08
41
0.08
0
VERTEX
8
G1
10
64.2
20
-4.790419161676638
40
0.08
41
0.08
0
SEQEND
0
POLYLINE
8
G1
66
1
70
1
0
VERTEX
8
G1
10
-61.2
20
0.0
40
0.08
41
0.08
0
VERTEX
8
G1
10
-64.2
20
0.0
40
0.08
41
0.08
0
SEQEND
0
POLYLINE
8
G1
66
1
70
1
0
VERTEX
8
G1
10
61.2
20
0.0
40
0.08
41
0.08
0
VERTEX
8
G1
10
64.2
20
0.0
40
0.08
41
0.08
0
SEQEND
0
POLYLINE
8
G1
66
1
70
1
0
VERTEX
8
G1
10
-61.2
20
4.790419161676638
40
0.08
41
0.08
0
VERTEX
8
G1
10
-64.2
20
4.790419161676638
40
0.08
41
0.08
0
SEQEND
0
POLYLINE
8
G1
66
1
70
1
0
VERTEX
8
G1
10
61.2
20
4.790419161676638
40
0.08
41
0.08
0
VERTEX
8
G1
10
64.2
20
4.790419161676638
40
0.08
41
0.08
0
SEQEND
0
POLYLINE
8
G1
66
1
70
1
0
VERTEX
8
G1
10
-61.2
20
9.58083832335329
40
0.08
41
0.08
0
VERTEX
8
G1
10
-64.2
20
9.58083832335329
40
0.08
41
0.08
0
SEQEND
0
POLYLINE
8
G1
66
1
70
1
0
VERTEX
8
G1
10
61.2
20
9.58083832335329
40
0.08
41
0.08
0
VERTEX
8
G1
10
64.2
20
9.58083832335329
40
0.08
41
0.08
0
SEQEND
0
POLYLINE
8
G1
66
1
70
1
0
VERTEX
8
G1
10
-61.2
20
14.371257485029943
40
0.08
41
0.08
0
VERTEX
8
G1
10
-64.2
20
14.371257485029943
40
0.08
41
0.08
0
SEQEND
0
POLYLINE
8
G1
66
1
70
1
0
VERTEX
8
G1
10
61.2
20
14.371257485029943
40
0.08
41
0.08
0
VERTEX
8
G1
10
64.2
20
14.371257485029943
40
0.08
41
0.08
0
SEQEND
0
POLYLINE
8
G1
66
1
70
1
0
VERTEX
8
G1
10
-61.2
20
19.161676646706596
40
0.08
41
0.08
0
VERTEX
8
G1
10
-64.2
20
19.161676646706596
40
0.08
41
0.08
0
SEQEND
0
POLYLINE
8
G1
66
1
70
1
0
VERTEX
8
G1
10
61.2
20
19.161676646706596
40
0.08
41
0.08
0
VERTEX
8
G1
10
64.2
20
19.161676646706596
40
0.08
41
0.08
0
SEQEND
0
POLYLINE
8
G1
66
1
70
1
0
VERTEX
8
G1
10
-61.2
20
23.95209580838325
40
0.08
41
0.08
0
VERTEX
8
G1
10
-64.2
20
23.95209580838325
40
0.08
41
0.08
0
SEQEND
0
POLYLINE
8
G1
66
1
70
1
0
VERTEX
8
G1
10
61.2
20
23.95209580838325
40
0.08
41
0.08
0
VERTEX
8
G1
10
64.2
20
23.95209580838325
40
0.08
41
0.08
0
SEQEND
0
POLYLINE
8
G1
66
1
70
1
0
VERTEX
8
G1
10
-61.2
20
28.742514970059872
40
0.08
41
0.08
0
VERTEX
8
G1
10
-64.2
20
28.742514970059872
40
0.08
41
0.08
0
SEQEND
0
POLYLINE
8
G1
66
1
70
1
0
VERTEX
8
G1
10
61.2
20
28.742514970059872
40
0.08
41
0.08
0
VERTEX
8
G1
10
64.2
20
28.742514970059872
40
0.08
41
0.08
0
SEQEND
0
POLYLINE
8
G1
66
1
70
1
0
VERTEX
8
G1
10
-61.2
20
33.532934131736525
40
0.08
41
0.08
0
VERTEX
8
G1
10
-64.2
20
33.532934131736525
40
0.08
41
0.08
0
SEQEND
0
POLYLINE
8
G1
66
1
70
1
0
VERTEX
8
G1
10
61.2
20
33.532934131736525
40
0.08
41
0.08
0
VERTEX
8
G1
10
64.2
20
33.532934131736525
40
0.08
41
0.08
0
SEQEND
0
POLYLINE
8
G1
66
1
70
1
0
VERTEX
8
G1
10
-61.2
20
38.32335329341318
40
0.08
41
0.08
0
VERTEX
8
G1
10
-64.2
20
38.32335329341318
40
0.08
41
0.08
0
SEQEND
0
POLYLINE
8
G1
66
1
70
1
0
VERTEX
8
G1
10
61.2
20
38.32335329341318
40
0.08
41
0.08
0
VERTEX
8
G1
10
64.2
20
38.32335329341318
40
0.08
41
0.08
0
SEQEND
0
POLYLINE
8
G1
66
1
70
1
0
VERTEX
8
G1
10
-61.2
20
43.11377245508983
40
0.08
41
0.08
0
VERTEX
8
G1
10
-64.2
20
43.11377245508983
40
0.08
41
0.08
0
SEQEND
0
POLYLINE
8
G1
66
1
70
1
0
VERTEX
8
G1
10
61.2
20
43.11377245508983
40
0.08
41
0.08
0
VERTEX
8
G1
10
64.2
20
43.11377245508983
40
0.08
41
0.08
0
SEQEND
0
POLYLINE
8
G1
66
1
70
1
0
VERTEX
8
G1
10
-61.2
20
47.90419161676648
40
0.08
41
0.08
0
VERTEX
8
G1
10
-64.2
20
47.90419161676648
40
0.08
41
0.08
0
SEQEND
0
POLYLINE
8
G1
66
1
70
1
0
VERTEX
8
G1
10
61.2
20
47.90419161676648
40
0.08
41
0.08
0
VERTEX
8
G1
10
64.2
20
47.90419161676648
40
0.08
41
0.08
0
SEQEND
0
POLYLINE
8
G1
66
1
70
1
0
VERTEX
8
G1
10
-61.2
20
52.694610778443106
40
0.08
41
0.08
0
VERTEX
8
G1
10
-64.2
20
52.694610778443106
40
0.08
41
0.08
0
SEQEND
0
POLYLINE
8
G1
66
1
70
1
0
VERTEX
8
G1
10
61.2
20
52.694610778443106
40
0.08
41
0.08
0
VERTEX
8
G1
10
64.2
20
52.694610778443106
40
0.08
41
0.08
0
SEQEND
0
POLYLINE
8
G1
66
1
70
1
0
VERTEX
8
G1
10
-61.2
20
57.48502994011976
40
0.08
41
0.08
0
VERTEX
8
G1
10
-64.2
20
57.48502994011976
40
0.08
41
0.08
0
SEQEND
0
POLYLINE
8
G1
66
1
70
1
0
VERTEX
8
G1
10
61.2
20
57.48502994011976
40
0.08
41
0.08
0
VERTEX
8
G1
10
64.2
20
57.48502994011976
40
0.08
41
0.08
0
SEQEND
0
INSERT
2
cutlineendpoint
8
G1
10
-64.46966991411009
20
-64.46966991411009
0
INSERT
2
cutlineendpoint
8
G1
10
-65.53033008588991
20
-65.53033008588991
0
INSERT
2
cutlineendpoint
8
G1
10
-64.46966991411009
20
-65.53033008588991
0
INSERT
2
cutlineendpoint
8
G1
10
-65.53033008588991
20
-64.46966991411009
0
INSERT
2
cutlineendpoint
8
G1
10
-64.46966991411009
20
65.53033008588993
0
INSERT
2
cutlineendpoint
8
G1
10
-65.53033008588991
20
64.4696699141101
0
INSERT
2
cutlineendpoint
8
G1
10
-64.46966991411009
20
64.4696699141101
0
INSERT
2
cutlineendpoint
8
G1
10
-65.53033008588991
20
65.53033008588993
0
INSERT
2
cutlineendpoint
8
G1
10
65.53033008588993
20
65.53033008588993
0
INSERT
2
cutlineendpoint
8
G1
10
64.4696699141101
20
64.4696699141101
0
INSERT
2
cutlineendpoint
8
G1
10
65.53033008588993
20
64.4696699141101
0
INSERT
2
cutlineendpoint
8
G1
10
64.4696699141101
20
65.53033008588993
0
INSERT
2
cutlineendpoint
8
G1
10
65.74999999999999
20
-65.0
0
INSERT
2
cutlineendpoint
8
G1
10
64.24999999999999
20
-65.0
0
INSERT
2
cutlineendpoint
8
G1
10
64.99999999999999
20
-64.25
0
INSERT
2
cutlineendpoint
8
G1
10
64.99999999999999
20
-65.75
0
INSERT
2
cutlineendpoint
8
G1
10
-53.89221556886228
20
-61.2
0
INSERT
2
cutlineendpoint
8
G1
10
-53.89221556886228
20
61.2
0
INSERT
2
cutlineendpoint
8
G1
10
-53.89221556886228
20
-64.2
0
INSERT
2
cutlineendpoint
8
G1
10
-53.89221556886228
20
64.2
0
INSERT
2
cutlineendpoint
8
G1
10
-43.11377245508983
20
-61.2
0
INSERT
2
cutlineendpoint
8
G1
10
-43.11377245508983
20
61.2
0
INSERT
2
cutlineendpoint
8
G1
10
-43.11377245508983
20
-64.2
0
INSERT
2
cutlineendpoint
8
G1
10
-43.11377245508983
20
64.2
0
INSERT
2
cutlineendpoint
8
G1
10
-32.33532934131736
20
-61.2
0
INSERT
2
cutlineendpoint
8
G1
10
-32.33532934131736
20
61.2
0
INSERT
2
cutlineendpoint
8
G1
10
-32.33532934131736
20
-64.2
0
INSERT
2
cutlineendpoint
8
G1
10
-32.33532934131736
20
64.2
0
INSERT
2
cutlineendpoint
8
G1
10
-21.556886227544908
20
-61.2
0
INSERT
2
cutlineendpoint
8
G1
10
-21.556886227544908
20
61.2
0
INSERT
2
cutlineendpoint
8
G1
10
-21.556886227544908
20
-64.2
0
INSERT
2
cutlineendpoint
8
G1
10
-21.556886227544908
20
64.2
0
INSERT
2
cutlineendpoint
8
G1
10
-10.778443113772454
20
-61.2
0
INSERT
2
cutlineendpoint
8
G1
10
-10.778443113772454
20
61.2
0
INSERT
2
cutlineendpoint
8
G1
10
-10.778443113772454
20
-64.2
0
INSERT
2
cutlineendpoint
8
G1
10
-10.778443113772454
20
64.2
0
INSERT
2
cutlineendpoint
8
G1
10
0.0
20
-61.2
0
INSERT
2
cutlineendpoint
8
G1
10
0.0
20
61.2
0
INSERT
2
cutlineendpoint
8
G1
10
0.0
20
-64.2
0
INSERT
2
cutlineendpoint
8
G1
10
0.0
20
64.2
0
INSERT
2
cutlineendpoint
8
G1
10
10.778443113772468
20
-61.2
0
INSERT
2
cutlineendpoint
8
G1
10
10.778443113772468
20
61.2
0
INSERT
2
cutlineendpoint
8
G1
10
10.778443113772468
20
-64.2
0
INSERT
2
cutlineendpoint
8
G1
10
10.778443113772468
20
64.2
0
INSERT
2
cutlineendpoint
8
G1
10
21.556886227544922
20
-61.2
0
INSERT
2
cutlineendpoint
8
G1
10
21.556886227544922
20
61.2
0
INSERT
2
cutlineendpoint
8
G1
10
21.556886227544922
20
-64.2
0
INSERT
2
cutlineendpoint
8
G1
10
21.556886227544922
20
64.2
0
INSERT
2
cutlineendpoint
8
G1
10
32.335329341317376
20
-61.2
0
INSERT
2
cutlineendpoint
8
G1
10
32.335329341317376
20
61.2
0
INSERT
2
cutlineendpoint
8
G1
10
32.335329341317376
20
-64.2
0
INSERT
2
cutlineendpoint
8
G1
10
32.335329341317376
20
64.2
0
INSERT
2
cutlineendpoint
8
G1
10
43.11377245508983
20
-61.2
0
INSERT
2
cutlineendpoint
8
G1
10
43.11377245508983
20
61.2
0
INSERT
2
cutlineendpoint
8
G1
10
43.11377245508983
20
-64.2
0
INSERT
2
cutlineendpoint
8
G1
10
43.11377245508983
20
64.2
0
INSERT
2
cutlineendpoint
8
G1
10
53.892215568862284
20
-61.2
0
INSERT
2
cutlineendpoint
8
G1
10
53.892215568862284
20
61.2
0
INSERT
2
cutlineendpoint
8
G1
10
53.892215568862284
20
-64.2
0
INSERT
2
cutlineendpoint
8
G1
10
53.892215568862284
20
64.2
0
INSERT
2
cutlineendpoint
8
G1
10
-61.2
20
-57.485029940119766
0
INSERT
2
cutlineendpoint
8
G1
10
61.2
20
-57.485029940119766
0
INSERT
2
cutlineendpoint
8
G1
10
-64.2
20
-57.485029940119766
0
INSERT
2
cutlineendpoint
8
G1
10
64.2
20
-57.485029940119766
0
INSERT
2
cutlineendpoint
8
G1
10
-61.2
20
-52.69461077844312
0
INSERT
2
cutlineendpoint
8
G1
10
61.2
20
-52.69461077844312
0
INSERT
2
cutlineendpoint
8
G1
10
-64.2
20
-52.69461077844312
0
INSERT
2
cutlineendpoint
8
G1
10
64.2
20
-52.69461077844312
0
INSERT
2
cutlineendpoint
8
G1
10
-61.2
20
-47.90419161676647
0
INSERT
2
cutlineendpoint
8
G1
10
61.2
20
-47.90419161676647
0
INSERT
2
cutlineendpoint
8
G1
10
-64.2
20
-47.90419161676647
0
INSERT
2
cutlineendpoint
8
G1
10
64.2
20
-47.90419161676647
0
INSERT
2
cutlineendpoint
8
G1
10
-61.2
20
-43.11377245508983
0
INSERT
2
cutlineendpoint
8
G1
10
61.2
20
-43.11377245508983
0
INSERT
2
cutlineendpoint
8
G1
10
-64.2
20
-43.11377245508983
0
INSERT
2
cutlineendpoint
8
G1
10
64.2
20
-43.11377245508983
0
INSERT
2
cutlineendpoint
8
G1
10
-61.2
20
-38.32335329341318
0
INSERT
2
cutlineendpoint
8
G1
10
61.2
20
-38.32335329341318
0
INSERT
2
cutlineendpoint
8
G1
10
-64.2
20
-38.32335329341318
0
INSERT
2
cutlineendpoint
8
G1
10
64.2
20
-38.32335329341318
0
INSERT
2
cutlineendpoint
8
G1
10
-61.2
20
-33.532934131736525
0
INSERT
2
cutlineendpoint
8
G1
10
61.2
20
-33.532934131736525
0
INSERT
2
cutlineendpoint
8
G1
10
-64.2
20
-33.532934131736525
0
INSERT
2
cutlineendpoint
8
G1
10
64.2
20
-33.532934131736525
0
INSERT
2
cutlineendpoint
8
G1
10
-61.2
20
-28.742514970059887
0
INSERT
2
cutlineendpoint
8
G1
10
61.2
20
-28.742514970059887
0
INSERT
2
cutlineendpoint
8
G1
10
-64.2
20
-28.742514970059887
0
INSERT
2
cutlineendpoint
8
G1
10
64.2
20
-28.742514970059887
0
INSERT
2
cutlineendpoint
8
G1
10
-61.2
20
-23.952095808383234
0
INSERT
2
cutlineendpoint
8
G1
10
61.2
20
-23.952095808383234
0
INSERT
2
cutlineendpoint
8
G1
10
-64.2
20
-23.952095808383234
0
INSERT
2
cutlineendpoint
8
G1
10
64.2
20
-23.952095808383234
0
INSERT
2
cutlineendpoint
8
G1
10
-61.2
20
-19.161676646706596
0
INSERT
2
cutlineendpoint
8
G1
10
61.2
20
-19.161676646706596
0
INSERT
2
cutlineendpoint
8
G1
10
-64.2
20
-19.161676646706596
0
INSERT
2
cutlineendpoint
8
G1
10
64.2
20
-19.161676646706596
0
INSERT
2
cutlineendpoint
8
G1
10
-61.2
20
-14.371257485029943
0
INSERT
2
cutlineendpoint
8
G1
10
61.2
20
-14.371257485029943
0
INSERT
2
cutlineendpoint
8
G1
10
-64.2
20
-14.371257485029943
0
INSERT
2
cutlineendpoint
8
G1
10
64.2
20
-14.371257485029943
0
INSERT
2
cutlineendpoint
8
G1
10
-61.2
20
-9.58083832335329
0
INSERT
2
cutlineendpoint
8
G1
10
61.2
20
-9.58083832335329
0
INSERT
2
cutlineendpoint
8
G1
10
-64.2
20
-9.58083832335329
0
INSERT
2
cutlineendpoint
8
G1
10
64.2
20
-9.58083832335329
0
INSERT
2
cutlineendpoint
8
G1
10
-61.2
20
-4.790419161676638
0
INSERT
2
cutlineendpoint
8
G1
10
61.2
20
-4.790419161676638
0
INSERT
2
cutlineendpoint
8
G1
10
-64.2
20
-4.790419161676638
0
INSERT
2
cutlineendpoint
8
G1
10
64.2
20
-4.790419161676638
0
INSERT
2
cutlineendpoint
8
G1
10
-61.2
20
0.0
0
INSERT
2
cutlineendpoint
8
G1
10
61.2
20
0.0
0
INSERT
2
cutlineendpoint
8
G1
10
-64.2
20
0.0
0
INSERT
2
cutlineendpoint
8
G1
10
64.2
20
0.0
0
INSERT
2
cutlineendpoint
8
G1
10
-61.2
20
4.790419161676638
0
INSERT
2
cutlineendpoint
8
G1
10
61.2
20
4.790419161676638
0
INSERT
2
cutlineendpoint
8
G1
10
-64.2
20
4.790419161676638
0
INSERT
2
cutlineendpoint
8
G1
10
64.2
20
4.790419161676638
0
INSERT
2
cutlineendpoint
8
G1
10
-61.2
20
9.58083832335329
0
INSERT
2
cutlineendpoint
8
G1
10
61.2
20
9.58083832335329
0
INSERT
2
cutlineendpoint
8
G1
10
-64.2
20
9.58083832335329
0
INSERT
2
cutlineendpoint
8
G1
10
64.2
20
9.58083832335329
0
INSERT
2
cutlineendpoint
8
G1
10
-61.2
20
14.371257485029943
0
INSERT
2
cutlineendpoint
8
G1
10
61.2
20
14.371257485029943
0
INSERT
2
cutlineendpoint
8
G1
10
-64.2
20
14.371257485029943
0
INSERT
2
cutlineendpoint
8
G1
10
64.2
20
14.371257485029943
0
INSERT
2
cutlineendpoint
8
G1
10
-61.2
20
19.161676646706596
0
INSERT
2
cutlineendpoint
8
G1
10
61.2
20
19.161676646706596
0
INSERT
2
cutlineendpoint
8
G1
10
-64.2
20
19.161676646706596
0
INSERT
2
cutlineendpoint
8
G1
10
64.2
20
19.161676646706596
0
INSERT
2
cutlineendpoint
8
G1
10
-61.2
20
23.95209580838325
0
INSERT
2
cutlineendpoint
8
G1
10
61.2
20
23.95209580838325
0
INSERT
2
cutlineendpoint
8
G1
10
-64.2
20
23.95209580838325
0
INSERT
2
cutlineendpoint
8
G1
10
64.2
20
23.95209580838325
0
INSERT
2
cutlineendpoint
8
G1
10
-61.2
20
28.742514970059872
0
INSERT
2
cutlineendpoint
8
G1
10
61.2
20
28.742514970059872
0
INSERT
2
cutlineendpoint
8
G1
10
-64.2
20
28.742514970059872
0
INSERT
2
cutlineendpoint
8
G1
10
64.2
20
28.742514970059872
0
INSERT
2
cutlineendpoint
8
G1
10
-61.2
20
33.532934131736525
0
INSERT
2
cutlineendpoint
8
G1
10
61.2
20
33.532934131736525
0
INSERT
2
cutlineendpoint
8
G1
10
-64.2
20
33.532934131736525
0
INSERT
2
cutlineendpoint
8
G1
10
64.2
20
33.532934131736525
0
INSERT
2
cutlineendpoint
8
G1
10
-61.2
20
38.32335329341318
0
INSERT
2
cutlineendpoint
8
G1
10
61.2
20
38.32335329341318
0
INSERT
2
cutlineendpoint
8
G1
10
-64.2
20
38.32335329341318
0
INSERT
2
cutlineendpoint
8
G1
10
64.2
20
38.32335329341318
0
INSERT
2
cutlineendpoint
8
G1
10
-61.2
20
43.11377245508983
0
INSERT
2
cutlineendpoint
8
G1
10
61.2
20
43.11377245508983
0
INSERT
2
cutlineendpoint
8
G1
10
-64.2
20
43.11377245508983
0
INSERT
2
cutlineendpoint
8
G1
10
64.2
20
43.11377245508983
0
INSERT
2
cutlineendpoint
8
G1
10
-61.2
20
47.90419161676648
0
INSERT
2
cutlineendpoint
8
G1
10
61.2
20
47.90419161676648
0
INSERT
2
cutlineendpoint
8
G1
10
-64.2
20
47.90419161676648
0
INSERT
2
cutlineendpoint
8
G1
10
64.2
20
47.90419161676648
0
INSERT
2
cutlineendpoint
8
G1
10
-61.2
20
52.694610778443106
0
INSERT
2
cutlineendpoint
8
G1
10
61.2
20
52.694610778443106
0
INSERT
2
cutlineendpoint
8
G1
10
-64.2
20
52.694610778443106
0
INSERT
2
cutlineendpoint
8
G1
10
64.2
20
52.694610778443106
0
INSERT
2
cutlineendpoint
8
G1
10
-61.2
20
57.48502994011976
0
INSERT
2
cutlineendpoint
8
G1
10
61.2
20
57.48502994011976
0
INSERT
2
cutlineendpoint
8
G1
10
-64.2
20
57.48502994011976
0
INSERT
2
cutlineendpoint
8
G1
10
64.2
20
57.48502994011976
0
TEXT
8
G1
10
-10.5
20
69.7
40
1.5
1
XFL94-0512-011-G1
0
POLYLINE
8
G1
66
1
70
1
0
VERTEX
8
G1
10
-100.0
20
100.0
30
0
40
1
41
1
0
VERTEX
8
G1
10
100.0
20
100.0
30
0
40
1
41
1
0
VERTEX
8
G1
10
100.0
20
-100.0
30
0
40
1
41
1
0
VERTEX
8
G1
10
-100.0
20
-100.0
30
0
40
1
41
1
0
SEQEND
0
ENDSEC
0
EOF
