0
SECTION
2
HEADER
9
$ACADVER
1
AC1006
9
$INSBASE
10
0.0
20
0.0
30
0.0
9
$EXTMIN
10
-104.20359281437126
20
-104.20359281437126
9
$EXTMAX
10
104.20359281437126
20
114.38323353293414
0
ENDSEC
0
SECTION
2
TABLES
0
TABLE
2
LTYPE
70
1
0
LTYPE
2
CONTINUOUS
70
64
3
Solid line
72
65
73
0
40
0.0
0
ENDTAB
0
TABLE
2
LAYER
70
3
0
LAYER
2
0
70
0
62
255
6
continuous
0
LAYER
2
0
70
0
62
7
6
continuous
0
LAYER
2
P5
70
0
62
7
6
continuous
0
ENDTAB
0
TABLE
2
STYLE
70
2
0
STYLE
2
STANDARD
70
0
40
0
41
1
50
0
71
0
42
1
3
ARIAL.TTF
4

0
STYLE
2
STANDARD
70
0
40
0
41
1
50
0
71
0
42
1
3
ARIAL.TTF
4

0
ENDTAB
0
TABLE
2
VIEW
70
1
0
VIEW
2
Normal
70
0
40
1
10
0.5
20
0.5
41
1
11
0
21
0
31
1
12
0
22
0
32
0
42
50
43
0
44
0
50
0
71
0
0
ENDTAB
0
ENDSEC
0
SECTION
2
BLOCKS
0
BLOCK
8
0
2
cutlineendpoint
70
0
10
0
20
0
30
0
3
cutlineendpoint
0
POLYLINE
8
0
66
1
70
1
40
0.04
41
0.04
0
VERTEX
8
0
10
-0.02
20
0
30
0
42
1.0
0
VERTEX
8
0
10
0.02
20
0
30
0
42
1.0
0
SEQEND
0
ENDBLK
0
BLOCK
8
P5
2
LDI_XFL94-0512-011_P5_B1
70
0
10
0
20
0
30
0
3
LDI_XFL94-0512-011_P5_B1
0
CIRCLE
8
P5
10
-47.1436076562194
20
-55.10948957228833
40
0.06
0
CIRCLE
8
P5
10
-52.95419982996396
20
-55.30667203346391
40
0.06
0
CIRCLE
8
P5
10
-50.35928143712572
20
-53.651472565073945
40
0.06
0
CIRCLE
8
P5
10
-52.63473053892215
20
-55.68740070878652
40
0.06
0
CIRCLE
8
P5
10
-50.35928143712572
20
-53.21434681657095
40
0.06
0
CIRCLE
8
P5
10
-52.58454368279412
20
-53.34237798407622
40
0.06
0
CIRCLE
8
P5
10
-49.760479041916156
20
-55.68740070878652
40
0.06
0
CIRCLE
8
P5
10
-52.275449101796404
20
-53.651472565073945
40
0.06
0
CIRCLE
8
P5
10
-49.86238036773267
20
-55.10948957228833
40
0.06
0
CIRCLE
8
P5
10
-48.50299401197604
20
-56.76524502016376
40
0.06
0
CIRCLE
8
P5
10
-44.73053892215569
20
-53.651472565073945
40
0.06
0
CIRCLE
8
P5
10
-48.50299401197604
20
-55.80716118782844
40
0.06
0
CIRCLE
8
P5
10
-44.42144434115798
20
-53.34237798407622
40
0.06
0
CIRCLE
8
P5
10
-48.50299401197604
20
-54.84907735549308
40
0.06
0
CIRCLE
8
P5
10
-44.37125748502993
20
-55.68740070878652
40
0.06
0
CIRCLE
8
P5
10
-48.50299401197604
20
-53.89099352315777
40
0.06
0
CIRCLE
8
P5
10
-44.051788193988145
20
-55.30667203346391
40
0.06
0
CIRCLE
8
P5
10
-48.50299401197604
20
-53.41195160699009
40
0.06
0
CIRCLE
8
P5
10
-46.64670658682634
20
-53.651472565073945
40
0.06
0
CIRCLE
8
P5
10
-48.50299401197604
20
-54.37003543932543
40
0.06
0
CIRCLE
8
P5
10
-46.64670658682634
20
-53.21434681657095
40
0.06
0
CIRCLE
8
P5
10
-48.50299401197604
20
-55.32811927166074
40
0.06
0
CIRCLE
8
P5
10
-47.245508982035915
20
-55.68740070878652
40
0.06
0
CIRCLE
8
P5
10
-48.50299401197604
20
-56.28620310399609
40
0.06
0
CIRCLE
8
P5
10
-36.365164542446934
20
-55.10948957228833
40
0.06
0
CIRCLE
8
P5
10
-42.175756716191486
20
-55.30667203346391
40
0.06
0
CIRCLE
8
P5
10
-39.58083832335329
20
-53.651472565073945
40
0.06
0
CIRCLE
8
P5
10
-41.85628742514966
20
-55.68740070878652
40
0.06
0
CIRCLE
8
P5
10
-39.58083832335329
20
-53.21434681657095
40
0.06
0
CIRCLE
8
P5
10
-41.80610056902165
20
-53.34237798407622
40
0.06
0
CIRCLE
8
P5
10
-38.98203592814369
20
-55.68740070878652
40
0.06
0
CIRCLE
8
P5
10
-41.49700598802396
20
-53.651472565073945
40
0.06
0
CIRCLE
8
P5
10
-39.08393725396023
20
-55.10948957228833
40
0.06
0
CIRCLE
8
P5
10
-37.724550898203574
20
-56.76524502016376
40
0.06
0
CIRCLE
8
P5
10
-33.952095808383234
20
-53.651472565073945
40
0.06
0
CIRCLE
8
P5
10
-37.724550898203574
20
-55.80716118782844
40
0.06
0
CIRCLE
8
P5
10
-33.643001227385525
20
-53.34237798407622
40
0.06
0
CIRCLE
8
P5
10
-37.724550898203574
20
-54.84907735549308
40
0.06
0
CIRCLE
8
P5
10
-33.592814371257475
20
-55.68740070878652
40
0.06
0
CIRCLE
8
P5
10
-37.724550898203574
20
-53.89099352315777
40
0.06
0
CIRCLE
8
P5
10
-33.27334508021568
20
-55.30667203346391
40
0.06
0
CIRCLE
8
P5
10
-37.724550898203574
20
-53.41195160699009
40
0.06
0
CIRCLE
8
P5
10
-35.86826347305389
20
-53.651472565073945
40
0.06
0
CIRCLE
8
P5
10
-37.724550898203574
20
-54.37003543932543
40
0.06
0
CIRCLE
8
P5
10
-35.86826347305389
20
-53.21434681657095
40
0.06
0
CIRCLE
8
P5
10
-37.724550898203574
20
-55.32811927166074
40
0.06
0
CIRCLE
8
P5
10
-36.46706586826346
20
-55.68740070878652
40
0.06
0
CIRCLE
8
P5
10
-37.724550898203574
20
-56.28620310399609
40
0.06
0
CIRCLE
8
P5
10
-25.58672142867448
20
-55.10948957228833
40
0.06
0
CIRCLE
8
P5
10
-31.397313602419047
20
-55.30667203346391
40
0.06
0
CIRCLE
8
P5
10
-28.80239520958081
20
-53.651472565073945
40
0.06
0
CIRCLE
8
P5
10
-31.07784431137725
20
-55.68740070878652
40
0.06
0
CIRCLE
8
P5
10
-28.80239520958081
20
-53.21434681657095
40
0.06
0
CIRCLE
8
P5
10
-31.027657455249184
20
-53.34237798407622
40
0.06
0
CIRCLE
8
P5
10
-28.203592814371248
20
-55.68740070878652
40
0.06
0
CIRCLE
8
P5
10
-30.71856287425149
20
-53.651472565073945
40
0.06
0
CIRCLE
8
P5
10
-28.305494140187747
20
-55.10948957228833
40
0.06
0
CIRCLE
8
P5
10
-26.94610778443112
20
-56.76524502016376
40
0.06
0
CIRCLE
8
P5
10
-23.17365269461078
20
-53.651472565073945
40
0.06
0
CIRCLE
8
P5
10
-26.94610778443112
20
-55.80716118782844
40
0.06
0
CIRCLE
8
P5
10
-22.86455811361307
20
-53.34237798407622
40
0.06
0
CIRCLE
8
P5
10
-26.94610778443112
20
-54.84907735549308
40
0.06
0
CIRCLE
8
P5
10
-22.814371257485035
20
-55.68740070878652
40
0.06
0
CIRCLE
8
P5
10
-26.94610778443112
20
-53.89099352315777
40
0.06
0
CIRCLE
8
P5
10
-22.494901966443223
20
-55.30667203346391
40
0.06
0
CIRCLE
8
P5
10
-26.94610778443112
20
-53.41195160699009
40
0.06
0
CIRCLE
8
P5
10
-25.08982035928142
20
-53.651472565073945
40
0.06
0
CIRCLE
8
P5
10
-26.94610778443112
20
-54.37003543932543
40
0.06
0
CIRCLE
8
P5
10
-25.08982035928142
20
-53.21434681657095
40
0.06
0
CIRCLE
8
P5
10
-26.94610778443112
20
-55.32811927166074
40
0.06
0
CIRCLE
8
P5
10
-25.68862275449102
20
-55.68740070878652
40
0.06
0
CIRCLE
8
P5
10
-26.94610778443112
20
-56.28620310399609
40
0.06
0
CIRCLE
8
P5
10
-14.80827831490204
20
-55.10948957228833
40
0.06
0
CIRCLE
8
P5
10
-20.618870488646607
20
-55.30667203346391
40
0.06
0
CIRCLE
8
P5
10
-18.023952095808355
20
-53.651472565073945
40
0.06
0
CIRCLE
8
P5
10
-20.299401197604794
20
-55.68740070878652
40
0.06
0
CIRCLE
8
P5
10
-18.023952095808355
20
-53.21434681657095
40
0.06
0
CIRCLE
8
P5
10
-20.24921434147673
20
-53.34237798407622
40
0.06
0
CIRCLE
8
P5
10
-17.425149700598794
20
-55.68740070878652
40
0.06
0
CIRCLE
8
P5
10
-19.940119760479007
20
-53.651472565073945
40
0.06
0
CIRCLE
8
P5
10
-17.527051026415293
20
-55.10948957228833
40
0.06
0
CIRCLE
8
P5
10
-16.16766467065868
20
-56.76524502016376
40
0.06
0
CIRCLE
8
P5
10
-12.395209580838298
20
-53.651472565073945
40
0.06
0
CIRCLE
8
P5
10
-16.16766467065868
20
-55.80716118782844
40
0.06
0
CIRCLE
8
P5
10
-12.08611499984059
20
-53.34237798407622
40
0.06
0
CIRCLE
8
P5
10
-16.16766467065868
20
-54.84907735549308
40
0.06
0
CIRCLE
8
P5
10
-12.035928143712582
20
-55.68740070878652
40
0.06
0
CIRCLE
8
P5
10
-16.16766467065868
20
-53.89099352315777
40
0.06
0
CIRCLE
8
P5
10
-11.716458852670812
20
-55.30667203346391
40
0.06
0
CIRCLE
8
P5
10
-16.16766467065868
20
-53.41195160699009
40
0.06
0
CIRCLE
8
P5
10
-14.311377245508979
20
-53.651472565073945
40
0.06
0
CIRCLE
8
P5
10
-16.16766467065868
20
-54.37003543932543
40
0.06
0
CIRCLE
8
P5
10
-14.311377245508979
20
-53.21434681657095
40
0.06
0
CIRCLE
8
P5
10
-16.16766467065868
20
-55.32811927166074
40
0.06
0
CIRCLE
8
P5
10
-14.910179640718582
20
-55.68740070878652
40
0.06
0
CIRCLE
8
P5
10
-16.16766467065868
20
-56.28620310399609
40
0.06
0
CIRCLE
8
P5
10
-4.029835201129586
20
-55.10948957228833
40
0.06
0
CIRCLE
8
P5
10
-9.840427374874125
20
-55.30667203346391
40
0.06
0
CIRCLE
8
P5
10
-7.245508982035901
20
-53.651472565073945
40
0.06
0
CIRCLE
8
P5
10
-9.520958083832369
20
-55.68740070878652
40
0.06
0
CIRCLE
8
P5
10
-7.245508982035901
20
-53.21434681657095
40
0.06
0
CIRCLE
8
P5
10
-9.47077122770429
20
-53.34237798407622
40
0.06
0
CIRCLE
8
P5
10
-6.646706586826326
20
-55.68740070878652
40
0.06
0
CIRCLE
8
P5
10
-9.161676646706553
20
-53.651472565073945
40
0.06
0
CIRCLE
8
P5
10
-6.748607912642839
20
-55.10948957228833
40
0.06
0
CIRCLE
8
P5
10
-5.389221556886213
20
-56.76524502016376
40
0.06
0
CIRCLE
8
P5
10
-1.616766467065844
20
-53.651472565073945
40
0.06
0
CIRCLE
8
P5
10
-5.389221556886213
20
-55.80716118782844
40
0.06
0
CIRCLE
8
P5
10
-1.3076718860681353
20
-53.34237798407622
40
0.06
0
CIRCLE
8
P5
10
-5.389221556886213
20
-54.84907735549308
40
0.06
0
CIRCLE
8
P5
10
-1.2574850299401277
20
-55.68740070878652
40
0.06
0
CIRCLE
8
P5
10
-5.389221556886213
20
-53.89099352315777
40
0.06
0
CIRCLE
8
P5
10
-0.9380157388983434
20
-55.30667203346391
40
0.06
0
CIRCLE
8
P5
10
-5.389221556886213
20
-53.41195160699009
40
0.06
0
CIRCLE
8
P5
10
-3.532934131736525
20
-53.651472565073945
40
0.06
0
CIRCLE
8
P5
10
-5.389221556886213
20
-54.37003543932543
40
0.06
0
CIRCLE
8
P5
10
-3.532934131736525
20
-53.21434681657095
40
0.06
0
CIRCLE
8
P5
10
-5.389221556886213
20
-55.32811927166074
40
0.06
0
CIRCLE
8
P5
10
-4.131736526946099
20
-55.68740070878652
40
0.06
0
CIRCLE
8
P5
10
-5.389221556886213
20
-56.28620310399609
40
0.06
0
CIRCLE
8
P5
10
6.748607912642896
20
-55.10948957228833
40
0.06
0
CIRCLE
8
P5
10
0.9380157388983008
20
-55.30667203346391
40
0.06
0
CIRCLE
8
P5
10
3.5329341317365675
20
-53.651472565073945
40
0.06
0
CIRCLE
8
P5
10
1.2574850299400993
20
-55.68740070878652
40
0.06
0
CIRCLE
8
P5
10
3.5329341317365675
20
-53.21434681657095
40
0.06
0
CIRCLE
8
P5
10
1.3076718860681638
20
-53.34237798407622
40
0.06
0
CIRCLE
8
P5
10
4.131736526946156
20
-55.68740070878652
40
0.06
0
CIRCLE
8
P5
10
1.6167664670658866
20
-53.651472565073945
40
0.06
0
CIRCLE
8
P5
10
4.029835201129629
20
-55.10948957228833
40
0.06
0
CIRCLE
8
P5
10
5.389221556886227
20
-56.76524502016376
40
0.06
0
CIRCLE
8
P5
10
9.161676646706582
20
-53.651472565073945
40
0.06
0
CIRCLE
8
P5
10
5.389221556886227
20
-55.80716118782844
40
0.06
0
CIRCLE
8
P5
10
9.470771227704319
20
-53.34237798407622
40
0.06
0
CIRCLE
8
P5
10
5.389221556886227
20
-54.84907735549308
40
0.06
0
CIRCLE
8
P5
10
9.520958083832326
20
-55.68740070878652
40
0.06
0
CIRCLE
8
P5
10
5.389221556886227
20
-53.89099352315777
40
0.06
0
CIRCLE
8
P5
10
9.84042737487411
20
-55.30667203346391
40
0.06
0
CIRCLE
8
P5
10
5.389221556886227
20
-53.41195160699009
40
0.06
0
CIRCLE
8
P5
10
7.2455089820359575
20
-53.651472565073945
40
0.06
0
CIRCLE
8
P5
10
5.389221556886227
20
-54.37003543932543
40
0.06
0
CIRCLE
8
P5
10
7.2455089820359575
20
-53.21434681657095
40
0.06
0
CIRCLE
8
P5
10
5.389221556886227
20
-55.32811927166074
40
0.06
0
CIRCLE
8
P5
10
6.646706586826355
20
-55.68740070878652
40
0.06
0
CIRCLE
8
P5
10
5.389221556886227
20
-56.28620310399609
40
0.06
0
CIRCLE
8
P5
10
17.52705102641535
20
-55.10948957228833
40
0.06
0
CIRCLE
8
P5
10
11.716458852670755
20
-55.30667203346391
40
0.06
0
CIRCLE
8
P5
10
14.311377245509036
20
-53.651472565073945
40
0.06
0
CIRCLE
8
P5
10
12.035928143712567
20
-55.68740070878652
40
0.06
0
CIRCLE
8
P5
10
14.311377245509036
20
-53.21434681657095
40
0.06
0
CIRCLE
8
P5
10
12.086114999840575
20
-53.34237798407622
40
0.06
0
CIRCLE
8
P5
10
14.910179640718624
20
-55.68740070878652
40
0.06
0
CIRCLE
8
P5
10
12.395209580838369
20
-53.651472565073945
40
0.06
0
CIRCLE
8
P5
10
14.808278314902054
20
-55.10948957228833
40
0.06
0
CIRCLE
8
P5
10
16.167664670658652
20
-56.76524502016376
40
0.06
0
CIRCLE
8
P5
10
19.940119760478993
20
-53.651472565073945
40
0.06
0
CIRCLE
8
P5
10
16.167664670658652
20
-55.80716118782844
40
0.06
0
CIRCLE
8
P5
10
20.249214341476787
20
-53.34237798407622
40
0.06
0
CIRCLE
8
P5
10
16.167664670658652
20
-54.84907735549308
40
0.06
0
CIRCLE
8
P5
10
20.29940119760478
20
-55.68740070878652
40
0.06
0
CIRCLE
8
P5
10
16.167664670658652
20
-53.89099352315777
40
0.06
0
CIRCLE
8
P5
10
20.618870488646607
20
-55.30667203346391
40
0.06
0
CIRCLE
8
P5
10
16.167664670658652
20
-53.41195160699009
40
0.06
0
CIRCLE
8
P5
10
18.02395209580841
20
-53.651472565073945
40
0.06
0
CIRCLE
8
P5
10
16.167664670658652
20
-54.37003543932543
40
0.06
0
CIRCLE
8
P5
10
18.02395209580841
20
-53.21434681657095
40
0.06
0
CIRCLE
8
P5
10
16.167664670658652
20
-55.32811927166074
40
0.06
0
CIRCLE
8
P5
10
17.425149700598794
20
-55.68740070878652
40
0.06
0
CIRCLE
8
P5
10
16.167664670658652
20
-56.28620310399609
40
0.06
0
CIRCLE
8
P5
10
28.305494140187776
20
-55.10948957228833
40
0.06
0
CIRCLE
8
P5
10
22.49490196644321
20
-55.30667203346391
40
0.06
0
CIRCLE
8
P5
10
25.089820359281433
20
-53.651472565073945
40
0.06
0
CIRCLE
8
P5
10
22.814371257485035
20
-55.68740070878652
40
0.06
0
CIRCLE
8
P5
10
25.089820359281433
20
-53.21434681657095
40
0.06
0
CIRCLE
8
P5
10
22.864558113613
20
-53.34237798407622
40
0.06
0
CIRCLE
8
P5
10
25.68862275449105
20
-55.68740070878652
40
0.06
0
CIRCLE
8
P5
10
23.173652694610823
20
-53.651472565073945
40
0.06
0
CIRCLE
8
P5
10
25.586721428674522
20
-55.10948957228833
40
0.06
0
CIRCLE
8
P5
10
26.946107784431106
20
-56.76524502016376
40
0.06
0
CIRCLE
8
P5
10
30.718562874251475
20
-53.651472565073945
40
0.06
0
CIRCLE
8
P5
10
26.946107784431106
20
-55.80716118782844
40
0.06
0
CIRCLE
8
P5
10
31.02765745524924
20
-53.34237798407622
40
0.06
0
CIRCLE
8
P5
10
26.946107784431106
20
-54.84907735549308
40
0.06
0
CIRCLE
8
P5
10
31.077844311377262
20
-55.68740070878652
40
0.06
0
CIRCLE
8
P5
10
26.946107784431106
20
-53.89099352315777
40
0.06
0
CIRCLE
8
P5
10
31.397313602419032
20
-55.30667203346391
40
0.06
0
CIRCLE
8
P5
10
26.946107784431106
20
-53.41195160699009
40
0.06
0
CIRCLE
8
P5
10
28.802395209580837
20
-53.651472565073945
40
0.06
0
CIRCLE
8
P5
10
26.946107784431106
20
-54.37003543932543
40
0.06
0
CIRCLE
8
P5
10
28.802395209580837
20
-53.21434681657095
40
0.06
0
CIRCLE
8
P5
10
26.946107784431106
20
-55.32811927166074
40
0.06
0
CIRCLE
8
P5
10
28.203592814371248
20
-55.68740070878652
40
0.06
0
CIRCLE
8
P5
10
26.946107784431106
20
-56.28620310399609
40
0.06
0
CIRCLE
8
P5
10
39.08393725396026
20
-55.10948957228833
40
0.06
0
CIRCLE
8
P5
10
33.27334508021569
20
-55.30667203346391
40
0.06
0
CIRCLE
8
P5
10
35.86826347305394
20
-53.651472565073945
40
0.06
0
CIRCLE
8
P5
10
33.59281437125746
20
-55.68740070878652
40
0.06
0
CIRCLE
8
P5
10
35.86826347305394
20
-53.21434681657095
40
0.06
0
CIRCLE
8
P5
10
33.64300122738551
20
-53.34237798407622
40
0.06
0
CIRCLE
8
P5
10
36.467065868263504
20
-55.68740070878652
40
0.06
0
CIRCLE
8
P5
10
33.95209580838328
20
-53.651472565073945
40
0.06
0
CIRCLE
8
P5
10
36.365164542446976
20
-55.10948957228833
40
0.06
0
CIRCLE
8
P5
10
37.72455089820356
20
-56.76524502016376
40
0.06
0
CIRCLE
8
P5
10
41.49700598802393
20
-53.651472565073945
40
0.06
0
CIRCLE
8
P5
10
37.72455089820356
20
-55.80716118782844
40
0.06
0
CIRCLE
8
P5
10
41.806100569021694
20
-53.34237798407622
40
0.06
0
CIRCLE
8
P5
10
37.72455089820356
20
-54.84907735549308
40
0.06
0
CIRCLE
8
P5
10
41.856287425149716
20
-55.68740070878652
40
0.06
0
CIRCLE
8
P5
10
37.72455089820356
20
-53.89099352315777
40
0.06
0
CIRCLE
8
P5
10
42.175756716191515
20
-55.30667203346391
40
0.06
0
CIRCLE
8
P5
10
37.72455089820356
20
-53.41195160699009
40
0.06
0
CIRCLE
8
P5
10
39.58083832335332
20
-53.651472565073945
40
0.06
0
CIRCLE
8
P5
10
37.72455089820356
20
-54.37003543932543
40
0.06
0
CIRCLE
8
P5
10
39.58083832335332
20
-53.21434681657095
40
0.06
0
CIRCLE
8
P5
10
37.72455089820356
20
-55.32811927166074
40
0.06
0
CIRCLE
8
P5
10
38.98203592814373
20
-55.68740070878652
40
0.06
0
CIRCLE
8
P5
10
37.72455089820356
20
-56.28620310399609
40
0.06
0
CIRCLE
8
P5
10
49.86238036773268
20
-55.10948957228833
40
0.06
0
CIRCLE
8
P5
10
44.051788193988145
20
-55.30667203346391
40
0.06
0
CIRCLE
8
P5
10
46.6467065868264
20
-53.651472565073945
40
0.06
0
CIRCLE
8
P5
10
44.37125748502994
20
-55.68740070878652
40
0.06
0
CIRCLE
8
P5
10
46.6467065868264
20
-53.21434681657095
40
0.06
0
CIRCLE
8
P5
10
44.42144434115794
20
-53.34237798407622
40
0.06
0
CIRCLE
8
P5
10
47.245508982035986
20
-55.68740070878652
40
0.06
0
CIRCLE
8
P5
10
44.73053892215573
20
-53.651472565073945
40
0.06
0
CIRCLE
8
P5
10
47.14360765621946
20
-55.10948957228833
40
0.06
0
CIRCLE
8
P5
10
48.50299401197604
20
-56.76524502016376
40
0.06
0
CIRCLE
8
P5
10
52.275449101796355
20
-53.651472565073945
40
0.06
0
CIRCLE
8
P5
10
48.50299401197604
20
-55.80716118782844
40
0.06
0
CIRCLE
8
P5
10
52.58454368279415
20
-53.34237798407622
40
0.06
0
CIRCLE
8
P5
10
48.50299401197604
20
-54.84907735549308
40
0.06
0
CIRCLE
8
P5
10
52.63473053892214
20
-55.68740070878652
40
0.06
0
CIRCLE
8
P5
10
48.50299401197604
20
-53.89099352315777
40
0.06
0
CIRCLE
8
P5
10
52.95419982996397
20
-55.30667203346391
40
0.06
0
CIRCLE
8
P5
10
48.50299401197604
20
-53.41195160699009
40
0.06
0
CIRCLE
8
P5
10
50.359281437125745
20
-53.651472565073945
40
0.06
0
CIRCLE
8
P5
10
48.50299401197604
20
-54.37003543932543
40
0.06
0
CIRCLE
8
P5
10
50.359281437125745
20
-53.21434681657095
40
0.06
0
CIRCLE
8
P5
10
48.50299401197604
20
-55.32811927166074
40
0.06
0
CIRCLE
8
P5
10
49.76047904191613
20
-55.68740070878652
40
0.06
0
CIRCLE
8
P5
10
48.50299401197604
20
-56.28620310399609
40
0.06
0
ENDBLK
0
ENDSEC
0
SECTION
2
ENTITIES
0
INSERT
2
LDI_XFL94-0512-011_P5_B1
8
P5
10
0
20
0.0
30
0
0
INSERT
2
LDI_XFL94-0512-011_P5_B1
8
P5
10
0
20
4.790419161676647
30
0
0
INSERT
2
LDI_XFL94-0512-011_P5_B1
8
P5
10
0
20
9.580838323353294
30
0
0
INSERT
2
LDI_XFL94-0512-011_P5_B1
8
P5
10
0
20
14.371257485029941
30
0
0
INSERT
2
LDI_XFL94-0512-011_P5_B1
8
P5
10
0
20
19.16167664670659
30
0
0
INSERT
2
LDI_XFL94-0512-011_P5_B1
8
P5
10
0
20
23.952095808383234
30
0
0
INSERT
2
LDI_XFL94-0512-011_P5_B1
8
P5
10
0
20
28.742514970059883
30
0
0
INSERT
2
LDI_XFL94-0512-011_P5_B1
8
P5
10
0
20
33.53293413173653
30
0
0
INSERT
2
LDI_XFL94-0512-011_P5_B1
8
P5
10
0
20
38.32335329341318
30
0
0
INSERT
2
LDI_XFL94-0512-011_P5_B1
8
P5
10
0
20
43.11377245508982
30
0
0
INSERT
2
LDI_XFL94-0512-011_P5_B1
8
P5
10
0
20
47.90419161676647
30
0
0
INSERT
2
LDI_XFL94-0512-011_P5_B1
8
P5
10
0
20
52.69461077844312
30
0
0
INSERT
2
LDI_XFL94-0512-011_P5_B1
8
P5
10
0
20
57.485029940119766
30
0
0
INSERT
2
LDI_XFL94-0512-011_P5_B1
8
P5
10
0
20
62.27544910179641
30
0
0
INSERT
2
LDI_XFL94-0512-011_P5_B1
8
P5
10
0
20
67.06586826347306
30
0
0
INSERT
2
LDI_XFL94-0512-011_P5_B1
8
P5
10
0
20
71.8562874251497
30
0
0
INSERT
2
LDI_XFL94-0512-011_P5_B1
8
P5
10
0
20
76.64670658682635
30
0
0
INSERT
2
LDI_XFL94-0512-011_P5_B1
8
P5
10
0
20
81.43712574850301
30
0
0
INSERT
2
LDI_XFL94-0512-011_P5_B1
8
P5
10
0
20
86.22754491017965
30
0
0
INSERT
2
LDI_XFL94-0512-011_P5_B1
8
P5
10
0
20
91.0179640718563
30
0
0
INSERT
2
LDI_XFL94-0512-011_P5_B1
8
P5
10
0
20
95.80838323353294
30
0
0
INSERT
2
LDI_XFL94-0512-011_P5_B1
8
P5
10
0
20
100.59880239520959
30
0
0
INSERT
2
LDI_XFL94-0512-011_P5_B1
8
P5
10
0
20
105.38922155688624
30
0
0
INSERT
2
LDI_XFL94-0512-011_P5_B1
8
P5
10
0
20
110.17964071856288
30
0
0
POLYLINE
8
P5
66
1
70
1
40
0.1
41
0.1
0
VERTEX
8
P5
10
-61.5
20
-61.2
42
1.0
0
VERTEX
8
P5
10
-60.900000000000006
20
-61.2
42
1.0
0
SEQEND
0
POLYLINE
8
P5
66
1
70
1
40
0.1
41
0.1
0
VERTEX
8
P5
10
-61.5
20
61.2
42
1.0
0
VERTEX
8
P5
10
-60.900000000000006
20
61.2
42
1.0
0
SEQEND
0
POLYLINE
8
P5
66
1
70
1
40
0.1
41
0.1
0
VERTEX
8
P5
10
60.90000000000002
20
-61.2
42
1.0
0
VERTEX
8
P5
10
61.499999999999986
20
-61.2
42
1.0
0
SEQEND
0
POLYLINE
8
P5
66
1
70
1
40
0.1
41
0.1
0
VERTEX
8
P5
10
60.90000000000002
20
61.2
42
1.0
0
VERTEX
8
P5
10
61.499999999999986
20
61.2
42
1.0
0
SEQEND
0
TEXT
8
P5
10
-10.5
20
66.7
40
1.5
1
XFL94-0512-011-P5
0
POLYLINE
8
P5
66
1
70
1
0
VERTEX
8
P5
10
-100.0
20
100.0
30
0
40
1
41
1
0
VERTEX
8
P5
10
100.0
20
100.0
30
0
40
1
41
1
0
VERTEX
8
P5
10
100.0
20
-100.0
30
0
40
1
41
1
0
VERTEX
8
P5
10
-100.0
20
-100.0
30
0
40
1
41
1
0
SEQEND
0
ENDSEC
0
EOF
