0
SECTION
2
HEADER
9
$ACADVER
1
AC1006
9
$INSBASE
10
0.0
20
0.0
30
0.0
9
$EXTMIN
10
-104.20359281437126
20
-104.20359281437126
9
$EXTMAX
10
104.20359281437126
20
114.38323353293414
0
ENDSEC
0
SECTION
2
TABLES
0
TABLE
2
LTYPE
70
1
0
LTYPE
2
CONTINUOUS
70
64
3
Solid line
72
65
73
0
40
0.0
0
ENDTAB
0
TABLE
2
LAYER
70
3
0
LAYER
2
0
70
0
62
255
6
continuous
0
LAYER
2
0
70
0
62
7
6
continuous
0
LAYER
2
P9
70
0
62
7
6
continuous
0
ENDTAB
0
TABLE
2
STYLE
70
2
0
STYLE
2
STANDARD
70
0
40
0
41
1
50
0
71
0
42
1
3
ARIAL.TTF
4

0
STYLE
2
STANDARD
70
0
40
0
41
1
50
0
71
0
42
1
3
ARIAL.TTF
4

0
ENDTAB
0
TABLE
2
VIEW
70
1
0
VIEW
2
Normal
70
0
40
1
10
0.5
20
0.5
41
1
11
0
21
0
31
1
12
0
22
0
32
0
42
50
43
0
44
0
50
0
71
0
0
ENDTAB
0
ENDSEC
0
SECTION
2
BLOCKS
0
BLOCK
8
0
2
cutlineendpoint
70
0
10
0
20
0
30
0
3
cutlineendpoint
0
POLYLINE
8
0
66
1
70
1
40
0.04
41
0.04
0
VERTEX
8
0
10
-0.02
20
0
30
0
42
1.0
0
VERTEX
8
0
10
0.02
20
0
30
0
42
1.0
0
SEQEND
0
ENDBLK
0
BLOCK
8
P9
2
LDI_XFL94-0512-011_P9_B1
70
0
10
0
20
0
30
0
3
LDI_XFL94-0512-011_P9_B1
0
CIRCLE
8
P9
10
-46.69407259379031
20
-55.88810714019917
40
0.06
0
CIRCLE
8
P9
10
-51.96635452079869
20
-53.34237798407622
40
0.06
0
CIRCLE
8
P9
10
-52.63473053892215
20
-55.68740070878652
40
0.06
0
CIRCLE
8
P9
10
-52.275449101796404
20
-53.651472565073945
40
0.06
0
CIRCLE
8
P9
10
-52.204310727460424
20
-55.43889771477452
40
0.06
0
CIRCLE
8
P9
10
-48.50299401197604
20
-56.76524502016376
40
0.06
0
CIRCLE
8
P9
10
-49.760479041916156
20
-55.68740070878652
40
0.06
0
CIRCLE
8
P9
10
-48.50299401197604
20
-55.80716118782844
40
0.06
0
CIRCLE
8
P9
10
-50.31191543016179
20
-55.88810714019917
40
0.06
0
CIRCLE
8
P9
10
-48.50299401197604
20
-54.84907735549308
40
0.06
0
CIRCLE
8
P9
10
-44.73053892215569
20
-53.651472565073945
40
0.06
0
CIRCLE
8
P9
10
-48.50299401197604
20
-53.89099352315777
40
0.06
0
CIRCLE
8
P9
10
-45.0396335031534
20
-53.34237798407622
40
0.06
0
CIRCLE
8
P9
10
-48.50299401197604
20
-53.41195160699009
40
0.06
0
CIRCLE
8
P9
10
-44.37125748502993
20
-55.68740070878652
40
0.06
0
CIRCLE
8
P9
10
-48.50299401197604
20
-54.37003543932543
40
0.06
0
CIRCLE
8
P9
10
-44.801677296491675
20
-55.43889771477452
40
0.06
0
CIRCLE
8
P9
10
-48.50299401197604
20
-55.32811927166074
40
0.06
0
CIRCLE
8
P9
10
-47.245508982035915
20
-55.68740070878652
40
0.06
0
CIRCLE
8
P9
10
-48.50299401197604
20
-56.28620310399609
40
0.06
0
CIRCLE
8
P9
10
-35.915629480017856
20
-55.88810714019917
40
0.06
0
CIRCLE
8
P9
10
-41.18791140702622
20
-53.34237798407622
40
0.06
0
CIRCLE
8
P9
10
-41.85628742514966
20
-55.68740070878652
40
0.06
0
CIRCLE
8
P9
10
-41.49700598802396
20
-53.651472565073945
40
0.06
0
CIRCLE
8
P9
10
-41.42586761368797
20
-55.43889771477452
40
0.06
0
CIRCLE
8
P9
10
-37.724550898203574
20
-56.76524502016376
40
0.06
0
CIRCLE
8
P9
10
-38.98203592814369
20
-55.68740070878652
40
0.06
0
CIRCLE
8
P9
10
-37.724550898203574
20
-55.80716118782844
40
0.06
0
CIRCLE
8
P9
10
-39.53347231638932
20
-55.88810714019917
40
0.06
0
CIRCLE
8
P9
10
-37.724550898203574
20
-54.84907735549308
40
0.06
0
CIRCLE
8
P9
10
-33.952095808383234
20
-53.651472565073945
40
0.06
0
CIRCLE
8
P9
10
-37.724550898203574
20
-53.89099352315777
40
0.06
0
CIRCLE
8
P9
10
-34.26119038938093
20
-53.34237798407622
40
0.06
0
CIRCLE
8
P9
10
-37.724550898203574
20
-53.41195160699009
40
0.06
0
CIRCLE
8
P9
10
-33.592814371257475
20
-55.68740070878652
40
0.06
0
CIRCLE
8
P9
10
-37.724550898203574
20
-54.37003543932543
40
0.06
0
CIRCLE
8
P9
10
-34.02323418271921
20
-55.43889771477452
40
0.06
0
CIRCLE
8
P9
10
-37.724550898203574
20
-55.32811927166074
40
0.06
0
CIRCLE
8
P9
10
-36.46706586826346
20
-55.68740070878652
40
0.06
0
CIRCLE
8
P9
10
-37.724550898203574
20
-56.28620310399609
40
0.06
0
CIRCLE
8
P9
10
-25.137186366245388
20
-55.88810714019917
40
0.06
0
CIRCLE
8
P9
10
-30.40946829325378
20
-53.34237798407622
40
0.06
0
CIRCLE
8
P9
10
-31.07784431137725
20
-55.68740070878652
40
0.06
0
CIRCLE
8
P9
10
-30.71856287425149
20
-53.651472565073945
40
0.06
0
CIRCLE
8
P9
10
-30.647424499915502
20
-55.43889771477452
40
0.06
0
CIRCLE
8
P9
10
-26.94610778443112
20
-56.76524502016376
40
0.06
0
CIRCLE
8
P9
10
-28.203592814371248
20
-55.68740070878652
40
0.06
0
CIRCLE
8
P9
10
-26.94610778443112
20
-55.80716118782844
40
0.06
0
CIRCLE
8
P9
10
-28.755029202616853
20
-55.88810714019917
40
0.06
0
CIRCLE
8
P9
10
-26.94610778443112
20
-54.84907735549308
40
0.06
0
CIRCLE
8
P9
10
-23.17365269461078
20
-53.651472565073945
40
0.06
0
CIRCLE
8
P9
10
-26.94610778443112
20
-53.89099352315777
40
0.06
0
CIRCLE
8
P9
10
-23.48274727560846
20
-53.34237798407622
40
0.06
0
CIRCLE
8
P9
10
-26.94610778443112
20
-53.41195160699009
40
0.06
0
CIRCLE
8
P9
10
-22.814371257485035
20
-55.68740070878652
40
0.06
0
CIRCLE
8
P9
10
-26.94610778443112
20
-54.37003543932543
40
0.06
0
CIRCLE
8
P9
10
-23.24479106894674
20
-55.43889771477452
40
0.06
0
CIRCLE
8
P9
10
-26.94610778443112
20
-55.32811927166074
40
0.06
0
CIRCLE
8
P9
10
-25.68862275449102
20
-55.68740070878652
40
0.06
0
CIRCLE
8
P9
10
-26.94610778443112
20
-56.28620310399609
40
0.06
0
CIRCLE
8
P9
10
-14.35874325247292
20
-55.88810714019917
40
0.06
0
CIRCLE
8
P9
10
-19.631025179481313
20
-53.34237798407622
40
0.06
0
CIRCLE
8
P9
10
-20.29940119760478
20
-55.68740070878652
40
0.06
0
CIRCLE
8
P9
10
-19.940119760479007
20
-53.651472565073945
40
0.06
0
CIRCLE
8
P9
10
-19.868981386143048
20
-55.43889771477452
40
0.06
0
CIRCLE
8
P9
10
-16.16766467065868
20
-56.76524502016376
40
0.06
0
CIRCLE
8
P9
10
-17.425149700598794
20
-55.68740070878652
40
0.06
0
CIRCLE
8
P9
10
-16.16766467065868
20
-55.80716118782844
40
0.06
0
CIRCLE
8
P9
10
-17.976586088844414
20
-55.88810714019917
40
0.06
0
CIRCLE
8
P9
10
-16.16766467065868
20
-54.84907735549308
40
0.06
0
CIRCLE
8
P9
10
-12.395209580838298
20
-53.651472565073945
40
0.06
0
CIRCLE
8
P9
10
-16.16766467065868
20
-53.89099352315777
40
0.06
0
CIRCLE
8
P9
10
-12.70430416183602
20
-53.34237798407622
40
0.06
0
CIRCLE
8
P9
10
-16.16766467065868
20
-53.41195160699009
40
0.06
0
CIRCLE
8
P9
10
-12.035928143712582
20
-55.68740070878652
40
0.06
0
CIRCLE
8
P9
10
-16.16766467065868
20
-54.37003543932543
40
0.06
0
CIRCLE
8
P9
10
-12.466347955174285
20
-55.43889771477452
40
0.06
0
CIRCLE
8
P9
10
-16.16766467065868
20
-55.32811927166074
40
0.06
0
CIRCLE
8
P9
10
-14.910179640718582
20
-55.68740070878652
40
0.06
0
CIRCLE
8
P9
10
-16.16766467065868
20
-56.28620310399609
40
0.06
0
CIRCLE
8
P9
10
-3.580300138700437
20
-55.88810714019917
40
0.06
0
CIRCLE
8
P9
10
-8.852582065708845
20
-53.34237798407622
40
0.06
0
CIRCLE
8
P9
10
-9.520958083832355
20
-55.68740070878652
40
0.06
0
CIRCLE
8
P9
10
-9.161676646706553
20
-53.651472565073945
40
0.06
0
CIRCLE
8
P9
10
-9.090538272370566
20
-55.43889771477452
40
0.06
0
CIRCLE
8
P9
10
-5.389221556886213
20
-56.76524502016376
40
0.06
0
CIRCLE
8
P9
10
-6.646706586826326
20
-55.68740070878652
40
0.06
0
CIRCLE
8
P9
10
-5.389221556886213
20
-55.80716118782844
40
0.06
0
CIRCLE
8
P9
10
-7.198142975071946
20
-55.88810714019917
40
0.06
0
CIRCLE
8
P9
10
-5.389221556886213
20
-54.84907735549308
40
0.06
0
CIRCLE
8
P9
10
-1.616766467065844
20
-53.651472565073945
40
0.06
0
CIRCLE
8
P9
10
-5.389221556886213
20
-53.89099352315777
40
0.06
0
CIRCLE
8
P9
10
-1.9258610480635525
20
-53.34237798407622
40
0.06
0
CIRCLE
8
P9
10
-5.389221556886213
20
-53.41195160699009
40
0.06
0
CIRCLE
8
P9
10
-1.2574850299401277
20
-55.68740070878652
40
0.06
0
CIRCLE
8
P9
10
-5.389221556886213
20
-54.37003543932543
40
0.06
0
CIRCLE
8
P9
10
-1.6879048414018314
20
-55.43889771477452
40
0.06
0
CIRCLE
8
P9
10
-5.389221556886213
20
-55.32811927166074
40
0.06
0
CIRCLE
8
P9
10
-4.131736526946099
20
-55.68740070878652
40
0.06
0
CIRCLE
8
P9
10
-5.389221556886213
20
-56.28620310399609
40
0.06
0
CIRCLE
8
P9
10
7.198142975071988
20
-55.88810714019917
40
0.06
0
CIRCLE
8
P9
10
1.9258610480636094
20
-53.34237798407622
40
0.06
0
CIRCLE
8
P9
10
1.2574850299400993
20
-55.68740070878652
40
0.06
0
CIRCLE
8
P9
10
1.6167664670658866
20
-53.651472565073945
40
0.06
0
CIRCLE
8
P9
10
1.6879048414018598
20
-55.43889771477452
40
0.06
0
CIRCLE
8
P9
10
5.389221556886227
20
-56.76524502016376
40
0.06
0
CIRCLE
8
P9
10
4.131736526946156
20
-55.68740070878652
40
0.06
0
CIRCLE
8
P9
10
5.389221556886227
20
-55.80716118782844
40
0.06
0
CIRCLE
8
P9
10
3.5803001387005224
20
-55.88810714019917
40
0.06
0
CIRCLE
8
P9
10
5.389221556886227
20
-54.84907735549308
40
0.06
0
CIRCLE
8
P9
10
9.161676646706582
20
-53.651472565073945
40
0.06
0
CIRCLE
8
P9
10
5.389221556886227
20
-53.89099352315777
40
0.06
0
CIRCLE
8
P9
10
8.852582065708901
20
-53.34237798407622
40
0.06
0
CIRCLE
8
P9
10
5.389221556886227
20
-53.41195160699009
40
0.06
0
CIRCLE
8
P9
10
9.520958083832326
20
-55.68740070878652
40
0.06
0
CIRCLE
8
P9
10
5.389221556886227
20
-54.37003543932543
40
0.06
0
CIRCLE
8
P9
10
9.090538272370637
20
-55.43889771477452
40
0.06
0
CIRCLE
8
P9
10
5.389221556886227
20
-55.32811927166074
40
0.06
0
CIRCLE
8
P9
10
6.646706586826355
20
-55.68740070878652
40
0.06
0
CIRCLE
8
P9
10
5.389221556886227
20
-56.28620310399609
40
0.06
0
CIRCLE
8
P9
10
17.9765860888444
20
-55.88810714019917
40
0.06
0
CIRCLE
8
P9
10
12.704304161836063
20
-53.34237798407622
40
0.06
0
CIRCLE
8
P9
10
12.035928143712567
20
-55.68740070878652
40
0.06
0
CIRCLE
8
P9
10
12.395209580838369
20
-53.651472565073945
40
0.06
0
CIRCLE
8
P9
10
12.466347955174271
20
-55.43889771477452
40
0.06
0
CIRCLE
8
P9
10
16.167664670658652
20
-56.76524502016376
40
0.06
0
CIRCLE
8
P9
10
14.910179640718624
20
-55.68740070878652
40
0.06
0
CIRCLE
8
P9
10
16.167664670658652
20
-55.80716118782844
40
0.06
0
CIRCLE
8
P9
10
14.358743252472962
20
-55.88810714019917
40
0.06
0
CIRCLE
8
P9
10
16.167664670658652
20
-54.84907735549308
40
0.06
0
CIRCLE
8
P9
10
19.940119760478993
20
-53.651472565073945
40
0.06
0
CIRCLE
8
P9
10
16.167664670658652
20
-53.89099352315777
40
0.06
0
CIRCLE
8
P9
10
19.63102517948134
20
-53.34237798407622
40
0.06
0
CIRCLE
8
P9
10
16.167664670658652
20
-53.41195160699009
40
0.06
0
CIRCLE
8
P9
10
20.29940119760478
20
-55.68740070878652
40
0.06
0
CIRCLE
8
P9
10
16.167664670658652
20
-54.37003543932543
40
0.06
0
CIRCLE
8
P9
10
19.86898138614309
20
-55.43889771477452
40
0.06
0
CIRCLE
8
P9
10
16.167664670658652
20
-55.32811927166074
40
0.06
0
CIRCLE
8
P9
10
17.425149700598794
20
-55.68740070878652
40
0.06
0
CIRCLE
8
P9
10
16.167664670658652
20
-56.28620310399609
40
0.06
0
CIRCLE
8
P9
10
28.755029202616825
20
-55.88810714019917
40
0.06
0
CIRCLE
8
P9
10
23.482747275608475
20
-53.34237798407622
40
0.06
0
CIRCLE
8
P9
10
22.814371257485035
20
-55.68740070878652
40
0.06
0
CIRCLE
8
P9
10
23.173652694610823
20
-53.651472565073945
40
0.06
0
CIRCLE
8
P9
10
23.244791068946725
20
-55.43889771477452
40
0.06
0
CIRCLE
8
P9
10
26.946107784431106
20
-56.76524502016376
40
0.06
0
CIRCLE
8
P9
10
25.68862275449105
20
-55.68740070878652
40
0.06
0
CIRCLE
8
P9
10
26.946107784431106
20
-55.80716118782844
40
0.06
0
CIRCLE
8
P9
10
25.137186366245416
20
-55.88810714019917
40
0.06
0
CIRCLE
8
P9
10
26.946107784431106
20
-54.84907735549308
40
0.06
0
CIRCLE
8
P9
10
30.718562874251475
20
-53.651472565073945
40
0.06
0
CIRCLE
8
P9
10
26.946107784431106
20
-53.89099352315777
40
0.06
0
CIRCLE
8
P9
10
30.409468293253823
20
-53.34237798407622
40
0.06
0
CIRCLE
8
P9
10
26.946107784431106
20
-53.41195160699009
40
0.06
0
CIRCLE
8
P9
10
31.077844311377262
20
-55.68740070878652
40
0.06
0
CIRCLE
8
P9
10
26.946107784431106
20
-54.37003543932543
40
0.06
0
CIRCLE
8
P9
10
30.647424499915573
20
-55.43889771477452
40
0.06
0
CIRCLE
8
P9
10
26.946107784431106
20
-55.32811927166074
40
0.06
0
CIRCLE
8
P9
10
28.203592814371248
20
-55.68740070878652
40
0.06
0
CIRCLE
8
P9
10
26.946107784431106
20
-56.28620310399609
40
0.06
0
CIRCLE
8
P9
10
39.53347231638931
20
-55.88810714019917
40
0.06
0
CIRCLE
8
P9
10
34.2611903893809
20
-53.34237798407622
40
0.06
0
CIRCLE
8
P9
10
33.59281437125746
20
-55.68740070878652
40
0.06
0
CIRCLE
8
P9
10
33.95209580838328
20
-53.651472565073945
40
0.06
0
CIRCLE
8
P9
10
34.02323418271921
20
-55.43889771477452
40
0.06
0
CIRCLE
8
P9
10
37.72455089820356
20
-56.76524502016376
40
0.06
0
CIRCLE
8
P9
10
36.467065868263504
20
-55.68740070878652
40
0.06
0
CIRCLE
8
P9
10
37.72455089820356
20
-55.80716118782844
40
0.06
0
CIRCLE
8
P9
10
35.9156294800179
20
-55.88810714019917
40
0.06
0
CIRCLE
8
P9
10
37.72455089820356
20
-54.84907735549308
40
0.06
0
CIRCLE
8
P9
10
41.49700598802393
20
-53.651472565073945
40
0.06
0
CIRCLE
8
P9
10
37.72455089820356
20
-53.89099352315777
40
0.06
0
CIRCLE
8
P9
10
41.187911407026306
20
-53.34237798407622
40
0.06
0
CIRCLE
8
P9
10
37.72455089820356
20
-53.41195160699009
40
0.06
0
CIRCLE
8
P9
10
41.856287425149716
20
-55.68740070878652
40
0.06
0
CIRCLE
8
P9
10
37.72455089820356
20
-54.37003543932543
40
0.06
0
CIRCLE
8
P9
10
41.425867613688
20
-55.43889771477452
40
0.06
0
CIRCLE
8
P9
10
37.72455089820356
20
-55.32811927166074
40
0.06
0
CIRCLE
8
P9
10
38.98203592814373
20
-55.68740070878652
40
0.06
0
CIRCLE
8
P9
10
37.72455089820356
20
-56.28620310399609
40
0.06
0
CIRCLE
8
P9
10
50.31191543016173
20
-55.88810714019917
40
0.06
0
CIRCLE
8
P9
10
45.03963350315338
20
-53.34237798407622
40
0.06
0
CIRCLE
8
P9
10
44.37125748502994
20
-55.68740070878652
40
0.06
0
CIRCLE
8
P9
10
44.73053892215573
20
-53.651472565073945
40
0.06
0
CIRCLE
8
P9
10
44.80167729649163
20
-55.43889771477452
40
0.06
0
CIRCLE
8
P9
10
48.50299401197604
20
-56.76524502016376
40
0.06
0
CIRCLE
8
P9
10
47.245508982035986
20
-55.68740070878652
40
0.06
0
CIRCLE
8
P9
10
48.50299401197604
20
-55.80716118782844
40
0.06
0
CIRCLE
8
P9
10
46.69407259379035
20
-55.88810714019917
40
0.06
0
CIRCLE
8
P9
10
48.50299401197604
20
-54.84907735549308
40
0.06
0
CIRCLE
8
P9
10
52.275449101796355
20
-53.651472565073945
40
0.06
0
CIRCLE
8
P9
10
48.50299401197604
20
-53.89099352315777
40
0.06
0
CIRCLE
8
P9
10
51.96635452079873
20
-53.34237798407622
40
0.06
0
CIRCLE
8
P9
10
48.50299401197604
20
-53.41195160699009
40
0.06
0
CIRCLE
8
P9
10
52.63473053892214
20
-55.68740070878652
40
0.06
0
CIRCLE
8
P9
10
48.50299401197604
20
-54.37003543932543
40
0.06
0
CIRCLE
8
P9
10
52.20431072746048
20
-55.43889771477452
40
0.06
0
CIRCLE
8
P9
10
48.50299401197604
20
-55.32811927166074
40
0.06
0
CIRCLE
8
P9
10
49.76047904191613
20
-55.68740070878652
40
0.06
0
CIRCLE
8
P9
10
48.50299401197604
20
-56.28620310399609
40
0.06
0
ENDBLK
0
ENDSEC
0
SECTION
2
ENTITIES
0
INSERT
2
LDI_XFL94-0512-011_P9_B1
8
P9
10
0
20
0.0
30
0
0
INSERT
2
LDI_XFL94-0512-011_P9_B1
8
P9
10
0
20
4.790419161676647
30
0
0
INSERT
2
LDI_XFL94-0512-011_P9_B1
8
P9
10
0
20
9.580838323353294
30
0
0
INSERT
2
LDI_XFL94-0512-011_P9_B1
8
P9
10
0
20
14.371257485029941
30
0
0
INSERT
2
LDI_XFL94-0512-011_P9_B1
8
P9
10
0
20
19.16167664670659
30
0
0
INSERT
2
LDI_XFL94-0512-011_P9_B1
8
P9
10
0
20
23.952095808383234
30
0
0
INSERT
2
LDI_XFL94-0512-011_P9_B1
8
P9
10
0
20
28.742514970059883
30
0
0
INSERT
2
LDI_XFL94-0512-011_P9_B1
8
P9
10
0
20
33.53293413173653
30
0
0
INSERT
2
LDI_XFL94-0512-011_P9_B1
8
P9
10
0
20
38.32335329341318
30
0
0
INSERT
2
LDI_XFL94-0512-011_P9_B1
8
P9
10
0
20
43.11377245508982
30
0
0
INSERT
2
LDI_XFL94-0512-011_P9_B1
8
P9
10
0
20
47.90419161676647
30
0
0
INSERT
2
LDI_XFL94-0512-011_P9_B1
8
P9
10
0
20
52.69461077844312
30
0
0
INSERT
2
LDI_XFL94-0512-011_P9_B1
8
P9
10
0
20
57.485029940119766
30
0
0
INSERT
2
LDI_XFL94-0512-011_P9_B1
8
P9
10
0
20
62.27544910179641
30
0
0
INSERT
2
LDI_XFL94-0512-011_P9_B1
8
P9
10
0
20
67.06586826347306
30
0
0
INSERT
2
LDI_XFL94-0512-011_P9_B1
8
P9
10
0
20
71.8562874251497
30
0
0
INSERT
2
LDI_XFL94-0512-011_P9_B1
8
P9
10
0
20
76.64670658682635
30
0
0
INSERT
2
LDI_XFL94-0512-011_P9_B1
8
P9
10
0
20
81.43712574850301
30
0
0
INSERT
2
LDI_XFL94-0512-011_P9_B1
8
P9
10
0
20
86.22754491017965
30
0
0
INSERT
2
LDI_XFL94-0512-011_P9_B1
8
P9
10
0
20
91.0179640718563
30
0
0
INSERT
2
LDI_XFL94-0512-011_P9_B1
8
P9
10
0
20
95.80838323353294
30
0
0
INSERT
2
LDI_XFL94-0512-011_P9_B1
8
P9
10
0
20
100.59880239520959
30
0
0
INSERT
2
LDI_XFL94-0512-011_P9_B1
8
P9
10
0
20
105.38922155688624
30
0
0
INSERT
2
LDI_XFL94-0512-011_P9_B1
8
P9
10
0
20
110.17964071856288
30
0
0
POLYLINE
8
P9
66
1
70
1
40
0.1
41
0.1
0
VERTEX
8
P9
10
-61.5
20
-61.2
42
1.0
0
VERTEX
8
P9
10
-60.900000000000006
20
-61.2
42
1.0
0
SEQEND
0
POLYLINE
8
P9
66
1
70
1
40
0.1
41
0.1
0
VERTEX
8
P9
10
-61.5
20
61.2
42
1.0
0
VERTEX
8
P9
10
-60.900000000000006
20
61.2
42
1.0
0
SEQEND
0
POLYLINE
8
P9
66
1
70
1
40
0.1
41
0.1
0
VERTEX
8
P9
10
60.90000000000002
20
-61.2
42
1.0
0
VERTEX
8
P9
10
61.499999999999986
20
-61.2
42
1.0
0
SEQEND
0
POLYLINE
8
P9
66
1
70
1
40
0.1
41
0.1
0
VERTEX
8
P9
10
60.90000000000002
20
61.2
42
1.0
0
VERTEX
8
P9
10
61.499999999999986
20
61.2
42
1.0
0
SEQEND
0
TEXT
8
P9
10
-10.5
20
66.7
40
1.5
1
XFL94-0512-011-P9
0
POLYLINE
8
P9
66
1
70
1
0
VERTEX
8
P9
10
-100.0
20
100.0
30
0
40
1
41
1
0
VERTEX
8
P9
10
100.0
20
100.0
30
0
40
1
41
1
0
VERTEX
8
P9
10
100.0
20
-100.0
30
0
40
1
41
1
0
VERTEX
8
P9
10
-100.0
20
-100.0
30
0
40
1
41
1
0
SEQEND
0
ENDSEC
0
EOF
